<?xml version="1.0" standalone="no"?>
<!DOCTYPE svg PUBLIC "-//W3C//DTD SVG 1.1//EN" "http://www.w3.org/Graphics/SVG/1.1/DTD/svg11.dtd" >
<svg xmlns="http://www.w3.org/2000/svg">
<metadata>
Created by FontPrep 20130207 at Wed Nov 19 14:10:05 2014
 By Joshua Ellington
(c) 2014 Apple Inc. All rights reserved.
</metadata>
<defs>
<font id="4378f5b41d6994e2be707d90b87773f9" horiz-adv-x='1024' >
  <font-face 
    font-family=".HelveticaNeueDeskInterface-Thin"
    font-weight="200"
    font-stretch="normal"
    units-per-em="2048"
    panose-1="0 0 0 0 0 0 0 0 0 0"
    ascent="1638"
    descent="-410"
    x-height="1128"
    cap-height="1482"
    bbox="-516 -524 2231 2158"
    underline-thickness="104"
    underline-position="-52"
    unicode-range="U+0020-FB02"
  />
<missing-glyph horiz-adv-x="1406" 
d="M554 968q0 87 64 124q31 18 81 18q49 0 85 -33q36 -32 36 -81t-22 -78t-94 -80t-102 -111q-31 -60 -21 -148h181v16q0 52 21 82q21 29 97 85t111 110q33 54 33 127q0 123 -88 198t-240 75t-242 -84t-86 -220h186zM545 341q1 -52 37 -84t95 -32t96 32q36 32 37 84
q0 53 -36 85t-96 32t-96 -32t-37 -85zM131 0v1488h1147v-1488h-1147z" />
    <glyph glyph-name=".notdef" horiz-adv-x="1406" 
d="M554 968q0 87 64 124q31 18 81 18q49 0 85 -33q36 -32 36 -81t-22 -78t-94 -80t-102 -111q-31 -60 -21 -148h181v16q0 52 21 82q21 29 97 85t111 110q33 54 33 127q0 123 -88 198t-240 75t-242 -84t-86 -220h186zM545 341q1 -52 37 -84t95 -32t96 32q36 32 37 84
q0 53 -36 85t-96 32t-96 -32t-37 -85zM131 0v1488h1147v-1488h-1147z" />
    <glyph glyph-name=".null" horiz-adv-x="0" 
 />
    <glyph glyph-name="nonmarkingreturn" horiz-adv-x="0" 
 />
    <glyph glyph-name="space" unicode=" " horiz-adv-x="457" 
 />
    <glyph glyph-name="exclam" unicode="!" horiz-adv-x="528" 
d="M219 1482h93l-8 -1076h-77zM264 152q34 0 60 -24t26 -59t-25 -61t-61 -25q-36 -1 -59 25q-24 26 -24 61t24 59t59 24z" />
    <glyph glyph-name="quotedbl" unicode="&#x22;" horiz-adv-x="661" 
d="M414 1482h104l-18 -470h-67zM146 1482h102l-19 -470h-67z" />
    <glyph glyph-name="numbersign" unicode="#" horiz-adv-x="1300" 
d="M514 959l-85 -426h385l85 426h-385zM1247 959h-269l-85 -426h254l-15 -77h-256l-96 -456h-77l94 456h-385l-94 -456h-79l94 456h-254l15 77h258l83 426h-241l14 77h244l91 450h79l-93 -450h387l91 450h79l-93 -450h270z" />
    <glyph glyph-name="dollar" unicode="$" horiz-adv-x="1140" 
d="M620 -156h-79v146q-119 2 -213 38q-169 65 -231 213q-28 67 -30 136h91q4 -121 104 -209t279 -97v660l-96 25q-337 89 -337 370q0 162 118 261t315 109v144h79v-146q129 -6 225 -55q194 -99 198 -294h-88q-2 102 -88 181t-247 89v-616l56 -14q202 -52 296 -146
q94 -93 94 -261t-121 -272t-325 -114v-148zM974 381q0 85 -35 147t-118 109q-83 48 -201 73v-639q162 11 258 93t96 217zM198 1134q0 -216 279 -295q1 -2 17 -6q16 -5 30 -9t17 -4v595q-155 -8 -249 -84t-94 -197z" />
    <glyph glyph-name="percent" unicode="%" horiz-adv-x="1560" 
d="M264 0h-89l1120 1482h89zM955 333v40q0 102 36 180q72 161 227 161q110 0 186 -94t76 -250v-39q0 -154 -76 -248q-76 -93 -187 -93t-187 93q-75 94 -75 250zM1030 368v-33q0 -173 93 -242q43 -33 109 -33t119 74q54 74 54 201v33q0 125 -54 200t-134 75q-79 0 -133 -75
t-54 -200zM83 1130v40q0 152 76 246t186 95q73 0 133 -41q60 -42 94 -120q35 -78 36 -180v-42q0 -154 -76 -248t-188 -94t-186 94q-75 94 -75 250zM158 1168v-36q0 -127 54 -201t133 -74t134 74q54 74 54 201v34q0 171 -93 242q-43 32 -95 32q-79 0 -133 -74t-54 -198z" />
    <glyph glyph-name="ampersand" unicode="&#x26;" horiz-adv-x="1379" 
d="M860 1182q0 98 -70 166t-182 68t-187 -66q-73 -66 -73 -156t46 -160q46 -69 158 -183q168 81 238 157t70 174zM179 375q0 -143 108 -233t273 -90q118 0 240 51t203 145l-474 510q-13 -8 -92 -48q-258 -135 -258 -335zM562 -29q-276 0 -408 183q-67 94 -67 219
q0 257 324 411q60 28 61 32q-114 114 -164 196t-50 174t49 164q98 144 301 144q152 0 246 -90t95 -214q0 -124 -83 -215t-258 -180l445 -479q46 69 76 188q30 118 32 192t2 128h86q-1 -201 -39 -343t-94 -223l241 -258h-121l-177 189q-98 -108 -232 -163t-265 -55z" />
    <glyph glyph-name="quotesingle" unicode="'" horiz-adv-x="391" 
d="M146 1482h102l-19 -470h-67z" />
    <glyph glyph-name="parenleft" unicode="(" horiz-adv-x="620" 
d="M256 617q0 -340 90 -559t170 -345h-77q-84 107 -150 267q-120 289 -120 632t89 545q89 201 187 327h73q-40 -50 -78 -117q-184 -316 -184 -750z" />
    <glyph glyph-name="parenright" unicode=")" horiz-adv-x="618" 
d="M364 616q0 517 -260 868h71q199 -264 251 -555q26 -145 26 -313q0 -342 -89 -560q-89 -219 -182 -343h-77q184 300 234 589q26 150 26 314z" />
    <glyph glyph-name="asterisk" unicode="*" horiz-adv-x="913" 
d="M493 760h-68l6 310l-271 -158l-33 60l279 146l-279 158l33 58l271 -173l-6 325h68l-8 -325l271 173l33 -58l-279 -158l279 -146l-33 -60l-271 158z" />
    <glyph glyph-name="plus" unicode="+" horiz-adv-x="1140" 
d="M610 562v-525h-79v525h-475v79h475v506h79v-506h476v-79h-476z" />
    <glyph glyph-name="comma" unicode="," horiz-adv-x="380" 
d="M137 -318h-70l95 437h102z" />
    <glyph glyph-name="hyphen" unicode="-" horiz-adv-x="830" 
d="M758 572h-685v79h685v-79z" />
    <glyph glyph-name="period" unicode="." horiz-adv-x="466" 
d="M150 67q0 35 24 59t59 24t60 -24t25 -59t-25 -59t-60 -25q-35 1 -59 25t-24 59z" />
    <glyph glyph-name="slash" unicode="/" horiz-adv-x="682" 
d="M112 -343h-75l540 1906h77z" />
    <glyph glyph-name="zero" unicode="0" horiz-adv-x="1194" 
d="M121 681v118q0 341 125 529q124 188 344 187q220 0 344 -187t123 -529v-118q0 -341 -124 -527q-123 -186 -343 -187q-220 1 -344 187t-125 527zM212 801v-122q0 -305 101 -469t277 -164t277 164t101 469v122q0 305 -101 469t-277 164t-277 -164t-101 -469z" />
    <glyph glyph-name="one" unicode="1" horiz-adv-x="826" 
d="M568 0h-87v1380h-4q-12 -8 -180 -116t-189 -121v93q24 19 190 126t185 118h85v-1480z" />
    <glyph glyph-name="two" unicode="2" horiz-adv-x="1180" 
d="M235 1111h-87v5q0 222 196 339q103 60 243 60q203 0 319 -112t116 -260t-64 -250t-159 -210l-522 -602v-2h778v-79h-901v71l585 670q142 161 176 275q16 54 15 112q0 127 -91 218q-92 90 -253 90t-256 -95t-95 -225v-5z" />
    <glyph glyph-name="three" unicode="3" horiz-adv-x="1194" 
d="M420 724v81h132q172 0 270 94t97 228q-1 133 -95 221t-256 88t-260 -108q-72 -82 -79 -200h-87q0 134 96 252q48 60 136 98t198 37q202 0 320 -106q118 -107 120 -267t-94 -260t-217 -112v-2q207 -13 322 -178q59 -86 59 -199q0 -185 -144 -306t-359 -120q-112 0 -204 35
q-165 63 -235 223q-30 71 -30 147h88q4 -132 105 -228t279 -96t294 98t115 246q0 148 -120 242q-120 93 -303 92h-148z" />
    <glyph glyph-name="four" unicode="4" horiz-adv-x="1202" 
d="M189 441h625v962h-4q-56 -83 -326 -499t-295 -459v-4zM897 1482v-1041h216v-81h-216v-360h-83v360h-722v79q28 51 350 545t324 498h131z" />
    <glyph glyph-name="five" unicode="5" horiz-adv-x="1211" 
d="M610 46q166 0 282 120t116 295t-112 293q-111 118 -286 118q-131 0 -228 -63t-134 -139h-84l98 812h733v-79h-658l-83 -623h4q31 56 130 114t230 59q210 0 346 -139q136 -138 135 -350t-141 -355t-352 -142q-326 0 -441 261q-28 65 -30 130h92q9 -112 96 -205
q45 -47 119 -77t168 -30z" />
    <glyph glyph-name="six" unicode="6" horiz-adv-x="1171" 
d="M614 864q-158 0 -279 -114t-121 -288q0 -176 112 -296t288 -120q110 0 201 50t141 142t51 207q0 187 -117 303q-118 116 -276 116zM645 1417q-202 -1 -328 -193t-128 -575h2q33 121 150 208t283 88q117 0 223 -56t178 -172t72 -263q1 -219 -137 -353t-358 -134t-357 164
q-138 164 -139 498q0 648 330 818q97 50 215 49q171 0 283 -110t127 -254h-87q-10 112 -98 198t-231 87z" />
    <glyph glyph-name="seven" unicode="7" horiz-adv-x="1140" 
d="M119 1482h888v-85l-639 -1397h-95l645 1397v4h-799v81z" />
    <glyph glyph-name="eight" unicode="8" horiz-adv-x="1215" 
d="M608 -33q-216 0 -357 119q-140 120 -141 307q0 87 32 161t85 120q102 89 210 109v6q-92 21 -174 99q-43 41 -69 104q-27 63 -27 138q0 169 123 277q124 108 319 108t319 -108t123 -277q0 -203 -184 -308q-45 -25 -89 -33v-6q144 -21 250 -151q79 -97 79 -239
q0 -187 -141 -307q-142 -119 -358 -119zM256 1128q0 -136 101 -222t252 -86t252 85t101 221t-99 224q-99 86 -253 86t-254 -86t-100 -222zM609 745q-181 0 -295 -97q-114 -96 -114 -250t116 -254t293 -100q178 0 292 100q115 100 115 254t-114 250t-293 97z" />
    <glyph glyph-name="nine" unicode="9" horiz-adv-x="1171" 
d="M945 995q0 197 -104 319q-105 122 -275 122t-280 -115q-109 -116 -109 -300q0 -183 111 -295q110 -112 272 -112t274 111q111 112 111 270zM970 824h-2q-42 -123 -144 -206t-283 -83t-318 132q-137 133 -137 353t136 358t349 137q213 0 348 -168q136 -168 136 -574
q0 -798 -516 -798q-98 0 -180 34q-146 60 -214 211q-31 65 -37 134h88q12 -106 97 -202q84 -96 238 -96q153 0 246 75q193 156 193 693z" />
    <glyph glyph-name="colon" unicode=":" horiz-adv-x="453" 
d="M144 86q0 34 24 60t58 25q34 0 59 -25q25 -26 25 -60t-25 -58t-59 -24t-58 24t-24 58zM144 889q0 35 24 59t58 24t59 -24t25 -59t-25 -59t-59 -25q-34 1 -58 25t-24 59z" />
    <glyph glyph-name="semicolon" unicode=";" horiz-adv-x="466" 
d="M158 -283h-73l90 402h102zM129 889q0 35 24 59t58 24q33 0 59 -24t26 -59t-25 -59t-59 -25q-34 1 -59 25q-24 24 -24 59z" />
    <glyph glyph-name="less" unicode="&#x3c;" horiz-adv-x="1140" 
d="M135 508v87l852 585v-96l-766 -522v-13l766 -487v-95z" />
    <glyph glyph-name="equal" unicode="=" horiz-adv-x="1140" 
d="M1016 751h-893v77h893v-77zM1016 362h-893v77h893v-77z" />
    <glyph glyph-name="greater" unicode="&#x3e;" horiz-adv-x="1140" 
d="M1014 595v-87l-852 -541v95l768 487v13l-768 522v96z" />
    <glyph glyph-name="question" unicode="?" horiz-adv-x="957" 
d="M478 1517q182 -1 298 -93t115 -254q0 -77 -31 -145q-31 -69 -76 -115q-44 -46 -132 -112t-121 -128t-34 -146v-95h-89v108q0 98 45 171t151 154q106 82 150 148t45 158q1 128 -91 198t-227 70q-231 0 -307 -189q-18 -46 -22 -94h-85q8 160 118 262q111 102 293 102z
M370 61q0 43 25 67t61 24t60 -24q25 -24 25 -51q0 -67 -47 -85t-86 5q-38 21 -38 64z" />
    <glyph glyph-name="at" unicode="@" horiz-adv-x="1783" 
d="M670 533q0 -202 131 -259q37 -16 87 -16q115 0 179 103q34 57 34 143v133q0 104 -57 178t-158 74q-100 0 -158 -71t-58 -194v-91zM1105 799v142h75v-514q0 -65 30 -105q53 -72 153 -71t171 99t71 301v40q0 273 -177 462q-86 92 -218 145t-292 53h-6q-321 0 -518 -207
t-196 -565v-38q0 -175 55 -314q107 -270 378 -367q129 -47 279 -47h10q189 0 325 48v-71q-117 -48 -325 -48h-10q-229 0 -406 89t-281 271t-104 433v52q0 381 219 608q220 227 574 227h6q178 0 324 -60t241 -163q197 -212 197 -504v-56q0 -216 -94 -334t-231 -118t-202 83
q-31 39 -37 86h-7q-9 -45 -48 -87q-76 -82 -196 -82q-120 1 -198 87t-78 250v105q0 151 74 241t207 89q178 0 231 -160h4z" />
    <glyph glyph-name="A" unicode="A" horiz-adv-x="1250" 
d="M629 1372h-7l-281 -798h566zM142 0h-94l531 1482h93l531 -1482h-96l-172 500h-619z" />
    <glyph glyph-name="B" unicode="B" horiz-adv-x="1315" 
d="M296 720v-639h393q200 0 310 81q110 80 110 238t-110 239t-281 81h-422zM296 1401v-600h368q158 0 260 78t102 224t-94 222t-260 76h-376zM206 0v1482h481q199 0 315 -97t116 -266t-122 -276q-63 -54 -132 -67v-6q144 -14 240 -108t97 -270q0 -176 -128 -284t-361 -108
h-506z" />
    <glyph glyph-name="C" unicode="C" horiz-adv-x="1354" 
d="M237 874v-268q0 -242 114 -400t357 -158q194 0 312 106t118 260h88v-2q0 -179 -142 -312t-376 -133q-285 0 -423 180q-137 180 -137 467v252q0 396 244 562q128 87 311 87q123 1 223 -41q177 -73 256 -253q33 -78 33 -157v-5h-87q0 133 -107 250q-51 57 -134 91t-184 34
q-154 0 -261 -76q-205 -146 -205 -484z" />
    <glyph glyph-name="D" unicode="D" horiz-adv-x="1409" 
d="M296 1401v-1320h310q291 0 432 173q140 173 140 485t-140 487t-432 175h-310zM206 1482h400q341 0 501 -196q161 -196 161 -541t-154 -545t-508 -200h-400v1482z" />
    <glyph glyph-name="E" unicode="E" horiz-adv-x="1167" 
d="M1053 81v-81h-847v1482h847v-83h-757v-600h720v-81h-720v-637h757z" />
    <glyph glyph-name="F" unicode="F" horiz-adv-x="1092" 
d="M296 0h-90v1482h835v-83h-745v-614h684v-82h-684v-703z" />
    <glyph glyph-name="G" unicode="G" horiz-adv-x="1375" 
d="M702 1434q-206 0 -336 -151t-129 -411v-248q0 -262 121 -419q122 -157 336 -157t332 102t119 283v202h-444v81h527v-283q0 -208 -138 -337t-380 -129q-187 0 -317 87q-245 165 -245 570v248q0 296 151 470t405 173q254 0 385 -128t135 -290h-88q-4 133 -116 235t-318 102
z" />
    <glyph glyph-name="H" unicode="H" horiz-adv-x="1452" 
d="M1245 0h-90v737h-859v-737h-90v1482h90v-664h859v664h90v-1482z" />
    <glyph glyph-name="I" unicode="I" horiz-adv-x="536" 
d="M312 0h-87v1482h87v-1482z" />
    <glyph glyph-name="J" unicode="J" horiz-adv-x="986" 
d="M40 321h89q0 -93 67 -177t210 -84q142 0 224 82t82 245v1095h89v-1091q0 -204 -105 -308t-284 -104q-271 0 -352 225q-20 59 -20 117z" />
    <glyph glyph-name="K" unicode="K" horiz-adv-x="1207" 
d="M296 0h-90v1482h90v-795h4l741 795h114l-608 -658l644 -824h-117l-593 762l-185 -194v-568z" />
    <glyph glyph-name="L" unicode="L" horiz-adv-x="1103" 
d="M1041 81v-81h-835v1482h90v-1401h745z" />
    <glyph glyph-name="M" unicode="M" horiz-adv-x="1714" 
d="M291 0h-81v1482h88l557 -1263h5l559 1263h88v-1482h-81v1282h-4l-523 -1168h-83l-520 1168h-5v-1282z" />
    <glyph glyph-name="N" unicode="N" horiz-adv-x="1452" 
d="M296 0h-90v1482h94l851 -1326h4v1326h90v-1482h-92l-853 1326h-4v-1326z" />
    <glyph glyph-name="O" unicode="O" 
d="M148 606v266q0 296 150 470t416 173q266 0 416 -175t150 -470v-264q0 -296 -151 -468t-417 -172t-415 172t-149 468zM235 878v-279q0 -251 128 -401t350 -150t350 150t128 401v279q1 252 -129 404t-350 152q-144 0 -252 -69t-166 -195t-59 -292z" />
    <glyph glyph-name="P" unicode="P" horiz-adv-x="1225" 
d="M296 1401v-710h358q194 0 298 89q104 90 103 262q0 172 -98 266t-274 93h-387zM206 1482h479q219 0 341 -118t121 -320q0 -202 -122 -318q-122 -117 -340 -116h-389v-610h-90v1482z" />
    <glyph glyph-name="Q" unicode="Q" 
d="M235 878v-266q0 -254 128 -404t349 -150q131 0 229 52l-196 269h106l161 -221q179 148 179 454v266q1 254 -129 405t-350 151t-348 -151q-129 -151 -129 -405zM148 618v254q0 296 149 470t416 173q267 0 417 -174t150 -469v-254q0 -362 -219 -531l200 -270h-102l-166 225
q-121 -67 -281 -67q-266 -1 -415 173t-149 470z" />
    <glyph glyph-name="R" unicode="R" horiz-adv-x="1292" 
d="M296 726h383q173 0 273 90t99 246q0 157 -100 248t-270 91h-385v-675zM693 1482q208 0 329 -116t121 -290q1 -174 -87 -276t-230 -136l342 -664h-104l-329 647h-439v-647h-90v1482h487z" />
    <glyph glyph-name="S" unicode="S" horiz-adv-x="1242" 
d="M1036 373q0 131 -83 199t-262 117l-194 52q-339 92 -339 377q0 181 131 290t343 109t340 -106q127 -106 129 -268h-92q-6 117 -101 204q-96 87 -274 87t-281 -85t-103 -237t128 -226q61 -36 159 -62l187 -52q197 -52 300 -137q104 -85 104 -266t-143 -291t-371 -111
q-133 -1 -236 39q-172 66 -241 234q-27 68 -29 137h92q4 -115 103 -222t327 -107q116 0 210 42q96 42 146 115q50 74 50 168z" />
    <glyph glyph-name="T" unicode="T" horiz-adv-x="1115" 
d="M604 0h-88v1401h-501v81h1086v-81h-497v-1401z" />
    <glyph glyph-name="U" unicode="U" 
d="M273 1482v-970q-1 -214 115 -338t326 -124t325 124q114 124 114 338v970h92v-970q0 -250 -142 -398q-141 -148 -389 -148t-390 148t-141 398v970h90z" />
    <glyph glyph-name="V" unicode="V" horiz-adv-x="1265" 
d="M679 0h-100l-537 1482h100l487 -1372h4l493 1372h98z" />
    <glyph glyph-name="W" unicode="W" horiz-adv-x="1821" 
d="M527 0h-96l-394 1482h100l342 -1345h4l381 1345h95l379 -1345h4l342 1345h100l-396 -1482h-93l-381 1336h-7z" />
    <glyph glyph-name="X" unicode="X" horiz-adv-x="1221" 
d="M1176 1482l-512 -745l506 -737h-109l-449 666h-6l-452 -666h-104l506 741l-506 741h106l456 -668h4l456 668h104z" />
    <glyph glyph-name="Y" unicode="Y" horiz-adv-x="1153" 
d="M622 0h-89v662l-512 820h106l447 -729h7l449 729h102l-510 -818v-664z" />
    <glyph glyph-name="Z" unicode="Z" horiz-adv-x="1255" 
d="M104 0v71l926 1326v4h-897v81h1008v-71l-925 -1326v-6h929v-79h-1041z" />
    <glyph glyph-name="bracketleft" unicode="[" horiz-adv-x="630" 
d="M169 1482h372v-69h-289v-1588h304v-69h-387v1726z" />
    <glyph glyph-name="backslash" unicode="\" horiz-adv-x="682" 
d="M645 -343h-75l-539 1906h75z" />
    <glyph glyph-name="bracketright" unicode="]" horiz-adv-x="630" 
d="M89 1482h375v-1726h-387v69h304v1588h-292v69z" />
    <glyph glyph-name="asciicircum" unicode="^" horiz-adv-x="815" 
d="M724 866h-83l-231 531h-4l-233 -531h-81l272 620h88z" />
    <glyph glyph-name="underscore" unicode="_" horiz-adv-x="926" 
d="M951 -210h-976v77h976v-77z" />
    <glyph glyph-name="grave" unicode="`" horiz-adv-x="876" 
d="M549 1317h-68l-279 319h98z" />
    <glyph glyph-name="a" unicode="a" horiz-adv-x="1105" 
d="M493 60q144 0 246 91t102 230v171h-344q-147 0 -219 -62t-72 -157q0 -177 139 -242q65 -31 148 -31zM472 -19q-154 0 -258 91q-102 92 -102 240t99 233t284 86h346v164q0 181 -141 243q-66 28 -148 28q-154 0 -224 -64t-78 -134h-88q6 117 106 198t279 81q179 -1 281 -87
t102 -252v-808h-87v183h-4q-29 -71 -121 -137t-246 -65z" />
    <glyph glyph-name="b" unicode="b" horiz-adv-x="1202" 
d="M273 472q1 -176 99 -294t256 -118t258 108q101 108 101 311v172q0 194 -98 304q-97 111 -259 111t-260 -120t-97 -288v-186zM271 216v-216h-86v1563h88v-651h4q19 55 58 100q117 135 310 135q195 0 313 -131t118 -350v-202q0 -231 -124 -357t-300 -126t-268 84
q-77 66 -109 151h-4z" />
    <glyph glyph-name="c" unicode="c" horiz-adv-x="1109" 
d="M131 483v171q0 152 56 264t156 170q101 58 215 59q211 0 321 -108t114 -236h-86q-22 150 -160 223q-75 40 -177 40t-182 -50t-125 -147t-44 -230v-148q1 -204 97 -316q96 -113 256 -113t239 71q80 71 99 171h85q-8 -119 -110 -221t-308 -102q-206 -1 -326 131t-120 371z
" />
    <glyph glyph-name="d" unicode="d" horiz-adv-x="1205" 
d="M216 479q0 -194 98 -306q98 -113 260 -113t261 121q98 121 97 296v170q0 251 -172 363q-84 56 -199 56t-212 -77q-129 -107 -133 -344v-166zM562 1147q220 0 328 -158q26 -37 36 -75h6v649h86v-1563h-83v221h-5q-17 -66 -99 -146q-43 -42 -115 -68t-156 -26
q-194 0 -312 131t-119 348v206q0 227 123 354t310 127z" />
    <glyph glyph-name="e" unicode="e" horiz-adv-x="1138" 
d="M221 633h701v4q0 202 -95 315q-95 114 -256 114t-256 -114t-94 -315v-4zM133 497v115q0 256 117 395q118 139 322 139t321 -138q117 -140 116 -394v-58h-788v-59q-1 -205 95 -321t269 -116q113 0 200 51q70 44 101 113q14 30 17 61h90q-8 -107 -109 -206
q-100 -98 -308 -98q-207 1 -325 137t-118 379z" />
    <glyph glyph-name="f" unicode="f" horiz-adv-x="684" 
d="M239 0v1051h-189v77h189v142q0 154 71 222t223 67q62 0 112 -13v-75q-37 9 -127 9t-141 -46q-50 -46 -50 -160v-146h306v-77h-306v-1051h-88z" />
    <glyph glyph-name="g" unicode="g" horiz-adv-x="1190" 
d="M214 651v-129q0 -189 100 -298q100 -110 260 -110t258 119q96 119 96 283v138q0 175 -99 293q-99 119 -255 119t-258 -108t-102 -307zM582 -312q158 0 253 83q94 83 93 221v279h-4q-22 -69 -82 -128q-113 -110 -292 -110t-302 129t-123 344v164q0 225 127 351t301 126
t267 -86q77 -68 106 -147h4v214h86v-1132q0 -179 -119 -284t-321 -105q-202 -1 -306 91t-112 210h92q6 -88 90 -154t242 -66z" />
    <glyph glyph-name="h" unicode="h" horiz-adv-x="1213" 
d="M187 0v1563h86v-645h4q31 94 124 162t254 67q161 1 271 -111t110 -303v-733h-89v720q0 152 -83 248q-84 96 -242 96t-254 -110t-95 -271v-683h-86z" />
    <glyph glyph-name="i" unicode="i" horiz-adv-x="497" 
d="M195 1385q-22 22 -22 57t22 56t54 21t56 -23t24 -58t-26 -55t-56 -20t-52 22zM206 0v1128h87v-1128h-87z" />
    <glyph glyph-name="j" unicode="j" horiz-adv-x="497" 
d="M293 1128v-1203q0 -156 -59 -225t-182 -68q-48 0 -81 8v77q35 -8 82 -8q47 1 82 21q71 42 71 193v1205h87zM195 1385q-22 22 -22 57t22 56t54 21t56 -23t24 -58t-26 -55t-56 -20t-52 22z" />
    <glyph glyph-name="k" unicode="k" horiz-adv-x="1082" 
d="M273 0h-86v1563h86v-997h6l603 577h111l-498 -481l519 -662h-111l-472 604l-158 -144v-460z" />
    <glyph glyph-name="l" unicode="l" horiz-adv-x="484" 
d="M200 0v1563h87v-1563h-87z" />
    <glyph glyph-name="m" unicode="m" horiz-adv-x="1812" 
d="M181 0v1128h87v-185h7q25 77 103 140t212 63t220 -65q86 -66 112 -165h4q24 83 112 157t242 74t255 -98t101 -277v-772h-88v751q0 100 -36 172q-69 139 -251 141q-146 0 -227 -96t-81 -231v-737h-87v743q0 154 -77 237q-77 84 -217 84t-221 -97q-82 -97 -83 -247v-720
h-87z" />
    <glyph glyph-name="n" unicode="n" horiz-adv-x="1198" 
d="M181 0v1128h87v-210h5q33 94 127 162t252 67q158 0 267 -106t109 -296v-745h-89v724q-1 152 -83 246t-242 94t-252 -110q-94 -110 -94 -271v-683h-87z" />
    <glyph glyph-name="o" unicode="o" horiz-adv-x="1180" 
d="M590 1066q-170 0 -271 -116t-100 -321v-134q1 -206 101 -320q100 -115 271 -115t271 114t100 321v134q0 205 -101 321t-271 116zM591 1147q133 1 237 -59t164 -176t59 -271v-158q0 -237 -127 -369t-334 -133q-207 0 -333 132t-126 370v158q0 237 126 371t334 135z" />
    <glyph glyph-name="p" unicode="p" horiz-adv-x="1200" 
d="M271 475q0 -177 100 -296t256 -119q155 0 255 108t100 311v175q0 194 -98 302t-258 110q-162 0 -259 -119t-96 -287v-185zM271 212v-578h-90v1494h87v-216h5q21 65 81 124q114 111 296 111t302 -130t120 -349v-208q0 -229 -124 -354t-299 -125t-267 84q-77 67 -107 147
h-4z" />
    <glyph glyph-name="q" unicode="q" horiz-adv-x="1184" 
d="M930 654q0 180 -100 296t-257 116t-257 -108t-100 -311v-172q0 -191 99 -303t261 -112t258 121q97 121 96 289v184zM560 1147q218 0 328 -157q26 -36 40 -76h4v214h86v-1494h-88v580h-4q-21 -65 -107 -149t-269 -84t-302 130t-119 347v210q0 225 124 352t307 127z" />
    <glyph glyph-name="r" unicode="r" horiz-adv-x="726" 
d="M187 0v1128h88v-208h4q21 87 101 156t221 69q40 0 92 -9v-83q-37 8 -100 8q-139 0 -229 -93q-89 -94 -89 -273v-695h-88z" />
    <glyph glyph-name="s" unicode="s" horiz-adv-x="1040" 
d="M142 848q0 140 105 219q105 80 271 80q100 0 178 -29q134 -50 182 -172q21 -51 21 -101h-85q0 68 -63 143q-71 82 -255 82q-102 0 -185 -58q-82 -58 -82 -160t73 -151q74 -50 192 -79t162 -41q44 -13 103 -39t89 -55q74 -72 74 -183q0 -156 -118 -239t-294 -84
q-104 0 -186 28t-128 74q-94 94 -94 206h87q4 -81 79 -156t229 -75t245 62t91 173q0 158 -227 213q-33 8 -100 25q-185 46 -275 111q-89 66 -89 206z" />
    <glyph glyph-name="t" unicode="t" horiz-adv-x="722" 
d="M244 1128v275h87v-275h302v-77h-302v-799q0 -100 49 -140q48 -40 138 -40t129 7v-73q-46 -8 -114 -8q-164 0 -227 59q-62 59 -62 209v785h-213v77h213z" />
    <glyph glyph-name="u" unicode="u" horiz-adv-x="1196" 
d="M1016 1128v-1128h-88v210h-4q-47 -129 -186 -192q-80 -36 -180 -37q-171 0 -279 99t-108 284v764h89v-747q0 -148 84 -233q84 -86 238 -86t251 114q96 114 95 276v676h88z" />
    <glyph glyph-name="v" unicode="v" horiz-adv-x="1005" 
d="M456 0l-416 1128h97l363 -1022h4l366 1022h96l-419 -1128h-91z" />
    <glyph glyph-name="w" unicode="w" horiz-adv-x="1523" 
d="M1482 1128l-308 -1128h-90l-318 1001h-4l-317 -1001h-89l-314 1128h100l258 -1001h4l314 1001h90l316 -1001h6l260 1001h92z" />
    <glyph glyph-name="x" unicode="x" horiz-adv-x="1053" 
d="M868 0l-341 495h-5l-343 -495h-100l396 566l-388 562h107l330 -485h5l335 485h102l-389 -556l395 -572h-104z" />
    <glyph glyph-name="y" unicode="y" horiz-adv-x="1003" 
d="M224 -291q137 0 201 172l35 104l-420 1143h95l369 -1036h4l362 1036h94l-452 -1255q-52 -129 -97 -170q-82 -75 -201 -73q-52 0 -104 8v79q44 -8 114 -8z" />
    <glyph glyph-name="z" unicode="z" horiz-adv-x="1053" 
d="M137 0v67l679 980v4h-681v77h791v-71l-678 -976v-4h678v-77h-789z" />
    <glyph glyph-name="braceleft" unicode="{" horiz-adv-x="734" 
d="M368 -6q0 -233 258 -233h67v-77h-39q-191 0 -281 72q-89 73 -90 259v347q0 121 -36 172t-143 51v125q106 0 143 52q36 52 36 173v293q1 185 89 253t282 67h39v-74h-67q-133 0 -195 -56t-63 -178v-345q0 -114 -41 -171q-42 -56 -131 -64v-21q174 -16 172 -235v-410z" />
    <glyph glyph-name="bar" unicode="|" horiz-adv-x="455" 
d="M266 -335h-75v1898h75v-1898z" />
    <glyph glyph-name="braceright" unicode="}" horiz-adv-x="734" 
d="M368 404q0 219 173 235v21q-89 8 -131 64t-42 171v345q0 121 -62 177t-196 57h-66v74h39q191 0 281 -67q89 -68 90 -253v-293q0 -121 36 -173t143 -52v-125q-107 0 -143 -51t-36 -172v-347q0 -185 -90 -259t-281 -72h-39v77h66q258 0 258 233v410z" />
    <glyph glyph-name="asciitilde" unicode="~" horiz-adv-x="1223" 
d="M1101 885q-1 -173 -119 -270q-64 -53 -144 -53t-132 33q-54 33 -112 87t-73 67l-40 30q-46 33 -99 34q-52 1 -90 -27q-75 -56 -80 -199h-83q0 133 69 221t187 87q65 0 118 -31t111 -86q58 -56 83 -76q70 -58 148 -57q77 0 123 72t48 168h85z" />
    <glyph glyph-name="nonbreakingspace" unicode="&#xa0;" horiz-adv-x="457" 
 />
    <glyph glyph-name="exclamdown" unicode="&#xa1;" horiz-adv-x="528" 
d="M350 1065q0 -37 -25 -61t-65 -24t-69 42q-12 19 -12 43t12 42q26 41 68 41q43 1 67 -23t24 -60zM312 -350h-93l6 1076h79z" />
    <glyph glyph-name="cent" unicode="&#xa2;" horiz-adv-x="1140" 
d="M589 237q268 0 325 240h83q-10 -119 -105 -215t-270 -106v-256h-81v256q-189 15 -299 142q-109 127 -109 349v188q-1 216 111 343t297 139v267h81v-264q171 -12 269 -114t104 -226h-85q-12 98 -96 180t-240 81q-154 -1 -254 -111t-99 -310v-164q0 -202 97 -311
q98 -108 271 -108z" />
    <glyph glyph-name="sterling" unicode="&#xa3;" horiz-adv-x="1140" 
d="M1049 81v-81h-964v83q138 0 190 69q50 69 50 223v353h-265v77h265v367q0 167 98 255t263 88t264 -89t105 -215h-87q-4 87 -77 155t-205 68t-202 -71t-70 -200v-358h358v-77h-358v-362q0 -229 -102 -274v-11h737z" />
    <glyph glyph-name="currency" unicode="&#xa4;" horiz-adv-x="1140" 
d="M283 716q0 -121 83 -206t204 -85t206 85t86 206q0 79 -39 146q-39 66 -107 106t-146 40q-80 0 -146 -40t-104 -106t-37 -146zM571 350q-128 0 -228 81l-206 -206l-54 56l204 204q-79 98 -79 229t79 229l-204 204l54 54l204 -204q100 83 230 83t228 -81l204 202l54 -54
l-202 -204q79 -96 79 -228t-81 -230l204 -204l-54 -56l-204 206q-100 -81 -228 -81z" />
    <glyph glyph-name="yen" unicode="&#xa5;" horiz-adv-x="1140" 
d="M907 364h-293v-364h-90v364h-293v73h293v204h-293v73h262l-481 768h107l447 -729h6l452 729h100l-479 -768h262v-73h-293v-204h293v-73z" />
    <glyph glyph-name="brokenbar" unicode="&#xa6;" horiz-adv-x="405" 
d="M250 -337h-81v747h81v-747zM250 853h-81v712h81v-712z" />
    <glyph glyph-name="section" unicode="&#xa7;" horiz-adv-x="1103" 
d="M868 612q0 158 -223 218q-4 2 -98 28t-100 29q-104 -19 -173 -124q-36 -55 -36 -135t62 -131q63 -52 254 -99q48 -12 96 -25t53 -13q60 29 113 95q52 66 52 157zM880 62q0 106 -81 160t-297 108q-216 53 -284 123q-68 71 -68 182q0 110 65 180q66 70 145 101v4
q-81 46 -117 83q-72 73 -71 204q1 132 107 220q107 88 273 88t268 -88t102 -234h-85q-1 109 -85 175t-211 66t-203 -68t-76 -172t80 -160q80 -58 279 -110t268 -124q70 -72 69 -175t-54 -177t-124 -113v-6q190 -79 190 -241t-117 -263q-117 -100 -305 -100t-299 91t-112 242
h86q4 -114 91 -184t240 -70q100 0 176 38q150 74 150 220z" />
    <glyph glyph-name="dieresis" unicode="&#xa8;" horiz-adv-x="876" 
d="M518 1426q0 31 21 53t52 22t53 -22t22 -53t-22 -53t-52 -22t-52 22t-22 53zM202 1426q0 31 22 53t52 22t52 -22t22 -53t-22 -53t-52 -22t-52 22t-22 53z" />
    <glyph glyph-name="copyright" unicode="&#xa9;" horiz-adv-x="1796" 
d="M1675 697q-1 -331 -215 -547t-556 -215q-342 -1 -556 215t-215 547v115q0 204 98 372t276 267q178 98 396 97q167 0 311 -58t246 -158q101 -100 158 -235t57 -285v-115zM212 693q0 -297 193 -491t499 -194t501 195q194 195 193 490v119q0 135 -51 256q-51 122 -141 212
t-221 143q-129 53 -265 53q-377 0 -582 -274q-124 -167 -126 -390v-119zM660 691q0 -268 260 -268q88 0 142 36t66 95h85q-12 -84 -92 -146q-79 -62 -223 -62t-232 88t-87 259v108q0 169 88 257t233 88t221 -67q76 -68 86 -153h-85q-13 78 -96 121q-48 25 -114 25
q-252 0 -252 -275v-106z" />
    <glyph glyph-name="ordfeminine" unicode="&#xaa;" horiz-adv-x="663" 
d="M314 1141q-67 1 -101 -29t-34 -82q1 -52 39 -83t90 -31t90 19q82 41 81 126v80h-165zM306 851q-64 0 -109 22q-93 45 -93 157q0 79 54 124t154 45h167v71q0 127 -142 127q-119 0 -137 -84h-71q6 69 61 109t151 40t154 -48q58 -47 59 -140v-412h-73v87h-2q-21 -37 -65 -67
t-108 -31z" />
    <glyph glyph-name="guillemotleft" unicode="&#xab;" horiz-adv-x="1290" 
d="M135 616l400 439h108l-393 -439v-6l393 -441h-119l-389 439v8zM579 616l399 439h108l-393 -439v-6l393 -441h-118l-389 439v8z" />
    <glyph glyph-name="logicalnot" unicode="&#xac;" horiz-adv-x="1140" 
d="M1012 171h-84v389h-809v77h893v-466z" />
    <glyph glyph-name="registered" unicode="&#xae;" horiz-adv-x="1271" 
d="M520 712h-64v564h214q79 0 129 -47t50 -115q0 -131 -116 -167q11 -17 60 -104q48 -87 73 -131h-73l-127 227h-146v-227zM654 995q129 -1 129 119q1 44 -33 75q-34 30 -92 31h-138v-225h134zM639 520q200 0 327 124t127 315v65q0 181 -128 303t-325 122t-325 -123
t-128 -302v-65q0 -191 126 -315t326 -124zM641 456q-229 0 -375 144t-145 364v54q1 210 147 352t371 141q151 0 269 -66q118 -65 185 -177t66 -250v-54q0 -221 -144 -365q-145 -143 -374 -143z" />
    <glyph glyph-name="macron" unicode="&#xaf;" horiz-adv-x="876" 
d="M743 1409h-604v65h604v-65z" />
    <glyph glyph-name="degree" unicode="&#xb0;" horiz-adv-x="518" 
d="M259 1153q55 0 95 41q40 40 40 96t-40 96t-96 40t-96 -41t-40 -96t42 -95q40 -40 95 -41zM54 1288q0 84 59 144t143 60t144 -60q58 -60 58 -144t-58 -142q-58 -60 -143 -60q-83 0 -143 60t-60 142z" />
    <glyph glyph-name="plusminus" unicode="&#xb1;" horiz-adv-x="1180" 
d="M1078 164h-974v82h974v-82zM629 751v-351h-77v351h-448v82h448v333h77v-333h447v-82h-447z" />
    <glyph glyph-name="twosuperior" unicode="&#xb2;" horiz-adv-x="703" 
d="M189 1305h-75v4q0 83 58 143t163 59q103 0 165 -55t62 -124t-29 -117t-90 -112l-227 -237v-2h358v-67h-460v50l284 302q85 92 85 167t-68 111q-35 17 -93 17t-95 -40t-38 -95v-4z" />
    <glyph glyph-name="threesuperior" unicode="&#xb3;" horiz-adv-x="678" 
d="M246 1128v63h70q69 0 111 37q41 38 41 94t-40 90t-106 34t-106 -32t-41 -76h-71q2 69 60 121t158 52t161 -51q60 -51 60 -128q0 -44 -22 -81q-43 -72 -119 -85v-3q66 -10 116 -53q50 -44 50 -126t-68 -140q-69 -57 -176 -57t-170 51q-62 51 -65 126h69q4 -68 81 -99
q37 -16 87 -16q101 0 147 69q22 31 22 82t-48 90t-124 38h-77z" />
    <glyph glyph-name="acute" unicode="&#xb4;" horiz-adv-x="876" 
d="M335 1317h-71l252 319h98z" />
    <glyph glyph-name="paragraph" unicode="&#xb6;" horiz-adv-x="1263" 
d="M945 -229v1717h89v-1717h-89zM758 -229h-90v814h-23q-116 0 -236 60q-236 118 -236 389q0 106 34 190t84 132q91 89 243 121q57 11 113 11h111v-1717z" />
    <glyph glyph-name="periodcentered" unicode="&#xb7;" horiz-adv-x="501" 
d="M158 743q0 35 25 59t59 24t60 -24t25 -59q0 -35 -25 -59q-26 -24 -60 -24t-59 24t-25 59z" />
    <glyph glyph-name="cedilla" unicode="&#xb8;" horiz-adv-x="876" 
d="M335 -216v52l71 166h73l-65 -154q96 0 160 -42t65 -129q0 -87 -72 -134q-73 -47 -161 -49t-146 17v69q48 -17 123 -17t124 29t49 85q0 106 -167 107h-54z" />
    <glyph glyph-name="onesuperior" unicode="&#xb9;" horiz-adv-x="568" 
d="M385 797h-75v604h-4l-177 -119v73l181 127h75v-685z" />
    <glyph glyph-name="ordmasculine" unicode="&#xba;" horiz-adv-x="647" 
d="M75 1201q0 121 70 191t179 69q109 0 180 -70t70 -190v-90q0 -123 -70 -191t-179 -69q-110 0 -180 69t-70 191v90zM500 1195q0 127 -84 178q-40 24 -104 24q-66 -1 -115 -55t-49 -147v-75q0 -96 48 -149t128 -53t127 53t49 149v75z" />
    <glyph glyph-name="guillemotright" unicode="&#xbb;" horiz-adv-x="1280" 
d="M656 616v-8l-392 -439h-118l393 441v6l-393 439h108zM1097 616v-8l-389 -439h-119l393 441v6l-393 439h108z" />
    <glyph glyph-name="onequarter" unicode="&#xbc;" horiz-adv-x="1488" 
d="M156 0h-89l1119 1482h90zM266 797h-75v604h-2l-179 -119v73l181 127h75v-685zM1247 710v-491h102v-63h-102v-156h-69v156h-364v63q50 88 324 491h109zM893 219h285v426h-4q-198 -283 -281 -422v-4z" />
    <glyph glyph-name="onehalf" unicode="&#xbd;" horiz-adv-x="1536" 
d="M156 0h-89l1119 1482h90zM266 797h-75v604h-2l-179 -119v73l181 127h75v-685zM1018 504h-73v4q0 83 58 142q57 60 163 60t167 -55t61 -132t-55 -148q-24 -31 -65 -75l-227 -238v-2h360v-66h-462v50l283 304q87 92 87 157t-40 102q-41 36 -98 36t-93 -19q-69 -37 -66 -116
v-4z" />
    <glyph glyph-name="threequarters" unicode="&#xbe;" horiz-adv-x="1471" 
d="M219 0h-90l1120 1482h89zM148 1122v64h71q69 0 111 38t43 92q0 54 -41 90t-109 36t-105 -33t-41 -75h-71q0 69 60 121t159 52q100 0 161 -51t61 -123q1 -72 -43 -118t-100 -56v-2q69 -8 119 -52q49 -44 49 -127t-68 -140q-68 -58 -176 -58q-107 0 -171 51q-63 51 -65 126
h70q2 -48 48 -81t120 -33q74 -1 122 39t48 101t-49 100t-126 39h-77zM1355 710v-491h102v-63h-102v-156h-71v156h-364v63q29 48 327 491h108zM1001 219h283v426h-2q-191 -271 -281 -422v-4z" />
    <glyph glyph-name="questiondown" unicode="&#xbf;" horiz-adv-x="957" 
d="M480 -387q-184 -1 -298 91q-116 92 -115 254q0 112 57 194t164 164q108 80 140 142t32 146v95h89v-108q-1 -98 -45 -171t-150 -155q-106 -81 -152 -147q-44 -66 -44 -158q0 -130 92 -200t227 -70q85 0 152 28t102 73q72 93 74 182h86q-7 -158 -117 -259t-294 -101z
M416 1060q0 34 26 60t62 25t59 -25q24 -24 24 -60t-25 -61t-59 -25t-61 26q-26 26 -26 60z" />
    <glyph glyph-name="Agrave" unicode="&#xc0;" horiz-adv-x="1250" 
d="M735 1650h-96l-346 259h115zM629 1372h-7l-281 -798h566zM142 0h-94l531 1482h93l531 -1482h-96l-172 500h-619z" />
    <glyph glyph-name="Aacute" unicode="&#xc1;" horiz-adv-x="1250" 
d="M514 1646l325 260h114l-345 -260h-94zM629 1372h-7l-281 -798h566zM142 0h-94l531 1482h93l531 -1482h-96l-172 500h-619z" />
    <glyph glyph-name="Acircumflex" unicode="&#xc2;" horiz-adv-x="1250" 
d="M308 1636l302 231h46l297 -231h-104l-214 166h-4l-217 -166h-106zM629 1372h-7l-281 -798h566zM142 0h-94l531 1482h93l531 -1482h-96l-172 500h-619z" />
    <glyph glyph-name="Atilde" unicode="&#xc3;" horiz-adv-x="1250" 
d="M477 1782q-96 0 -96 -140h-63q0 125 73 177q35 25 91 25q79 0 144 -81t116 -81t81 42t30 108h65q0 -88 -48 -148t-112 -60t-96 18q-34 19 -71 61q-31 39 -56 59t-58 20zM629 1372h-7l-281 -798h566zM142 0h-94l531 1482h93l531 -1482h-96l-172 500h-619z" />
    <glyph glyph-name="Adieresis" unicode="&#xc4;" horiz-adv-x="1250" 
d="M731 1708q0 20 8 34q18 32 49 33q32 -1 50 -19t18 -44t-18 -46t-44 -20t-45 21q-18 21 -18 41zM414 1713q0 25 19 44t46 19t45 -20q18 -18 17 -39q0 -21 -7 -35q-16 -33 -49 -35q-33 -1 -52 20t-19 46zM629 1372h-7l-281 -798h566zM142 0h-94l531 1482h93l531 -1482h-96
l-172 500h-619z" />
    <glyph glyph-name="Aring" unicode="&#xc5;" horiz-adv-x="1250" 
d="M437 1635q0 70 55 124t133 54q79 0 133 -54q54 -53 54 -123t-36 -120t-91 -67l518 -1449h-96l-172 500h-619l-174 -500h-94l520 1449q-58 17 -95 66q-36 50 -36 120zM907 574l-278 798h-7l-281 -798h566zM756 1626q0 54 -38 92t-90 39q-54 -1 -92 -39t-39 -91
q0 -53 39 -91q38 -38 90 -37q52 0 91 37q39 36 39 90z" />
    <glyph glyph-name="AE" unicode="&#xc6;" horiz-adv-x="1985" 
d="M1026 529h-591l-316 -529h-98l882 1482h966v-83h-753v-600h716v-81h-716v-637h753v-81h-843v529zM1026 606v793h-73l-474 -793h547z" />
    <glyph glyph-name="Ccedilla" unicode="&#xc7;" horiz-adv-x="1354" 
d="M839 -333q0 110 -167 110h-54v52l61 138q-394 17 -500 396q-31 113 -31 251v252q0 396 244 562q128 87 311 87q123 1 223 -41q177 -73 256 -253q33 -78 33 -157v-5h-87q0 133 -107 250q-51 57 -134 91t-184 34q-154 0 -261 -76q-205 -146 -205 -484v-268q0 -242 114 -400
t357 -158q194 0 312 106t118 260h88v-2q0 -171 -128 -301t-347 -144l-52 -127q95 0 159 -41t64 -129t-72 -135t-158 -49q-88 -2 -149 17v68q49 -17 111 -17q115 1 160 48q25 27 25 65z" />
    <glyph glyph-name="Egrave" unicode="&#xc8;" horiz-adv-x="1167" 
d="M1053 81v-81h-847v1482h847v-83h-757v-600h720v-81h-720v-637h757zM735 1650h-96l-343 259h114z" />
    <glyph glyph-name="Eacute" unicode="&#xc9;" horiz-adv-x="1167" 
d="M1053 81v-81h-847v1482h847v-83h-757v-600h720v-81h-720v-637h757zM514 1646l327 260h112l-343 -260h-96z" />
    <glyph glyph-name="Ecircumflex" unicode="&#xca;" horiz-adv-x="1167" 
d="M1053 81v-81h-847v1482h847v-83h-757v-600h720v-81h-720v-637h757zM310 1636l302 231h46l295 -231h-102l-214 166h-6l-217 -166h-104z" />
    <glyph glyph-name="Edieresis" unicode="&#xcb;" horiz-adv-x="1167" 
d="M1053 81v-81h-847v1482h847v-83h-757v-600h720v-81h-720v-637h757zM731 1708q0 20 8 34q18 32 49 33q32 -1 50 -19t18 -44t-18 -46t-44 -20t-45 21q-18 21 -18 41zM414 1713q0 25 19 44t46 19t45 -20q18 -18 17 -39q0 -21 -7 -35q-16 -33 -49 -35q-33 -1 -52 20t-19 46z
" />
    <glyph glyph-name="Igrave" unicode="&#xcc;" horiz-adv-x="536" 
d="M377 1650h-96l-346 259h115zM312 0h-87v1482h87v-1482z" />
    <glyph glyph-name="Iacute" unicode="&#xcd;" horiz-adv-x="536" 
d="M154 1646l327 260h112l-343 -260h-96zM312 0h-87v1482h87v-1482z" />
    <glyph glyph-name="Icircumflex" unicode="&#xce;" horiz-adv-x="536" 
d="M-50 1636l302 231h46l295 -231h-102l-214 166h-6l-215 -166h-106zM312 0h-87v1482h87v-1482z" />
    <glyph glyph-name="Idieresis" unicode="&#xcf;" horiz-adv-x="536" 
d="M370 1713q0 25 19 44t46 19t45 -20q32 -33 12 -70t-52 -39q-32 -1 -51 20t-19 46zM56 1713q0 25 19 44q36 36 72 13t36 -53q0 -31 -19 -51q-18 -20 -44 -20t-45 21t-19 46zM312 0h-87v1482h87v-1482z" />
    <glyph glyph-name="Eth" unicode="&#xd0;" horiz-adv-x="1473" 
d="M360 81h308q293 0 434 173q140 173 140 486t-140 487t-434 174h-308v-602h393v-81h-393v-637zM668 0h-397v718h-173v81h173v683h397q340 0 502 -196t162 -542t-150 -538q-159 -206 -514 -206z" />
    <glyph glyph-name="Ntilde" unicode="&#xd1;" horiz-adv-x="1452" 
d="M296 0h-90v1482h94l851 -1326h4v1326h90v-1482h-92l-853 1326h-4v-1326zM577 1782q-96 0 -96 -140h-63q0 94 42 148t121 54t156 -94q31 -37 53 -53q22 -15 62 -15t71 42q30 42 32 108h63q0 -88 -48 -148t-117 -60t-118 37q-19 15 -44 42q-31 39 -56 59t-58 20z" />
    <glyph glyph-name="Ograve" unicode="&#xd2;" 
d="M148 606v266q0 296 150 470t416 173q266 0 416 -175t150 -470v-264q0 -296 -151 -468t-417 -172t-415 172t-149 468zM235 878v-279q0 -251 128 -401t350 -150t350 150t128 401v279q1 252 -129 404t-350 152q-144 0 -252 -69t-166 -195t-59 -292zM820 1650h-96l-343 259
h114z" />
    <glyph glyph-name="Oacute" unicode="&#xd3;" 
d="M148 606v266q0 296 150 470t416 173q266 0 416 -175t150 -470v-264q0 -296 -151 -468t-417 -172t-415 172t-149 468zM235 878v-279q0 -251 128 -401t350 -150t350 150t128 401v279q1 252 -129 404t-350 152q-144 0 -252 -69t-166 -195t-59 -292zM599 1646l325 260h115
l-346 -260h-94z" />
    <glyph glyph-name="Ocircumflex" unicode="&#xd4;" 
d="M148 606v266q0 296 150 470t416 173q266 0 416 -175t150 -470v-264q0 -296 -151 -468t-417 -172t-415 172t-149 468zM235 878v-279q0 -251 128 -401t350 -150t350 150t128 401v279q1 252 -129 404t-350 152q-144 0 -252 -69t-166 -195t-59 -292zM393 1636l302 231h46
l298 -231h-102l-215 166h-6l-216 -166h-107z" />
    <glyph glyph-name="Otilde" unicode="&#xd5;" 
d="M564 1782q-96 0 -96 -140h-64q0 94 41 148q42 54 121 54q46 0 80 -22t78 -72q29 -37 52 -53q23 -15 63 -15q39 0 69 42t33 108h62q0 -122 -82 -180q-39 -28 -89 -28t-85 18q-34 19 -71 61q-57 79 -112 79zM148 606v266q0 296 150 470t416 173q266 0 416 -175t150 -470
v-264q0 -296 -151 -468t-417 -172t-415 172t-149 468zM235 878v-279q0 -251 128 -401t350 -150t350 150t128 401v279q1 252 -129 404t-350 152q-144 0 -252 -69t-166 -195t-59 -292z" />
    <glyph glyph-name="Odieresis" unicode="&#xd6;" 
d="M148 606v266q0 296 150 470t416 173q266 0 416 -175t150 -470v-264q0 -296 -151 -468t-417 -172t-415 172t-149 468zM235 878v-279q0 -251 128 -401t350 -150t350 150t128 401v279q1 252 -129 404t-350 152q-144 0 -252 -69t-166 -195t-59 -292zM816 1703q0 25 8 39
q18 32 49 33q32 -1 50 -19t18 -44t-18 -46t-40 -20t-36 11q-31 21 -31 46zM502 1708q0 20 8 34q18 32 49 33q32 -1 51 -19t19 -44t-19 -46t-45 -20t-45 21q-18 21 -18 41z" />
    <glyph glyph-name="multiply" unicode="&#xd7;" horiz-adv-x="1140" 
d="M924 119l-352 353l-356 -353l-56 54l356 354l-356 355l56 57l356 -356l354 356l54 -57l-354 -355l354 -354z" />
    <glyph glyph-name="Oslash" unicode="&#xd8;" 
d="M712 48q223 0 351 150t128 401v279q0 175 -65 306l-797 -938q129 -198 383 -198zM235 599q0 -164 56 -289l798 937q-131 187 -363 187t-362 -152q-129 -152 -129 -404v-279zM1280 608q0 -296 -150 -468t-430 -173q-280 0 -432 208l-120 -144l-56 44l137 160
q-81 154 -81 373v262q0 298 150 472t424 173q274 0 425 -198l129 152l56 -39l-144 -171q92 -160 92 -389v-262z" />
    <glyph glyph-name="Ugrave" unicode="&#xd9;" 
d="M273 1482v-970q-1 -214 115 -338t326 -124t325 124q114 124 114 338v970h92v-970q0 -250 -142 -398q-141 -148 -389 -148t-390 148t-141 398v970h90zM822 1650h-96l-345 259h114z" />
    <glyph glyph-name="Uacute" unicode="&#xda;" 
d="M273 1482v-970q-1 -214 115 -338t326 -124t325 124q114 124 114 338v970h92v-970q0 -250 -142 -398q-141 -148 -389 -148t-390 148t-141 398v970h90zM599 1646l327 260h113l-344 -260h-96z" />
    <glyph glyph-name="Ucircumflex" unicode="&#xdb;" 
d="M273 1482v-970q-1 -214 115 -338t326 -124t325 124q114 124 114 338v970h92v-970q0 -250 -142 -398q-141 -148 -389 -148t-390 148t-141 398v970h90zM395 1636l302 231h46l296 -231h-102l-215 166h-6l-214 -166h-107z" />
    <glyph glyph-name="Udieresis" unicode="&#xdc;" 
d="M273 1482v-970q-1 -214 115 -338t326 -124t325 124q114 124 114 338v970h92v-970q0 -250 -142 -398q-141 -148 -389 -148t-390 148t-141 398v970h90zM816 1703q0 25 8 39q18 32 49 33q32 -1 50 -19t18 -44t-18 -46t-40 -20t-36 11q-31 21 -31 46zM502 1708q0 20 8 34
q18 32 49 33q32 -1 51 -19t19 -44t-19 -46t-45 -20t-45 21q-18 21 -18 41z" />
    <glyph glyph-name="Yacute" unicode="&#xdd;" horiz-adv-x="1153" 
d="M464 1646l327 260h112l-343 -260h-96zM622 0h-89v662l-512 820h106l447 -729h7l449 729h102l-510 -818v-664z" />
    <glyph glyph-name="Thorn" unicode="&#xde;" horiz-adv-x="1232" 
d="M296 1111v-636h351q123 0 206 30t131 102t48 186q0 318 -372 318h-364zM206 1482h90v-289h368q210 0 335 -102t125 -298t-125 -298t-335 -102h-368v-393h-90v1482z" />
    <glyph glyph-name="germandbls" unicode="&#xdf;" horiz-adv-x="1250" 
d="M289 0h-89v1166q0 181 105 284t301 103t304 -100q110 -100 110 -252t-88 -255t-191 -124v-4q152 -4 278 -101q61 -47 99 -125t37 -178q0 -100 -44 -186q-82 -160 -272 -220q-85 -27 -179 -27t-179 17v83q73 -21 180 -21q224 0 341 160q59 82 59 194q0 158 -122 254
q-123 96 -331 96h-102v91h91q89 0 165 46t122 121q45 75 44 156q0 146 -89 220t-238 74t-231 -83q-82 -82 -81 -230v-1159z" />
    <glyph glyph-name="agrave" unicode="&#xe0;" horiz-adv-x="1105" 
d="M658 1320h-71l-277 318h98zM493 60q144 0 246 91t102 230v171h-344q-147 0 -219 -62t-72 -157q0 -177 139 -242q65 -31 148 -31zM472 -19q-154 0 -258 91q-102 92 -102 240t99 233t284 86h346v164q0 181 -141 243q-66 28 -148 28q-154 0 -224 -64t-78 -134h-88
q6 117 106 198t279 81q179 -1 281 -87t102 -252v-808h-87v183h-4q-29 -71 -121 -137t-246 -65z" />
    <glyph glyph-name="aacute" unicode="&#xe1;" horiz-adv-x="1105" 
d="M564 1320h-71l252 318h98zM493 60q144 0 246 91t102 230v171h-344q-147 0 -219 -62t-72 -157q0 -177 139 -242q65 -31 148 -31zM472 -19q-154 0 -258 91q-102 92 -102 240t99 233t284 86h346v164q0 181 -141 243q-66 28 -148 28q-154 0 -224 -64t-78 -134h-88
q6 117 106 198t279 81q179 -1 281 -87t102 -252v-808h-87v183h-4q-29 -71 -121 -137t-246 -65z" />
    <glyph glyph-name="acircumflex" unicode="&#xe2;" horiz-adv-x="1105" 
d="M268 1342l252 354h71l244 -354h-82l-197 294h-4l-202 -294h-82zM493 60q144 0 246 91t102 230v171h-344q-147 0 -219 -62t-72 -157q0 -177 139 -242q65 -31 148 -31zM472 -19q-154 0 -258 91q-102 92 -102 240t99 233t284 86h346v164q0 181 -141 243q-66 28 -148 28
q-154 0 -224 -64t-78 -134h-88q6 117 106 198t279 81q179 -1 281 -87t102 -252v-808h-87v183h-4q-29 -71 -121 -137t-246 -65z" />
    <glyph glyph-name="atilde" unicode="&#xe3;" horiz-adv-x="1105" 
d="M383 1486q-108 0 -108 -160h-71q0 108 47 168t134 61q92 0 171 -99q39 -49 66 -66q27 -16 72 -16t79 46t35 122h70q0 -100 -54 -168t-126 -67q-72 0 -110 22q-39 22 -75 67q-35 46 -65 68t-65 22zM493 60q144 0 246 91t102 230v171h-344q-147 0 -219 -62t-72 -157
q0 -177 139 -242q65 -31 148 -31zM472 -19q-154 0 -258 91q-102 92 -102 240t99 233t284 86h346v164q0 181 -141 243q-66 28 -148 28q-154 0 -224 -64t-78 -134h-88q6 117 106 198t279 81q179 -1 281 -87t102 -252v-808h-87v183h-4q-29 -71 -121 -137t-246 -65z" />
    <glyph glyph-name="adieresis" unicode="&#xe4;" horiz-adv-x="1105" 
d="M639 1407q0 31 22 53t52 22t52 -22t22 -53t-22 -53t-52 -22t-52 22t-22 53zM323 1407q0 31 21 53q22 22 52 22t59 -29t9 -75q-21 -46 -59 -46q-39 0 -61 22q-21 22 -21 53zM493 60q144 0 246 91t102 230v171h-344q-147 0 -219 -62t-72 -157q0 -177 139 -242
q65 -31 148 -31zM472 -19q-154 0 -258 91q-102 92 -102 240t99 233t284 86h346v164q0 181 -141 243q-66 28 -148 28q-154 0 -224 -64t-78 -134h-88q6 117 106 198t279 81q179 -1 281 -87t102 -252v-808h-87v183h-4q-29 -71 -121 -137t-246 -65z" />
    <glyph glyph-name="aring" unicode="&#xe5;" horiz-adv-x="1105" 
d="M425 1470q0 -44 37 -82q36 -38 90 -37q54 0 91 37t37 77q1 97 -77 131q-59 25 -119 -9q-59 -32 -59 -117zM739 1479q0 -77 -55 -133t-133 -56q-77 0 -133 56t-56 133q0 78 55 131t135 53t133 -53q54 -53 54 -131zM493 60q144 0 246 91t102 230v171h-344q-147 0 -219 -62
t-72 -157q0 -177 139 -242q65 -31 148 -31zM472 -19q-154 0 -258 91q-102 92 -102 240t99 233t284 86h346v164q0 181 -141 243q-66 28 -148 28q-154 0 -224 -64t-78 -134h-88q6 117 106 198t279 81q179 -1 281 -87t102 -252v-808h-87v183h-4q-29 -71 -121 -137t-246 -65z
" />
    <glyph glyph-name="ae" unicode="&#xe6;" horiz-adv-x="1848" 
d="M202 312q0 -112 83 -182t219 -70t237 91q102 91 102 230v173h-343q-148 0 -223 -65t-75 -177zM1623 639q1 203 -91 315t-251 112t-255 -112t-96 -311v-14h693v10zM112 316q0 152 102 234t283 83h346v160q0 133 -87 203q-86 70 -218 70t-205 -56t-85 -130h-88
q8 111 109 189t278 78q123 1 224 -59t132 -168h7q46 110 145 169q100 58 228 58q268 0 376 -237q54 -119 54 -288v-68h-783v-71q0 -200 98 -311q98 -112 254 -112t238 67q84 67 97 148h92q-13 -101 -116 -198q-103 -96 -281 -96q-179 0 -287 77q-107 77 -136 208h-9
q-25 -120 -131 -202q-107 -82 -271 -82t-265 91t-101 243z" />
    <glyph glyph-name="ccedilla" unicode="&#xe7;" horiz-adv-x="1109" 
d="M535 -431q75 0 124 28t49 85q0 108 -163 108h-56v52l63 139q-196 7 -308 139t-113 363v171q0 152 56 264t156 170q101 58 215 59q211 0 321 -108t114 -236h-86q-22 150 -160 223q-75 40 -177 40t-182 -50t-125 -147t-44 -230v-148q1 -204 97 -316q96 -113 256 -113
t239 71q80 71 99 171h85q-8 -120 -103 -214t-268 -107l-54 -129q96 0 159 -42t63 -114t-36 -116q-69 -82 -209 -82q-83 -2 -135 17v69q48 -17 123 -17z" />
    <glyph glyph-name="egrave" unicode="&#xe8;" horiz-adv-x="1138" 
d="M221 633h701v4q0 202 -95 315q-95 114 -256 114t-256 -114t-94 -315v-4zM133 497v115q0 256 117 395q118 139 322 139t321 -138q117 -140 116 -394v-58h-788v-59q-1 -205 95 -321t269 -116q113 0 200 51q70 44 101 113q14 30 17 61h90q-8 -107 -109 -206
q-100 -98 -308 -98q-207 1 -325 137t-118 379zM674 1320h-68l-279 318h98z" />
    <glyph glyph-name="eacute" unicode="&#xe9;" horiz-adv-x="1138" 
d="M221 633h701v4q0 202 -95 315q-95 114 -256 114t-256 -114t-94 -315v-4zM133 497v115q0 256 117 395q118 139 322 139t321 -138q117 -140 116 -394v-58h-788v-59q-1 -205 95 -321t269 -116q113 0 200 51q70 44 101 113q14 30 17 61h90q-8 -107 -109 -206
q-100 -98 -308 -98q-207 1 -325 137t-118 379zM583 1320h-71l250 318h98z" />
    <glyph glyph-name="ecircumflex" unicode="&#xea;" horiz-adv-x="1138" 
d="M221 633h701v4q0 202 -95 315q-95 114 -256 114t-256 -114t-94 -315v-4zM133 497v115q0 256 117 395q118 139 322 139t321 -138q117 -140 116 -394v-58h-788v-59q-1 -205 95 -321t269 -116q113 0 200 51q70 44 101 113q14 30 17 61h90q-8 -107 -109 -206
q-100 -98 -308 -98q-207 1 -325 137t-118 379zM287 1342l252 354h69l243 -354h-81l-196 294h-4l-204 -294h-79z" />
    <glyph glyph-name="edieresis" unicode="&#xeb;" horiz-adv-x="1138" 
d="M656 1407q0 31 21 53q22 22 52 22q31 0 53 -22t22 -53t-22 -53t-52 -22t-53 22q-21 22 -21 53zM339 1407q0 31 22 53t52 22t52 -22t22 -53t-22 -53t-52 -22t-52 22t-22 53zM221 633h701v4q0 202 -95 315q-95 114 -256 114t-256 -114t-94 -315v-4zM133 497v115
q0 256 117 395q118 139 322 139t321 -138q117 -140 116 -394v-58h-788v-59q-1 -205 95 -321t269 -116q113 0 200 51q70 44 101 113q14 30 17 61h90q-8 -107 -109 -206q-100 -98 -308 -98q-207 1 -325 137t-118 379z" />
    <glyph glyph-name="igrave" unicode="&#xec;" horiz-adv-x="462" 
d="M187 0v1128h88v-1128h-88zM335 1320h-69l-278 318h97z" />
    <glyph glyph-name="iacute" unicode="&#xed;" horiz-adv-x="462" 
d="M187 0v1128h88v-1128h-88zM244 1320h-71l250 318h97z" />
    <glyph glyph-name="icircumflex" unicode="&#xee;" horiz-adv-x="462" 
d="M187 0v1128h88v-1128h-88zM-52 1342l252 354h68l246 -354h-83l-196 294h-4l-202 -294h-81z" />
    <glyph glyph-name="idieresis" unicode="&#xef;" horiz-adv-x="462" 
d="M338 1354q-22 22 -22 59t38 60q16 9 42 9t48 -22t22 -53t-22 -53t-53 -22t-53 22zM2 1407q0 31 21 53t52 22t52 -22t21 -59t-28 -53t-52 -16t-45 22t-21 53zM187 0v1128h88v-1128h-88z" />
    <glyph glyph-name="eth" unicode="&#xf0;" horiz-adv-x="1180" 
d="M591 1009q-167 0 -269 -112t-103 -314v-98q0 -204 103 -314q104 -111 270 -111t268 110t102 315v169q0 100 -48 181t-134 127t-189 47zM590 -19q-201 0 -330 129t-129 362v121q0 235 129 365t331 131q87 1 165 -29q137 -52 201 -175h7l-7 58q-29 262 -174 429l-311 -111
l-16 61l281 102q-96 98 -229 164l50 58q150 -73 264 -193l260 93l17 -58l-233 -85q185 -241 185 -643v-288q0 -233 -130 -362t-331 -129z" />
    <glyph glyph-name="ntilde" unicode="&#xf1;" horiz-adv-x="1198" 
d="M181 0v1128h87v-210h5q33 94 127 162t252 67q158 0 267 -106t109 -296v-745h-89v724q-1 152 -83 246t-242 94t-252 -110q-94 -110 -94 -271v-683h-87zM429 1486q-108 0 -108 -160h-71q0 108 47 168t117 60t110 -24q38 -25 78 -74t66 -66q27 -16 72 -16t80 46t35 122h69
q0 -100 -53 -168t-125 -67q-72 0 -110 22q-39 22 -75 67q-35 46 -65 68t-67 22z" />
    <glyph glyph-name="ograve" unicode="&#xf2;" horiz-adv-x="1180" 
d="M590 1066q-170 0 -271 -116t-100 -321v-134q1 -206 101 -320q100 -115 271 -115t271 114t100 321v134q0 205 -101 321t-271 116zM591 1147q133 1 237 -59t164 -176t59 -271v-158q0 -237 -127 -369t-334 -133q-207 0 -333 132t-126 370v158q0 237 126 371t334 135z
M695 1320h-71l-276 318h97z" />
    <glyph glyph-name="oacute" unicode="&#xf3;" horiz-adv-x="1180" 
d="M590 1066q-170 0 -271 -116t-100 -321v-134q1 -206 101 -320q100 -115 271 -115t271 114t100 321v134q0 205 -101 321t-271 116zM591 1147q133 1 237 -59t164 -176t59 -271v-158q0 -237 -127 -369t-334 -133q-207 0 -333 132t-126 370v158q0 237 126 371t334 135z
M601 1320h-70l252 318h97z" />
    <glyph glyph-name="ocircumflex" unicode="&#xf4;" horiz-adv-x="1180" 
d="M590 1066q-170 0 -271 -116t-100 -321v-134q1 -206 101 -320q100 -115 271 -115t271 114t100 321v134q0 205 -101 321t-271 116zM591 1147q133 1 237 -59t164 -176t59 -271v-158q0 -237 -127 -369t-334 -133q-207 0 -333 132t-126 370v158q0 237 126 371t334 135z
M308 1342l252 354h69l243 -354h-81l-196 294h-4l-204 -294h-79z" />
    <glyph glyph-name="otilde" unicode="&#xf5;" horiz-adv-x="1180" 
d="M590 1066q-170 0 -271 -116t-100 -321v-134q1 -206 101 -320q100 -115 271 -115t271 114t100 321v134q0 205 -101 321t-271 116zM591 1147q133 1 237 -59t164 -176t59 -271v-158q0 -237 -127 -369t-334 -133q-207 0 -333 132t-126 370v158q0 237 126 371t334 135z
M420 1486q-108 0 -108 -160h-71q0 108 47 168t135 61q55 0 93 -25t77 -74t67 -66q28 -16 72 -16t79 46q34 47 36 122h69q0 -100 -53 -168t-125 -67q-72 0 -110 22t-75 67q-35 46 -65 68t-68 22z" />
    <glyph glyph-name="odieresis" unicode="&#xf6;" horiz-adv-x="1180" 
d="M590 1066q-170 0 -271 -116t-100 -321v-134q1 -206 101 -320q100 -115 271 -115t271 114t100 321v134q0 205 -101 321t-271 116zM591 1147q133 1 237 -59t164 -176t59 -271v-158q0 -237 -127 -369t-334 -133q-207 0 -333 132t-126 370v158q0 237 126 371t334 135z
M698 1354q-22 22 -22 59t38 60q18 9 42 9t46 -22t22 -53t-22 -53t-52 -22t-52 22zM360 1407q0 31 22 53t52 22t52 -22t22 -53t-22 -53t-52 -22t-52 22t-22 53z" />
    <glyph glyph-name="divide" unicode="&#xf7;" horiz-adv-x="1180" 
d="M506 196q0 37 26 63t63 26t63 -26t27 -63q0 -38 -26 -64q-25 -26 -63 -26t-64 26t-26 64zM681 987q0 -37 -27 -63t-73 -27t-68 43q-11 22 -11 53t26 57t62 26t64 -26t27 -63zM1078 549h-974v82h974v-82z" />
    <glyph glyph-name="oslash" unicode="&#xf8;" horiz-adv-x="1180" 
d="M588 -19q-203 0 -326 133l-116 -135l-54 42l124 146q-85 125 -85 305v179q0 233 129 365t334 131q205 0 330 -146l137 156l55 -41l-146 -167q81 -125 81 -298v-179q0 -233 -130 -362t-333 -129zM219 477q0 -144 54 -240l599 700q-100 131 -272 131t-277 -114
q-104 -114 -104 -315v-162zM591 60q228 0 324 191q49 97 49 234v162q0 135 -50 231l-600 -699q100 -119 277 -119z" />
    <glyph glyph-name="ugrave" unicode="&#xf9;" horiz-adv-x="1196" 
d="M1016 1128v-1128h-88v210h-4q-47 -129 -186 -192q-80 -36 -180 -37q-171 0 -279 99t-108 284v764h89v-747q0 -148 84 -233q84 -86 238 -86t251 114q96 114 95 276v676h88zM703 1320h-68l-279 318h98z" />
    <glyph glyph-name="uacute" unicode="&#xfa;" horiz-adv-x="1196" 
d="M1016 1128v-1128h-88v210h-4q-47 -129 -186 -192q-80 -36 -180 -37q-171 0 -279 99t-108 284v764h89v-747q0 -148 84 -233q84 -86 238 -86t251 114q96 114 95 276v676h88zM612 1320h-71l250 318h98z" />
    <glyph glyph-name="ucircumflex" unicode="&#xfb;" horiz-adv-x="1196" 
d="M1016 1128v-1128h-88v210h-4q-47 -129 -186 -192q-80 -36 -180 -37q-171 0 -279 99t-108 284v764h89v-747q0 -148 84 -233q84 -86 238 -86t251 114q96 114 95 276v676h88zM316 1342l252 354h69l243 -354h-81l-195 294h-5l-201 -294h-82z" />
    <glyph glyph-name="udieresis" unicode="&#xfc;" horiz-adv-x="1196" 
d="M707 1354q-22 22 -22 60t27 53t53 15t47 -22t21 -53t-21 -53t-52 -22t-53 22zM368 1407q0 31 22 53t52 22t52 -22t22 -59t-27 -53t-52 -16t-47 22t-22 53zM1016 1128v-1128h-88v210h-4q-47 -129 -186 -192q-80 -36 -180 -37q-171 0 -279 99t-108 284v764h89v-747
q0 -148 84 -233q84 -86 238 -86t251 114q96 114 95 276v676h88z" />
    <glyph glyph-name="yacute" unicode="&#xfd;" horiz-adv-x="1003" 
d="M514 1320h-71l250 318h98zM224 -291q137 0 201 172l35 104l-420 1143h95l369 -1036h4l362 1036h94l-452 -1255q-52 -129 -97 -170q-82 -75 -201 -73q-52 0 -104 8v79q44 -8 114 -8z" />
    <glyph glyph-name="thorn" unicode="&#xfe;" horiz-adv-x="1200" 
d="M271 460q0 -164 97 -282t256 -118q158 0 258 110t100 307v170q0 204 -102 311q-102 108 -258 108t-254 -116t-97 -292v-198zM271 216v-580h-90v1927h85l2 -658h5q33 89 122 166q89 76 258 76t294 -126t125 -353v-210q0 -216 -122 -346t-310 -131q-189 0 -298 124
q-45 51 -67 111h-4z" />
    <glyph glyph-name="ydieresis" unicode="&#xff;" horiz-adv-x="1003" 
d="M587 1407q0 31 22 53t52 22t52 -22t22 -53t-22 -53t-52 -22t-52 22t-22 53zM292 1354q-21 22 -21 60t27 53q28 15 52 15t46 -22t22 -53t-22 -53t-52 -22t-52 22zM224 -291q137 0 201 172l35 104l-420 1143h95l369 -1036h4l362 1036h94l-452 -1255q-52 -129 -97 -170
q-82 -75 -201 -73q-52 0 -104 8v79q44 -8 114 -8z" />
    <glyph glyph-name="Amacron" unicode="&#x100;" horiz-adv-x="1250" 
d="M920 1665h-587v60h587v-60zM629 1372h-7l-281 -798h566zM142 0h-94l531 1482h93l531 -1482h-96l-172 500h-619z" />
    <glyph glyph-name="amacron" unicode="&#x101;" horiz-adv-x="1105" 
d="M847 1357h-603v65h603v-65zM493 60q144 0 246 91t102 230v171h-344q-147 0 -219 -62t-72 -157q0 -177 139 -242q65 -31 148 -31zM472 -19q-154 0 -258 91q-102 92 -102 240t99 233t284 86h346v164q0 181 -141 243q-66 28 -148 28q-154 0 -224 -64t-78 -134h-88
q6 117 106 198t279 81q179 -1 281 -87t102 -252v-808h-87v183h-4q-29 -71 -121 -137t-246 -65z" />
    <glyph glyph-name="Abreve" unicode="&#x102;" horiz-adv-x="1250" 
d="M327 1869h73q0 -83 61 -132t165 -49t162 49q57 49 57 132h75q0 -106 -75 -178t-220 -72t-221 72t-77 178zM629 1372h-7l-281 -798h566zM142 0h-94l531 1482h93l531 -1482h-96l-172 500h-619z" />
    <glyph glyph-name="abreve" unicode="&#x103;" horiz-adv-x="1105" 
d="M254 1563h75q0 -87 57 -143q56 -56 142 -55q86 0 135 26q95 50 95 172h72q0 -106 -72 -185t-211 -79q-95 -1 -163 39q-130 76 -130 225zM493 60q144 0 246 91t102 230v171h-344q-147 0 -219 -62t-72 -157q0 -177 139 -242q65 -31 148 -31zM472 -19q-154 0 -258 91
q-102 92 -102 240t99 233t284 86h346v164q0 181 -141 243q-66 28 -148 28q-154 0 -224 -64t-78 -134h-88q6 117 106 198t279 81q179 -1 281 -87t102 -252v-808h-87v183h-4q-29 -71 -121 -137t-246 -65z" />
    <glyph glyph-name="Aogonek" unicode="&#x104;" horiz-adv-x="1250" 
d="M629 1372h-7l-281 -798h566zM1106 -408q-76 0 -128 47t-52 134q0 137 175 252l-166 475h-619l-174 -500h-94l531 1482h93l531 -1478q-77 -37 -133 -93t-57 -109q-1 -54 15 -82q31 -58 102 -55q48 0 92 14v-64q-40 -23 -116 -23z" />
    <glyph glyph-name="aogonek" unicode="&#x105;" horiz-adv-x="1105" 
d="M679 -202q0 70 43 126q44 57 121 111v148h-4q-29 -71 -121 -137t-246 -65q-154 0 -258 91q-102 92 -102 240t99 233t284 86h346v164q0 181 -141 243q-66 28 -148 28q-154 0 -224 -64t-78 -134h-88q6 117 106 198t279 81q179 -1 281 -87t102 -252v-800q-169 -92 -168 -208
q0 -56 32 -86t86 -30t92 12v-69q-40 -19 -97 -19q-196 2 -196 190zM493 60q144 0 246 91t102 230v171h-344q-147 0 -219 -62t-72 -157q0 -177 139 -242q65 -31 148 -31z" />
    <glyph glyph-name="Cacute" unicode="&#x106;" horiz-adv-x="1354" 
d="M237 874v-268q0 -242 114 -400t357 -158q194 0 312 106t118 260h88v-2q0 -179 -142 -312t-376 -133q-285 0 -423 180q-137 180 -137 467v252q0 396 244 562q128 87 311 87q123 1 223 -41q177 -73 256 -253q33 -78 33 -157v-5h-87q0 133 -107 250q-51 57 -134 91t-184 34
q-154 0 -261 -76q-205 -146 -205 -484zM589 1646l325 260h114l-345 -260h-94z" />
    <glyph glyph-name="cacute" unicode="&#x107;" horiz-adv-x="1109" 
d="M579 1320h-71l252 318h97zM131 483v171q0 152 56 264t156 170q101 58 215 59q211 0 321 -108t114 -236h-86q-22 150 -160 223q-75 40 -177 40t-182 -50t-125 -147t-44 -230v-148q1 -204 97 -316q96 -113 256 -113t239 71q80 71 99 171h85q-8 -119 -110 -221t-308 -102
q-206 -1 -326 131t-120 371z" />
    <glyph glyph-name="Ccircumflex" unicode="&#x108;" horiz-adv-x="1354" 
d="M383 1636l302 231h46l297 -231h-104l-214 166h-4l-217 -166h-106zM237 874v-268q0 -242 114 -400t357 -158q194 0 312 106t118 260h88v-2q0 -179 -142 -312t-376 -133q-285 0 -423 180q-137 180 -137 467v252q0 396 244 562q128 87 311 87q123 1 223 -41
q177 -73 256 -253q33 -78 33 -157v-5h-87q0 133 -107 250q-51 57 -134 91t-184 34q-154 0 -261 -76q-205 -146 -205 -484z" />
    <glyph glyph-name="ccircumflex" unicode="&#x109;" horiz-adv-x="1109" 
d="M131 483v171q0 152 56 264t156 170q101 58 215 59q211 0 321 -108t114 -236h-86q-22 150 -160 223q-75 40 -177 40t-182 -50t-125 -147t-44 -230v-148q1 -204 97 -316q96 -113 256 -113t239 71q80 71 99 171h85q-8 -119 -110 -221t-308 -102q-206 -1 -326 131t-120 371z
M285 1342l252 354h69l243 -354h-81l-196 294h-4l-204 -294h-79z" />
    <glyph glyph-name="Cdotaccent" unicode="&#x10a;" horiz-adv-x="1354" 
d="M624 1784q0 39 22 62t57 23t56 -23t21 -50t-10 -45t-29 -28t-40 -10t-38 10q-39 22 -39 61zM237 874v-268q0 -242 114 -400t357 -158q194 0 312 106t118 260h88v-2q0 -179 -142 -312t-376 -133q-285 0 -423 180q-137 180 -137 467v252q0 396 244 562q128 87 311 87
q123 1 223 -41q177 -73 256 -253q33 -78 33 -157v-5h-87q0 133 -107 250q-51 57 -134 91t-184 34q-154 0 -261 -76q-205 -146 -205 -484z" />
    <glyph glyph-name="cdotaccent" unicode="&#x10b;" horiz-adv-x="1109" 
d="M529 1369q-38 22 -38 65t27 62t54 19t50 -23t23 -61t-28 -55t-50 -17t-38 10zM131 483v171q0 152 56 264t156 170q101 58 215 59q211 0 321 -108t114 -236h-86q-22 150 -160 223q-75 40 -177 40t-182 -50t-125 -147t-44 -230v-148q1 -204 97 -316q96 -113 256 -113
t239 71q80 71 99 171h85q-8 -119 -110 -221t-308 -102q-206 -1 -326 131t-120 371z" />
    <glyph glyph-name="Ccaron" unicode="&#x10c;" horiz-adv-x="1354" 
d="M383 1846h94l226 -179h7l227 179h91l-283 -227h-73zM237 874v-268q0 -242 114 -400t357 -158q194 0 312 106t118 260h88v-2q0 -179 -142 -312t-376 -133q-285 0 -423 180q-137 180 -137 467v252q0 396 244 562q128 87 311 87q123 1 223 -41q177 -73 256 -253
q33 -78 33 -157v-5h-87q0 133 -107 250q-51 57 -134 91t-184 34q-154 0 -261 -76q-205 -146 -205 -484z" />
    <glyph glyph-name="ccaron" unicode="&#x10d;" horiz-adv-x="1109" 
d="M131 483v171q0 152 56 264t156 170q101 58 215 59q211 0 321 -108t114 -236h-86q-22 150 -160 223q-75 40 -177 40t-182 -50t-125 -147t-44 -230v-148q1 -204 97 -316q96 -113 256 -113t239 71q80 71 99 171h85q-8 -119 -110 -221t-308 -102q-206 -1 -326 131t-120 371z
M283 1675h79l204 -293h4l198 293h81l-243 -353h-71z" />
    <glyph glyph-name="Dcaron" unicode="&#x10e;" horiz-adv-x="1409" 
d="M296 1401v-1320h310q291 0 432 173q140 173 140 485t-140 487t-432 175h-310zM206 1482h400q341 0 501 -196q161 -196 161 -541t-154 -545t-508 -200h-400v1482zM373 1846h93l227 -179h6l227 179h92l-283 -227h-73z" />
    <glyph glyph-name="dcaron" unicode="&#x10f;" horiz-adv-x="1332" 
d="M216 479q0 -194 98 -306q98 -113 260 -113t261 121q98 121 97 296v170q0 251 -172 363q-84 56 -199 56t-212 -77q-129 -107 -133 -344v-166zM562 1147q220 0 328 -158q26 -37 36 -75h6v649h86v-1563h-83v221h-5q-17 -66 -99 -146q-43 -42 -115 -68t-156 -26
q-194 0 -312 131t-119 348v206q0 227 123 354t310 127zM1249 1565h89l-29 -533h-60v533z" />
    <glyph glyph-name="Dcroat" unicode="&#x110;" horiz-adv-x="1473" 
d="M360 81h308q293 0 434 173q140 173 140 486t-140 487t-434 174h-308v-602h393v-81h-393v-637zM668 0h-397v718h-173v81h173v683h397q340 0 502 -196t162 -542t-150 -538q-159 -206 -514 -206z" />
    <glyph glyph-name="dcroat" unicode="&#x111;" horiz-adv-x="1205" 
d="M566 -19q-185 0 -311 125t-126 350v216q0 214 122 344t317 131q83 0 152 -26t126 -84t80 -127h6v430h-270v77h270v161h88v-161h139v-77h-139v-1340h-85v221h-7q-27 -87 -120 -164q-94 -76 -242 -76zM577 1066q-159 0 -260 -110t-101 -300v-179q0 -202 103 -309
q103 -108 259 -108t256 117q99 117 98 293v198q0 162 -97 280q-99 118 -258 118z" />
    <glyph glyph-name="Emacron" unicode="&#x112;" horiz-adv-x="1167" 
d="M920 1665h-585v60h585v-60zM1053 81v-81h-847v1482h847v-83h-757v-600h720v-81h-720v-637h757z" />
    <glyph glyph-name="emacron" unicode="&#x113;" horiz-adv-x="1138" 
d="M866 1357h-604v65h604v-65zM221 633h701v4q0 202 -95 315q-95 114 -256 114t-256 -114t-94 -315v-4zM133 497v115q0 256 117 395q118 139 322 139t321 -138q117 -140 116 -394v-58h-788v-59q-1 -205 95 -321t269 -116q113 0 200 51q70 44 101 113q14 30 17 61h90
q-8 -107 -109 -206q-100 -98 -308 -98q-207 1 -325 137t-118 379z" />
    <glyph glyph-name="Ebreve" unicode="&#x114;" horiz-adv-x="1167" 
d="M329 1869h73q0 -83 60 -132t166 -49t162 49q57 49 57 132h73q0 -106 -74 -178t-218 -72t-222 72q-77 72 -77 178zM1053 81v-81h-847v1482h847v-83h-757v-600h720v-81h-720v-637h757z" />
    <glyph glyph-name="ebreve" unicode="&#x115;" horiz-adv-x="1138" 
d="M271 1563h74q1 -87 59 -143t160 -55q102 0 157 54t55 144h73q0 -106 -74 -185t-212 -79t-215 78t-77 186zM221 633h701v4q0 202 -95 315q-95 114 -256 114t-256 -114t-94 -315v-4zM133 497v115q0 256 117 395q118 139 322 139t321 -138q117 -140 116 -394v-58h-788v-59
q-1 -205 95 -321t269 -116q113 0 200 51q70 44 101 113q14 30 17 61h90q-8 -107 -109 -206q-100 -98 -308 -98q-207 1 -325 137t-118 379z" />
    <glyph glyph-name="Edotaccent" unicode="&#x116;" horiz-adv-x="1167" 
d="M1053 81v-81h-847v1482h847v-83h-757v-600h720v-81h-720v-637h757zM549 1786q1 27 11 45q22 38 71 38t66 -43t-3 -78q-21 -35 -60 -35t-62 23t-23 50z" />
    <glyph glyph-name="edotaccent" unicode="&#x117;" horiz-adv-x="1138" 
d="M221 633h701v4q0 202 -95 315q-95 114 -256 114t-256 -114t-94 -315v-4zM133 497v115q0 256 117 395q118 139 322 139t321 -138q117 -140 116 -394v-58h-788v-59q-1 -205 95 -321t269 -116q113 0 200 51q70 44 101 113q14 30 17 61h90q-8 -107 -109 -206
q-100 -98 -308 -98q-207 1 -325 137t-118 379zM531 1369q-38 22 -38 59q1 37 11 51q29 36 63 36t57 -23t23 -61t-28 -55t-50 -17t-38 10z" />
    <glyph glyph-name="Eogonek" unicode="&#x118;" horiz-adv-x="1167" 
d="M940 -408q-72 0 -125 47t-53 134q0 137 139 227h-695v1482h847v-83h-757v-600h720v-81h-720v-637h757v-77q-100 -31 -154 -88q-54 -56 -54 -122t32 -98q31 -32 83 -31q52 0 93 14v-66q-41 -21 -113 -21z" />
    <glyph glyph-name="eogonek" unicode="&#x119;" horiz-adv-x="1138" 
d="M221 633h701v4q0 202 -95 315q-95 114 -256 114t-256 -114t-94 -315v-4zM585 -19q-216 1 -334 137t-118 379v115q0 256 117 395q118 139 322 139t321 -138q117 -140 116 -394v-58h-788v-59q-1 -205 95 -321t269 -116q113 0 200 51q70 44 101 113q14 30 17 61h90
q-10 -108 -104 -200q-48 -49 -65 -67t-57 -71t-42 -124q-1 -69 39 -105t94 -36t99 14v-64q-39 -23 -119 -23t-139 49q-58 49 -58 138t55 158q20 25 60 65l-5 6q-60 -44 -166 -44z" />
    <glyph glyph-name="Ecaron" unicode="&#x11a;" horiz-adv-x="1167" 
d="M1053 81v-81h-847v1482h847v-83h-757v-600h720v-81h-720v-637h757zM308 1846h94l229 -179h4l227 179h91l-283 -227h-73z" />
    <glyph glyph-name="ecaron" unicode="&#x11b;" horiz-adv-x="1138" 
d="M221 633h701v4q0 202 -95 315q-95 114 -256 114t-256 -114t-94 -315v-4zM133 497v115q0 256 117 395q118 139 322 139t321 -138q117 -140 116 -394v-58h-788v-59q-1 -205 95 -321t269 -116q113 0 200 51q70 44 101 113q14 30 17 61h90q-8 -107 -109 -206
q-100 -98 -308 -98q-207 1 -325 137t-118 379zM285 1675h79l204 -293h4l198 293h81l-243 -353h-71z" />
    <glyph glyph-name="Gcircumflex" unicode="&#x11c;" horiz-adv-x="1375" 
d="M702 1434q-206 0 -336 -151t-129 -411v-248q0 -262 121 -419q122 -157 336 -157t332 102t119 283v202h-444v81h527v-283q0 -208 -138 -337t-380 -129q-187 0 -317 87q-245 165 -245 570v248q0 296 151 470t405 173q254 0 385 -128t135 -290h-88q-4 133 -116 235t-318 102
zM375 1636l301 231h46l296 -231h-102l-215 166h-6l-214 -166h-106z" />
    <glyph glyph-name="gcircumflex" unicode="&#x11d;" horiz-adv-x="1190" 
d="M214 651v-129q0 -189 100 -298q100 -110 260 -110t258 119q96 119 96 283v138q0 175 -99 293q-99 119 -255 119t-258 -108t-102 -307zM582 -312q158 0 253 83q94 83 93 221v279h-4q-22 -69 -82 -128q-113 -110 -292 -110t-302 129t-123 344v164q0 225 127 351t301 126
t267 -86q77 -68 106 -147h4v214h86v-1132q0 -179 -119 -284t-321 -105q-202 -1 -306 91t-112 210h92q6 -88 90 -154t242 -66zM312 1342l252 354h71l243 -354h-81l-198 294h-4l-202 -294h-81z" />
    <glyph glyph-name="Gbreve" unicode="&#x11e;" horiz-adv-x="1375" 
d="M466 1869q0 -181 244 -181q86 0 144 49q57 49 58 132h75q0 -106 -75 -178t-219 -72q-214 0 -281 154q-19 44 -19 96h73zM702 1434q-206 0 -336 -151t-129 -411v-248q0 -262 121 -419q122 -157 336 -157t332 102t119 283v202h-444v81h527v-283q0 -208 -138 -337t-380 -129
q-187 0 -317 87q-245 165 -245 570v248q0 296 151 470t405 173q254 0 385 -128t135 -290h-88q-4 133 -116 235t-318 102z" />
    <glyph glyph-name="gbreve" unicode="&#x11f;" horiz-adv-x="1190" 
d="M214 651v-129q0 -189 100 -298q100 -110 260 -110t258 119q96 119 96 283v138q0 175 -99 293q-99 119 -255 119t-258 -108t-102 -307zM582 -312q158 0 253 83q94 83 93 221v279h-4q-22 -69 -82 -128q-113 -110 -292 -110t-302 129t-123 344v164q0 225 127 351t301 126
t267 -86q77 -68 106 -147h4v214h86v-1132q0 -179 -119 -284t-321 -105q-202 -1 -306 91t-112 210h92q6 -88 90 -154t242 -66zM298 1563h72q0 -87 58 -143t144 -55q158 0 206 96q23 44 23 102h73q0 -106 -73 -185t-211 -79t-215 78t-77 186z" />
    <glyph glyph-name="Gdotaccent" unicode="&#x120;" horiz-adv-x="1375" 
d="M702 1434q-206 0 -336 -151t-129 -411v-248q0 -262 121 -419q122 -157 336 -157t332 102t119 283v202h-444v81h527v-283q0 -208 -138 -337t-380 -129q-187 0 -317 87q-245 165 -245 570v248q0 296 151 470t405 173q254 0 385 -128t135 -290h-88q-4 133 -116 235t-318 102
zM616 1784q0 39 22 62t46 23q60 0 82 -48q6 -15 6 -33t-10 -37q-21 -38 -71 -38q-19 0 -36 10q-39 22 -39 61z" />
    <glyph glyph-name="gdotaccent" unicode="&#x121;" horiz-adv-x="1190" 
d="M214 651v-129q0 -189 100 -298q100 -110 260 -110t258 119q96 119 96 283v138q0 175 -99 293q-99 119 -255 119t-258 -108t-102 -307zM582 -312q158 0 253 83q94 83 93 221v279h-4q-22 -69 -82 -128q-113 -110 -292 -110t-302 129t-123 344v164q0 225 127 351t301 126
t267 -86q77 -68 106 -147h4v214h86v-1132q0 -179 -119 -284t-321 -105q-202 -1 -306 91t-112 210h92q6 -88 90 -154t242 -66zM541 1381q-23 22 -23 52q0 41 26 61q26 21 55 21t52 -23t23 -62t-29 -55t-55 -16t-49 22z" />
    <glyph glyph-name="Gcommaaccent" unicode="&#x122;" horiz-adv-x="1375" 
d="M702 1434q-206 0 -336 -151t-129 -411v-248q0 -262 121 -419q122 -157 336 -157t332 102t119 283v202h-444v81h527v-283q0 -208 -138 -337t-380 -129q-187 0 -317 87q-245 165 -245 570v248q0 296 151 470t405 173q254 0 385 -128t135 -290h-88q-4 133 -116 235t-318 102
zM624 -524h-64l94 366h95z" />
    <glyph glyph-name="gcommaaccent" unicode="&#x123;" horiz-adv-x="1190" 
d="M214 651v-129q0 -189 100 -298q100 -110 260 -110t258 119q96 119 96 283v138q0 175 -99 293q-99 119 -255 119t-258 -108t-102 -307zM582 -312q158 0 253 83q94 83 93 221v279h-4q-22 -69 -82 -128q-113 -110 -292 -110t-302 129t-123 344v164q0 225 127 351t301 126
t267 -86q77 -68 106 -147h4v214h86v-1132q0 -179 -119 -284t-321 -105q-202 -1 -306 91t-112 210h92q6 -88 90 -154t242 -66zM660 1709h66l-93 -364h-96z" />
    <glyph glyph-name="Hcircumflex" unicode="&#x124;" horiz-adv-x="1452" 
d="M408 1636l302 231h46l297 -231h-104l-214 166h-4l-217 -166h-106zM1245 0h-90v737h-859v-737h-90v1482h90v-664h859v664h90v-1482z" />
    <glyph glyph-name="hcircumflex" unicode="&#x125;" horiz-adv-x="1213" 
d="M-54 1780l252 353h68l246 -353h-83l-196 293h-4l-202 -293h-81zM187 0v1563h86v-645h4q31 94 124 162t254 67q161 1 271 -111t110 -303v-733h-89v720q0 152 -83 248q-84 96 -242 96t-254 -110t-95 -271v-683h-86z" />
    <glyph glyph-name="Hbar" unicode="&#x126;" horiz-adv-x="1452" 
d="M296 728v-728h-90v1111h-146v75h146v296h90v-296h859v296h90v-296h154v-75h-154v-1111h-90v728h-859zM296 810h859v301h-859v-301z" />
    <glyph glyph-name="hbar" unicode="&#x127;" horiz-adv-x="1213" 
d="M273 672v-672h-86v1342h-141v75h141v146h86v-146h264v-75h-264v-439h6q29 96 123 170t226 74q254 0 357 -180q51 -91 51 -216v-751h-89v733q0 149 -83 241q-82 92 -240 92t-254 -116t-97 -278z" />
    <glyph glyph-name="Itilde" unicode="&#x128;" horiz-adv-x="536" 
d="M23 1642h-63q0 127 72 177q36 25 93 25t103 -42q22 -19 51 -54t52 -51q23 -15 63 -15t70 42q31 42 31 108h65q0 -87 -49 -148t-113 -61q-63 0 -95 19t-72 61q-54 76 -112 79q-96 0 -96 -140zM312 0h-87v1482h87v-1482z" />
    <glyph glyph-name="itilde" unicode="&#x129;" horiz-adv-x="462" 
d="M60 1486q-108 0 -108 -160h-71q0 108 48 168q47 60 117 60t109 -24q39 -25 78 -74t67 -66q28 -16 72 -16t80 46q35 47 35 122h69q0 -100 -53 -168t-125 -67q-72 0 -111 22t-75 67q-36 46 -65 68t-67 22zM187 0v1128h88v-1128h-88z" />
    <glyph glyph-name="Imacron" unicode="&#x12a;" horiz-adv-x="536" 
d="M562 1665h-587v60h587v-60zM312 0h-87v1482h87v-1482z" />
    <glyph glyph-name="imacron" unicode="&#x12b;" horiz-adv-x="462" 
d="M527 1357h-604v65h604v-65zM187 0v1128h88v-1128h-88z" />
    <glyph glyph-name="Ibreve" unicode="&#x12c;" horiz-adv-x="536" 
d="M42 1869q0 -181 243 -181q87 0 145 49q57 49 57 132h75q0 -106 -75 -178t-220 -72t-221 72t-77 178h73zM312 0h-87v1482h87v-1482z" />
    <glyph glyph-name="ibreve" unicode="&#x12d;" horiz-adv-x="462" 
d="M-67 1563h73q0 -87 58 -143t161 -55q102 0 157 54t55 144h73q0 -106 -74 -185t-211 -79t-215 78q-77 78 -77 186zM187 0v1128h88v-1128h-88z" />
    <glyph glyph-name="Iogonek" unicode="&#x12e;" horiz-adv-x="536" 
d="M256 -408q-120 0 -168 80q-24 41 -23 101q0 142 160 254v1455h87v-1482q-164 -92 -164 -216q0 -77 58 -107t152 2v-64q-40 -23 -102 -23z" />
    <glyph glyph-name="iogonek" unicode="&#x12f;" horiz-adv-x="497" 
d="M169 1460q0 34 22 58q23 24 57 24t59 -24q24 -24 24 -58t-24 -57t-58 -23t-58 23q-22 23 -22 57zM223 -391q-77 0 -128 46t-51 133q0 144 162 254v1086h87v-1113q-167 -89 -166 -217q0 -54 33 -85q32 -31 86 -31t91 12v-62q-37 -23 -114 -23z" />
    <glyph glyph-name="Idotaccent" unicode="&#x130;" horiz-adv-x="536" 
d="M191 1784q0 39 22 62t54 23q31 0 55 -23t24 -56t-24 -55q-22 -22 -50 -22t-43 10q-38 22 -38 61zM312 0h-87v1482h87v-1482z" />
    <glyph glyph-name="dotlessi" unicode="&#x131;" horiz-adv-x="462" 
d="M187 0v1128h88v-1128h-88z" />
    <glyph glyph-name="Jcircumflex" unicode="&#x134;" horiz-adv-x="986" 
d="M437 1636l302 231h46l297 -231h-102l-216 166h-4l-217 -166h-106zM40 321h89q0 -93 67 -177t210 -84q142 0 224 82t82 245v1095h89v-1091q0 -204 -105 -308t-284 -104q-271 0 -352 225q-20 59 -20 117z" />
    <glyph glyph-name="jcircumflex" unicode="&#x135;" horiz-adv-x="497" 
d="M-31 1328l252 354h70l244 -354h-81l-196 293h-6l-202 -293h-81zM293 1128v-1203q0 -156 -59 -225t-182 -68q-48 0 -81 8v77q35 -8 82 -8q47 1 82 21q71 42 71 193v1205h87z" />
    <glyph glyph-name="Kcommaaccent" unicode="&#x136;" horiz-adv-x="1207" 
d="M537 -524h-65l92 366h98zM296 0h-90v1482h90v-795h4l741 795h114l-608 -658l644 -824h-117l-593 762l-185 -194v-568z" />
    <glyph glyph-name="kcommaaccent" unicode="&#x137;" horiz-adv-x="1082" 
d="M481 -524h-67l94 366h98zM273 0h-86v1563h86v-997h6l603 577h111l-498 -481l519 -662h-111l-472 604l-158 -144v-460z" />
    <glyph glyph-name="Lacute" unicode="&#x139;" horiz-adv-x="1103" 
d="M1041 81v-81h-835v1482h90v-1401h745zM137 1646l327 260h113l-344 -260h-96z" />
    <glyph glyph-name="lacute" unicode="&#x13a;" horiz-adv-x="484" 
d="M200 0v1563h87v-1563h-87zM256 1757h-71l250 318h98z" />
    <glyph glyph-name="Lcommaaccent" unicode="&#x13b;" horiz-adv-x="1103" 
d="M1041 81v-81h-835v1482h90v-1401h745zM502 -524h-65l92 366h97z" />
    <glyph glyph-name="lcommaaccent" unicode="&#x13c;" horiz-adv-x="484" 
d="M200 0v1563h87v-1563h-87zM177 -524h-67l94 366h96z" />
    <glyph glyph-name="Lcaron" unicode="&#x13d;" horiz-adv-x="1103" 
d="M1041 81v-81h-835v1482h90v-1401h745zM654 1565h91l-31 -533h-60v533z" />
    <glyph glyph-name="lcaron" unicode="&#x13e;" horiz-adv-x="601" 
d="M200 0v1563h87v-1563h-87zM529 1565h87l-27 -533h-60v533z" />
    <glyph glyph-name="Lslash" unicode="&#x141;" horiz-adv-x="1105" 
d="M1043 0h-833v637l-162 -96v90l162 95v756h90v-704l485 286v-92l-485 -283v-608h743v-81z" />
    <glyph glyph-name="lslash" unicode="&#x142;" horiz-adv-x="501" 
d="M296 0h-88v728l-202 -156v94l202 156v741h88v-674l210 162v-94l-210 -162v-795z" />
    <glyph glyph-name="Nacute" unicode="&#x143;" horiz-adv-x="1452" 
d="M296 0h-90v1482h94l851 -1326h4v1326h90v-1482h-92l-853 1326h-4v-1326zM614 1646l325 260h114l-345 -260h-94z" />
    <glyph glyph-name="nacute" unicode="&#x144;" horiz-adv-x="1198" 
d="M181 0v1128h87v-210h5q33 94 127 162t252 67q158 0 267 -106t109 -296v-745h-89v724q-1 152 -83 246t-242 94t-252 -110q-94 -110 -94 -271v-683h-87zM612 1320h-71l250 318h98z" />
    <glyph glyph-name="Ncommaaccent" unicode="&#x145;" horiz-adv-x="1452" 
d="M296 0h-90v1482h94l851 -1326h4v1326h90v-1482h-92l-853 1326h-4v-1326zM660 -524h-67l94 366h96z" />
    <glyph glyph-name="ncommaaccent" unicode="&#x146;" horiz-adv-x="1198" 
d="M181 0v1128h87v-210h5q33 94 127 162t252 67q158 0 267 -106t109 -296v-745h-89v724q-1 152 -83 246t-242 94t-252 -110q-94 -110 -94 -271v-683h-87zM531 -524h-65l94 366h96z" />
    <glyph glyph-name="Ncaron" unicode="&#x147;" horiz-adv-x="1452" 
d="M296 0h-90v1482h94l851 -1326h4v1326h90v-1482h-92l-853 1326h-4v-1326zM408 1846h94l226 -179h7l227 179h91l-283 -227h-73z" />
    <glyph glyph-name="ncaron" unicode="&#x148;" horiz-adv-x="1198" 
d="M181 0v1128h87v-210h5q33 94 127 162t252 67q158 0 267 -106t109 -296v-745h-89v724q-1 152 -83 246t-242 94t-252 -110q-94 -110 -94 -271v-683h-87zM314 1675h79l204 -293h4l198 293h81l-243 -353h-71z" />
    <glyph glyph-name="Omacron" unicode="&#x14c;" 
d="M1005 1665h-585v60h585v-60zM148 606v266q0 296 150 470t416 173q266 0 416 -175t150 -470v-264q0 -296 -151 -468t-417 -172t-415 172t-149 468zM235 878v-279q0 -251 128 -401t350 -150t350 150t128 401v279q1 252 -129 404t-350 152q-144 0 -252 -69t-166 -195
t-59 -292z" />
    <glyph glyph-name="omacron" unicode="&#x14d;" horiz-adv-x="1180" 
d="M590 1066q-170 0 -271 -116t-100 -321v-134q1 -206 101 -320q100 -115 271 -115t271 114t100 321v134q0 205 -101 321t-271 116zM591 1147q133 1 237 -59t164 -176t59 -271v-158q0 -237 -127 -369t-334 -133q-207 0 -333 132t-126 370v158q0 237 126 371t334 135z
M887 1357h-604v65h604v-65z" />
    <glyph glyph-name="Obreve" unicode="&#x14e;" 
d="M412 1869h73q0 -115 107 -159q52 -22 138 -22t144 49t58 132h73q0 -106 -75 -178q-74 -72 -218 -72t-222 72t-78 178zM148 606v266q0 296 150 470t416 173q266 0 416 -175t150 -470v-264q0 -296 -151 -468t-417 -172t-415 172t-149 468zM235 878v-279q0 -251 128 -401
t350 -150t350 150t128 401v279q1 252 -129 404t-350 152q-144 0 -252 -69t-166 -195t-59 -292z" />
    <glyph glyph-name="obreve" unicode="&#x14f;" horiz-adv-x="1180" 
d="M590 1066q-170 0 -271 -116t-100 -321v-134q1 -206 101 -320q100 -115 271 -115t271 114t100 321v134q0 205 -101 321t-271 116zM591 1147q133 1 237 -59t164 -176t59 -271v-158q0 -237 -127 -369t-334 -133q-207 0 -333 132t-126 370v158q0 237 126 371t334 135z
M291 1563h75q0 -87 58 -143t144 -55q86 0 134 26q96 52 95 172h73q0 -106 -74 -185t-212 -79t-216 78q-77 78 -77 186z" />
    <glyph glyph-name="Ohungarumlaut" unicode="&#x150;" 
d="M148 606v266q0 296 150 470t416 173q266 0 416 -175t150 -470v-264q0 -296 -151 -468t-417 -172t-415 172t-149 468zM235 878v-279q0 -251 128 -401t350 -150t350 150t128 401v279q1 252 -129 404t-350 152q-144 0 -252 -69t-166 -195t-59 -292zM778 1650l331 261h109
l-344 -261h-96zM485 1650l331 261h108l-341 -261h-98z" />
    <glyph glyph-name="ohungarumlaut" unicode="&#x151;" horiz-adv-x="1180" 
d="M590 1066q-170 0 -271 -116t-100 -321v-134q1 -206 101 -320q100 -115 271 -115t271 114t100 321v134q0 205 -101 321t-271 116zM591 1147q133 1 237 -59t164 -176t59 -271v-158q0 -237 -127 -369t-334 -133q-207 0 -333 132t-126 370v158q0 237 126 371t334 135z
M724 1320h-66l258 328h91zM487 1320h-67l259 328h91z" />
    <glyph glyph-name="OE" unicode="&#x152;" horiz-adv-x="2149" 
d="M706 -33q-266 0 -413 171q-146 172 -145 468v266q0 296 147 470t411 173q224 0 361 -127q66 -60 103 -139h6v233h843v-83h-754v-600h716v-81h-716v-637h754v-81h-843v241h-6q-66 -131 -184 -203t-280 -71zM235 878v-279q0 -255 125 -403q126 -148 342 -148t345 142
t129 366v374q0 142 -55 255t-163 181t-254 68q-144 0 -250 -70t-162 -194t-57 -292z" />
    <glyph glyph-name="oe" unicode="&#x153;" horiz-adv-x="1968" 
d="M1051 629h697v8q0 202 -93 315q-94 114 -253 114t-255 -114t-96 -315v-8zM962 639q0 203 -104 315t-268 112q-163 0 -267 -112t-104 -315v-154q0 -204 103 -314q104 -111 270 -111t268 110t102 315v154zM591 -19q-202 0 -331 129t-129 362v179q0 233 129 365t331 131
q142 0 251 -70t163 -201h7q48 131 149 201q102 70 242 70q197 -1 315 -137t118 -388v-68h-785v-63q0 -204 98 -317q98 -114 253 -114t240 67t98 148h92q-8 -97 -114 -195q-105 -99 -329 -99q-122 0 -226 69t-151 196h-7q-52 -127 -162 -196t-252 -69z" />
    <glyph glyph-name="Racute" unicode="&#x154;" horiz-adv-x="1292" 
d="M296 726h383q173 0 273 90t99 246q0 157 -100 248t-270 91h-385v-675zM693 1482q208 0 329 -116t121 -290q1 -174 -87 -276t-230 -136l342 -664h-104l-329 647h-439v-647h-90v1482h487zM522 1646l327 260h113l-344 -260h-96z" />
    <glyph glyph-name="racute" unicode="&#x155;" horiz-adv-x="726" 
d="M187 0v1128h88v-208h4q21 87 101 156t221 69q40 0 92 -9v-83q-37 8 -100 8q-139 0 -229 -93q-89 -94 -89 -273v-695h-88zM393 1320h-70l251 318h98z" />
    <glyph glyph-name="Rcommaaccent" unicode="&#x156;" horiz-adv-x="1292" 
d="M568 -524h-64l91 366h98zM296 726h383q173 0 273 90t99 246q0 157 -100 248t-270 91h-385v-675zM693 1482q208 0 329 -116t121 -290q1 -174 -87 -276t-230 -136l342 -664h-104l-329 647h-439v-647h-90v1482h487z" />
    <glyph glyph-name="rcommaaccent" unicode="&#x157;" horiz-adv-x="726" 
d="M164 -524h-66l93 366h96zM187 0v1128h88v-208h4q21 87 101 156t221 69q40 0 92 -9v-83q-37 8 -100 8q-139 0 -229 -93q-89 -94 -89 -273v-695h-88z" />
    <glyph glyph-name="Rcaron" unicode="&#x158;" horiz-adv-x="1292" 
d="M316 1846h94l229 -179h4l227 179h92l-283 -227h-71zM296 726h383q173 0 273 90t99 246q0 157 -100 248t-270 91h-385v-675zM693 1482q208 0 329 -116t121 -290q1 -174 -87 -276t-230 -136l342 -664h-104l-329 647h-439v-647h-90v1482h487z" />
    <glyph glyph-name="rcaron" unicode="&#x159;" horiz-adv-x="726" 
d="M187 0v1128h88v-208h4q21 87 101 156t221 69q40 0 92 -9v-83q-37 8 -100 8q-139 0 -229 -93q-89 -94 -89 -273v-695h-88zM98 1675h79l204 -293h4l198 293h81l-244 -353h-70z" />
    <glyph glyph-name="Sacute" unicode="&#x15a;" horiz-adv-x="1242" 
d="M1036 373q0 131 -83 199t-262 117l-194 52q-339 92 -339 377q0 181 131 290t343 109t340 -106q127 -106 129 -268h-92q-6 117 -101 204q-96 87 -274 87t-281 -85t-103 -237t128 -226q61 -36 159 -62l187 -52q197 -52 300 -137q104 -85 104 -266t-143 -291t-371 -111
q-133 -1 -236 39q-172 66 -241 234q-27 68 -29 137h92q4 -115 103 -222t327 -107q116 0 210 42q96 42 146 115q50 74 50 168zM508 1646l325 260h114l-346 -260h-93z" />
    <glyph glyph-name="sacute" unicode="&#x15b;" horiz-adv-x="1040" 
d="M533 1320h-71l250 318h98zM142 848q0 140 105 219q105 80 271 80q100 0 178 -29q134 -50 182 -172q21 -51 21 -101h-85q0 68 -63 143q-71 82 -255 82q-102 0 -185 -58q-82 -58 -82 -160t73 -151q74 -50 192 -79t162 -41q44 -13 103 -39t89 -55q74 -72 74 -183
q0 -156 -118 -239t-294 -84q-104 0 -186 28t-128 74q-94 94 -94 206h87q4 -81 79 -156t229 -75t245 62t91 173q0 158 -227 213q-33 8 -100 25q-185 46 -275 111q-89 66 -89 206z" />
    <glyph glyph-name="Scircumflex" unicode="&#x15c;" horiz-adv-x="1242" 
d="M304 1636l302 231h45l296 -231h-102l-214 166h-7l-216 -166h-104zM1036 373q0 131 -83 199t-262 117l-194 52q-339 92 -339 377q0 181 131 290t343 109t340 -106q127 -106 129 -268h-92q-6 117 -101 204q-96 87 -274 87t-281 -85t-103 -237t128 -226q61 -36 159 -62
l187 -52q197 -52 300 -137q104 -85 104 -266t-143 -291t-371 -111q-133 -1 -236 39q-172 66 -241 234q-27 68 -29 137h92q4 -115 103 -222t327 -107q116 0 210 42q96 42 146 115q50 74 50 168z" />
    <glyph glyph-name="scircumflex" unicode="&#x15d;" horiz-adv-x="1040" 
d="M142 848q0 140 105 219q105 80 271 80q100 0 178 -29q134 -50 182 -172q21 -51 21 -101h-85q0 68 -63 143q-71 82 -255 82q-102 0 -185 -58q-82 -58 -82 -160t73 -151q74 -50 192 -79t162 -41q44 -13 103 -39t89 -55q74 -72 74 -183q0 -156 -118 -239t-294 -84
q-104 0 -186 28t-128 74q-94 94 -94 206h87q4 -81 79 -156t229 -75t245 62t91 173q0 158 -227 213q-33 8 -100 25q-185 46 -275 111q-89 66 -89 206zM237 1342l252 354h71l243 -354h-81l-198 294h-4l-202 -294h-81z" />
    <glyph glyph-name="Scedilla" unicode="&#x15e;" horiz-adv-x="1242" 
d="M590 -431q74 0 123 28t49 85q0 108 -163 108h-56v52l56 125q-129 3 -229 43t-154 102q-104 119 -108 265h92q4 -115 97 -216q105 -113 333 -113q116 0 210 42q96 42 146 115q50 74 50 168q0 131 -83 199t-262 117l-194 52q-339 92 -339 377q0 181 131 290t343 109
t340 -106q127 -106 129 -268h-92q-6 117 -101 204q-96 87 -274 87t-281 -85t-103 -237t128 -226q61 -36 159 -62l187 -52q197 -52 300 -137q104 -85 104 -259t-125 -284t-331 -125l-48 -113q96 0 160 -41q63 -42 63 -129q0 -88 -73 -136q-74 -48 -164 -49t-144 18v69
q50 -17 124 -17z" />
    <glyph glyph-name="scedilla" unicode="&#x15f;" horiz-adv-x="1040" 
d="M476 -431q74 0 122 29t47 86q0 108 -166 108h-54v52l60 137q-224 6 -328 144q-55 73 -55 164h87q4 -81 79 -156t229 -75t245 62t91 173q0 158 -227 213q-33 8 -100 25q-185 46 -275 111q-89 66 -89 206t105 219q105 80 271 80q100 0 178 -29q134 -50 182 -172
q21 -51 21 -101h-85q0 68 -63 143q-71 82 -255 82q-102 0 -185 -58q-82 -58 -82 -160t73 -151q74 -50 192 -79t162 -41q44 -13 103 -39t89 -55q74 -72 74 -183q0 -146 -102 -228t-262 -95l-52 -127q96 0 160 -40t65 -114t-37 -117q-69 -79 -209 -83q-77 0 -135 19v69
q52 -19 126 -19z" />
    <glyph glyph-name="Scaron" unicode="&#x160;" horiz-adv-x="1242" 
d="M302 1846h93l227 -179h7l226 179h92l-283 -227h-73zM1036 373q0 131 -83 199t-262 117l-194 52q-339 92 -339 377q0 181 131 290t343 109t340 -106q127 -106 129 -268h-92q-6 117 -101 204q-96 87 -274 87t-281 -85t-103 -237t128 -226q61 -36 159 -62l187 -52
q197 -52 300 -137q104 -85 104 -266t-143 -291t-371 -111q-133 -1 -236 39q-172 66 -241 234q-27 68 -29 137h92q4 -115 103 -222t327 -107q116 0 210 42q96 42 146 115q50 74 50 168z" />
    <glyph glyph-name="scaron" unicode="&#x161;" horiz-adv-x="1040" 
d="M142 848q0 140 105 219q105 80 271 80q100 0 178 -29q134 -50 182 -172q21 -51 21 -101h-85q0 68 -63 143q-71 82 -255 82q-102 0 -185 -58q-82 -58 -82 -160t73 -151q74 -50 192 -79t162 -41q44 -13 103 -39t89 -55q74 -72 74 -183q0 -156 -118 -239t-294 -84
q-104 0 -186 28t-128 74q-94 94 -94 206h87q4 -81 79 -156t229 -75t245 62t91 173q0 158 -227 213q-33 8 -100 25q-185 46 -275 111q-89 66 -89 206zM237 1675h79l202 -293h6l196 293h81l-243 -353h-69z" />
    <glyph glyph-name="Tcedilla" unicode="&#x162;" horiz-adv-x="1115" 
d="M496 -437q112 0 160 49q25 26 25 65q0 106 -165 107h-56v52l71 164h-15v1401h-501v81h1086v-81h-497v-1401l-63 -152q97 0 161 -42t64 -129t-73 -134t-163 -49t-145 17v69q47 -17 111 -17z" />
    <glyph glyph-name="tcedilla" unicode="&#x163;" horiz-adv-x="728" 
d="M379 -423q75 -1 124 29t49 86q0 108 -167 108h-54v52l69 160q-84 20 -120 80t-36 174v785h-213v77h213v275h87v-275h302v-77h-302v-799q0 -100 49 -140q48 -40 138 -40t129 7v-73q-47 -8 -93 -8t-86 2l-58 -135q96 0 162 -42q66 -43 65 -131q0 -88 -73 -134
q-72 -46 -162 -48q-90 -1 -146 15v69q48 -17 123 -17z" />
    <glyph glyph-name="Tcaron" unicode="&#x164;" horiz-adv-x="1115" 
d="M604 0h-88v1401h-501v81h1086v-81h-497v-1401zM239 1846h94l227 -179h6l227 179h92l-286 -227h-70z" />
    <glyph glyph-name="tcaron" unicode="&#x165;" horiz-adv-x="728" 
d="M244 1128v275h87v-275h302v-77h-302v-799q0 -100 49 -140q48 -40 138 -40t129 7v-73q-46 -8 -114 -8q-164 0 -227 59q-62 59 -62 209v785h-213v77h213zM543 1838h90l-27 -533h-63v533z" />
    <glyph glyph-name="Tbar" unicode="&#x166;" horiz-adv-x="1115" 
d="M893 753h-289v-753h-88v753h-293v73h293v575h-501v81h1086v-81h-497v-575h289v-73z" />
    <glyph glyph-name="tbar" unicode="&#x167;" horiz-adv-x="722" 
d="M533 -2q-164 0 -227 59q-62 59 -62 209v356h-167v75h167v354h-213v77h213v275h87v-275h302v-77h-302v-354h223v-75h-223v-370q0 -100 49 -140q48 -40 138 -40t129 7v-73q-46 -8 -114 -8z" />
    <glyph glyph-name="Utilde" unicode="&#x168;" 
d="M564 1782q-96 0 -96 -140h-62q0 94 41 148q43 54 105 54t96 -22t70 -66t58 -59q23 -15 64 -15t71 42t30 108h64q0 -122 -82 -180q-39 -28 -91 -28t-84 18q-32 19 -69 61q-31 39 -57 59t-58 20zM273 1482v-970q-1 -214 115 -338t326 -124t325 124q114 124 114 338v970h92
v-970q0 -250 -142 -398q-141 -148 -389 -148t-390 148t-141 398v970h90z" />
    <glyph glyph-name="utilde" unicode="&#x169;" horiz-adv-x="1196" 
d="M429 1486q-108 0 -108 -160h-71q0 108 47 168t117 60t110 -24q38 -25 78 -74t66 -66q27 -16 72 -16t80 46t35 122h69q0 -100 -53 -168t-125 -67q-72 0 -110 22q-39 22 -75 67q-35 46 -65 68t-67 22zM1016 1128v-1128h-88v210h-4q-47 -129 -186 -192q-80 -36 -180 -37
q-171 0 -279 99t-108 284v764h89v-747q0 -148 84 -233q84 -86 238 -86t251 114q96 114 95 276v676h88z" />
    <glyph glyph-name="Umacron" unicode="&#x16a;" 
d="M1007 1665h-587v60h587v-60zM273 1482v-970q-1 -214 115 -338t326 -124t325 124q114 124 114 338v970h92v-970q0 -250 -142 -398q-141 -148 -389 -148t-390 148t-141 398v970h90z" />
    <glyph glyph-name="umacron" unicode="&#x16b;" horiz-adv-x="1196" 
d="M895 1357h-604v65h604v-65zM1016 1128v-1128h-88v210h-4q-47 -129 -186 -192q-80 -36 -180 -37q-171 0 -279 99t-108 284v764h89v-747q0 -148 84 -233q84 -86 238 -86t251 114q96 114 95 276v676h88z" />
    <glyph glyph-name="Ubreve" unicode="&#x16c;" 
d="M487 1869q-1 -181 243 -181q88 0 145 49t57 132h75q0 -106 -75 -178q-76 -72 -220 -72t-221 72t-77 178h73zM273 1482v-970q-1 -214 115 -338t326 -124t325 124q114 124 114 338v970h92v-970q0 -250 -142 -398q-141 -148 -389 -148t-390 148t-141 398v970h90z" />
    <glyph glyph-name="ubreve" unicode="&#x16d;" horiz-adv-x="1196" 
d="M300 1563h75q0 -87 58 -143t160 -55q102 0 157 54t55 144h73q0 -106 -74 -185t-211 -79q-93 -1 -161 39q-132 76 -132 225zM1016 1128v-1128h-88v210h-4q-47 -129 -186 -192q-80 -36 -180 -37q-171 0 -279 99t-108 284v764h89v-747q0 -148 84 -233q84 -86 238 -86
t251 114q96 114 95 276v676h88z" />
    <glyph glyph-name="Uring" unicode="&#x16e;" 
d="M706 1961q-44 1 -82 -37t-39 -91q0 -53 38 -91q39 -37 83 -37q44 1 72 17q65 37 65 110q0 74 -65 112q-28 17 -72 17zM899 1819q0 -63 -54 -119t-132 -56t-133 55q-56 55 -56 120t25 107q53 90 165 91q50 0 93 -24t67 -67t25 -107zM273 1482v-970q-1 -214 115 -338
t326 -124t325 124q114 124 114 338v970h92v-970q0 -250 -142 -398q-141 -148 -389 -148t-390 148t-141 398v970h90z" />
    <glyph glyph-name="uring" unicode="&#x16f;" horiz-adv-x="1196" 
d="M470 1470q0 -44 39 -82t91 -37q52 0 90 37t38 77q-1 98 -80 131q-60 25 -119 -10q-59 -34 -59 -116zM785 1479q-1 -77 -55 -133t-132 -56t-133 56t-55 133q0 78 55 131t133 53t132 -53t55 -131zM1016 1128v-1128h-88v210h-4q-47 -129 -186 -192q-80 -36 -180 -37
q-171 0 -279 99t-108 284v764h89v-747q0 -148 84 -233q84 -86 238 -86t251 114q96 114 95 276v676h88z" />
    <glyph glyph-name="Uhungarumlaut" unicode="&#x170;" 
d="M778 1650l331 261h111l-344 -261h-98zM487 1650l331 261h108l-343 -261h-96zM273 1482v-970q-1 -214 115 -338t326 -124t325 124q114 124 114 338v970h92v-970q0 -250 -142 -398q-141 -148 -389 -148t-390 148t-141 398v970h90z" />
    <glyph glyph-name="uhungarumlaut" unicode="&#x171;" horiz-adv-x="1196" 
d="M1016 1128v-1128h-88v210h-4q-47 -129 -186 -192q-80 -36 -180 -37q-171 0 -279 99t-108 284v764h89v-747q0 -148 84 -233q84 -86 238 -86t251 114q96 114 95 276v676h88zM733 1320h-67l258 328h92zM495 1320h-66l258 328h91z" />
    <glyph glyph-name="Uogonek" unicode="&#x172;" 
d="M995 -408q-79 0 -138 49q-58 49 -58 140q0 125 117 223l-2 4q-108 -42 -204 -41q-244 0 -386 149t-141 396v970h90v-970q-1 -214 115 -338t326 -124t325 124q114 124 114 338v970h92v-970q0 -273 -190 -452q-58 -56 -89 -89q-30 -33 -58 -82t-28 -93q0 -83 70 -114
q32 -15 78 -15t88 15v-67q-42 -23 -121 -23z" />
    <glyph glyph-name="uogonek" unicode="&#x173;" horiz-adv-x="1196" 
d="M764 -228q0 70 28 121t57 78t79 64v186h-6q-31 -90 -121 -165t-254 -75t-270 95t-106 280v772h89v-755q0 -146 82 -229q82 -84 236 -84t252 116t98 269v683h88v-1118q-167 -96 -167 -210q0 -56 32 -86q31 -30 85 -30t91 12v-69q-39 -19 -111 -19t-127 47t-55 117z" />
    <glyph glyph-name="Wcircumflex" unicode="&#x174;" horiz-adv-x="1821" 
d="M527 0h-96l-394 1482h100l342 -1345h4l381 1345h95l379 -1345h4l342 1345h100l-396 -1482h-93l-381 1336h-7zM593 1636l302 231h46l295 -231h-102l-214 166h-6l-215 -166h-106z" />
    <glyph glyph-name="wcircumflex" unicode="&#x175;" horiz-adv-x="1523" 
d="M1482 1128l-308 -1128h-90l-318 1001h-4l-317 -1001h-89l-314 1128h100l258 -1001h4l314 1001h90l316 -1001h6l260 1001h92zM479 1342l252 354h70l244 -354h-81l-196 294h-6l-202 -294h-81z" />
    <glyph glyph-name="Ycircumflex" unicode="&#x176;" horiz-adv-x="1153" 
d="M260 1636l302 231h46l295 -231h-102l-214 166h-6l-217 -166h-104zM622 0h-89v662l-512 820h106l447 -729h7l449 729h102l-510 -818v-664z" />
    <glyph glyph-name="ycircumflex" unicode="&#x177;" horiz-adv-x="1003" 
d="M219 1342l251 354h69l244 -354h-82l-195 294h-4l-204 -294h-79zM224 -291q137 0 201 172l35 104l-420 1143h95l369 -1036h4l362 1036h94l-452 -1255q-52 -129 -97 -170q-82 -75 -201 -73q-52 0 -104 8v79q44 -8 114 -8z" />
    <glyph glyph-name="Ydieresis" unicode="&#x178;" horiz-adv-x="1153" 
d="M681 1702q0 26 8 40q18 32 49 33q32 -1 50 -19t18 -44t-18 -46t-40 -20t-44 15t-23 41zM383 1667q-19 21 -19 50t23 44q23 14 46 14q23 -1 41 -19t17 -44q0 -26 -18 -46q-19 -20 -45 -20t-45 21zM622 0h-89v662l-512 820h106l447 -729h7l449 729h102l-510 -818v-664z" />
    <glyph glyph-name="Zacute" unicode="&#x179;" horiz-adv-x="1255" 
d="M104 0v71l926 1326v4h-897v81h1008v-71l-925 -1326v-6h929v-79h-1041zM514 1646l327 260h112l-343 -260h-96z" />
    <glyph glyph-name="zacute" unicode="&#x17a;" horiz-adv-x="1053" 
d="M137 0v67l679 980v4h-681v77h791v-71l-678 -976v-4h678v-77h-789zM539 1320h-71l250 318h100z" />
    <glyph glyph-name="Zdotaccent" unicode="&#x17b;" horiz-adv-x="1255" 
d="M549 1786q1 27 11 45q22 38 71 38t66 -43t-3 -78q-21 -35 -60 -35t-62 23t-23 50zM104 0v71l926 1326v4h-897v81h1008v-71l-925 -1326v-6h929v-79h-1041z" />
    <glyph glyph-name="zdotaccent" unicode="&#x17c;" horiz-adv-x="1053" 
d="M137 0v67l679 980v4h-681v77h791v-71l-678 -976v-4h678v-77h-789zM527 1359q-46 0 -67 38q-10 18 -10 37q0 20 6 34q20 48 62 47q42 0 65 -23t23 -61t-30 -55t-49 -17z" />
    <glyph glyph-name="Zcaron" unicode="&#x17d;" horiz-adv-x="1255" 
d="M308 1846h94l229 -179h4l227 179h91l-283 -227h-73zM104 0v71l926 1326v4h-897v81h1008v-71l-925 -1326v-6h929v-79h-1041z" />
    <glyph glyph-name="zcaron" unicode="&#x17e;" horiz-adv-x="1053" 
d="M137 0v67l679 980v4h-681v77h791v-71l-678 -976v-4h678v-77h-789zM244 1675h79l201 -293h7l195 293h82l-244 -353h-69z" />
    <glyph glyph-name="florin" unicode="&#x192;" horiz-adv-x="1140" 
d="M774 1434q-194 0 -237 -243l-37 -200h364l-17 -77h-362l-200 -1116h-91l201 1116h-278l14 77h279l40 218q24 139 108 223q83 83 216 83t202 -71t75 -158h-85q-4 64 -60 106t-132 42z" />
    <glyph glyph-name="Ohorn" unicode="&#x1a0;" horiz-adv-x="1413" 
d="M235 878v-279q0 -251 128 -401t350 -150t350 150t128 401v279q1 252 -129 404t-350 152q-144 0 -252 -69t-166 -195t-59 -292zM1280 870v-264q0 -296 -151 -468t-417 -172t-415 172t-149 468v266q0 296 150 470t416 173q94 1 232 -39t213 -40t117 43t41 119v111h84v-108
q0 -203 -184 -234q-55 -8 -118 7l-2 -7q183 -183 183 -497z" />
    <glyph glyph-name="ohorn" unicode="&#x1a1;" horiz-adv-x="1180" 
d="M962 639q0 203 -104 315t-268 112q-163 0 -267 -112t-104 -315v-154q0 -204 103 -314q104 -111 270 -111t268 110t102 315v154zM590 -19q-201 0 -330 129t-129 362v179q0 233 129 365t331 131q54 0 124 -14q137 -27 203 5q37 19 60 58t23 88v129h81v-123q0 -152 -97 -210
q-45 -27 -109 -29v-6q77 -59 126 -163t49 -231v-179q0 -233 -130 -362t-331 -129z" />
    <glyph glyph-name="Uhorn" unicode="&#x1af;" horiz-adv-x="1463" 
d="M714 -33q-248 -1 -390 147t-141 398v970h90v-970q-1 -214 115 -338t326 -124t325 124q114 124 114 338v970h90q83 0 128 44t44 120v113h81v-109q0 -114 -64 -180t-164 -65h-23v-893q1 -250 -141 -398t-390 -147z" />
    <glyph glyph-name="uhorn" unicode="&#x1b0;" horiz-adv-x="1267" 
d="M171 356v772h89v-755q0 -146 82 -229q82 -84 236 -84t252 116t98 269v683h92q83 0 128 44t45 120v121h83v-118q0 -119 -67 -180t-177 -62h-16v-1053h-88v221h-6q-31 -90 -121 -165t-254 -75t-270 95t-106 280z" />
    <glyph glyph-name="Acaron" unicode="&#x1cd;" horiz-adv-x="1250" 
d="M308 1846h94l227 -179h6l227 179h91l-285 -227h-71zM629 1372h-7l-281 -798h566zM142 0h-94l531 1482h93l531 -1482h-96l-172 500h-619z" />
    <glyph glyph-name="acaron" unicode="&#x1ce;" horiz-adv-x="1105" 
d="M268 1675h80l201 -293h7l195 293h82l-244 -353h-69zM493 60q144 0 246 91t102 230v171h-344q-147 0 -219 -62t-72 -157q0 -177 139 -242q65 -31 148 -31zM472 -19q-154 0 -258 91q-102 92 -102 240t99 233t284 86h346v164q0 181 -141 243q-66 28 -148 28q-154 0 -224 -64
t-78 -134h-88q6 117 106 198t279 81q179 -1 281 -87t102 -252v-808h-87v183h-4q-29 -71 -121 -137t-246 -65z" />
    <glyph glyph-name="Icaron" unicode="&#x1cf;" horiz-adv-x="536" 
d="M-52 1846h94l229 -179h4l227 179h91l-283 -227h-71zM312 0h-87v1482h87v-1482z" />
    <glyph glyph-name="icaron" unicode="&#x1d0;" horiz-adv-x="462" 
d="M187 0v1128h88v-1128h-88zM-54 1675h81l202 -293h6l196 293h81l-244 -353h-70z" />
    <glyph glyph-name="Ocaron" unicode="&#x1d1;" 
d="M148 606v266q0 296 150 470t416 173q266 0 416 -175t150 -470v-264q0 -296 -151 -468t-417 -172t-415 172t-149 468zM235 878v-279q0 -251 128 -401t350 -150t350 150t128 401v279q1 252 -129 404t-350 152q-144 0 -252 -69t-166 -195t-59 -292zM393 1846h94l227 -179h6
l227 179h92l-283 -227h-73z" />
    <glyph glyph-name="ocaron" unicode="&#x1d2;" horiz-adv-x="1180" 
d="M590 1066q-170 0 -271 -116t-100 -321v-134q1 -206 101 -320q100 -115 271 -115t271 114t100 321v134q0 205 -101 321t-271 116zM591 1147q133 1 237 -59t164 -176t59 -271v-158q0 -237 -127 -369t-334 -133q-207 0 -333 132t-126 370v158q0 237 126 371t334 135z
M306 1675h79l204 -293h4l198 293h81l-243 -353h-71z" />
    <glyph glyph-name="Ucaron" unicode="&#x1d3;" 
d="M273 1482v-970q-1 -214 115 -338t326 -124t325 124q114 124 114 338v970h92v-970q0 -250 -142 -398q-141 -148 -389 -148t-390 148t-141 398v970h90zM393 1846h96l227 -179h6l225 179h92l-283 -227h-71z" />
    <glyph glyph-name="ucaron" unicode="&#x1d4;" horiz-adv-x="1196" 
d="M1016 1128v-1128h-88v210h-4q-47 -129 -186 -192q-80 -36 -180 -37q-171 0 -279 99t-108 284v764h89v-747q0 -148 84 -233q84 -86 238 -86t251 114q96 114 95 276v676h88zM314 1675h79l204 -293h4l198 293h81l-243 -353h-71z" />
    <glyph glyph-name="Udieresismacron" unicode="&#x1d5;" 
d="M1007 1971h-587v60h587v-60zM273 1482v-970q-1 -214 115 -338t326 -124t325 124q114 124 114 338v970h92v-970q0 -250 -142 -398q-141 -148 -389 -148t-390 148t-141 398v970h90zM816 1703q0 25 8 39q18 32 49 33q32 -1 50 -19t18 -44t-18 -46t-40 -20t-36 11
q-31 21 -31 46zM502 1708q0 20 8 34q18 32 49 33q32 -1 51 -19t19 -44t-19 -46t-45 -20t-45 21q-18 21 -18 41z" />
    <glyph glyph-name="udieresismacron" unicode="&#x1d6;" horiz-adv-x="1196" 
d="M895 1661h-604v62h604v-62zM707 1354q-22 22 -22 60t27 53t53 15t47 -22t21 -53t-21 -53t-52 -22t-53 22zM368 1407q0 31 22 53t52 22t52 -22t22 -59t-27 -53t-52 -16t-47 22t-22 53zM1016 1128v-1128h-88v210h-4q-47 -129 -186 -192q-80 -36 -180 -37q-171 0 -279 99
t-108 284v764h89v-747q0 -148 84 -233q84 -86 238 -86t251 114q96 114 95 276v676h88z" />
    <glyph glyph-name="Udieresisacute" unicode="&#x1d7;" 
d="M273 1482v-970q-1 -214 115 -338t326 -124t325 124q114 124 114 338v970h92v-970q0 -250 -142 -398q-141 -148 -389 -148t-390 148t-141 398v970h90zM816 1703q0 25 8 39q18 32 49 33q32 -1 50 -19t18 -44t-18 -46t-40 -20t-36 11q-31 21 -31 46zM502 1708q0 20 8 34
q18 32 49 33q32 -1 51 -19t19 -44t-19 -46t-45 -20t-45 21q-18 21 -18 41zM599 1861l327 258h113l-344 -258h-96z" />
    <glyph glyph-name="udieresisacute" unicode="&#x1d8;" horiz-adv-x="1196" 
d="M707 1354q-22 22 -22 60t27 53t53 15t47 -22t21 -53t-21 -53t-52 -22t-53 22zM368 1407q0 31 22 53t52 22t52 -22t22 -59t-27 -53t-52 -16t-47 22t-22 53zM1016 1128v-1128h-88v210h-4q-47 -129 -186 -192q-80 -36 -180 -37q-171 0 -279 99t-108 284v764h89v-747
q0 -148 84 -233q84 -86 238 -86t251 114q96 114 95 276v676h88zM612 1582h-71l250 318h98z" />
    <glyph glyph-name="Udieresiscaron" unicode="&#x1d9;" 
d="M273 1482v-970q-1 -214 115 -338t326 -124t325 124q114 124 114 338v970h92v-970q0 -250 -142 -398q-141 -148 -389 -148t-390 148t-141 398v970h90zM393 2127h96l227 -179h6l225 179h92l-283 -227h-71zM816 1703q0 25 8 39q18 32 49 33q32 -1 50 -19t18 -44t-18 -46
t-40 -20t-36 11q-31 21 -31 46zM502 1708q0 20 8 34q18 32 49 33q32 -1 51 -19t19 -44t-19 -46t-45 -20t-45 21q-18 21 -18 41z" />
    <glyph glyph-name="udieresiscaron" unicode="&#x1da;" horiz-adv-x="1196" 
d="M707 1354q-22 22 -22 60t27 53t53 15t47 -22t21 -53t-21 -53t-52 -22t-53 22zM368 1407q0 31 22 53t52 22t52 -22t22 -59t-27 -53t-52 -16t-47 22t-22 53zM1016 1128v-1128h-88v210h-4q-47 -129 -186 -192q-80 -36 -180 -37q-171 0 -279 99t-108 284v764h89v-747
q0 -148 84 -233q84 -86 238 -86t251 114q96 114 95 276v676h88zM314 1946h79l204 -293h4l198 293h81l-243 -354h-71z" />
    <glyph glyph-name="Udieresisgrave" unicode="&#x1db;" 
d="M273 1482v-970q-1 -214 115 -338t326 -124t325 124q114 124 114 338v970h92v-970q0 -250 -142 -398q-141 -148 -389 -148t-390 148t-141 398v970h90zM816 1703q0 25 8 39q18 32 49 33q32 -1 50 -19t18 -44t-18 -46t-40 -20t-36 11q-31 21 -31 46zM502 1708q0 20 8 34
q18 32 49 33q32 -1 51 -19t19 -44t-19 -46t-45 -20t-45 21q-18 21 -18 41zM822 1863h-96l-345 258h114z" />
    <glyph glyph-name="udieresisgrave" unicode="&#x1dc;" horiz-adv-x="1196" 
d="M707 1354q-22 22 -22 60t27 53t53 15t47 -22t21 -53t-21 -53t-52 -22t-53 22zM368 1407q0 31 22 53t52 22t52 -22t22 -59t-27 -53t-52 -16t-47 22t-22 53zM1016 1128v-1128h-88v210h-4q-47 -129 -186 -192q-80 -36 -180 -37q-171 0 -279 99t-108 284v764h89v-747
q0 -148 84 -233q84 -86 238 -86t251 114q96 114 95 276v676h88zM703 1582h-68l-279 318h98z" />
    <glyph glyph-name="Adieresismacron" unicode="&#x1de;" horiz-adv-x="1250" 
d="M920 1971h-587v60h587v-60zM731 1708q0 20 8 34q18 32 49 33q32 -1 50 -19t18 -44t-18 -46t-44 -20t-45 21q-18 21 -18 41zM414 1713q0 25 19 44t46 19t45 -20q18 -18 17 -39q0 -21 -7 -35q-16 -33 -49 -35q-33 -1 -52 20t-19 46zM629 1372h-7l-281 -798h566zM142 0h-94
l531 1482h93l531 -1482h-96l-172 500h-619z" />
    <glyph glyph-name="adieresismacron" unicode="&#x1df;" horiz-adv-x="1105" 
d="M847 1661h-603v62h603v-62zM639 1407q0 31 22 53t52 22t52 -22t22 -53t-22 -53t-52 -22t-52 22t-22 53zM323 1407q0 31 21 53q22 22 52 22t59 -29t9 -75q-21 -46 -59 -46q-39 0 -61 22q-21 22 -21 53zM493 60q144 0 246 91t102 230v171h-344q-147 0 -219 -62t-72 -157
q0 -177 139 -242q65 -31 148 -31zM472 -19q-154 0 -258 91q-102 92 -102 240t99 233t284 86h346v164q0 181 -141 243q-66 28 -148 28q-154 0 -224 -64t-78 -134h-88q6 117 106 198t279 81q179 -1 281 -87t102 -252v-808h-87v183h-4q-29 -71 -121 -137t-246 -65z" />
    <glyph glyph-name="Adotmacron" unicode="&#x1e0;" horiz-adv-x="1250" 
d="M920 1971h-587v60h587v-60zM549 1786q1 27 11 45q22 38 71 38t66 -43t-3 -78q-21 -35 -61 -35t-62 23t-22 50zM629 1372h-7l-281 -798h566zM142 0h-94l531 1482h93l531 -1482h-96l-172 500h-619z" />
    <glyph glyph-name="adotmacron" unicode="&#x1e1;" horiz-adv-x="1105" 
d="M847 1661h-603v62h603v-62zM475 1436q0 33 22 56q23 23 55 23t56 -23q23 -23 23 -61q1 -38 -29 -55t-56 -17t-49 22q-22 22 -22 55zM493 60q144 0 246 91t102 230v171h-344q-147 0 -219 -62t-72 -157q0 -177 139 -242q65 -31 148 -31zM472 -19q-154 0 -258 91
q-102 92 -102 240t99 233t284 86h346v164q0 181 -141 243q-66 28 -148 28q-154 0 -224 -64t-78 -134h-88q6 117 106 198t279 81q179 -1 281 -87t102 -252v-808h-87v183h-4q-29 -71 -121 -137t-246 -65z" />
    <glyph glyph-name="AEmacron" unicode="&#x1e2;" horiz-adv-x="1985" 
d="M1740 1665h-587v60h587v-60zM1026 529h-591l-316 -529h-98l882 1482h966v-83h-753v-600h716v-81h-716v-637h753v-81h-843v529zM1026 606v793h-73l-474 -793h547z" />
    <glyph glyph-name="aemacron" unicode="&#x1e3;" horiz-adv-x="1848" 
d="M1220 1357h-604v65h604v-65zM202 312q0 -112 83 -182t219 -70t237 91q102 91 102 230v173h-343q-148 0 -223 -65t-75 -177zM1623 639q1 203 -91 315t-251 112t-255 -112t-96 -311v-14h693v10zM112 316q0 152 102 234t283 83h346v160q0 133 -87 203q-86 70 -218 70
t-205 -56t-85 -130h-88q8 111 109 189t278 78q123 1 224 -59t132 -168h7q46 110 145 169q100 58 228 58q268 0 376 -237q54 -119 54 -288v-68h-783v-71q0 -200 98 -311q98 -112 254 -112t238 67q84 67 97 148h92q-13 -101 -116 -198q-103 -96 -281 -96q-179 0 -287 77
q-107 77 -136 208h-9q-25 -120 -131 -202q-107 -82 -271 -82t-265 91t-101 243z" />
    <glyph glyph-name="Gcaron" unicode="&#x1e6;" horiz-adv-x="1375" 
d="M702 1434q-206 0 -336 -151t-129 -411v-248q0 -262 121 -419q122 -157 336 -157t332 102t119 283v202h-444v81h527v-283q0 -208 -138 -337t-380 -129q-187 0 -317 87q-245 165 -245 570v248q0 296 151 470t405 173q254 0 385 -128t135 -290h-88q-4 133 -116 235t-318 102
zM375 1846h93l227 -179h6l225 179h92l-283 -227h-71z" />
    <glyph glyph-name="gcaron" unicode="&#x1e7;" horiz-adv-x="1190" 
d="M214 651v-129q0 -189 100 -298q100 -110 260 -110t258 119q96 119 96 283v138q0 175 -99 293q-99 119 -255 119t-258 -108t-102 -307zM582 -312q158 0 253 83q94 83 93 221v279h-4q-22 -69 -82 -128q-113 -110 -292 -110t-302 129t-123 344v164q0 225 127 351t301 126
t267 -86q77 -68 106 -147h4v214h86v-1132q0 -179 -119 -284t-321 -105q-202 -1 -306 91t-112 210h92q6 -88 90 -154t242 -66zM312 1675h79l202 -293h6l196 293h81l-243 -353h-69z" />
    <glyph glyph-name="Kcaron" unicode="&#x1e8;" horiz-adv-x="1207" 
d="M279 1846h94l226 -179h7l227 179h91l-283 -227h-73zM296 0h-90v1482h90v-795h4l741 795h114l-608 -658l644 -824h-117l-593 762l-185 -194v-568z" />
    <glyph glyph-name="kcaron" unicode="&#x1e9;" horiz-adv-x="1082" 
d="M273 0h-86v1563h86v-997h6l603 577h111l-498 -481l519 -662h-111l-472 604l-158 -144v-460zM-56 2113h81l202 -294h4l198 294h81l-244 -354h-70z" />
    <glyph glyph-name="Oogonek" unicode="&#x1ea;" 
d="M710 -33q-264 -1 -413 171t-149 468v266q0 296 150 470t416 173q266 0 416 -175t150 -470v-264q0 -343 -225 -544q-83 -77 -130 -139q-47 -61 -47 -125t40 -98t96 -33q56 0 97 15v-67q-41 -23 -119 -23t-138 50q-59 50 -59 139q0 121 119 227l-2 2q-92 -43 -202 -43z
M235 878v-279q0 -251 128 -401t350 -150t350 150t128 401v279q1 252 -129 404t-350 152q-144 0 -252 -69t-166 -195t-59 -292z" />
    <glyph glyph-name="oogonek" unicode="&#x1eb;" horiz-adv-x="1180" 
d="M583 -19q-196 0 -324 129t-128 360v181q-1 155 61 269q123 226 399 227q198 0 329 -132t131 -364v-179q0 -246 -164 -401q-51 -52 -81 -83q-30 -32 -54 -80t-24 -91t18 -73q36 -62 124 -60q48 0 92 14v-66q-38 -23 -118 -23t-139 49q-59 50 -59 152t118 215l-4 6
q-65 -50 -177 -50zM962 639q0 203 -104 315t-268 112q-163 0 -267 -112t-104 -315v-154q0 -204 103 -314q104 -111 270 -111t268 110t102 315v154z" />
    <glyph glyph-name="Oogonekmacron" unicode="&#x1ec;" 
d="M1005 1665h-585v60h585v-60zM710 -33q-264 -1 -413 171t-149 468v266q0 296 150 470t416 173q266 0 416 -175t150 -470v-264q0 -343 -225 -544q-83 -77 -130 -139q-47 -61 -47 -125t40 -98t96 -33q56 0 97 15v-67q-41 -23 -119 -23t-138 50q-59 50 -59 139q0 121 119 227
l-2 2q-92 -43 -202 -43zM235 878v-279q0 -251 128 -401t350 -150t350 150t128 401v279q1 252 -129 404t-350 152q-144 0 -252 -69t-166 -195t-59 -292z" />
    <glyph glyph-name="oogonekmacron" unicode="&#x1ed;" horiz-adv-x="1180" 
d="M887 1357h-604v65h604v-65zM583 -19q-196 0 -324 129t-128 360v181q-1 155 61 269q123 226 399 227q198 0 329 -132t131 -364v-179q0 -246 -164 -401q-51 -52 -81 -83q-30 -32 -54 -80t-24 -91t18 -73q36 -62 124 -60q48 0 92 14v-66q-38 -23 -118 -23t-139 49
q-59 50 -59 152t118 215l-4 6q-65 -50 -177 -50zM962 639q0 203 -104 315t-268 112q-163 0 -267 -112t-104 -315v-154q0 -204 103 -314q104 -111 270 -111t268 110t102 315v154z" />
    <glyph glyph-name="Gacute" unicode="&#x1f4;" horiz-adv-x="1375" 
d="M702 1434q-206 0 -336 -151t-129 -411v-248q0 -262 121 -419q122 -157 336 -157t332 102t119 283v202h-444v81h527v-283q0 -208 -138 -337t-380 -129q-187 0 -317 87q-245 165 -245 570v248q0 296 151 470t405 173q254 0 385 -128t135 -290h-88q-4 133 -116 235t-318 102
zM579 1646l326 260h113l-344 -260h-95z" />
    <glyph glyph-name="gacute" unicode="&#x1f5;" horiz-adv-x="1190" 
d="M214 651v-129q0 -189 100 -298q100 -110 260 -110t258 119q96 119 96 283v138q0 175 -99 293q-99 119 -255 119t-258 -108t-102 -307zM582 -312q158 0 253 83q94 83 93 221v279h-4q-22 -69 -82 -128q-113 -110 -292 -110t-302 129t-123 344v164q0 225 127 351t301 126
t267 -86q77 -68 106 -147h4v214h86v-1132q0 -179 -119 -284t-321 -105q-202 -1 -306 91t-112 210h92q6 -88 90 -154t242 -66zM608 1320h-71l250 318h100z" />
    <glyph glyph-name="Ngrave" unicode="&#x1f8;" horiz-adv-x="1452" 
d="M296 0h-90v1482h94l851 -1326h4v1326h90v-1482h-92l-853 1326h-4v-1326zM835 1650h-96l-346 259h115z" />
    <glyph glyph-name="ngrave" unicode="&#x1f9;" horiz-adv-x="1198" 
d="M181 0v1128h87v-210h5q33 94 127 162t252 67q158 0 267 -106t109 -296v-745h-89v724q-1 152 -83 246t-242 94t-252 -110q-94 -110 -94 -271v-683h-87zM703 1320h-68l-279 318h98z" />
    <glyph glyph-name="Aringacute" unicode="&#x1fa;" horiz-adv-x="1250" 
d="M437 1635q1 69 55 123t131 55l312 247h116l-345 -264q28 -13 52 -37q54 -53 54 -123t-36 -120t-91 -67l518 -1449h-96l-172 500h-619l-174 -500h-94l520 1449q-58 17 -95 66q-36 50 -36 120zM907 574l-278 798h-7l-281 -798h566zM756 1626q0 54 -38 92t-90 39
q-54 -1 -92 -39t-39 -91q0 -53 39 -91q38 -38 90 -37q52 0 91 37q39 36 39 90z" />
    <glyph glyph-name="aringacute" unicode="&#x1fb;" horiz-adv-x="1105" 
d="M431 1466q0 -40 37 -78q36 -38 90 -37q54 0 91 37q37 36 37 90t-36 91q-38 37 -78 37t-63 -10q-78 -32 -78 -130zM745 1479q0 -77 -54 -133t-133 -56t-134 56t-56 133q0 78 56 131t136 53q38 0 71 -13l243 311h102l-295 -342q5 -5 10 -9q54 -53 54 -131zM493 60
q144 0 246 91t102 230v171h-344q-147 0 -219 -62t-72 -157q0 -177 139 -242q65 -31 148 -31zM472 -19q-154 0 -258 91q-102 92 -102 240t99 233t284 86h346v164q0 181 -141 243q-66 28 -148 28q-154 0 -224 -64t-78 -134h-88q6 117 106 198t279 81q179 -1 281 -87t102 -252
v-808h-87v183h-4q-29 -71 -121 -137t-246 -65z" />
    <glyph glyph-name="AEacute" unicode="&#x1fc;" horiz-adv-x="1985" 
d="M1026 529h-591l-316 -529h-98l882 1482h966v-83h-753v-600h716v-81h-716v-637h753v-81h-843v529zM1026 606v793h-73l-474 -793h547zM1334 1646l325 260h114l-345 -260h-94z" />
    <glyph glyph-name="aeacute" unicode="&#x1fd;" horiz-adv-x="1848" 
d="M202 312q0 -112 83 -182t219 -70t237 91q102 91 102 230v173h-343q-148 0 -223 -65t-75 -177zM1623 639q1 203 -91 315t-251 112t-255 -112t-96 -311v-14h693v10zM112 316q0 152 102 234t283 83h346v160q0 133 -87 203q-86 70 -218 70t-205 -56t-85 -130h-88
q8 111 109 189t278 78q123 1 224 -59t132 -168h7q46 110 145 169q100 58 228 58q268 0 376 -237q54 -119 54 -288v-68h-783v-71q0 -200 98 -311q98 -112 254 -112t238 67q84 67 97 148h92q-13 -101 -116 -198q-103 -96 -281 -96q-179 0 -287 77q-107 77 -136 208h-9
q-25 -120 -131 -202q-107 -82 -271 -82t-265 91t-101 243zM937 1320h-71l250 318h97z" />
    <glyph glyph-name="Oslashacute" unicode="&#x1fe;" 
d="M599 1646l325 260h115l-346 -260h-94zM712 48q223 0 351 150t128 401v279q0 175 -65 306l-797 -938q129 -198 383 -198zM235 599q0 -164 56 -289l798 937q-131 187 -363 187t-362 -152q-129 -152 -129 -404v-279zM1280 608q0 -296 -150 -468t-430 -173q-280 0 -432 208
l-120 -144l-56 44l137 160q-81 154 -81 373v262q0 298 150 472t424 173q274 0 425 -198l129 152l56 -39l-144 -171q92 -160 92 -389v-262z" />
    <glyph glyph-name="oslashacute" unicode="&#x1ff;" horiz-adv-x="1180" 
d="M601 1320h-70l252 318h97zM588 -19q-203 0 -326 133l-116 -135l-54 42l124 146q-85 125 -85 305v179q0 233 129 365t334 131q205 0 330 -146l137 156l55 -41l-146 -167q81 -125 81 -298v-179q0 -233 -130 -362t-333 -129zM219 477q0 -144 54 -240l599 700
q-100 131 -272 131t-277 -114q-104 -114 -104 -315v-162zM591 60q228 0 324 191q49 97 49 234v162q0 135 -50 231l-600 -699q100 -119 277 -119z" />
    <glyph glyph-name="Adblgrave" unicode="&#x200;" horiz-adv-x="1250" 
d="M549 1650h-89l-350 261h109zM843 1650h-90l-349 261h108zM629 1372h-7l-281 -798h566zM142 0h-94l531 1482h93l531 -1482h-96l-172 500h-619z" />
    <glyph glyph-name="adblgrave" unicode="&#x201;" horiz-adv-x="1105" 
d="M649 1317l-283 329h92l258 -329h-67zM412 1317l-283 329h92l258 -329h-67zM493 60q144 0 246 91t102 230v171h-344q-147 0 -219 -62t-72 -157q0 -177 139 -242q65 -31 148 -31zM472 -19q-154 0 -258 91q-102 92 -102 240t99 233t284 86h346v164q0 181 -141 243
q-66 28 -148 28q-154 0 -224 -64t-78 -134h-88q6 117 106 198t279 81q179 -1 281 -87t102 -252v-808h-87v183h-4q-29 -71 -121 -137t-246 -65z" />
    <glyph glyph-name="Ainvertedbreve" unicode="&#x202;" horiz-adv-x="1250" 
d="M625 1840q-103 0 -164 -54t-61 -140h-73q0 108 78 184q77 76 221 76t219 -76t75 -184h-75q0 87 -58 141q-59 53 -162 53zM629 1372h-7l-281 -798h566zM142 0h-94l531 1482h93l531 -1482h-96l-172 500h-619z" />
    <glyph glyph-name="ainvertedbreve" unicode="&#x203;" horiz-adv-x="1105" 
d="M260 1326q0 106 77 184t215 78t212 -79q73 -79 73 -183h-73q0 87 -55 141t-157 54t-160 -55t-59 -140h-73zM493 60q144 0 246 91t102 230v171h-344q-147 0 -219 -62t-72 -157q0 -177 139 -242q65 -31 148 -31zM472 -19q-154 0 -258 91q-102 92 -102 240t99 233t284 86
h346v164q0 181 -141 243q-66 28 -148 28q-154 0 -224 -64t-78 -134h-88q6 117 106 198t279 81q179 -1 281 -87t102 -252v-808h-87v183h-4q-29 -71 -121 -137t-246 -65z" />
    <glyph glyph-name="Edblgrave" unicode="&#x204;" horiz-adv-x="1167" 
d="M1053 81v-81h-847v1482h847v-83h-757v-600h720v-81h-720v-637h757zM552 1650h-90l-352 261h111zM843 1650h-87l-352 261h110z" />
    <glyph glyph-name="edblgrave" unicode="&#x205;" horiz-adv-x="1138" 
d="M666 1317l-283 329h94l256 -329h-67zM429 1317l-283 329h93l256 -329h-66zM221 633h701v4q0 202 -95 315q-95 114 -256 114t-256 -114t-94 -315v-4zM133 497v115q0 256 117 395q118 139 322 139t321 -138q117 -140 116 -394v-58h-788v-59q-1 -205 95 -321t269 -116
q113 0 200 51q70 44 101 113q14 30 17 61h90q-8 -107 -109 -206q-100 -98 -308 -98q-207 1 -325 137t-118 379z" />
    <glyph glyph-name="Einvertedbreve" unicode="&#x206;" horiz-adv-x="1167" 
d="M847 1646q0 86 -58 140t-161 54q-102 0 -164 -54t-62 -140h-73q0 108 77 184t221 76q145 0 219 -76t74 -184h-73zM1053 81v-81h-847v1482h847v-83h-757v-600h720v-81h-720v-637h757z" />
    <glyph glyph-name="einvertedbreve" unicode="&#x207;" horiz-adv-x="1138" 
d="M277 1326q0 106 77 184t215 78q139 0 213 -79t71 -183h-73q0 87 -55 141t-155 54q-153 0 -204 -118q-15 -35 -14 -77h-75zM221 633h701v4q0 202 -95 315q-95 114 -256 114t-256 -114t-94 -315v-4zM133 497v115q0 256 117 395q118 139 322 139t321 -138q117 -140 116 -394
v-58h-788v-59q-1 -205 95 -321t269 -116q113 0 200 51q70 44 101 113q14 30 17 61h90q-8 -107 -109 -206q-100 -98 -308 -98q-207 1 -325 137t-118 379z" />
    <glyph glyph-name="Idblgrave" unicode="&#x208;" horiz-adv-x="536" 
d="M191 1650h-89l-350 261h109zM483 1650h-88l-351 261h110zM312 0h-87v1482h87v-1482z" />
    <glyph glyph-name="idblgrave" unicode="&#x209;" horiz-adv-x="462" 
d="M329 1317l-285 329h93l256 -329h-64zM89 1317l-283 329h94l256 -329h-67zM187 0v1128h88v-1128h-88z" />
    <glyph glyph-name="Iinvertedbreve" unicode="&#x20a;" horiz-adv-x="536" 
d="M267 1840q-103 0 -164 -54t-61 -140h-73q0 108 77 184q78 76 222 76t219 -76t75 -184h-75q0 87 -58 141q-59 53 -162 53zM312 0h-87v1482h87v-1482z" />
    <glyph glyph-name="iinvertedbreve" unicode="&#x20b;" horiz-adv-x="462" 
d="M-60 1326q0 106 76 184t214 78t212 -79t74 -183h-73q0 87 -55 141t-157 54t-160 -55t-59 -140h-72zM187 0v1128h88v-1128h-88z" />
    <glyph glyph-name="Odblgrave" unicode="&#x20c;" 
d="M148 606v266q0 296 150 470t416 173q266 0 416 -175t150 -470v-264q0 -296 -151 -468t-417 -172t-415 172t-149 468zM235 878v-279q0 -251 128 -401t350 -150t350 150t128 401v279q1 252 -129 404t-350 152q-144 0 -252 -69t-166 -195t-59 -292zM637 1650h-90l-351 261
h110zM928 1650h-87l-352 261h108z" />
    <glyph glyph-name="odblgrave" unicode="&#x20d;" horiz-adv-x="1180" 
d="M687 1317l-283 329h93l256 -329h-66zM450 1317l-283 329h93l256 -329h-66zM590 1066q-170 0 -271 -116t-100 -321v-134q1 -206 101 -320q100 -115 271 -115t271 114t100 321v134q0 205 -101 321t-271 116zM591 1147q133 1 237 -59t164 -176t59 -271v-158
q0 -237 -127 -369t-334 -133q-207 0 -333 132t-126 370v158q0 237 126 371t334 135z" />
    <glyph glyph-name="Oinvertedbreve" unicode="&#x20e;" 
d="M148 606v266q0 296 150 470t416 173q266 0 416 -175t150 -470v-264q0 -296 -151 -468t-417 -172t-415 172t-149 468zM235 878v-279q0 -251 128 -401t350 -150t350 150t128 401v279q1 252 -129 404t-350 152q-144 0 -252 -69t-166 -195t-59 -292zM932 1646q0 118 -102 169
q-50 25 -136 25t-148 -54t-61 -140h-73q0 108 78 184t222 76t218 -76t75 -184h-73z" />
    <glyph glyph-name="oinvertedbreve" unicode="&#x20f;" horiz-adv-x="1180" 
d="M298 1326q0 106 77 184t215 78t212 -79t72 -183h-73q0 87 -55 141t-156 54t-160 -55t-60 -140h-72zM590 1066q-170 0 -271 -116t-100 -321v-134q1 -206 101 -320q100 -115 271 -115t271 114t100 321v134q0 205 -101 321t-271 116zM591 1147q133 1 237 -59t164 -176
t59 -271v-158q0 -237 -127 -369t-334 -133q-207 0 -333 132t-126 370v158q0 237 126 371t334 135z" />
    <glyph glyph-name="Rdblgrave" unicode="&#x210;" horiz-adv-x="1292" 
d="M296 726h383q173 0 273 90t99 246q0 157 -100 248t-270 91h-385v-675zM693 1482q208 0 329 -116t121 -290q1 -174 -87 -276t-230 -136l342 -664h-104l-329 647h-439v-647h-90v1482h487zM560 1650h-90l-349 261h108zM851 1650h-87l-352 261h110z" />
    <glyph glyph-name="rdblgrave" unicode="&#x211;" horiz-adv-x="726" 
d="M479 1317l-283 329h93l256 -329h-66zM241 1317l-283 329h94l256 -329h-67zM187 0v1128h88v-208h4q21 87 101 156t221 69q40 0 92 -9v-83q-37 8 -100 8q-139 0 -229 -93q-89 -94 -89 -273v-695h-88z" />
    <glyph glyph-name="Rinvertedbreve" unicode="&#x212;" horiz-adv-x="1292" 
d="M855 1646q0 86 -58 140t-161 54q-102 0 -164 -54t-62 -140h-73q0 108 77 184t221 76q143 0 219 -76t76 -184h-75zM296 726h383q173 0 273 90t99 246q0 157 -100 248t-270 91h-385v-675zM693 1482q208 0 329 -116t121 -290q1 -174 -87 -276t-230 -136l342 -664h-104
l-329 647h-439v-647h-90v1482h487z" />
    <glyph glyph-name="rinvertedbreve" unicode="&#x213;" horiz-adv-x="726" 
d="M89 1326q-1 106 77 184t216 78t212 -79t72 -183h-73q0 87 -55 141t-156 54t-159 -55t-59 -140h-75zM187 0v1128h88v-208h4q21 87 101 156t221 69q40 0 92 -9v-83q-37 8 -100 8q-139 0 -229 -93q-89 -94 -89 -273v-695h-88z" />
    <glyph glyph-name="Udblgrave" unicode="&#x214;" 
d="M273 1482v-970q-1 -214 115 -338t326 -124t325 124q114 124 114 338v970h92v-970q0 -250 -142 -398q-141 -148 -389 -148t-390 148t-141 398v970h90zM637 1650h-90l-349 261h108zM930 1650h-89l-350 261h108z" />
    <glyph glyph-name="udblgrave" unicode="&#x215;" horiz-adv-x="1196" 
d="M695 1317l-283 329h94l256 -329h-67zM458 1317l-283 329h93l256 -329h-66zM1016 1128v-1128h-88v210h-4q-47 -129 -186 -192q-80 -36 -180 -37q-171 0 -279 99t-108 284v764h89v-747q0 -148 84 -233q84 -86 238 -86t251 114q96 114 95 276v676h88z" />
    <glyph glyph-name="Uinvertedbreve" unicode="&#x216;" 
d="M932 1646q0 119 -100 169q-50 25 -136 25t-148 -54t-61 -140h-73q0 108 78 184t222 76t218 -76t75 -184h-75zM273 1482v-970q-1 -214 115 -338t326 -124t325 124q114 124 114 338v970h92v-970q0 -250 -142 -398q-141 -148 -389 -148t-390 148t-141 398v970h90z" />
    <glyph glyph-name="uinvertedbreve" unicode="&#x217;" horiz-adv-x="1196" 
d="M308 1326q0 106 76 184t214 78t212 -79t75 -183h-75q0 87 -54 141t-156 54t-161 -55q-58 -55 -58 -140h-73zM1016 1128v-1128h-88v210h-4q-47 -129 -186 -192q-80 -36 -180 -37q-171 0 -279 99t-108 284v764h89v-747q0 -148 84 -233q84 -86 238 -86t251 114
q96 114 95 276v676h88z" />
    <glyph glyph-name="Scommaaccent" unicode="&#x218;" horiz-adv-x="1242" 
d="M547 -524h-66l93 366h96zM1036 373q0 131 -83 199t-262 117l-194 52q-339 92 -339 377q0 181 131 290t343 109t340 -106q127 -106 129 -268h-92q-6 117 -101 204q-96 87 -274 87t-281 -85t-103 -237t128 -226q61 -36 159 -62l187 -52q197 -52 300 -137q104 -85 104 -266
t-143 -291t-371 -111q-133 -1 -236 39q-172 66 -241 234q-27 68 -29 137h92q4 -115 103 -222t327 -107q116 0 210 42q96 42 146 115q50 74 50 168z" />
    <glyph glyph-name="scommaaccent" unicode="&#x219;" horiz-adv-x="1040" 
d="M454 -524h-67l94 366h96zM142 848q0 140 105 219q105 80 271 80q100 0 178 -29q134 -50 182 -172q21 -51 21 -101h-85q0 68 -63 143q-71 82 -255 82q-102 0 -185 -58q-82 -58 -82 -160t73 -151q74 -50 192 -79t162 -41q44 -13 103 -39t89 -55q74 -72 74 -183
q0 -156 -118 -239t-294 -84q-104 0 -186 28t-128 74q-94 94 -94 206h87q4 -81 79 -156t229 -75t245 62t91 173q0 158 -227 213q-33 8 -100 25q-185 46 -275 111q-89 66 -89 206z" />
    <glyph glyph-name="Tcommaaccent" unicode="&#x21a;" horiz-adv-x="1115" 
d="M604 0h-88v1401h-501v81h1086v-81h-497v-1401zM491 -524h-66l93 366h96z" />
    <glyph glyph-name="tcommaaccent" unicode="&#x21b;" horiz-adv-x="722" 
d="M244 1128v275h87v-275h302v-77h-302v-799q0 -100 49 -140q48 -40 138 -40t129 7v-73q-46 -8 -114 -8q-164 0 -227 59q-62 59 -62 209v785h-213v77h213zM362 -524h-66l93 366h96z" />
    <glyph glyph-name="Hcaron" unicode="&#x21e;" horiz-adv-x="1452" 
d="M408 1846h94l226 -179h7l227 179h91l-283 -227h-73zM1245 0h-90v737h-859v-737h-90v1482h90v-664h859v664h90v-1482z" />
    <glyph glyph-name="hcaron" unicode="&#x21f;" horiz-adv-x="1213" 
d="M-56 2113h81l202 -294h4l198 294h81l-244 -354h-70zM187 0v1563h86v-645h4q31 94 124 162t254 67q161 1 271 -111t110 -303v-733h-89v720q0 152 -83 248q-84 96 -242 96t-254 -110t-95 -271v-683h-86z" />
    <glyph glyph-name="Adotaccent" unicode="&#x226;" horiz-adv-x="1250" 
d="M549 1786q1 27 11 45q22 38 71 38t66 -43t-3 -78q-21 -35 -61 -35t-62 23t-22 50zM629 1372h-7l-281 -798h566zM142 0h-94l531 1482h93l531 -1482h-96l-172 500h-619z" />
    <glyph glyph-name="adotaccent" unicode="&#x227;" horiz-adv-x="1105" 
d="M475 1436q0 33 22 56q23 23 55 23t56 -23q23 -23 23 -61q1 -38 -29 -55t-56 -17t-49 22q-22 22 -22 55zM493 60q144 0 246 91t102 230v171h-344q-147 0 -219 -62t-72 -157q0 -177 139 -242q65 -31 148 -31zM472 -19q-154 0 -258 91q-102 92 -102 240t99 233t284 86h346
v164q0 181 -141 243q-66 28 -148 28q-154 0 -224 -64t-78 -134h-88q6 117 106 198t279 81q179 -1 281 -87t102 -252v-808h-87v183h-4q-29 -71 -121 -137t-246 -65z" />
    <glyph glyph-name="Ecedilla" unicode="&#x228;" horiz-adv-x="1167" 
d="M576 -433q74 0 124 29t49 86q0 108 -166 108h-56v52l68 158h-389v1482h847v-83h-757v-600h720v-81h-720v-637h757v-81h-385l-60 -146q96 0 160 -42t65 -130q0 -88 -72 -135q-73 -47 -163 -48t-146 18v69q50 -19 124 -19z" />
    <glyph glyph-name="ecedilla" unicode="&#x229;" horiz-adv-x="1138" 
d="M542 -437q76 0 126 29q48 29 48 85q0 106 -167 107h-54v52l61 145q-200 9 -311 145t-112 371v115q0 256 117 395q118 139 322 139t321 -138q117 -140 116 -394v-58h-788v-59q-1 -205 95 -321t269 -116q113 0 200 51q70 44 101 113q14 30 17 61h90q-10 -106 -103 -198
t-259 -106l-57 -133q96 0 161 -42t65 -129t-72 -134t-162 -49t-146 17v69q46 -17 122 -17zM221 633h701v4q0 202 -95 315q-95 114 -256 114t-256 -114t-94 -315v-4z" />
    <glyph glyph-name="Odieresismacron" unicode="&#x22a;" 
d="M1005 1971h-585v60h585v-60zM148 606v266q0 296 150 470t416 173q266 0 416 -175t150 -470v-264q0 -296 -151 -468t-417 -172t-415 172t-149 468zM235 878v-279q0 -251 128 -401t350 -150t350 150t128 401v279q1 252 -129 404t-350 152q-144 0 -252 -69t-166 -195
t-59 -292zM816 1703q0 25 8 39q18 32 49 33q32 -1 50 -19t18 -44t-18 -46t-40 -20t-36 11q-31 21 -31 46zM502 1708q0 20 8 34q18 32 49 33q32 -1 51 -19t19 -44t-19 -46t-45 -20t-45 21q-18 21 -18 41z" />
    <glyph glyph-name="odieresismacron" unicode="&#x22b;" horiz-adv-x="1180" 
d="M887 1661h-604v62h604v-62zM590 1066q-170 0 -271 -116t-100 -321v-134q1 -206 101 -320q100 -115 271 -115t271 114t100 321v134q0 205 -101 321t-271 116zM591 1147q133 1 237 -59t164 -176t59 -271v-158q0 -237 -127 -369t-334 -133q-207 0 -333 132t-126 370v158
q0 237 126 371t334 135zM698 1354q-22 22 -22 59t38 60q18 9 42 9t46 -22t22 -53t-22 -53t-52 -22t-52 22zM360 1407q0 31 22 53t52 22t52 -22t22 -53t-22 -53t-52 -22t-52 22t-22 53z" />
    <glyph glyph-name="Otildemacron" unicode="&#x22c;" 
d="M1005 1971h-585v60h585v-60zM564 1782q-96 0 -96 -140h-64q0 94 41 148q42 54 121 54q46 0 80 -22t78 -72q29 -37 52 -53q23 -15 63 -15q39 0 69 42t33 108h62q0 -122 -82 -180q-39 -28 -89 -28t-85 18q-34 19 -71 61q-57 79 -112 79zM148 606v266q0 296 150 470t416 173
q266 0 416 -175t150 -470v-264q0 -296 -151 -468t-417 -172t-415 172t-149 468zM235 878v-279q0 -251 128 -401t350 -150t350 150t128 401v279q1 252 -129 404t-350 152q-144 0 -252 -69t-166 -195t-59 -292z" />
    <glyph glyph-name="otildemacron" unicode="&#x22d;" horiz-adv-x="1180" 
d="M590 1066q-170 0 -271 -116t-100 -321v-134q1 -206 101 -320q100 -115 271 -115t271 114t100 321v134q0 205 -101 321t-271 116zM591 1147q133 1 237 -59t164 -176t59 -271v-158q0 -237 -127 -369t-334 -133q-207 0 -333 132t-126 370v158q0 237 126 371t334 135z
M887 1661h-604v62h604v-62zM420 1486q-108 0 -108 -160h-71q0 108 47 168t135 61q55 0 93 -25t77 -74t67 -66q28 -16 72 -16t79 46q34 47 36 122h69q0 -100 -53 -168t-125 -67q-72 0 -110 22t-75 67q-35 46 -65 68t-68 22z" />
    <glyph glyph-name="Odotaccent" unicode="&#x22e;" 
d="M148 606v266q0 296 150 470t416 173q266 0 416 -175t150 -470v-264q0 -296 -151 -468t-417 -172t-415 172t-149 468zM235 878v-279q0 -251 128 -401t350 -150t350 150t128 401v279q1 252 -129 404t-350 152q-144 0 -252 -69t-166 -195t-59 -292zM635 1791q0 32 23 55
t56 23t55 -23t22 -50q-1 -27 -11 -45q-22 -38 -60 -38q-39 0 -62 23t-23 55z" />
    <glyph glyph-name="odotaccent" unicode="&#x22f;" horiz-adv-x="1180" 
d="M590 1066q-170 0 -271 -116t-100 -321v-134q1 -206 101 -320q100 -115 271 -115t271 114t100 321v134q0 205 -101 321t-271 116zM591 1147q133 1 237 -59t164 -176t59 -271v-158q0 -237 -127 -369t-334 -133q-207 0 -333 132t-126 370v158q0 237 126 371t334 135z
M536 1381q-22 22 -22 53t20 56t49 25t47 -10q38 -21 38 -62q0 -40 -23 -62t-55 -22t-54 22z" />
    <glyph glyph-name="Odotaccentmacron" unicode="&#x230;" 
d="M1005 1971h-585v60h585v-60zM148 606v266q0 296 150 470t416 173q266 0 416 -175t150 -470v-264q0 -296 -151 -468t-417 -172t-415 172t-149 468zM235 878v-279q0 -251 128 -401t350 -150t350 150t128 401v279q1 252 -129 404t-350 152q-144 0 -252 -69t-166 -195
t-59 -292zM635 1791q0 32 23 55t56 23t55 -23t22 -50q-1 -27 -11 -45q-22 -38 -60 -38q-39 0 -62 23t-23 55z" />
    <glyph glyph-name="odotaccentmacron" unicode="&#x231;" horiz-adv-x="1180" 
d="M590 1066q-170 0 -271 -116t-100 -321v-134q1 -206 101 -320q100 -115 271 -115t271 114t100 321v134q0 205 -101 321t-271 116zM591 1147q133 1 237 -59t164 -176t59 -271v-158q0 -237 -127 -369t-334 -133q-207 0 -333 132t-126 370v158q0 237 126 371t334 135z
M887 1661h-604v62h604v-62zM536 1381q-22 22 -22 53t20 56t49 25t47 -10q38 -21 38 -62q0 -40 -23 -62t-55 -22t-54 22z" />
    <glyph glyph-name="Ymacron" unicode="&#x232;" horiz-adv-x="1153" 
d="M870 1665h-585v60h585v-60zM622 0h-89v662l-512 820h106l447 -729h7l449 729h102l-510 -818v-664z" />
    <glyph glyph-name="ymacron" unicode="&#x233;" horiz-adv-x="1003" 
d="M797 1357h-603v65h603v-65zM224 -291q137 0 201 172l35 104l-420 1143h95l369 -1036h4l362 1036h94l-452 -1255q-52 -129 -97 -170q-82 -75 -201 -73q-52 0 -104 8v79q44 -8 114 -8z" />
    <glyph glyph-name="circumflex" unicode="&#x2c6;" horiz-adv-x="876" 
d="M164 1328l252 354h69l246 -354h-84l-195 293h-5l-201 -293h-82z" />
    <glyph glyph-name="caron" unicode="&#x2c7;" horiz-adv-x="876" 
d="M148 1707h79l202 -296h6l196 296h81l-244 -354h-68z" />
    <glyph glyph-name="breve" unicode="&#x2d8;" horiz-adv-x="876" 
d="M150 1621h73q0 -87 58 -142t160 -55t157 55t56 142h72q0 -106 -74 -185t-209 -79q-95 0 -163 40q-130 76 -130 224z" />
    <glyph glyph-name="dotaccent" unicode="&#x2d9;" horiz-adv-x="876" 
d="M366 1504q0 34 24 59t58 25t60 -25q25 -25 25 -53q1 -28 -11 -48q-23 -40 -65 -40t-67 23q-24 25 -24 59z" />
    <glyph glyph-name="ring" unicode="&#x2da;" horiz-adv-x="876" 
d="M318 1506q0 -44 39 -82t91 -38t91 39q37 39 37 91t-36 90q-38 38 -82 38t-74 -16q-66 -38 -66 -122zM635 1516q1 -78 -55 -133t-134 -55t-133 54t-55 133q0 121 116 171q34 15 73 14q77 0 133 -53t55 -131z" />
    <glyph glyph-name="ogonek" unicode="&#x2db;" horiz-adv-x="876" 
d="M281 -216q0 88 56 153t108 113l75 -19q-158 -112 -158 -231q0 -56 32 -86t86 -30t90 12v-69q-37 -19 -88 -19q-146 1 -186 99q-15 33 -15 77z" />
    <glyph glyph-name="tilde" unicode="&#x2dc;" horiz-adv-x="876" 
d="M85 1367q0 109 47 169t134 60q93 0 169 -98q39 -50 67 -66t64 -17q75 0 107 82q16 39 16 89h71q0 -102 -54 -169t-126 -67t-111 22q-39 20 -66 54t-48 59q-32 40 -91 43q-105 0 -108 -161h-71z" />
    <glyph glyph-name="hungarumlaut" unicode="&#x2dd;" horiz-adv-x="876" 
d="M450 1317h-67l256 329h94zM212 1317h-66l258 329h91z" />
    <glyph glyph-name="gravecmb" unicode="&#x300;" horiz-adv-x="0" 
d="M104 1320h-69l-279 318h98z" />
    <glyph glyph-name="acutecmb" unicode="&#x301;" horiz-adv-x="0" 
d="M12 1320h-70l249 318h98z" />
    <glyph glyph-name="circumflexcmb" unicode="&#x302;" horiz-adv-x="0" 
d="M-283 1342l252 354h68l246 -354h-83l-196 294h-4l-202 -294h-81z" />
    <glyph glyph-name="tildecmb" unicode="&#x303;" horiz-adv-x="0" 
d="M-171 1486q-106 0 -106 -160h-73q0 108 48 168t118 60t108 -24q39 -25 78 -74q38 -49 66 -66t69 -16t62 23q57 59 57 145h71q0 -100 -54 -168t-126 -67q-115 0 -173 72q-31 38 -44 52l-21 21q-34 34 -80 34z" />
    <glyph glyph-name="macroncmb" unicode="&#x304;" horiz-adv-x="0" 
d="M296 1357h-604v65h604v-65z" />
    <glyph glyph-name="brevecmb" unicode="&#x306;" horiz-adv-x="0" 
d="M-298 1563h73q0 -87 58 -143t144 -55q87 0 135 26q94 51 94 172h73q0 -106 -74 -185t-211 -79t-215 78q-77 78 -77 186z" />
    <glyph glyph-name="dotaccentcmb" unicode="&#x307;" horiz-adv-x="0" 
d="M-77 1436q0 33 22 56t55 23t56 -23t23 -62t-29 -55t-56 -16t-49 22t-22 55z" />
    <glyph glyph-name="dieresiscmb" unicode="&#x308;" horiz-adv-x="0" 
d="M85 1407q0 31 22 53t53 22t53 -22t22 -53t-22 -53t-53 -22t-53 22t-22 53zM-229 1407q0 31 21 53t52 22t52 -22t21 -53t-22 -53t-52 -22t-51 22t-21 53z" />
    <glyph glyph-name="hookabovecmb" unicode="&#x309;" horiz-adv-x="0" 
d="M-10 1638q80 0 134 -45t55 -119q0 -98 -121 -175l-43 54q89 56 89 118q0 44 -35 71t-93 27t-103 -27v69q37 27 117 27z" />
    <glyph glyph-name="ringcmb" unicode="&#x30a;" horiz-adv-x="0" 
d="M-129 1470q0 -44 38 -82q39 -37 91 -37t91 37q39 36 39 90t-38 91q-37 37 -82 37t-75 -16q-64 -37 -64 -120zM187 1479q0 -77 -55 -133t-133 -56t-133 56t-55 133q0 78 55 131t133 53t133 -53t55 -131z" />
    <glyph glyph-name="hungarumlautcmb" unicode="&#x30b;" horiz-adv-x="0" 
d="M133 1320h-66l258 328h91zM-104 1320h-67l258 328h92z" />
    <glyph glyph-name="caroncmb" unicode="&#x30c;" horiz-adv-x="0" 
d="M-285 1675h81l202 -293h6l196 293h81l-244 -353h-70z" />
    <glyph glyph-name="dblgravecmb" unicode="&#x30f;" horiz-adv-x="0" 
d="M98 1317l-285 329h93l258 -329h-66zM-142 1317l-283 329h94l256 -329h-67z" />
    <glyph glyph-name="invertedbrevecmb" unicode="&#x311;" horiz-adv-x="0" 
d="M-291 1326q0 106 76 184t214 78t212 -79t74 -183h-73q0 87 -55 141t-157 54t-160 -55t-59 -140h-72z" />
    <glyph glyph-name="horncmb" unicode="&#x31b;" horiz-adv-x="0" 
d="M221 1299v129h83v-127q0 -121 -67 -184t-177 -64q-48 0 -60 8v84q10 -13 70 -13t106 45q45 45 45 122z" />
    <glyph glyph-name="dotbelowcmb" unicode="&#x323;" horiz-adv-x="0" 
d="M-77 -314q0 33 23 56t56 23t56 -23t23 -50t-10 -45q-21 -38 -62 -38q-40 0 -63 22t-23 55z" />
    <glyph glyph-name="dieresisbelowcmb" unicode="&#x324;" horiz-adv-x="0" 
d="M85 -289q0 31 22 53t53 22t53 -22t22 -53t-22 -53t-53 -22t-53 22t-22 53zM-229 -289q0 31 21 53t52 22t52 -22t21 -53t-22 -53t-52 -22t-51 22t-21 53z" />
    <glyph glyph-name="ringbelowcmb" unicode="&#x325;" horiz-adv-x="0" 
d="M-129 -337q0 -52 37 -91q36 -38 90 -38t91 38t37 92q0 53 -36 89q-38 37 -91 37t-91 -38t-37 -89zM-2 -524q-79 0 -134 54t-55 118q0 119 94 175q43 25 109 25t119 -54q54 -54 54 -132t-54 -132t-133 -54z" />
    <glyph glyph-name="commabelowcmb" unicode="&#x326;" horiz-adv-x="0" 
d="M-67 -524h-66l93 366h96z" />
    <glyph glyph-name="cedillacmb" unicode="&#x327;" horiz-adv-x="0" 
d="M-104 -216v52l71 166h73l-63 -154q97 0 161 -42t64 -129t-72 -134t-162 -49t-147 17v69q51 -17 113 -17q110 0 159 49q26 26 26 65q0 106 -169 107h-54z" />
    <glyph glyph-name="ogonekcmb" unicode="&#x328;" horiz-adv-x="0" 
d="M-83 -200q0 -56 32 -86q31 -30 85 -30t91 12v-69q-37 -19 -95 -19q-119 1 -169 79q-27 41 -27 91q-1 92 56 158t110 114l75 -19q-158 -112 -158 -231z" />
    <glyph glyph-name="circumflexbelowcmb" unicode="&#x32d;" horiz-adv-x="0" 
d="M-285 -458l252 352h70l244 -354h-81l-196 293h-6l-202 -291h-81z" />
    <glyph glyph-name="brevebelowcmb" unicode="&#x32e;" horiz-adv-x="0" 
d="M-298 -156h77q-1 -86 59 -142t146 -56q156 0 206 96q24 44 24 102h73q0 -108 -74 -186t-213 -78q-96 0 -164 38q-134 76 -134 226z" />
    <glyph glyph-name="tildebelowcmb" unicode="&#x330;" horiz-adv-x="0" 
d="M-156 -239q-108 0 -110 -163h-69q0 110 47 170t134 61q52 0 91 -25t79 -74q40 -48 67 -66t72 -18t78 48t35 123h71q0 -100 -54 -168q-53 -67 -125 -67t-111 22t-76 66q-37 45 -65 68t-64 23z" />
    <glyph glyph-name="macronbelowcmb" unicode="&#x331;" horiz-adv-x="0" 
d="M293 -304h-603v63h603v-63z" />
    <glyph glyph-name="Delta" unicode="&#x394;" horiz-adv-x="1250" 
d="M622 1372l-451 -1291h909l-451 1291h-7zM48 0l531 1482h93l531 -1482h-1155z" />
    <glyph glyph-name="Omega" unicode="&#x3a9;" 
d="M833 0v129q162 42 260 192t98 355v225q0 249 -128 391t-350 142t-350 -142t-128 -391v-225q0 -206 98 -354t256 -193v-129h-460v79h362v23q-143 48 -243 198t-100 383v212q0 291 151 455t415 165q175 0 302 -73q126 -73 194 -213t68 -334v-212q0 -233 -102 -383
t-246 -198v-23h367v-79h-464z" />
    <glyph glyph-name="mu" unicode="&#x3bc;" horiz-adv-x="1259" 
d="M171 -362v1490h89v-755q0 -146 82 -229q82 -84 236 -84t252 116t98 269v683h88v-926q0 -133 108 -133q23 0 67 10v-77q-47 -10 -111 -10t-107 47t-43 134l-2 48h-6q-31 -90 -121 -165t-247 -75q-98 1 -180 39t-118 115h-6l14 -497h-93z" />
    <glyph glyph-name="pi" unicode="&#x3c0;" horiz-adv-x="1321" 
d="M1066 -4q-162 0 -163 158v893h-489v-1047h-87v1047h-275v81h1211v-81h-272v-878q0 -96 93 -96q48 0 75 4v-75q-50 -6 -93 -6z" />
    <glyph glyph-name="Aringbelow" unicode="&#x1e00;" horiz-adv-x="1250" 
d="M500 -297q0 -53 38 -90t91 -37t91 36q38 38 38 82t-18 74q-39 65 -101 64t-101 -38q-38 -38 -38 -91zM628 -483q-78 0 -134 54q-55 54 -55 132q0 79 55 133q56 54 134 54t133 -54t55 -132t-55 -133q-55 -54 -133 -54zM629 1372h-7l-281 -798h566zM142 0h-94l531 1482h93
l531 -1482h-96l-172 500h-619z" />
    <glyph glyph-name="aringbelow" unicode="&#x1e01;" horiz-adv-x="1105" 
d="M423 -350q1 -38 39 -78q38 -38 90 -38t90 38t39 82q0 44 -18 73q-39 63 -118 63t-112 -78q-10 -24 -10 -62zM362 -352q0 64 25 108q25 42 69 67t108 25t119 -54q54 -54 54 -132t-54 -132t-132 -54t-135 54q-54 54 -54 118zM493 60q144 0 246 91t102 230v171h-344
q-147 0 -219 -62t-72 -157q0 -177 139 -242q65 -31 148 -31zM472 -19q-154 0 -258 91q-102 92 -102 240t99 233t284 86h346v164q0 181 -141 243q-66 28 -148 28q-154 0 -224 -64t-78 -134h-88q6 117 106 198t279 81q179 -1 281 -87t102 -252v-808h-87v183h-4
q-29 -71 -121 -137t-246 -65z" />
    <glyph glyph-name="Bdotaccent" unicode="&#x1e02;" horiz-adv-x="1315" 
d="M568 1784q0 39 23 62t56 23t55 -23t22 -50t-10 -45t-29 -28t-40 -10t-38 10q-39 22 -39 61zM296 720v-639h393q200 0 310 81q110 80 110 238t-110 239t-281 81h-422zM296 1401v-600h368q158 0 260 78t102 224t-94 222t-260 76h-376zM206 0v1482h481q199 0 315 -97
t116 -266t-122 -276q-63 -54 -132 -67v-6q144 -14 240 -108t97 -270q0 -176 -128 -284t-361 -108h-506z" />
    <glyph glyph-name="bdotaccent" unicode="&#x1e03;" horiz-adv-x="1202" 
d="M273 472q1 -176 99 -294t256 -118t258 108q101 108 101 311v172q0 194 -98 304q-97 111 -259 111t-260 -120t-97 -288v-186zM271 216v-216h-86v1563h88v-651h4q19 55 58 100q117 135 310 135q195 0 313 -131t118 -350v-202q0 -231 -124 -357t-300 -126t-268 84
q-77 66 -109 151h-4zM152 1873q0 33 22 56t55 23t56 -23t23 -56t-23 -55t-56 -22t-55 22t-22 55z" />
    <glyph glyph-name="Bdotbelow" unicode="&#x1e04;" horiz-adv-x="1315" 
d="M296 720v-639h393q200 0 310 81q110 80 110 238t-110 239t-281 81h-422zM296 1401v-600h368q158 0 260 78t102 224t-94 222t-260 76h-376zM206 0v1482h481q199 0 315 -97t116 -266t-122 -276q-63 -54 -132 -67v-6q144 -14 240 -108t97 -270q0 -176 -128 -284t-361 -108
h-506zM570 -319q0 27 10 45q22 36 61 38q39 1 62 -22t23 -50t-10 -45q-21 -38 -62 -38q-40 0 -62 22t-22 50z" />
    <glyph glyph-name="bdotbelow" unicode="&#x1e05;" horiz-adv-x="1202" 
d="M273 472q1 -176 99 -294t256 -118t258 108q101 108 101 311v172q0 194 -98 304q-97 111 -259 111t-260 -120t-97 -288v-186zM271 216v-216h-86v1563h88v-651h4q19 55 58 100q117 135 310 135q195 0 313 -131t118 -350v-202q0 -231 -124 -357t-300 -126t-268 84
q-77 66 -109 151h-4zM527 -319q0 27 10 45q21 36 60 38q39 1 63 -22t23 -50t-11 -45q-22 -38 -62 -38t-62 22q-21 22 -21 50z" />
    <glyph glyph-name="Blinebelow" unicode="&#x1e06;" horiz-adv-x="1315" 
d="M941 -304h-604v63h604v-63zM296 720v-639h393q200 0 310 81q110 80 110 238t-110 239t-281 81h-422zM296 1401v-600h368q158 0 260 78t102 224t-94 222t-260 76h-376zM206 0v1482h481q199 0 315 -97t116 -266t-122 -276q-63 -54 -132 -67v-6q144 -14 240 -108t97 -270
q0 -176 -128 -284t-361 -108h-506z" />
    <glyph glyph-name="blinebelow" unicode="&#x1e07;" horiz-adv-x="1202" 
d="M273 472q1 -176 99 -294t256 -118t258 108q101 108 101 311v172q0 194 -98 304q-97 111 -259 111t-260 -120t-97 -288v-186zM271 216v-216h-86v1563h88v-651h4q19 55 58 100q117 135 310 135q195 0 313 -131t118 -350v-202q0 -231 -124 -357t-300 -126t-268 84
q-77 66 -109 151h-4zM897 -304h-604v63h604v-63z" />
    <glyph glyph-name="Ccedillaacute" unicode="&#x1e08;" horiz-adv-x="1354" 
d="M839 -333q0 110 -167 110h-54v52l61 138q-394 17 -500 396q-31 113 -31 251v252q0 396 244 562q128 87 311 87q123 1 223 -41q177 -73 256 -253q33 -78 33 -157v-5h-87q0 133 -107 250q-51 57 -134 91t-184 34q-154 0 -261 -76q-205 -146 -205 -484v-268q0 -242 114 -400
t357 -158q194 0 312 106t118 260h88v-2q0 -171 -128 -301t-347 -144l-52 -127q95 0 159 -41t64 -129t-72 -135t-158 -49q-88 -2 -149 17v68q49 -17 111 -17q115 1 160 48q25 27 25 65zM589 1646l325 260h114l-345 -260h-94z" />
    <glyph glyph-name="ccedillaacute" unicode="&#x1e09;" horiz-adv-x="1109" 
d="M535 -431q75 0 124 28t49 85q0 108 -163 108h-56v52l63 139q-196 7 -308 139t-113 363v171q0 152 56 264t156 170q101 58 215 59q211 0 321 -108t114 -236h-86q-22 150 -160 223q-75 40 -177 40t-182 -50t-125 -147t-44 -230v-148q1 -204 97 -316q96 -113 256 -113
t239 71q80 71 99 171h85q-8 -120 -103 -214t-268 -107l-54 -129q96 0 159 -42t63 -114t-36 -116q-69 -82 -209 -82q-83 -2 -135 17v69q48 -17 123 -17zM579 1320h-71l252 318h97z" />
    <glyph glyph-name="Ddotaccent" unicode="&#x1e0a;" horiz-adv-x="1409" 
d="M296 1401v-1320h310q291 0 432 173q140 173 140 485t-140 487t-432 175h-310zM206 1482h400q341 0 501 -196q161 -196 161 -541t-154 -545t-508 -200h-400v1482zM614 1796q0 27 23 50t56 23t55 -23t22 -50t-10 -45t-29 -28t-40 -10t-39 10t-28 28t-10 45z" />
    <glyph glyph-name="ddotaccent" unicode="&#x1e0b;" horiz-adv-x="1205" 
d="M216 479q0 -194 98 -306q98 -113 260 -113t261 121q98 121 97 296v170q0 251 -172 363q-84 56 -199 56t-212 -77q-129 -107 -133 -344v-166zM562 1147q220 0 328 -158q26 -37 36 -75h6v649h86v-1563h-83v221h-5q-17 -66 -99 -146q-43 -42 -115 -68t-156 -26
q-194 0 -312 131t-119 348v206q0 227 123 354t310 127zM899 1862q0 68 53 86q11 4 34 4t46 -23t23 -56t-23 -55t-56 -22t-55 22t-22 44z" />
    <glyph glyph-name="Ddotbelow" unicode="&#x1e0c;" horiz-adv-x="1409" 
d="M296 1401v-1320h310q291 0 432 173q140 173 140 485t-140 487t-432 175h-310zM206 1482h400q341 0 501 -196q161 -196 161 -541t-154 -545t-508 -200h-400v1482zM638 -369q-22 22 -22 62t46 65t87 -16q23 -23 23 -50t-10 -45q-21 -38 -62 -38q-40 0 -62 22z" />
    <glyph glyph-name="ddotbelow" unicode="&#x1e0d;" horiz-adv-x="1205" 
d="M216 479q0 -194 98 -306q98 -113 260 -113t261 121q98 121 97 296v170q0 251 -172 363q-84 56 -199 56t-212 -77q-129 -107 -133 -344v-166zM562 1147q220 0 328 -158q26 -37 36 -75h6v649h86v-1563h-83v221h-5q-17 -66 -99 -146q-43 -42 -115 -68t-156 -26
q-194 0 -312 131t-119 348v206q0 227 123 354t310 127zM527 -319q0 27 10 45q21 36 60 38q39 1 63 -22t23 -50t-11 -45q-22 -38 -62 -38t-62 22q-21 22 -21 50z" />
    <glyph glyph-name="Dlinebelow" unicode="&#x1e0e;" horiz-adv-x="1409" 
d="M296 1401v-1320h310q291 0 432 173q140 173 140 485t-140 487t-432 175h-310zM206 1482h400q341 0 501 -196q161 -196 161 -541t-154 -545t-508 -200h-400v1482zM987 -304h-604v63h604v-63z" />
    <glyph glyph-name="dlinebelow" unicode="&#x1e0f;" horiz-adv-x="1205" 
d="M216 479q0 -194 98 -306q98 -113 260 -113t261 121q98 121 97 296v170q0 251 -172 363q-84 56 -199 56t-212 -77q-129 -107 -133 -344v-166zM562 1147q220 0 328 -158q26 -37 36 -75h6v649h86v-1563h-83v221h-5q-17 -66 -99 -146q-43 -42 -115 -68t-156 -26
q-194 0 -312 131t-119 348v206q0 227 123 354t310 127zM897 -304h-604v63h604v-63z" />
    <glyph glyph-name="Dcommaaccent" unicode="&#x1e10;" horiz-adv-x="1409" 
d="M296 1401v-1320h310q291 0 432 173q140 173 140 485t-140 487t-432 175h-310zM206 1482h400q341 0 501 -196q161 -196 161 -541t-154 -545t-508 -200h-400v1482zM624 -524h-64l91 366h98z" />
    <glyph glyph-name="dcommaaccent" unicode="&#x1e11;" horiz-adv-x="1205" 
d="M216 479q0 -194 98 -306q98 -113 260 -113t261 121q98 121 97 296v170q0 251 -172 363q-84 56 -199 56t-212 -77q-129 -107 -133 -344v-166zM562 1147q220 0 328 -158q26 -37 36 -75h6v649h86v-1563h-83v221h-5q-17 -66 -99 -146q-43 -42 -115 -68t-156 -26
q-194 0 -312 131t-119 348v206q0 227 123 354t310 127zM535 -524h-65l92 366h98z" />
    <glyph glyph-name="Dcircumflexbelow" unicode="&#x1e12;" horiz-adv-x="1409" 
d="M408 -458l252 352h68l244 -354h-81l-196 293h-6l-202 -291h-79zM296 1401v-1320h310q291 0 432 173q140 173 140 485t-140 487t-432 175h-310zM206 1482h400q341 0 501 -196q161 -196 161 -541t-154 -545t-508 -200h-400v1482z" />
    <glyph glyph-name="dcircumflexbelow" unicode="&#x1e13;" horiz-adv-x="1205" 
d="M318 -458l252 352h69l246 -354h-84l-195 293h-7l-201 -291h-80zM216 479q0 -194 98 -306q98 -113 260 -113t261 121q98 121 97 296v170q0 251 -172 363q-84 56 -199 56t-212 -77q-129 -107 -133 -344v-166zM562 1147q220 0 328 -158q26 -37 36 -75h6v649h86v-1563h-83
v221h-5q-17 -66 -99 -146q-43 -42 -115 -68t-156 -26q-194 0 -312 131t-119 348v206q0 227 123 354t310 127z" />
    <glyph glyph-name="Emacrongrave" unicode="&#x1e14;" horiz-adv-x="1167" 
d="M920 1665h-585v60h585v-60zM1053 81v-81h-847v1482h847v-83h-757v-600h720v-81h-720v-637h757zM735 1863h-96l-343 258h114z" />
    <glyph glyph-name="emacrongrave" unicode="&#x1e15;" horiz-adv-x="1138" 
d="M866 1357h-604v65h604v-65zM221 633h701v4q0 202 -95 315q-95 114 -256 114t-256 -114t-94 -315v-4zM133 497v115q0 256 117 395q118 139 322 139t321 -138q117 -140 116 -394v-58h-788v-59q-1 -205 95 -321t269 -116q113 0 200 51q70 44 101 113q14 30 17 61h90
q-8 -107 -109 -206q-100 -98 -308 -98q-207 1 -325 137t-118 379zM674 1582h-68l-279 318h98z" />
    <glyph glyph-name="Emacronacute" unicode="&#x1e16;" horiz-adv-x="1167" 
d="M920 1665h-585v60h585v-60zM1053 81v-81h-847v1482h847v-83h-757v-600h720v-81h-720v-637h757zM514 1861l327 258h112l-343 -258h-96z" />
    <glyph glyph-name="emacronacute" unicode="&#x1e17;" horiz-adv-x="1138" 
d="M866 1357h-604v65h604v-65zM221 633h701v4q0 202 -95 315q-95 114 -256 114t-256 -114t-94 -315v-4zM133 497v115q0 256 117 395q118 139 322 139t321 -138q117 -140 116 -394v-58h-788v-59q-1 -205 95 -321t269 -116q113 0 200 51q70 44 101 113q14 30 17 61h90
q-8 -107 -109 -206q-100 -98 -308 -98q-207 1 -325 137t-118 379zM583 1582h-71l250 318h98z" />
    <glyph glyph-name="Ecircumflexbelow" unicode="&#x1e18;" horiz-adv-x="1167" 
d="M343 -458l252 352h69l246 -354h-84l-195 293h-7l-201 -291h-80zM1053 81v-81h-847v1482h847v-83h-757v-600h720v-81h-720v-637h757z" />
    <glyph glyph-name="ecircumflexbelow" unicode="&#x1e19;" horiz-adv-x="1138" 
d="M296 -458l251 352h69l246 -354h-84l-195 293h-6l-202 -291h-79zM221 633h701v4q0 202 -95 315q-95 114 -256 114t-256 -114t-94 -315v-4zM133 497v115q0 256 117 395q118 139 322 139t321 -138q117 -140 116 -394v-58h-788v-59q-1 -205 95 -321t269 -116q113 0 200 51
q70 44 101 113q14 30 17 61h90q-8 -107 -109 -206q-100 -98 -308 -98q-207 1 -325 137t-118 379z" />
    <glyph glyph-name="Etildebelow" unicode="&#x1e1a;" horiz-adv-x="1167" 
d="M1053 81v-81h-847v1482h847v-83h-757v-600h720v-81h-720v-637h757zM291 -402q0 110 47 170t134 61q54 0 92 -25t78 -74q40 -48 68 -66t72 -18t79 48q34 48 34 123h71q0 -100 -53 -168q-53 -67 -127 -67t-112 22t-65 54q-27 34 -51 61q-35 39 -88 42q-106 0 -108 -163h-71
z" />
    <glyph glyph-name="etildebelow" unicode="&#x1e1b;" horiz-adv-x="1138" 
d="M221 633h701v4q0 202 -95 315q-95 114 -256 114t-256 -114t-94 -315v-4zM133 497v115q0 256 117 395q118 139 322 139t321 -138q117 -140 116 -394v-58h-788v-59q-1 -205 95 -321t269 -116q113 0 200 51q70 44 101 113q14 30 17 61h90q-8 -107 -109 -206
q-100 -98 -308 -98q-207 1 -325 137t-118 379zM244 -402q0 110 46 171q47 60 135 60q53 0 91 -25t78 -74q40 -48 68 -66t72 -18t79 48q34 48 34 123h71q0 -100 -53 -168q-53 -67 -126 -67t-111 22t-69 58q-30 38 -46 55q-41 44 -90 44q-106 0 -109 -163h-70z" />
    <glyph glyph-name="Ecedillabreve" unicode="&#x1e1c;" horiz-adv-x="1167" 
d="M329 1869h73q0 -83 60 -132t166 -49t162 49q57 49 57 132h73q0 -106 -74 -178t-218 -72t-222 72q-77 72 -77 178zM576 -433q74 0 124 29t49 86q0 108 -166 108h-56v52l68 158h-389v1482h847v-83h-757v-600h720v-81h-720v-637h757v-81h-385l-60 -146q96 0 160 -42t65 -130
q0 -88 -72 -135q-73 -47 -163 -48t-146 18v69q50 -19 124 -19z" />
    <glyph glyph-name="ecedillabreve" unicode="&#x1e1d;" horiz-adv-x="1138" 
d="M542 -437q76 0 126 29q48 29 48 85q0 106 -167 107h-54v52l61 145q-200 9 -311 145t-112 371v115q0 256 117 395q118 139 322 139t321 -138q117 -140 116 -394v-58h-788v-59q-1 -205 95 -321t269 -116q113 0 200 51q70 44 101 113q14 30 17 61h90q-10 -106 -103 -198
t-259 -106l-57 -133q96 0 161 -42t65 -129t-72 -134t-162 -49t-146 17v69q46 -17 122 -17zM221 633h701v4q0 202 -95 315q-95 114 -256 114t-256 -114t-94 -315v-4zM271 1563h74q1 -87 59 -143t160 -55q102 0 157 54t55 144h73q0 -106 -74 -185t-212 -79t-215 78t-77 186z
" />
    <glyph glyph-name="Fdotaccent" unicode="&#x1e1e;" horiz-adv-x="1092" 
d="M296 0h-90v1482h835v-83h-745v-614h684v-82h-684v-703zM564 1869q49 0 71 -48q6 -15 6 -33q0 -44 -40 -65q-19 -10 -39 -10t-39 10q-38 21 -38 71q0 49 53 71q11 4 26 4z" />
    <glyph glyph-name="fdotaccent" unicode="&#x1e1f;" horiz-adv-x="684" 
d="M239 0v1051h-189v77h189v142q0 154 71 222t223 67q62 0 112 -13v-75q-37 9 -127 9t-141 -46q-50 -46 -50 -160v-146h306v-77h-306v-1051h-88zM362 1861q0 39 23 61t55 22t55 -22t23 -55t-23 -55t-50 -22t-44 10q-39 22 -39 61z" />
    <glyph glyph-name="Gmacron" unicode="&#x1e20;" horiz-adv-x="1375" 
d="M987 1665h-587v60h587v-60zM702 1434q-206 0 -336 -151t-129 -411v-248q0 -262 121 -419q122 -157 336 -157t332 102t119 283v202h-444v81h527v-283q0 -208 -138 -337t-380 -129q-187 0 -317 87q-245 165 -245 570v248q0 296 151 470t405 173q254 0 385 -128t135 -290
h-88q-4 133 -116 235t-318 102z" />
    <glyph glyph-name="gmacron" unicode="&#x1e21;" horiz-adv-x="1190" 
d="M214 651v-129q0 -189 100 -298q100 -110 260 -110t258 119q96 119 96 283v138q0 175 -99 293q-99 119 -255 119t-258 -108t-102 -307zM582 -312q158 0 253 83q94 83 93 221v279h-4q-22 -69 -82 -128q-113 -110 -292 -110t-302 129t-123 344v164q0 225 127 351t301 126
t267 -86q77 -68 106 -147h4v214h86v-1132q0 -179 -119 -284t-321 -105q-202 -1 -306 91t-112 210h92q6 -88 90 -154t242 -66zM891 1357h-604v65h604v-65z" />
    <glyph glyph-name="Hdotaccent" unicode="&#x1e22;" horiz-adv-x="1452" 
d="M719 1869q86 1 86 -87q-1 -24 -23 -47q-22 -22 -50 -22t-44 10q-39 22 -39 61t23 62t47 23zM1245 0h-90v737h-859v-737h-90v1482h90v-664h859v664h90v-1482z" />
    <glyph glyph-name="hdotaccent" unicode="&#x1e23;" horiz-adv-x="1213" 
d="M152 1873q0 33 22 56t55 23t56 -23t23 -56t-23 -55t-56 -22t-55 22t-22 55zM187 0v1563h86v-645h4q31 94 124 162t254 67q161 1 271 -111t110 -303v-733h-89v720q0 152 -83 248q-84 96 -242 96t-254 -110t-95 -271v-683h-86z" />
    <glyph glyph-name="Hdotbelow" unicode="&#x1e24;" horiz-adv-x="1452" 
d="M651 -319q-1 27 9 45q20 36 61 38q39 1 63 -22t24 -50t-10 -45q-22 -38 -63 -38q-40 0 -62 22t-22 50zM1245 0h-90v737h-859v-737h-90v1482h90v-664h859v664h90v-1482z" />
    <glyph glyph-name="hdotbelow" unicode="&#x1e25;" horiz-adv-x="1213" 
d="M529 -319q0 27 10 45q21 36 60 38q40 1 63 -22t23 -50q-1 -27 -11 -45q-22 -38 -61 -38q-40 0 -62 22t-22 50zM187 0v1563h86v-645h4q31 94 124 162t254 67q161 1 271 -111t110 -303v-733h-89v720q0 152 -83 248q-84 96 -242 96t-254 -110t-95 -271v-683h-86z" />
    <glyph glyph-name="Hdieresis" unicode="&#x1e26;" horiz-adv-x="1452" 
d="M828 1703q0 25 14 49t45 23t50 -19q34 -33 13 -70q-21 -38 -49 -39q-27 -1 -41 10q-32 21 -32 46zM514 1708q0 20 8 34q18 32 51 33q33 -1 51 -19t17 -44q0 -26 -19 -46q-18 -20 -44 -20t-45 21t-19 41zM1245 0h-90v737h-859v-737h-90v1482h90v-664h859v664h90v-1482z
" />
    <glyph glyph-name="hdieresis" unicode="&#x1e27;" horiz-adv-x="1213" 
d="M314 1839q0 36 22 58t53 22t52 -22t21 -53t-21 -53t-47 -22t-42 11q-38 23 -38 59zM-2 1844q0 31 22 53t52 22t52 -22t22 -53t-22 -53t-52 -22t-52 22t-22 53zM187 0v1563h86v-645h4q31 94 124 162t254 67q161 1 271 -111t110 -303v-733h-89v720q0 152 -83 248
q-84 96 -242 96t-254 -110t-95 -271v-683h-86z" />
    <glyph glyph-name="Hcedilla" unicode="&#x1e28;" horiz-adv-x="1452" 
d="M192 -433q111 0 160 50q25 27 25 65q0 108 -165 108h-56v52l69 158h-19v1482h90v-664h859v664h90v-1482h-90v737h-859v-737l-59 -146q131 0 191 -71q32 -39 32 -97q0 -92 -72 -139t-162 -48t-145 18v69q49 -19 111 -19z" />
    <glyph glyph-name="hcedilla" unicode="&#x1e29;" horiz-adv-x="1213" 
d="M179 -437q75 0 124 29t49 85q0 106 -167 107h-54v52l69 164h-13v1563h86v-645h4q31 94 124 162t254 67q161 1 271 -111t110 -303v-733h-89v720q0 152 -83 248q-84 96 -242 96t-254 -110t-95 -271v-683l-63 -152q96 0 160 -42t65 -129q0 -87 -72 -134q-71 -47 -161 -49
t-146 17v69q48 -17 123 -17z" />
    <glyph glyph-name="Hbrevebelow" unicode="&#x1e2a;" horiz-adv-x="1452" 
d="M1245 0h-90v737h-859v-737h-90v1482h90v-664h859v664h90v-1482zM429 -156h77q0 -86 59 -142t145 -56t134 26q97 51 97 172h73q0 -108 -74 -186t-214 -78q-96 0 -164 38q-132 74 -133 226z" />
    <glyph glyph-name="hbrevebelow" unicode="&#x1e2b;" horiz-adv-x="1213" 
d="M187 0v1563h86v-645h4q31 94 124 162t254 67q161 1 271 -111t110 -303v-733h-89v720q0 152 -83 248q-84 96 -242 96t-254 -110t-95 -271v-683h-86zM308 -156h75q0 -86 59 -142t145 -56q87 0 135 26q96 52 96 172h75q0 -108 -74 -186t-213 -78q-96 0 -166 38
q-132 72 -132 226z" />
    <glyph glyph-name="Itildebelow" unicode="&#x1e2c;" horiz-adv-x="536" 
d="M110 -239q-106 0 -108 -163h-69q0 110 46 170t133 61q92 0 157 -81t92 -91q29 -11 67 -11t73 48q34 48 36 123h71q0 -100 -54 -168q-54 -67 -126 -67t-112 22t-76 66q-36 45 -64 68t-66 23zM312 0h-87v1482h87v-1482z" />
    <glyph glyph-name="itildebelow" unicode="&#x1e2d;" horiz-adv-x="497" 
d="M-85 -402q0 231 181 231q52 0 90 -25t78 -74q40 -48 68 -66t73 -18t78 48t35 123h71q0 -100 -54 -168q-53 -67 -125 -67t-112 22t-70 58q-30 38 -46 55q-41 44 -90 44q-106 0 -109 -163h-68zM195 1385q-22 22 -22 57t22 56t54 21t56 -23t24 -58t-26 -55t-56 -20t-52 22z
M206 0v1128h87v-1128h-87z" />
    <glyph glyph-name="Idieresisacute" unicode="&#x1e2e;" horiz-adv-x="536" 
d="M370 1713q0 25 19 44t46 19t45 -20q32 -33 12 -70t-52 -39q-32 -1 -51 20t-19 46zM56 1713q0 25 19 44q36 36 72 13t36 -53q0 -31 -19 -51q-18 -20 -44 -20t-45 21t-19 46zM154 1861l327 258h112l-343 -258h-96zM312 0h-87v1482h87v-1482z" />
    <glyph glyph-name="idieresisacute" unicode="&#x1e2f;" horiz-adv-x="462" 
d="M338 1354q-22 22 -22 59t38 60q16 9 42 9t48 -22t22 -53t-22 -53t-53 -22t-53 22zM2 1407q0 31 21 53t52 22t52 -22t21 -59t-28 -53t-52 -16t-45 22t-21 53zM187 0v1128h88v-1128h-88zM244 1582h-71l250 318h97z" />
    <glyph glyph-name="Kacute" unicode="&#x1e30;" horiz-adv-x="1207" 
d="M296 0h-90v1482h90v-795h4l741 795h114l-608 -658l644 -824h-117l-593 762l-185 -194v-568zM485 1646l325 260h114l-345 -260h-94z" />
    <glyph glyph-name="kacute" unicode="&#x1e31;" horiz-adv-x="1082" 
d="M241 1757h-70l249 318h98zM273 0h-86v1563h86v-997h6l603 577h111l-498 -481l519 -662h-111l-472 604l-158 -144v-460z" />
    <glyph glyph-name="Kdotbelow" unicode="&#x1e32;" horiz-adv-x="1207" 
d="M296 0h-90v1482h90v-795h4l741 795h114l-608 -658l644 -824h-117l-593 762l-185 -194v-568zM529 -319q0 27 10 45q21 36 60 38q40 1 63 -22t23 -50q-1 -27 -11 -45q-22 -38 -61 -38q-40 0 -62 22t-22 50z" />
    <glyph glyph-name="kdotbelow" unicode="&#x1e33;" horiz-adv-x="1082" 
d="M273 0h-86v1563h86v-997h6l603 577h111l-498 -481l519 -662h-111l-472 604l-158 -144v-460zM472 -314q0 33 22 56t55 23t57 -23t23 -50t-11 -45q-22 -38 -62 -38t-62 22t-22 55z" />
    <glyph glyph-name="Klinebelow" unicode="&#x1e34;" horiz-adv-x="1207" 
d="M899 -304h-603v63h603v-63zM296 0h-90v1482h90v-795h4l741 795h114l-608 -658l644 -824h-117l-593 762l-185 -194v-568z" />
    <glyph glyph-name="klinebelow" unicode="&#x1e35;" horiz-adv-x="1082" 
d="M843 -304h-604v63h604v-63zM273 0h-86v1563h86v-997h6l603 577h111l-498 -481l519 -662h-111l-472 604l-158 -144v-460z" />
    <glyph glyph-name="Ldotbelow" unicode="&#x1e36;" horiz-adv-x="1103" 
d="M1041 81v-81h-835v1482h90v-1401h745zM540 -385q-47 20 -47 69t45 74t90 -16q24 -23 24 -50t-12 -45q-23 -38 -70 -38q-17 0 -30 6z" />
    <glyph glyph-name="ldotbelow" unicode="&#x1e37;" horiz-adv-x="484" 
d="M200 0v1563h87v-1563h-87zM169 -319q0 28 15 55t49 28t62 -15t29 -50q0 -34 -10 -52q-22 -38 -61 -38q-40 0 -63 22q-21 22 -21 50z" />
    <glyph glyph-name="Ldotbelowmacron" unicode="&#x1e38;" horiz-adv-x="1103" 
d="M545 1665h-587v60h587v-60zM1041 81v-81h-835v1482h90v-1401h745zM540 -385q-47 20 -47 69t45 74t90 -16q24 -23 24 -50t-12 -45q-23 -38 -70 -38q-17 0 -30 6z" />
    <glyph glyph-name="ldotbelowmacron" unicode="&#x1e39;" horiz-adv-x="484" 
d="M539 1794h-604v63h604v-63zM200 0v1563h87v-1563h-87zM169 -319q0 28 15 55t49 28t62 -15t29 -50q0 -34 -10 -52q-22 -38 -61 -38q-40 0 -63 22q-21 22 -21 50z" />
    <glyph glyph-name="Llinebelow" unicode="&#x1e3a;" horiz-adv-x="1103" 
d="M1041 81v-81h-835v1482h90v-1401h745zM864 -304h-604v63h604v-63z" />
    <glyph glyph-name="llinebelow" unicode="&#x1e3b;" horiz-adv-x="484" 
d="M200 0v1563h87v-1563h-87zM539 -304h-604v63h604v-63z" />
    <glyph glyph-name="Lcircumflexbelow" unicode="&#x1e3c;" horiz-adv-x="1103" 
d="M285 -458l252 352h71l243 -354h-81l-198 293h-4l-204 -291h-79zM1041 81v-81h-835v1482h90v-1401h745z" />
    <glyph glyph-name="lcircumflexbelow" unicode="&#x1e3d;" horiz-adv-x="484" 
d="M-40 -458l252 352h69l243 -354h-81l-195 293h-7l-201 -291h-80zM200 0v1563h87v-1563h-87z" />
    <glyph glyph-name="Macute" unicode="&#x1e3e;" horiz-adv-x="1714" 
d="M291 0h-81v1482h88l557 -1263h5l559 1263h88v-1482h-81v1282h-4l-523 -1168h-83l-520 1168h-5v-1282zM745 1646l325 260h112l-343 -260h-94z" />
    <glyph glyph-name="macute" unicode="&#x1e3f;" horiz-adv-x="1812" 
d="M181 0v1128h87v-185h7q25 77 103 140t212 63t220 -65q86 -66 112 -165h4q24 83 112 157t242 74t255 -98t101 -277v-772h-88v751q0 100 -36 172q-69 139 -251 141q-146 0 -227 -96t-81 -231v-737h-87v743q0 154 -77 237q-77 84 -217 84t-221 -97q-82 -97 -83 -247v-720
h-87zM918 1320h-71l252 318h98z" />
    <glyph glyph-name="Mdotaccent" unicode="&#x1e40;" horiz-adv-x="1714" 
d="M291 0h-81v1482h88l557 -1263h5l559 1263h88v-1482h-81v1282h-4l-523 -1168h-83l-520 1168h-5v-1282zM780 1786q0 27 10 45q22 38 72 38q49 0 66 -43t-3 -78q-21 -35 -61 -35t-62 23t-22 50z" />
    <glyph glyph-name="mdotaccent" unicode="&#x1e41;" horiz-adv-x="1812" 
d="M181 0v1128h87v-185h7q25 77 103 140t212 63t220 -65q86 -66 112 -165h4q24 83 112 157t242 74t255 -98t101 -277v-772h-88v751q0 100 -36 172q-69 139 -251 141q-146 0 -227 -96t-81 -231v-737h-87v743q0 154 -77 237q-77 84 -217 84t-221 -97q-82 -97 -83 -247v-720
h-87zM828 1436q0 33 23 56t55 23t56 -23t22 -62q-1 -39 -28 -55q-28 -16 -55 -16t-50 22t-23 55z" />
    <glyph glyph-name="Mdotbelow" unicode="&#x1e42;" horiz-adv-x="1714" 
d="M291 0h-81v1482h88l557 -1263h5l559 1263h88v-1482h-81v1282h-4l-523 -1168h-83l-520 1168h-5v-1282zM780 -320q0 39 23 62t55 23t56 -23t25 -50q-1 -27 -11 -45q-22 -38 -71 -38q-21 0 -38 10q-39 22 -39 61z" />
    <glyph glyph-name="mdotbelow" unicode="&#x1e43;" horiz-adv-x="1812" 
d="M181 0v1128h87v-185h7q25 77 103 140t212 63t220 -65q86 -66 112 -165h4q24 83 112 157t242 74t255 -98t101 -277v-772h-88v751q0 100 -36 172q-69 139 -251 141q-146 0 -227 -96t-81 -231v-737h-87v743q0 154 -77 237q-77 84 -217 84t-221 -97q-82 -97 -83 -247v-720
h-87zM830 -314q0 33 22 56t55 23t57 -23t23 -50t-11 -45q-22 -38 -62 -38t-62 22t-22 55z" />
    <glyph glyph-name="Ndotaccent" unicode="&#x1e44;" horiz-adv-x="1452" 
d="M296 0h-90v1482h94l851 -1326h4v1326h90v-1482h-92l-853 1326h-4v-1326zM719 1869q86 1 86 -87q-1 -24 -23 -47q-22 -22 -50 -22t-44 10q-39 22 -39 61t23 62t47 23z" />
    <glyph glyph-name="ndotaccent" unicode="&#x1e45;" horiz-adv-x="1198" 
d="M181 0v1128h87v-210h5q33 94 127 162t252 67q158 0 267 -106t109 -296v-745h-89v724q-1 152 -83 246t-242 94t-252 -110q-94 -110 -94 -271v-683h-87zM522 1426q0 67 51 85q11 4 35 4t48 -23t23 -60q0 -37 -41 -63q-18 -10 -45 -10t-49 22q-22 23 -22 45z" />
    <glyph glyph-name="Ndotbelow" unicode="&#x1e46;" horiz-adv-x="1452" 
d="M296 0h-90v1482h94l851 -1326h4v1326h90v-1482h-92l-853 1326h-4v-1326zM651 -319q-1 27 9 45q20 36 61 38q39 1 63 -22t24 -50t-10 -45q-22 -38 -63 -38q-40 0 -62 22t-22 50z" />
    <glyph glyph-name="ndotbelow" unicode="&#x1e47;" horiz-adv-x="1198" 
d="M181 0v1128h87v-210h5q33 94 127 162t252 67q158 0 267 -106t109 -296v-745h-89v724q-1 152 -83 246t-242 94t-252 -110q-94 -110 -94 -271v-683h-87zM522 -319q0 27 10 45q22 36 61 38q39 1 63 -22t25 -50t-11 -45q-24 -38 -63 -38t-62 22t-23 50z" />
    <glyph glyph-name="Nlinebelow" unicode="&#x1e48;" horiz-adv-x="1452" 
d="M296 0h-90v1482h94l851 -1326h4v1326h90v-1482h-92l-853 1326h-4v-1326zM1020 -304h-604v63h604v-63z" />
    <glyph glyph-name="nlinebelow" unicode="&#x1e49;" horiz-adv-x="1198" 
d="M181 0v1128h87v-210h5q33 94 127 162t252 67q158 0 267 -106t109 -296v-745h-89v724q-1 152 -83 246t-242 94t-252 -110q-94 -110 -94 -271v-683h-87zM893 -304h-604v63h604v-63z" />
    <glyph glyph-name="Ncircumflexbelow" unicode="&#x1e4a;" horiz-adv-x="1452" 
d="M443 -458l250 352h71l243 -354h-81l-195 293h-7l-202 -291h-79zM296 0h-90v1482h94l851 -1326h4v1326h90v-1482h-92l-853 1326h-4v-1326z" />
    <glyph glyph-name="ncircumflexbelow" unicode="&#x1e4b;" horiz-adv-x="1198" 
d="M314 -458l252 352h71l243 -354h-81l-198 293h-4l-204 -291h-79zM181 0v1128h87v-210h5q33 94 127 162t252 67q158 0 267 -106t109 -296v-745h-89v724q-1 152 -83 246t-242 94t-252 -110q-94 -110 -94 -271v-683h-87z" />
    <glyph glyph-name="Otildeacute" unicode="&#x1e4c;" 
d="M564 1782q-96 0 -96 -140h-64q0 94 41 148q42 54 121 54q46 0 80 -22t78 -72q29 -37 52 -53q23 -15 63 -15q39 0 69 42t33 108h62q0 -122 -82 -180q-39 -28 -89 -28t-85 18q-34 19 -71 61q-57 79 -112 79zM148 606v266q0 296 150 470t416 173q266 0 416 -175t150 -470
v-264q0 -296 -151 -468t-417 -172t-415 172t-149 468zM235 878v-279q0 -251 128 -401t350 -150t350 150t128 401v279q1 252 -129 404t-350 152q-144 0 -252 -69t-166 -195t-59 -292zM599 1861l325 258h115l-346 -258h-94z" />
    <glyph glyph-name="otildeacute" unicode="&#x1e4d;" horiz-adv-x="1180" 
d="M590 1066q-170 0 -271 -116t-100 -321v-134q1 -206 101 -320q100 -115 271 -115t271 114t100 321v134q0 205 -101 321t-271 116zM591 1147q133 1 237 -59t164 -176t59 -271v-158q0 -237 -127 -369t-334 -133q-207 0 -333 132t-126 370v158q0 237 126 371t334 135z
M420 1486q-108 0 -108 -160h-71q0 108 47 168t135 61q55 0 93 -25t77 -74t67 -66q28 -16 72 -16t79 46q34 47 36 122h69q0 -100 -53 -168t-125 -67q-72 0 -110 22t-75 67q-35 46 -65 68t-68 22zM601 1582h-70l252 318h97z" />
    <glyph glyph-name="Otildedieresis" unicode="&#x1e4e;" 
d="M564 1782q-96 0 -96 -140h-64q0 94 41 148q42 54 121 54q46 0 80 -22t78 -72q29 -37 52 -53q23 -15 63 -15q39 0 69 42t33 108h62q0 -122 -82 -180q-39 -28 -89 -28t-85 18q-34 19 -71 61q-57 79 -112 79zM148 606v266q0 296 150 470t416 173q266 0 416 -175t150 -470
v-264q0 -296 -151 -468t-417 -172t-415 172t-149 468zM235 878v-279q0 -251 128 -401t350 -150t350 150t128 401v279q1 252 -129 404t-350 152q-144 0 -252 -69t-166 -195t-59 -292zM808 1992q0 25 18 44q19 18 45 18t45 -18t19 -44q0 -25 -19 -46t-45 -21t-45 21
q-18 21 -18 46zM493 1992q0 25 19 44q19 18 46 18t45 -18q17 -18 17 -45q0 -26 -19 -46t-45 -20t-44 21q-19 21 -19 46z" />
    <glyph glyph-name="otildedieresis" unicode="&#x1e4f;" horiz-adv-x="1180" 
d="M590 1066q-170 0 -271 -116t-100 -321v-134q1 -206 101 -320q100 -115 271 -115t271 114t100 321v134q0 205 -101 321t-271 116zM591 1147q133 1 237 -59t164 -176t59 -271v-158q0 -237 -127 -369t-334 -133q-207 0 -333 132t-126 370v158q0 237 126 371t334 135z
M676 1707q0 31 22 52t52 21t52 -21t22 -52t-22 -53t-52 -22t-52 22t-22 53zM360 1707q0 31 22 52t52 21t52 -21t22 -52t-22 -53t-52 -22t-52 22t-22 53zM420 1486q-108 0 -108 -160h-71q0 108 47 168t135 61q55 0 93 -25t77 -74t67 -66q28 -16 72 -16t79 46q34 47 36 122h69
q0 -100 -53 -168t-125 -67q-72 0 -110 22t-75 67q-35 46 -65 68t-68 22z" />
    <glyph glyph-name="Omacrongrave" unicode="&#x1e50;" 
d="M1005 1665h-585v60h585v-60zM148 606v266q0 296 150 470t416 173q266 0 416 -175t150 -470v-264q0 -296 -151 -468t-417 -172t-415 172t-149 468zM235 878v-279q0 -251 128 -401t350 -150t350 150t128 401v279q1 252 -129 404t-350 152q-144 0 -252 -69t-166 -195
t-59 -292zM820 1863h-96l-343 258h114z" />
    <glyph glyph-name="omacrongrave" unicode="&#x1e51;" horiz-adv-x="1180" 
d="M590 1066q-170 0 -271 -116t-100 -321v-134q1 -206 101 -320q100 -115 271 -115t271 114t100 321v134q0 205 -101 321t-271 116zM591 1147q133 1 237 -59t164 -176t59 -271v-158q0 -237 -127 -369t-334 -133q-207 0 -333 132t-126 370v158q0 237 126 371t334 135z
M887 1357h-604v65h604v-65zM695 1582h-71l-276 318h97z" />
    <glyph glyph-name="Omacronacute" unicode="&#x1e52;" 
d="M1005 1665h-585v60h585v-60zM148 606v266q0 296 150 470t416 173q266 0 416 -175t150 -470v-264q0 -296 -151 -468t-417 -172t-415 172t-149 468zM235 878v-279q0 -251 128 -401t350 -150t350 150t128 401v279q1 252 -129 404t-350 152q-144 0 -252 -69t-166 -195
t-59 -292zM599 1861l325 258h115l-346 -258h-94z" />
    <glyph glyph-name="omacronacute" unicode="&#x1e53;" horiz-adv-x="1180" 
d="M590 1066q-170 0 -271 -116t-100 -321v-134q1 -206 101 -320q100 -115 271 -115t271 114t100 321v134q0 205 -101 321t-271 116zM591 1147q133 1 237 -59t164 -176t59 -271v-158q0 -237 -127 -369t-334 -133q-207 0 -333 132t-126 370v158q0 237 126 371t334 135z
M887 1357h-604v65h604v-65zM601 1582h-70l252 318h97z" />
    <glyph glyph-name="Pacute" unicode="&#x1e54;" horiz-adv-x="1225" 
d="M296 1401v-710h358q194 0 298 89q104 90 103 262q0 172 -98 266t-274 93h-387zM206 1482h479q219 0 341 -118t121 -320q0 -202 -122 -318q-122 -117 -340 -116h-389v-610h-90v1482zM491 1646l327 260h112l-343 -260h-96z" />
    <glyph glyph-name="pacute" unicode="&#x1e55;" horiz-adv-x="1200" 
d="M612 1320h-71l252 318h98zM271 475q0 -177 100 -296t256 -119q155 0 255 108t100 311v175q0 194 -98 302t-258 110q-162 0 -259 -119t-96 -287v-185zM271 212v-578h-90v1494h87v-216h5q21 65 81 124q114 111 296 111t302 -130t120 -349v-208q0 -229 -124 -354t-299 -125
t-267 84q-77 67 -107 147h-4z" />
    <glyph glyph-name="Pdotaccent" unicode="&#x1e56;" horiz-adv-x="1225" 
d="M527 1796q0 27 22 50q23 23 47 23q60 0 78 -43q17 -43 3 -68q-26 -45 -73 -45q-46 0 -67 38q-10 18 -10 45zM296 1401v-710h358q194 0 298 89q104 90 103 262q0 172 -98 266t-274 93h-387zM206 1482h479q219 0 341 -118t121 -320q0 -202 -122 -318q-122 -117 -340 -116
h-389v-610h-90v1482z" />
    <glyph glyph-name="pdotaccent" unicode="&#x1e57;" horiz-adv-x="1200" 
d="M522 1426q0 66 53 85q11 4 34 4t47 -23t23 -61t-29 -55t-55 -17t-50 22q-23 23 -23 45zM271 475q0 -177 100 -296t256 -119q155 0 255 108t100 311v175q0 194 -98 302t-258 110q-162 0 -259 -119t-96 -287v-185zM271 212v-578h-90v1494h87v-216h5q21 65 81 124
q114 111 296 111t302 -130t120 -349v-208q0 -229 -124 -354t-299 -125t-267 84q-77 67 -107 147h-4z" />
    <glyph glyph-name="Rdotaccent" unicode="&#x1e58;" horiz-adv-x="1292" 
d="M560 1796q0 27 22 50t55 23t55 -23t22 -56t-23 -55t-50 -22t-44 10t-27 28t-10 45zM296 726h383q173 0 273 90t99 246q0 157 -100 248t-270 91h-385v-675zM693 1482q208 0 329 -116t121 -290q1 -174 -87 -276t-230 -136l342 -664h-104l-329 647h-439v-647h-90v1482h487z
" />
    <glyph glyph-name="rdotaccent" unicode="&#x1e59;" horiz-adv-x="726" 
d="M328 1381q-22 22 -22 57t22 56t54 21t55 -23t23 -62t-39 -61q-19 -10 -45 -10t-48 22zM187 0v1128h88v-208h4q21 87 101 156t221 69q40 0 92 -9v-83q-37 8 -100 8q-139 0 -229 -93q-89 -94 -89 -273v-695h-88z" />
    <glyph glyph-name="Rdotbelow" unicode="&#x1e5a;" horiz-adv-x="1292" 
d="M296 726h383q173 0 273 90t99 246q0 157 -100 248t-270 91h-385v-675zM693 1482q208 0 329 -116t121 -290q1 -174 -87 -276t-230 -136l342 -664h-104l-329 647h-439v-647h-90v1482h487zM560 -319q0 27 10 45q21 36 60 38q40 1 63 -22t23 -63t-39 -60q-19 -10 -45 -10
t-49 22t-23 50z" />
    <glyph glyph-name="rdotbelow" unicode="&#x1e5b;" horiz-adv-x="726" 
d="M187 0v1128h88v-208h4q21 87 101 156t221 69q40 0 92 -9v-83q-37 8 -100 8q-139 0 -229 -93q-89 -94 -89 -273v-695h-88zM154 -314q0 33 23 56t50 23q27 -1 46 -11q39 -22 39 -68q0 -47 -39 -67q-19 -10 -46 -10t-50 22t-23 55z" />
    <glyph glyph-name="Rdotbelowmacron" unicode="&#x1e5c;" horiz-adv-x="1292" 
d="M930 1665h-587v60h587v-60zM296 726h383q173 0 273 90t99 246q0 157 -100 248t-270 91h-385v-675zM693 1482q208 0 329 -116t121 -290q1 -174 -87 -276t-230 -136l342 -664h-104l-329 647h-439v-647h-90v1482h487zM560 -319q0 27 10 45q21 36 60 38q40 1 63 -22t23 -63
t-39 -60q-19 -10 -45 -10t-49 22t-23 50z" />
    <glyph glyph-name="rdotbelowmacron" unicode="&#x1e5d;" horiz-adv-x="726" 
d="M679 1357h-604v65h604v-65zM187 0v1128h88v-208h4q21 87 101 156t221 69q40 0 92 -9v-83q-37 8 -100 8q-139 0 -229 -93q-89 -94 -89 -273v-695h-88zM154 -314q0 33 23 56t50 23q27 -1 46 -11q39 -22 39 -68q0 -47 -39 -67q-19 -10 -46 -10t-50 22t-23 55z" />
    <glyph glyph-name="Rlinebelow" unicode="&#x1e5e;" horiz-adv-x="1292" 
d="M930 -304h-603v63h603v-63zM296 726h383q173 0 273 90t99 246q0 157 -100 248t-270 91h-385v-675zM693 1482q208 0 329 -116t121 -290q1 -174 -87 -276t-230 -136l342 -664h-104l-329 647h-439v-647h-90v1482h487z" />
    <glyph glyph-name="rlinebelow" unicode="&#x1e5f;" horiz-adv-x="726" 
d="M524 -304h-603v63h603v-63zM187 0v1128h88v-208h4q21 87 101 156t221 69q40 0 92 -9v-83q-37 8 -100 8q-139 0 -229 -93q-89 -94 -89 -273v-695h-88z" />
    <glyph glyph-name="Sdotaccent" unicode="&#x1e60;" horiz-adv-x="1242" 
d="M543 1791q0 32 23 55t56 23t55 -23t22 -50t-10 -45q-21 -38 -61 -38q-39 0 -62 23t-23 55zM1036 373q0 131 -83 199t-262 117l-194 52q-339 92 -339 377q0 181 131 290t343 109t340 -106q127 -106 129 -268h-92q-6 117 -101 204q-96 87 -274 87t-281 -85t-103 -237
t128 -226q61 -36 159 -62l187 -52q197 -52 300 -137q104 -85 104 -266t-143 -291t-371 -111q-133 -1 -236 39q-172 66 -241 234q-27 68 -29 137h92q4 -115 103 -222t327 -107q116 0 210 42q96 42 146 115q50 74 50 168z" />
    <glyph glyph-name="sdotaccent" unicode="&#x1e61;" horiz-adv-x="1040" 
d="M443 1428q1 26 7 40q21 48 62 47q40 0 64 -23t23 -62t-29 -55q-29 -16 -55 -16t-49 22t-23 47zM142 848q0 140 105 219q105 80 271 80q100 0 178 -29q134 -50 182 -172q21 -51 21 -101h-85q0 68 -63 143q-71 82 -255 82q-102 0 -185 -58q-82 -58 -82 -160t73 -151
q74 -50 192 -79t162 -41q44 -13 103 -39t89 -55q74 -72 74 -183q0 -156 -118 -239t-294 -84q-104 0 -186 28t-128 74q-94 94 -94 206h87q4 -81 79 -156t229 -75t245 62t91 173q0 158 -227 213q-33 8 -100 25q-185 46 -275 111q-89 66 -89 206z" />
    <glyph glyph-name="Sdotbelow" unicode="&#x1e62;" horiz-adv-x="1242" 
d="M1036 373q0 131 -83 199t-262 117l-194 52q-339 92 -339 377q0 181 131 290t343 109t340 -106q127 -106 129 -268h-92q-6 117 -101 204q-96 87 -274 87t-281 -85t-103 -237t128 -226q61 -36 159 -62l187 -52q197 -52 300 -137q104 -85 104 -266t-143 -291t-371 -111
q-133 -1 -236 39q-172 66 -241 234q-27 68 -29 137h92q4 -115 103 -222t327 -107q116 0 210 42q96 42 146 115q50 74 50 168zM561 -369q-22 22 -22 62t38 61q17 10 45 10t50 -22q23 -23 23 -50t-10 -45q-21 -38 -62 -38q-40 0 -62 22z" />
    <glyph glyph-name="sdotbelow" unicode="&#x1e63;" horiz-adv-x="1040" 
d="M142 848q0 140 105 219q105 80 271 80q100 0 178 -29q134 -50 182 -172q21 -51 21 -101h-85q0 68 -63 143q-71 82 -255 82q-102 0 -185 -58q-82 -58 -82 -160t73 -151q74 -50 192 -79t162 -41q44 -13 103 -39t89 -55q74 -72 74 -183q0 -156 -118 -239t-294 -84
q-104 0 -186 28t-128 74q-94 94 -94 206h87q4 -81 79 -156t229 -75t245 62t91 173q0 158 -227 213q-33 8 -100 25q-185 46 -275 111q-89 66 -89 206zM491 -385q-46 18 -46 68q0 49 38 71q17 10 45 10t50 -22q42 -41 17 -87t-75 -46q-15 0 -29 6z" />
    <glyph glyph-name="Sacutedotaccent" unicode="&#x1e64;" horiz-adv-x="1242" 
d="M1036 373q0 131 -83 199t-262 117l-194 52q-339 92 -339 377q0 181 131 290t343 109t340 -106q127 -106 129 -268h-92q-6 117 -101 204q-96 87 -274 87t-281 -85t-103 -237t128 -226q61 -36 159 -62l187 -52q197 -52 300 -137q104 -85 104 -266t-143 -291t-371 -111
q-133 -1 -236 39q-172 66 -241 234q-27 68 -29 137h92q4 -115 103 -222t327 -107q116 0 210 42q96 42 146 115q50 74 50 168zM624 1703l327 258h113l-344 -258h-96zM331 1886q0 26 21 48t52 22t53 -22t22 -52q0 -32 -22 -53t-60 -21t-57 36q-9 16 -9 42z" />
    <glyph glyph-name="sacutedotaccent" unicode="&#x1e65;" horiz-adv-x="1040" 
d="M556 1320h-71l252 318h98zM142 848q0 140 105 219q105 80 271 80q100 0 178 -29q134 -50 182 -172q21 -51 21 -101h-85q0 68 -63 143q-71 82 -255 82q-102 0 -185 -58q-82 -58 -82 -160t73 -151q74 -50 192 -79t162 -41q44 -13 103 -39t89 -55q74 -72 74 -183
q0 -156 -118 -239t-294 -84q-104 0 -186 28t-128 74q-94 94 -94 206h87q4 -81 79 -156t229 -75t245 62t91 173q0 158 -227 213q-33 8 -100 25q-185 46 -275 111q-89 66 -89 206zM348 1503q-32 0 -54 21t-21 53q0 32 22 54q23 22 53 22t52 -22t23 -54q0 -32 -22 -53
q-21 -21 -53 -21z" />
    <glyph glyph-name="Scarondotaccent" unicode="&#x1e66;" horiz-adv-x="1242" 
d="M302 1846h93l227 -179h7l226 179h92l-283 -227h-73zM1036 373q0 131 -83 199t-262 117l-194 52q-339 92 -339 377q0 181 131 290t343 109t340 -106q127 -106 129 -268h-92q-6 117 -101 204q-96 87 -274 87t-281 -85t-103 -237t128 -226q61 -36 159 -62l187 -52
q197 -52 300 -137q104 -85 104 -266t-143 -291t-371 -111q-133 -1 -236 39q-172 66 -241 234q-27 68 -29 137h92q4 -115 103 -222t327 -107q116 0 210 42q96 42 146 115q50 74 50 168zM547 1977q0 31 21 53t52 22t52 -22t21 -53t-21 -51t-52 -20t-52 20t-21 51z" />
    <glyph glyph-name="scarondotaccent" unicode="&#x1e67;" horiz-adv-x="1040" 
d="M142 848q0 140 105 219q105 80 271 80q100 0 178 -29q134 -50 182 -172q21 -51 21 -101h-85q0 68 -63 143q-71 82 -255 82q-102 0 -185 -58q-82 -58 -82 -160t73 -151q74 -50 192 -79t162 -41q44 -13 103 -39t89 -55q74 -72 74 -183q0 -156 -118 -239t-294 -84
q-104 0 -186 28t-128 74q-94 94 -94 206h87q4 -81 79 -156t229 -75t245 62t91 173q0 158 -227 213q-33 8 -100 25q-185 46 -275 111q-89 66 -89 206zM250 1675h81l202 -293h6l196 293h81l-244 -353h-70zM458 1816q0 26 10 44q20 36 58 36t60 -22t22 -54t-22 -53t-53 -21
t-53 22t-22 48z" />
    <glyph glyph-name="Sdotbelowdotaccent" unicode="&#x1e68;" horiz-adv-x="1242" 
d="M543 1791q0 32 23 55t56 23t55 -23t22 -50t-10 -45q-21 -38 -61 -38q-39 0 -62 23t-23 55zM1036 373q0 131 -83 199t-262 117l-194 52q-339 92 -339 377q0 181 131 290t343 109t340 -106q127 -106 129 -268h-92q-6 117 -101 204q-96 87 -274 87t-281 -85t-103 -237
t128 -226q61 -36 159 -62l187 -52q197 -52 300 -137q104 -85 104 -266t-143 -291t-371 -111q-133 -1 -236 39q-172 66 -241 234q-27 68 -29 137h92q4 -115 103 -222t327 -107q116 0 210 42q96 42 146 115q50 74 50 168zM561 -369q-22 22 -22 62t38 61q17 10 45 10t50 -22
q23 -23 23 -50t-10 -45q-21 -38 -62 -38q-40 0 -62 22z" />
    <glyph glyph-name="sdotbelowdotaccent" unicode="&#x1e69;" horiz-adv-x="1040" 
d="M443 1428q1 26 7 40q21 48 62 47q40 0 64 -23t23 -62t-29 -55q-29 -16 -55 -16t-49 22t-23 47zM142 848q0 140 105 219q105 80 271 80q100 0 178 -29q134 -50 182 -172q21 -51 21 -101h-85q0 68 -63 143q-71 82 -255 82q-102 0 -185 -58q-82 -58 -82 -160t73 -151
q74 -50 192 -79t162 -41q44 -13 103 -39t89 -55q74 -72 74 -183q0 -156 -118 -239t-294 -84q-104 0 -186 28t-128 74q-94 94 -94 206h87q4 -81 79 -156t229 -75t245 62t91 173q0 158 -227 213q-33 8 -100 25q-185 46 -275 111q-89 66 -89 206zM491 -385q-46 18 -46 68
q0 49 38 71q17 10 45 10t50 -22q42 -41 17 -87t-75 -46q-15 0 -29 6z" />
    <glyph glyph-name="Tdotaccent" unicode="&#x1e6a;" horiz-adv-x="1115" 
d="M604 0h-88v1401h-501v81h1086v-81h-497v-1401zM481 1796q0 27 22 50t56 23t56 -23t22 -50q-1 -27 -11 -45q-22 -38 -68 -38t-67 38q-10 18 -10 45z" />
    <glyph glyph-name="tdotaccent" unicode="&#x1e6b;" horiz-adv-x="722" 
d="M244 1128v275h87v-275h302v-77h-302v-799q0 -100 49 -140q48 -40 138 -40t129 7v-73q-46 -8 -114 -8q-164 0 -227 59q-62 59 -62 209v785h-213v77h213zM212 1708q0 32 22 55t49 23t45 -10q38 -22 38 -69t-38 -66q-18 -9 -45 -9t-49 22t-22 54z" />
    <glyph glyph-name="Tdotbelow" unicode="&#x1e6c;" horiz-adv-x="1115" 
d="M604 0h-88v1401h-501v81h1086v-81h-497v-1401zM481 -314q0 33 23 56t56 23t56 -23t23 -50q0 -53 -40 -73q-19 -10 -45 -10t-50 22q-23 22 -23 55z" />
    <glyph glyph-name="tdotbelow" unicode="&#x1e6d;" horiz-adv-x="722" 
d="M244 1128v275h87v-275h302v-77h-302v-799q0 -100 49 -140q48 -40 138 -40t129 7v-73q-46 -8 -114 -8q-164 0 -227 59q-62 59 -62 209v785h-213v77h213zM400 -385q-46 18 -46 68q0 49 37 71q17 10 45 10t51 -22q23 -23 23 -50q0 -53 -40 -73q-20 -10 -38 -10t-32 6z" />
    <glyph glyph-name="Tlinebelow" unicode="&#x1e6e;" horiz-adv-x="1115" 
d="M604 0h-88v1401h-501v81h1086v-81h-497v-1401zM851 -304h-603v63h603v-63z" />
    <glyph glyph-name="tlinebelow" unicode="&#x1e6f;" horiz-adv-x="722" 
d="M244 1128v275h87v-275h302v-77h-302v-799q0 -100 49 -140q48 -40 138 -40t129 7v-73q-46 -8 -114 -8q-164 0 -227 59q-62 59 -62 209v785h-213v77h213zM724 -304h-603v63h603v-63z" />
    <glyph glyph-name="Tcircumflexbelow" unicode="&#x1e70;" horiz-adv-x="1115" 
d="M273 -458l251 352h71l244 -354h-81l-196 293h-6l-202 -291h-81zM604 0h-88v1401h-501v81h1086v-81h-497v-1401z" />
    <glyph glyph-name="tcircumflexbelow" unicode="&#x1e71;" horiz-adv-x="722" 
d="M146 -458l252 352h68l244 -354h-81l-196 293h-6l-202 -291h-79zM244 1128v275h87v-275h302v-77h-302v-799q0 -100 49 -140q48 -40 138 -40t129 7v-73q-46 -8 -114 -8q-164 0 -227 59q-62 59 -62 209v785h-213v77h213z" />
    <glyph glyph-name="Udieresisbelow" unicode="&#x1e72;" 
d="M799 -289q0 31 22 53t53 22t52 -22t21 -54t-22 -53t-52 -21t-52 22t-22 53zM483 -289q0 31 22 53t47 22t51 -16t27 -53t-21 -59t-52 -22t-52 22t-22 53zM273 1482v-970q-1 -214 115 -338t326 -124t325 124q114 124 114 338v970h92v-970q0 -250 -142 -398
q-141 -148 -389 -148t-390 148t-141 398v970h90z" />
    <glyph glyph-name="udieresisbelow" unicode="&#x1e73;" horiz-adv-x="1196" 
d="M685 -283q0 25 22 47t53 22t52 -22t21 -53t-21 -53t-47 -22t-43 10t-27 28t-10 43zM368 -289q0 31 22 53t45 22t37 -6q44 -21 44 -61q0 -39 -22 -61t-52 -22t-52 22t-22 53zM1016 1128v-1128h-88v210h-4q-47 -129 -186 -192q-80 -36 -180 -37q-171 0 -279 99t-108 284
v764h89v-747q0 -148 84 -233q84 -86 238 -86t251 114q96 114 95 276v676h88z" />
    <glyph glyph-name="Utildebelow" unicode="&#x1e74;" 
d="M273 1482v-970q-1 -214 115 -338t326 -124t325 124q114 124 114 338v970h92v-970q0 -250 -142 -398q-141 -148 -389 -148t-390 148t-141 398v970h90zM379 -402q0 110 46 170t135 61q52 0 90 -25t78 -74q40 -48 68 -66t73 -18t78 48t35 123h71q0 -100 -54 -168
q-53 -67 -125 -67t-112 22t-70 58q-30 38 -46 55q-41 44 -90 44q-106 0 -109 -163h-68z" />
    <glyph glyph-name="utildebelow" unicode="&#x1e75;" horiz-adv-x="1196" 
d="M1016 1128v-1128h-88v210h-4q-47 -129 -186 -192q-80 -36 -180 -37q-171 0 -279 99t-108 284v764h89v-747q0 -148 84 -233q84 -86 238 -86t251 114q96 114 95 276v676h88zM443 -239q-108 0 -110 -163h-69q0 110 46 170t135 61q52 0 91 -25t78 -74q40 -48 68 -66t63 -18
q73 0 105 82q16 39 18 89h71q0 -100 -54 -168q-54 -67 -126 -67t-112 22t-76 66q-36 45 -64 68t-64 23z" />
    <glyph glyph-name="Ucircumflexbelow" unicode="&#x1e76;" 
d="M429 -458l252 352h70l244 -354h-81l-198 293h-4l-204 -291h-79zM273 1482v-970q-1 -214 115 -338t326 -124t325 124q114 124 114 338v970h92v-970q0 -250 -142 -398q-141 -148 -389 -148t-390 148t-141 398v970h90z" />
    <glyph glyph-name="ucircumflexbelow" unicode="&#x1e77;" horiz-adv-x="1196" 
d="M314 -458l252 352h71l243 -354h-81l-198 293h-4l-204 -291h-79zM1016 1128v-1128h-88v210h-4q-47 -129 -186 -192q-80 -36 -180 -37q-171 0 -279 99t-108 284v764h89v-747q0 -148 84 -233q84 -86 238 -86t251 114q96 114 95 276v676h88z" />
    <glyph glyph-name="Utildeacute" unicode="&#x1e78;" 
d="M564 1782q-96 0 -96 -140h-62q0 94 41 148q43 54 105 54t96 -22t70 -66t58 -59q23 -15 64 -15t71 42t30 108h64q0 -122 -82 -180q-39 -28 -91 -28t-84 18q-32 19 -69 61q-31 39 -57 59t-58 20zM273 1482v-970q-1 -214 115 -338t326 -124t325 124q114 124 114 338v970h92
v-970q0 -250 -142 -398q-141 -148 -389 -148t-390 148t-141 398v970h90zM599 1861l327 258h113l-344 -258h-96z" />
    <glyph glyph-name="utildeacute" unicode="&#x1e79;" horiz-adv-x="1196" 
d="M429 1486q-108 0 -108 -160h-71q0 108 47 168t117 60t110 -24q38 -25 78 -74t66 -66q27 -16 72 -16t80 46t35 122h69q0 -100 -53 -168t-125 -67q-72 0 -110 22q-39 22 -75 67q-35 46 -65 68t-67 22zM612 1582h-71l250 318h98zM1016 1128v-1128h-88v210h-4
q-47 -129 -186 -192q-80 -36 -180 -37q-171 0 -279 99t-108 284v764h89v-747q0 -148 84 -233q84 -86 238 -86t251 114q96 114 95 276v676h88z" />
    <glyph glyph-name="Umacrondieresis" unicode="&#x1e7a;" 
d="M1007 1665h-587v60h587v-60zM273 1482v-970q-1 -214 115 -338t326 -124t325 124q114 124 114 338v970h92v-970q0 -250 -142 -398q-141 -148 -389 -148t-390 148t-141 398v970h90zM810 1992q0 25 18 44q19 18 45 18t44 -18t18 -44q0 -25 -18 -46t-44 -21t-45 21
q-18 21 -18 46zM495 1992q0 25 18 44q18 18 45 18t45 -18q17 -18 17 -45q0 -26 -18 -46t-44 -20q-27 0 -45 21t-18 46z" />
    <glyph glyph-name="umacrondieresis" unicode="&#x1e7b;" horiz-adv-x="1196" 
d="M685 1707q0 31 22 52t53 21t52 -21t21 -52t-21 -53t-52 -22t-53 22t-22 53zM368 1707q0 31 22 52t47 21t43 -10q36 -19 36 -56q0 -38 -22 -60t-52 -22t-52 22t-22 53zM895 1357h-604v65h604v-65zM1016 1128v-1128h-88v210h-4q-47 -129 -186 -192q-80 -36 -180 -37
q-171 0 -279 99t-108 284v764h89v-747q0 -148 84 -233q84 -86 238 -86t251 114q96 114 95 276v676h88z" />
    <glyph glyph-name="Vtilde" unicode="&#x1e7c;" horiz-adv-x="1265" 
d="M679 0h-100l-537 1482h100l487 -1372h4l493 1372h98zM483 1782q-96 0 -96 -140h-62q0 94 41 148q42 54 104 54t97 -22t71 -66t58 -59t62 -15t71 42q30 42 33 108h62q0 -88 -48 -148t-117 -60t-118 37q-19 15 -44 42q-31 39 -56 59t-58 20z" />
    <glyph glyph-name="vtilde" unicode="&#x1e7d;" horiz-adv-x="1005" 
d="M456 0l-416 1128h97l363 -1022h4l366 1022h96l-419 -1128h-91zM333 1486q-108 0 -108 -160h-71q0 108 47 168t134 61q52 0 91 -25t86 -81q31 -42 59 -59q28 -16 73 -16t79 46t35 122h70q0 -100 -54 -168t-126 -67q-72 0 -110 22q-39 21 -66 55q-67 84 -94 93t-45 9z" />
    <glyph glyph-name="Vdotbelow" unicode="&#x1e7e;" horiz-adv-x="1265" 
d="M679 0h-100l-537 1482h100l487 -1372h4l493 1372h98zM556 -319q0 27 10 45q21 36 61 38q41 1 64 -22t23 -50t-10 -45q-22 -38 -62 -38t-63 22t-23 50z" />
    <glyph glyph-name="vdotbelow" unicode="&#x1e7f;" horiz-adv-x="1005" 
d="M456 0l-416 1128h97l363 -1022h4l366 1022h96l-419 -1128h-91zM427 -314q0 33 22 56t55 23t56 -23t23 -50q-1 -27 -11 -45q-22 -38 -61 -38q-40 0 -62 22t-22 55z" />
    <glyph glyph-name="Wgrave" unicode="&#x1e80;" horiz-adv-x="1821" 
d="M527 0h-96l-394 1482h100l342 -1345h4l381 1345h95l379 -1345h4l342 1345h100l-396 -1482h-93l-381 1336h-7zM1018 1650h-96l-343 259h114z" />
    <glyph glyph-name="wgrave" unicode="&#x1e81;" horiz-adv-x="1523" 
d="M1482 1128l-308 -1128h-90l-318 1001h-4l-317 -1001h-89l-314 1128h100l258 -1001h4l314 1001h90l316 -1001h6l260 1001h92zM868 1320h-71l-277 318h98z" />
    <glyph glyph-name="Wacute" unicode="&#x1e82;" horiz-adv-x="1821" 
d="M527 0h-96l-394 1482h100l342 -1345h4l381 1345h95l379 -1345h4l342 1345h100l-396 -1482h-93l-381 1336h-7zM797 1646l327 260h112l-343 -260h-96z" />
    <glyph glyph-name="wacute" unicode="&#x1e83;" horiz-adv-x="1523" 
d="M1482 1128l-308 -1128h-90l-318 1001h-4l-317 -1001h-89l-314 1128h100l258 -1001h4l314 1001h90l316 -1001h6l260 1001h92zM774 1320h-71l252 318h98z" />
    <glyph glyph-name="Wdieresis" unicode="&#x1e84;" horiz-adv-x="1821" 
d="M527 0h-96l-394 1482h100l342 -1345h4l381 1345h95l379 -1345h4l342 1345h100l-396 -1482h-93l-381 1336h-7zM1014 1703q0 25 8 39q18 32 49 33q32 -1 50 -19q32 -33 12 -70q-21 -38 -48 -39q-26 -1 -40 10q-31 21 -31 46zM717 1667q-18 21 -18 51t22 43q22 14 45 14
q23 -1 41 -19q17 -18 17 -44t-18 -46t-44 -20q-27 0 -45 21z" />
    <glyph glyph-name="wdieresis" unicode="&#x1e85;" horiz-adv-x="1523" 
d="M1482 1128l-308 -1128h-90l-318 1001h-4l-317 -1001h-89l-314 1128h100l258 -1001h4l314 1001h90l316 -1001h6l260 1001h92zM849 1407q0 31 22 53t52 22t52 -22t22 -53t-22 -53t-52 -22t-52 22t-22 53zM533 1407q0 31 22 53t52 22t52 -22t22 -53t-22 -53t-52 -22t-52 22
t-22 53z" />
    <glyph glyph-name="Wdotaccent" unicode="&#x1e86;" horiz-adv-x="1821" 
d="M527 0h-96l-394 1482h100l342 -1345h4l381 1345h95l379 -1345h4l342 1345h100l-396 -1482h-93l-381 1336h-7zM833 1796q0 27 22 50q23 23 55 23t56 -23q23 -23 23 -56t-23 -55t-50 -22t-45 10t-28 28t-10 45z" />
    <glyph glyph-name="wdotaccent" unicode="&#x1e87;" horiz-adv-x="1523" 
d="M1482 1128l-308 -1128h-90l-318 1001h-4l-317 -1001h-89l-314 1128h100l258 -1001h4l314 1001h90l316 -1001h6l260 1001h92zM685 1436q0 33 23 56t55 23t55 -23t23 -61q1 -38 -29 -55t-56 -17t-48 22q-23 22 -23 55z" />
    <glyph glyph-name="Wdotbelow" unicode="&#x1e88;" horiz-adv-x="1821" 
d="M527 0h-96l-394 1482h100l342 -1345h4l381 1345h95l379 -1345h4l342 1345h100l-396 -1482h-93l-381 1336h-7zM835 -319q0 27 10 45q21 36 60 38q40 1 63 -22t23 -50q-1 -27 -11 -45q-22 -38 -61 -38q-40 0 -63 22q-21 22 -21 50z" />
    <glyph glyph-name="wdotbelow" unicode="&#x1e89;" horiz-adv-x="1523" 
d="M1482 1128l-308 -1128h-90l-318 1001h-4l-317 -1001h-89l-314 1128h100l258 -1001h4l314 1001h90l316 -1001h6l260 1001h92zM687 -308q0 27 22 50t55 23t56 -23t23 -50q0 -53 -40 -73q-19 -10 -39 -10t-39 10q-18 10 -28 28t-10 45z" />
    <glyph glyph-name="Xdotaccent" unicode="&#x1e8a;" horiz-adv-x="1221" 
d="M533 1796q0 27 23 50t56 23t55 -23t22 -63q0 -39 -39 -60q-18 -10 -40 -10t-39 10q-18 10 -28 28t-10 45zM1176 1482l-512 -745l506 -737h-109l-449 666h-6l-452 -666h-104l506 741l-506 741h106l456 -668h4l456 668h104z" />
    <glyph glyph-name="xdotaccent" unicode="&#x1e8b;" horiz-adv-x="1053" 
d="M487 1369q-37 22 -37 70q0 49 45 70q15 6 39 6t48 -23t24 -60t-41 -63q-18 -10 -40 -10t-38 10zM868 0l-341 495h-5l-343 -495h-100l396 566l-388 562h107l330 -485h5l335 485h102l-389 -556l395 -572h-104z" />
    <glyph glyph-name="Xdieresis" unicode="&#x1e8c;" horiz-adv-x="1221" 
d="M777 1646q-27 0 -45 21t-18 46t19 44t45 19t44 -20q19 -18 19 -44t-19 -46t-45 -20zM400 1708q0 20 8 34q18 32 50 33q33 0 51 -18q18 -19 18 -37q0 -47 -39 -68q-39 -20 -63 8q-25 28 -25 48zM1176 1482l-512 -745l506 -737h-109l-449 666h-6l-452 -666h-104l506 741
l-506 741h106l456 -668h4l456 668h104z" />
    <glyph glyph-name="xdieresis" unicode="&#x1e8d;" horiz-adv-x="1053" 
d="M612 1407q0 31 22 53t53 22t52 -22t21 -45t-6 -37q-19 -46 -69 -46q-29 0 -51 22t-22 53zM296 1407q0 31 21 53q22 22 52 22t52 -22t22 -53t-22 -53t-52 -22t-52 22q-21 22 -21 53zM868 0l-341 495h-5l-343 -495h-100l396 566l-388 562h107l330 -485h5l335 485h102
l-389 -556l395 -572h-104z" />
    <glyph glyph-name="Ydotaccent" unicode="&#x1e8e;" horiz-adv-x="1153" 
d="M500 1786q0 27 10 45q21 38 70 38t67 -43q17 -43 -3 -78q-21 -35 -59 -35q-39 0 -63 23q-22 23 -22 50zM622 0h-89v662l-512 820h106l447 -729h7l449 729h102l-510 -818v-664z" />
    <glyph glyph-name="ydotaccent" unicode="&#x1e8f;" horiz-adv-x="1003" 
d="M425 1436q0 33 21 56q22 23 54 23t56 -23q23 -23 23 -56t-23 -55t-55 -22t-55 22q-21 22 -21 55zM224 -291q137 0 201 172l35 104l-420 1143h95l369 -1036h4l362 1036h94l-452 -1255q-52 -129 -97 -170q-82 -75 -201 -73q-52 0 -104 8v79q44 -8 114 -8z" />
    <glyph glyph-name="Zcircumflex" unicode="&#x1e90;" horiz-adv-x="1255" 
d="M310 1636l302 231h46l295 -231h-102l-214 166h-6l-217 -166h-104zM104 0v71l926 1326v4h-897v81h1008v-71l-925 -1326v-6h929v-79h-1041z" />
    <glyph glyph-name="zcircumflex" unicode="&#x1e91;" horiz-adv-x="1053" 
d="M137 0v67l679 980v4h-681v77h791v-71l-678 -976v-4h678v-77h-789zM244 1342l251 354h71l244 -354h-82l-197 294h-4l-202 -294h-81z" />
    <glyph glyph-name="Zdotbelow" unicode="&#x1e92;" horiz-adv-x="1255" 
d="M104 0v71l926 1326v4h-897v81h1008v-71l-925 -1326v-6h929v-79h-1041zM552 -319q0 27 10 45q21 36 60 38q40 1 63 -22t23 -56t-23 -55t-56 -22t-56 22q-21 22 -21 50z" />
    <glyph glyph-name="zdotbelow" unicode="&#x1e93;" horiz-adv-x="1053" 
d="M137 0v67l679 980v4h-681v77h791v-71l-678 -976v-4h678v-77h-789zM452 -320q0 28 10 46q21 36 60 38q40 1 63 -22t23 -50t-11 -45q-21 -38 -61 -38t-62 21t-22 50z" />
    <glyph glyph-name="Zlinebelow" unicode="&#x1e94;" horiz-adv-x="1255" 
d="M922 -304h-604v63h604v-63zM104 0v71l926 1326v4h-897v81h1008v-71l-925 -1326v-6h929v-79h-1041z" />
    <glyph glyph-name="zlinebelow" unicode="&#x1e95;" horiz-adv-x="1053" 
d="M137 0v67l679 980v4h-681v77h791v-71l-678 -976v-4h678v-77h-789zM822 -304h-603v63h603v-63z" />
    <glyph glyph-name="hlinebelow" unicode="&#x1e96;" horiz-adv-x="1213" 
d="M899 -304h-603v63h603v-63zM187 0v1563h86v-645h4q31 94 124 162t254 67q161 1 271 -111t110 -303v-733h-89v720q0 152 -83 248q-84 96 -242 96t-254 -110t-95 -271v-683h-86z" />
    <glyph glyph-name="tdieresis" unicode="&#x1e97;" horiz-adv-x="722" 
d="M522 1679q0 -74 -79 -74q-25 0 -47 22q-21 22 -21 52t21 52q38 38 82 16t44 -68zM58 1679q0 30 22 52q22 21 52 21t52 -20t22 -52q0 -31 -22 -53t-52 -22t-52 22t-22 52zM244 1128v275h87v-275h302v-77h-302v-799q0 -100 49 -140q48 -40 138 -40t129 7v-73
q-46 -8 -114 -8q-164 0 -227 59q-62 59 -62 209v785h-213v77h213z" />
    <glyph glyph-name="wring" unicode="&#x1e98;" horiz-adv-x="1523" 
d="M635 1479q0 -53 37 -91q36 -38 90 -37q54 0 91 37q37 36 37 90t-36 91q-38 37 -91 37t-91 -36q-38 -38 -37 -91zM748 1290q-66 0 -120 56q-56 56 -56 132t54 130t122 55q66 0 108 -24t68 -67q25 -44 25 -94t-25 -94q-26 -44 -68 -69t-108 -25zM1482 1128l-308 -1128h-90
l-318 1001h-4l-317 -1001h-89l-314 1128h100l258 -1001h4l314 1001h90l316 -1001h6l260 1001h92z" />
    <glyph glyph-name="yring" unicode="&#x1e99;" horiz-adv-x="1003" 
d="M373 1470q0 -44 38 -82q39 -37 91 -37t90 37t39 77q0 96 -80 131q-60 25 -119 -9t-59 -117zM687 1479q0 -77 -54 -133t-132 -56q-77 0 -133 56t-56 133q0 78 55 131t133 53t133 -53q54 -53 54 -131zM224 -291q137 0 201 172l35 104l-420 1143h95l369 -1036h4l362 1036h94
l-452 -1255q-52 -129 -97 -170q-82 -75 -201 -73q-52 0 -104 8v79q44 -8 114 -8z" />
    <glyph glyph-name="Adotbelow" unicode="&#x1ea0;" horiz-adv-x="1250" 
d="M549 -320q0 39 23 62t55 23q33 0 57 -23t24 -50t-10 -45q-22 -38 -72 -38q-21 0 -38 10q-39 22 -39 61zM629 1372h-7l-281 -798h566zM142 0h-94l531 1482h93l531 -1482h-96l-172 500h-619z" />
    <glyph glyph-name="adotbelow" unicode="&#x1ea1;" horiz-adv-x="1105" 
d="M477 -314q0 33 21 56q22 23 56 23t56 -23q23 -23 23 -50q-1 -27 -11 -45q-22 -38 -61 -38q-40 0 -63 22q-21 22 -21 55zM493 60q144 0 246 91t102 230v171h-344q-147 0 -219 -62t-72 -157q0 -177 139 -242q65 -31 148 -31zM472 -19q-154 0 -258 91q-102 92 -102 240
t99 233t284 86h346v164q0 181 -141 243q-66 28 -148 28q-154 0 -224 -64t-78 -134h-88q6 117 106 198t279 81q179 -1 281 -87t102 -252v-808h-87v183h-4q-29 -71 -121 -137t-246 -65z" />
    <glyph glyph-name="Ahookabove" unicode="&#x1ea2;" horiz-adv-x="1250" 
d="M703 1746q0 102 -115 102q-51 0 -107 -25v65q37 25 103 25q126 0 170 -72q22 -34 22 -80q0 -96 -116 -163l-40 52q83 44 83 96zM629 1372h-7l-281 -798h566zM142 0h-94l531 1482h93l531 -1482h-96l-172 500h-619z" />
    <glyph glyph-name="ahookabove" unicode="&#x1ea3;" horiz-adv-x="1105" 
d="M543 1638q81 0 134 -45t54 -119q0 -98 -119 -175l-46 54q90 56 90 118t-74 91q-22 7 -66 7t-91 -27v69q37 27 118 27zM493 60q144 0 246 91t102 230v171h-344q-147 0 -219 -62t-72 -157q0 -177 139 -242q65 -31 148 -31zM472 -19q-154 0 -258 91q-102 92 -102 240t99 233
t284 86h346v164q0 181 -141 243q-66 28 -148 28q-154 0 -224 -64t-78 -134h-88q6 117 106 198t279 81q179 -1 281 -87t102 -252v-808h-87v183h-4q-29 -71 -121 -137t-246 -65z" />
    <glyph glyph-name="Acircumflexacute" unicode="&#x1ea4;" horiz-adv-x="1250" 
d="M814 1875l283 246h112l-335 -264zM306 1671l298 231h45l302 -231h-106l-214 167h-7l-216 -167h-102zM629 1372h-7l-281 -798h566zM142 0h-94l531 1482h93l531 -1482h-96l-172 500h-619z" />
    <glyph glyph-name="acircumflexacute" unicode="&#x1ea5;" horiz-adv-x="1105" 
d="M739 1521l283 246h112l-335 -264zM231 1317l298 231h45l302 -231h-104l-216 167h-7l-214 -167h-104zM493 60q144 0 246 91t102 230v171h-344q-147 0 -219 -62t-72 -157q0 -177 139 -242q65 -31 148 -31zM472 -19q-154 0 -258 91q-102 92 -102 240t99 233t284 86h346v164
q0 181 -141 243q-66 28 -148 28q-154 0 -224 -64t-78 -134h-88q6 117 106 198t279 81q179 -1 281 -87t102 -252v-808h-87v183h-4q-29 -71 -121 -137t-246 -65z" />
    <glyph glyph-name="Acircumflexgrave" unicode="&#x1ea6;" horiz-adv-x="1250" 
d="M951 1671h-106l-214 167h-7l-216 -167h-102l298 231h45zM1080 1857h-87l-337 264h112zM629 1372h-7l-281 -798h566zM142 0h-94l531 1482h93l531 -1482h-96l-172 500h-619z" />
    <glyph glyph-name="acircumflexgrave" unicode="&#x1ea7;" horiz-adv-x="1105" 
d="M876 1317h-104l-216 167h-7l-214 -167h-104l298 231h45zM1007 1503h-87l-339 264h112zM493 60q144 0 246 91t102 230v171h-344q-147 0 -219 -62t-72 -157q0 -177 139 -242q65 -31 148 -31zM472 -19q-154 0 -258 91q-102 92 -102 240t99 233t284 86h346v164
q0 181 -141 243q-66 28 -148 28q-154 0 -224 -64t-78 -134h-88q6 117 106 198t279 81q179 -1 281 -87t102 -252v-808h-87v183h-4q-29 -71 -121 -137t-246 -65z" />
    <glyph glyph-name="Acircumflexhookabove" unicode="&#x1ea8;" horiz-adv-x="1250" 
d="M957 2096q46 -35 44 -94q0 -83 -114 -150l-44 38q89 48 89 106q0 35 -30 57t-74 22t-79 -10v56q52 10 107 10t101 -35zM304 1667l302 227h45l296 -227h-102l-214 165h-7l-216 -165h-104zM629 1372h-7l-281 -798h566zM142 0h-94l531 1482h93l531 -1482h-96l-172 500h-619z
" />
    <glyph glyph-name="acircumflexhookabove" unicode="&#x1ea9;" horiz-adv-x="1105" 
d="M780 1777q54 0 100 -33t46 -98q0 -83 -114 -147l-44 37q89 48 89 106q0 35 -30 57t-74 22t-77 -10v56q50 10 104 10zM229 1313l302 227h46l297 -227h-102l-216 165h-7l-214 -165h-106zM493 60q144 0 246 91t102 230v171h-344q-147 0 -219 -62t-72 -157q0 -177 139 -242
q65 -31 148 -31zM472 -19q-154 0 -258 91q-102 92 -102 240t99 233t284 86h346v164q0 181 -141 243q-66 28 -148 28q-154 0 -224 -64t-78 -134h-88q6 117 106 198t279 81q179 -1 281 -87t102 -252v-808h-87v183h-4q-29 -71 -121 -137t-246 -65z" />
    <glyph glyph-name="Acircumflextilde" unicode="&#x1eaa;" horiz-adv-x="1250" 
d="M389 1965h-68q1 93 43 143t106 50t97 -21q34 -21 83 -75q48 -54 102 -56q54 0 84 39t30 99h69q0 -84 -49 -140q-48 -56 -114 -56t-102 18t-74 61q-64 69 -111 71q-96 0 -96 -133zM304 1661l302 231h45l298 -231h-104l-214 166h-7l-214 -166h-106zM629 1372h-7l-281 -798
h566zM142 0h-94l531 1482h93l531 -1482h-96l-172 500h-619z" />
    <glyph glyph-name="acircumflextilde" unicode="&#x1eab;" horiz-adv-x="1105" 
d="M316 1611h-68q0 93 42 143t106 50t98 -22t83 -75q49 -54 103 -54q54 1 82 39q29 38 31 98h67q0 -84 -49 -140t-115 -56t-100 18q-36 18 -62 47t-50 51q-36 34 -74 34q-94 0 -94 -133zM229 1307l302 231h46l297 -231h-102l-216 167h-4l-217 -167h-106zM493 60
q144 0 246 91t102 230v171h-344q-147 0 -219 -62t-72 -157q0 -177 139 -242q65 -31 148 -31zM472 -19q-154 0 -258 91q-102 92 -102 240t99 233t284 86h346v164q0 181 -141 243q-66 28 -148 28q-154 0 -224 -64t-78 -134h-88q6 117 106 198t279 81q179 -1 281 -87t102 -252
v-808h-87v183h-4q-29 -71 -121 -137t-246 -65z" />
    <glyph glyph-name="Acircumflexdotbelow" unicode="&#x1eac;" horiz-adv-x="1250" 
d="M308 1636l302 231h46l297 -231h-104l-214 166h-4l-217 -166h-106zM549 -320q0 39 23 62t55 23q33 0 57 -23t24 -50t-10 -45q-22 -38 -72 -38q-21 0 -38 10q-39 22 -39 61zM629 1372h-7l-281 -798h566zM142 0h-94l531 1482h93l531 -1482h-96l-172 500h-619z" />
    <glyph glyph-name="acircumflexdotbelow" unicode="&#x1ead;" horiz-adv-x="1105" 
d="M477 -314q0 33 21 56q22 23 56 23t56 -23q23 -23 23 -50q-1 -27 -11 -45q-22 -38 -61 -38q-40 0 -63 22q-21 22 -21 55zM268 1342l252 354h71l244 -354h-82l-197 294h-4l-202 -294h-82zM493 60q144 0 246 91t102 230v171h-344q-147 0 -219 -62t-72 -157q0 -177 139 -242
q65 -31 148 -31zM472 -19q-154 0 -258 91q-102 92 -102 240t99 233t284 86h346v164q0 181 -141 243q-66 28 -148 28q-154 0 -224 -64t-78 -134h-88q6 117 106 198t279 81q179 -1 281 -87t102 -252v-808h-87v183h-4q-29 -71 -121 -137t-246 -65z" />
    <glyph glyph-name="Abreveacute" unicode="&#x1eae;" horiz-adv-x="1250" 
d="M529 1857l331 272h106l-342 -272h-95zM922 1865q0 -98 -84 -169t-212 -71t-208 70q-81 70 -81 170h71q0 -75 61 -125t157 -50t162 50t65 125h69zM629 1372h-7l-281 -798h566zM142 0h-94l531 1482h93l531 -1482h-96l-172 500h-619z" />
    <glyph glyph-name="abreveacute" unicode="&#x1eaf;" horiz-adv-x="1105" 
d="M456 1503l329 272h108l-344 -272h-93zM849 1511q0 -98 -85 -169q-85 -70 -211 -70t-209 69q-82 70 -82 170h73q0 -75 61 -125q60 -50 156 -50t162 50t64 125h71zM493 60q144 0 246 91t102 230v171h-344q-147 0 -219 -62t-72 -157q0 -177 139 -242q65 -31 148 -31z
M472 -19q-154 0 -258 91q-102 92 -102 240t99 233t284 86h346v164q0 181 -141 243q-66 28 -148 28q-154 0 -224 -64t-78 -134h-88q6 117 106 198t279 81q179 -1 281 -87t102 -252v-808h-87v183h-4q-29 -71 -121 -137t-246 -65z" />
    <glyph glyph-name="Abrevegrave" unicode="&#x1eb0;" horiz-adv-x="1250" 
d="M743 1857h-96l-341 272h106zM922 1865q0 -98 -84 -169t-212 -71t-208 70q-81 70 -81 170h71q0 -75 61 -125t157 -50t162 50t65 125h69zM629 1372h-7l-281 -798h566zM142 0h-94l531 1482h93l531 -1482h-96l-172 500h-619z" />
    <glyph glyph-name="abrevegrave" unicode="&#x1eb1;" horiz-adv-x="1105" 
d="M668 1503h-94l-343 272h108zM849 1511q0 -98 -85 -169q-85 -70 -211 -70t-209 69q-82 70 -82 170h73q0 -75 61 -125q60 -50 156 -50t162 50t64 125h71zM493 60q144 0 246 91t102 230v171h-344q-147 0 -219 -62t-72 -157q0 -177 139 -242q65 -31 148 -31zM472 -19
q-154 0 -258 91q-102 92 -102 240t99 233t284 86h346v164q0 181 -141 243q-66 28 -148 28q-154 0 -224 -64t-78 -134h-88q6 117 106 198t279 81q179 -1 281 -87t102 -252v-808h-87v183h-4q-29 -71 -121 -137t-246 -65z" />
    <glyph glyph-name="Abrevehookabove" unicode="&#x1eb2;" horiz-adv-x="1250" 
d="M699 1992q0 37 -32 60q-31 23 -75 23t-84 -12v58q48 12 106 12t108 -34t50 -101q0 -96 -131 -156l-42 48q100 46 100 102zM922 1865q0 -98 -84 -169t-212 -71t-208 70q-81 70 -81 170h71q0 -75 61 -125t157 -50t162 50t65 125h69zM629 1372h-7l-281 -798h566zM142 0h-94
l531 1482h93l531 -1482h-96l-172 500h-619z" />
    <glyph glyph-name="abrevehookabove" unicode="&#x1eb3;" horiz-adv-x="1105" 
d="M624 1638q0 37 -32 60t-74 23t-85 -12v58q135 34 214 -22q50 -34 50 -101q0 -96 -131 -156l-42 48q100 46 100 102zM849 1511q0 -98 -85 -169q-85 -70 -211 -70t-209 69q-82 70 -82 170h73q0 -75 61 -125q60 -50 156 -50t162 50t64 125h71zM493 60q144 0 246 91t102 230
v171h-344q-147 0 -219 -62t-72 -157q0 -177 139 -242q65 -31 148 -31zM472 -19q-154 0 -258 91q-102 92 -102 240t99 233t284 86h346v164q0 181 -141 243q-66 28 -148 28q-154 0 -224 -64t-78 -134h-88q6 117 106 198t279 81q179 -1 281 -87t102 -252v-808h-87v183h-4
q-29 -71 -121 -137t-246 -65z" />
    <glyph glyph-name="Abrevetilde" unicode="&#x1eb4;" horiz-adv-x="1250" 
d="M393 1961h-70q1 93 45 143t106 50t95 -21q34 -21 82 -75q47 -54 101 -56q54 0 83 39t31 101h66q0 -85 -48 -143q-50 -57 -114 -57t-100 19t-73 61q-61 70 -110 72q-94 0 -94 -133zM922 1865q0 -98 -84 -169t-212 -71t-208 70q-81 70 -81 170h71q0 -75 61 -125t157 -50
t162 50t65 125h69zM629 1372h-7l-281 -798h566zM142 0h-94l531 1482h93l531 -1482h-96l-172 500h-619z" />
    <glyph glyph-name="abrevetilde" unicode="&#x1eb5;" horiz-adv-x="1105" 
d="M318 1607h-68q0 89 43 141q45 52 107 52t95 -20t82 -76t101 -56t83 39q30 39 30 99h66q0 -83 -48 -141q-49 -57 -113 -57t-100 19q-34 19 -63 51t-41 43q-37 35 -80 37q-94 0 -94 -131zM849 1511q0 -98 -85 -169q-85 -70 -211 -70t-209 69q-82 70 -82 170h73
q0 -75 61 -125q60 -50 156 -50t162 50t64 125h71zM493 60q144 0 246 91t102 230v171h-344q-147 0 -219 -62t-72 -157q0 -177 139 -242q65 -31 148 -31zM472 -19q-154 0 -258 91q-102 92 -102 240t99 233t284 86h346v164q0 181 -141 243q-66 28 -148 28q-154 0 -224 -64
t-78 -134h-88q6 117 106 198t279 81q179 -1 281 -87t102 -252v-808h-87v183h-4q-29 -71 -121 -137t-246 -65z" />
    <glyph glyph-name="Abrevedotbelow" unicode="&#x1eb6;" horiz-adv-x="1250" 
d="M327 1869h73q0 -83 61 -132t165 -49t162 49q57 49 57 132h75q0 -106 -75 -178t-220 -72t-221 72t-77 178zM549 -320q0 39 23 62t55 23q33 0 57 -23t24 -50t-10 -45q-22 -38 -72 -38q-21 0 -38 10q-39 22 -39 61zM629 1372h-7l-281 -798h566zM142 0h-94l531 1482h93
l531 -1482h-96l-172 500h-619z" />
    <glyph glyph-name="abrevedotbelow" unicode="&#x1eb7;" horiz-adv-x="1105" 
d="M254 1563h75q0 -87 57 -143q56 -56 142 -55q86 0 135 26q95 50 95 172h72q0 -106 -72 -185t-211 -79q-95 -1 -163 39q-130 76 -130 225zM477 -314q0 33 21 56q22 23 56 23t56 -23q23 -23 23 -50q-1 -27 -11 -45q-22 -38 -61 -38q-40 0 -63 22q-21 22 -21 55zM493 60
q144 0 246 91t102 230v171h-344q-147 0 -219 -62t-72 -157q0 -177 139 -242q65 -31 148 -31zM472 -19q-154 0 -258 91q-102 92 -102 240t99 233t284 86h346v164q0 181 -141 243q-66 28 -148 28q-154 0 -224 -64t-78 -134h-88q6 117 106 198t279 81q179 -1 281 -87t102 -252
v-808h-87v183h-4q-29 -71 -121 -137t-246 -65z" />
    <glyph glyph-name="Edotbelow" unicode="&#x1eb8;" horiz-adv-x="1167" 
d="M1053 81v-81h-847v1482h847v-83h-757v-600h720v-81h-720v-637h757zM552 -319q0 27 10 45q21 36 60 38q40 1 63 -22t23 -56t-23 -55t-56 -22t-56 22q-21 22 -21 50z" />
    <glyph glyph-name="edotbelow" unicode="&#x1eb9;" horiz-adv-x="1138" 
d="M221 633h701v4q0 202 -95 315q-95 114 -256 114t-256 -114t-94 -315v-4zM133 497v115q0 256 117 395q118 139 322 139t321 -138q117 -140 116 -394v-58h-788v-59q-1 -205 95 -321t269 -116q113 0 200 51q70 44 101 113q14 30 17 61h90q-8 -107 -109 -206
q-100 -98 -308 -98q-207 1 -325 137t-118 379zM504 -308q0 27 22 50t55 23t56 -23t23 -50t-10 -45q-22 -38 -69 -38q-46 0 -67 38q-10 18 -10 45z" />
    <glyph glyph-name="Ehookabove" unicode="&#x1eba;" horiz-adv-x="1167" 
d="M584 1913q66 0 107 -19q89 -40 88 -135q-1 -94 -117 -161l-40 52q84 44 84 96t-32 78q-32 24 -84 24q-51 0 -107 -25v65q35 25 101 25zM1053 81v-81h-847v1482h847v-83h-757v-600h720v-81h-720v-637h757z" />
    <glyph glyph-name="ehookabove" unicode="&#x1ebb;" horiz-adv-x="1138" 
d="M560 1638q80 0 135 -45q54 -45 54 -119q0 -98 -120 -175l-44 54q87 56 87 119t-73 90q-21 7 -67 7t-89 -27v69q37 27 117 27zM221 633h701v4q0 202 -95 315q-95 114 -256 114t-256 -114t-94 -315v-4zM133 497v115q0 256 117 395q118 139 322 139t321 -138
q117 -140 116 -394v-58h-788v-59q-1 -205 95 -321t269 -116q113 0 200 51q70 44 101 113q14 30 17 61h90q-8 -107 -109 -206q-100 -98 -308 -98q-207 1 -325 137t-118 379z" />
    <glyph glyph-name="Etilde" unicode="&#x1ebc;" horiz-adv-x="1167" 
d="M479 1782q-96 0 -96 -140h-65q0 94 43 148t120 54q46 0 80 -22t78 -72q48 -68 101 -68t84 41q31 42 31 109h63q0 -88 -48 -148t-112 -60t-96 18q-34 19 -71 61q-29 39 -54 59t-58 20zM1053 81v-81h-847v1482h847v-83h-757v-600h720v-81h-720v-637h757z" />
    <glyph glyph-name="etilde" unicode="&#x1ebd;" horiz-adv-x="1138" 
d="M291 1326h-70q0 108 46 168q47 60 135 61q54 0 92 -25t78 -74t67 -66q27 -16 72 -16t79 46t36 122h69q0 -137 -92 -204q-45 -31 -101 -31q-99 0 -171 91q-73 91 -131 88q-109 0 -109 -160zM221 633h701v4q0 202 -95 315q-95 114 -256 114t-256 -114t-94 -315v-4zM133 497
v115q0 256 117 395q118 139 322 139t321 -138q117 -140 116 -394v-58h-788v-59q-1 -205 95 -321t269 -116q113 0 200 51q70 44 101 113q14 30 17 61h90q-8 -107 -109 -206q-100 -98 -308 -98q-207 1 -325 137t-118 379z" />
    <glyph glyph-name="Ecircumflexacute" unicode="&#x1ebe;" horiz-adv-x="1167" 
d="M1053 81v-81h-847v1482h847v-83h-757v-600h720v-81h-720v-637h757zM814 1875l283 246h112l-335 -264zM308 1671l298 231h45l302 -231h-106l-216 167h-7l-214 -167h-102z" />
    <glyph glyph-name="ecircumflexacute" unicode="&#x1ebf;" horiz-adv-x="1138" 
d="M221 633h701v4q0 202 -95 315q-95 114 -256 114t-256 -114t-94 -315v-4zM133 497v115q0 256 117 395q118 139 322 139t321 -138q117 -140 116 -394v-58h-788v-59q-1 -205 95 -321t269 -116q113 0 200 51q70 44 101 113q14 30 17 61h90q-8 -107 -109 -206
q-100 -98 -308 -98q-207 1 -325 137t-118 379zM756 1521l283 246h112l-333 -264zM250 1317l297 231h46l302 -231h-106l-217 167h-4l-216 -167h-102z" />
    <glyph glyph-name="Ecircumflexgrave" unicode="&#x1ec0;" horiz-adv-x="1167" 
d="M1053 81v-81h-847v1482h847v-83h-757v-600h720v-81h-720v-637h757zM953 1671h-106l-216 167h-7l-214 -167h-102l298 231h45zM1082 1857h-87l-339 264h112z" />
    <glyph glyph-name="ecircumflexgrave" unicode="&#x1ec1;" horiz-adv-x="1138" 
d="M221 633h701v4q0 202 -95 315q-95 114 -256 114t-256 -114t-94 -315v-4zM133 497v115q0 256 117 395q118 139 322 139t321 -138q117 -140 116 -394v-58h-788v-59q-1 -205 95 -321t269 -116q113 0 200 51q70 44 101 113q14 30 17 61h90q-8 -107 -109 -206
q-100 -98 -308 -98q-207 1 -325 137t-118 379zM895 1317h-106l-217 167h-4l-216 -167h-102l297 231h46zM1024 1503h-87l-340 264h113z" />
    <glyph glyph-name="Ecircumflexhookabove" unicode="&#x1ec2;" horiz-adv-x="1167" 
d="M1053 81v-81h-847v1482h847v-83h-757v-600h720v-81h-720v-637h757zM958 2096q47 -35 45 -94q0 -83 -116 -150l-44 38q92 48 92 106q-1 35 -31 57t-75 22t-78 -10v56q52 10 106 10t101 -35zM304 1667l302 227h45l298 -227h-102l-216 165h-7l-214 -165h-106z" />
    <glyph glyph-name="ecircumflexhookabove" unicode="&#x1ec3;" horiz-adv-x="1138" 
d="M221 633h701v4q0 202 -95 315q-95 114 -256 114t-256 -114t-94 -315v-4zM133 497v115q0 256 117 395q118 139 322 139t321 -138q117 -140 116 -394v-58h-788v-59q-1 -205 95 -321t269 -116q113 0 200 51q70 44 101 113q14 30 17 61h90q-8 -107 -109 -206
q-100 -98 -308 -98q-207 1 -325 137t-118 379zM798 1777q53 0 100 -33t47 -98q0 -83 -117 -147l-43 37q92 48 91 106q0 35 -30 57t-75 22t-78 -10v56q52 10 105 10zM246 1313l301 227h46l298 -227h-102l-217 165h-4l-216 -165h-106z" />
    <glyph glyph-name="Ecircumflextilde" unicode="&#x1ec4;" horiz-adv-x="1167" 
d="M391 1965h-68q0 124 75 169q37 24 87 24t84 -21t83 -75q48 -54 102 -56q54 0 83 39t31 99h67q0 -84 -49 -140q-48 -56 -114 -56t-102 18t-60 47q-26 29 -47 50q-35 35 -78 35q-94 0 -94 -133zM306 1661l302 231h46l295 -231h-102l-214 166h-7l-216 -166h-104zM1053 81
v-81h-847v1482h847v-83h-757v-600h720v-81h-720v-637h757z" />
    <glyph glyph-name="ecircumflextilde" unicode="&#x1ec5;" horiz-adv-x="1138" 
d="M333 1611h-69q0 93 43 143t107 50t97 -22q34 -22 83 -75q49 -54 112 -54t90 66q14 31 14 71h66q0 -84 -49 -140t-114 -56t-101 18t-64 50t-40 44t-36 26q-24 12 -43 12q-96 0 -96 -133zM248 1307l301 231h46l298 -231h-104l-215 167h-6l-214 -167h-106zM221 633h701v4
q0 202 -95 315q-95 114 -256 114t-256 -114t-94 -315v-4zM133 497v115q0 256 117 395q118 139 322 139t321 -138q117 -140 116 -394v-58h-788v-59q-1 -205 95 -321t269 -116q113 0 200 51q70 44 101 113q14 30 17 61h90q-8 -107 -109 -206q-100 -98 -308 -98
q-207 1 -325 137t-118 379z" />
    <glyph glyph-name="Ecircumflexdotbelow" unicode="&#x1ec6;" horiz-adv-x="1167" 
d="M1053 81v-81h-847v1482h847v-83h-757v-600h720v-81h-720v-637h757zM310 1636l302 231h46l295 -231h-102l-214 166h-6l-217 -166h-104zM552 -319q0 27 10 45q21 36 60 38q40 1 63 -22t23 -56t-23 -55t-56 -22t-56 22q-21 22 -21 50z" />
    <glyph glyph-name="ecircumflexdotbelow" unicode="&#x1ec7;" horiz-adv-x="1138" 
d="M504 -308q0 27 22 50t55 23t56 -23t23 -50t-10 -45q-22 -38 -69 -38q-46 0 -67 38q-10 18 -10 45zM221 633h701v4q0 202 -95 315q-95 114 -256 114t-256 -114t-94 -315v-4zM133 497v115q0 256 117 395q118 139 322 139t321 -138q117 -140 116 -394v-58h-788v-59
q-1 -205 95 -321t269 -116q113 0 200 51q70 44 101 113q14 30 17 61h90q-8 -107 -109 -206q-100 -98 -308 -98q-207 1 -325 137t-118 379zM287 1342l252 354h69l243 -354h-81l-196 294h-4l-204 -294h-79z" />
    <glyph glyph-name="Ihookabove" unicode="&#x1ec8;" horiz-adv-x="536" 
d="M345 1746q0 102 -115 102q-51 0 -107 -25v65q37 25 116 25t129 -42t50 -110q0 -96 -116 -163l-40 52q83 44 83 96zM312 0h-87v1482h87v-1482z" />
    <glyph glyph-name="ihookabove" unicode="&#x1ec9;" horiz-adv-x="462" 
d="M221 1638q81 0 135 -45t54 -119q0 -98 -121 -175l-43 54q89 56 89 118q0 44 -35 71q-36 27 -94 27t-102 -27v69q37 27 117 27zM187 0v1128h88v-1128h-88z" />
    <glyph glyph-name="Idotbelow" unicode="&#x1eca;" horiz-adv-x="536" 
d="M191 -314q0 33 23 56t55 23q33 0 57 -23t24 -50t-12 -45q-24 -38 -62 -38q-39 0 -62 22t-23 55zM312 0h-87v1482h87v-1482z" />
    <glyph glyph-name="idotbelow" unicode="&#x1ecb;" horiz-adv-x="497" 
d="M173 -319q0 27 10 45q21 36 60 38q40 1 64 -22t24 -50q1 -27 -11 -45q-24 -38 -63 -38q-38 0 -61 22t-23 50zM195 1385q-22 22 -22 57t22 56t54 21t56 -23t24 -58t-26 -55t-56 -20t-52 22zM206 0v1128h87v-1128h-87z" />
    <glyph glyph-name="Odotbelow" unicode="&#x1ecc;" 
d="M148 606v266q0 296 150 470t416 173q266 0 416 -175t150 -470v-264q0 -296 -151 -468t-417 -172t-415 172t-149 468zM235 878v-279q0 -251 128 -401t350 -150t350 150t128 401v279q1 252 -129 404t-350 152q-144 0 -252 -69t-166 -195t-59 -292zM637 -319q0 27 10 45
q21 36 60 38q40 1 63 -22t23 -50q0 -53 -40 -73q-19 -10 -45 -10t-49 22q-22 22 -22 50z" />
    <glyph glyph-name="odotbelow" unicode="&#x1ecd;" horiz-adv-x="1180" 
d="M590 1066q-170 0 -271 -116t-100 -321v-134q1 -206 101 -320q100 -115 271 -115t271 114t100 321v134q0 205 -101 321t-271 116zM591 1147q133 1 237 -59t164 -176t59 -271v-158q0 -237 -127 -369t-334 -133q-207 0 -333 132t-126 370v158q0 237 126 371t334 135z
M514 -314q0 33 23 56t55 23t55 -23t23 -50t-10 -45q-21 -38 -61 -38q-39 0 -62 22t-23 55z" />
    <glyph glyph-name="Ohookabove" unicode="&#x1ece;" 
d="M148 606v266q0 296 150 470t416 173q266 0 416 -175t150 -470v-264q0 -296 -151 -468t-417 -172t-415 172t-149 468zM235 878v-279q0 -251 128 -401t350 -150t350 150t128 401v279q1 252 -129 404t-350 152q-144 0 -252 -69t-166 -195t-59 -292zM684 1913q80 0 130 -42
t50 -110q0 -96 -117 -163l-39 52q83 44 83 96q0 102 -115 102q-52 0 -108 -25v65q36 25 116 25z" />
    <glyph glyph-name="ohookabove" unicode="&#x1ecf;" horiz-adv-x="1180" 
d="M582 1638q80 0 134 -45t54 -119q0 -98 -121 -175l-43 54q87 56 87 109t-34 80q-35 27 -93 27t-104 -27v69q40 27 120 27zM590 1066q-170 0 -271 -116t-100 -321v-134q1 -206 101 -320q100 -115 271 -115t271 114t100 321v134q0 205 -101 321t-271 116zM591 1147
q133 1 237 -59t164 -176t59 -271v-158q0 -237 -127 -369t-334 -133q-207 0 -333 132t-126 370v158q0 237 126 371t334 135z" />
    <glyph glyph-name="Ocircumflexacute" unicode="&#x1ed0;" 
d="M148 606v266q0 296 150 470t416 173q266 0 416 -175t150 -470v-264q0 -296 -151 -468t-417 -172t-415 172t-149 468zM235 878v-279q0 -251 128 -401t350 -150t350 150t128 401v279q1 252 -129 404t-350 152q-144 0 -252 -69t-166 -195t-59 -292zM899 1875l283 246h113
l-336 -264zM391 1671l298 231h46l301 -231h-104l-216 167h-6l-215 -167h-104z" />
    </font>
</defs>
</svg>
