<?xml version="1.0" standalone="no"?>
<!DOCTYPE svg PUBLIC "-//W3C//DTD SVG 1.1//EN" "http://www.w3.org/Graphics/SVG/1.1/DTD/svg11.dtd" >
<svg xmlns="http://www.w3.org/2000/svg">
<metadata>
Created by FontPrep 20130207 at Wed Nov 19 14:09:45 2014
 By Joshua Ellington
(c) 2014 Apple Inc. All rights reserved.
</metadata>
<defs>
<font id="d0302eaa9baa2904e902ad889ccb5e9f" horiz-adv-x='1024' >
  <font-face 
    font-family=".HelveticaNeueDeskInterface-Bold"
    font-weight="700"
    font-stretch="normal"
    units-per-em="2048"
    panose-1="0 0 0 0 0 0 0 0 0 0"
    ascent="1638"
    descent="-410"
    x-height="1159"
    cap-height="1486"
    bbox="-633 -552 2258.03 2181"
    underline-thickness="104"
    underline-position="-52"
    unicode-range="U+0020-FB02"
  />
<missing-glyph horiz-adv-x="1406" 
d="M554 966q0 67 36 104t88 37q92 0 125 -56q17 -27 17 -65t-22 -69q-22 -30 -94 -81t-102 -111q-31 -60 -21 -146h181v16q0 52 21 82q21 29 97 85t110 110q32 54 32 127q0 123 -87 197t-236 74q-213 0 -293 -142q-40 -68 -38 -162h186zM662 458q-44 0 -80 -32t-37 -76
q0 -44 17 -70q37 -57 106 -56q68 1 105 33q37 33 37 71t-10 60q-29 70 -138 70zM131 0v1486h1147v-1486h-1147z" />
    <glyph glyph-name=".notdef" horiz-adv-x="1406" 
d="M554 966q0 67 36 104t88 37q92 0 125 -56q17 -27 17 -65t-22 -69q-22 -30 -94 -81t-102 -111q-31 -60 -21 -146h181v16q0 52 21 82q21 29 97 85t110 110q32 54 32 127q0 123 -87 197t-236 74q-213 0 -293 -142q-40 -68 -38 -162h186zM662 458q-44 0 -80 -32t-37 -76
q0 -44 17 -70q37 -57 106 -56q68 1 105 33q37 33 37 71t-10 60q-29 70 -138 70zM131 0v1486h1147v-1486h-1147z" />
    <glyph glyph-name=".null" horiz-adv-x="0" 
 />
    <glyph glyph-name="nonmarkingreturn" horiz-adv-x="0" 
 />
    <glyph glyph-name="space" unicode=" " horiz-adv-x="437" 
 />
    <glyph glyph-name="exclam" unicode="!" horiz-adv-x="613" 
d="M139 1486h338l-36 -1032h-266zM123 148q0 58 51 102t135 44t134 -44q50 -42 50 -102q0 -107 -87 -149q-42 -20 -98 -20t-98 20t-64 55q-22 36 -23 94z" />
    <glyph glyph-name="quotedbl" unicode="&#x22;" horiz-adv-x="1076" 
d="M643 1486h335l-41 -614h-254zM102 1486h333l-40 -614h-256z" />
    <glyph glyph-name="numbersign" unicode="#" horiz-adv-x="1346" 
d="M568 907l-64 -312h283l60 312h-279zM1278 885h-225l-54 -267h216l-43 -223h-217l-79 -395h-231l79 395h-237l-81 -395h-229l77 395h-210l41 223h215l52 267h-204l43 220h207l74 381h234l-77 -381h237l75 381h233l-77 -381h223z" />
    <glyph glyph-name="dollar" unicode="$" horiz-adv-x="1288" 
d="M735 -139h-167v135q-127 8 -223 49q-170 73 -236 234q-28 71 -30 150h260q5 -85 65 -143t168 -74v442l-91 22q-156 34 -263 134q-108 100 -108 272q0 278 278 383q82 31 180 42v139h169v-141q131 -13 232 -69t158 -147t59 -203h-251q-3 76 -57 134t-145 72v-416l91 -21
q183 -43 286 -139t103 -281t-129 -301t-349 -136v-137zM951 424q0 134 -191 194l-27 6v-414q65 6 113 32q105 55 105 182zM375 1103q0 -127 158 -181q29 -10 39 -12v382q-83 -8 -140 -58t-57 -131z" />
    <glyph glyph-name="percent" unicode="%" horiz-adv-x="1506" 
d="M293 -2h-226l607 782l537 706h229l-599 -766zM870 348v33q0 156 88 258t236 102t235 -101q86 -101 86 -259v-36q0 -152 -86 -257t-236 -105t-237 103q-86 104 -86 262zM1064 370v-12q0 -98 34 -152t94 -54t94 54q35 54 36 152v10q0 98 -34 151t-95 53t-95 -53t-34 -149z
M-2 1111v34q0 156 88 257t236 101t235 -101q86 -101 86 -259v-36q0 -152 -87 -257q-86 -105 -236 -105t-236 103t-86 263zM450 1130q0 206 -140 206q-50 0 -84 -54q-35 -54 -35 -148v-12q0 -119 45 -168q31 -40 87 -40t91 54t36 152v10z" />
    <glyph glyph-name="ampersand" unicode="&#x26;" horiz-adv-x="1481" 
d="M622 914q190 101 190 213t-79 154q-37 20 -85 20t-84 -21q-79 -45 -79 -139q0 -52 30 -101t107 -126zM350 410q0 -106 77 -165t173 -59q197 -1 291 105l-342 371q-22 -13 -39 -21q-160 -89 -160 -231zM589 -31q-235 0 -376 113q-140 113 -140 305q0 133 71 227
q96 127 268 202q-92 96 -137 173q-46 77 -46 166q0 150 121 247q120 97 294 97t295 -91t120 -249q0 -129 -81 -218t-218 -165l283 -308q52 96 52 292v77h247v-94q0 -285 -122 -456l274 -287h-333l-114 123q-177 -154 -458 -154z" />
    <glyph glyph-name="quotesingle" unicode="'" horiz-adv-x="534" 
d="M102 1486h333l-40 -614h-256z" />
    <glyph glyph-name="parenleft" unicode="(" horiz-adv-x="745" 
d="M435 646q0 -267 48 -446q48 -178 94 -272q46 -95 112 -213h-289q-277 343 -277 901q0 344 97 556q48 106 88 170t102 142h283q-82 -91 -161 -289q-43 -106 -70 -258q-27 -151 -27 -291z" />
    <glyph glyph-name="parenright" unicode=")" horiz-adv-x="745" 
d="M624 616q0 -558 -281 -901h-287q184 314 230 592q24 145 24 325q0 259 -75 497t-181 355h281q215 -274 264 -558q25 -139 25 -310z" />
    <glyph glyph-name="asterisk" unicode="*" horiz-adv-x="847" 
d="M510 783h-171l29 243l-199 -144l-86 146l227 100l-227 100l86 148l199 -150l-29 248h171l-31 -248l202 150l85 -148l-227 -100l227 -100l-85 -146l-200 144z" />
    <glyph glyph-name="plus" unicode="+" horiz-adv-x="1288" 
d="M780 472v-455h-266v455h-425v261h425v439h266v-439h427v-261h-427z" />
    <glyph glyph-name="comma" unicode="," horiz-adv-x="495" 
d="M241 -287h-233l106 589h298z" />
    <glyph glyph-name="hyphen" unicode="-" horiz-adv-x="857" 
d="M772 475h-687v270h687v-270z" />
    <glyph glyph-name="period" unicode="." horiz-adv-x="591" 
d="M283 -21q-89 -1 -141 81q-24 40 -25 104q0 64 51 113q51 48 128 48t129 -48t52 -126t-52 -125t-142 -47z" />
    <glyph glyph-name="slash" unicode="/" horiz-adv-x="745" 
d="M264 -314h-276l501 1879h275z" />
    <glyph glyph-name="zero" unicode="0" horiz-adv-x="1302" 
d="M81 693v100q0 329 152 526t423 197q270 0 418 -196q148 -194 148 -527v-100q0 -435 -256 -625q-131 -97 -317 -97q-271 1 -419 197t-149 525zM398 793v-98q0 -229 68 -349t185 -119q164 0 225 210q31 106 31 258v98q0 227 -68 347q-69 120 -188 120t-186 -120t-67 -347z
" />
    <glyph glyph-name="one" unicode="1" horiz-adv-x="922" 
d="M753 1486v-1486h-310v1188h-12q-271 -171 -339 -222v291q288 194 358 229h303z" />
    <glyph glyph-name="two" unicode="2" horiz-adv-x="1248" 
d="M395 1036h-297v17q0 180 126 314q61 67 162 108t230 40q229 -1 372 -119t142 -299q0 -120 -51 -206q-22 -37 -31 -55q-32 -64 -180 -212l-323 -360v-10h612v-254h-1038v196l535 574q54 56 81 90t56 91q29 58 29 130t-60 127t-154 55t-152 -60t-59 -148v-19z" />
    <glyph glyph-name="three" unicode="3" horiz-adv-x="1275" 
d="M460 645v240h154q102 0 164 56t62 141q0 84 -62 138t-162 54t-158 -60t-63 -138h-293q6 191 144 315t374 124q234 0 380 -109t149 -280q2 -144 -83 -234t-184 -105v-13q87 -4 173 -64q85 -60 122 -167q20 -58 20 -127q2 -198 -167 -322t-425 -123q-256 0 -391 130
t-139 317h289q8 -89 78 -145q70 -57 186 -57t187 60t69 156q-2 95 -70 154q-69 59 -192 59h-162z" />
    <glyph glyph-name="four" unicode="4" horiz-adv-x="1319" 
d="M352 520h439v733h-13q-275 -439 -426 -729v-4zM1086 1486v-966h177v-252h-177v-268h-295v268h-718v254q166 318 318 563q153 245 244 401h451z" />
    <glyph glyph-name="five" unicode="5" horiz-adv-x="1319" 
d="M932 490q0 122 -75 197t-180 75t-169 -45t-94 -105h-277l69 876h924v-252h-674l-36 -368h13q31 48 115 88t208 41q124 0 236 -58q112 -57 180 -171t68 -268t-74 -277t-206 -188t-300 -64q-248 0 -392 125q-143 125 -151 310h291q12 -88 83 -138t176 -50t185 76
q80 74 80 196z" />
    <glyph glyph-name="six" unicode="6" horiz-adv-x="1280" 
d="M661 743q-105 1 -176 -71t-71 -192t72 -191t177 -71t175 70t70 192t-72 192q-70 70 -175 71zM668 1268q-139 0 -215 -138t-74 -366h12q23 54 63 99t116 79t169 34q194 0 331 -130t137 -362t-155 -372t-388 -141q-273 1 -427 193t-154 562t158 579q158 208 435 208
q114 0 210 -36q172 -65 248 -224q34 -69 38 -140h-294q-8 59 -65 107t-145 48z" />
    <glyph glyph-name="seven" unicode="7" horiz-adv-x="1207" 
d="M77 1486h1039v-258l-602 -1228h-331l622 1224v8h-728v254z" />
    <glyph glyph-name="eight" unicode="8" horiz-adv-x="1332" 
d="M665 -29q-265 0 -425 122q-159 122 -159 317q0 254 244 349q35 14 70 21v9q-110 33 -182 116t-71 217q0 171 144 282q145 111 381 111t382 -111t146 -282q0 -132 -73 -216t-183 -117v-9q116 -25 215 -113q99 -89 99 -271q1 -182 -161 -304t-427 -121zM668 1288
q-98 0 -162 -56t-65 -147q1 -91 65 -149t144 -58t132 26t82 74q29 48 29 122q1 74 -63 132q-64 56 -162 56zM939 431q1 71 -35 125q-75 114 -236 114q-117 0 -195 -66t-78 -173q0 -69 36 -123q73 -112 257 -112q97 0 174 66t77 169z" />
    <glyph glyph-name="nine" unicode="9" horiz-adv-x="1280" 
d="M876 988q0 98 -32 158q-63 119 -215 122q-104 0 -175 -70t-71 -193t69 -191q68 -68 174 -69q106 0 178 73q72 72 72 170zM541 512q-191 0 -325 129q-133 129 -133 362t156 371t381 139q279 0 433 -189q154 -188 154 -560t-156 -582t-439 -209q-119 0 -218 37
q-175 65 -252 231q-34 71 -38 142h291q9 -67 71 -116t159 -49t166 74q130 136 121 434h-17q-27 -90 -118 -152t-236 -62z" />
    <glyph glyph-name="colon" unicode=":" horiz-adv-x="616" 
d="M127 152q0 77 51 125q50 48 114 48t104 -22t65 -62q24 -40 24 -104t-51 -111t-127 -47t-128 48t-52 125zM293 716q-89 0 -141 82q-24 40 -25 90q0 52 24 92q48 82 155 79q77 1 128 -47t51 -125t-51 -124t-141 -47z" />
    <glyph glyph-name="semicolon" unicode=";" horiz-adv-x="613" 
d="M298 -341h-233l95 589h298zM131 888q0 78 51 125t128 47t128 -48t51 -125t-51 -124t-127 -47t-128 47t-52 125z" />
    <glyph glyph-name="less" unicode="&#x3c;" horiz-adv-x="1288" 
d="M135 479v195l1016 558v-306l-662 -337v-12l662 -331v-300z" />
    <glyph glyph-name="equal" unicode="=" horiz-adv-x="1288" 
d="M1161 716h-1032v241h1032v-241zM1161 244h-1032v241h1032v-241z" />
    <glyph glyph-name="greater" unicode="&#x3e;" horiz-adv-x="1288" 
d="M1151 674v-195l-1016 -533v300l660 331v12l-660 337v306z" />
    <glyph glyph-name="question" unicode="?" horiz-adv-x="1067" 
d="M1028 1116q0 -134 -64 -211t-138 -129t-100 -70q-70 -51 -85 -110q-8 -30 -8 -74v-56h-273l-2 61q-10 119 40 203t151 152q62 44 92 68q75 62 75 149t-55 132t-129 45q-139 0 -185 -102q-22 -46 -22 -104h-283q-4 235 146 340t356 105q204 0 344 -103t140 -296zM504 -21
q-82 1 -134 43t-52 102t23 94q50 77 157 76q108 -1 159 -62q32 -40 32 -104t-51 -106t-134 -43z" />
    <glyph glyph-name="at" unicode="@" horiz-adv-x="1869" 
d="M780 535q0 -208 151 -208t151 195v90q0 127 -77 171q-33 19 -75 18q-70 0 -110 -51t-40 -155v-60zM1394 146q-102 0 -178 42t-94 116h-11q-21 -71 -91 -115t-158 -43q-142 0 -224 96t-82 262v122q0 219 143 306q71 44 167 44t154 -46t75 -106h8v135h208v-541
q0 -52 31 -81t80 -29q70 0 120 90t50 262v31q0 247 -164 413q-79 80 -199 127t-261 47h-11q-295 0 -477 -186q-86 -88 -136 -218t-48 -283v-42q0 -393 272 -567q158 -101 377 -101h8q202 0 310 46v-171q-102 -46 -320 -45h-11q-358 0 -593 212q-112 102 -176 261
q-63 159 -63 359v56q0 383 239 616t618 234h9q191 1 348 -61q294 -115 415 -407q55 -134 55 -282v-54q0 -223 -106 -361t-284 -138z" />
    <glyph glyph-name="A" unicode="A" horiz-adv-x="1381" 
d="M691 1191h-15l-174 -590h360zM329 0h-314l491 1486h374l489 -1486h-337l-108 368h-485z" />
    <glyph glyph-name="B" unicode="B" horiz-adv-x="1377" 
d="M466 660v-429h210q308 0 308 210q0 143 -117 194q-57 25 -139 25h-262zM466 1255v-381h188q268 0 268 194q0 123 -101 166q-47 21 -109 21h-246zM154 0v1486h633q201 0 323 -97t122 -267q0 -92 -36 -162q-68 -132 -222 -165v-12q142 -15 236 -110t95 -253
q0 -198 -146 -309t-370 -111h-635z" />
    <glyph glyph-name="C" unicode="C" horiz-adv-x="1398" 
d="M414 824v-168q0 -208 82 -314t224 -105q142 0 217 79t75 200h301v-31q0 -214 -159 -364q-158 -150 -444 -150t-451 181t-165 506v166q0 327 166 509t448 182t444 -152t161 -376v-32h-301q0 123 -76 208t-212 86q-197 0 -271 -189q-39 -97 -39 -236z" />
    <glyph glyph-name="D" unicode="D" horiz-adv-x="1452" 
d="M468 1232v-978h196q191 0 290 112t99 375q0 491 -389 491h-196zM154 1486h556q505 0 628 -438q38 -132 38 -301q1 -336 -156 -541q-157 -206 -510 -206h-556v1486z" />
    <glyph glyph-name="E" unicode="E" horiz-adv-x="1232" 
d="M1124 254v-254h-970v1486h970v-254h-658v-362h618v-237h-618v-379h658z" />
    <glyph glyph-name="F" unicode="F" horiz-adv-x="1171" 
d="M468 0h-314v1486h962v-256h-648v-397h589v-252h-589v-581z" />
    <glyph glyph-name="G" unicode="G" horiz-adv-x="1425" 
d="M719 1253q-132 0 -219 -104t-88 -310v-183q0 -194 78 -308t247 -115q89 0 158 35q139 71 139 223v83h-291v231h591v-293q0 -159 -90 -301t-279 -206q-105 -34 -249 -34t-270 52q-230 96 -314 360q-39 123 -38 273v185q0 204 76 356t221 235q146 83 346 83q272 0 440 -158
q92 -86 134 -224q19 -61 21 -128h-308q-12 117 -92 183t-213 65z" />
    <glyph glyph-name="H" unicode="H" horiz-adv-x="1536" 
d="M1384 0h-316v629h-600v-629h-314v1486h314v-599h600v599h316v-1486z" />
    <glyph glyph-name="I" unicode="I" horiz-adv-x="622" 
d="M468 0h-314v1486h314v-1486z" />
    <glyph glyph-name="J" unicode="J" horiz-adv-x="1178" 
d="M29 441h302q4 -123 95 -167q43 -22 96 -22q198 0 198 225v1009h316v-1003q0 -252 -136 -382t-374 -130t-368 135q-129 135 -129 335z" />
    <glyph glyph-name="K" unicode="K" horiz-adv-x="1384" 
d="M468 0h-314v1486h314v-653h15l545 653h344l-527 -641l549 -845h-376l-402 635l-148 -167v-468z" />
    <glyph glyph-name="L" unicode="L" horiz-adv-x="1115" 
d="M1089 266v-266h-935v1486h314v-1220h621z" />
    <glyph glyph-name="M" unicode="M" horiz-adv-x="1783" 
d="M437 0h-281v1486h323l410 -922h10l410 922h321v-1486h-283v962h-15l-341 -764h-198l-341 764h-15v-962z" />
    <glyph glyph-name="N" unicode="N" horiz-adv-x="1506" 
d="M450 0h-296v1486h258l635 -953h10v953h298v-1486h-258l-637 959h-10v-959z" />
    <glyph glyph-name="O" unicode="O" horiz-adv-x="1475" 
d="M94 645v185q0 318 171 502q172 183 474 183q301 0 473 -184t172 -501v-185q0 -314 -172 -494t-475 -180q-200 0 -346 81t-221 233q-76 152 -76 360zM414 835v-190q0 -202 88 -307t237 -105q148 0 236 105t89 307v190q0 135 -43 231q-85 189 -282 189q-149 0 -237 -109
t-88 -311z" />
    <glyph glyph-name="P" unicode="P" horiz-adv-x="1313" 
d="M466 1238v-510h167q156 0 235 58t79 189q0 130 -67 197t-187 66h-227zM154 1486h606q280 0 421 -204q87 -125 87 -298q0 -219 -136 -358t-376 -139h-288v-487h-314v1486z" />
    <glyph glyph-name="Q" unicode="Q" horiz-adv-x="1479" 
d="M406 835v-188q0 -210 89 -320t238 -115q44 0 83 15l-152 225h283l60 -84q71 108 71 279v188q0 202 -93 311t-241 109t-243 -106q-95 -105 -95 -314zM98 651v182q0 314 174 498t469 184q197 0 343 -83t224 -238t78 -361v-182q0 -337 -202 -522l185 -273h-308l-104 152
q-100 -37 -216 -37q-295 0 -469 184t-174 496z" />
    <glyph glyph-name="R" unicode="R" horiz-adv-x="1381" 
d="M464 776h246q160 0 222 104q32 52 32 127t-34 130q-66 108 -216 108h-250v-469zM760 1486q256 0 392 -132t136 -334t-128 -331q-62 -63 -140 -96l297 -593h-351l-256 547h-246v-547h-310v1486h606z" />
    <glyph glyph-name="S" unicode="S" horiz-adv-x="1323" 
d="M660 219q131 0 202 53q70 53 70 134t-55 123t-171 68l-223 50q-175 37 -279 137t-104 280q0 210 158 332t404 121q164 0 291 -57t197 -158t70 -230h-294q-6 83 -75 141q-69 59 -186 59t-184 -50t-67 -136q0 -129 202 -170l225 -50q292 -62 370 -250q31 -75 32 -173
q1 -219 -159 -345t-437 -127q-155 1 -273 41t-183 109q-122 129 -126 306h301q8 -87 86 -147t208 -61z" />
    <glyph glyph-name="T" unicode="T" horiz-adv-x="1178" 
d="M747 0h-314v1224h-418v262h1148v-262h-416v-1224z" />
    <glyph glyph-name="U" unicode="U" horiz-adv-x="1488" 
d="M452 1486v-939q0 -202 138 -273q66 -34 155 -35q133 -1 212 81t79 227v939h317v-972q1 -246 -165 -394t-443 -149q-277 0 -442 150t-166 395v970h315z" />
    <glyph glyph-name="V" unicode="V" horiz-adv-x="1371" 
d="M880 0h-383l-489 1486h365l318 -1136h12l315 1136h347z" />
    <glyph glyph-name="W" unicode="W" horiz-adv-x="1918" 
d="M687 0h-294l-387 1486h337l215 -1041h12l256 1041h269l256 -1041h12l213 1041h339l-389 -1486h-292l-268 1003h-11z" />
    <glyph glyph-name="X" unicode="X" horiz-adv-x="1302" 
d="M1324 1486l-471 -745l462 -741h-358l-306 514h-12l-306 -514h-341l455 749l-453 737h372l296 -524h12l294 524h356z" />
    <glyph glyph-name="Y" unicode="Y" horiz-adv-x="1265" 
d="M791 0h-314v549l-498 937h348l306 -624h10l308 624h337l-497 -928v-558z" />
    <glyph glyph-name="Z" unicode="Z" horiz-adv-x="1286" 
d="M92 0v204l703 1014v12h-687v256h1068v-204l-701 -1011v-15h722v-256h-1105z" />
    <glyph glyph-name="bracketleft" unicode="[" horiz-adv-x="792" 
d="M123 1486h595v-225h-302v-1286h317v-223h-610v1734z" />
    <glyph glyph-name="backslash" unicode="\" horiz-adv-x="745" 
d="M764 -314h-275l-501 1879h276z" />
    <glyph glyph-name="bracketright" unicode="]" horiz-adv-x="792" 
d="M77 1486h595v-1734h-610v223h317v1286h-302v225z" />
    <glyph glyph-name="asciicircum" unicode="^" horiz-adv-x="974" 
d="M937 866h-265l-179 379h-12l-183 -379h-258l320 620h260z" />
    <glyph glyph-name="underscore" unicode="_" horiz-adv-x="930" 
d="M962 -345h-991v233h991v-233z" />
    <glyph glyph-name="grave" unicode="`" horiz-adv-x="1030" 
d="M733 1338h-258l-288 317h310z" />
    <glyph glyph-name="a" unicode="a" 
d="M383 352q0 -68 52 -110q52 -40 133 -40t142 52q60 52 60 131v115h-206q-87 0 -134 -40t-47 -108zM460 -17q-171 0 -276 94t-105 255t107 254t305 93h279v112q0 154 -177 154q-85 0 -131 -39t-52 -107h-287q4 155 114 266t345 111q492 0 492 -393v-783h-289v146h-13
q-47 -94 -165 -139q-66 -24 -147 -24z" />
    <glyph glyph-name="b" unicode="b" horiz-adv-x="1311" 
d="M447 529q0 -133 62 -217t169 -85q107 0 169 80t63 228v85q0 204 -108 276q-52 34 -122 34t-122 -36q-109 -75 -111 -268v-97zM789 -15q-127 1 -213 55t-120 139h-13v-179h-304v1565h308v-578h13q38 83 120 134t211 51q206 0 319 -142t114 -395v-111q0 -258 -116 -398
t-319 -141z" />
    <glyph glyph-name="c" unicode="c" horiz-adv-x="1167" 
d="M85 533v102q-1 243 139 393t372 150t364 -119q130 -119 133 -297h-281q-6 71 -58 124t-150 53q-96 1 -153 -85t-58 -223v-96q-1 -144 59 -228t159 -84q99 -1 147 45t58 119h281q-3 -189 -139 -299t-364 -109q-228 0 -369 148q-140 148 -140 406z" />
    <glyph glyph-name="d" unicode="d" horiz-adv-x="1311" 
d="M630 930q-167 0 -214 -183q-15 -58 -14 -131v-75q0 -148 60 -231t171 -83q147 0 203 143q28 71 28 171v79q0 224 -136 290q-42 20 -98 20zM522 1172q128 0 214 -51t117 -134h11v578h308v-1565h-304v179h-11q-27 -83 -116 -138t-219 -56q-206 0 -320 143t-115 392v119
q1 249 115 391t320 142z" />
    <glyph glyph-name="e" unicode="e" 
d="M385 701h443v2q0 111 -59 181t-161 70t-163 -70q-60 -70 -60 -181v-2zM85 622q0 173 65 300q64 128 182 192t274 64q244 0 380 -150t136 -404v-110h-737v-37q0 -113 62 -189t162 -76t155 41q54 41 62 103h287q-12 -131 -128 -254t-387 -123q-146 0 -266 65
q-245 132 -247 489v89z" />
    <glyph glyph-name="f" unicode="f" horiz-adv-x="826" 
d="M229 0v910h-173v235h173v114q0 175 95 252t302 77q58 0 132 -8v-215q-22 4 -88 4q-144 0 -143 -135v-89h220v-235h-214v-910h-304z" />
    <glyph glyph-name="g" unicode="g" horiz-adv-x="1286" 
d="M855 626q0 136 -61 220t-166 84q-104 0 -168 -80t-65 -224v-87q0 -139 65 -217t170 -78t165 80t60 209v93zM616 -206q239 0 239 241v163h-12q-33 -79 -121 -130t-206 -51q-196 0 -316 139t-119 385v102q0 248 120 388t317 141q127 0 210 -51t117 -134h15v172h301v-1144
q0 -274 -238 -383q-133 -61 -317 -61q-244 0 -370 102t-130 252h294q12 -59 67 -95t149 -36z" />
    <glyph glyph-name="h" unicode="h" horiz-adv-x="1315" 
d="M142 0v1565h305v-578h15q27 73 109 131t214 58q185 0 294 -118t109 -321v-737h-306v664q0 125 -58 188q-58 64 -157 64t-159 -66t-61 -188v-662h-305z" />
    <glyph glyph-name="i" unicode="i" horiz-adv-x="620" 
d="M133 1450q0 66 49 108t128 43q79 0 128 -42q49 -41 49 -109t-48 -110t-129 -42t-129 44q-48 42 -48 108zM158 0v1159h306v-1159h-306z" />
    <glyph glyph-name="j" unicode="j" horiz-adv-x="620" 
d="M462 1159v-1171q0 -194 -105 -289t-288 -94q-81 0 -123 8v216q21 -4 80 -4t96 39q36 39 36 126v1169h304zM133 1450q0 66 49 108t128 43q79 0 128 -42q49 -41 49 -109t-48 -110t-129 -42t-129 44q-48 42 -48 108z" />
    <glyph glyph-name="k" unicode="k" horiz-adv-x="1217" 
d="M445 0h-306v1565h306v-882h15l368 476h344l-414 -501l443 -658h-356l-321 485l-79 -87v-398z" />
    <glyph glyph-name="l" unicode="l" horiz-adv-x="597" 
d="M146 0v1565h308v-1565h-308z" />
    <glyph glyph-name="m" unicode="m" horiz-adv-x="1948" 
d="M137 0v1159h298v-172h17q38 107 154 159q67 30 173 30t188 -54t111 -148h15q42 114 182 171q76 31 169 31q175 0 275 -104t100 -279v-793h-306v703q0 163 -114 205q-35 14 -79 14q-88 0 -142 -59t-54 -168v-695h-294v695q0 117 -53 172t-139 55t-140 -57t-55 -168v-697
h-306z" />
    <glyph glyph-name="n" unicode="n" horiz-adv-x="1309" 
d="M137 0v1159h298v-172h15q31 75 117 132t216 57q179 0 287 -108t108 -306v-762h-304v672q0 153 -85 210q-45 32 -120 33q-147 2 -199 -111q-27 -57 -27 -138v-666h-306z" />
    <glyph glyph-name="o" unicode="o" horiz-adv-x="1240" 
d="M847 616q0 329 -225 329t-229 -329v-73q0 -247 137 -310q41 -19 92 -19q225 0 225 329v73zM622 1178q258 0 396 -152t139 -406v-75q0 -266 -137 -416q-138 -150 -398 -150t-398 149t-139 415v77q-1 250 139 404t398 154z" />
    <glyph glyph-name="p" unicode="p" horiz-adv-x="1307" 
d="M445 529q0 -133 64 -217t169 -85q105 0 166 79t61 229v89q0 148 -61 227t-168 79q-144 0 -203 -138q-28 -68 -28 -159v-104zM789 -15q-125 0 -208 51t-123 135h-13v-554h-308v1542h304v-172h13q34 85 122 135t215 50q197 0 313 -138t116 -393v-125q0 -252 -116 -392
t-315 -139z" />
    <glyph glyph-name="q" unicode="q" horiz-adv-x="1307" 
d="M631 930q-109 0 -169 -80t-60 -226v-91q0 -198 108 -271q52 -35 123 -35q108 0 169 84t62 220v93q0 146 -62 226t-171 80zM522 1172q124 0 212 -50t121 -135h13v172h302v-1544h-306v556h-13q-33 -85 -120 -135t-211 -51q-204 1 -318 141t-115 390v129q1 247 117 387
t318 140z" />
    <glyph glyph-name="r" unicode="r" horiz-adv-x="857" 
d="M148 0v1159h306v-160h12q24 71 88 123t181 52q60 0 95 -8v-263q-37 10 -118 11q-250 0 -250 -263v-651h-314z" />
    <glyph glyph-name="s" unicode="s" horiz-adv-x="1128" 
d="M96 830q0 80 37 152q68 131 254 175q83 21 181 21q206 0 327 -95t121 -259h-271q-6 60 -50 104t-129 44t-132 -36t-47 -93t39 -81q58 -39 146 -55q17 -3 62 -11t55 -9q175 -29 269 -104t93 -223q0 -179 -133 -280q-132 -101 -362 -101t-356 96t-127 252h295
q8 -60 60 -100t118 -40q208 0 207 138q0 39 -14 55q-44 49 -174 76q-70 10 -97 19q-213 38 -303 134q-69 74 -69 221z" />
    <glyph glyph-name="t" unicode="t" horiz-adv-x="822" 
d="M223 1145v287h297v-287h223v-235h-223v-537q0 -81 38 -113t107 -33q70 0 82 2v-225q-54 -10 -139 -10q-214 0 -303 77q-88 77 -89 258v581h-166v235h173z" />
    <glyph glyph-name="u" unicode="u" horiz-adv-x="1307" 
d="M1170 1159v-1159h-298v173h-15q-29 -77 -114 -133t-197 -56q-201 -1 -308 102t-107 307v766h306v-684q0 -127 59 -180t153 -53t154 60q60 62 61 177v680h306z" />
    <glyph glyph-name="v" unicode="v" horiz-adv-x="1150" 
d="M393 0l-381 1159h333l217 -878h12l244 878h323l-404 -1159h-344z" />
    <glyph glyph-name="w" unicode="w" horiz-adv-x="1723" 
d="M1705 1159l-300 -1159h-319l-216 812h-8l-213 -812h-322l-306 1159h320l163 -843h10l208 843h287l213 -843h12l165 843h306z" />
    <glyph glyph-name="x" unicode="x" horiz-adv-x="1190" 
d="M810 0l-215 383h-12l-217 -383h-324l356 577l-369 582h354l210 -383h13l216 383h337l-376 -574l368 -585h-341z" />
    <glyph glyph-name="y" unicode="y" horiz-adv-x="1194" 
d="M218 -187q164 0 188 150l10 37l-395 1159h337l233 -901h13l239 901h325q-368 -1105 -373 -1119l-29 -80q-63 -167 -171 -268q-107 -102 -325 -102q-108 0 -168 12v219q34 -8 116 -8z" />
    <glyph glyph-name="z" unicode="z" horiz-adv-x="1094" 
d="M92 0v171l541 739v14h-533v235h903v-189l-522 -720v-15h537v-235h-926z" />
    <glyph glyph-name="braceleft" unicode="{" horiz-adv-x="874" 
d="M560 94q0 -81 19 -126q37 -87 201 -87h44v-222h-108q-231 -1 -339 91t-109 304v227q0 117 -35 167t-137 49v277q102 0 137 50t35 165v195q0 210 108 298t340 87h108v-220h-44q-128 0 -174 -47t-46 -166v-247q0 -114 -54 -171t-163 -67v-31q216 -19 217 -256v-270z" />
    <glyph glyph-name="bar" unicode="|" horiz-adv-x="772" 
d="M524 -325h-274v1890h274v-1890z" />
    <glyph glyph-name="braceright" unicode="}" horiz-adv-x="876" 
d="M318 889v247q0 119 -46 166q-47 47 -174 47h-46v220h108q156 0 251 -36q197 -75 197 -349v-195q0 -115 36 -165t139 -50v-277q-103 0 -139 -50t-36 -166v-227q0 -278 -197 -357q-97 -39 -251 -38h-108v222h46q127 0 174 47t46 166v270q1 237 215 256v31q-215 18 -215 238
z" />
    <glyph glyph-name="asciitilde" unicode="~" horiz-adv-x="1213" 
d="M820 520q-119 0 -243 109q-10 7 -33 26t-39 31t-25 17q-9 3 -27 13t-43 10q-114 0 -123 -170h-225q0 191 80 308t247 116q125 0 244 -106q39 -33 57 -49q51 -47 109 -47q117 0 125 169h225q1 -189 -83 -308t-246 -119z" />
    <glyph glyph-name="nonbreakingspace" unicode="&#xa0;" horiz-adv-x="437" 
 />
    <glyph glyph-name="exclamdown" unicode="&#xa1;" horiz-adv-x="613" 
d="M123 1047q0 71 50 115t134 43q84 1 134 -43t50 -104q0 -108 -86 -150q-43 -20 -113 -20t-119 44q-50 44 -50 115zM475 -302h-338l38 1033h264z" />
    <glyph glyph-name="cent" unicode="&#xa2;" horiz-adv-x="1288" 
d="M762 -89h-231v241q-179 19 -298 154t-119 364v154q0 216 120 350t297 156v246h231v-248q166 -18 272 -134t109 -264h-275q-9 99 -104 150q-52 29 -114 29q-179 0 -236 -170q-17 -52 -16 -115v-156q0 -133 68 -211t173 -78q106 0 164 48t69 118h275q-1 -156 -111 -265
t-274 -126v-243z" />
    <glyph glyph-name="sterling" unicode="&#xa3;" horiz-adv-x="1288" 
d="M1218 248v-248h-1118v256q85 8 130 58t45 177v144h-190v208h190v266q0 187 125 295q124 108 342 109q218 0 342 -107t127 -309h-287q-4 75 -51 122t-132 47t-131 -54q-46 -53 -46 -138v-231h316v-208h-316l-2 -154q-2 -175 -92 -217v-16h748z" />
    <glyph glyph-name="currency" unicode="&#xa4;" horiz-adv-x="1288" 
d="M644 472q96 0 167 69q70 69 69 167q0 98 -70 168t-167 69q-98 0 -167 -71q-68 -71 -68 -167q0 -97 70 -166t166 -69zM181 706q0 130 67 239l-173 173l154 154l173 -173q110 71 241 71t242 -69l170 171l154 -154l-170 -171q67 -110 67 -240t-72 -243l175 -175l-154 -154
l-175 177q-108 -66 -237 -66t-237 68l-177 -179l-154 154l177 177q-71 110 -71 240z" />
    <glyph glyph-name="yen" unicode="&#xa5;" horiz-adv-x="1288" 
d="M1118 210h-315v-210h-314v210h-310v190h310v129h-310v191h223l-412 766h347l306 -624h13l306 624h339l-414 -766h231v-191h-315v-129h315v-190z" />
    <glyph glyph-name="brokenbar" unicode="&#xa6;" horiz-adv-x="630" 
d="M454 -325h-275v739h275v-739zM454 849h-275v716h275v-716z" />
    <glyph glyph-name="section" unicode="&#xa7;" horiz-adv-x="1013" 
d="M699 606q0 133 -187 170q-8 4 -69 15q-46 -17 -80 -64t-34 -109t52 -102q52 -39 176 -66l36 -9q46 21 76 68t30 97zM638 -20q45 40 45 95q0 54 -38 87q-56 48 -250 94q-151 46 -216 96t-90 105t-24 128q0 175 181 275v8q-173 100 -173 278t127 274t316 95q129 0 227 -45
q98 -46 150 -126t52 -185h-252q-4 56 -54 101t-126 45t-121 -39t-44 -100q0 -86 106 -126q48 -19 144 -43q281 -71 341 -201q27 -57 27 -132q0 -177 -169 -291v-9q77 -46 119 -104t41 -154q1 -171 -123 -275t-325 -104t-325 96t-126 258h254q10 -65 60 -103t135 -38
q86 0 131 40z" />
    <glyph glyph-name="dieresis" unicode="&#xa8;" horiz-adv-x="1030" 
d="M595 1466q-1 44 37 81t88 37t81 -17q65 -36 65 -105q0 -70 -38 -106t-83 -36q-150 0 -150 146zM156 1466q0 44 36 81t98 37q60 0 98 -36t38 -96t-36 -96q-38 -36 -84 -36q-150 0 -150 146z" />
    <glyph glyph-name="copyright" unicode="&#xa9;" horiz-adv-x="1785" 
d="M899 -69q-345 -1 -565 217t-220 553v113q0 206 100 377t280 269t377 99q371 0 592 -219q102 -100 161 -237t60 -289v-113q0 -335 -220 -553t-565 -217zM262 699q0 -275 176 -449t461 -175q285 0 463 175t178 449v115q0 254 -180 428t-461 173q-139 0 -259 -47t-203 -128
q-175 -171 -175 -426v-115zM724 687q0 -190 193 -190q63 -1 104 29t49 80h189q-4 -119 -99 -201q-94 -82 -258 -82q-164 1 -270 97t-105 269v106q0 171 106 266q106 96 272 96q101 1 183 -41t124 -109t45 -143h-191q-4 48 -44 86t-115 39q-183 0 -183 -200v-102z" />
    <glyph glyph-name="ordfeminine" unicode="&#xaa;" horiz-adv-x="718" 
d="M248 1030q0 -35 28 -54t71 -19q44 0 77 24q32 24 32 64v54h-106q-102 0 -102 -69zM290 820q-122 0 -184 52t-62 144t63 144t191 51h158v52q0 77 -90 77t-102 -58h-189q11 202 299 202t288 -225v-429h-196v80h-10q-44 -90 -166 -90z" />
    <glyph glyph-name="guillemotleft" unicode="&#xab;" horiz-adv-x="1411" 
d="M100 616l375 439h283l-371 -439v-6l371 -441h-294l-364 437v10zM649 616l375 439h283l-368 -439v-6l368 -441h-291l-367 437v10z" />
    <glyph glyph-name="logicalnot" unicode="&#xac;" horiz-adv-x="1288" 
d="M1197 94h-267v374h-843v246h1110v-620z" />
    <glyph glyph-name="registered" unicode="&#xae;" horiz-adv-x="1261" 
d="M549 758h-131v524h263q116 0 163 -82q22 -39 22 -91q0 -51 -29 -95t-73 -57l118 -199h-143l-104 185h-86v-185zM549 1184v-143h84q96 0 95 72q0 33 -22 53q-23 19 -63 18h-94zM630 570q184 0 305 117t120 291v75q0 164 -122 280q-121 116 -303 116t-304 -116t-122 -280
v-75q0 -176 121 -292t305 -116zM629 452q-156 0 -282 68t-196 188q-70 121 -70 270v77q0 214 157 362q156 148 390 148t391 -149t157 -361v-77q0 -226 -154 -376t-393 -150z" />
    <glyph glyph-name="macron" unicode="&#xaf;" horiz-adv-x="1030" 
d="M837 1369h-643v159h643v-159z" />
    <glyph glyph-name="degree" unicode="&#xb0;" horiz-adv-x="609" 
d="M308 1120q48 0 81 34t33 83t-32 83q-34 34 -82 33q-48 0 -82 -33q-34 -32 -34 -82t34 -84t82 -34zM308 964q-77 0 -139 36q-63 36 -99 98t-37 138q0 114 79 192t196 79q75 1 137 -35q61 -36 97 -98t37 -138q1 -114 -79 -193t-192 -79z" />
    <glyph glyph-name="plusminus" unicode="&#xb1;" horiz-adv-x="1288" 
d="M1174 69h-1055v239h1055v-239zM774 699v-268h-264v268h-393v231h393v250h264v-250h398v-231h-398z" />
    <glyph glyph-name="twosuperior" unicode="&#xb2;" horiz-adv-x="703" 
d="M258 1249h-198v14q0 98 73 170t207 72q134 1 212 -61q77 -62 77 -158q0 -48 -25 -97t-46 -71l-42 -42q-20 -18 -23 -23l-143 -127v-4h289v-162h-560v125l264 253q83 79 83 121t-24 65q-26 23 -56 23q-57 0 -79 -42q-9 -19 -9 -40v-16z" />
    <glyph glyph-name="threesuperior" unicode="&#xb3;" horiz-adv-x="718" 
d="M266 1057v148h82q45 0 67 23t22 49q0 50 -43 69q-20 9 -48 9q-85 0 -92 -81h-189q4 106 79 168t206 62t206 -53q75 -55 75 -131t-41 -120t-99 -57v-7q96 -12 140 -81q23 -37 23 -87q0 -106 -88 -164t-222 -59q-134 0 -210 68t-78 165h192q0 -35 26 -57t72 -22t74 23
q30 23 30 57t-27 56t-73 22h-84z" />
    <glyph glyph-name="acute" unicode="&#xb4;" horiz-adv-x="1030" 
d="M489 1334h-258l227 321h308z" />
    <glyph glyph-name="paragraph" unicode="&#xb6;" horiz-adv-x="1546" 
d="M1099 -229v1715h289v-1715h-289zM922 -229h-289v708h-23q-185 0 -340 122q-76 61 -123 161t-47 215q0 314 232 440q127 69 280 69h310v-1715z" />
    <glyph glyph-name="periodcentered" unicode="&#xb7;" horiz-adv-x="661" 
d="M135 827q0 78 51 126q50 48 114 48q120 0 169 -83q24 -40 24 -104t-51 -112q-51 -46 -128 -46t-128 46t-51 125z" />
    <glyph glyph-name="cedilla" unicode="&#xb8;" horiz-adv-x="1030" 
d="M387 -256v112l56 150h175l-50 -133q128 0 182 -85q26 -42 26 -100q0 -104 -73 -157t-182 -55t-173 16v138q52 -17 120 -17q119 0 119 66q0 37 -32 51t-110 14h-58z" />
    <glyph glyph-name="onesuperior" unicode="&#xb9;" horiz-adv-x="609" 
d="M472 760h-208v543h-10l-169 -117v177l179 123h208v-726z" />
    <glyph glyph-name="ordmasculine" unicode="&#xba;" horiz-adv-x="732" 
d="M691 1178v-56q0 -198 -152 -274q-73 -36 -173 -36t-172 35t-113 105q-40 70 -39 168v58q0 138 88 222t236 84t237 -83q88 -83 88 -223zM487 1118v60q-1 72 -31 114t-90 42t-90 -43t-30 -113v-60q0 -69 29 -113t91 -43q121 0 121 156z" />
    <glyph glyph-name="guillemotright" unicode="&#xbb;" horiz-adv-x="1411" 
d="M762 616v-10l-364 -437h-294l371 441v6l-371 439h283zM1313 616v-10l-364 -437h-293l368 441v6l-368 439h283z" />
    <glyph glyph-name="onequarter" unicode="&#xbc;" horiz-adv-x="1515" 
d="M279 -2h-227l608 782l537 706h227l-598 -766zM398 760h-211v543h-8l-169 -117v177l177 123h211v-726zM1413 724v-460h88v-150h-88v-114h-185v114h-362v148q93 175 268 462h279zM1045 264h183v315h-8q-87 -142 -175 -313v-2z" />
    <glyph glyph-name="onehalf" unicode="&#xbd;" horiz-adv-x="1525" 
d="M279 -2h-227l608 782l537 706h227l-598 -766zM398 760h-211v543h-8l-169 -117v177l177 123h211v-726zM1151 483h-198v14q0 91 69 166q69 76 210 76q140 1 217 -61t77 -145t-36 -135q-21 -34 -30 -44q-10 -10 -22 -24t-18 -18t-16 -15q-11 -11 -14 -12l-145 -129v-6h293
v-162h-566v126l266 254q84 79 84 122t-24 66t-62 23t-61 -24q-24 -24 -24 -58v-14z" />
    <glyph glyph-name="threequarters" unicode="&#xbe;" horiz-adv-x="1571" 
d="M335 -2h-229l610 782l537 706h227l-598 -766zM300 1193q91 0 91 83q0 27 -25 47q-26 19 -68 19t-65 -22t-25 -59h-193q4 109 80 171t230 62t228 -92q34 -46 34 -108t-42 -107t-100 -57v-6q73 -8 119 -51t46 -120q0 -106 -88 -164t-216 -58q-216 0 -280 146q-18 41 -18 87
h192q2 -36 27 -58t72 -22t76 24q29 22 29 56t-27 58q-27 23 -75 23h-83v148h81zM1471 724v-460h86v-150h-86v-114h-187v114h-362v148q93 175 266 462h283zM1101 264h183v315h-8q-81 -131 -175 -313v-2z" />
    <glyph glyph-name="questiondown" unicode="&#xbf;" horiz-adv-x="1067" 
d="M181 -239q-139 104 -139 288t136 298q30 26 109 81t114 98q34 43 34 125v55h275l2 -61q8 -117 -42 -202t-150 -152q-62 -43 -91 -67t-53 -64t-24 -87q0 -87 56 -131t144 -44t140 57q51 57 53 149h281q4 -117 -36 -206t-115 -140q-147 -101 -350 -101q-204 0 -344 104z
M564 1195q116 1 164 -75q22 -36 23 -96q0 -60 -51 -102t-134 -42t-134 43t-51 113t50 115q50 44 133 44z" />
    <glyph glyph-name="Agrave" unicode="&#xc0;" horiz-adv-x="1381" 
d="M847 1638h-254l-333 233h302zM691 1191h-15l-174 -590h360zM329 0h-314l491 1486h374l489 -1486h-337l-108 368h-485z" />
    <glyph glyph-name="Aacute" unicode="&#xc1;" horiz-adv-x="1381" 
d="M516 1638l296 241h314l-343 -241h-267zM691 1191h-15l-174 -590h360zM329 0h-314l491 1486h374l489 -1486h-337l-108 368h-485z" />
    <glyph glyph-name="Acircumflex" unicode="&#xc2;" horiz-adv-x="1381" 
d="M302 1628l293 266h206l285 -266h-239l-144 139h-14l-150 -139h-237zM691 1191h-15l-174 -590h360zM329 0h-314l491 1486h374l489 -1486h-337l-108 368h-485z" />
    <glyph glyph-name="Atilde" unicode="&#xc3;" horiz-adv-x="1381" 
d="M1043 1838q1 -98 -59 -170t-136 -72t-108 15q-34 15 -52 33t-26 24t-14 12q-31 30 -63 31q-67 0 -71 -92h-156q0 94 52 165t150 70q89 0 148 -52q53 -47 67 -59q13 -11 41 -11q58 0 71 106h156zM691 1191h-15l-174 -590h360zM329 0h-314l491 1486h374l489 -1486h-337
l-108 368h-485z" />
    <glyph glyph-name="Adieresis" unicode="&#xc4;" horiz-adv-x="1381" 
d="M902 1603q-56 0 -90 33q-32 33 -32 86q0 54 32 86t89 32q55 0 89 -32t34 -86t-33 -86q-33 -33 -89 -33zM389 1722q-1 54 33 86t90 32t88 -32t32 -94t-56 -96q-26 -16 -72 -16t-80 34q-34 33 -35 86zM691 1191h-15l-174 -590h360zM329 0h-314l491 1486h374l489 -1486h-337
l-108 368h-485z" />
    <glyph glyph-name="Aring" unicode="&#xc5;" horiz-adv-x="1384" 
d="M687 1890q123 0 209 -83t86 -199t-79 -193l469 -1415h-340l-108 368h-485l-110 -368h-314l466 1403q-89 75 -90 198q1 123 87 206t209 83zM864 601l-173 590h-15l-174 -590h362zM564 1599q0 -51 35 -86t78 -35t71 16q62 34 62 95t-36 95t-87 35q-52 0 -88 -34
q-35 -35 -35 -86z" />
    <glyph glyph-name="AE" unicode="&#xc6;" horiz-adv-x="2066" 
d="M993 368h-460l-179 -368h-346l714 1486h1237v-254h-654v-362h614v-237h-614v-379h654v-254h-966v368zM993 610v622h-73l-285 -622h358z" />
    <glyph glyph-name="Ccedilla" unicode="&#xc7;" horiz-adv-x="1398" 
d="M668 -387q119 0 119 66q-1 37 -33 51t-107 14h-60v112l46 119q-349 39 -476 336q-63 147 -63 347v166q0 327 166 509t448 182t444 -152t161 -376v-32h-301q0 123 -76 208t-212 86q-197 0 -271 -189q-39 -97 -39 -236v-168q0 -208 82 -314t224 -105q142 0 217 79t75 200
h301v-31q0 -193 -134 -339t-369 -169l-42 -104q131 0 183 -85q25 -42 25 -100q0 -104 -72 -157t-179 -55q-108 -2 -178 16v138q52 -17 121 -17z" />
    <glyph glyph-name="Egrave" unicode="&#xc8;" horiz-adv-x="1232" 
d="M1124 254v-254h-970v1486h970v-254h-658v-362h618v-237h-618v-379h658zM783 1638h-254l-333 233h304z" />
    <glyph glyph-name="Eacute" unicode="&#xc9;" horiz-adv-x="1232" 
d="M1124 254v-254h-970v1486h970v-254h-658v-362h618v-237h-618v-379h658zM452 1638l295 241h317l-346 -241h-266z" />
    <glyph glyph-name="Ecircumflex" unicode="&#xca;" horiz-adv-x="1232" 
d="M1124 254v-254h-970v1486h970v-254h-658v-362h618v-237h-618v-379h658zM237 1628l294 266h206l285 -266h-237l-146 139h-15l-149 -139h-238z" />
    <glyph glyph-name="Edieresis" unicode="&#xcb;" horiz-adv-x="1232" 
d="M1124 254v-254h-970v1486h970v-254h-658v-362h618v-237h-618v-379h658zM716 1722q0 54 33 86t89 32t88 -32q33 -32 33 -86t-33 -86q-33 -33 -88 -33t-89 33q-33 33 -33 86zM327 1712q0 84 57 113q28 15 64 15q75 0 108 -56q14 -27 14 -71t-33 -77t-88 -33t-89 33
q-33 32 -33 76z" />
    <glyph glyph-name="Igrave" unicode="&#xcc;" horiz-adv-x="622" 
d="M466 1638h-256l-331 233h302zM468 0h-314v1486h314v-1486z" />
    <glyph glyph-name="Iacute" unicode="&#xcd;" horiz-adv-x="622" 
d="M135 1638l296 241h314l-343 -241h-267zM468 0h-314v1486h314v-1486z" />
    <glyph glyph-name="Icircumflex" unicode="&#xce;" horiz-adv-x="622" 
d="M-79 1628l293 266h206l286 -266h-240l-143 139h-15l-150 -139h-237zM468 0h-314v1486h314v-1486z" />
    <glyph glyph-name="Idieresis" unicode="&#xcf;" horiz-adv-x="622" 
d="M398 1730q0 44 33 78q33 32 88 32t89 -32t35 -86q0 -54 -33 -86q-33 -33 -80 -33t-74 15q-58 34 -58 112zM132 1603q-56 0 -90 33q-34 32 -34 76q0 82 59 113q27 15 64 15q76 0 106 -56q15 -27 15 -71t-32 -77t-88 -33zM468 0h-314v1486h314v-1486z" />
    <glyph glyph-name="Eth" unicode="&#xd0;" horiz-adv-x="1550" 
d="M566 262h196q191 0 289 112t98 373q0 362 -201 455q-78 36 -186 36h-196v-349h256v-271h-256v-356zM252 0v618h-179v271h179v597h556q355 0 510 -200q154 -200 155 -540q1 -339 -156 -543q-157 -203 -509 -203h-556z" />
    <glyph glyph-name="Ntilde" unicode="&#xd1;" horiz-adv-x="1506" 
d="M450 0h-296v1486h258l635 -953h10v953h298v-1486h-258l-637 959h-10v-959zM418 1619q0 94 53 165t151 70q86 0 148 -52q23 -20 40 -35t29 -25t42 -10t47 32t19 74h156q0 -98 -58 -170t-150 -72q-95 0 -145 46q-18 16 -28 28q-12 11 -30 26t-45 15q-69 0 -73 -92h-156z
" />
    <glyph glyph-name="Ograve" unicode="&#xd2;" horiz-adv-x="1475" 
d="M94 645v185q0 318 171 502q172 183 474 183q301 0 473 -184t172 -501v-185q0 -314 -172 -494t-475 -180q-200 0 -346 81t-221 233q-76 152 -76 360zM414 835v-190q0 -202 88 -307t237 -105q148 0 236 105t89 307v190q0 135 -43 231q-85 189 -282 189q-149 0 -237 -109
t-88 -311zM893 1638h-254l-333 233h302z" />
    <glyph glyph-name="Oacute" unicode="&#xd3;" horiz-adv-x="1475" 
d="M94 645v185q0 318 171 502q172 183 474 183q301 0 473 -184t172 -501v-185q0 -314 -172 -494t-475 -180q-200 0 -346 81t-221 233q-76 152 -76 360zM414 835v-190q0 -202 88 -307t237 -105q148 0 236 105t89 307v190q0 135 -43 231q-85 189 -282 189q-149 0 -237 -109
t-88 -311zM562 1638l295 241h315l-344 -241h-266z" />
    <glyph glyph-name="Ocircumflex" unicode="&#xd4;" horiz-adv-x="1475" 
d="M94 645v185q0 318 171 502q172 183 474 183q301 0 473 -184t172 -501v-185q0 -314 -172 -494t-475 -180q-200 0 -346 81t-221 233q-76 152 -76 360zM414 835v-190q0 -202 88 -307t237 -105q148 0 236 105t89 307v190q0 135 -43 231q-85 189 -282 189q-149 0 -237 -109
t-88 -311zM348 1628l293 266h206l285 -266h-239l-144 139h-14l-150 -139h-237z" />
    <glyph glyph-name="Otilde" unicode="&#xd5;" horiz-adv-x="1475" 
d="M631 1711q-67 0 -71 -92h-156q0 94 52 165t150 70q100 0 167 -67q28 -27 44 -41t48 -14t49 32t18 74h157q1 -98 -59 -170t-136 -72t-108 15q-45 21 -81 60q-36 40 -74 40zM94 645v185q0 318 171 502q172 183 474 183q301 0 473 -184t172 -501v-185q0 -314 -172 -494
t-475 -180q-200 0 -346 81t-221 233q-76 152 -76 360zM414 835v-190q0 -202 88 -307t237 -105q148 0 236 105t89 307v190q0 135 -43 231q-85 189 -282 189q-149 0 -237 -109t-88 -311z" />
    <glyph glyph-name="Odieresis" unicode="&#xd6;" horiz-adv-x="1475" 
d="M94 645v185q0 318 171 502q172 183 474 183q301 0 473 -184t172 -501v-185q0 -314 -172 -494t-475 -180q-200 0 -346 81t-221 233q-76 152 -76 360zM414 835v-190q0 -202 88 -307t237 -105q148 0 236 105t89 307v190q0 135 -43 231q-85 189 -282 189q-149 0 -237 -109
t-88 -311zM824 1722q0 54 33 86t89 32t89 -32q35 -32 35 -86t-34 -86q-34 -33 -89 -33q-56 0 -90 33q-33 33 -33 86zM435 1712q0 81 58 113q27 15 65 15q74 0 106 -56q15 -27 15 -71q-1 -44 -33 -77t-87 -33t-90 33q-34 32 -34 76z" />
    <glyph glyph-name="multiply" unicode="&#xd7;" horiz-adv-x="1288" 
d="M974 65l-329 330l-329 -330l-187 189l329 329l-329 329l187 189l329 -331l329 331l187 -189l-328 -329l328 -329z" />
    <glyph glyph-name="Oslash" unicode="&#xd8;" horiz-adv-x="1475" 
d="M739 225q151 0 241 106t90 310v194q0 92 -23 154l-541 -668q83 -96 233 -96zM406 641q0 -83 21 -139l537 664q-87 94 -232 94t-236 -111q-91 -110 -90 -314v-194zM737 -29q-250 0 -410 131l-106 -133l-138 112l121 148q-110 167 -110 416v185q0 318 171 502
q172 183 474 183q246 0 406 -129l95 119l142 -104l-114 -140q117 -173 116 -431v-185q0 -314 -172 -494t-475 -180z" />
    <glyph glyph-name="Ugrave" unicode="&#xd9;" horiz-adv-x="1488" 
d="M452 1486v-939q0 -202 138 -273q66 -34 155 -35q133 -1 212 81t79 227v939h317v-972q1 -246 -165 -394t-443 -149q-277 0 -442 150t-166 395v970h315zM899 1638h-256l-331 233h302z" />
    <glyph glyph-name="Uacute" unicode="&#xda;" horiz-adv-x="1488" 
d="M452 1486v-939q0 -202 138 -273q66 -34 155 -35q133 -1 212 81t79 227v939h317v-972q1 -246 -165 -394t-443 -149q-277 0 -442 150t-166 395v970h315zM568 1638l294 241h316l-343 -241h-267z" />
    <glyph glyph-name="Ucircumflex" unicode="&#xdb;" horiz-adv-x="1488" 
d="M452 1486v-939q0 -202 138 -273q66 -34 155 -35q133 -1 212 81t79 227v939h317v-972q1 -246 -165 -394t-443 -149q-277 0 -442 150t-166 395v970h315zM352 1628l293 266h208l285 -266h-239l-146 139h-14l-148 -139h-239z" />
    <glyph glyph-name="Udieresis" unicode="&#xdc;" horiz-adv-x="1488" 
d="M452 1486v-939q0 -202 138 -273q66 -34 155 -35q133 -1 212 81t79 227v939h317v-972q1 -246 -165 -394t-443 -149q-277 0 -442 150t-166 395v970h315zM833 1722q0 54 32 86t88 32q55 0 89 -32t34 -86t-33 -86q-33 -33 -89 -33t-89 33q-32 33 -32 86zM441 1712
q1 128 133 128q46 0 80 -32t33 -86q0 -54 -33 -86q-32 -33 -88 -33t-90 33q-34 32 -35 76z" />
    <glyph glyph-name="Yacute" unicode="&#xdd;" horiz-adv-x="1265" 
d="M458 1638l293 241h317l-344 -241h-266zM791 0h-314v549l-498 937h348l306 -624h10l308 624h337l-497 -928v-558z" />
    <glyph glyph-name="Thorn" unicode="&#xde;" horiz-adv-x="1311" 
d="M466 995v-466h192q133 0 206 52t73 175q0 239 -254 239h-217zM154 1486h312v-243h281q239 -1 375 -133t135 -348q0 -296 -235 -415q-117 -59 -277 -60h-277v-287h-314v1486z" />
    <glyph glyph-name="germandbls" unicode="&#xdf;" horiz-adv-x="1440" 
d="M456 0h-308v1141q0 210 152 321q152 110 390 112t384 -108t146 -286q0 -146 -80 -238t-176 -107v-19q158 -2 276 -105t117 -288q0 -142 -75 -245q-143 -197 -460 -197q-125 0 -196 21v242q54 -21 138 -21q167 0 242 93q39 50 39 122t-42 123q-83 101 -264 101h-88v254h52
q85 0 151 59t66 151t-59 148t-168 56q-237 0 -237 -252v-1078z" />
    <glyph glyph-name="agrave" unicode="&#xe0;" 
d="M783 1338h-259l-285 317h308zM383 352q0 -68 52 -110q52 -40 133 -40t142 52q60 52 60 131v115h-206q-87 0 -134 -40t-47 -108zM460 -17q-171 0 -276 94t-105 255t107 254t305 93h279v112q0 154 -177 154q-85 0 -131 -39t-52 -107h-287q4 155 114 266t345 111
q492 0 492 -393v-783h-289v146h-13q-47 -94 -165 -139q-66 -24 -147 -24z" />
    <glyph glyph-name="aacute" unicode="&#xe1;" 
d="M722 1334h-258l227 321h308zM383 352q0 -68 52 -110q52 -40 133 -40t142 52q60 52 60 131v115h-206q-87 0 -134 -40t-47 -108zM460 -17q-171 0 -276 94t-105 255t107 254t305 93h279v112q0 154 -177 154q-85 0 -131 -39t-52 -107h-287q4 155 114 266t345 111
q492 0 492 -393v-783h-289v146h-13q-47 -94 -165 -139q-66 -24 -147 -24z" />
    <glyph glyph-name="acircumflex" unicode="&#xe2;" 
d="M237 1334l250 335h219l239 -335h-235l-111 192h-10l-123 -192h-229zM383 352q0 -68 52 -110q52 -40 133 -40t142 52q60 52 60 131v115h-206q-87 0 -134 -40t-47 -108zM460 -17q-171 0 -276 94t-105 255t107 254t305 93h279v112q0 154 -177 154q-85 0 -131 -39t-52 -107
h-287q4 155 114 266t345 111q492 0 492 -393v-783h-289v146h-13q-47 -94 -165 -139q-66 -24 -147 -24z" />
    <glyph glyph-name="atilde" unicode="&#xe3;" 
d="M722 1457q70 0 75 123h175q0 -123 -68 -214q-68 -90 -168 -90t-160 62q-62 62 -104 63q-75 0 -79 -106h-174q0 129 60 216q59 87 163 87t187 -83q4 -4 14 -13q11 -10 15 -14q32 -32 64 -31zM383 352q0 -68 52 -110q52 -40 133 -40t142 52q60 52 60 131v115h-206
q-87 0 -134 -40t-47 -108zM460 -17q-171 0 -276 94t-105 255t107 254t305 93h279v112q0 154 -177 154q-85 0 -131 -39t-52 -107h-287q4 155 114 266t345 111q492 0 492 -393v-783h-289v146h-13q-47 -94 -165 -139q-66 -24 -147 -24z" />
    <glyph glyph-name="adieresis" unicode="&#xe4;" 
d="M689 1411q0 59 36 95q35 36 97 36t100 -36t37 -94q0 -58 -37 -96q-38 -36 -98 -36t-98 36q-37 37 -37 95zM250 1402q0 88 63 124q30 16 81 16q50 0 88 -36t38 -94t-37 -96q-37 -36 -97 -36t-99 36q-37 37 -37 86zM383 352q0 -68 52 -110q52 -40 133 -40t142 52
q60 52 60 131v115h-206q-87 0 -134 -40t-47 -108zM460 -17q-171 0 -276 94t-105 255t107 254t305 93h279v112q0 154 -177 154q-85 0 -131 -39t-52 -107h-287q4 155 114 266t345 111q492 0 492 -393v-783h-289v146h-13q-47 -94 -165 -139q-66 -24 -147 -24z" />
    <glyph glyph-name="aring" unicode="&#xe5;" 
d="M497 1517q1 -44 29 -72t70 -28t72 28q29 28 29 72t-29 73t-72 29t-71 -29t-28 -73zM597 1288q-101 0 -169 65t-68 165t68 166q68 64 170 64t169 -63q68 -63 68 -166t-68 -167t-170 -64zM383 352q0 -68 52 -110q52 -40 133 -40t142 52q60 52 60 131v115h-206
q-87 0 -134 -40t-47 -108zM460 -17q-171 0 -276 94t-105 255t107 254t305 93h279v112q0 154 -177 154q-85 0 -131 -39t-52 -107h-287q4 155 114 266t345 111q492 0 492 -393v-783h-289v146h-13q-47 -94 -165 -139q-66 -24 -147 -24z" />
    <glyph glyph-name="ae" unicode="&#xe6;" horiz-adv-x="1904" 
d="M379 358q0 -76 54 -116t135 -40t143 52q61 52 61 131v119h-206q-133 0 -175 -88q-12 -27 -12 -58zM1528 710q0 110 -58 176t-155 67q-98 -1 -161 -67t-63 -170v-23h437v17zM591 945q-162 0 -183 -121h-287q8 156 126 255t350 99q156 0 269 -65q54 -31 87 -74h19
q46 62 135 100q89 39 204 39q231 0 371 -145t141 -388v-133h-732v-69q-1 -103 65 -167t160 -64t147 36q54 36 63 91h287q-8 -124 -119 -235q-124 -125 -388 -125q-142 0 -250 58t-157 154h-17q-70 -123 -217 -180q-82 -32 -180 -32q-187 0 -298 95q-110 95 -110 258t109 257
t309 94h277v102q0 79 -48 119t-133 41z" />
    <glyph glyph-name="ccedilla" unicode="&#xe7;" horiz-adv-x="1167" 
d="M549 -375q119 0 119 65q0 53 -58 60q-27 4 -77 4h-58v115l47 116q-206 23 -322 169t-115 379v102q-1 243 139 393t372 150t364 -119q130 -119 133 -297h-281q-6 71 -58 124t-150 53q-96 1 -153 -85t-58 -223v-96q-1 -144 59 -228t159 -84q99 -1 147 45t58 119h281
q-5 -167 -113 -274t-287 -128l-43 -102q96 1 150 -47t53 -128q0 -216 -270 -222q-100 -2 -158 17v137q48 -15 120 -15z" />
    <glyph glyph-name="egrave" unicode="&#xe8;" 
d="M385 701h443v2q0 111 -59 181t-161 70t-163 -70q-60 -70 -60 -181v-2zM85 622q0 173 65 300q64 128 182 192t274 64q244 0 380 -150t136 -404v-110h-737v-37q0 -113 62 -189t162 -76t155 41q54 41 62 103h287q-12 -131 -128 -254t-387 -123q-146 0 -266 65
q-245 132 -247 489v89zM783 1338h-256l-288 317h308z" />
    <glyph glyph-name="eacute" unicode="&#xe9;" 
d="M385 701h443v2q0 111 -59 181t-161 70t-163 -70q-60 -70 -60 -181v-2zM85 622q0 173 65 300q64 128 182 192t274 64q244 0 380 -150t136 -404v-110h-737v-37q0 -113 62 -189t162 -76t155 41q54 41 62 103h287q-12 -131 -128 -254t-387 -123q-146 0 -266 65
q-245 132 -247 489v89zM722 1334h-256l225 321h308z" />
    <glyph glyph-name="ecircumflex" unicode="&#xea;" 
d="M385 701h443v2q0 111 -59 181t-161 70t-163 -70q-60 -70 -60 -181v-2zM85 622q0 173 65 300q64 128 182 192t274 64q244 0 380 -150t136 -404v-110h-737v-37q0 -113 62 -189t162 -76t155 41q54 41 62 103h287q-12 -131 -128 -254t-387 -123q-146 0 -266 65
q-245 132 -247 489v89zM237 1334l250 335h219l239 -335h-235l-111 192h-8l-125 -192h-229z" />
    <glyph glyph-name="edieresis" unicode="&#xeb;" 
d="M691 1411q0 59 36 95q35 36 97 36t98 -36t37 -94q0 -58 -36 -96q-35 -36 -97 -36t-99 36q-36 37 -36 95zM250 1411q0 59 37 95t99 36t98 -36q38 -36 38 -94t-37 -96q-37 -36 -99 -36t-99 36q-37 37 -37 95zM385 701h443v2q0 111 -59 181t-161 70t-163 -70
q-60 -70 -60 -181v-2zM85 622q0 173 65 300q64 128 182 192t274 64q244 0 380 -150t136 -404v-110h-737v-37q0 -113 62 -189t162 -76t155 41q54 41 62 103h287q-12 -131 -128 -254t-387 -123q-146 0 -266 65q-245 132 -247 489v89z" />
    <glyph glyph-name="igrave" unicode="&#xec;" horiz-adv-x="620" 
d="M160 0v1159h315v-1159h-315zM497 1338h-258l-285 317h308z" />
    <glyph glyph-name="iacute" unicode="&#xed;" horiz-adv-x="620" 
d="M160 0v1159h315v-1159h-315zM437 1334h-258l227 321h308z" />
    <glyph glyph-name="icircumflex" unicode="&#xee;" horiz-adv-x="620" 
d="M160 0v1159h315v-1159h-315zM-50 1334l252 335h218l238 -335h-235l-109 192h-10l-123 -192h-231z" />
    <glyph glyph-name="idieresis" unicode="&#xef;" horiz-adv-x="620" 
d="M404 1411q0 59 36 95t98 36t98 -36q38 -36 38 -95q0 -100 -97 -127q-19 -4 -40 -4q-60 0 -97 36q-36 37 -36 95zM-35 1411q0 59 36 95q35 36 97 36t100 -36t37 -94q0 -58 -37 -96q-38 -36 -98 -36t-98 36q-37 37 -37 95zM160 0v1159h315v-1159h-315z" />
    <glyph glyph-name="eth" unicode="&#xf0;" horiz-adv-x="1240" 
d="M623 891q-107 0 -171 -80t-65 -218v-73q-1 -142 63 -220t172 -79q108 0 171 79q62 79 62 220v79q0 142 -62 217q-63 75 -170 75zM1157 533q-1 -260 -145 -407t-391 -147t-391 143t-145 400v65q0 245 127 391t340 146q167 0 253 -100h13l-5 27q-24 131 -149 275l-300 -117
l-56 144l239 91q-92 83 -233 184l300 54q100 -50 189 -136l256 100l61 -139l-196 -75q233 -277 233 -660v-239z" />
    <glyph glyph-name="ntilde" unicode="&#xf1;" horiz-adv-x="1309" 
d="M137 0v1159h298v-172h15q31 75 117 132t216 57q179 0 287 -108t108 -306v-762h-304v672q0 153 -85 210q-45 32 -120 33q-147 2 -199 -111q-27 -57 -27 -138v-666h-306zM527 1401q-75 0 -80 -106h-174q0 129 60 216t177 87q90 0 153 -63q24 -24 34 -33q11 -10 15 -14
q31 -32 66 -31q35 0 55 36q19 36 20 87h173q0 -172 -114 -260q-56 -44 -138 -44t-144 62t-103 63z" />
    <glyph glyph-name="ograve" unicode="&#xf2;" horiz-adv-x="1240" 
d="M847 616q0 329 -225 329t-229 -329v-73q0 -247 137 -310q41 -19 92 -19q225 0 225 329v73zM622 1178q258 0 396 -152t139 -406v-75q0 -266 -137 -416q-138 -150 -398 -150t-398 149t-139 415v77q-1 250 139 404t398 154zM801 1338h-256l-287 317h308z" />
    <glyph glyph-name="oacute" unicode="&#xf3;" horiz-adv-x="1240" 
d="M847 616q0 329 -225 329t-229 -329v-73q0 -247 137 -310q41 -19 92 -19q225 0 225 329v73zM622 1178q258 0 396 -152t139 -406v-75q0 -266 -137 -416q-138 -150 -398 -150t-398 149t-139 415v77q-1 250 139 404t398 154zM741 1334h-256l225 321h308z" />
    <glyph glyph-name="ocircumflex" unicode="&#xf4;" horiz-adv-x="1240" 
d="M847 616q0 329 -225 329t-229 -329v-73q0 -247 137 -310q41 -19 92 -19q225 0 225 329v73zM622 1178q258 0 396 -152t139 -406v-75q0 -266 -137 -416q-138 -150 -398 -150t-398 149t-139 415v77q-1 250 139 404t398 154zM256 1334l250 335h218l240 -335h-236l-110 192
h-10l-123 -192h-229z" />
    <glyph glyph-name="otilde" unicode="&#xf5;" horiz-adv-x="1240" 
d="M847 616q0 329 -225 329t-229 -329v-73q0 -247 137 -310q41 -19 92 -19q225 0 225 329v73zM622 1178q258 0 396 -152t139 -406v-75q0 -266 -137 -416q-138 -150 -398 -150t-398 149t-139 415v77q-1 250 139 404t398 154zM491 1401q-75 0 -79 -106h-173q-1 129 59 216
t177 87q91 0 161 -70l26 -26l14 -14q28 -31 65 -31t56 36t21 87h173q0 -173 -115 -260q-56 -44 -138 -44t-144 62t-103 63z" />
    <glyph glyph-name="odieresis" unicode="&#xf6;" horiz-adv-x="1240" 
d="M847 616q0 329 -225 329t-229 -329v-73q0 -247 137 -310q41 -19 92 -19q225 0 225 329v73zM622 1178q258 0 396 -152t139 -406v-75q0 -266 -137 -416q-138 -150 -398 -150t-398 149t-139 415v77q-1 250 139 404t398 154zM710 1411q0 59 36 95t88 36t81 -16
q65 -36 64 -105t-37 -105t-98 -36t-98 36q-36 37 -36 95zM268 1411q0 59 38 95t98 36q62 0 98 -36t37 -94q0 -58 -36 -96q-35 -36 -97 -36t-100 36t-38 95z" />
    <glyph glyph-name="divide" unicode="&#xf7;" horiz-adv-x="1288" 
d="M468 181q0 75 51 123t126 48t126 -48t51 -123t-51 -122t-126 -47t-126 47t-51 122zM639 907q-103 1 -153 81q-24 38 -24 100t51 111q51 48 113 48t102 -22q88 -48 88 -149q0 -75 -51 -122t-126 -47zM1172 514h-1053v225h1053v-225z" />
    <glyph glyph-name="oslash" unicode="&#xf8;" horiz-adv-x="1240" 
d="M622 -21q-189 0 -322 90l-115 -138l-116 96l120 148q-104 137 -104 347v119q0 241 147 389t390 148q183 0 317 -89l112 133l121 -98l-119 -146q104 -139 104 -335v-121q-1 -256 -145 -400t-390 -143zM387 506q0 -58 19 -102l374 481q-60 71 -166 71t-166 -90
q-60 -89 -61 -225v-135zM630 208q108 0 167 90q58 90 58 224v134q0 54 -18 97l-375 -474q60 -71 168 -71z" />
    <glyph glyph-name="ugrave" unicode="&#xf9;" horiz-adv-x="1307" 
d="M1170 1159v-1159h-298v173h-15q-29 -77 -114 -133t-197 -56q-201 -1 -308 102t-107 307v766h306v-684q0 -127 59 -180t153 -53t154 60q60 62 61 177v680h306zM835 1338h-258l-286 317h308z" />
    <glyph glyph-name="uacute" unicode="&#xfa;" horiz-adv-x="1307" 
d="M1170 1159v-1159h-298v173h-15q-29 -77 -114 -133t-197 -56q-201 -1 -308 102t-107 307v766h306v-684q0 -127 59 -180t153 -53t154 60q60 62 61 177v680h306zM774 1334h-258l227 321h308z" />
    <glyph glyph-name="ucircumflex" unicode="&#xfb;" horiz-adv-x="1307" 
d="M1170 1159v-1159h-298v173h-15q-29 -77 -114 -133t-197 -56q-201 -1 -308 102t-107 307v766h306v-684q0 -127 59 -180t153 -53t154 60q60 62 61 177v680h306zM289 1334l250 335h219l239 -335h-235l-111 192h-10l-123 -192h-229z" />
    <glyph glyph-name="udieresis" unicode="&#xfc;" horiz-adv-x="1307" 
d="M741 1420q0 50 37 86q36 36 98 36t98 -36t38 -94q0 -58 -38 -96q-38 -36 -109 -36t-107 62q-16 28 -17 78zM302 1411q0 59 36 95t98 36t98 -36q38 -36 38 -94t-37 -96q-37 -36 -97 -36t-99 36q-37 37 -37 95zM1170 1159v-1159h-298v173h-15q-29 -77 -114 -133t-197 -56
q-201 -1 -308 102t-107 307v766h306v-684q0 -127 59 -180t153 -53t154 60q60 62 61 177v680h306z" />
    <glyph glyph-name="yacute" unicode="&#xfd;" horiz-adv-x="1194" 
d="M718 1334h-256l225 321h308zM218 -187q164 0 188 150l10 37l-395 1159h337l233 -901h13l239 901h325q-368 -1105 -373 -1119l-29 -80q-63 -167 -171 -268q-107 -102 -325 -102q-108 0 -168 12v219q34 -8 116 -8z" />
    <glyph glyph-name="thorn" unicode="&#xfe;" horiz-adv-x="1307" 
d="M679 227q104 0 165 77t61 227v95q0 150 -60 227t-169 77q-145 0 -203 -132q-28 -66 -28 -155v-139q0 -127 65 -202t169 -75zM789 -15q-127 -1 -210 53t-119 141h-15v-562h-308v1948h302l2 -591h15q49 123 180 172q70 26 155 26q197 0 313 -136t116 -382v-148
q0 -248 -116 -384t-315 -137z" />
    <glyph glyph-name="ydieresis" unicode="&#xff;" horiz-adv-x="1194" 
d="M687 1411q0 59 36 95q35 36 87 36t82 -16q65 -36 64 -105t-37 -105q-35 -36 -97 -36t-99 36q-36 37 -36 95zM246 1411q0 59 37 95t99 36t98 -36t36 -94t-36 -96q-36 -36 -98 -36t-99 36q-37 37 -37 95zM218 -187q164 0 188 150l10 37l-395 1159h337l233 -901h13l239 901
h325q-368 -1105 -373 -1119l-29 -80q-63 -167 -171 -268q-107 -102 -325 -102q-108 0 -168 12v219q34 -8 116 -8z" />
    <glyph glyph-name="Amacron" unicode="&#x100;" horiz-adv-x="1381" 
d="M1014 1638h-644v152h644v-152zM691 1191h-15l-174 -590h360zM329 0h-314l491 1486h374l489 -1486h-337l-108 368h-485z" />
    <glyph glyph-name="amacron" unicode="&#x101;" 
d="M924 1334h-643v158h643v-158zM383 352q0 -68 52 -110q52 -40 133 -40t142 52q60 52 60 131v115h-206q-87 0 -134 -40t-47 -108zM460 -17q-171 0 -276 94t-105 255t107 254t305 93h279v112q0 154 -177 154q-85 0 -131 -39t-52 -107h-287q4 155 114 266t345 111
q492 0 492 -393v-783h-289v146h-13q-47 -94 -165 -139q-66 -24 -147 -24z" />
    <glyph glyph-name="Abreve" unicode="&#x102;" horiz-adv-x="1381" 
d="M325 1923h179q0 -69 50 -111t124 -41q74 0 117 20q89 40 87 132h175q0 -190 -162 -274q-83 -43 -202 -43t-204 42q-164 80 -164 275zM691 1191h-15l-174 -590h360zM329 0h-314l491 1486h374l489 -1486h-337l-108 368h-485z" />
    <glyph glyph-name="abreve" unicode="&#x103;" 
d="M418 1613q0 -75 44 -127t129 -52t130 52t45 127h173q0 -141 -92 -241t-256 -100t-258 100t-92 241h177zM383 352q0 -68 52 -110q52 -40 133 -40t142 52q60 52 60 131v115h-206q-87 0 -134 -40t-47 -108zM460 -17q-171 0 -276 94t-105 255t107 254t305 93h279v112
q0 154 -177 154q-85 0 -131 -39t-52 -107h-287q4 155 114 266t345 111q492 0 492 -393v-783h-289v146h-13q-47 -94 -165 -139q-66 -24 -147 -24z" />
    <glyph glyph-name="Aogonek" unicode="&#x104;" horiz-adv-x="1384" 
d="M691 1191h-15l-174 -590h362zM1232 -425q-110 1 -189 57t-79 172t127 211v10h-65l-102 343h-485l-110 -368h-314l491 1486h374l477 -1442q-73 -29 -122 -75t-51 -99t32 -83q34 -31 89 -31q54 0 92 11v-169q-55 -23 -165 -23z" />
    <glyph glyph-name="aogonek" unicode="&#x105;" 
d="M918 -425q-98 1 -176 57t-78 166q0 139 135 223v125h-14q-37 -71 -117 -117t-198 -46q-116 0 -204 42t-137 122q-50 80 -50 188q0 158 108 251t304 93h279v112q0 154 -177 154q-85 0 -131 -39t-52 -107h-287q4 158 115 268q110 109 346 109q490 0 490 -393v-741
q-111 -33 -161 -99q-31 -39 -31 -85t36 -71q36 -26 85 -26q50 0 83 8v-169q-70 -25 -168 -25zM383 352q0 -68 52 -110q52 -40 133 -40t142 52q60 52 60 131v115h-206q-87 0 -134 -40t-47 -108z" />
    <glyph glyph-name="Cacute" unicode="&#x106;" horiz-adv-x="1398" 
d="M414 824v-168q0 -208 82 -314t224 -105q142 0 217 79t75 200h301v-31q0 -214 -159 -364q-158 -150 -444 -150t-451 181t-165 506v166q0 327 166 509t448 182t444 -152t161 -376v-32h-301q0 123 -76 208t-212 86q-197 0 -271 -189q-39 -97 -39 -236zM535 1638l295 241h315
l-344 -241h-266z" />
    <glyph glyph-name="cacute" unicode="&#x107;" horiz-adv-x="1167" 
d="M703 1334h-256l225 321h308zM85 533v102q-1 243 139 393t372 150t364 -119q130 -119 133 -297h-281q-6 71 -58 124t-150 53q-96 1 -153 -85t-58 -223v-96q-1 -144 59 -228t159 -84q99 -1 147 45t58 119h281q-3 -189 -139 -299t-364 -109q-228 0 -369 148
q-140 148 -140 406z" />
    <glyph glyph-name="Ccircumflex" unicode="&#x108;" horiz-adv-x="1398" 
d="M321 1628l291 266h208l285 -266h-239l-144 139h-16l-148 -139h-237zM414 824v-168q0 -208 82 -314t224 -105q142 0 217 79t75 200h301v-31q0 -214 -159 -364q-158 -150 -444 -150t-451 181t-165 506v166q0 327 166 509t448 182t444 -152t161 -376v-32h-301q0 123 -76 208
t-212 86q-197 0 -271 -189q-39 -97 -39 -236z" />
    <glyph glyph-name="ccircumflex" unicode="&#x109;" horiz-adv-x="1167" 
d="M85 533v102q-1 243 139 393t372 150t364 -119q130 -119 133 -297h-281q-6 71 -58 124t-150 53q-96 1 -153 -85t-58 -223v-96q-1 -144 59 -228t159 -84q99 -1 147 45t58 119h281q-3 -189 -139 -299t-364 -109q-228 0 -369 148q-140 148 -140 406zM219 1334l249 335h221
l237 -335h-235l-110 192h-9l-122 -192h-231z" />
    <glyph glyph-name="Cdotaccent" unicode="&#x10a;" horiz-adv-x="1398" 
d="M574 1762q0 46 39 86t99 40t102 -41t42 -100t-42 -98q-65 -61 -153 -31q-87 30 -87 144zM414 824v-168q0 -208 82 -314t224 -105q142 0 217 79t75 200h301v-31q0 -214 -159 -364q-158 -150 -444 -150t-451 181t-165 506v166q0 327 166 509t448 182t444 -152t161 -376v-32
h-301q0 123 -76 208t-212 86q-197 0 -271 -189q-39 -97 -39 -236z" />
    <glyph glyph-name="cdotaccent" unicode="&#x10b;" horiz-adv-x="1167" 
d="M445 1419q0 60 40 100t100 40t101 -41q40 -41 40 -100q0 -60 -40 -98t-101 -38q-60 0 -100 38t-40 99zM85 533v102q-1 243 139 393t372 150t364 -119q130 -119 133 -297h-281q-6 71 -58 124t-150 53q-96 1 -153 -85t-58 -223v-96q-1 -144 59 -228t159 -84q99 -1 147 45
t58 119h281q-3 -189 -139 -299t-364 -109q-228 0 -369 148q-140 148 -140 406z" />
    <glyph glyph-name="Ccaron" unicode="&#x10c;" horiz-adv-x="1398" 
d="M318 1886h238l150 -131h14l146 131h237l-285 -254h-206zM414 824v-168q0 -208 82 -314t224 -105q142 0 217 79t75 200h301v-31q0 -214 -159 -364q-158 -150 -444 -150t-451 181t-165 506v166q0 327 166 509t448 182t444 -152t161 -376v-32h-301q0 123 -76 208t-212 86
q-197 0 -271 -189q-39 -97 -39 -236z" />
    <glyph glyph-name="ccaron" unicode="&#x10d;" horiz-adv-x="1167" 
d="M85 533v102q-1 243 139 393t372 150t364 -119q130 -119 133 -297h-281q-6 71 -58 124t-150 53q-96 1 -153 -85t-58 -223v-96q-1 -144 59 -228t159 -84q99 -1 147 45t58 119h281q-3 -189 -139 -299t-364 -109q-228 0 -369 148q-140 148 -140 406zM233 1640h229l123 -189
h12l109 191h235l-240 -337h-216z" />
    <glyph glyph-name="Dcaron" unicode="&#x10e;" horiz-adv-x="1452" 
d="M468 1232v-978h196q191 0 290 112t99 375q0 491 -389 491h-196zM154 1486h556q505 0 628 -438q38 -132 38 -301q1 -336 -156 -541q-157 -206 -510 -206h-556v1486zM273 1886h237l148 -131h16l144 131h239l-285 -254h-208z" />
    <glyph glyph-name="dcaron" unicode="&#x10f;" horiz-adv-x="1575" 
d="M630 930q-167 0 -214 -183q-15 -58 -14 -131v-75q0 -148 60 -231t171 -83q147 0 203 143q28 71 28 171v79q0 224 -136 290q-42 20 -98 20zM522 1172q128 0 214 -51t117 -134h11v578h308v-1565h-304v179h-11q-27 -83 -116 -138t-219 -56q-206 0 -320 143t-115 392v119
q1 249 115 391t320 142zM1363 1563h246l-50 -531h-196v531z" />
    <glyph glyph-name="Dcroat" unicode="&#x110;" horiz-adv-x="1550" 
d="M566 262h196q191 0 289 112t98 373q0 362 -201 455q-78 36 -186 36h-196v-349h256v-271h-256v-356zM252 0v618h-179v271h179v597h556q355 0 510 -200q154 -200 155 -540q1 -339 -156 -543q-157 -203 -509 -203h-556z" />
    <glyph glyph-name="dcroat" unicode="&#x111;" horiz-adv-x="1311" 
d="M87 500v162q0 237 117 373t316 137q128 0 214 -53t117 -137h15v267h-246v175h258v168h283v-168h140v-175h-129v-1249h-302v185h-15q-27 -85 -116 -142t-221 -58q-198 1 -314 137t-117 378zM630 930q-106 0 -166 -78t-60 -219v-106q0 -144 61 -222t167 -78t170 77
q63 77 64 212v138q0 128 -66 202t-170 74z" />
    <glyph glyph-name="Emacron" unicode="&#x112;" horiz-adv-x="1232" 
d="M949 1638h-641v152h641v-152zM1124 254v-254h-970v1486h970v-254h-658v-362h618v-237h-618v-379h658z" />
    <glyph glyph-name="emacron" unicode="&#x113;" 
d="M926 1334h-643v158h643v-158zM385 701h443v2q0 111 -59 181t-161 70t-163 -70q-60 -70 -60 -181v-2zM85 622q0 173 65 300q64 128 182 192t274 64q244 0 380 -150t136 -404v-110h-737v-37q0 -113 62 -189t162 -76t155 41q54 41 62 103h287q-12 -131 -128 -254t-387 -123
q-146 0 -266 65q-245 132 -247 489v89z" />
    <glyph glyph-name="Ebreve" unicode="&#x114;" horiz-adv-x="1232" 
d="M260 1923h179q0 -69 50 -111t124 -41q137 0 183 74q22 34 22 78h175q0 -190 -163 -274q-84 -43 -202 -43t-202 42q-166 82 -166 275zM1124 254v-254h-970v1486h970v-254h-658v-362h618v-237h-618v-379h658z" />
    <glyph glyph-name="ebreve" unicode="&#x115;" 
d="M241 1613h177q0 -75 45 -127t130 -52t129 52t44 127h175q0 -141 -93 -241t-256 -100t-257 100t-94 241zM385 701h443v2q0 111 -59 181t-161 70t-163 -70q-60 -70 -60 -181v-2zM85 622q0 173 65 300q64 128 182 192t274 64q244 0 380 -150t136 -404v-110h-737v-37
q0 -113 62 -189t162 -76t155 41q54 41 62 103h287q-12 -131 -128 -254t-387 -123q-146 0 -266 65q-245 132 -247 489v89z" />
    <glyph glyph-name="Edotaccent" unicode="&#x116;" horiz-adv-x="1232" 
d="M1124 254v-254h-970v1486h970v-254h-658v-362h618v-237h-618v-379h658zM491 1748q0 60 40 100t99 40t101 -41q41 -41 41 -100t-40 -98t-101 -39q-60 0 -100 40q-40 38 -40 98z" />
    <glyph glyph-name="edotaccent" unicode="&#x117;" 
d="M385 701h443v2q0 111 -59 181t-161 70t-163 -70q-60 -70 -60 -181v-2zM85 622q0 173 65 300q64 128 182 192t274 64q244 0 380 -150t136 -404v-110h-737v-37q0 -113 62 -189t162 -76t155 41q54 41 62 103h287q-12 -131 -128 -254t-387 -123q-146 0 -266 65
q-245 132 -247 489v89zM464 1420q0 60 40 99q40 40 100 40t101 -41t41 -100q0 -60 -42 -98q-40 -38 -84 -38q-81 0 -119 39q-37 39 -37 99z" />
    <glyph glyph-name="Eogonek" unicode="&#x118;" horiz-adv-x="1232" 
d="M984 -425q-195 0 -261 121q-22 42 -22 98q0 119 111 196v10h-658v1486h970v-254h-658v-362h618v-237h-618v-379h658v-204q-71 -15 -139 -64q-67 -49 -67 -111q0 -117 129 -119q42 0 77 11v-169q-72 -23 -140 -23z" />
    <glyph glyph-name="eogonek" unicode="&#x119;" 
d="M385 701h443v2q0 111 -59 181t-161 70t-163 -70q-60 -70 -60 -181v-2zM583 -15q-309 0 -435 250q-62 125 -63 298v89q0 173 65 300q64 128 182 192t274 64q244 0 380 -150t136 -404v-110h-737v-37q0 -117 62 -191t162 -74t155 41q54 41 62 103h285q-15 -148 -147 -277
q-42 -42 -64 -67q-59 -67 -59 -130q0 -121 131 -121q37 0 79 8v-171q-61 -23 -169 -23q-108 1 -183 59t-75 158q0 48 19 90t36 63q17 20 43 47l-6 14q-46 -21 -133 -21z" />
    <glyph glyph-name="Ecaron" unicode="&#x11a;" horiz-adv-x="1232" 
d="M1124 254v-254h-970v1486h970v-254h-658v-362h618v-237h-618v-379h658zM237 1886h238l147 -131h17l144 131h239l-285 -254h-208z" />
    <glyph glyph-name="ecaron" unicode="&#x11b;" 
d="M385 701h443v2q0 111 -59 181t-161 70t-163 -70q-60 -70 -60 -181v-2zM85 622q0 173 65 300q64 128 182 192t274 64q244 0 380 -150t136 -404v-110h-737v-37q0 -113 62 -189t162 -76t155 41q54 41 62 103h287q-12 -131 -128 -254t-387 -123q-146 0 -266 65
q-245 132 -247 489v89zM252 1640h229l123 -189h12l108 191h235l-239 -337h-216z" />
    <glyph glyph-name="Gcircumflex" unicode="&#x11c;" horiz-adv-x="1425" 
d="M719 1253q-132 0 -219 -104t-88 -310v-183q0 -194 78 -308t247 -115q89 0 158 35q139 71 139 223v83h-291v231h591v-293q0 -159 -90 -301t-279 -206q-105 -34 -249 -34t-270 52q-230 96 -314 360q-39 123 -38 273v185q0 204 76 356t221 235q146 83 346 83q272 0 440 -158
q92 -86 134 -224q19 -61 21 -128h-308q-12 117 -92 183t-213 65zM333 1628l293 266h207l285 -266h-238l-145 139h-15l-150 -139h-237z" />
    <glyph glyph-name="gcircumflex" unicode="&#x11d;" horiz-adv-x="1286" 
d="M855 626q0 136 -61 220t-166 84q-104 0 -168 -80t-65 -224v-87q0 -139 65 -217t170 -78t165 80t60 209v93zM616 -206q239 0 239 241v163h-12q-33 -79 -121 -130t-206 -51q-196 0 -316 139t-119 385v102q0 248 120 388t317 141q127 0 210 -51t117 -134h15v172h301v-1144
q0 -274 -238 -383q-133 -61 -317 -61q-244 0 -370 102t-130 252h294q12 -59 67 -95t149 -36zM279 1334l250 335h218l240 -335h-236l-110 192h-10l-123 -192h-229z" />
    <glyph glyph-name="Gbreve" unicode="&#x11e;" horiz-adv-x="1425" 
d="M356 1923h179q0 -69 50 -111q49 -42 123 -41q74 0 118 20q88 40 88 132h175q0 -139 -94 -227t-271 -89q-264 0 -344 190q-24 57 -24 126zM719 1253q-132 0 -219 -104t-88 -310v-183q0 -194 78 -308t247 -115q89 0 158 35q139 71 139 223v83h-291v231h591v-293
q0 -159 -90 -301t-279 -206q-105 -34 -249 -34t-270 52q-230 96 -314 360q-39 123 -38 273v185q0 204 76 356t221 235q146 83 346 83q272 0 440 -158q92 -86 134 -224q19 -61 21 -128h-308q-12 117 -92 183t-213 65z" />
    <glyph glyph-name="gbreve" unicode="&#x11f;" horiz-adv-x="1286" 
d="M855 626q0 136 -61 220t-166 84q-104 0 -168 -80t-65 -224v-87q0 -139 65 -217t170 -78t165 80t60 209v93zM616 -206q239 0 239 241v163h-12q-33 -79 -121 -130t-206 -51q-196 0 -316 139t-119 385v102q0 248 120 388t317 141q127 0 210 -51t117 -134h15v172h301v-1144
q0 -274 -238 -383q-133 -61 -317 -61q-244 0 -370 102t-130 252h294q12 -59 67 -95t149 -36zM283 1613h177q0 -75 44 -127t129 -52t130 52t45 127h174q0 -141 -92 -241t-257 -100q-164 0 -257 100t-93 241z" />
    <glyph glyph-name="Gdotaccent" unicode="&#x120;" horiz-adv-x="1425" 
d="M719 1253q-132 0 -219 -104t-88 -310v-183q0 -194 78 -308t247 -115q89 0 158 35q139 71 139 223v83h-291v231h591v-293q0 -159 -90 -301t-279 -206q-105 -34 -249 -34t-270 52q-230 96 -314 360q-39 123 -38 273v185q0 204 76 356t221 235q146 83 346 83q272 0 440 -158
q92 -86 134 -224q19 -61 21 -128h-308q-12 117 -92 183t-213 65zM587 1752q0 36 18 68q38 68 110 68q71 0 112 -41t41 -100t-41 -98t-103 -39t-89 29q-28 28 -38 53q-10 24 -10 60z" />
    <glyph glyph-name="gdotaccent" unicode="&#x121;" horiz-adv-x="1286" 
d="M855 626q0 136 -61 220t-166 84q-104 0 -168 -80t-65 -224v-87q0 -139 65 -217t170 -78t165 80t60 209v93zM616 -206q239 0 239 241v163h-12q-33 -79 -121 -130t-206 -51q-196 0 -316 139t-119 385v102q0 248 120 388t317 141q127 0 210 -51t117 -134h15v172h301v-1144
q0 -274 -238 -383q-133 -61 -317 -61q-244 0 -370 102t-130 252h294q12 -59 67 -95t149 -36zM506 1419q0 60 39 100q40 40 100 40t101 -41t41 -100q0 -60 -41 -98t-101 -38q-59 0 -99 38t-40 99z" />
    <glyph glyph-name="Gcommaaccent" unicode="&#x122;" horiz-adv-x="1425" 
d="M719 1253q-132 0 -219 -104t-88 -310v-183q0 -194 78 -308t247 -115q89 0 158 35q139 71 139 223v83h-291v231h591v-293q0 -159 -90 -301t-279 -206q-105 -34 -249 -34t-270 52q-230 96 -314 360q-39 123 -38 273v185q0 204 76 356t221 235q146 83 346 83q272 0 440 -158
q92 -86 134 -224q19 -61 21 -128h-308q-12 117 -92 183t-213 65zM726 -533h-204l92 364h237z" />
    <glyph glyph-name="gcommaaccent" unicode="&#x123;" horiz-adv-x="1286" 
d="M855 626q0 136 -61 220t-166 84q-104 0 -168 -80t-65 -224v-87q0 -139 65 -217t170 -78t165 80t60 209v93zM616 -206q239 0 239 241v163h-12q-33 -79 -121 -130t-206 -51q-196 0 -316 139t-119 385v102q0 248 120 388t317 141q127 0 210 -51t117 -134h15v172h301v-1144
q0 -274 -238 -383q-133 -61 -317 -61q-244 0 -370 102t-130 252h294q12 -59 67 -95t149 -36zM612 1734h206l-94 -365h-235z" />
    <glyph glyph-name="Hcircumflex" unicode="&#x124;" horiz-adv-x="1536" 
d="M377 1628l293 266h206l285 -266h-237l-146 139h-14l-150 -139h-237zM1384 0h-316v629h-600v-629h-314v1486h314v-599h600v599h316v-1486z" />
    <glyph glyph-name="hcircumflex" unicode="&#x125;" horiz-adv-x="1315" 
d="M-71 1742l250 335h219l239 -337h-235l-111 191h-10l-123 -189h-229zM142 0v1565h305v-578h15q27 73 109 131t214 58q185 0 294 -118t109 -321v-737h-306v664q0 125 -58 188q-58 64 -157 64t-159 -66t-61 -188v-662h-305z" />
    <glyph glyph-name="Hbar" unicode="&#x126;" horiz-adv-x="1536" 
d="M468 612v-612h-314v1082h-98v194h98v210h314v-210h600v210h316v-210h96v-194h-96v-1082h-316v612h-600zM468 870h600v212h-600v-212z" />
    <glyph glyph-name="hbar" unicode="&#x127;" horiz-adv-x="1315" 
d="M447 643v-643h-305v1249h-123v175h135v141h283v-141h256v-175h-246v-294h15q21 72 104 147q84 74 249 74t269 -104t104 -302v-770h-306v689q0 119 -56 176t-136 57q-156 0 -214 -132q-29 -64 -29 -147z" />
    <glyph glyph-name="Itilde" unicode="&#x128;" horiz-adv-x="622" 
d="M204 1711q-67 0 -71 -92h-158q0 94 53 165q53 70 139 70t119 -22t48 -36q32 -30 52 -47q21 -17 51 -17q31 0 49 32t20 74h156q0 -98 -59 -170t-143 -72t-115 20t-43 32t-23 22q-37 41 -75 41zM468 0h-314v1486h314v-1486z" />
    <glyph glyph-name="itilde" unicode="&#x129;" horiz-adv-x="620" 
d="M437 1457q70 0 75 123h175q0 -174 -116 -260q-57 -44 -138 -44t-143 62t-103 63q-75 0 -79 -106h-175q1 129 61 216t177 87q93 0 155 -65q22 -22 30 -29l12 -12t12 -10t12 -10q16 -14 45 -15zM160 0v1159h315v-1159h-315z" />
    <glyph glyph-name="Imacron" unicode="&#x12a;" horiz-adv-x="622" 
d="M633 1638h-643v152h643v-152zM468 0h-314v1486h314v-1486z" />
    <glyph glyph-name="imacron" unicode="&#x12b;" horiz-adv-x="620" 
d="M639 1334h-643v158h643v-158zM160 0v1159h315v-1159h-315z" />
    <glyph glyph-name="Ibreve" unicode="&#x12c;" horiz-adv-x="622" 
d="M-56 1923h179q0 -69 50 -111q49 -42 123 -41q74 0 118 20q88 40 88 132h174q0 -139 -94 -228q-95 -88 -270 -88q-272 0 -345 190q-23 57 -23 126zM468 0h-314v1486h314v-1486z" />
    <glyph glyph-name="ibreve" unicode="&#x12d;" horiz-adv-x="620" 
d="M133 1613q0 -75 44 -127t129 -52t130 52t45 127h173q0 -141 -92 -241t-256 -100t-258 100t-92 241h177zM160 0v1159h315v-1159h-315z" />
    <glyph glyph-name="Iogonek" unicode="&#x12e;" horiz-adv-x="620" 
d="M324 -425q-118 1 -188 61t-69 162q0 133 131 212v9h-44v1467h314v-1440q-181 -73 -181 -185q1 -50 35 -77q34 -28 87 -28t84 11v-165q-51 -27 -169 -27z" />
    <glyph glyph-name="iogonek" unicode="&#x12f;" horiz-adv-x="620" 
d="M123 1496q0 73 51 119t136 46t137 -46q53 -46 53 -119q0 -72 -52 -118t-138 -46q-85 0 -136 46t-51 118zM300 -425q-117 1 -197 59t-80 166q0 139 135 219v1140h306v-1101q-81 -27 -143 -78q-63 -51 -63 -118q0 -104 142 -106q48 0 77 11v-171q-60 -21 -177 -21z" />
    <glyph glyph-name="Idotaccent" unicode="&#x130;" horiz-adv-x="622" 
d="M175 1738q0 92 66 132q31 18 81 18t92 -41t42 -100t-42 -98t-102 -39t-99 39q-38 39 -38 89zM468 0h-314v1486h314v-1486z" />
    <glyph glyph-name="dotlessi" unicode="&#x131;" horiz-adv-x="620" 
d="M160 0v1159h315v-1159h-315z" />
    <glyph glyph-name="Jcircumflex" unicode="&#x134;" horiz-adv-x="1178" 
d="M487 1628l293 266h207l285 -266h-238l-145 139h-15l-150 -139h-237zM29 441h302q4 -123 95 -167q43 -22 96 -22q198 0 198 225v1009h316v-1003q0 -252 -136 -382t-374 -130t-368 135q-129 135 -129 335z" />
    <glyph glyph-name="jcircumflex" unicode="&#x135;" horiz-adv-x="620" 
d="M-40 1320l250 337h221l237 -337h-235l-110 191h-9l-123 -191h-231zM462 1159v-1171q0 -194 -105 -289t-288 -94q-81 0 -123 8v216q21 -4 80 -4t96 39q36 39 36 126v1169h304z" />
    <glyph glyph-name="Kcommaaccent" unicode="&#x136;" horiz-adv-x="1384" 
d="M695 -533h-206l94 364h237zM468 0h-314v1486h314v-653h15l545 653h344l-527 -641l549 -845h-376l-402 635l-148 -167v-468z" />
    <glyph glyph-name="kcommaaccent" unicode="&#x137;" horiz-adv-x="1217" 
d="M629 -533h-206l91 364h237zM445 0h-306v1565h306v-882h15l368 476h344l-414 -501l443 -658h-356l-321 485l-79 -87v-398z" />
    <glyph glyph-name="Lacute" unicode="&#x139;" horiz-adv-x="1115" 
d="M1089 266v-266h-935v1486h314v-1220h621zM133 1638l296 241h316l-345 -241h-267z" />
    <glyph glyph-name="lacute" unicode="&#x13a;" horiz-adv-x="597" 
d="M146 0v1565h308v-1565h-308zM420 1742h-258l227 321h308z" />
    <glyph glyph-name="Lcommaaccent" unicode="&#x13b;" horiz-adv-x="1115" 
d="M1089 266v-266h-935v1486h314v-1220h621zM568 -533h-206l94 364h237z" />
    <glyph glyph-name="lcommaaccent" unicode="&#x13c;" horiz-adv-x="597" 
d="M146 0v1565h308v-1565h-308zM302 -533h-204l91 364h238z" />
    <glyph glyph-name="Lcaron" unicode="&#x13d;" horiz-adv-x="1115" 
d="M1089 266v-266h-935v1486h314v-1220h621zM691 1563h248l-54 -531h-194v531z" />
    <glyph glyph-name="lcaron" unicode="&#x13e;" horiz-adv-x="826" 
d="M146 0v1565h308v-1565h-308zM620 1563h244l-50 -531h-194v531z" />
    <glyph glyph-name="Lslash" unicode="&#x141;" horiz-adv-x="1144" 
d="M1118 0h-935v556l-129 -75v264l129 73v668h314v-491l338 193v-266l-338 -191v-465h621v-266z" />
    <glyph glyph-name="lslash" unicode="&#x142;" horiz-adv-x="703" 
d="M508 0h-308v606l-150 -94v250l150 95v708h308v-524l148 93v-264l-148 -94v-776z" />
    <glyph glyph-name="Nacute" unicode="&#x143;" horiz-adv-x="1506" 
d="M450 0h-296v1486h258l635 -953h10v953h298v-1486h-258l-637 959h-10v-959zM577 1638l295 241h316l-345 -241h-266z" />
    <glyph glyph-name="nacute" unicode="&#x144;" horiz-adv-x="1309" 
d="M137 0v1159h298v-172h15q31 75 117 132t216 57q179 0 287 -108t108 -306v-762h-304v672q0 153 -85 210q-45 32 -120 33q-147 2 -199 -111q-27 -57 -27 -138v-666h-306zM776 1334h-256l225 321h308z" />
    <glyph glyph-name="Ncommaaccent" unicode="&#x145;" horiz-adv-x="1506" 
d="M450 0h-296v1486h258l635 -953h10v953h298v-1486h-258l-637 959h-10v-959zM758 -533h-206l91 364h237z" />
    <glyph glyph-name="ncommaaccent" unicode="&#x146;" horiz-adv-x="1309" 
d="M137 0v1159h298v-172h15q31 75 117 132t216 57q179 0 287 -108t108 -306v-762h-304v672q0 153 -85 210q-45 32 -120 33q-147 2 -199 -111q-27 -57 -27 -138v-666h-306zM658 -533h-204l91 364h238z" />
    <glyph glyph-name="Ncaron" unicode="&#x147;" horiz-adv-x="1506" 
d="M450 0h-296v1486h258l635 -953h10v953h298v-1486h-258l-637 959h-10v-959zM362 1886h237l148 -131h17l143 131h240l-285 -254h-208z" />
    <glyph glyph-name="ncaron" unicode="&#x148;" horiz-adv-x="1309" 
d="M137 0v1159h298v-172h15q31 75 117 132t216 57q179 0 287 -108t108 -306v-762h-304v672q0 153 -85 210q-45 32 -120 33q-147 2 -199 -111q-27 -57 -27 -138v-666h-306zM306 1640h229l123 -189h10l110 191h236l-240 -337h-218z" />
    <glyph glyph-name="Omacron" unicode="&#x14c;" horiz-adv-x="1475" 
d="M1059 1638h-643v152h643v-152zM94 645v185q0 318 171 502q172 183 474 183q301 0 473 -184t172 -501v-185q0 -314 -172 -494t-475 -180q-200 0 -346 81t-221 233q-76 152 -76 360zM414 835v-190q0 -202 88 -307t237 -105q148 0 236 105t89 307v190q0 135 -43 231
q-85 189 -282 189q-149 0 -237 -109t-88 -311z" />
    <glyph glyph-name="omacron" unicode="&#x14d;" horiz-adv-x="1240" 
d="M847 616q0 329 -225 329t-229 -329v-73q0 -247 137 -310q41 -19 92 -19q225 0 225 329v73zM622 1178q258 0 396 -152t139 -406v-75q0 -266 -137 -416q-138 -150 -398 -150t-398 149t-139 415v77q-1 250 139 404t398 154zM945 1334h-643v158h643v-158z" />
    <glyph glyph-name="Obreve" unicode="&#x14e;" horiz-adv-x="1475" 
d="M370 1923h179q0 -69 50 -111q51 -42 139 -41q88 0 139 42t51 110h175q0 -190 -162 -274q-83 -43 -202 -43t-204 42q-165 80 -165 275zM94 645v185q0 318 171 502q172 183 474 183q301 0 473 -184t172 -501v-185q0 -314 -172 -494t-475 -180q-200 0 -346 81t-221 233
q-76 152 -76 360zM414 835v-190q0 -202 88 -307t237 -105q148 0 236 105t89 307v190q0 135 -43 231q-85 189 -282 189q-149 0 -237 -109t-88 -311z" />
    <glyph glyph-name="obreve" unicode="&#x14f;" horiz-adv-x="1240" 
d="M847 616q0 329 -225 329t-229 -329v-73q0 -247 137 -310q41 -19 92 -19q225 0 225 329v73zM622 1178q258 0 396 -152t139 -406v-75q0 -266 -137 -416q-138 -150 -398 -150t-398 149t-139 415v77q-1 250 139 404t398 154zM260 1613h177q0 -75 44 -127t129 -52t130 52
t45 127h174q-1 -141 -93 -241t-256 -100t-257 100t-93 241z" />
    <glyph glyph-name="Ohungarumlaut" unicode="&#x150;" horiz-adv-x="1475" 
d="M94 645v185q0 318 171 502q172 183 474 183q301 0 473 -184t172 -501v-185q0 -314 -172 -494t-475 -180q-200 0 -346 81t-221 233q-76 152 -76 360zM414 835v-190q0 -202 88 -307t237 -105q148 0 236 105t89 307v190q0 135 -43 231q-85 189 -282 189q-149 0 -237 -109
t-88 -311zM812 1638l304 248h258l-342 -248h-220zM400 1638l303 248h259l-342 -248h-220z" />
    <glyph glyph-name="ohungarumlaut" unicode="&#x151;" horiz-adv-x="1240" 
d="M847 616q0 329 -225 329t-229 -329v-73q0 -247 137 -310q41 -19 92 -19q225 0 225 329v73zM622 1178q258 0 396 -152t139 -406v-75q0 -266 -137 -416q-138 -150 -398 -150t-398 149t-139 415v77q-1 250 139 404t398 154zM864 1334h-183l249 358h231zM489 1334h-181
l248 358h233z" />
    <glyph glyph-name="OE" unicode="&#x152;" horiz-adv-x="2139" 
d="M94 830q0 325 164 505t435 180q133 0 237 -47t161 -136h18v154h922v-254h-653v-362h614v-237h-614v-379h653v-254h-922v158h-18q-120 -187 -424 -187q-159 0 -294 82t-208 235q-72 153 -71 359v183zM425 835v-192q1 -135 43 -229q83 -183 281 -183q150 0 239 102
q88 102 88 302v210q0 135 -42 229q-81 181 -285 181q-146 0 -235 -109t-89 -311z" />
    <glyph glyph-name="oe" unicode="&#x153;" horiz-adv-x="1977" 
d="M1157 693h441v10q0 111 -59 181t-159 70t-161 -70q-61 -68 -62 -181v-10zM622 945q-110 1 -169 -87t-60 -219v-117q-1 -133 57 -220t172 -88q75 0 127 44q98 83 98 264v117q0 133 -57 220q-58 86 -168 86zM622 -21q-248 0 -392 143t-145 400v119q0 241 147 389t390 148
q119 0 220 -44t155 -120h19q50 76 148 120t214 44q230 0 374 -145t144 -388v-133h-739v-52q0 -173 140 -230q44 -18 111 -18q66 0 124 36t66 91h288q-4 -60 -36 -119q-127 -241 -458 -241q-122 0 -222 44t-154 114h-19q-54 -71 -156 -115t-219 -43z" />
    <glyph glyph-name="Racute" unicode="&#x154;" horiz-adv-x="1381" 
d="M464 776h246q160 0 222 104q32 52 32 127t-34 130q-66 108 -216 108h-250v-469zM760 1486q256 0 392 -132t136 -334t-128 -331q-62 -63 -140 -96l297 -593h-351l-256 547h-246v-547h-310v1486h606zM493 1638l296 241h314l-343 -241h-267z" />
    <glyph glyph-name="racute" unicode="&#x155;" horiz-adv-x="857" 
d="M148 0v1159h306v-160h12q24 71 88 123t181 52q60 0 95 -8v-263q-37 10 -118 11q-250 0 -250 -263v-651h-314zM589 1334h-256l225 321h308z" />
    <glyph glyph-name="Rcommaaccent" unicode="&#x156;" horiz-adv-x="1381" 
d="M672 -533h-206l94 364h237zM464 776h246q160 0 222 104q32 52 32 127t-34 130q-66 108 -216 108h-250v-469zM760 1486q256 0 392 -132t136 -334t-128 -331q-62 -63 -140 -96l297 -593h-351l-256 547h-246v-547h-310v1486h606z" />
    <glyph glyph-name="rcommaaccent" unicode="&#x157;" horiz-adv-x="857" 
d="M310 -533h-206l94 364h237zM148 0v1159h306v-160h12q24 71 88 123t181 52q60 0 95 -8v-263q-37 10 -118 11q-250 0 -250 -263v-651h-314z" />
    <glyph glyph-name="Rcaron" unicode="&#x158;" horiz-adv-x="1381" 
d="M277 1886h237l150 -131h15l145 131h240l-288 -254h-206zM464 776h246q160 0 222 104q32 52 32 127t-34 130q-66 108 -216 108h-250v-469zM760 1486q256 0 392 -132t136 -334t-128 -331q-62 -63 -140 -96l297 -593h-351l-256 547h-246v-547h-310v1486h606z" />
    <glyph glyph-name="rcaron" unicode="&#x159;" horiz-adv-x="857" 
d="M148 0v1159h306v-160h12q24 71 88 123t181 52q60 0 95 -8v-263q-37 10 -118 11q-250 0 -250 -263v-651h-314zM119 1640h229l122 -189h11l110 191h235l-239 -337h-219z" />
    <glyph glyph-name="Sacute" unicode="&#x15a;" horiz-adv-x="1323" 
d="M660 219q131 0 202 53q70 53 70 134t-55 123t-171 68l-223 50q-175 37 -279 137t-104 280q0 210 158 332t404 121q164 0 291 -57t197 -158t70 -230h-294q-6 83 -75 141q-69 59 -186 59t-184 -50t-67 -136q0 -129 202 -170l225 -50q292 -62 370 -250q31 -75 32 -173
q1 -219 -159 -345t-437 -127q-155 1 -273 41t-183 109q-122 129 -126 306h301q8 -87 86 -147t208 -61zM485 1638l295 241h315l-344 -241h-266z" />
    <glyph glyph-name="sacute" unicode="&#x15b;" horiz-adv-x="1128" 
d="M685 1334h-256l225 321h308zM96 830q0 80 37 152q68 131 254 175q83 21 181 21q206 0 327 -95t121 -259h-271q-6 60 -50 104t-129 44t-132 -36t-47 -93t39 -81q58 -39 146 -55q17 -3 62 -11t55 -9q175 -29 269 -104t93 -223q0 -179 -133 -280q-132 -101 -362 -101
t-356 96t-127 252h295q8 -60 60 -100t118 -40q208 0 207 138q0 39 -14 55q-44 49 -174 76q-70 10 -97 19q-213 38 -303 134q-69 74 -69 221z" />
    <glyph glyph-name="Scircumflex" unicode="&#x15c;" horiz-adv-x="1323" 
d="M271 1628l291 266h208l285 -266h-239l-144 139h-16l-148 -139h-237zM660 219q131 0 202 53q70 53 70 134t-55 123t-171 68l-223 50q-175 37 -279 137t-104 280q0 210 158 332t404 121q164 0 291 -57t197 -158t70 -230h-294q-6 83 -75 141q-69 59 -186 59t-184 -50
t-67 -136q0 -129 202 -170l225 -50q292 -62 370 -250q31 -75 32 -173q1 -219 -159 -345t-437 -127q-155 1 -273 41t-183 109q-122 129 -126 306h301q8 -87 86 -147t208 -61z" />
    <glyph glyph-name="scircumflex" unicode="&#x15d;" horiz-adv-x="1128" 
d="M96 830q0 80 37 152q68 131 254 175q83 21 181 21q206 0 327 -95t121 -259h-271q-6 60 -50 104t-129 44t-132 -36t-47 -93t39 -81q58 -39 146 -55q17 -3 62 -11t55 -9q175 -29 269 -104t93 -223q0 -179 -133 -280q-132 -101 -362 -101t-356 96t-127 252h295
q8 -60 60 -100t118 -40q208 0 207 138q0 39 -14 55q-44 49 -174 76q-70 10 -97 19q-213 38 -303 134q-69 74 -69 221zM200 1334l250 335h218l239 -335h-235l-110 192h-10l-123 -192h-229z" />
    <glyph glyph-name="Scedilla" unicode="&#x15e;" horiz-adv-x="1323" 
d="M622 -375q119 0 119 65q0 53 -58 60q-27 4 -77 4h-59v115l42 104q-319 17 -451 214q-71 105 -73 240h301q8 -87 86 -147t208 -61q131 0 202 53q70 53 70 134t-55 123t-171 68l-223 50q-175 37 -279 137t-104 280q0 210 158 332t404 121q164 0 291 -57t197 -158t70 -230
h-294q-6 83 -75 141q-69 59 -186 59t-184 -50t-67 -136q0 -129 202 -170l225 -50q292 -62 370 -250q31 -75 32 -173q0 -193 -126 -315t-351 -149l-40 -96q96 1 150 -47t54 -145t-72 -150t-186 -55t-170 17v137q48 -15 120 -15z" />
    <glyph glyph-name="scedilla" unicode="&#x15f;" horiz-adv-x="1128" 
d="M516 -370q119 0 119 64q0 37 -32 51t-106 14h-60v112l42 110q-194 17 -300 110t-106 236h295q8 -60 60 -100t118 -40q208 0 207 138q0 39 -14 55q-44 49 -174 76q-70 10 -97 19q-375 67 -373 322q1 113 38 185q68 131 254 175q83 21 181 21q206 0 327 -95t121 -259h-271
q-6 60 -50 104t-129 44t-132 -36t-47 -93t39 -81q58 -39 146 -55q17 -3 62 -11t55 -9q175 -29 269 -104t93 -228q0 -153 -104 -251t-291 -119l-40 -97q96 0 152 -49t56 -145t-72 -149t-184 -55t-173 17v135q48 -12 121 -12z" />
    <glyph glyph-name="Scaron" unicode="&#x160;" horiz-adv-x="1323" 
d="M268 1886h238l150 -131h14l146 131h237l-285 -254h-206zM660 219q131 0 202 53q70 53 70 134t-55 123t-171 68l-223 50q-175 37 -279 137t-104 280q0 210 158 332t404 121q164 0 291 -57t197 -158t70 -230h-294q-6 83 -75 141q-69 59 -186 59t-184 -50t-67 -136
q0 -129 202 -170l225 -50q292 -62 370 -250q31 -75 32 -173q1 -219 -159 -345t-437 -127q-155 1 -273 41t-183 109q-122 129 -126 306h301q8 -87 86 -147t208 -61z" />
    <glyph glyph-name="scaron" unicode="&#x161;" horiz-adv-x="1128" 
d="M96 830q0 80 37 152q68 131 254 175q83 21 181 21q206 0 327 -95t121 -259h-271q-6 60 -50 104t-129 44t-132 -36t-47 -93t39 -81q58 -39 146 -55q17 -3 62 -11t55 -9q175 -29 269 -104t93 -223q0 -179 -133 -280q-132 -101 -362 -101t-356 96t-127 252h295
q8 -60 60 -100t118 -40q208 0 207 138q0 39 -14 55q-44 49 -174 76q-70 10 -97 19q-213 38 -303 134q-69 74 -69 221zM214 1640h229l123 -189h11l110 191h235l-239 -337h-219z" />
    <glyph glyph-name="Tcedilla" unicode="&#x162;" horiz-adv-x="1178" 
d="M541 -387q121 0 121 66q0 37 -33 51t-109 14h-60v112l54 144h-81v1224h-418v262h1148v-262h-416v-1224h-56l-50 -127q96 0 153 -49t57 -136q0 -152 -162 -199q-48 -13 -125 -14t-144 17v138q52 -17 121 -17z" />
    <glyph glyph-name="tcedilla" unicode="&#x163;" horiz-adv-x="836" 
d="M539 -298q0 37 -33 51t-108 14h-59v112l52 146q-95 31 -135 104t-40 200v581h-166v235h173v287h297v-287h223v-235h-223v-537q0 -81 38 -113t107 -33q70 0 82 2v-225q-54 -10 -113 -10t-76 2l-38 -100q96 0 152 -49t56 -145t-72 -148q-72 -54 -186 -56t-170 17v137
q48 -15 120 -14q119 0 119 64z" />
    <glyph glyph-name="Tcaron" unicode="&#x164;" horiz-adv-x="1178" 
d="M747 0h-314v1224h-418v262h1148v-262h-416v-1224zM198 1886h237l148 -131h16l144 131h239l-285 -254h-208z" />
    <glyph glyph-name="tcaron" unicode="&#x165;" horiz-adv-x="903" 
d="M223 1145v287h297v-287h223v-235h-223v-537q0 -81 38 -113t107 -33q70 0 82 2v-225q-54 -10 -139 -10q-214 0 -303 77q-88 77 -89 258v581h-166v235h173zM693 1827h244l-50 -530h-194v530z" />
    <glyph glyph-name="Tbar" unicode="&#x166;" horiz-adv-x="1178" 
d="M997 641h-250v-641h-314v641h-248v194h248v389h-416v262h1149v-262h-419v-389h250v-194z" />
    <glyph glyph-name="tbar" unicode="&#x167;" horiz-adv-x="822" 
d="M608 -6q-214 0 -303 77q-88 77 -89 258v206h-149v177h149v198h-166v235h173v287h297v-287h223v-235h-223v-198h215v-177h-215v-162q0 -81 38 -113t103 -33q66 0 86 2v-225q-50 -10 -139 -10z" />
    <glyph glyph-name="Utilde" unicode="&#x168;" horiz-adv-x="1488" 
d="M408 1619q0 94 53 165t151 70q89 0 148 -52q22 -20 50 -45t60 -25q31 0 48 32t19 74h158q1 -98 -59 -170t-151 -72q-97 0 -145 48q-18 18 -26 24t-14 12q-30 31 -63 31q-67 0 -73 -92h-156zM452 1486v-939q0 -202 138 -273q66 -34 155 -35q133 -1 212 81t79 227v939h317
v-972q1 -246 -165 -394t-443 -149q-277 0 -442 150t-166 395v970h315z" />
    <glyph glyph-name="utilde" unicode="&#x169;" horiz-adv-x="1307" 
d="M524 1401q-75 0 -79 -106h-174q0 129 60 216t177 87q90 0 153 -63q24 -24 34 -33q11 -10 15 -14q32 -32 60 -31q29 0 53 28t28 95h173q0 -123 -68 -214q-68 -90 -168 -90t-170 73q-52 52 -94 52zM1170 1159v-1159h-298v173h-15q-29 -77 -114 -133t-197 -56
q-201 -1 -308 102t-107 307v766h306v-684q0 -127 59 -180t153 -53t154 60q60 62 61 177v680h306z" />
    <glyph glyph-name="Umacron" unicode="&#x16a;" horiz-adv-x="1488" 
d="M1066 1638h-643v152h643v-152zM452 1486v-939q0 -202 138 -273q66 -34 155 -35q133 -1 212 81t79 227v939h317v-972q1 -246 -165 -394t-443 -149q-277 0 -442 150t-166 395v970h315z" />
    <glyph glyph-name="umacron" unicode="&#x16b;" horiz-adv-x="1307" 
d="M976 1334h-641v158h641v-158zM1170 1159v-1159h-298v173h-15q-29 -77 -114 -133t-197 -56q-201 -1 -308 102t-107 307v766h306v-684q0 -127 59 -180t153 -53t154 60q60 62 61 177v680h306z" />
    <glyph glyph-name="Ubreve" unicode="&#x16c;" horiz-adv-x="1488" 
d="M375 1923h179q0 -69 50 -111t139 -41q89 0 139 42t50 110h175q0 -192 -161 -274q-84 -43 -203 -43t-203 42q-165 82 -165 275zM452 1486v-939q0 -202 138 -273q66 -34 155 -35q133 -1 212 81t79 227v939h317v-972q1 -246 -165 -394t-443 -149q-277 0 -442 150t-166 395
v970h315z" />
    <glyph glyph-name="ubreve" unicode="&#x16d;" horiz-adv-x="1307" 
d="M470 1613q0 -75 44 -127t129 -52t130 52t45 127h175q0 -141 -93 -241t-257 -100t-258 100t-92 241h177zM1170 1159v-1159h-298v173h-15q-29 -77 -114 -133t-197 -56q-201 -1 -308 102t-107 307v766h306v-684q0 -127 59 -180t153 -53t154 60q60 62 61 177v680h306z" />
    <glyph glyph-name="Uring" unicode="&#x16e;" horiz-adv-x="1488" 
d="M639 1846q0 -44 28 -73t72 -29t73 29t29 73t-29 73t-73 29t-72 -29t-28 -73zM978 1856q0 -108 -67 -173q-67 -66 -170 -66q-102 0 -171 65q-68 66 -68 166t68 165q69 65 171 64q140 0 206 -110q31 -53 31 -111zM452 1486v-939q0 -202 138 -273q66 -34 155 -35
q133 -1 212 81t79 227v939h317v-972q1 -246 -165 -394t-443 -149q-277 0 -442 150t-166 395v970h315z" />
    <glyph glyph-name="uring" unicode="&#x16f;" horiz-adv-x="1307" 
d="M549 1517q1 -44 29 -72t72 -28t71 28q28 29 28 65q0 69 -49 96q-24 14 -60 14t-63 -30q-28 -29 -28 -73zM887 1518q0 -102 -68 -166q-69 -64 -153 -64q-157 0 -223 112q-31 53 -31 119q0 100 68 165q68 64 170 64t169 -64q68 -64 68 -166zM1170 1159v-1159h-298v173h-15
q-29 -77 -114 -133t-197 -56q-201 -1 -308 102t-107 307v766h306v-684q0 -127 59 -180t153 -53t154 60q60 62 61 177v680h306z" />
    <glyph glyph-name="Uhungarumlaut" unicode="&#x170;" horiz-adv-x="1488" 
d="M816 1638l306 248h256l-342 -248h-220zM406 1638l304 248h256l-342 -248h-218zM452 1486v-939q0 -202 138 -273q66 -34 155 -35q133 -1 212 81t79 227v939h317v-972q1 -246 -165 -394t-443 -149q-277 0 -442 150t-166 395v970h315z" />
    <glyph glyph-name="uhungarumlaut" unicode="&#x171;" horiz-adv-x="1307" 
d="M1170 1159v-1159h-298v173h-15q-29 -77 -114 -133t-197 -56q-201 -1 -308 102t-107 307v766h306v-684q0 -127 59 -180t153 -53t154 60q60 62 61 177v680h306zM897 1334h-183l248 358h233zM522 1334h-183l250 358h231z" />
    <glyph glyph-name="Uogonek" unicode="&#x172;" horiz-adv-x="1488" 
d="M1020 -131q0 -110 129 -110q44 0 83 12v-171q-71 -25 -154 -25q-166 0 -237 104q-33 50 -33 117q0 121 83 200l-2 6q-79 -31 -152 -31q-268 0 -434 151q-165 151 -166 394v970h315v-939q0 -202 138 -273q66 -34 155 -35q133 -1 212 81t79 227v939h317v-972
q0 -246 -165 -406q-18 -20 -58 -58t-58 -58q-52 -58 -52 -123z" />
    <glyph glyph-name="uogonek" unicode="&#x173;" horiz-adv-x="1307" 
d="M1010 -425q-108 1 -186 57q-79 56 -79 174t137 219v169h-14q-26 -81 -116 -146t-250 -65t-266 98q-105 98 -105 298v780h306v-703q0 -121 56 -170q55 -49 131 -49q143 0 209 110q31 53 31 121v691h306v-1153q-80 -15 -144 -51q-64 -37 -64 -91q0 -104 133 -103q52 0 81 8
v-173q-58 -21 -166 -21z" />
    <glyph glyph-name="Wcircumflex" unicode="&#x174;" horiz-adv-x="1918" 
d="M687 0h-294l-387 1486h337l215 -1041h12l256 1041h269l256 -1041h12l213 1041h339l-389 -1486h-292l-268 1003h-11zM568 1628l294 266h206l285 -266h-237l-146 139h-15l-150 -139h-237z" />
    <glyph glyph-name="wcircumflex" unicode="&#x175;" horiz-adv-x="1723" 
d="M1705 1159l-300 -1159h-319l-216 812h-8l-213 -812h-322l-306 1159h320l163 -843h10l208 843h287l213 -843h12l165 843h306zM497 1334l250 335h219l239 -335h-235l-110 192h-9l-125 -192h-229z" />
    <glyph glyph-name="Ycircumflex" unicode="&#x176;" horiz-adv-x="1265" 
d="M244 1628l291 266h208l285 -266h-239l-144 139h-16l-148 -139h-237zM791 0h-314v549l-498 937h348l306 -624h10l308 624h337l-497 -928v-558z" />
    <glyph glyph-name="ycircumflex" unicode="&#x177;" horiz-adv-x="1194" 
d="M233 1334l250 335h218l240 -335h-235l-111 192h-10l-123 -192h-229zM218 -187q164 0 188 150l10 37l-395 1159h337l233 -901h13l239 901h325q-368 -1105 -373 -1119l-29 -80q-63 -167 -171 -268q-107 -102 -325 -102q-108 0 -168 12v219q34 -8 116 -8z" />
    <glyph glyph-name="Ydieresis" unicode="&#x178;" horiz-adv-x="1265" 
d="M720 1722q0 54 33 86t89 32t88 -32q34 -32 34 -86t-32 -86q-32 -33 -89 -33q-56 0 -90 33q-33 33 -33 86zM331 1722q0 54 33 86q32 32 88 32t89 -32t33 -77t-14 -71q-33 -59 -98 -58q-64 1 -98 34q-33 33 -33 86zM791 0h-314v549l-498 937h348l306 -624h10l308 624h337
l-497 -928v-558z" />
    <glyph glyph-name="Zacute" unicode="&#x179;" horiz-adv-x="1286" 
d="M92 0v204l703 1014v12h-687v256h1068v-204l-701 -1011v-15h722v-256h-1105zM466 1638l296 241h316l-343 -241h-269z" />
    <glyph glyph-name="zacute" unicode="&#x17a;" horiz-adv-x="1094" 
d="M92 0v171l541 739v14h-533v235h903v-189l-522 -720v-15h537v-235h-926zM668 1334h-258l225 321h310z" />
    <glyph glyph-name="Zdotaccent" unicode="&#x17b;" horiz-adv-x="1286" 
d="M506 1738q0 94 67 132q32 18 82 18t91 -41t41 -100t-41 -98t-101 -39t-100 39q-39 39 -39 89zM92 0v204l703 1014v12h-687v256h1068v-204l-701 -1011v-15h722v-256h-1105z" />
    <glyph glyph-name="zdotaccent" unicode="&#x17c;" horiz-adv-x="1094" 
d="M92 0v171l541 739v14h-533v235h903v-189l-522 -720v-15h537v-235h-926zM410 1419q0 60 39 100t99 40t101 -41q42 -41 42 -100q0 -60 -42 -98t-102 -38q-61 0 -99 38t-38 99z" />
    <glyph glyph-name="Zcaron" unicode="&#x17d;" horiz-adv-x="1286" 
d="M252 1886h237l150 -131h15l143 131h239l-285 -254h-206zM92 0v204l703 1014v12h-687v256h1068v-204l-701 -1011v-15h722v-256h-1105z" />
    <glyph glyph-name="zcaron" unicode="&#x17e;" horiz-adv-x="1094" 
d="M92 0v171l541 739v14h-533v235h903v-189l-522 -720v-15h537v-235h-926zM198 1640h229l122 -189h11l110 191h235l-239 -337h-219z" />
    <glyph glyph-name="florin" unicode="&#x192;" horiz-adv-x="1288" 
d="M841 1280q-123 0 -148 -156l-27 -162h318l-41 -246h-321l-168 -918h-331l168 918h-204l42 246h206l29 168q33 200 153 292t332 91q315 0 375 -229q17 -60 12 -129h-281q2 53 -28 89t-86 36z" />
    <glyph glyph-name="Ohorn" unicode="&#x1a0;" horiz-adv-x="1506" 
d="M414 835v-192q0 -202 88 -307t237 -105q148 0 236 105t89 307v192q0 135 -42 231q-83 189 -283 189q-149 0 -237 -109t-88 -311zM1384 645q0 -314 -172 -494t-475 -180q-200 0 -346 81t-221 233q-76 152 -76 360v185q0 318 171 502q172 183 474 183q107 1 247 -39
t214 -40t104 39t30 111v133h242v-168q0 -144 -77 -229t-215 -86l-2 -2q44 -73 73 -181t29 -223v-185z" />
    <glyph glyph-name="ohorn" unicode="&#x1a1;" horiz-adv-x="1275" 
d="M622 945q-110 1 -169 -87t-60 -219v-117q-1 -133 57 -220t172 -88q75 0 127 44q98 83 98 264v117q0 133 -57 220q-58 86 -168 86zM1157 522q-1 -256 -145 -400t-391 -143q-247 0 -391 143t-145 400v119q0 241 147 389t390 148q71 0 154 -18q187 -41 229 14q25 31 25 102
v171h242v-200q0 -121 -51 -199t-153 -99v-10q89 -144 89 -296v-121z" />
    <glyph glyph-name="Uhorn" unicode="&#x1af;" horiz-adv-x="1598" 
d="M745 -27q-277 0 -442 150t-166 397v966h315v-937q0 -149 79 -229t213 -80t213 80q79 82 79 229v937h317q85 0 108 61q10 28 10 72v140h242v-173q0 -191 -129 -274q-67 -43 -158 -42h-73v-754q1 -246 -165 -394t-443 -149z" />
    <glyph glyph-name="uhorn" unicode="&#x1b0;" horiz-adv-x="1473" 
d="M496 -17q-160 0 -263 98q-102 98 -102 298v780h306v-703q0 -121 56 -170t148 -49q91 -1 157 63t66 168v691h272q62 -1 84 31t23 100v157h243v-190q0 -137 -75 -225t-214 -87h-27v-945h-300v194h-15q-27 -81 -113 -146t-246 -65z" />
    <glyph glyph-name="Acaron" unicode="&#x1cd;" horiz-adv-x="1381" 
d="M300 1886h237l150 -131h14l146 131h239l-287 -254h-206zM691 1191h-15l-174 -590h360zM329 0h-314l491 1486h374l489 -1486h-337l-108 368h-485z" />
    <glyph glyph-name="acaron" unicode="&#x1ce;" 
d="M252 1640h229l123 -189h10l110 191h235l-239 -337h-218zM383 352q0 -68 52 -110q52 -40 133 -40t142 52q60 52 60 131v115h-206q-87 0 -134 -40t-47 -108zM460 -17q-171 0 -276 94t-105 255t107 254t305 93h279v112q0 154 -177 154q-85 0 -131 -39t-52 -107h-287
q4 155 114 266t345 111q492 0 492 -393v-783h-289v146h-13q-47 -94 -165 -139q-66 -24 -147 -24z" />
    <glyph glyph-name="Icaron" unicode="&#x1cf;" horiz-adv-x="622" 
d="M-81 1886h237l150 -131h15l145 131h237l-285 -254h-206zM468 0h-314v1486h314v-1486z" />
    <glyph glyph-name="icaron" unicode="&#x1d0;" horiz-adv-x="620" 
d="M160 0v1159h315v-1159h-315zM-33 1640h229l122 -189h11l110 191h235l-239 -337h-219z" />
    <glyph glyph-name="Ocaron" unicode="&#x1d1;" horiz-adv-x="1475" 
d="M94 645v185q0 318 171 502q172 183 474 183q301 0 473 -184t172 -501v-185q0 -314 -172 -494t-475 -180q-200 0 -346 81t-221 233q-76 152 -76 360zM414 835v-190q0 -202 88 -307t237 -105q148 0 236 105t89 307v190q0 135 -43 231q-85 189 -282 189q-149 0 -237 -109
t-88 -311zM345 1886h238l150 -131h14l146 131h237l-285 -254h-206z" />
    <glyph glyph-name="ocaron" unicode="&#x1d2;" horiz-adv-x="1240" 
d="M847 616q0 329 -225 329t-229 -329v-73q0 -247 137 -310q41 -19 92 -19q225 0 225 329v73zM622 1178q258 0 396 -152t139 -406v-75q0 -266 -137 -416q-138 -150 -398 -150t-398 149t-139 415v77q-1 250 139 404t398 154zM271 1640h229l122 -189h11l110 191h235l-239 -337
h-217z" />
    <glyph glyph-name="Ucaron" unicode="&#x1d3;" horiz-adv-x="1488" 
d="M452 1486v-939q0 -202 138 -273q66 -34 155 -35q133 -1 212 81t79 227v939h317v-972q1 -246 -165 -394t-443 -149q-277 0 -442 150t-166 395v970h315zM352 1886h237l150 -131h14l146 131h237l-285 -254h-206z" />
    <glyph glyph-name="ucaron" unicode="&#x1d4;" horiz-adv-x="1307" 
d="M1170 1159v-1159h-298v173h-15q-29 -77 -114 -133t-197 -56q-201 -1 -308 102t-107 307v766h306v-684q0 -127 59 -180t153 -53t154 60q60 62 61 177v680h306zM304 1640h229l123 -189h10l110 191h236l-240 -337h-218z" />
    <glyph glyph-name="Udieresismacron" unicode="&#x1d5;" horiz-adv-x="1488" 
d="M1066 1950h-643v154h643v-154zM452 1486v-939q0 -202 138 -273q66 -34 155 -35q133 -1 212 81t79 227v939h317v-972q1 -246 -165 -394t-443 -149q-277 0 -442 150t-166 395v970h315zM833 1722q0 54 32 86t88 32q55 0 89 -32t34 -86t-33 -86q-33 -33 -89 -33t-89 33
q-32 33 -32 86zM441 1712q1 128 133 128q46 0 80 -32t33 -86q0 -54 -33 -86q-32 -33 -88 -33t-90 33q-34 32 -35 76z" />
    <glyph glyph-name="udieresismacron" unicode="&#x1d6;" horiz-adv-x="1307" 
d="M976 1700h-641v159h641v-159zM741 1420q0 50 37 86q36 36 98 36t98 -36t38 -94q0 -58 -38 -96q-38 -36 -109 -36t-107 62q-16 28 -17 78zM302 1411q0 59 36 95t98 36t98 -36q38 -36 38 -94t-37 -96q-37 -36 -97 -36t-99 36q-37 37 -37 95zM1170 1159v-1159h-298v173h-15
q-29 -77 -114 -133t-197 -56q-201 -1 -308 102t-107 307v766h306v-684q0 -127 59 -180t153 -53t154 60q60 62 61 177v680h306z" />
    <glyph glyph-name="Udieresisacute" unicode="&#x1d7;" horiz-adv-x="1488" 
d="M452 1486v-939q0 -202 138 -273q66 -34 155 -35q133 -1 212 81t79 227v939h317v-972q1 -246 -165 -394t-443 -149q-277 0 -442 150t-166 395v970h315zM833 1722q0 54 32 86t88 32q55 0 89 -32t34 -86t-33 -86q-33 -33 -89 -33t-89 33q-32 33 -32 86zM441 1712
q1 128 133 128q46 0 80 -32t33 -86q0 -54 -33 -86q-32 -33 -88 -33t-90 33q-34 32 -35 76zM568 1900l294 242h316l-343 -242h-267z" />
    <glyph glyph-name="udieresisacute" unicode="&#x1d8;" horiz-adv-x="1307" 
d="M741 1420q0 50 37 86q36 36 98 36t98 -36t38 -94q0 -58 -38 -96q-38 -36 -109 -36t-107 62q-16 28 -17 78zM302 1411q0 59 36 95t98 36t98 -36q38 -36 38 -94t-37 -96q-37 -36 -97 -36t-99 36q-37 37 -37 95zM1170 1159v-1159h-298v173h-15q-29 -77 -114 -133t-197 -56
q-201 -1 -308 102t-107 307v766h306v-684q0 -127 59 -180t153 -53t154 60q60 62 61 177v680h306zM774 1648h-258l227 321h308z" />
    <glyph glyph-name="Udieresiscaron" unicode="&#x1d9;" horiz-adv-x="1488" 
d="M452 1486v-939q0 -202 138 -273q66 -34 155 -35q133 -1 212 81t79 227v939h317v-972q1 -246 -165 -394t-443 -149q-277 0 -442 150t-166 395v970h315zM352 2171h237l150 -131h14l146 131h237l-285 -254h-206zM833 1722q0 54 32 86t88 32q55 0 89 -32t34 -86t-33 -86
q-33 -33 -89 -33t-89 33q-32 33 -32 86zM441 1712q1 128 133 128q46 0 80 -32t33 -86q0 -54 -33 -86q-32 -33 -88 -33t-90 33q-34 32 -35 76z" />
    <glyph glyph-name="udieresiscaron" unicode="&#x1da;" horiz-adv-x="1307" 
d="M741 1420q0 50 37 86q36 36 98 36t98 -36t38 -94q0 -58 -38 -96q-38 -36 -109 -36t-107 62q-16 28 -17 78zM302 1411q0 59 36 95t98 36t98 -36q38 -36 38 -94t-37 -96q-37 -36 -97 -36t-99 36q-37 37 -37 95zM1170 1159v-1159h-298v173h-15q-29 -77 -114 -133t-197 -56
q-201 -1 -308 102t-107 307v766h306v-684q0 -127 59 -180t153 -53t154 60q60 62 61 177v680h306zM304 1986h229l123 -192h10l110 192h236l-240 -338h-218z" />
    <glyph glyph-name="Udieresisgrave" unicode="&#x1db;" horiz-adv-x="1488" 
d="M452 1486v-939q0 -202 138 -273q66 -34 155 -35q133 -1 212 81t79 227v939h317v-972q1 -246 -165 -394t-443 -149q-277 0 -442 150t-166 395v970h315zM833 1722q0 54 32 86t88 32q55 0 89 -32t34 -86t-33 -86q-33 -33 -89 -33t-89 33q-32 33 -32 86zM441 1712
q1 128 133 128q46 0 80 -32t33 -86q0 -54 -33 -86q-32 -33 -88 -33t-90 33q-34 32 -35 76zM899 1900h-256l-331 233h302z" />
    <glyph glyph-name="udieresisgrave" unicode="&#x1dc;" horiz-adv-x="1307" 
d="M741 1420q0 50 37 86q36 36 98 36t98 -36t38 -94q0 -58 -38 -96q-38 -36 -109 -36t-107 62q-16 28 -17 78zM302 1411q0 59 36 95t98 36t98 -36q38 -36 38 -94t-37 -96q-37 -36 -97 -36t-99 36q-37 37 -37 95zM1170 1159v-1159h-298v173h-15q-29 -77 -114 -133t-197 -56
q-201 -1 -308 102t-107 307v766h306v-684q0 -127 59 -180t153 -53t154 60q60 62 61 177v680h306zM835 1648h-258l-286 317h308z" />
    <glyph glyph-name="Adieresismacron" unicode="&#x1de;" horiz-adv-x="1381" 
d="M1014 1950h-644v154h644v-154zM902 1603q-56 0 -90 33q-32 33 -32 86q0 54 32 86t89 32q55 0 89 -32t34 -86t-33 -86q-33 -33 -89 -33zM389 1722q-1 54 33 86t90 32t88 -32t32 -94t-56 -96q-26 -16 -72 -16t-80 34q-34 33 -35 86zM691 1191h-15l-174 -590h360zM329 0
h-314l491 1486h374l489 -1486h-337l-108 368h-485z" />
    <glyph glyph-name="adieresismacron" unicode="&#x1df;" 
d="M924 1700h-643v159h643v-159zM689 1411q0 59 36 95q35 36 97 36t100 -36t37 -94q0 -58 -37 -96q-38 -36 -98 -36t-98 36q-37 37 -37 95zM250 1402q0 88 63 124q30 16 81 16q50 0 88 -36t38 -94t-37 -96q-37 -36 -97 -36t-99 36q-37 37 -37 86zM383 352q0 -68 52 -110
q52 -40 133 -40t142 52q60 52 60 131v115h-206q-87 0 -134 -40t-47 -108zM460 -17q-171 0 -276 94t-105 255t107 254t305 93h279v112q0 154 -177 154q-85 0 -131 -39t-52 -107h-287q4 155 114 266t345 111q492 0 492 -393v-783h-289v146h-13q-47 -94 -165 -139
q-66 -24 -147 -24z" />
    <glyph glyph-name="Adotmacron" unicode="&#x1e0;" horiz-adv-x="1381" 
d="M1014 1950h-644v154h644v-154zM556 1738q0 94 66 132q31 18 81 18t92 -41t42 -100t-41 -98t-102 -39t-100 39q-38 39 -38 89zM691 1191h-15l-174 -590h360zM329 0h-314l491 1486h374l489 -1486h-337l-108 368h-485z" />
    <glyph glyph-name="adotmacron" unicode="&#x1e1;" 
d="M924 1700h-643v159h643v-159zM464 1420q0 59 40 99t98 40t101 -41q42 -41 42 -100q-1 -60 -41 -98t-86 -38q-83 0 -118 40q-36 39 -36 98zM383 352q0 -68 52 -110q52 -40 133 -40t142 52q60 52 60 131v115h-206q-87 0 -134 -40t-47 -108zM460 -17q-171 0 -276 94
t-105 255t107 254t305 93h279v112q0 154 -177 154q-85 0 -131 -39t-52 -107h-287q4 155 114 266t345 111q492 0 492 -393v-783h-289v146h-13q-47 -94 -165 -139q-66 -24 -147 -24z" />
    <glyph glyph-name="AEmacron" unicode="&#x1e2;" horiz-adv-x="2066" 
d="M1790 1638h-643v152h643v-152zM993 368h-460l-179 -368h-346l714 1486h1237v-254h-654v-362h614v-237h-614v-379h654v-254h-966v368zM993 610v622h-73l-285 -622h358z" />
    <glyph glyph-name="aemacron" unicode="&#x1e3;" horiz-adv-x="1904" 
d="M1276 1334h-643v158h643v-158zM379 358q0 -76 54 -116t135 -40t143 52q61 52 61 131v119h-206q-133 0 -175 -88q-12 -27 -12 -58zM1528 710q0 110 -58 176t-155 67q-98 -1 -161 -67t-63 -170v-23h437v17zM591 945q-162 0 -183 -121h-287q8 156 126 255t350 99
q156 0 269 -65q54 -31 87 -74h19q46 62 135 100q89 39 204 39q231 0 371 -145t141 -388v-133h-732v-69q-1 -103 65 -167t160 -64t147 36q54 36 63 91h287q-8 -124 -119 -235q-124 -125 -388 -125q-142 0 -250 58t-157 154h-17q-70 -123 -217 -180q-82 -32 -180 -32
q-187 0 -298 95q-110 95 -110 258t109 257t309 94h277v102q0 79 -48 119t-133 41z" />
    <glyph glyph-name="Gcaron" unicode="&#x1e6;" horiz-adv-x="1425" 
d="M719 1253q-132 0 -219 -104t-88 -310v-183q0 -194 78 -308t247 -115q89 0 158 35q139 71 139 223v83h-291v231h591v-293q0 -159 -90 -301t-279 -206q-105 -34 -249 -34t-270 52q-230 96 -314 360q-39 123 -38 273v185q0 204 76 356t221 235q146 83 346 83q272 0 440 -158
q92 -86 134 -224q19 -61 21 -128h-308q-12 117 -92 183t-213 65zM333 1886h237l148 -131h17l143 131h240l-285 -254h-209z" />
    <glyph glyph-name="gcaron" unicode="&#x1e7;" horiz-adv-x="1286" 
d="M855 626q0 136 -61 220t-166 84q-104 0 -168 -80t-65 -224v-87q0 -139 65 -217t170 -78t165 80t60 209v93zM616 -206q239 0 239 241v163h-12q-33 -79 -121 -130t-206 -51q-196 0 -316 139t-119 385v102q0 248 120 388t317 141q127 0 210 -51t117 -134h15v172h301v-1144
q0 -274 -238 -383q-133 -61 -317 -61q-244 0 -370 102t-130 252h294q12 -59 67 -95t149 -36zM293 1640h229l123 -189h11l110 191h235l-239 -337h-217z" />
    <glyph glyph-name="Kcaron" unicode="&#x1e8;" horiz-adv-x="1384" 
d="M287 1886h237l150 -131h15l146 131h237l-285 -254h-206zM468 0h-314v1486h314v-653h15l545 653h344l-527 -641l549 -845h-376l-402 635l-148 -167v-468z" />
    <glyph glyph-name="kcaron" unicode="&#x1e9;" horiz-adv-x="1217" 
d="M445 0h-306v1565h306v-882h15l368 476h344l-414 -501l443 -658h-356l-321 485l-79 -87v-398zM-58 2048h229l122 -191h11l110 191h235l-239 -335h-219z" />
    <glyph glyph-name="Oogonek" unicode="&#x1ea;" horiz-adv-x="1475" 
d="M701 -25q-268 0 -438 184t-169 486v185q0 318 171 502q172 183 474 183q301 0 473 -184t172 -501v-185q0 -283 -152 -465q-50 -60 -106 -116q-54 -56 -70 -74q-48 -58 -49 -116q1 -57 37 -84t89 -27t87 10v-175q-83 -23 -182 -22q-99 0 -172 58t-74 168t99 200l-6 13
q-76 -40 -184 -40zM414 835v-190q0 -202 88 -307t237 -105q148 0 236 105t89 307v190q0 135 -43 231q-85 189 -282 189q-149 0 -237 -109t-88 -311z" />
    <glyph glyph-name="oogonek" unicode="&#x1eb;" horiz-adv-x="1240" 
d="M85 641q0 241 148 389t390 148q243 0 389 -145t145 -390v-121q0 -174 -55 -271t-130 -172l-38 -38q-84 -84 -92 -132q-3 -21 -3 -34q0 -56 36 -85t84 -29t92 8v-171q-67 -23 -167 -23t-181 53t-81 170t111 204l-11 13q-83 -29 -158 -30q-208 0 -343 144t-136 387v125z
M622 945q-110 1 -169 -87t-60 -219v-117q-1 -133 57 -220q58 -88 171 -88t169 88t57 220v117q0 133 -57 220q-58 86 -168 86z" />
    <glyph glyph-name="Oogonekmacron" unicode="&#x1ec;" horiz-adv-x="1475" 
d="M1059 1638h-643v152h643v-152zM701 -25q-268 0 -438 184t-169 486v185q0 318 171 502q172 183 474 183q301 0 473 -184t172 -501v-185q0 -283 -152 -465q-50 -60 -106 -116q-54 -56 -70 -74q-48 -58 -49 -116q1 -57 37 -84t89 -27t87 10v-175q-83 -23 -182 -22
q-99 0 -172 58t-74 168t99 200l-6 13q-76 -40 -184 -40zM414 835v-190q0 -202 88 -307t237 -105q148 0 236 105t89 307v190q0 135 -43 231q-85 189 -282 189q-149 0 -237 -109t-88 -311z" />
    <glyph glyph-name="oogonekmacron" unicode="&#x1ed;" horiz-adv-x="1240" 
d="M945 1334h-643v158h643v-158zM85 641q0 241 148 389t390 148q243 0 389 -145t145 -390v-121q0 -174 -55 -271t-130 -172l-38 -38q-84 -84 -92 -132q-3 -21 -3 -34q0 -56 36 -85t84 -29t92 8v-171q-67 -23 -167 -23t-181 53t-81 170t111 204l-11 13q-83 -29 -158 -30
q-208 0 -343 144t-136 387v125zM622 945q-110 1 -169 -87t-60 -219v-117q-1 -133 57 -220q58 -88 171 -88t169 88t57 220v117q0 133 -57 220q-58 86 -168 86z" />
    <glyph glyph-name="Gacute" unicode="&#x1f4;" horiz-adv-x="1425" 
d="M719 1253q-132 0 -219 -104t-88 -310v-183q0 -194 78 -308t247 -115q89 0 158 35q139 71 139 223v83h-291v231h591v-293q0 -159 -90 -301t-279 -206q-105 -34 -249 -34t-270 52q-230 96 -314 360q-39 123 -38 273v185q0 204 76 356t221 235q146 83 346 83q272 0 440 -158
q92 -86 134 -224q19 -61 21 -128h-308q-12 117 -92 183t-213 65zM547 1638l296 241h316l-345 -241h-267z" />
    <glyph glyph-name="gacute" unicode="&#x1f5;" horiz-adv-x="1286" 
d="M855 626q0 136 -61 220t-166 84q-104 0 -168 -80t-65 -224v-87q0 -139 65 -217t170 -78t165 80t60 209v93zM616 -206q239 0 239 241v163h-12q-33 -79 -121 -130t-206 -51q-196 0 -316 139t-119 385v102q0 248 120 388t317 141q127 0 210 -51t117 -134h15v172h301v-1144
q0 -274 -238 -383q-133 -61 -317 -61q-244 0 -370 102t-130 252h294q12 -59 67 -95t149 -36zM764 1334h-256l225 321h308z" />
    <glyph glyph-name="Ngrave" unicode="&#x1f8;" horiz-adv-x="1506" 
d="M450 0h-296v1486h258l635 -953h10v953h298v-1486h-258l-637 959h-10v-959zM907 1638h-253l-333 233h303z" />
    <glyph glyph-name="ngrave" unicode="&#x1f9;" horiz-adv-x="1309" 
d="M137 0v1159h298v-172h15q31 75 117 132t216 57q179 0 287 -108t108 -306v-762h-304v672q0 153 -85 210q-45 32 -120 33q-147 2 -199 -111q-27 -57 -27 -138v-666h-306zM837 1338h-258l-286 317h308z" />
    <glyph glyph-name="Aringacute" unicode="&#x1fa;" horiz-adv-x="1384" 
d="M687 1890q23 0 45 -3l217 178h321l-363 -270q75 -80 75 -192t-79 -188l469 -1415h-340l-108 368h-485l-110 -368h-314l466 1403q-89 75 -90 198q1 123 87 206t209 83zM864 601l-173 590h-15l-174 -590h362zM564 1599q0 -51 35 -86t78 -35t71 16q62 34 62 95t-36 95
t-87 35q-52 0 -88 -34q-35 -35 -35 -86z" />
    <glyph glyph-name="aringacute" unicode="&#x1fb;" 
d="M506 1517q0 -44 28 -72t72 -28t72 28t28 72t-28 73t-72 29t-72 -29t-28 -73zM843 1511q1 -95 -67 -159t-170 -64t-170 65t-68 165t68 166q68 65 170 64q12 0 23 -1l179 249h283l-294 -335q46 -56 46 -150zM383 352q0 -68 52 -110q52 -40 133 -40t142 52q60 52 60 131v115
h-206q-87 0 -134 -40t-47 -108zM460 -17q-171 0 -276 94t-105 255t107 254t305 93h279v112q0 154 -177 154q-85 0 -131 -39t-52 -107h-287q4 155 114 266t345 111q492 0 492 -393v-783h-289v146h-13q-47 -94 -165 -139q-66 -24 -147 -24z" />
    <glyph glyph-name="AEacute" unicode="&#x1fc;" horiz-adv-x="2066" 
d="M993 368h-460l-179 -368h-346l714 1486h1237v-254h-654v-362h614v-237h-614v-379h654v-254h-966v368zM993 610v622h-73l-285 -622h358zM1292 1638l296 241h314l-343 -241h-267z" />
    <glyph glyph-name="aeacute" unicode="&#x1fd;" horiz-adv-x="1904" 
d="M379 358q0 -76 54 -116t135 -40t143 52q61 52 61 131v119h-206q-133 0 -175 -88q-12 -27 -12 -58zM1528 710q0 110 -58 176t-155 67q-98 -1 -161 -67t-63 -170v-23h437v17zM591 945q-162 0 -183 -121h-287q8 156 126 255t350 99q156 0 269 -65q54 -31 87 -74h19
q46 62 135 100q89 39 204 39q231 0 371 -145t141 -388v-133h-732v-69q-1 -103 65 -167t160 -64t147 36q54 36 63 91h287q-8 -124 -119 -235q-124 -125 -388 -125q-142 0 -250 58t-157 154h-17q-70 -123 -217 -180q-82 -32 -180 -32q-187 0 -298 95q-110 95 -110 258t109 257
t309 94h277v102q0 79 -48 119t-133 41zM1074 1334h-258l227 321h308z" />
    <glyph glyph-name="Oslashacute" unicode="&#x1fe;" horiz-adv-x="1475" 
d="M562 1638l295 241h315l-344 -241h-266zM739 225q151 0 241 106t90 310v194q0 92 -23 154l-541 -668q83 -96 233 -96zM406 641q0 -83 21 -139l537 664q-87 94 -232 94t-236 -111q-91 -110 -90 -314v-194zM737 -29q-250 0 -410 131l-106 -133l-138 112l121 148
q-110 167 -110 416v185q0 318 171 502q172 183 474 183q246 0 406 -129l95 119l142 -104l-114 -140q117 -173 116 -431v-185q0 -314 -172 -494t-475 -180z" />
    <glyph glyph-name="oslashacute" unicode="&#x1ff;" horiz-adv-x="1240" 
d="M741 1334h-256l225 321h308zM622 -21q-189 0 -322 90l-115 -138l-116 96l120 148q-104 137 -104 347v119q0 241 147 389t390 148q183 0 317 -89l112 133l121 -98l-119 -146q104 -139 104 -335v-121q-1 -256 -145 -400t-390 -143zM387 506q0 -58 19 -102l374 481
q-60 71 -166 71t-166 -90q-60 -89 -61 -225v-135zM630 208q108 0 167 90q58 90 58 224v134q0 54 -18 97l-375 -474q60 -71 168 -71z" />
    <glyph glyph-name="Adblgrave" unicode="&#x200;" horiz-adv-x="1381" 
d="M620 1638h-220l-342 250h258zM1032 1638h-220l-342 250h256zM691 1191h-15l-174 -590h360zM329 0h-314l491 1486h374l489 -1486h-337l-108 368h-485z" />
    <glyph glyph-name="adblgrave" unicode="&#x201;" 
d="M714 1334l-298 358h231l250 -358h-183zM339 1334l-297 358h233l249 -358h-185zM383 352q0 -68 52 -110q52 -40 133 -40t142 52q60 52 60 131v115h-206q-87 0 -134 -40t-47 -108zM460 -17q-171 0 -276 94t-105 255t107 254t305 93h279v112q0 154 -177 154q-85 0 -131 -39
t-52 -107h-287q4 155 114 266t345 111q492 0 492 -393v-783h-289v146h-13q-47 -94 -165 -139q-66 -24 -147 -24z" />
    <glyph glyph-name="Ainvertedbreve" unicode="&#x202;" horiz-adv-x="1381" 
d="M692 1761q-86 0 -137 -41t-51 -107h-179q0 139 96 227q97 87 272 87q117 1 200 -41q166 -83 164 -273h-175q0 67 -52 107t-138 41zM691 1191h-15l-174 -590h360zM329 0h-314l491 1486h374l489 -1486h-337l-108 368h-485z" />
    <glyph glyph-name="ainvertedbreve" unicode="&#x203;" 
d="M250 1309q0 142 93 243q94 101 258 101q163 0 257 -101t91 -243h-175q0 75 -43 127q-44 52 -116 52q-129 0 -171 -91q-18 -40 -17 -88h-177zM383 352q0 -68 52 -110q52 -40 133 -40t142 52q60 52 60 131v115h-206q-87 0 -134 -40t-47 -108zM460 -17q-171 0 -276 94
t-105 255t107 254t305 93h279v112q0 154 -177 154q-85 0 -131 -39t-52 -107h-287q4 155 114 266t345 111q492 0 492 -393v-783h-289v146h-13q-47 -94 -165 -139q-66 -24 -147 -24z" />
    <glyph glyph-name="Edblgrave" unicode="&#x204;" horiz-adv-x="1232" 
d="M1124 254v-254h-970v1486h970v-254h-658v-362h618v-237h-618v-379h658zM556 1638h-221l-341 250h258zM968 1638h-221l-341 250h258z" />
    <glyph glyph-name="edblgrave" unicode="&#x205;" 
d="M716 1334l-300 358h233l250 -358h-183zM341 1334l-297 358h231l249 -358h-183zM385 701h443v2q0 111 -59 181t-161 70t-163 -70q-60 -70 -60 -181v-2zM85 622q0 173 65 300q64 128 182 192t274 64q244 0 380 -150t136 -404v-110h-737v-37q0 -113 62 -189t162 -76t155 41
q54 41 62 103h287q-12 -131 -128 -254t-387 -123q-146 0 -266 65q-245 132 -247 489v89z" />
    <glyph glyph-name="Einvertedbreve" unicode="&#x206;" horiz-adv-x="1232" 
d="M628 1761q-86 0 -138 -41t-51 -107h-179q0 139 97 227t271 87q174 0 270 -87t95 -227h-175q0 67 -52 107t-138 41zM1124 254v-254h-970v1486h970v-254h-658v-362h618v-237h-618v-379h658z" />
    <glyph glyph-name="einvertedbreve" unicode="&#x207;" 
d="M601 1653q109 0 191 -50q161 -99 159 -294h-175q0 75 -44 127q-45 52 -116 52q-128 0 -170 -91q-18 -40 -17 -88h-179q2 142 94 243q93 101 257 101zM385 701h443v2q0 111 -59 181t-161 70t-163 -70q-60 -70 -60 -181v-2zM85 622q0 173 65 300q64 128 182 192t274 64
q244 0 380 -150t136 -404v-110h-737v-37q0 -113 62 -189t162 -76t155 41q54 41 62 103h287q-12 -131 -128 -254t-387 -123q-146 0 -266 65q-245 132 -247 489v89z" />
    <glyph glyph-name="Idblgrave" unicode="&#x208;" horiz-adv-x="622" 
d="M239 1638h-220l-342 250h258zM651 1638h-220l-342 250h256zM468 0h-314v1486h314v-1486z" />
    <glyph glyph-name="idblgrave" unicode="&#x209;" horiz-adv-x="620" 
d="M429 1334l-298 358h231l250 -358h-183zM54 1334l-298 358h234l249 -358h-185zM160 0v1159h315v-1159h-315z" />
    <glyph glyph-name="Iinvertedbreve" unicode="&#x20a;" horiz-adv-x="622" 
d="M311 1761q-86 0 -137 -41t-51 -107h-179q0 139 97 227t271 87q210 0 305 -127q61 -81 59 -187h-174q0 67 -52 107t-139 41zM468 0h-314v1486h314v-1486z" />
    <glyph glyph-name="iinvertedbreve" unicode="&#x20b;" horiz-adv-x="620" 
d="M-35 1309q0 142 93 243q94 101 258 101q110 0 192 -50q154 -95 156 -294h-175q0 106 -76 153q-41 26 -98 26t-97 -24q-76 -46 -76 -155h-177zM160 0v1159h315v-1159h-315z" />
    <glyph glyph-name="Odblgrave" unicode="&#x20c;" horiz-adv-x="1475" 
d="M94 645v185q0 318 171 502q172 183 474 183q301 0 473 -184t172 -501v-185q0 -314 -172 -494t-475 -180q-200 0 -346 81t-221 233q-76 152 -76 360zM414 835v-190q0 -202 88 -307t237 -105q148 0 236 105t89 307v190q0 135 -43 231q-85 189 -282 189q-149 0 -237 -109
t-88 -311zM666 1638h-221l-341 250h258zM1078 1638h-221l-341 250h256z" />
    <glyph glyph-name="odblgrave" unicode="&#x20d;" horiz-adv-x="1240" 
d="M735 1334l-300 358h233l248 -358h-181zM360 1334l-298 358h231l250 -358h-183zM847 616q0 329 -225 329t-229 -329v-73q0 -247 137 -310q41 -19 92 -19q225 0 225 329v73zM622 1178q258 0 396 -152t139 -406v-75q0 -266 -137 -416q-138 -150 -398 -150t-398 149t-139 415
v77q-1 250 139 404t398 154z" />
    <glyph glyph-name="Oinvertedbreve" unicode="&#x20e;" horiz-adv-x="1475" 
d="M94 645v185q0 318 171 502q172 183 474 183q301 0 473 -184t172 -501v-185q0 -314 -172 -494t-475 -180q-200 0 -346 81t-221 233q-76 152 -76 360zM414 835v-190q0 -202 88 -307t237 -105q148 0 236 105t89 307v190q0 135 -43 231q-85 189 -282 189q-149 0 -237 -109
t-88 -311zM738 1761q-86 0 -138 -41t-51 -107h-179q0 139 97 227t271 87q174 0 270 -87t95 -227h-175q0 67 -52 107t-138 41z" />
    <glyph glyph-name="oinvertedbreve" unicode="&#x20f;" horiz-adv-x="1240" 
d="M620 1653q164 0 257 -101t93 -243h-175q0 75 -45 127q-44 52 -116 52q-131 0 -171 -91q-18 -40 -18 -88h-177q2 142 95 243t257 101zM847 616q0 329 -225 329t-229 -329v-73q0 -247 137 -310q41 -19 92 -19q225 0 225 329v73zM622 1178q258 0 396 -152t139 -406v-75
q0 -266 -137 -416q-138 -150 -398 -150t-398 149t-139 415v77q-1 250 139 404t398 154z" />
    <glyph glyph-name="Rdblgrave" unicode="&#x210;" horiz-adv-x="1381" 
d="M464 776h246q160 0 222 104q32 52 32 127t-34 130q-66 108 -216 108h-250v-469zM760 1486q256 0 392 -132t136 -334t-128 -331q-62 -63 -140 -96l297 -593h-351l-256 547h-246v-547h-310v1486h606zM597 1638h-220l-342 250h258zM1009 1638h-220l-342 250h256z" />
    <glyph glyph-name="rdblgrave" unicode="&#x211;" horiz-adv-x="857" 
d="M581 1334l-298 358h231l250 -358h-183zM206 1334l-295 358h231l249 -358h-185zM148 0v1159h306v-160h12q24 71 88 123t181 52q60 0 95 -8v-263q-37 10 -118 11q-250 0 -250 -263v-651h-314z" />
    <glyph glyph-name="Rinvertedbreve" unicode="&#x212;" horiz-adv-x="1381" 
d="M669 1761q-86 0 -137 -41t-51 -107h-179q0 139 97 227t271 87q117 1 200 -41q166 -83 164 -273h-174q0 67 -52 107t-139 41zM464 776h246q160 0 222 104q32 52 32 127t-34 130q-66 108 -216 108h-250v-469zM760 1486q256 0 392 -132t136 -334t-128 -331q-62 -63 -140 -96
l297 -593h-351l-256 547h-246v-547h-310v1486h606z" />
    <glyph glyph-name="rinvertedbreve" unicode="&#x213;" horiz-adv-x="857" 
d="M117 1309q0 142 93 243q94 101 258 101t257 -101t91 -243h-173q0 75 -45 127q-44 52 -116 52q-131 0 -171 -91q-18 -40 -18 -88h-176zM148 0v1159h306v-160h12q24 71 88 123t181 52q60 0 95 -8v-263q-37 10 -118 11q-250 0 -250 -263v-651h-314z" />
    <glyph glyph-name="Udblgrave" unicode="&#x214;" horiz-adv-x="1488" 
d="M452 1486v-939q0 -202 138 -273q66 -34 155 -35q133 -1 212 81t79 227v939h317v-972q1 -246 -165 -394t-443 -149q-277 0 -442 150t-166 395v970h315zM672 1638h-220l-342 250h256zM1082 1638h-218l-342 250h256z" />
    <glyph glyph-name="udblgrave" unicode="&#x215;" horiz-adv-x="1307" 
d="M766 1334l-298 358h231l250 -358h-183zM391 1334l-295 358h231l250 -358h-186zM1170 1159v-1159h-298v173h-15q-29 -77 -114 -133t-197 -56q-201 -1 -308 102t-107 307v766h306v-684q0 -127 59 -180t153 -53t154 60q60 62 61 177v680h306z" />
    <glyph glyph-name="Uinvertedbreve" unicode="&#x216;" horiz-adv-x="1488" 
d="M744 1761q-86 0 -138 -41t-52 -107h-179q0 139 97 227q98 87 272 87t269 -87t94 -227h-175q0 67 -51 107t-137 41zM452 1486v-939q0 -202 138 -273q66 -34 155 -35q133 -1 212 81t79 227v939h317v-972q1 -246 -165 -394t-443 -149q-277 0 -442 150t-166 395v970h315z" />
    <glyph glyph-name="uinvertedbreve" unicode="&#x217;" horiz-adv-x="1307" 
d="M302 1309q0 142 93 243q95 101 259 101t257 -101t90 -243h-173q0 75 -44 127q-45 52 -130 52q-84 0 -130 -52t-45 -127h-177zM1170 1159v-1159h-298v173h-15q-29 -77 -114 -133t-197 -56q-201 -1 -308 102t-107 307v766h306v-684q0 -127 59 -180t153 -53t154 60
q60 62 61 177v680h306z" />
    <glyph glyph-name="Scommaaccent" unicode="&#x218;" horiz-adv-x="1323" 
d="M651 -533h-206l92 364h237zM660 219q131 0 202 53q70 53 70 134t-55 123t-171 68l-223 50q-175 37 -279 137t-104 280q0 210 158 332t404 121q164 0 291 -57t197 -158t70 -230h-294q-6 83 -75 141q-69 59 -186 59t-184 -50t-67 -136q0 -129 202 -170l225 -50
q292 -62 370 -250q31 -75 32 -173q1 -219 -159 -345t-437 -127q-155 1 -273 41t-183 109q-122 129 -126 306h301q8 -87 86 -147t208 -61z" />
    <glyph glyph-name="scommaaccent" unicode="&#x219;" horiz-adv-x="1128" 
d="M568 -533h-206l92 364h237zM96 830q0 80 37 152q68 131 254 175q83 21 181 21q206 0 327 -95t121 -259h-271q-6 60 -50 104t-129 44t-132 -36t-47 -93t39 -81q58 -39 146 -55q17 -3 62 -11t55 -9q175 -29 269 -104t93 -223q0 -179 -133 -280q-132 -101 -362 -101t-356 96
t-127 252h295q8 -60 60 -100t118 -40q208 0 207 138q0 39 -14 55q-44 49 -174 76q-70 10 -97 19q-213 38 -303 134q-69 74 -69 221z" />
    <glyph glyph-name="Tcommaaccent" unicode="&#x21a;" horiz-adv-x="1178" 
d="M747 0h-314v1224h-418v262h1148v-262h-416v-1224zM593 -533h-206l92 364h237z" />
    <glyph glyph-name="tcommaaccent" unicode="&#x21b;" horiz-adv-x="822" 
d="M223 1145v287h297v-287h223v-235h-223v-537q0 -81 38 -113t107 -33q70 0 82 2v-225q-54 -10 -139 -10q-214 0 -303 77q-88 77 -89 258v581h-166v235h173zM489 -533h-206l92 364h237z" />
    <glyph glyph-name="Hcaron" unicode="&#x21e;" horiz-adv-x="1536" 
d="M375 1886h237l150 -131h14l146 131h239l-285 -254h-208zM1384 0h-316v629h-600v-629h-314v1486h314v-599h600v599h316v-1486z" />
    <glyph glyph-name="hcaron" unicode="&#x21f;" horiz-adv-x="1315" 
d="M-56 2048h229l123 -191h12l108 191h235l-239 -335h-216zM142 0v1565h305v-578h15q27 73 109 131t214 58q185 0 294 -118t109 -321v-737h-306v664q0 125 -58 188q-58 64 -157 64t-159 -66t-61 -188v-662h-305z" />
    <glyph glyph-name="Adotaccent" unicode="&#x226;" horiz-adv-x="1381" 
d="M556 1738q0 94 66 132q31 18 81 18t92 -41t42 -100t-41 -98t-102 -39t-100 39q-38 39 -38 89zM691 1191h-15l-174 -590h360zM329 0h-314l491 1486h374l489 -1486h-337l-108 368h-485z" />
    <glyph glyph-name="adotaccent" unicode="&#x227;" 
d="M464 1420q0 59 40 99t98 40t101 -41q42 -41 42 -100q-1 -60 -41 -98t-86 -38q-83 0 -118 40q-36 39 -36 98zM383 352q0 -68 52 -110q52 -40 133 -40t142 52q60 52 60 131v115h-206q-87 0 -134 -40t-47 -108zM460 -17q-171 0 -276 94t-105 255t107 254t305 93h279v112
q0 154 -177 154q-85 0 -131 -39t-52 -107h-287q4 155 114 266t345 111q492 0 492 -393v-783h-289v146h-13q-47 -94 -165 -139q-66 -24 -147 -24z" />
    <glyph glyph-name="Ecedilla" unicode="&#x228;" horiz-adv-x="1232" 
d="M591 -375q119 0 119 65q0 37 -32 51t-108 13h-60v115l50 131h-406v1486h970v-254h-658v-362h618v-237h-618v-379h658v-254h-387l-46 -117q96 -1 152 -49t56 -128q0 -214 -270 -220q-94 -2 -159 17v137q52 -15 121 -15z" />
    <glyph glyph-name="ecedilla" unicode="&#x229;" 
d="M572 -387q119 0 119 66q0 37 -33 51t-106 14h-61v112l48 127q-216 23 -335 167t-119 383v89q0 173 65 300q64 128 182 192t274 64q244 0 380 -150t136 -404v-110h-737v-37q0 -113 62 -189t162 -76t155 41q54 41 62 103h287q-12 -117 -100 -225q-45 -54 -122 -94t-175 -52
l-46 -112q132 0 184 -85q26 -42 26 -100q0 -104 -72 -157t-182 -55q-108 -2 -174 16v138q50 -17 120 -17zM385 701h443v2q0 111 -59 181t-161 70t-163 -70q-60 -70 -60 -181v-2z" />
    <glyph glyph-name="Odieresismacron" unicode="&#x22a;" horiz-adv-x="1475" 
d="M1059 1950h-643v154h643v-154zM94 645v185q0 318 171 502q172 183 474 183q301 0 473 -184t172 -501v-185q0 -314 -172 -494t-475 -180q-200 0 -346 81t-221 233q-76 152 -76 360zM414 835v-190q0 -202 88 -307t237 -105q148 0 236 105t89 307v190q0 135 -43 231
q-85 189 -282 189q-149 0 -237 -109t-88 -311zM824 1722q0 54 33 86t89 32t89 -32q35 -32 35 -86t-34 -86q-34 -33 -89 -33q-56 0 -90 33q-33 33 -33 86zM435 1712q0 81 58 113q27 15 65 15q74 0 106 -56q15 -27 15 -71q-1 -44 -33 -77t-87 -33t-90 33q-34 32 -34 76z" />
    <glyph glyph-name="odieresismacron" unicode="&#x22b;" horiz-adv-x="1240" 
d="M945 1700h-643v159h643v-159zM847 616q0 329 -225 329t-229 -329v-73q0 -247 137 -310q41 -19 92 -19q225 0 225 329v73zM622 1178q258 0 396 -152t139 -406v-75q0 -266 -137 -416q-138 -150 -398 -150t-398 149t-139 415v77q-1 250 139 404t398 154zM710 1411
q0 59 36 95t88 36t81 -16q65 -36 64 -105t-37 -105t-98 -36t-98 36q-36 37 -36 95zM268 1411q0 59 38 95t98 36q62 0 98 -36t37 -94q0 -58 -36 -96q-35 -36 -97 -36t-100 36t-38 95z" />
    <glyph glyph-name="Otildemacron" unicode="&#x22c;" horiz-adv-x="1475" 
d="M1059 1950h-643v154h643v-154zM631 1711q-67 0 -71 -92h-156q0 94 52 165t150 70q100 0 167 -67q28 -27 44 -41t48 -14t49 32t18 74h157q1 -98 -59 -170t-136 -72t-108 15q-45 21 -81 60q-36 40 -74 40zM94 645v185q0 318 171 502q172 183 474 183q301 0 473 -184
t172 -501v-185q0 -314 -172 -494t-475 -180q-200 0 -346 81t-221 233q-76 152 -76 360zM414 835v-190q0 -202 88 -307t237 -105q148 0 236 105t89 307v190q0 135 -43 231q-85 189 -282 189q-149 0 -237 -109t-88 -311z" />
    <glyph glyph-name="otildemacron" unicode="&#x22d;" horiz-adv-x="1240" 
d="M847 616q0 329 -225 329t-229 -329v-73q0 -247 137 -310q41 -19 92 -19q225 0 225 329v73zM622 1178q258 0 396 -152t139 -406v-75q0 -266 -137 -416q-138 -150 -398 -150t-398 149t-139 415v77q-1 250 139 404t398 154zM945 1700h-643v159h643v-159zM491 1401
q-75 0 -79 -106h-173q-1 129 59 216t177 87q91 0 161 -70l26 -26l14 -14q28 -31 65 -31t56 36t21 87h173q0 -173 -115 -260q-56 -44 -138 -44t-144 62t-103 63z" />
    <glyph glyph-name="Odotaccent" unicode="&#x22e;" horiz-adv-x="1475" 
d="M94 645v185q0 318 171 502q172 183 474 183q301 0 473 -184t172 -501v-185q0 -314 -172 -494t-475 -180q-200 0 -346 81t-221 233q-76 152 -76 360zM414 835v-190q0 -202 88 -307t237 -105q148 0 236 105t89 307v190q0 135 -43 231q-85 189 -282 189q-149 0 -237 -109
t-88 -311zM601 1738q0 50 18 82q38 68 109 68t113 -41q41 -41 41 -100t-42 -98t-101 -39q-60 0 -99 40q-39 38 -39 88z" />
    <glyph glyph-name="odotaccent" unicode="&#x22f;" horiz-adv-x="1240" 
d="M847 616q0 329 -225 329t-229 -329v-73q0 -247 137 -310q41 -19 92 -19q225 0 225 329v73zM622 1178q258 0 396 -152t139 -406v-75q0 -266 -137 -416q-138 -150 -398 -150t-398 149t-139 415v77q-1 250 139 404t398 154zM483 1419q0 60 39 100q40 40 100 40t101 -41
t41 -100q0 -60 -41 -98t-101 -38t-100 38t-39 99z" />
    <glyph glyph-name="Odotaccentmacron" unicode="&#x230;" horiz-adv-x="1475" 
d="M1059 1950h-643v154h643v-154zM94 645v185q0 318 171 502q172 183 474 183q301 0 473 -184t172 -501v-185q0 -314 -172 -494t-475 -180q-200 0 -346 81t-221 233q-76 152 -76 360zM414 835v-190q0 -202 88 -307t237 -105q148 0 236 105t89 307v190q0 135 -43 231
q-85 189 -282 189q-149 0 -237 -109t-88 -311zM601 1738q0 50 18 82q38 68 109 68t113 -41q41 -41 41 -100t-42 -98t-101 -39q-60 0 -99 40q-39 38 -39 88z" />
    <glyph glyph-name="odotaccentmacron" unicode="&#x231;" horiz-adv-x="1240" 
d="M847 616q0 329 -225 329t-229 -329v-73q0 -247 137 -310q41 -19 92 -19q225 0 225 329v73zM622 1178q258 0 396 -152t139 -406v-75q0 -266 -137 -416q-138 -150 -398 -150t-398 149t-139 415v77q-1 250 139 404t398 154zM945 1700h-643v159h643v-159zM483 1419
q0 60 39 100q40 40 100 40t101 -41t41 -100q0 -60 -41 -98t-101 -38t-100 38t-39 99z" />
    <glyph glyph-name="Ymacron" unicode="&#x232;" horiz-adv-x="1265" 
d="M955 1638h-643v152h643v-152zM791 0h-314v549l-498 937h348l306 -624h10l308 624h337l-497 -928v-558z" />
    <glyph glyph-name="ymacron" unicode="&#x233;" horiz-adv-x="1194" 
d="M922 1334h-643v158h643v-158zM218 -187q164 0 188 150l10 37l-395 1159h337l233 -901h13l239 901h325q-368 -1105 -373 -1119l-29 -80q-63 -167 -171 -268q-107 -102 -325 -102q-108 0 -168 12v219q34 -8 116 -8z" />
    <glyph glyph-name="circumflex" unicode="&#x2c6;" horiz-adv-x="1030" 
d="M187 1320l250 337h219l239 -337h-235l-111 191h-10l-123 -191h-229z" />
    <glyph glyph-name="caron" unicode="&#x2c7;" horiz-adv-x="1030" 
d="M164 1671h229l123 -191h11l110 191h235l-239 -335h-219z" />
    <glyph glyph-name="breve" unicode="&#x2d8;" horiz-adv-x="1030" 
d="M343 1688q0 -75 44 -126t115 -51q71 -1 95 13q59 33 77 84q17 51 17 80h173q0 -142 -92 -242t-256 -99q-164 -1 -258 99t-91 242h176z" />
    <glyph glyph-name="dotaccent" unicode="&#x2d9;" horiz-adv-x="1030" 
d="M345 1591q1 78 53 126t129 48t128 -48t51 -126t-51 -125t-128 -47t-129 47t-53 125z" />
    <glyph glyph-name="ring" unicode="&#x2da;" horiz-adv-x="1030" 
d="M414 1555q0 -44 28 -73t68 -29q40 1 58 15q48 39 48 85t-29 75t-73 29t-72 -29t-28 -73zM514 1326q-102 0 -170 64t-67 166q-1 102 67 166t170 64t170 -65t68 -165t-68 -166q-68 -64 -170 -64z" />
    <glyph glyph-name="ogonek" unicode="&#x2db;" horiz-adv-x="1030" 
d="M560 -425q-108 -1 -178 57q-68 58 -68 158q0 68 36 134t72 106q38 40 94 87h175q-164 -139 -164 -252q0 -52 34 -79t83 -27t93 12v-169q-69 -27 -177 -27z" />
    <glyph glyph-name="tilde" unicode="&#x2dc;" horiz-adv-x="1030" 
d="M360 1457q-75 0 -79 -104h-175q0 127 60 215t177 89q68 -1 106 -29q65 -49 94 -81q28 -32 66 -32q38 1 57 37t21 84h173q0 -124 -68 -214t-168 -90t-170 73q-52 52 -94 52z" />
    <glyph glyph-name="hungarumlaut" unicode="&#x2dd;" horiz-adv-x="1030" 
d="M645 1338h-185l250 358h231zM271 1338h-184l250 358h231z" />
    <glyph glyph-name="gravecmb" unicode="&#x300;" horiz-adv-x="0" 
d="M181 1338h-258l-285 317h308z" />
    <glyph glyph-name="acutecmb" unicode="&#x301;" horiz-adv-x="0" 
d="M121 1334h-256l224 321h309z" />
    <glyph glyph-name="circumflexcmb" unicode="&#x302;" horiz-adv-x="0" 
d="M-364 1334l250 335h218l239 -335h-235l-110 192h-10l-123 -192h-229z" />
    <glyph glyph-name="tildecmb" unicode="&#x303;" horiz-adv-x="0" 
d="M-129 1401q-75 0 -79 -106h-175q0 129 60 216t177 87q92 0 154 -63q24 -24 34 -33l14 -14q28 -32 65 -31q37 0 56 36t21 87h172q0 -119 -65 -211q-65 -93 -167 -93t-173 73q-52 52 -94 52z" />
    <glyph glyph-name="macroncmb" unicode="&#x304;" horiz-adv-x="0" 
d="M323 1334h-641v158h641v-158z" />
    <glyph glyph-name="brevecmb" unicode="&#x306;" horiz-adv-x="0" 
d="M-183 1613q0 -75 44 -127q43 -52 115 -52t112 27q78 52 76 152h175q-1 -141 -93 -241t-256 -100t-258 100t-92 241h177z" />
    <glyph glyph-name="dotaccentcmb" unicode="&#x307;" horiz-adv-x="0" 
d="M-137 1419q0 60 39 100q40 40 100 40t101 -41t41 -100q0 -60 -41 -98t-101 -38t-100 38t-39 99z" />
    <glyph glyph-name="dieresiscmb" unicode="&#x308;" horiz-adv-x="0" 
d="M87 1411q-1 59 37 95t100 36t98 -36t36 -94t-36 -96q-36 -36 -98 -36t-99 36q-38 36 -38 95zM-352 1411q0 59 38 95t98 36q62 0 98 -36t36 -94t-36 -96q-36 -36 -97 -36t-99 36t-38 95z" />
    <glyph glyph-name="hookabovecmb" unicode="&#x309;" horiz-adv-x="0" 
d="M-14 1713q96 0 162 -54t64 -148q0 -58 -26 -104t-61 -73t-92 -54l-85 104q52 29 75 54t23 58q0 32 -29 56t-81 24t-92 -15v133q46 19 142 19z" />
    <glyph glyph-name="ringcmb" unicode="&#x30a;" horiz-adv-x="0" 
d="M-104 1510q0 -36 28 -65q28 -28 72 -28t73 28t29 72t-29 73t-65 29t-60 -13q-48 -29 -48 -96zM-4 1288q-102 0 -170 65t-68 165t68 166q68 64 170 64t170 -64t67 -166q1 -102 -67 -166t-170 -64z" />
    <glyph glyph-name="hungarumlautcmb" unicode="&#x30b;" horiz-adv-x="0" 
d="M244 1334h-184l250 358h231zM-131 1334h-183l249 358h234z" />
    <glyph glyph-name="caroncmb" unicode="&#x30c;" horiz-adv-x="0" 
d="M-350 1640h229l123 -189h10l111 191h235l-239 -337h-219z" />
    <glyph glyph-name="dblgravecmb" unicode="&#x30f;" horiz-adv-x="0" 
d="M112 1334l-297 358h231l250 -358h-184zM-262 1334l-296 358h231l250 -358h-185z" />
    <glyph glyph-name="invertedbrevecmb" unicode="&#x311;" horiz-adv-x="0" 
d="M-352 1309q0 142 94 243t258 101q110 0 191 -50q161 -100 157 -294h-173q0 75 -45 127t-132 52t-131 -54q-22 -25 -32 -63q-10 -39 -10 -62h-177z" />
    <glyph glyph-name="horncmb" unicode="&#x31b;" horiz-adv-x="0" 
d="M-87 1303v171h243v-206q0 -140 -69 -234t-206 -93q-103 0 -145 25v227q33 -25 83 -23q94 4 94 133z" />
    <glyph glyph-name="dotbelowcmb" unicode="&#x323;" horiz-adv-x="0" 
d="M-144 -282q0 62 43 104t105 43q62 0 106 -43q42 -43 42 -106t-44 -104t-105 -41t-104 42q-43 43 -43 105z" />
    <glyph glyph-name="dieresisbelowcmb" unicode="&#x324;" horiz-adv-x="0" 
d="M85 -335q-1 59 37 95t100 36t97 -36q37 -36 37 -86t-17 -78q-38 -64 -108 -63t-108 37t-38 95zM-354 -335q0 59 38 95t98 36q62 0 98 -36t36 -94t-36 -96q-38 -36 -98 -36t-98 36t-38 95z" />
    <glyph glyph-name="ringbelowcmb" unicode="&#x325;" horiz-adv-x="0" 
d="M-100 -330q0 -36 28 -64t64 -28q69 -1 96 48q14 24 14 60t-29 64q-29 29 -65 29t-60 -13q-48 -29 -48 -96zM0 -552q-102 0 -170 65t-68 165t68 166q68 64 171 64t171 -64t68 -166t-70 -166q-68 -64 -170 -64z" />
    <glyph glyph-name="commabelowcmb" unicode="&#x326;" horiz-adv-x="0" 
d="M4 -533h-206l92 364h237z" />
    <glyph glyph-name="cedillacmb" unicode="&#x327;" horiz-adv-x="0" 
d="M-135 -256v112l56 150h177l-52 -133q96 0 152 -49q56 -48 56 -144t-72 -149t-182 -55t-175 16v138q52 -17 121 -17q119 0 119 66q-1 37 -33 51t-107 14h-60z" />
    <glyph glyph-name="ogonekcmb" unicode="&#x328;" horiz-adv-x="0" 
d="M-27 -135q0 -52 35 -79t84 -27t93 12v-169q-69 -27 -177 -27q-108 -1 -177 57t-68 158q0 163 202 327h172q-164 -139 -164 -252z" />
    <glyph glyph-name="circumflexbelowcmb" unicode="&#x32d;" horiz-adv-x="0" 
d="M-358 -435l250 312h218l240 -314h-236l-110 175h-10l-123 -173h-229z" />
    <glyph glyph-name="brevebelowcmb" unicode="&#x32e;" horiz-adv-x="0" 
d="M-362 -137h183q0 -105 79 -153q42 -26 114 -26t119 52q46 52 46 127h175q0 -144 -93 -243t-263 -99t-264 99q-96 99 -96 243z" />
    <glyph glyph-name="tildebelowcmb" unicode="&#x330;" horiz-adv-x="0" 
d="M121 -258q61 0 73 112h158q0 -104 -60 -178t-153 -74q-102 0 -157 56t-70 61q-14 4 -24 4q-69 0 -73 -98h-160q0 98 54 172t154 74q98 0 166 -70q31 -32 37 -36q6 -3 18 -13t37 -10z" />
    <glyph glyph-name="macronbelowcmb" unicode="&#x331;" horiz-adv-x="0" 
d="M325 -356h-643v158h643v-158z" />
    <glyph glyph-name="Delta" unicode="&#x394;" horiz-adv-x="1384" 
d="M676 1191l-272 -916h558l-271 916h-15zM15 0l491 1486h374l492 -1486h-1357z" />
    <glyph glyph-name="Omega" unicode="&#x3a9;" horiz-adv-x="1496" 
d="M1074 872q0 383 -342 383q-133 0 -220 -94t-87 -289v-135q0 -157 60 -269t154 -145v-321h-568v262h258v21q-100 50 -162 178t-63 280v137q0 310 170 472t476 163q306 0 476 -162q169 -162 168 -473v-137q0 -179 -93 -327q-58 -92 -140 -131v-23h267v-262h-581v318
q100 30 163 144t64 275v135z" />
    <glyph glyph-name="mu" unicode="&#x3bc;" horiz-adv-x="1359" 
d="M1170 329q0 -119 110 -119q25 0 56 6v-218q-72 -17 -172 -17t-175 50t-79 152l-3 17h-14q-17 -83 -100 -150t-210 -67q-58 0 -110 18t-73 45h-13l11 -412h-267v1525h306v-703q0 -121 56 -170q55 -49 131 -49q143 0 209 110q31 53 31 121v691h306v-830z" />
    <glyph glyph-name="pi" unicode="&#x3c0;" horiz-adv-x="1488" 
d="M1186 -17q-122 0 -196 70t-74 186v685h-325v-924h-308v924h-237v235h1392v-235h-216v-597q0 -46 24 -74t70 -28t70 6v-231q-79 -17 -200 -17z" />
    <glyph glyph-name="Aringbelow" unicode="&#x1e00;" horiz-adv-x="1384" 
d="M579 -307q0 -43 29 -72q28 -29 64 -29q65 0 95 50q13 22 13 58t-29 65t-71 29t-72 -29q-29 -29 -29 -72zM681 -537q-102 0 -171 66q-69 65 -69 165t69 164t171 65q101 0 169 -65q68 -64 68 -164t-68 -166t-169 -65zM691 1191h-15l-174 -590h360zM329 0h-314l491 1486h374
l489 -1486h-337l-108 368h-485z" />
    <glyph glyph-name="aringbelow" unicode="&#x1e01;" 
d="M502 -334q0 -32 28 -60t60 -28q111 -2 111 111q0 32 -28 61q-29 29 -61 29q-110 1 -110 -113zM601 -552q-101 0 -169 65t-68 165t68 166q68 64 170 64t169 -64q68 -64 68 -166t-68 -166t-170 -64zM383 352q0 -68 52 -110q52 -40 133 -40t142 52q60 52 60 131v115h-206
q-87 0 -134 -40t-47 -108zM460 -17q-171 0 -276 94t-105 255t107 254t305 93h279v112q0 154 -177 154q-85 0 -131 -39t-52 -107h-287q4 155 114 266t345 111q492 0 492 -393v-783h-289v146h-13q-47 -94 -165 -139q-66 -24 -147 -24z" />
    <glyph glyph-name="Bdotaccent" unicode="&#x1e02;" horiz-adv-x="1377" 
d="M676 1888q50 0 91 -41t41 -100t-41 -98t-87 -39q-154 2 -153 150q0 73 67 110q32 18 82 18zM466 660v-429h210q308 0 308 210q0 143 -117 194q-57 25 -139 25h-262zM466 1255v-381h188q268 0 268 194q0 123 -101 166q-47 21 -109 21h-246zM154 0v1486h633q201 0 323 -97
t122 -267q0 -92 -36 -162q-68 -132 -222 -165v-12q142 -15 236 -110t95 -253q0 -198 -146 -309t-370 -111h-635z" />
    <glyph glyph-name="bdotaccent" unicode="&#x1e03;" horiz-adv-x="1311" 
d="M447 529q0 -133 62 -217t169 -85q107 0 169 80t63 228v85q0 204 -108 276q-52 34 -122 34t-122 -36q-109 -75 -111 -268v-97zM789 -15q-127 1 -213 55t-120 139h-13v-179h-304v1565h308v-578h13q38 83 120 134t211 51q206 0 319 -142t114 -395v-111q0 -258 -116 -398
t-319 -141zM154 1825q0 60 40 101t98 41t101 -41q42 -41 42 -101t-42 -99q-42 -38 -102 -38q-61 0 -99 38t-38 99z" />
    <glyph glyph-name="Bdotbelow" unicode="&#x1e04;" horiz-adv-x="1377" 
d="M466 660v-429h210q308 0 308 210q0 143 -117 194q-57 25 -139 25h-262zM466 1255v-381h188q268 0 268 194q0 123 -101 166q-47 21 -109 21h-246zM154 0v1486h633q201 0 323 -97t122 -267q0 -92 -36 -162q-68 -132 -222 -165v-12q142 -15 236 -110t95 -253
q0 -198 -146 -309t-370 -111h-635zM520 -282q0 62 43 104t105 43q62 0 106 -43q42 -43 42 -106t-43 -104t-105 -41t-105 42q-43 43 -43 105z" />
    <glyph glyph-name="bdotbelow" unicode="&#x1e05;" horiz-adv-x="1311" 
d="M447 529q0 -133 62 -217t169 -85q107 0 169 80t63 228v85q0 204 -108 276q-52 34 -122 34t-122 -36q-109 -75 -111 -268v-97zM789 -15q-127 1 -213 55t-120 139h-13v-179h-304v1565h308v-578h13q38 83 120 134t211 51q206 0 319 -142t114 -395v-111q0 -258 -116 -398
t-319 -141zM512 -294q0 51 20 85q44 74 116 74t116 -43t44 -106t-44 -104t-105 -41t-104 42t-43 93z" />
    <glyph glyph-name="Blinebelow" unicode="&#x1e06;" horiz-adv-x="1377" 
d="M989 -356h-644v158h644v-158zM466 660v-429h210q308 0 308 210q0 143 -117 194q-57 25 -139 25h-262zM466 1255v-381h188q268 0 268 194q0 123 -101 166q-47 21 -109 21h-246zM154 0v1486h633q201 0 323 -97t122 -267q0 -92 -36 -162q-68 -132 -222 -165v-12
q142 -15 236 -110t95 -253q0 -198 -146 -309t-370 -111h-635z" />
    <glyph glyph-name="blinebelow" unicode="&#x1e07;" horiz-adv-x="1311" 
d="M447 529q0 -133 62 -217t169 -85q107 0 169 80t63 228v85q0 204 -108 276q-52 34 -122 34t-122 -36q-109 -75 -111 -268v-97zM789 -15q-127 1 -213 55t-120 139h-13v-179h-304v1565h308v-578h13q38 83 120 134t211 51q206 0 319 -142t114 -395v-111q0 -258 -116 -398
t-319 -141zM980 -356h-643v158h643v-158z" />
    <glyph glyph-name="Ccedillaacute" unicode="&#x1e08;" horiz-adv-x="1398" 
d="M668 -387q119 0 119 66q-1 37 -33 51t-107 14h-60v112l46 119q-349 39 -476 336q-63 147 -63 347v166q0 327 166 509t448 182t444 -152t161 -376v-32h-301q0 123 -76 208t-212 86q-197 0 -271 -189q-39 -97 -39 -236v-168q0 -208 82 -314t224 -105q142 0 217 79t75 200
h301v-31q0 -193 -134 -339t-369 -169l-42 -104q131 0 183 -85q25 -42 25 -100q0 -104 -72 -157t-179 -55q-108 -2 -178 16v138q52 -17 121 -17zM535 1638l295 241h315l-344 -241h-266z" />
    <glyph glyph-name="ccedillaacute" unicode="&#x1e09;" horiz-adv-x="1167" 
d="M549 -375q119 0 119 65q0 53 -58 60q-27 4 -77 4h-58v115l47 116q-206 23 -322 169t-115 379v102q-1 243 139 393t372 150t364 -119q130 -119 133 -297h-281q-6 71 -58 124t-150 53q-96 1 -153 -85t-58 -223v-96q-1 -144 59 -228t159 -84q99 -1 147 45t58 119h281
q-5 -167 -113 -274t-287 -128l-43 -102q96 1 150 -47t53 -128q0 -216 -270 -222q-100 -2 -158 17v137q48 -15 120 -15zM703 1334h-256l225 321h308z" />
    <glyph glyph-name="Ddotaccent" unicode="&#x1e0a;" horiz-adv-x="1452" 
d="M468 1232v-978h196q191 0 290 112t99 375q0 491 -389 491h-196zM154 1486h556q505 0 628 -438q38 -132 38 -301q1 -336 -156 -541q-157 -206 -510 -206h-556v1486zM676 1888q50 0 91 -41t41 -100t-41 -98t-87 -39q-154 2 -153 150q0 73 67 110q32 18 82 18z" />
    <glyph glyph-name="ddotaccent" unicode="&#x1e0b;" horiz-adv-x="1311" 
d="M630 930q-167 0 -214 -183q-15 -58 -14 -131v-75q0 -148 60 -231t171 -83q147 0 203 143q28 71 28 171v79q0 224 -136 290q-42 20 -98 20zM522 1172q128 0 214 -51t117 -134h11v578h308v-1565h-304v179h-11q-27 -83 -116 -138t-219 -56q-206 0 -320 143t-115 392v119
q1 249 115 391t320 142zM882 1825q0 60 40 101t90 41t82 -19q71 -42 69 -123q-1 -60 -41 -99q-40 -38 -100 -38t-100 38t-40 99z" />
    <glyph glyph-name="Ddotbelow" unicode="&#x1e0c;" horiz-adv-x="1452" 
d="M468 1232v-978h196q191 0 290 112t99 375q0 491 -389 491h-196zM154 1486h556q505 0 628 -438q38 -132 38 -301q1 -336 -156 -541q-157 -206 -510 -206h-556v1486zM520 -282q0 62 43 104t105 43q62 0 106 -43q42 -43 42 -106t-43 -104t-105 -41t-105 42q-43 43 -43 105z
" />
    <glyph glyph-name="ddotbelow" unicode="&#x1e0d;" horiz-adv-x="1311" 
d="M630 930q-167 0 -214 -183q-15 -58 -14 -131v-75q0 -148 60 -231t171 -83q147 0 203 143q28 71 28 171v79q0 224 -136 290q-42 20 -98 20zM522 1172q128 0 214 -51t117 -134h11v578h308v-1565h-304v179h-11q-27 -83 -116 -138t-219 -56q-206 0 -320 143t-115 392v119
q1 249 115 391t320 142zM512 -294q0 51 20 85q44 74 116 74t116 -43t44 -106t-44 -104t-105 -41t-104 42t-43 93z" />
    <glyph glyph-name="Dlinebelow" unicode="&#x1e0e;" horiz-adv-x="1452" 
d="M468 1232v-978h196q191 0 290 112t99 375q0 491 -389 491h-196zM154 1486h556q505 0 628 -438q38 -132 38 -301q1 -336 -156 -541q-157 -206 -510 -206h-556v1486zM989 -356h-644v158h644v-158z" />
    <glyph glyph-name="dlinebelow" unicode="&#x1e0f;" horiz-adv-x="1311" 
d="M630 930q-167 0 -214 -183q-15 -58 -14 -131v-75q0 -148 60 -231t171 -83q147 0 203 143q28 71 28 171v79q0 224 -136 290q-42 20 -98 20zM522 1172q128 0 214 -51t117 -134h11v578h308v-1565h-304v179h-11q-27 -83 -116 -138t-219 -56q-206 0 -320 143t-115 392v119
q1 249 115 391t320 142zM980 -356h-643v158h643v-158z" />
    <glyph glyph-name="Dcommaaccent" unicode="&#x1e10;" horiz-adv-x="1452" 
d="M468 1232v-978h196q191 0 290 112t99 375q0 491 -389 491h-196zM154 1486h556q505 0 628 -438q38 -132 38 -301q1 -336 -156 -541q-157 -206 -510 -206h-556v1486zM668 -533h-206l92 364h237z" />
    <glyph glyph-name="dcommaaccent" unicode="&#x1e11;" horiz-adv-x="1311" 
d="M630 930q-167 0 -214 -183q-15 -58 -14 -131v-75q0 -148 60 -231t171 -83q147 0 203 143q28 71 28 171v79q0 224 -136 290q-42 20 -98 20zM522 1172q128 0 214 -51t117 -134h11v578h308v-1565h-304v179h-11q-27 -83 -116 -138t-219 -56q-206 0 -320 143t-115 392v119
q1 249 115 391t320 142zM658 -533h-204l91 364h238z" />
    <glyph glyph-name="Dcircumflexbelow" unicode="&#x1e12;" horiz-adv-x="1452" 
d="M306 -435l250 312h218l240 -314h-236l-110 175h-10l-123 -173h-229zM468 1232v-978h196q191 0 290 112t99 375q0 491 -389 491h-196zM154 1486h556q505 0 628 -438q38 -132 38 -301q1 -336 -156 -541q-157 -206 -510 -206h-556v1486z" />
    <glyph glyph-name="dcircumflexbelow" unicode="&#x1e13;" horiz-adv-x="1311" 
d="M298 -435l249 312h219l239 -314h-235l-110 175h-11l-122 -173h-229zM630 930q-167 0 -214 -183q-15 -58 -14 -131v-75q0 -148 60 -231t171 -83q147 0 203 143q28 71 28 171v79q0 224 -136 290q-42 20 -98 20zM522 1172q128 0 214 -51t117 -134h11v578h308v-1565h-304v179
h-11q-27 -83 -116 -138t-219 -56q-206 0 -320 143t-115 392v119q1 249 115 391t320 142z" />
    <glyph glyph-name="Emacrongrave" unicode="&#x1e14;" horiz-adv-x="1232" 
d="M949 1638h-641v152h641v-152zM1124 254v-254h-970v1486h970v-254h-658v-362h618v-237h-618v-379h658zM783 1900h-254l-333 233h304z" />
    <glyph glyph-name="emacrongrave" unicode="&#x1e15;" 
d="M926 1334h-643v158h643v-158zM385 701h443v2q0 111 -59 181t-161 70t-163 -70q-60 -70 -60 -181v-2zM85 622q0 173 65 300q64 128 182 192t274 64q244 0 380 -150t136 -404v-110h-737v-37q0 -113 62 -189t162 -76t155 41q54 41 62 103h287q-12 -131 -128 -254t-387 -123
q-146 0 -266 65q-245 132 -247 489v89zM783 1648h-256l-288 317h308z" />
    <glyph glyph-name="Emacronacute" unicode="&#x1e16;" horiz-adv-x="1232" 
d="M949 1638h-641v152h641v-152zM1124 254v-254h-970v1486h970v-254h-658v-362h618v-237h-618v-379h658zM452 1900l295 242h317l-346 -242h-266z" />
    <glyph glyph-name="emacronacute" unicode="&#x1e17;" 
d="M926 1334h-643v158h643v-158zM385 701h443v2q0 111 -59 181t-161 70t-163 -70q-60 -70 -60 -181v-2zM85 622q0 173 65 300q64 128 182 192t274 64q244 0 380 -150t136 -404v-110h-737v-37q0 -113 62 -189t162 -76t155 41q54 41 62 103h287q-12 -131 -128 -254t-387 -123
q-146 0 -266 65q-245 132 -247 489v89zM722 1648h-256l225 321h308z" />
    <glyph glyph-name="Ecircumflexbelow" unicode="&#x1e18;" horiz-adv-x="1232" 
d="M271 -435l249 312h219l239 -314h-235l-110 175h-11l-122 -173h-229zM1124 254v-254h-970v1486h970v-254h-658v-362h618v-237h-618v-379h658z" />
    <glyph glyph-name="ecircumflexbelow" unicode="&#x1e19;" 
d="M244 -435l249 312h221l237 -314h-235l-110 175h-11l-123 -173h-228zM385 701h443v2q0 111 -59 181t-161 70t-163 -70q-60 -70 -60 -181v-2zM85 622q0 173 65 300q64 128 182 192t274 64q244 0 380 -150t136 -404v-110h-737v-37q0 -113 62 -189t162 -76t155 41
q54 41 62 103h287q-12 -131 -128 -254t-387 -123q-146 0 -266 65q-245 132 -247 489v89z" />
    <glyph glyph-name="Etildebelow" unicode="&#x1e1a;" horiz-adv-x="1232" 
d="M1124 254v-254h-970v1486h970v-254h-658v-362h618v-237h-618v-379h658zM749 -258q66 0 71 112h160q0 -104 -60 -178t-152 -74q-102 0 -162 61q-26 29 -32 33l-17 13q-19 14 -43 14q-69 0 -73 -98h-158q0 98 54 172t152 74q106 0 171 -71q28 -30 47 -44t42 -14z" />
    <glyph glyph-name="etildebelow" unicode="&#x1e1b;" 
d="M385 701h443v2q0 111 -59 181t-161 70t-163 -70q-60 -70 -60 -181v-2zM85 622q0 173 65 300q64 128 182 192t274 64q244 0 380 -150t136 -404v-110h-737v-37q0 -113 62 -189t162 -76t155 41q54 41 62 103h287q-12 -131 -128 -254t-387 -123q-146 0 -266 65
q-245 132 -247 489v89zM256 -375q0 98 54 172t144 74t142 -41q16 -11 32 -28t28 -26q12 -10 26 -22t45 -12q30 0 48 33t20 79h158q0 -104 -59 -178t-153 -74q-95 0 -147 48q-18 16 -30 29t-18 17t-19 16q-14 12 -38 11q-69 0 -73 -98h-160z" />
    <glyph glyph-name="Ecedillabreve" unicode="&#x1e1c;" horiz-adv-x="1232" 
d="M260 1923h179q0 -69 50 -111t124 -41q137 0 183 74q22 34 22 78h175q0 -190 -163 -274q-84 -43 -202 -43t-202 42q-166 82 -166 275zM591 -375q119 0 119 65q0 37 -32 51t-108 13h-60v115l50 131h-406v1486h970v-254h-658v-362h618v-237h-618v-379h658v-254h-387
l-46 -117q96 -1 152 -49t56 -128q0 -214 -270 -220q-94 -2 -159 17v137q52 -15 121 -15z" />
    <glyph glyph-name="ecedillabreve" unicode="&#x1e1d;" 
d="M572 -387q119 0 119 66q0 37 -33 51t-106 14h-61v112l48 127q-216 23 -335 167t-119 383v89q0 173 65 300q64 128 182 192t274 64q244 0 380 -150t136 -404v-110h-737v-37q0 -113 62 -189t162 -76t155 41q54 41 62 103h287q-12 -117 -100 -225q-45 -54 -122 -94t-175 -52
l-46 -112q132 0 184 -85q26 -42 26 -100q0 -104 -72 -157t-182 -55q-108 -2 -174 16v138q50 -17 120 -17zM385 701h443v2q0 111 -59 181t-161 70t-163 -70q-60 -70 -60 -181v-2zM241 1613h177q0 -75 45 -127t130 -52t129 52t44 127h175q0 -141 -93 -241t-256 -100t-257 100
t-94 241z" />
    <glyph glyph-name="Fdotaccent" unicode="&#x1e1e;" horiz-adv-x="1171" 
d="M468 0h-314v1486h962v-256h-648v-397h589v-252h-589v-581zM481 1748q0 101 92 132q22 7 45 8q60 0 102 -41t42 -100t-42 -98t-102 -39t-99 39q-38 39 -38 99z" />
    <glyph glyph-name="fdotaccent" unicode="&#x1e1f;" horiz-adv-x="826" 
d="M229 0v910h-173v235h173v114q0 175 95 252t302 77q58 0 132 -8v-215q-22 4 -88 4q-144 0 -143 -135v-89h220v-235h-214v-910h-304zM298 1860q0 46 39 86q40 40 99 40t101 -40t42 -100t-41 -99t-103 -38q-95 0 -127 81q-10 24 -10 70z" />
    <glyph glyph-name="Gmacron" unicode="&#x1e20;" horiz-adv-x="1425" 
d="M1045 1638h-641v152h641v-152zM719 1253q-132 0 -219 -104t-88 -310v-183q0 -194 78 -308t247 -115q89 0 158 35q139 71 139 223v83h-291v231h591v-293q0 -159 -90 -301t-279 -206q-105 -34 -249 -34t-270 52q-230 96 -314 360q-39 123 -38 273v185q0 204 76 356t221 235
q146 83 346 83q272 0 440 -158q92 -86 134 -224q19 -61 21 -128h-308q-12 117 -92 183t-213 65z" />
    <glyph glyph-name="gmacron" unicode="&#x1e21;" horiz-adv-x="1286" 
d="M855 626q0 136 -61 220t-166 84q-104 0 -168 -80t-65 -224v-87q0 -139 65 -217t170 -78t165 80t60 209v93zM616 -206q239 0 239 241v163h-12q-33 -79 -121 -130t-206 -51q-196 0 -316 139t-119 385v102q0 248 120 388t317 141q127 0 210 -51t117 -134h15v172h301v-1144
q0 -274 -238 -383q-133 -61 -317 -61q-244 0 -370 102t-130 252h294q12 -59 67 -95t149 -36zM966 1334h-641v158h641v-158z" />
    <glyph glyph-name="Hdotaccent" unicode="&#x1e22;" horiz-adv-x="1536" 
d="M631 1738q0 94 66 132q31 18 81 18t92 -41t42 -100t-41 -98t-101 -39t-100 39q-39 39 -39 89zM1384 0h-316v629h-600v-629h-314v1486h314v-599h600v599h316v-1486z" />
    <glyph glyph-name="hdotaccent" unicode="&#x1e23;" horiz-adv-x="1315" 
d="M156 1825q0 60 40 101t100 41t100 -41t41 -101q0 -60 -41 -99q-40 -38 -100 -38t-100 38t-40 99zM142 0v1565h305v-578h15q27 73 109 131t214 58q185 0 294 -118t109 -321v-737h-306v664q0 125 -58 188q-58 64 -157 64t-159 -66t-61 -188v-662h-305z" />
    <glyph glyph-name="Hdotbelow" unicode="&#x1e24;" horiz-adv-x="1536" 
d="M624 -294q0 51 20 85q44 74 116 74q74 0 116 -43t42 -106t-43 -104t-105 -41t-104 42t-42 93zM1384 0h-316v629h-600v-629h-314v1486h314v-599h600v599h316v-1486z" />
    <glyph glyph-name="hdotbelow" unicode="&#x1e25;" horiz-adv-x="1315" 
d="M510 -294q0 51 20 85q44 74 117 74q75 0 117 -43t42 -106t-44 -104q-42 -41 -104 -41t-105 42t-43 93zM142 0v1565h305v-578h15q27 73 109 131t214 58q185 0 294 -118t109 -321v-737h-306v664q0 125 -58 188q-58 64 -157 64t-159 -66t-61 -188v-662h-305z" />
    <glyph glyph-name="Hdieresis" unicode="&#x1e26;" horiz-adv-x="1536" 
d="M978 1603q-56 0 -90 33t-33 86q-1 54 33 86t89 32t89 -32t33 -86q0 -54 -33 -86q-32 -33 -88 -33zM466 1721q0 74 57 104q28 15 74 15t79 -32q34 -32 34 -86t-34 -86q-34 -33 -78 -33q-86 0 -117 57q-15 26 -15 61zM1384 0h-316v629h-600v-629h-314v1486h314v-599h600
v599h316v-1486z" />
    <glyph glyph-name="hdieresis" unicode="&#x1e27;" horiz-adv-x="1315" 
d="M383 1819q0 59 36 95q35 36 87 36t83 -16q64 -34 63 -105q-1 -69 -37 -105q-35 -36 -97 -36t-99 36q-36 37 -36 95zM-58 1819q0 59 37 95t99 36t98 -36q38 -36 38 -94t-37 -96q-37 -36 -99 -36t-99 36q-37 37 -37 95zM142 0v1565h305v-578h15q27 73 109 131t214 58
q185 0 294 -118t109 -321v-737h-306v664q0 125 -58 188q-58 64 -157 64t-159 -66t-61 -188v-662h-305z" />
    <glyph glyph-name="Hcedilla" unicode="&#x1e28;" horiz-adv-x="1536" 
d="M325 -375q119 0 118 65q0 37 -32 51t-107 13h-60v115l49 131h-139v1486h314v-599h600v599h316v-1486h-316v629h-600v-629l-43 -117q96 -1 152 -49t56 -128q0 -214 -269 -220q-94 -2 -160 17v137q52 -15 121 -15z" />
    <glyph glyph-name="hcedilla" unicode="&#x1e29;" horiz-adv-x="1315" 
d="M300 -387q119 0 118 66q0 37 -33 51t-108 14h-58v112l54 144h-131v1565h305v-578h15q27 73 109 131t214 58q185 0 294 -118t109 -321v-737h-306v664q0 125 -58 188q-58 64 -157 64t-159 -66t-61 -188v-662l-49 -127q98 0 154 -49q56 -48 56 -144t-73 -149t-183 -55
t-173 16v138q52 -17 121 -17z" />
    <glyph glyph-name="Hbrevebelow" unicode="&#x1e2a;" horiz-adv-x="1536" 
d="M1384 0h-316v629h-600v-629h-314v1486h314v-599h600v599h316v-1486zM406 -137h183q0 -75 46 -127t133 -52t133 52t46 127h175q0 -197 -159 -293q-81 -49 -195 -49t-198 48q-164 93 -164 294z" />
    <glyph glyph-name="hbrevebelow" unicode="&#x1e2b;" horiz-adv-x="1315" 
d="M142 0v1565h305v-578h15q27 73 109 131t214 58q185 0 294 -118t109 -321v-737h-306v664q0 125 -58 188q-58 64 -157 64t-159 -66t-61 -188v-662h-305zM293 -137h184q0 -107 77 -153q42 -26 114 -26t119 52q46 52 46 127h174q1 -144 -91 -243t-262 -99t-265 99
q-96 99 -96 243z" />
    <glyph glyph-name="Itildebelow" unicode="&#x1e2c;" horiz-adv-x="622" 
d="M198 -277q-69 0 -73 -98h-160q0 98 54 172t154 74q92 -1 150 -55q37 -34 57 -54t53 -20t51 33t20 79h158q0 -104 -60 -178t-152 -74q-96 0 -148 48q-18 16 -29 29t-17 17l-17 13q-17 14 -41 14zM468 0h-314v1486h314v-1486z" />
    <glyph glyph-name="itildebelow" unicode="&#x1e2d;" horiz-adv-x="620" 
d="M198 -277q-69 0 -73 -98h-160q0 98 54 172t154 74q92 -1 150 -55q37 -34 57 -54t53 -20t51 33t20 79h158q0 -104 -60 -178t-152 -74q-96 0 -148 48q-18 16 -29 29t-17 17l-17 13q-17 14 -41 14zM133 1450q0 66 49 108t128 43q79 0 128 -42q49 -41 49 -109t-48 -110
t-129 -42t-129 44q-48 42 -48 108zM158 0v1159h306v-1159h-306z" />
    <glyph glyph-name="Idieresisacute" unicode="&#x1e2e;" horiz-adv-x="622" 
d="M398 1730q0 44 33 78q33 32 88 32t89 -32t35 -86q0 -54 -33 -86q-33 -33 -80 -33t-74 15q-58 34 -58 112zM132 1603q-56 0 -90 33q-34 32 -34 76q0 82 59 113q27 15 64 15q76 0 106 -56q15 -27 15 -71t-32 -77t-88 -33zM135 1900l296 242h314l-343 -242h-267zM468 0h-314
v1486h314v-1486z" />
    <glyph glyph-name="idieresisacute" unicode="&#x1e2f;" horiz-adv-x="620" 
d="M404 1411q0 59 36 95t98 36t98 -36q38 -36 38 -95q0 -100 -97 -127q-19 -4 -40 -4q-60 0 -97 36q-36 37 -36 95zM-35 1411q0 59 36 95q35 36 97 36t100 -36t37 -94q0 -58 -37 -96q-38 -36 -98 -36t-98 36q-37 37 -37 95zM160 0v1159h315v-1159h-315zM437 1648h-258
l227 321h308z" />
    <glyph glyph-name="Kacute" unicode="&#x1e30;" horiz-adv-x="1384" 
d="M468 0h-314v1486h314v-653h15l545 653h344l-527 -641l549 -845h-376l-402 635l-148 -167v-468zM504 1638l293 241h316l-343 -241h-266z" />
    <glyph glyph-name="kacute" unicode="&#x1e31;" horiz-adv-x="1217" 
d="M412 1742h-258l227 321h308zM445 0h-306v1565h306v-882h15l368 476h344l-414 -501l443 -658h-356l-321 485l-79 -87v-398z" />
    <glyph glyph-name="Kdotbelow" unicode="&#x1e32;" horiz-adv-x="1384" 
d="M468 0h-314v1486h314v-653h15l545 653h344l-527 -641l549 -845h-376l-402 635l-148 -167v-468zM549 -294q0 51 19 85q41 74 116 74q74 0 116 -43t43 -106q0 -63 -43 -104t-105 -41t-104 42t-42 93z" />
    <glyph glyph-name="kdotbelow" unicode="&#x1e33;" horiz-adv-x="1217" 
d="M445 0h-306v1565h306v-882h15l368 476h344l-414 -501l443 -658h-356l-321 485l-79 -87v-398zM481 -294q0 51 20 85q44 74 117 74t116 -43q42 -43 42 -106t-42 -104t-106 -41q-62 0 -105 42q-42 42 -42 93z" />
    <glyph glyph-name="Klinebelow" unicode="&#x1e34;" horiz-adv-x="1384" 
d="M1018 -356h-643v158h643v-158zM468 0h-314v1486h314v-653h15l545 653h344l-527 -641l549 -845h-376l-402 635l-148 -167v-468z" />
    <glyph glyph-name="klinebelow" unicode="&#x1e35;" horiz-adv-x="1217" 
d="M949 -356h-641v158h641v-158zM445 0h-306v1565h306v-882h15l368 476h344l-414 -501l443 -658h-356l-321 485l-79 -87v-398z" />
    <glyph glyph-name="Ldotbelow" unicode="&#x1e36;" horiz-adv-x="1115" 
d="M1089 266v-266h-935v1486h314v-1220h621zM420 -282q0 62 43 104t105 43q62 0 106 -43q42 -43 42 -106t-43 -104t-105 -41t-105 42q-43 43 -43 105z" />
    <glyph glyph-name="ldotbelow" unicode="&#x1e37;" horiz-adv-x="597" 
d="M146 0v1565h308v-1565h-308zM156 -282q0 62 42 104t104 43q62 0 106 -43t44 -106t-44 -104t-106 -41t-104 42q-42 43 -42 105z" />
    <glyph glyph-name="Ldotbelowmacron" unicode="&#x1e38;" horiz-adv-x="1115" 
d="M631 1638h-641v152h641v-152zM1089 266v-266h-935v1486h314v-1220h621zM420 -282q0 62 43 104t105 43q62 0 106 -43q42 -43 42 -106t-43 -104t-105 -41t-105 42q-43 43 -43 105z" />
    <glyph glyph-name="ldotbelowmacron" unicode="&#x1e39;" horiz-adv-x="597" 
d="M622 1742h-641v158h641v-158zM146 0v1565h308v-1565h-308zM156 -282q0 62 42 104t104 43q62 0 106 -43t44 -106t-44 -104t-106 -41t-104 42q-42 43 -42 105z" />
    <glyph glyph-name="Llinebelow" unicode="&#x1e3a;" horiz-adv-x="1115" 
d="M1089 266v-266h-935v1486h314v-1220h621zM889 -356h-641v158h641v-158z" />
    <glyph glyph-name="llinebelow" unicode="&#x1e3b;" horiz-adv-x="597" 
d="M146 0v1565h308v-1565h-308zM624 -356h-643v158h643v-158z" />
    <glyph glyph-name="Lcircumflexbelow" unicode="&#x1e3c;" horiz-adv-x="1115" 
d="M206 -435l252 312h218l238 -314h-235l-109 175h-12l-123 -173h-229zM1089 266v-266h-935v1486h314v-1220h621z" />
    <glyph glyph-name="lcircumflexbelow" unicode="&#x1e3d;" horiz-adv-x="597" 
d="M-58 -435l249 312h219l239 -314h-235l-110 175h-11l-122 -173h-229zM146 0v1565h308v-1565h-308z" />
    <glyph glyph-name="Macute" unicode="&#x1e3e;" horiz-adv-x="1783" 
d="M437 0h-281v1486h323l410 -922h10l410 922h321v-1486h-283v962h-15l-341 -764h-198l-341 764h-15v-962zM716 1638l296 241h316l-346 -241h-266z" />
    <glyph glyph-name="macute" unicode="&#x1e3f;" horiz-adv-x="1948" 
d="M137 0v1159h298v-172h17q38 107 154 159q67 30 173 30t188 -54t111 -148h15q42 114 182 171q76 31 169 31q175 0 275 -104t100 -279v-793h-306v703q0 163 -114 205q-35 14 -79 14q-88 0 -142 -59t-54 -168v-695h-294v695q0 117 -53 172t-139 55t-140 -57t-55 -168v-697
h-306zM1095 1334h-256l225 321h308z" />
    <glyph glyph-name="Mdotaccent" unicode="&#x1e40;" horiz-adv-x="1783" 
d="M437 0h-281v1486h323l410 -922h10l410 922h321v-1486h-283v962h-15l-341 -764h-198l-341 764h-15v-962zM905 1888q50 0 91 -41q40 -41 40 -100t-40 -98t-102 -39t-90 29q-48 48 -48 121t67 110q32 18 82 18z" />
    <glyph glyph-name="mdotaccent" unicode="&#x1e41;" horiz-adv-x="1948" 
d="M137 0v1159h298v-172h17q38 107 154 159q67 30 173 30t188 -54t111 -148h15q42 114 182 171q76 31 169 31q175 0 275 -104t100 -279v-793h-306v703q0 163 -114 205q-35 14 -79 14q-88 0 -142 -59t-54 -168v-695h-294v695q0 117 -53 172t-139 55t-140 -57t-55 -168v-697
h-306zM837 1419q0 60 39 100q40 40 100 40t101 -41t41 -100q0 -60 -41 -98t-101 -38t-100 38t-39 99z" />
    <glyph glyph-name="Mdotbelow" unicode="&#x1e42;" horiz-adv-x="1783" 
d="M437 0h-281v1486h323l410 -922h10l410 922h321v-1486h-283v962h-15l-341 -764h-198l-341 764h-15v-962zM749 -294q0 51 20 85q44 74 116 74q73 0 117 -43t43 -106q0 -63 -44 -104t-105 -41t-104 42t-43 93z" />
    <glyph glyph-name="mdotbelow" unicode="&#x1e43;" horiz-adv-x="1948" 
d="M137 0v1159h298v-172h17q38 107 154 159q67 30 173 30t188 -54t111 -148h15q42 114 182 171q76 31 169 31q175 0 275 -104t100 -279v-793h-306v703q0 163 -114 205q-35 14 -79 14q-88 0 -142 -59t-54 -168v-695h-294v695q0 117 -53 172t-139 55t-140 -57t-55 -168v-697
h-306zM830 -294q0 51 20 85q44 74 117 74q75 0 117 -43t42 -106t-43 -104t-105 -41t-105 42t-43 93z" />
    <glyph glyph-name="Ndotaccent" unicode="&#x1e44;" horiz-adv-x="1506" 
d="M450 0h-296v1486h258l635 -953h10v953h298v-1486h-258l-637 959h-10v-959zM616 1747q0 41 18 73q38 68 110 68q71 0 112 -41t41 -100t-41 -98q-40 -39 -90 -39q-93 1 -132 65q-18 31 -18 72z" />
    <glyph glyph-name="ndotaccent" unicode="&#x1e45;" horiz-adv-x="1309" 
d="M137 0v1159h298v-172h15q31 75 117 132t216 57q179 0 287 -108t108 -306v-762h-304v672q0 153 -85 210q-45 32 -120 33q-147 2 -199 -111q-27 -57 -27 -138v-666h-306zM518 1419q0 60 40 100t100 40t101 -41t41 -100q0 -60 -42 -98q-40 -38 -100 -38t-100 38t-40 99z" />
    <glyph glyph-name="Ndotbelow" unicode="&#x1e46;" horiz-adv-x="1506" 
d="M450 0h-296v1486h258l635 -953h10v953h298v-1486h-258l-637 959h-10v-959zM610 -294q0 51 20 85q44 74 117 74t116 -43t43 -106t-44 -104t-106 -41t-104 42t-42 93z" />
    <glyph glyph-name="ndotbelow" unicode="&#x1e47;" horiz-adv-x="1309" 
d="M137 0v1159h298v-172h15q31 75 117 132t216 57q179 0 287 -108t108 -306v-762h-304v672q0 153 -85 210q-45 32 -120 33q-147 2 -199 -111q-27 -57 -27 -138v-666h-306zM512 -294q0 51 20 85q44 74 116 74t116 -43t44 -106t-44 -104t-105 -41t-104 42t-43 93z" />
    <glyph glyph-name="Nlinebelow" unicode="&#x1e48;" horiz-adv-x="1506" 
d="M450 0h-296v1486h258l635 -953h10v953h298v-1486h-258l-637 959h-10v-959zM1078 -356h-643v158h643v-158z" />
    <glyph glyph-name="nlinebelow" unicode="&#x1e49;" horiz-adv-x="1309" 
d="M137 0v1159h298v-172h15q31 75 117 132t216 57q179 0 287 -108t108 -306v-762h-304v672q0 153 -85 210q-45 32 -120 33q-147 2 -199 -111q-27 -57 -27 -138v-666h-306zM980 -356h-643v158h643v-158z" />
    <glyph glyph-name="Ncircumflexbelow" unicode="&#x1e4a;" horiz-adv-x="1506" 
d="M395 -435l250 312h219l239 -314h-235l-110 175h-11l-123 -173h-229zM450 0h-296v1486h258l635 -953h10v953h298v-1486h-258l-637 959h-10v-959z" />
    <glyph glyph-name="ncircumflexbelow" unicode="&#x1e4b;" horiz-adv-x="1309" 
d="M298 -435l249 312h219l239 -314h-235l-110 175h-11l-122 -173h-229zM137 0v1159h298v-172h15q31 75 117 132t216 57q179 0 287 -108t108 -306v-762h-304v672q0 153 -85 210q-45 32 -120 33q-147 2 -199 -111q-27 -57 -27 -138v-666h-306z" />
    <glyph glyph-name="Otildeacute" unicode="&#x1e4c;" horiz-adv-x="1475" 
d="M631 1711q-67 0 -71 -92h-156q0 94 52 165t150 70q100 0 167 -67q28 -27 44 -41t48 -14t49 32t18 74h157q1 -98 -59 -170t-136 -72t-108 15q-45 21 -81 60q-36 40 -74 40zM94 645v185q0 318 171 502q172 183 474 183q301 0 473 -184t172 -501v-185q0 -314 -172 -494
t-475 -180q-200 0 -346 81t-221 233q-76 152 -76 360zM414 835v-190q0 -202 88 -307t237 -105q148 0 236 105t89 307v190q0 135 -43 231q-85 189 -282 189q-149 0 -237 -109t-88 -311zM562 1900l295 242h315l-344 -242h-266z" />
    <glyph glyph-name="otildeacute" unicode="&#x1e4d;" horiz-adv-x="1240" 
d="M847 616q0 329 -225 329t-229 -329v-73q0 -247 137 -310q41 -19 92 -19q225 0 225 329v73zM622 1178q258 0 396 -152t139 -406v-75q0 -266 -137 -416q-138 -150 -398 -150t-398 149t-139 415v77q-1 250 139 404t398 154zM491 1401q-75 0 -79 -106h-173q-1 129 59 216
t177 87q91 0 161 -70l26 -26l14 -14q28 -31 65 -31t56 36t21 87h173q0 -173 -115 -260q-56 -44 -138 -44t-144 62t-103 63zM741 1648h-256l225 321h308z" />
    <glyph glyph-name="Otildedieresis" unicode="&#x1e4e;" horiz-adv-x="1475" 
d="M631 1711q-67 0 -71 -92h-156q0 94 52 165t150 70q100 0 167 -67q28 -27 44 -41t48 -14t49 32t18 74h157q1 -98 -59 -170t-136 -72t-108 15q-45 21 -81 60q-36 40 -74 40zM94 645v185q0 318 171 502q172 183 474 183q301 0 473 -184t172 -501v-185q0 -314 -172 -494
t-475 -180q-200 0 -346 81t-221 233q-76 152 -76 360zM414 835v-190q0 -202 88 -307t237 -105q148 0 236 105t89 307v190q0 135 -43 231q-85 189 -282 189q-149 0 -237 -109t-88 -311zM812 2028q0 52 32 86t88 34t90 -33t33 -77t-15 -71q-31 -58 -97 -57q-67 1 -99 33
t-32 85zM544 1911q-56 0 -90 32t-34 85q0 52 34 86t74 34q70 0 104 -34t34 -86t-33 -85q-33 -32 -89 -32z" />
    <glyph glyph-name="otildedieresis" unicode="&#x1e4f;" horiz-adv-x="1240" 
d="M847 616q0 329 -225 329t-229 -329v-73q0 -247 137 -310q41 -19 92 -19q225 0 225 329v73zM622 1178q258 0 396 -152t139 -406v-75q0 -266 -137 -416q-138 -150 -398 -150t-398 149t-139 415v77q-1 250 139 404t398 154zM710 1750q0 58 36 94t98 37q62 0 98 -36
q36 -35 36 -95t-36 -95t-98 -35t-98 36t-36 94zM268 1750q0 58 38 94t98 37q62 0 98 -36q36 -37 37 -95q0 -58 -36 -94q-35 -36 -97 -36t-100 36t-38 94zM491 1401q-75 0 -79 -106h-173q-1 129 59 216t177 87q91 0 161 -70l26 -26l14 -14q28 -31 65 -31t56 36t21 87h173
q0 -173 -115 -260q-56 -44 -138 -44t-144 62t-103 63z" />
    <glyph glyph-name="Omacrongrave" unicode="&#x1e50;" horiz-adv-x="1475" 
d="M1059 1638h-643v152h643v-152zM94 645v185q0 318 171 502q172 183 474 183q301 0 473 -184t172 -501v-185q0 -314 -172 -494t-475 -180q-200 0 -346 81t-221 233q-76 152 -76 360zM414 835v-190q0 -202 88 -307t237 -105q148 0 236 105t89 307v190q0 135 -43 231
q-85 189 -282 189q-149 0 -237 -109t-88 -311zM893 1900h-254l-333 233h302z" />
    <glyph glyph-name="omacrongrave" unicode="&#x1e51;" horiz-adv-x="1240" 
d="M847 616q0 329 -225 329t-229 -329v-73q0 -247 137 -310q41 -19 92 -19q225 0 225 329v73zM622 1178q258 0 396 -152t139 -406v-75q0 -266 -137 -416q-138 -150 -398 -150t-398 149t-139 415v77q-1 250 139 404t398 154zM945 1334h-643v158h643v-158zM801 1648h-256
l-287 317h308z" />
    <glyph glyph-name="Omacronacute" unicode="&#x1e52;" horiz-adv-x="1475" 
d="M1059 1638h-643v152h643v-152zM94 645v185q0 318 171 502q172 183 474 183q301 0 473 -184t172 -501v-185q0 -314 -172 -494t-475 -180q-200 0 -346 81t-221 233q-76 152 -76 360zM414 835v-190q0 -202 88 -307t237 -105q148 0 236 105t89 307v190q0 135 -43 231
q-85 189 -282 189q-149 0 -237 -109t-88 -311zM562 1900l295 242h315l-344 -242h-266z" />
    <glyph glyph-name="omacronacute" unicode="&#x1e53;" horiz-adv-x="1240" 
d="M847 616q0 329 -225 329t-229 -329v-73q0 -247 137 -310q41 -19 92 -19q225 0 225 329v73zM622 1178q258 0 396 -152t139 -406v-75q0 -266 -137 -416q-138 -150 -398 -150t-398 149t-139 415v77q-1 250 139 404t398 154zM945 1334h-643v158h643v-158zM741 1648h-256
l225 321h308z" />
    <glyph glyph-name="Pacute" unicode="&#x1e54;" horiz-adv-x="1313" 
d="M466 1238v-510h167q156 0 235 58t79 189q0 130 -67 197t-187 66h-227zM154 1486h606q280 0 421 -204q87 -125 87 -298q0 -219 -136 -358t-376 -139h-288v-487h-314v1486zM464 1638l296 241h314l-343 -241h-267z" />
    <glyph glyph-name="pacute" unicode="&#x1e55;" horiz-adv-x="1307" 
d="M774 1334h-258l227 321h308zM445 529q0 -133 64 -217t169 -85q105 0 166 79t61 229v89q0 148 -61 227t-168 79q-144 0 -203 -138q-28 -68 -28 -159v-104zM789 -15q-125 0 -208 51t-123 135h-13v-554h-308v1542h304v-172h13q34 85 122 135t215 50q197 0 313 -138t116 -393
v-125q0 -252 -116 -392t-315 -139z" />
    <glyph glyph-name="Pdotaccent" unicode="&#x1e56;" horiz-adv-x="1313" 
d="M504 1748q0 60 38 100q39 40 99 40t102 -41t42 -100t-42 -98t-102 -39t-99 39q-38 39 -38 99zM466 1238v-510h167q156 0 235 58t79 189q0 130 -67 197t-187 66h-227zM154 1486h606q280 0 421 -204q87 -125 87 -298q0 -219 -136 -358t-376 -139h-288v-487h-314v1486z" />
    <glyph glyph-name="pdotaccent" unicode="&#x1e57;" horiz-adv-x="1307" 
d="M516 1419q0 60 40 100t100 40t101 -41t41 -100q0 -60 -42 -98q-40 -38 -100 -38t-100 38t-40 99zM445 529q0 -133 64 -217t169 -85q105 0 166 79t61 229v89q0 148 -61 227t-168 79q-144 0 -203 -138q-28 -68 -28 -159v-104zM789 -15q-125 0 -208 51t-123 135h-13v-554
h-308v1542h304v-172h13q34 85 122 135t215 50q197 0 313 -138t116 -393v-125q0 -252 -116 -392t-315 -139z" />
    <glyph glyph-name="Rdotaccent" unicode="&#x1e58;" horiz-adv-x="1381" 
d="M533 1748q0 60 39 100q40 40 99 40t101 -41t42 -100t-41 -98t-102 -39t-100 39q-38 39 -38 99zM464 776h246q160 0 222 104q32 52 32 127t-34 130q-66 108 -216 108h-250v-469zM760 1486q256 0 392 -132t136 -334t-128 -331q-62 -63 -140 -96l297 -593h-351l-256 547
h-246v-547h-310v1486h606z" />
    <glyph glyph-name="rdotaccent" unicode="&#x1e59;" horiz-adv-x="857" 
d="M612 1418q0 -60 -41 -98t-101 -38t-100 38t-39 89q0 50 18 82q38 68 110 68q71 0 112 -41t41 -100zM148 0v1159h306v-160h12q24 71 88 123t181 52q60 0 95 -8v-263q-37 10 -118 11q-250 0 -250 -263v-651h-314z" />
    <glyph glyph-name="Rdotbelow" unicode="&#x1e5a;" horiz-adv-x="1381" 
d="M464 776h246q160 0 222 104q32 52 32 127t-34 130q-66 108 -216 108h-250v-469zM760 1486q256 0 392 -132t136 -334t-128 -331q-62 -63 -140 -96l297 -593h-351l-256 547h-246v-547h-310v1486h606zM527 -294q0 97 70 139q33 20 85 20t96 -43q42 -43 42 -106t-43 -104
t-105 -41t-104 42q-41 42 -41 93z" />
    <glyph glyph-name="rdotbelow" unicode="&#x1e5b;" horiz-adv-x="857" 
d="M148 0v1159h306v-160h12q24 71 88 123t181 52q60 0 95 -8v-263q-37 10 -118 11q-250 0 -250 -263v-651h-314zM162 -282q0 62 43 104t105 43q62 0 106 -43q42 -43 42 -106t-43 -104t-105 -41t-105 42q-43 43 -43 105z" />
    <glyph glyph-name="Rdotbelowmacron" unicode="&#x1e5c;" horiz-adv-x="1381" 
d="M991 1638h-643v152h643v-152zM464 776h246q160 0 222 104q32 52 32 127t-34 130q-66 108 -216 108h-250v-469zM760 1486q256 0 392 -132t136 -334t-128 -331q-62 -63 -140 -96l297 -593h-351l-256 547h-246v-547h-310v1486h606zM527 -294q0 97 70 139q33 20 85 20t96 -43
q42 -43 42 -106t-43 -104t-105 -41t-104 42q-41 42 -41 93z" />
    <glyph glyph-name="rdotbelowmacron" unicode="&#x1e5d;" horiz-adv-x="857" 
d="M791 1334h-641v158h641v-158zM148 0v1159h306v-160h12q24 71 88 123t181 52q60 0 95 -8v-263q-37 10 -118 11q-250 0 -250 -263v-651h-314zM162 -282q0 62 43 104t105 43q62 0 106 -43q42 -43 42 -106t-43 -104t-105 -41t-105 42q-43 43 -43 105z" />
    <glyph glyph-name="Rlinebelow" unicode="&#x1e5e;" horiz-adv-x="1381" 
d="M995 -356h-643v158h643v-158zM464 776h246q160 0 222 104q32 52 32 127t-34 130q-66 108 -216 108h-250v-469zM760 1486q256 0 392 -132t136 -334t-128 -331q-62 -63 -140 -96l297 -593h-351l-256 547h-246v-547h-310v1486h606z" />
    <glyph glyph-name="rlinebelow" unicode="&#x1e5f;" horiz-adv-x="857" 
d="M631 -356h-641v158h641v-158zM148 0v1159h306v-160h12q24 71 88 123t181 52q60 0 95 -8v-263q-37 10 -118 11q-250 0 -250 -263v-651h-314z" />
    <glyph glyph-name="Sdotaccent" unicode="&#x1e60;" horiz-adv-x="1323" 
d="M524 1757q0 51 39 91t99 40t102 -41t42 -100t-42 -98t-113 -39t-109 66q-18 30 -18 81zM660 219q131 0 202 53q70 53 70 134t-55 123t-171 68l-223 50q-175 37 -279 137t-104 280q0 210 158 332t404 121q164 0 291 -57t197 -158t70 -230h-294q-6 83 -75 141
q-69 59 -186 59t-184 -50t-67 -136q0 -129 202 -170l225 -50q292 -62 370 -250q31 -75 32 -173q1 -219 -159 -345t-437 -127q-155 1 -273 41t-183 109q-122 129 -126 306h301q8 -87 86 -147t208 -61z" />
    <glyph glyph-name="sdotaccent" unicode="&#x1e61;" horiz-adv-x="1128" 
d="M427 1419q0 60 39 100q40 40 100 40t101 -41t41 -100q0 -60 -41 -98t-101 -38t-100 38t-39 99zM96 830q0 80 37 152q68 131 254 175q83 21 181 21q206 0 327 -95t121 -259h-271q-6 60 -50 104t-129 44t-132 -36t-47 -93t39 -81q58 -39 146 -55q17 -3 62 -11t55 -9
q175 -29 269 -104t93 -223q0 -179 -133 -280q-132 -101 -362 -101t-356 96t-127 252h295q8 -60 60 -100t118 -40q208 0 207 138q0 39 -14 55q-44 49 -174 76q-70 10 -97 19q-213 38 -303 134q-69 74 -69 221z" />
    <glyph glyph-name="Sdotbelow" unicode="&#x1e62;" horiz-adv-x="1323" 
d="M660 219q131 0 202 53q70 53 70 134t-55 123t-171 68l-223 50q-175 37 -279 137t-104 280q0 210 158 332t404 121q164 0 291 -57t197 -158t70 -230h-294q-6 83 -75 141q-69 59 -186 59t-184 -50t-67 -136q0 -129 202 -170l225 -50q292 -62 370 -250q31 -75 32 -173
q1 -219 -159 -345t-437 -127q-155 1 -273 41t-183 109q-122 129 -126 306h301q8 -87 86 -147t208 -61zM504 -294q0 96 73 139q33 20 85 20t95 -43t43 -106t-44 -104q-42 -41 -104 -41t-106 42q-42 42 -42 93z" />
    <glyph glyph-name="sdotbelow" unicode="&#x1e63;" horiz-adv-x="1128" 
d="M96 830q0 80 37 152q68 131 254 175q83 21 181 21q206 0 327 -95t121 -259h-271q-6 60 -50 104t-129 44t-132 -36t-47 -93t39 -81q58 -39 146 -55q17 -3 62 -11t55 -9q175 -29 269 -104t93 -223q0 -179 -133 -280q-132 -101 -362 -101t-356 96t-127 252h295
q8 -60 60 -100t118 -40q208 0 207 138q0 39 -14 55q-44 49 -174 76q-70 10 -97 19q-213 38 -303 134q-69 74 -69 221zM420 -282q0 62 42 104t106 43q64 0 106 -43t42 -106t-44 -104t-105 -41t-104 42q-43 43 -43 105z" />
    <glyph glyph-name="Sacutedotaccent" unicode="&#x1e64;" horiz-adv-x="1323" 
d="M660 219q131 0 202 53q70 53 70 134t-55 123t-171 68l-223 50q-175 37 -279 137t-104 280q0 210 158 332t404 121q164 0 291 -57t197 -158t70 -230h-294q-6 83 -75 141q-69 59 -186 59t-184 -50t-67 -136q0 -129 202 -170l225 -50q292 -62 370 -250q31 -75 32 -173
q1 -219 -159 -345t-437 -127q-155 1 -273 41t-183 109q-122 129 -126 306h301q8 -87 86 -147t208 -61zM629 1678l295 241h314l-343 -241h-266zM248 1810q0 55 37 92q37 38 91 38t94 -38q38 -38 38 -92q0 -56 -39 -92t-93 -36t-91 36q-37 37 -37 92z" />
    <glyph glyph-name="sacutedotaccent" unicode="&#x1e65;" horiz-adv-x="1128" 
d="M764 1334h-258l227 321h308zM96 830q0 80 37 152q68 131 254 175q83 21 181 21q206 0 327 -95t121 -259h-271q-6 60 -50 104t-129 44t-132 -36t-47 -93t39 -81q58 -39 146 -55q17 -3 62 -11t55 -9q175 -29 269 -104t93 -223q0 -179 -133 -280q-132 -101 -362 -101
t-356 96t-127 252h295q8 -60 60 -100t118 -40q208 0 207 138q0 39 -14 55q-44 49 -174 76q-70 10 -97 19q-213 38 -303 134q-69 74 -69 221zM183 1535q0 59 40 99q41 40 99 40t99 -40t41 -99t-41 -99t-100 -40t-99 40t-39 99z" />
    <glyph glyph-name="Scarondotaccent" unicode="&#x1e66;" horiz-adv-x="1323" 
d="M268 1886h238l150 -131h14l146 131h237l-285 -254h-206zM660 219q131 0 202 53q70 53 70 134t-55 123t-171 68l-223 50q-175 37 -279 137t-104 280q0 210 158 332t404 121q164 0 291 -57t197 -158t70 -230h-294q-6 83 -75 141q-69 59 -186 59t-184 -50t-67 -136
q0 -129 202 -170l225 -50q292 -62 370 -250q31 -75 32 -173q1 -219 -159 -345t-437 -127q-155 1 -273 41t-183 109q-122 129 -126 306h301q8 -87 86 -147t208 -61zM533 2058q0 46 36 84t99 37q63 0 102 -53q25 -33 25 -84q0 -50 -38 -87q-39 -36 -85 -36t-77 17
q-62 37 -62 122z" />
    <glyph glyph-name="scarondotaccent" unicode="&#x1e67;" horiz-adv-x="1128" 
d="M96 830q0 80 37 152q68 131 254 175q83 21 181 21q206 0 327 -95t121 -259h-271q-6 60 -50 104t-129 44t-132 -36t-47 -93t39 -81q58 -39 146 -55q17 -3 62 -11t55 -9q175 -29 269 -104t93 -223q0 -179 -133 -280q-132 -101 -362 -101t-356 96t-127 252h295
q8 -60 60 -100t118 -40q208 0 207 138q0 39 -14 55q-44 49 -174 76q-70 10 -97 19q-213 38 -303 134q-69 74 -69 221zM208 1640h229l123 -189h10l111 191h235l-240 -337h-218zM416 1876q0 59 40 100t90 41t82 -18t51 -51t19 -82t-42 -89q-40 -39 -99 -39t-100 40t-41 98z
" />
    <glyph glyph-name="Sdotbelowdotaccent" unicode="&#x1e68;" horiz-adv-x="1323" 
d="M524 1757q0 51 39 91t99 40t102 -41t42 -100t-42 -98t-113 -39t-109 66q-18 30 -18 81zM660 219q131 0 202 53q70 53 70 134t-55 123t-171 68l-223 50q-175 37 -279 137t-104 280q0 210 158 332t404 121q164 0 291 -57t197 -158t70 -230h-294q-6 83 -75 141
q-69 59 -186 59t-184 -50t-67 -136q0 -129 202 -170l225 -50q292 -62 370 -250q31 -75 32 -173q1 -219 -159 -345t-437 -127q-155 1 -273 41t-183 109q-122 129 -126 306h301q8 -87 86 -147t208 -61zM504 -294q0 96 73 139q33 20 85 20t95 -43t43 -106t-44 -104
q-42 -41 -104 -41t-106 42q-42 42 -42 93z" />
    <glyph glyph-name="sdotbelowdotaccent" unicode="&#x1e69;" horiz-adv-x="1128" 
d="M427 1419q0 60 39 100q40 40 100 40t101 -41t41 -100q0 -60 -41 -98t-101 -38t-100 38t-39 99zM96 830q0 80 37 152q68 131 254 175q83 21 181 21q206 0 327 -95t121 -259h-271q-6 60 -50 104t-129 44t-132 -36t-47 -93t39 -81q58 -39 146 -55q17 -3 62 -11t55 -9
q175 -29 269 -104t93 -223q0 -179 -133 -280q-132 -101 -362 -101t-356 96t-127 252h295q8 -60 60 -100t118 -40q208 0 207 138q0 39 -14 55q-44 49 -174 76q-70 10 -97 19q-213 38 -303 134q-69 74 -69 221zM420 -282q0 62 42 104t106 43q64 0 106 -43t42 -106t-44 -104
t-105 -41t-104 42q-43 43 -43 105z" />
    <glyph glyph-name="Tdotaccent" unicode="&#x1e6a;" horiz-adv-x="1178" 
d="M747 0h-314v1224h-418v262h1148v-262h-416v-1224zM452 1738q0 94 67 132q32 18 82 18t91 -41t41 -100t-41 -98t-101 -39t-100 39q-39 39 -39 89z" />
    <glyph glyph-name="tdotaccent" unicode="&#x1e6b;" horiz-adv-x="822" 
d="M223 1145v287h297v-287h223v-235h-223v-537q0 -81 38 -113t107 -33q70 0 82 2v-225q-54 -10 -139 -10q-214 0 -303 77q-88 77 -89 258v581h-166v235h173zM241 1676q0 50 18 82q40 71 110 70q70 -2 112 -42q41 -40 41 -90t-20 -81q-42 -67 -112 -67q-71 0 -110 39t-39 89z
" />
    <glyph glyph-name="Tdotbelow" unicode="&#x1e6c;" horiz-adv-x="1178" 
d="M747 0h-314v1224h-418v262h1148v-262h-416v-1224zM445 -294q0 51 20 85q44 74 117 74q74 0 116 -43t43 -106q0 -63 -44 -104t-105 -41t-104 42t-43 93z" />
    <glyph glyph-name="tdotbelow" unicode="&#x1e6d;" horiz-adv-x="822" 
d="M223 1145v287h297v-287h223v-235h-223v-537q0 -81 38 -113t107 -33q70 0 82 2v-225q-54 -10 -139 -10q-214 0 -303 77q-88 77 -89 258v581h-166v235h173zM341 -282q0 62 43 104q44 42 106 43q62 0 104 -43t43 -106q0 -63 -43 -104t-105 -41t-105 42q-43 43 -43 105z" />
    <glyph glyph-name="Tlinebelow" unicode="&#x1e6e;" horiz-adv-x="1178" 
d="M747 0h-314v1224h-418v262h1148v-262h-416v-1224zM914 -356h-643v158h643v-158z" />
    <glyph glyph-name="tlinebelow" unicode="&#x1e6f;" horiz-adv-x="822" 
d="M223 1145v287h297v-287h223v-235h-223v-537q0 -81 38 -113t107 -33q70 0 82 2v-225q-54 -10 -139 -10q-214 0 -303 77q-88 77 -89 258v581h-166v235h173zM810 -356h-641v158h641v-158z" />
    <glyph glyph-name="Tcircumflexbelow" unicode="&#x1e70;" horiz-adv-x="1178" 
d="M231 -435l250 312h218l240 -314h-236l-110 175h-10l-123 -173h-229zM747 0h-314v1224h-418v262h1148v-262h-416v-1224z" />
    <glyph glyph-name="tcircumflexbelow" unicode="&#x1e71;" horiz-adv-x="822" 
d="M127 -435l252 312h218l238 -314h-236l-110 175h-10l-123 -173h-229zM223 1145v287h297v-287h223v-235h-223v-537q0 -81 38 -113t107 -33q70 0 82 2v-225q-54 -10 -139 -10q-214 0 -303 77q-88 77 -89 258v581h-166v235h173z" />
    <glyph glyph-name="Udieresisbelow" unicode="&#x1e72;" horiz-adv-x="1488" 
d="M830 -335q0 59 36 95t98 36t98 -36t37 -94q0 -58 -36 -96q-35 -36 -97 -36t-99 36t-37 95zM389 -335q-1 59 37 95t89 36q92 0 130 -62q17 -29 17 -78q0 -50 -38 -86t-98 -36q-62 0 -100 36t-37 95zM452 1486v-939q0 -202 138 -273q66 -34 155 -35q133 -1 212 81t79 227
v939h317v-972q1 -246 -165 -394t-443 -149q-277 0 -442 150t-166 395v970h315z" />
    <glyph glyph-name="udieresisbelow" unicode="&#x1e73;" horiz-adv-x="1307" 
d="M739 -335q0 59 37 95q38 36 88 36q92 0 129 -62q17 -29 17 -69t-18 -69q-36 -64 -107 -63t-109 37q-37 37 -37 95zM300 -335q0 59 36 95t88 36q93 0 130 -62q16 -29 16 -78q0 -50 -37 -86t-97 -36t-99 36q-37 37 -37 95zM1170 1159v-1159h-298v173h-15q-29 -77 -114 -133
t-197 -56q-201 -1 -308 102t-107 307v766h306v-684q0 -127 59 -180t153 -53t154 60q60 62 61 177v680h306z" />
    <glyph glyph-name="Utildebelow" unicode="&#x1e74;" horiz-adv-x="1488" 
d="M452 1486v-939q0 -202 138 -273q66 -34 155 -35q133 -1 212 81t79 227v939h317v-972q1 -246 -165 -394t-443 -149q-277 0 -442 150t-166 395v970h315zM398 -375q0 98 54 172t154 74q93 0 153 -57q19 -18 33 -32t19 -17q5 -4 16 -13t42 -10q30 0 48 33t20 79h158
q1 -104 -59 -178t-154 -74q-96 0 -148 50q-18 17 -45 44t-58 27q-69 0 -73 -98h-160z" />
    <glyph glyph-name="utildebelow" unicode="&#x1e75;" horiz-adv-x="1307" 
d="M1170 1159v-1159h-298v173h-15q-29 -77 -114 -133t-197 -56q-201 -1 -308 102t-107 307v766h306v-684q0 -127 59 -180t153 -53t154 60q60 62 61 177v680h306zM774 -258q66 0 71 112h160q0 -104 -60 -178t-152 -74q-102 0 -162 61q-27 29 -33 33t-19 16q-14 11 -40 11
q-67 0 -73 -98h-158q0 98 54 172t152 74q106 0 171 -71q28 -30 47 -44t42 -14z" />
    <glyph glyph-name="Ucircumflexbelow" unicode="&#x1e76;" horiz-adv-x="1488" 
d="M385 -435l250 312h220l238 -314h-236l-110 175h-10l-123 -173h-229zM452 1486v-939q0 -202 138 -273q66 -34 155 -35q133 -1 212 81t79 227v939h317v-972q1 -246 -165 -394t-443 -149q-277 0 -442 150t-166 395v970h315z" />
    <glyph glyph-name="ucircumflexbelow" unicode="&#x1e77;" horiz-adv-x="1307" 
d="M296 -435l249 312h219l239 -314h-235l-110 175h-11l-123 -173h-228zM1170 1159v-1159h-298v173h-15q-29 -77 -114 -133t-197 -56q-201 -1 -308 102t-107 307v766h306v-684q0 -127 59 -180t153 -53t154 60q60 62 61 177v680h306z" />
    <glyph glyph-name="Utildeacute" unicode="&#x1e78;" horiz-adv-x="1488" 
d="M408 1619q0 94 53 165t151 70q89 0 148 -52q22 -20 50 -45t60 -25q31 0 48 32t19 74h158q1 -98 -59 -170t-151 -72q-97 0 -145 48q-18 18 -26 24t-14 12q-30 31 -63 31q-67 0 -73 -92h-156zM452 1486v-939q0 -202 138 -273q66 -34 155 -35q133 -1 212 81t79 227v939h317
v-972q1 -246 -165 -394t-443 -149q-277 0 -442 150t-166 395v970h315zM568 1900l294 242h316l-343 -242h-267z" />
    <glyph glyph-name="utildeacute" unicode="&#x1e79;" horiz-adv-x="1307" 
d="M524 1401q-75 0 -79 -106h-174q0 129 60 216t177 87q90 0 153 -63q24 -24 34 -33q11 -10 15 -14q32 -32 60 -31q29 0 53 28t28 95h173q0 -123 -68 -214q-68 -90 -168 -90t-170 73q-52 52 -94 52zM774 1648h-258l227 321h308zM1170 1159v-1159h-298v173h-15
q-29 -77 -114 -133t-197 -56q-201 -1 -308 102t-107 307v766h306v-684q0 -127 59 -180t153 -53t154 60q60 62 61 177v680h306z" />
    <glyph glyph-name="Umacrondieresis" unicode="&#x1e7a;" horiz-adv-x="1488" 
d="M1066 1638h-643v152h643v-152zM452 1486v-939q0 -202 138 -273q66 -34 155 -35q133 -1 212 81t79 227v939h317v-972q1 -246 -165 -394t-443 -149q-277 0 -442 150t-166 395v970h315zM816 2028q0 52 33 86t89 34t88 -33q33 -33 33 -77q-1 -44 -15 -71q-31 -58 -96 -57
t-99 33q-33 32 -33 85zM427 2028q0 52 33 86q32 34 78 34q84 0 118 -58q14 -27 14 -71t-33 -76t-89 -32t-88 32q-33 32 -33 85z" />
    <glyph glyph-name="umacrondieresis" unicode="&#x1e7b;" horiz-adv-x="1307" 
d="M741 1750q0 58 37 94q36 36 98 37q62 0 98 -36q36 -35 38 -95q0 -60 -38 -95t-98 -35t-98 36t-37 94zM302 1750q0 58 36 94t88 37q52 -1 82 -17q66 -35 64 -114q0 -58 -37 -94t-97 -36t-98 36t-38 94zM976 1334h-641v158h641v-158zM1170 1159v-1159h-298v173h-15
q-29 -77 -114 -133t-197 -56q-201 -1 -308 102t-107 307v766h306v-684q0 -127 59 -180t153 -53t154 60q60 62 61 177v680h306z" />
    <glyph glyph-name="Vtilde" unicode="&#x1e7c;" horiz-adv-x="1371" 
d="M880 0h-383l-489 1486h365l318 -1136h12l315 1136h347zM350 1619q0 94 53 165t151 70q89 0 148 -52q53 -47 67 -59q13 -11 44 -11q30 0 48 32t19 74h156q0 -98 -59 -170t-135 -72t-110 15q-42 19 -78 59q-37 41 -75 41q-67 0 -71 -92h-158z" />
    <glyph glyph-name="vtilde" unicode="&#x1e7d;" horiz-adv-x="1150" 
d="M393 0l-381 1159h333l217 -878h12l244 878h323l-404 -1159h-344zM947 1580q0 -174 -116 -260q-57 -44 -138 -44t-143 62t-103 63q-75 0 -79 -106h-174q0 129 60 216t164 87t186 -83q4 -4 14 -13l14 -14q32 -31 65 -31q70 0 75 123h175z" />
    <glyph glyph-name="Vdotbelow" unicode="&#x1e7e;" horiz-adv-x="1371" 
d="M880 0h-383l-489 1486h365l318 -1136h12l315 1136h347zM541 -294q0 51 20 85q44 74 117 74q74 0 116 -43t43 -106q0 -63 -43 -104t-105 -41t-105 42t-43 93z" />
    <glyph glyph-name="vdotbelow" unicode="&#x1e7f;" horiz-adv-x="1150" 
d="M393 0l-381 1159h333l217 -878h12l244 878h323l-404 -1159h-344zM433 -282q0 62 42 104q43 42 105 43q62 0 104 -43t42 -106t-42 -104t-105 -41q-62 0 -104 42q-42 43 -42 105z" />
    <glyph glyph-name="Wgrave" unicode="&#x1e80;" horiz-adv-x="1918" 
d="M687 0h-294l-387 1486h337l215 -1041h12l256 1041h269l256 -1041h12l213 1041h339l-389 -1486h-292l-268 1003h-11zM1113 1638h-253l-333 233h303z" />
    <glyph glyph-name="wgrave" unicode="&#x1e81;" horiz-adv-x="1723" 
d="M1705 1159l-300 -1159h-319l-216 812h-8l-213 -812h-322l-306 1159h320l163 -843h10l208 843h287l213 -843h12l165 843h306zM1043 1338h-256l-287 317h308z" />
    <glyph glyph-name="Wacute" unicode="&#x1e82;" horiz-adv-x="1918" 
d="M687 0h-294l-387 1486h337l215 -1041h12l256 1041h269l256 -1041h12l213 1041h339l-389 -1486h-292l-268 1003h-11zM783 1638l295 241h316l-345 -241h-266z" />
    <glyph glyph-name="wacute" unicode="&#x1e83;" horiz-adv-x="1723" 
d="M1705 1159l-300 -1159h-319l-216 812h-8l-213 -812h-322l-306 1159h320l163 -843h10l208 843h287l213 -843h12l165 843h306zM982 1334h-256l225 321h308z" />
    <glyph glyph-name="Wdieresis" unicode="&#x1e84;" horiz-adv-x="1918" 
d="M687 0h-294l-387 1486h337l215 -1041h12l256 1041h269l256 -1041h12l213 1041h339l-389 -1486h-292l-268 1003h-11zM1047 1722q0 54 33 86q32 32 88 32t89 -32t33 -86t-33 -86q-33 -33 -88 -33t-89 33q-33 33 -33 86zM658 1712q0 84 57 113q28 15 64 15q76 0 108 -56
q15 -27 15 -71t-34 -77q-32 -33 -88 -33t-89 33q-33 32 -33 76z" />
    <glyph glyph-name="wdieresis" unicode="&#x1e85;" horiz-adv-x="1723" 
d="M1705 1159l-300 -1159h-319l-216 812h-8l-213 -812h-322l-306 1159h320l163 -843h10l208 843h287l213 -843h12l165 843h306zM951 1411q1 59 37 95t97 36t97 -36t38 -94q0 -58 -36 -96q-36 -36 -98 -36t-98 36t-37 95zM510 1411q0 59 37 95t99 36t98 -36q38 -36 38 -94
t-36 -96q-38 -36 -100 -36t-99 36q-37 37 -37 95z" />
    <glyph glyph-name="Wdotaccent" unicode="&#x1e86;" horiz-adv-x="1918" 
d="M687 0h-294l-387 1486h337l215 -1041h12l256 1041h269l256 -1041h12l213 1041h339l-389 -1486h-292l-268 1003h-11zM1103 1747q-1 -59 -41 -98t-100 -39t-100 40q-40 38 -40 88t18 82q38 68 109 68q70 0 112 -41t42 -100z" />
    <glyph glyph-name="wdotaccent" unicode="&#x1e87;" horiz-adv-x="1723" 
d="M1705 1159l-300 -1159h-319l-216 812h-8l-213 -812h-322l-306 1159h320l163 -843h10l208 843h287l213 -843h12l165 843h306zM724 1419q0 60 40 100t100 40t101 -41t41 -100q0 -60 -42 -98q-40 -38 -100 -38t-100 38t-40 99z" />
    <glyph glyph-name="Wdotbelow" unicode="&#x1e88;" horiz-adv-x="1918" 
d="M687 0h-294l-387 1486h337l215 -1041h12l256 1041h269l256 -1041h12l213 1041h339l-389 -1486h-292l-268 1003h-11zM816 -294q0 51 20 85q44 74 116 74t116 -43t44 -106t-44 -104t-106 -41t-105 42q-41 42 -41 93z" />
    <glyph glyph-name="wdotbelow" unicode="&#x1e89;" horiz-adv-x="1723" 
d="M1705 1159l-300 -1159h-319l-216 812h-8l-213 -812h-322l-306 1159h320l163 -843h10l208 843h287l213 -843h12l165 843h306zM718 -294q0 51 20 85q44 74 117 74q75 0 117 -43t42 -106t-43 -104t-105 -41t-105 42t-43 93z" />
    <glyph glyph-name="Xdotaccent" unicode="&#x1e8a;" horiz-adv-x="1302" 
d="M514 1747q0 41 18 73q38 68 109 68q70 0 112 -41t42 -90q0 -94 -70 -129q-32 -17 -73 -17q-82 0 -120 64q-18 31 -18 72zM1324 1486l-471 -745l462 -741h-358l-306 514h-12l-306 -514h-341l455 749l-453 737h372l296 -524h12l294 524h356z" />
    <glyph glyph-name="xdotaccent" unicode="&#x1e8b;" horiz-adv-x="1190" 
d="M458 1429q0 50 39 90q40 40 100 40t101 -41t41 -100q0 -60 -41 -98t-91 -38t-81 17q-68 36 -68 130zM810 0l-215 383h-12l-217 -383h-324l356 577l-369 582h354l210 -383h13l216 383h337l-376 -574l368 -585h-341z" />
    <glyph glyph-name="Xdieresis" unicode="&#x1e8c;" horiz-adv-x="1302" 
d="M739 1722q0 54 33 86q32 32 88 32t89 -32t33 -86t-33 -86q-33 -33 -88 -33t-89 33q-33 33 -33 86zM350 1712q0 128 130 128q46 0 80 -32t33 -77t-15 -71q-33 -59 -97 -58q-65 1 -98 34q-33 32 -33 76zM1324 1486l-471 -745l462 -741h-358l-306 514h-12l-306 -514h-341
l455 749l-453 737h372l296 -524h12l294 524h356z" />
    <glyph glyph-name="xdieresis" unicode="&#x1e8d;" horiz-adv-x="1190" 
d="M683 1411q0 59 37 95q36 36 98 36t98 -36t37 -94q0 -58 -36 -96q-35 -36 -97 -36t-100 36q-37 37 -37 95zM244 1411q0 59 37 95t99 36t98 -36t36 -94t-36 -96q-36 -36 -98 -36t-99 36q-37 37 -37 95zM810 0l-215 383h-12l-217 -383h-324l356 577l-369 582h354l210 -383
h13l216 383h337l-376 -574l368 -585h-341z" />
    <glyph glyph-name="Ydotaccent" unicode="&#x1e8e;" horiz-adv-x="1265" 
d="M497 1748q0 101 93 132q22 7 45 8q60 0 101 -41q40 -41 40 -100t-40 -98t-101 -39q-60 0 -99 40q-39 38 -39 98zM791 0h-314v549l-498 937h348l306 -624h10l308 624h337l-497 -928v-558z" />
    <glyph glyph-name="ydotaccent" unicode="&#x1e8f;" horiz-adv-x="1194" 
d="M460 1420q0 60 40 99q40 40 100 40t100 -41q41 -41 41 -100q0 -60 -41 -98q-42 -38 -86 -38q-80 0 -117 39t-37 99zM218 -187q164 0 188 150l10 37l-395 1159h337l233 -901h13l239 901h325q-368 -1105 -373 -1119l-29 -80q-63 -167 -171 -268q-107 -102 -325 -102
q-108 0 -168 12v219q34 -8 116 -8z" />
    <glyph glyph-name="Zcircumflex" unicode="&#x1e90;" horiz-adv-x="1286" 
d="M252 1628l293 266h206l285 -266h-237l-145 139h-15l-150 -139h-237zM92 0v204l703 1014v12h-687v256h1068v-204l-701 -1011v-15h722v-256h-1105z" />
    <glyph glyph-name="zcircumflex" unicode="&#x1e91;" horiz-adv-x="1094" 
d="M92 0v171l541 739v14h-533v235h903v-189l-522 -720v-15h537v-235h-926zM181 1334l252 335h218l238 -335h-235l-109 192h-10l-123 -192h-231z" />
    <glyph glyph-name="Zdotbelow" unicode="&#x1e92;" horiz-adv-x="1286" 
d="M92 0v204l703 1014v12h-687v256h1068v-204l-701 -1011v-15h722v-256h-1105zM500 -282q0 62 42 104t106 43q62 0 104 -43t43 -106q0 -63 -43 -104t-105 -41t-105 42q-42 43 -42 105z" />
    <glyph glyph-name="zdotbelow" unicode="&#x1e93;" horiz-adv-x="1094" 
d="M92 0v171l541 739v14h-533v235h903v-189l-522 -720v-15h537v-235h-926zM404 -282q0 62 42 104t104 43q62 0 105 -43t43 -106t-44 -104q-42 -41 -104 -41t-105 42q-41 43 -41 105z" />
    <glyph glyph-name="Zlinebelow" unicode="&#x1e94;" horiz-adv-x="1286" 
d="M968 -356h-643v158h643v-158zM92 0v204l703 1014v12h-687v256h1068v-204l-701 -1011v-15h722v-256h-1105z" />
    <glyph glyph-name="zlinebelow" unicode="&#x1e95;" horiz-adv-x="1094" 
d="M92 0v171l541 739v14h-533v235h903v-189l-522 -720v-15h537v-235h-926zM870 -356h-641v158h641v-158z" />
    <glyph glyph-name="hlinebelow" unicode="&#x1e96;" horiz-adv-x="1315" 
d="M978 -356h-641v158h641v-158zM142 0v1565h305v-578h15q27 73 109 131t214 58q185 0 294 -118t109 -321v-737h-306v664q0 125 -58 188q-58 64 -157 64t-159 -66t-61 -188v-662h-305z" />
    <glyph glyph-name="tdieresis" unicode="&#x1e97;" horiz-adv-x="822" 
d="M466 1680q0 58 36 94t88 36q51 0 82 -16q65 -36 65 -105q1 -69 -37 -105t-100 -36t-98 37t-36 95zM27 1689q0 49 36 85q35 36 97 36t100 -36t38 -94t-38 -94t-88 -38q-52 0 -81 17q-64 36 -64 124zM223 1145v287h297v-287h223v-235h-223v-537q0 -81 38 -113t107 -33
q70 0 82 2v-225q-54 -10 -139 -10q-214 0 -303 77q-88 77 -89 258v581h-166v235h173z" />
    <glyph glyph-name="wring" unicode="&#x1e98;" horiz-adv-x="1723" 
d="M758 1517q0 -44 28 -72t72 -28t72 28q29 28 29 72t-29 73t-73 29q-43 0 -71 -29t-28 -73zM1097 1518q-1 -102 -69 -166t-169 -64t-170 65t-69 165t69 166q69 64 171 64t170 -64t67 -166zM1705 1159l-300 -1159h-319l-216 812h-8l-213 -812h-322l-306 1159h320l163 -843
h10l208 843h287l213 -843h12l165 843h306z" />
    <glyph glyph-name="yring" unicode="&#x1e99;" horiz-adv-x="1194" 
d="M493 1517q0 -44 28 -72t72 -28t73 28t29 72t-29 73t-73 29t-72 -29t-28 -73zM833 1519q0 -103 -69 -167t-170 -64q-102 0 -170 65t-68 165t69 166q69 65 170 64q159 0 219 -136q19 -43 19 -93zM218 -187q164 0 188 150l10 37l-395 1159h337l233 -901h13l239 901h325
q-368 -1105 -373 -1119l-29 -80q-63 -167 -171 -268q-107 -102 -325 -102q-108 0 -168 12v219q34 -8 116 -8z" />
    <glyph glyph-name="Adotbelow" unicode="&#x1ea0;" horiz-adv-x="1381" 
d="M547 -282q0 62 43 104q44 42 106 43q62 0 104 -43t43 -106q0 -63 -43 -104t-105 -41t-105 42q-43 43 -43 105zM691 1191h-15l-174 -590h360zM329 0h-314l491 1486h374l489 -1486h-337l-108 368h-485z" />
    <glyph glyph-name="adotbelow" unicode="&#x1ea1;" 
d="M604 -429q-62 0 -104 42t-42 93t19 85q41 74 115 74t117 -43t43 -106t-44 -104q-42 -41 -104 -41zM383 352q0 -68 52 -110q52 -40 133 -40t142 52q60 52 60 131v115h-206q-87 0 -134 -40t-47 -108zM460 -17q-171 0 -276 94t-105 255t107 254t305 93h279v112
q0 154 -177 154q-85 0 -131 -39t-52 -107h-287q4 155 114 266t345 111q492 0 492 -393v-783h-289v146h-13q-47 -94 -165 -139q-66 -24 -147 -24z" />
    <glyph glyph-name="Ahookabove" unicode="&#x1ea2;" horiz-adv-x="1381" 
d="M648 1967q150 0 211 -88q30 -44 30 -104q0 -123 -161 -195l-91 104q87 27 87 81q0 67 -102 67q-51 -1 -95 -13v127q49 21 121 21zM691 1191h-15l-174 -590h360zM329 0h-314l491 1486h374l489 -1486h-337l-108 368h-485z" />
    <glyph glyph-name="ahookabove" unicode="&#x1ea3;" 
d="M549 1384q98 55 98 106q0 83 -108 86q-54 0 -96 -15v133q49 19 143 19t161 -54t67 -148q0 -58 -27 -104t-61 -73t-93 -54zM383 352q0 -68 52 -110q52 -40 133 -40t142 52q60 52 60 131v115h-206q-87 0 -134 -40t-47 -108zM460 -17q-171 0 -276 94t-105 255t107 254
t305 93h279v112q0 154 -177 154q-85 0 -131 -39t-52 -107h-287q4 155 114 266t345 111q492 0 492 -393v-783h-289v146h-13q-47 -94 -165 -139q-66 -24 -147 -24z" />
    <glyph glyph-name="Acircumflexacute" unicode="&#x1ea4;" horiz-adv-x="1381" 
d="M924 1873l189 204h232l-296 -262zM302 1638l285 264h206l293 -264h-237l-150 139h-16l-144 -139h-237zM691 1191h-15l-174 -590h360zM329 0h-314l491 1486h374l489 -1486h-337l-108 368h-485z" />
    <glyph glyph-name="acircumflexacute" unicode="&#x1ea5;" 
d="M833 1544l189 204h231l-296 -262zM210 1309l285 264h206l294 -264h-237l-150 140h-15l-143 -140h-240zM383 352q0 -68 52 -110q52 -40 133 -40t142 52q60 52 60 131v115h-206q-87 0 -134 -40t-47 -108zM460 -17q-171 0 -276 94t-105 255t107 254t305 93h279v112
q0 154 -177 154q-85 0 -131 -39t-52 -107h-287q4 155 114 266t345 111q492 0 492 -393v-783h-289v146h-13q-47 -94 -165 -139q-66 -24 -147 -24z" />
    <glyph glyph-name="Acircumflexgrave" unicode="&#x1ea6;" horiz-adv-x="1381" 
d="M1086 1638h-237l-150 139h-16l-144 -139h-237l285 264h206zM1255 1815h-189l-279 262h229zM691 1191h-15l-174 -590h360zM329 0h-314l491 1486h374l489 -1486h-337l-108 368h-485z" />
    <glyph glyph-name="acircumflexgrave" unicode="&#x1ea7;" 
d="M995 1309h-237l-150 140h-15l-143 -140h-240l285 264h206zM1163 1488h-189l-279 260h229zM383 352q0 -68 52 -110q52 -40 133 -40t142 52q60 52 60 131v115h-206q-87 0 -134 -40t-47 -108zM460 -17q-171 0 -276 94t-105 255t107 254t305 93h279v112q0 154 -177 154
q-85 0 -131 -39t-52 -107h-287q4 155 114 266t345 111q492 0 492 -393v-783h-289v146h-13q-47 -94 -165 -139q-66 -24 -147 -24z" />
    <glyph glyph-name="Acircumflexhookabove" unicode="&#x1ea8;" horiz-adv-x="1381" 
d="M983 2160q82 0 145 -43q62 -44 63 -129q0 -112 -140 -194l-87 90q58 40 58 76q0 73 -94 71q-42 0 -73 -6v127q46 8 128 8zM302 1632l285 254h206l293 -254h-239l-148 131h-16l-144 -131h-237zM691 1191h-15l-174 -590h360zM329 0h-314l491 1486h374l489 -1486h-337
l-108 368h-485z" />
    <glyph glyph-name="acircumflexhookabove" unicode="&#x1ea9;" 
d="M930 1631q0 72 -93 72q-42 0 -73 -7v127q179 31 272 -35q62 -44 63 -129q0 -112 -140 -194l-85 90q56 40 56 76zM210 1303l285 256h206l294 -256h-237l-150 131h-15l-146 -131h-237zM383 352q0 -68 52 -110q52 -40 133 -40t142 52q60 52 60 131v115h-206q-87 0 -134 -40
t-47 -108zM460 -17q-171 0 -276 94t-105 255t107 254t305 93h279v112q0 154 -177 154q-85 0 -131 -39t-52 -107h-287q4 155 114 266t345 111q492 0 492 -393v-783h-289v146h-13q-47 -94 -165 -139q-66 -24 -147 -24z" />
    <glyph glyph-name="Acircumflextilde" unicode="&#x1eaa;" horiz-adv-x="1381" 
d="M820 2050q68 0 73 106h160q0 -100 -60 -170t-154 -69q-111 0 -159 51t-67 57t-30 6q-71 1 -75 -91h-160q0 92 55 162t155 71q84 1 150 -53q24 -20 38 -31t30 -25q15 -14 44 -14zM304 1621l285 250h206l294 -250h-238l-150 134h-14l-146 -134h-237zM691 1191h-15
l-174 -590h360zM329 0h-314l491 1486h374l489 -1486h-337l-108 368h-485z" />
    <glyph glyph-name="acircumflextilde" unicode="&#x1eab;" 
d="M728 1721q70 0 73 106h161q0 -99 -60 -169t-155 -70q-106 0 -165 59l-31 31q-28 22 -60 25q-69 0 -75 -92h-160q0 93 55 163t155 70q85 0 151 -54q24 -20 38 -30q14 -11 28 -25t45 -14zM212 1292l285 250h206l294 -250h-237l-150 134h-15l-145 -134h-238zM383 352
q0 -68 52 -110q52 -40 133 -40t142 52q60 52 60 131v115h-206q-87 0 -134 -40t-47 -108zM460 -17q-171 0 -276 94t-105 255t107 254t305 93h279v112q0 154 -177 154q-85 0 -131 -39t-52 -107h-287q4 155 114 266t345 111q492 0 492 -393v-783h-289v146h-13
q-47 -94 -165 -139q-66 -24 -147 -24z" />
    <glyph glyph-name="Acircumflexdotbelow" unicode="&#x1eac;" horiz-adv-x="1381" 
d="M302 1628l293 266h206l285 -266h-239l-144 139h-14l-150 -139h-237zM547 -282q0 62 43 104q44 42 106 43q62 0 104 -43t43 -106q0 -63 -43 -104t-105 -41t-105 42q-43 43 -43 105zM691 1191h-15l-174 -590h360zM329 0h-314l491 1486h374l489 -1486h-337l-108 368h-485z
" />
    <glyph glyph-name="acircumflexdotbelow" unicode="&#x1ead;" 
d="M604 -429q-62 0 -104 42t-42 93t19 85q41 74 115 74t117 -43t43 -106t-44 -104q-42 -41 -104 -41zM237 1334l250 335h219l239 -335h-235l-111 192h-10l-123 -192h-229zM383 352q0 -68 52 -110q52 -40 133 -40t142 52q60 52 60 131v115h-206q-87 0 -134 -40t-47 -108z
M460 -17q-171 0 -276 94t-105 255t107 254t305 93h279v112q0 154 -177 154q-85 0 -131 -39t-52 -107h-287q4 155 114 266t345 111q492 0 492 -393v-783h-289v146h-13q-47 -94 -165 -139q-66 -24 -147 -24z" />
    <glyph glyph-name="Abreveacute" unicode="&#x1eae;" horiz-adv-x="1381" 
d="M566 1900l244 250h247l-281 -250h-210zM1034 1900q0 -131 -89 -214t-252 -83q-110 -1 -189 39q-158 79 -156 258h172q2 -62 47 -101t127 -39t127 38q45 37 45 102h168zM691 1191h-15l-174 -590h360zM329 0h-314l491 1486h374l489 -1486h-337l-108 368h-485z" />
    <glyph glyph-name="abreveacute" unicode="&#x1eaf;" 
d="M475 1571l243 250h248l-279 -250h-212zM945 1571q0 -131 -91 -214t-254 -83q-164 0 -254 83t-90 214h173q2 -62 47 -101q45 -38 113 -38t108 18q79 36 77 121h171zM383 352q0 -68 52 -110q52 -40 133 -40t142 52q60 52 60 131v115h-206q-87 0 -134 -40t-47 -108zM460 -17
q-171 0 -276 94t-105 255t107 254t305 93h279v112q0 154 -177 154q-85 0 -131 -39t-52 -107h-287q4 155 114 266t345 111q492 0 492 -393v-783h-289v146h-13q-47 -94 -165 -139q-66 -24 -147 -24z" />
    <glyph glyph-name="Abrevegrave" unicode="&#x1eb0;" horiz-adv-x="1381" 
d="M828 1900h-210l-293 250h260zM1032 1900q0 -131 -88 -214t-252 -83t-255 83q-92 83 -92 214h175q0 -86 77 -122q41 -18 109 -18t113 40q45 38 47 100h166zM691 1191h-15l-174 -590h360zM329 0h-314l491 1486h374l489 -1486h-337l-108 368h-485z" />
    <glyph glyph-name="abrevegrave" unicode="&#x1eb1;" 
d="M737 1571h-210l-294 250h260zM941 1571q-1 -131 -89 -214t-252 -83t-255 83q-92 83 -91 214h175q0 -61 43 -100t127 -39q83 0 128 38t47 101h167zM383 352q0 -68 52 -110q52 -40 133 -40t142 52q60 52 60 131v115h-206q-87 0 -134 -40t-47 -108zM460 -17q-171 0 -276 94
t-105 255t107 254t305 93h279v112q0 154 -177 154q-85 0 -131 -39t-52 -107h-287q4 155 114 266t345 111q492 0 492 -393v-783h-289v146h-13q-47 -94 -165 -139q-66 -24 -147 -24z" />
    <glyph glyph-name="Abrevehookabove" unicode="&#x1eb2;" horiz-adv-x="1381" 
d="M662 1987q0 59 -103 59q-32 0 -70 -8v124q45 19 133 19t151 -46q63 -47 63 -117t-45 -120q-46 -50 -98 -66l-94 93q23 8 43 25t20 37zM1032 1871q0 -167 -153 -237q-77 -36 -171 -36q-263 -1 -336 164q-24 51 -24 111h172q0 -52 46 -89q46 -38 127 -38t127 36t46 89h166z
M691 1191h-15l-174 -590h360zM329 0h-314l491 1486h374l489 -1486h-337l-108 368h-485z" />
    <glyph glyph-name="abrevehookabove" unicode="&#x1eb3;" 
d="M570 1661q0 56 -103 56q-32 0 -69 -8v125q46 18 133 18t151 -45q63 -46 63 -127q0 -40 -23 -78q-46 -76 -121 -99l-93 93q62 25 62 65zM941 1542q0 -166 -153 -237q-78 -35 -187 -35q-161 0 -253 75t-92 199h173q0 -52 46 -89q47 -37 127 -37t126 36t46 88h167zM383 352
q0 -68 52 -110q52 -40 133 -40t142 52q60 52 60 131v115h-206q-87 0 -134 -40t-47 -108zM460 -17q-171 0 -276 94t-105 255t107 254t305 93h279v112q0 154 -177 154q-85 0 -131 -39t-52 -107h-287q4 155 114 266t345 111q492 0 492 -393v-783h-289v146h-13
q-47 -94 -165 -139q-66 -24 -147 -24z" />
    <glyph glyph-name="Abrevetilde" unicode="&#x1eb4;" horiz-adv-x="1381" 
d="M345 1929q-1 94 57 165t154 71q99 0 164 -65q27 -27 31 -30q4 -2 19 -14q15 -11 46 -12q31 0 49 31t20 75h160q0 -144 -103 -211q-48 -33 -110 -33t-96 15t-50 31q-18 16 -25 23l-11 11t-12 11q-24 24 -57 24q-67 0 -73 -92h-163zM1034 1852q0 -120 -94 -192t-247 -72
q-212 0 -302 125q-44 60 -43 139h172q0 -56 48 -89t112 -33q120 0 163 58q23 29 23 64h168zM691 1191h-15l-174 -590h360zM329 0h-314l491 1486h374l489 -1486h-337l-108 368h-485z" />
    <glyph glyph-name="abrevetilde" unicode="&#x1eb5;" 
d="M254 1601q0 95 57 165t153 70q91 0 148 -50q21 -18 32 -30q11 -11 30 -26t50 -15t49 31t20 75h160q0 -144 -103 -211q-49 -32 -112 -32q-80 0 -113 24t-39 30t-18 16q-10 10 -13 14q-26 30 -66 30q-67 0 -73 -91h-162zM945 1524q0 -119 -96 -192t-249 -73q-152 0 -248 73
t-96 192h173q0 -34 22 -64q45 -61 151 -60q105 1 149 59q23 29 23 65h171zM383 352q0 -68 52 -110q52 -40 133 -40t142 52q60 52 60 131v115h-206q-87 0 -134 -40t-47 -108zM460 -17q-171 0 -276 94t-105 255t107 254t305 93h279v112q0 154 -177 154q-85 0 -131 -39
t-52 -107h-287q4 155 114 266t345 111q492 0 492 -393v-783h-289v146h-13q-47 -94 -165 -139q-66 -24 -147 -24z" />
    <glyph glyph-name="Abrevedotbelow" unicode="&#x1eb6;" horiz-adv-x="1381" 
d="M325 1923h179q0 -69 50 -111t124 -41q74 0 117 20q89 40 87 132h175q0 -190 -162 -274q-83 -43 -202 -43t-204 42q-164 80 -164 275zM547 -282q0 62 43 104q44 42 106 43q62 0 104 -43t43 -106q0 -63 -43 -104t-105 -41t-105 42q-43 43 -43 105zM691 1191h-15l-174 -590
h360zM329 0h-314l491 1486h374l489 -1486h-337l-108 368h-485z" />
    <glyph glyph-name="abrevedotbelow" unicode="&#x1eb7;" 
d="M418 1613q0 -75 44 -127t129 -52t130 52t45 127h173q0 -141 -92 -241t-256 -100t-258 100t-92 241h177zM604 -429q-62 0 -104 42t-42 93t19 85q41 74 115 74t117 -43t43 -106t-44 -104q-42 -41 -104 -41zM383 352q0 -68 52 -110q52 -40 133 -40t142 52q60 52 60 131v115
h-206q-87 0 -134 -40t-47 -108zM460 -17q-171 0 -276 94t-105 255t107 254t305 93h279v112q0 154 -177 154q-85 0 -131 -39t-52 -107h-287q4 155 114 266t345 111q492 0 492 -393v-783h-289v146h-13q-47 -94 -165 -139q-66 -24 -147 -24z" />
    <glyph glyph-name="Edotbelow" unicode="&#x1eb8;" horiz-adv-x="1232" 
d="M1124 254v-254h-970v1486h970v-254h-658v-362h618v-237h-618v-379h658zM485 -294q0 51 20 85q44 74 116 74q73 0 117 -43t42 -106q0 -63 -44 -104t-105 -41q-62 0 -104 42t-42 93z" />
    <glyph glyph-name="edotbelow" unicode="&#x1eb9;" 
d="M385 701h443v2q0 111 -59 181t-161 70t-163 -70q-60 -70 -60 -181v-2zM85 622q0 173 65 300q64 128 182 192t274 64q244 0 380 -150t136 -404v-110h-737v-37q0 -113 62 -189t162 -76t155 41q54 41 62 103h287q-12 -131 -128 -254t-387 -123q-146 0 -266 65
q-245 132 -247 489v89zM458 -282q0 62 43 104t105 43q62 0 106 -43q42 -43 42 -106t-44 -104q-42 -41 -104 -41t-105 42q-43 43 -43 105z" />
    <glyph glyph-name="Ehookabove" unicode="&#x1eba;" horiz-adv-x="1232" 
d="M602 1967q92 0 157 -51q66 -51 65 -141q0 -123 -160 -195l-92 104q89 27 90 81q0 67 -104 67q-52 -1 -96 -13v127q48 21 140 21zM1124 254v-254h-970v1486h970v-254h-658v-362h618v-237h-618v-379h658z" />
    <glyph glyph-name="ehookabove" unicode="&#x1ebb;" 
d="M588 1713q94 0 160 -54t66 -148q0 -58 -26 -104t-62 -73t-91 -54l-86 104q54 29 76 54t22 58q0 32 -28 56t-81 24t-93 -15v133q49 19 143 19zM385 701h443v2q0 111 -59 181t-161 70t-163 -70q-60 -70 -60 -181v-2zM85 622q0 173 65 300q64 128 182 192t274 64
q244 0 380 -150t136 -404v-110h-737v-37q0 -113 62 -189t162 -76t155 41q54 41 62 103h287q-12 -131 -128 -254t-387 -123q-146 0 -266 65q-245 132 -247 489v89z" />
    <glyph glyph-name="Etilde" unicode="&#x1ebc;" horiz-adv-x="1232" 
d="M978 1838q0 -98 -58 -170t-150 -72q-96 0 -146 48q-18 18 -26 24t-14 12t-14 12t-17 12t-31 7q-69 0 -72 -92h-157q-1 94 53 165t151 70q88 0 147 -52q22 -20 50 -45t57 -25q63 0 71 106h156zM1124 254v-254h-970v1486h970v-254h-658v-362h618v-237h-618v-379h658z" />
    <glyph glyph-name="etilde" unicode="&#x1ebd;" 
d="M722 1457q72 0 77 123h173q0 -173 -115 -260q-56 -44 -137 -44q-82 0 -144 62t-101 63q-77 0 -82 -106h-172q0 129 59 216t176 87q92 0 155 -63l33 -33q8 -10 14 -14t21 -18q16 -14 43 -13zM385 701h443v2q0 111 -59 181t-161 70t-163 -70q-60 -70 -60 -181v-2zM85 622
q0 173 65 300q64 128 182 192t274 64q244 0 380 -150t136 -404v-110h-737v-37q0 -113 62 -189t162 -76t155 41q54 41 62 103h287q-12 -131 -128 -254t-387 -123q-146 0 -266 65q-245 132 -247 489v89z" />
    <glyph glyph-name="Ecircumflexacute" unicode="&#x1ebe;" horiz-adv-x="1232" 
d="M1124 254v-254h-970v1486h970v-254h-658v-362h618v-237h-618v-379h658zM860 1873l189 204h231l-296 -262zM237 1638l285 264h206l294 -264h-237l-150 139h-15l-143 -139h-240z" />
    <glyph glyph-name="ecircumflexacute" unicode="&#x1ebf;" 
d="M385 701h443v2q0 111 -59 181t-161 70t-163 -70q-60 -70 -60 -181v-2zM85 622q0 173 65 300q64 128 182 192t274 64q244 0 380 -150t136 -404v-110h-737v-37q0 -113 62 -189t162 -76t155 41q54 41 62 103h287q-12 -131 -128 -254t-387 -123q-146 0 -266 65
q-245 132 -247 489v89zM833 1544l189 204h233l-298 -262zM210 1309l287 264h206l294 -264h-237l-150 140h-17l-143 -140h-240z" />
    <glyph glyph-name="Ecircumflexgrave" unicode="&#x1ec0;" horiz-adv-x="1232" 
d="M1124 254v-254h-970v1486h970v-254h-658v-362h618v-237h-618v-379h658zM1022 1638h-237l-150 139h-15l-143 -139h-240l285 264h206zM1191 1815h-190l-279 262h229z" />
    <glyph glyph-name="ecircumflexgrave" unicode="&#x1ec1;" 
d="M385 701h443v2q0 111 -59 181t-161 70t-163 -70q-60 -70 -60 -181v-2zM85 622q0 173 65 300q64 128 182 192t274 64q244 0 380 -150t136 -404v-110h-737v-37q0 -113 62 -189t162 -76t155 41q54 41 62 103h287q-12 -131 -128 -254t-387 -123q-146 0 -266 65
q-245 132 -247 489v89zM997 1309h-237l-150 140h-17l-143 -140h-240l287 264h206zM1166 1488h-192l-277 260h227z" />
    <glyph glyph-name="Ecircumflexhookabove" unicode="&#x1ec2;" horiz-adv-x="1232" 
d="M1124 254v-254h-970v1486h970v-254h-658v-362h618v-237h-618v-379h658zM892 2160q166 0 217 -96q17 -32 17 -76q0 -112 -139 -194l-86 90q56 40 56 76q0 73 -93 71q-42 0 -73 -6v127q46 8 101 8zM237 1632l285 254h206l294 -254h-237l-150 131h-15l-145 -131h-238z" />
    <glyph glyph-name="ecircumflexhookabove" unicode="&#x1ec3;" 
d="M385 701h443v2q0 111 -59 181t-161 70t-163 -70q-60 -70 -60 -181v-2zM85 622q0 173 65 300q64 128 182 192t274 64q244 0 380 -150t136 -404v-110h-737v-37q0 -113 62 -189t162 -76t155 41q54 41 62 103h287q-12 -131 -128 -254t-387 -123q-146 0 -266 65
q-245 132 -247 489v89zM932 1631q0 72 -93 72q-44 0 -75 -7v127q179 31 272 -35q62 -44 63 -129q0 -112 -137 -194l-88 90q58 40 58 76zM210 1303l287 256h204l294 -256h-237l-150 131h-15l-143 -131h-240z" />
    <glyph glyph-name="Ecircumflextilde" unicode="&#x1ec4;" horiz-adv-x="1232" 
d="M758 2050q68 0 70 106h161q-1 -100 -61 -170t-154 -69q-106 0 -158 52t-68 57q-17 5 -30 5q-69 1 -75 -91h-158q0 92 54 162t140 71q85 0 121 -23q34 -22 52 -36l24 -21t14 -11t12 -11q25 -21 56 -21zM239 1621l285 250h207l293 -250h-237l-150 134h-15l-145 -134h-238z
M1124 254v-254h-970v1486h970v-254h-658v-362h618v-237h-618v-379h658z" />
    <glyph glyph-name="ecircumflextilde" unicode="&#x1ec5;" 
d="M258 1611q0 93 55 163t153 70q88 0 164 -63q34 -29 38 -33t22 -16q18 -11 42 -11t45 23t26 83h161q0 -99 -60 -169t-157 -70q-99 0 -163 59q-28 27 -32 31q-17 22 -61 25q-69 0 -73 -92h-160zM214 1292l286 250h203l294 -250h-237l-150 134h-15l-143 -134h-238zM385 701
h443v2q0 111 -59 181t-161 70t-163 -70q-60 -70 -60 -181v-2zM85 622q0 173 65 300q64 128 182 192t274 64q244 0 380 -150t136 -404v-110h-737v-37q0 -113 62 -189t162 -76t155 41q54 41 62 103h287q-12 -131 -128 -254t-387 -123q-146 0 -266 65q-245 132 -247 489v89z
" />
    <glyph glyph-name="Ecircumflexdotbelow" unicode="&#x1ec6;" horiz-adv-x="1232" 
d="M1124 254v-254h-970v1486h970v-254h-658v-362h618v-237h-618v-379h658zM237 1628l294 266h206l285 -266h-237l-146 139h-15l-149 -139h-238zM485 -294q0 51 20 85q44 74 116 74q73 0 117 -43t42 -106q0 -63 -44 -104t-105 -41q-62 0 -104 42t-42 93z" />
    <glyph glyph-name="ecircumflexdotbelow" unicode="&#x1ec7;" 
d="M458 -282q0 62 43 104t105 43q62 0 106 -43q42 -43 42 -106t-44 -104q-42 -41 -104 -41t-105 42q-43 43 -43 105zM385 701h443v2q0 111 -59 181t-161 70t-163 -70q-60 -70 -60 -181v-2zM85 622q0 173 65 300q64 128 182 192t274 64q244 0 380 -150t136 -404v-110h-737
v-37q0 -113 62 -189t162 -76t155 41q54 41 62 103h287q-12 -131 -128 -254t-387 -123q-146 0 -266 65q-245 132 -247 489v89zM237 1334l250 335h219l239 -335h-235l-111 192h-8l-125 -192h-229z" />
    <glyph glyph-name="Ihookabove" unicode="&#x1ec8;" horiz-adv-x="622" 
d="M285 1967q91 0 157 -51t66 -141q0 -123 -160 -195l-92 104q87 27 87 81q0 67 -102 67q-51 -1 -95 -13v127q48 21 139 21zM468 0h-314v1486h314v-1486z" />
    <glyph glyph-name="ihookabove" unicode="&#x1ec9;" horiz-adv-x="620" 
d="M300 1713q94 0 162 -54q67 -54 67 -148q0 -58 -27 -104q-26 -46 -62 -73t-92 -54l-84 104q52 29 75 54t23 58q0 32 -29 56t-81 24t-94 -15v133q48 19 142 19zM160 0v1159h315v-1159h-315z" />
    <glyph glyph-name="Idotbelow" unicode="&#x1eca;" horiz-adv-x="622" 
d="M167 -282q1 62 43 104t104 43q62 0 106 -43q42 -43 42 -106t-43 -104t-105 -41t-105 42q-42 43 -42 105zM468 0h-314v1486h314v-1486z" />
    <glyph glyph-name="idotbelow" unicode="&#x1ecb;" horiz-adv-x="620" 
d="M167 -282q1 62 43 104t104 43q62 0 106 -43q42 -43 42 -106t-43 -104t-105 -41t-105 42q-42 43 -42 105zM133 1450q0 66 49 108t128 43q79 0 128 -42q49 -41 49 -109t-48 -110t-129 -42t-129 44q-48 42 -48 108zM158 0v1159h306v-1159h-306z" />
    <glyph glyph-name="Odotbelow" unicode="&#x1ecc;" horiz-adv-x="1475" 
d="M94 645v185q0 318 171 502q172 183 474 183q301 0 473 -184t172 -501v-185q0 -314 -172 -494t-475 -180q-200 0 -346 81t-221 233q-76 152 -76 360zM414 835v-190q0 -202 88 -307t237 -105q148 0 236 105t89 307v190q0 135 -43 231q-85 189 -282 189q-149 0 -237 -109
t-88 -311zM595 -294q0 51 19 85q41 74 116 74q74 0 116 -43t43 -106q0 -63 -43 -104t-105 -41t-104 42t-42 93z" />
    <glyph glyph-name="odotbelow" unicode="&#x1ecd;" horiz-adv-x="1240" 
d="M847 616q0 329 -225 329t-229 -329v-73q0 -247 137 -310q41 -19 92 -19q225 0 225 329v73zM622 1178q258 0 396 -152t139 -406v-75q0 -266 -137 -416q-138 -150 -398 -150t-398 149t-139 415v77q-1 250 139 404t398 154zM477 -294q0 95 72 139q33 20 85 20t96 -43
q42 -43 42 -106t-43 -104t-105 -41t-105 42q-42 42 -42 93z" />
    </font>
</defs>
</svg>
