<?xml version="1.0" standalone="no"?>
<!DOCTYPE svg PUBLIC "-//W3C//DTD SVG 1.1//EN" "http://www.w3.org/Graphics/SVG/1.1/DTD/svg11.dtd" >
<svg xmlns="http://www.w3.org/2000/svg">
<metadata>
Created by FontPrep 20130207 at Wed Nov 19 14:09:58 2014
 By Joshua Ellington
(c) 2014 Apple Inc. All rights reserved.
</metadata>
<defs>
<font id="50873b88e3c5cd80262f7378225fbd5f" horiz-adv-x='1024' >
  <font-face 
    font-family=".HelveticaNeueDeskInterface-Regular"
    font-weight="400"
    font-stretch="normal"
    units-per-em="2048"
    panose-1="0 0 0 0 0 0 0 0 0 0"
    ascent="1638"
    descent="-410"
    x-height="1141"
    cap-height="1486"
    bbox="-529 -531 2231 2171"
    underline-thickness="104"
    underline-position="-52"
    unicode-range="U+0020-FB02"
  />
<missing-glyph horiz-adv-x="1406" 
d="M554 968q0 87 64 124q31 18 81 18q49 0 85 -33q36 -32 36 -81t-22 -78t-94 -80t-102 -111q-31 -60 -21 -148h181v16q0 52 21 82q21 29 97 85t111 110q33 54 33 127q0 123 -88 198t-240 75t-242 -84t-86 -220h186zM545 341q1 -52 37 -84t95 -32t96 32q36 32 37 84
q0 53 -36 85t-96 32t-96 -32t-37 -85zM131 0v1488h1147v-1488h-1147z" />
    <glyph glyph-name=".notdef" horiz-adv-x="1406" 
d="M554 968q0 87 64 124q31 18 81 18q49 0 85 -33q36 -32 36 -81t-22 -78t-94 -80t-102 -111q-31 -60 -21 -148h181v16q0 52 21 82q21 29 97 85t111 110q33 54 33 127q0 123 -88 198t-240 75t-242 -84t-86 -220h186zM545 341q1 -52 37 -84t95 -32t96 32q36 32 37 84
q0 53 -36 85t-96 32t-96 -32t-37 -85zM131 0v1488h1147v-1488h-1147z" />
    <glyph glyph-name=".null" horiz-adv-x="0" 
 />
    <glyph glyph-name="nonmarkingreturn" horiz-adv-x="0" 
 />
    <glyph glyph-name="space" unicode=" " horiz-adv-x="447" 
 />
    <glyph glyph-name="exclam" unicode="!" horiz-adv-x="551" 
d="M187 1486h181l-18 -1049h-142zM162 96q0 48 32 81t82 33q49 0 81 -32t32 -82t-32 -82t-80 -32q-47 0 -81 32q-34 34 -34 82z" />
    <glyph glyph-name="quotedbl" unicode="&#x22;" horiz-adv-x="815" 
d="M512 1486h181l-25 -522h-129zM123 1486h181l-27 -522h-127z" />
    <glyph glyph-name="numbersign" unicode="#" horiz-adv-x="1290" 
d="M531 935l-77 -371h333l77 371h-333zM1238 935h-243l-77 -371h229l-25 -133h-231l-88 -431h-131l88 431h-331l-90 -431h-131l88 431h-229l29 133h229l75 371h-217l27 131h217l85 422h133l-85 -422h331l85 422h131l-87 -422h245z" />
    <glyph glyph-name="dollar" unicode="$" horiz-adv-x="1165" 
d="M651 -144h-131v140q-220 17 -338 131t-120 275h159q6 -106 83 -177t216 -88v569l-83 22q-337 94 -337 375q0 177 116 280q117 103 304 120v143h131v-141q254 -21 366 -194q57 -87 61 -200h-156q-2 100 -75 169t-196 81v-533l82 -20q185 -50 277 -142t93 -266
q0 -174 -125 -281q-125 -106 -327 -121v-142zM947 393q0 105 -58 166t-202 105q-10 2 -36 8v-537q135 12 216 82q80 71 80 176zM254 1116q0 -156 200 -231q40 -15 66 -21v497q-122 -11 -194 -75t-72 -170z" />
    <glyph glyph-name="percent" unicode="%" horiz-adv-x="1527" 
d="M271 0h-148l1132 1486h146zM907 356v29q-1 154 79 258t215 104t215 -104t80 -260v-29q0 -218 -137 -315q-69 -49 -160 -49q-135 0 -214 104q-78 104 -78 262zM1030 377v-11q0 -159 77 -228q40 -34 93 -34q109 0 153 125q21 58 21 133v13q0 114 -46 186t-127 72t-126 -72
t-45 -184zM33 1111v30q0 154 80 257q81 103 215 103t214 -103t80 -262v-29q0 -154 -80 -258t-215 -104t-215 104q-79 104 -79 262zM156 1132v-10q0 -119 46 -191t127 -71q51 0 91 33q80 66 80 225v10q0 118 -45 188t-127 70t-127 -72t-45 -182z" />
    <glyph glyph-name="ampersand" unicode="&#x26;" horiz-adv-x="1402" 
d="M640 1369q-145 0 -200 -98q-26 -47 -26 -107t36 -120t129 -155q131 65 193 127t62 152t-58 145q-60 56 -136 56zM254 400q0 -138 100 -214t220 -76q254 0 390 148l-431 473q-25 -15 -54 -30q-109 -60 -167 -131t-58 -170zM583 -29q-208 0 -350 113t-141 305
q0 254 295 410q4 5 26 15t30 14q-60 65 -94 110q-93 123 -93 225t46 176t131 117t189 43q160 0 264 -93t105 -236q0 -85 -45 -156q-46 -71 -110 -119t-168 -102l383 -414q73 137 75 422v44h154v-44q-2 -345 -123 -533l254 -268h-208l-144 154q-198 -183 -476 -183z" />
    <glyph glyph-name="quotesingle" unicode="'" horiz-adv-x="426" 
d="M123 1486h181l-27 -522h-127z" />
    <glyph glyph-name="parenleft" unicode="(" horiz-adv-x="653" 
d="M308 636q0 -460 192 -811q23 -42 64 -110h-137q-101 120 -189 339t-88 562q0 468 206 761q33 47 79 107h131q-79 -87 -160 -288q-44 -107 -71 -258t-27 -302z" />
    <glyph glyph-name="parenright" unicode=")" horiz-adv-x="653" 
d="M506 616q0 -552 -279 -901h-135q124 217 153 310q74 230 86 355q12 126 12 266q0 411 -178 726q-39 68 -76 112h127q213 -265 265 -557q25 -140 25 -311z" />
    <glyph glyph-name="asterisk" unicode="*" horiz-adv-x="809" 
d="M460 826h-106l10 271l-233 -144l-52 94l239 125l-239 127l52 95l233 -149l-10 274h106l-13 -274l234 149l52 -95l-242 -127l242 -125l-52 -94l-234 144z" />
    <glyph glyph-name="plus" unicode="+" horiz-adv-x="1165" 
d="M647 524v-495h-129v495h-451v134h451v468h129v-468h454v-134h-454z" />
    <glyph glyph-name="comma" unicode="," horiz-adv-x="453" 
d="M152 -250h-115l123 425h177z" />
    <glyph glyph-name="hyphen" unicode="-" horiz-adv-x="851" 
d="M770 539h-687v144h687v-144z" />
    <glyph glyph-name="period" unicode="." horiz-adv-x="507" 
d="M146 90q0 46 32 78t78 32t78 -31t32 -79t-32 -79q-32 -32 -78 -32t-78 32t-32 79z" />
    <glyph glyph-name="slash" unicode="/" horiz-adv-x="745" 
d="M169 -337h-142l550 1902h141z" />
    <glyph glyph-name="zero" unicode="0" horiz-adv-x="1242" 
d="M110 683v118q0 449 234 630q116 88 278 88q244 0 377 -191t133 -527v-118q0 -335 -133 -525t-378 -189t-378 191t-133 523zM273 799v-114q1 -273 93 -423t256 -150t257 150t93 423v114q0 365 -163 509q-78 68 -187 68q-164 0 -256 -152t-93 -425z" />
    <glyph glyph-name="one" unicode="1" horiz-adv-x="865" 
d="M639 0h-160v1303h-2q-35 -21 -144 -86t-210 -135v179q173 123 368 225h148v-1486z" />
    <glyph glyph-name="two" unicode="2" horiz-adv-x="1196" 
d="M291 1086h-158v7q0 175 123 301t351 125q228 0 357 -162q79 -99 79 -241t-104 -290q-44 -60 -64 -83t-80 -96l-427 -499v-2h704v-146h-930v104l561 656q55 64 85 104t59 108t29 133q0 123 -80 197t-212 74t-212 -84t-81 -199v-7z" />
    <glyph glyph-name="three" unicode="3" horiz-adv-x="1217" 
d="M437 693v146h142q135 0 219 78q84 77 83 195t-80 191t-214 73t-206 -77t-79 -177h-156q0 143 110 266q52 58 139 94t194 37q204 0 329 -108t129 -263t-84 -256t-191 -118v-2q88 -9 152 -51q65 -42 99 -82q78 -92 82 -229q1 -191 -145 -317t-373 -126q-227 1 -350 117
t-131 295h156q15 -119 97 -194t238 -75t250 84t92 214q-2 131 -96 208t-254 77h-152z" />
    <glyph glyph-name="four" unicode="4" horiz-adv-x="1250" 
d="M271 466h553v874h-2q-343 -512 -551 -872v-2zM980 1486v-1020h200v-145h-200v-321h-156v321h-722v141q128 234 641 1024h237z" />
    <glyph glyph-name="five" unicode="5" horiz-adv-x="1280" 
d="M991 474q0 164 -99 264q-100 99 -238 99q-138 1 -223 -59t-123 -145h-137l83 855h793v-146h-654l-56 -497h2q32 44 95 75q252 122 478 -4q112 -62 179 -176t66 -261q0 -223 -150 -367q-149 -144 -371 -144t-348 117q-126 116 -136 283h158q20 -162 170 -226
q72 -31 163 -32q135 0 242 100q106 100 106 264z" />
    <glyph glyph-name="six" unicode="6" horiz-adv-x="1219" 
d="M287 465q0 -163 100 -258t244 -95q145 0 243 92t98 260t-101 262q-101 92 -243 92t-241 -95q-100 -95 -100 -258zM639 964q131 0 240 -56t181 -169q72 -114 72 -264q0 -231 -142 -369q-143 -137 -373 -137q-231 0 -373 177t-142 530q0 412 152 624t402 213
q184 0 304 -111t135 -257h-165q-9 78 -82 152q-73 75 -217 75q-143 0 -252 -155t-119 -484h2q34 95 140 163t237 68z" />
    <glyph glyph-name="seven" unicode="7" horiz-adv-x="1165" 
d="M110 1486h924v-152l-611 -1334h-173l628 1338v2h-768v146z" />
    <glyph glyph-name="eight" unicode="8" horiz-adv-x="1263" 
d="M1147 406q-1 -194 -147 -316t-370 -121t-368 121t-143 314q0 169 101 263t200 116v2q-92 29 -168 116t-75 221q0 173 130 285t327 112t327 -112t130 -294t-167 -289q-40 -25 -79 -39v-2q101 -20 197 -112q47 -45 76 -115t29 -150zM634 847q130 0 214 75q84 76 84 192
t-83 189t-214 73t-215 -73t-85 -190q1 -117 85 -191t214 -75zM989 409q0 132 -100 215q-100 84 -255 84t-256 -84t-101 -218q0 -133 103 -215q103 -83 255 -83t253 84t101 217z" />
    <glyph glyph-name="nine" unicode="9" horiz-adv-x="1219" 
d="M602 664q142 0 244 98q103 98 103 230q0 134 -47 218q-92 164 -294 164q-135 0 -237 -90q-103 -90 -104 -264q-1 -172 96 -264t239 -92zM591 114q181 0 280 167t101 470h-6q-38 -97 -140 -163t-269 -66t-307 125q-67 60 -106 156q-40 96 -40 213q0 225 146 363t347 138
q533 0 533 -741q0 -385 -145 -595t-402 -210q-219 0 -338 122q-118 122 -126 267h164q11 -94 91 -170t217 -76z" />
    <glyph glyph-name="colon" unicode=":" horiz-adv-x="551" 
d="M162 93q0 47 32 78t79 31q46 0 78 -31t32 -78t-32 -78t-78 -31q-47 0 -79 30q-32 32 -32 79zM162 892q0 38 32 70q32 31 70 31q73 0 104 -52q15 -25 15 -65t-32 -70q-33 -32 -71 -32t-64 15q-54 32 -54 103z" />
    <glyph glyph-name="semicolon" unicode=";" horiz-adv-x="553" 
d="M177 -246h-115l121 421h177zM160 884q0 47 32 78t78 31t78 -31t33 -78q0 -46 -32 -78q-33 -32 -79 -32t-78 32t-32 78z" />
    <glyph glyph-name="less" unicode="&#x3c;" horiz-adv-x="1165" 
d="M127 483v139l909 566v-174l-747 -448v-12l747 -421v-173z" />
    <glyph glyph-name="equal" unicode="=" horiz-adv-x="1165" 
d="M1030 722h-895v131h895v-131zM1030 333h-895v131h895v-131z" />
    <glyph glyph-name="greater" unicode="&#x3e;" horiz-adv-x="1165" 
d="M1041 622v-139l-910 -523v173l747 421v12l-747 448v174z" />
    <glyph glyph-name="question" unicode="?" horiz-adv-x="1015" 
d="M75 1107q-1 111 39 195q69 146 244 198q74 22 172 22t193 -40q95 -38 156 -122t62 -203q1 -70 -13 -107q-14 -36 -24 -59q-34 -74 -134 -156q-17 -15 -39 -34q-103 -83 -137 -132t-34 -136v-73h-160v102q0 102 53 173t151 150t135 131t37 133q0 117 -77 175t-201 58
t-196 -78q-71 -78 -73 -197h-154zM370 96q0 48 32 81t82 33q49 0 82 -32t33 -82t-33 -82t-81 -32q-47 0 -81 32q-34 34 -34 82z" />
    <glyph glyph-name="at" unicode="@" horiz-adv-x="1806" 
d="M718 522q0 -125 50 -185t135 -60t136 57q50 57 50 178v94q0 160 -112 213q-34 16 -76 16q-81 1 -132 -61t-51 -179v-73zM1351 150q-108 0 -172 46q-63 46 -74 108h-10q-18 -78 -121 -128q-54 -26 -117 -26q-133 0 -207 97t-73 259v95q0 158 75 254q76 96 216 96
q85 0 141 -44t73 -95h7v125h137v-529q0 -69 40 -104q40 -36 94 -36q157 -1 208 210q18 74 18 169v40q0 249 -168 425q-80 84 -206 134t-277 51h-9q-298 0 -492 -195t-193 -521v-50q1 -171 55 -305q102 -252 363 -348q122 -45 263 -45h8q225 0 356 57v-127q-114 -52 -356 -52
h-8q-347 0 -579 203q-112 99 -175 256t-64 354v63q0 250 107 441q107 190 293 292t422 102h9q185 0 336 -62t247 -163q200 -212 201 -506v-56q0 -221 -104 -353t-264 -132z" />
    <glyph glyph-name="A" unicode="A" horiz-adv-x="1288" 
d="M643 1286h-4l-237 -689h476zM198 0h-167l533 1486h160l533 -1486h-175l-158 462h-568z" />
    <glyph glyph-name="B" unicode="B" horiz-adv-x="1323" 
d="M348 691v-543h281q320 0 396 130q30 53 30 132q0 139 -89 210t-240 71h-378zM348 1338v-499h249q185 0 279 60q94 59 94 189t-74 190t-195 60h-353zM185 0v1486h539q188 0 300 -98t112 -266q0 -133 -65 -217q-66 -83 -174 -114v-8q154 -21 239 -119t86 -250
q0 -198 -140 -306t-376 -108h-521z" />
    <glyph glyph-name="C" unicode="C" horiz-adv-x="1352" 
d="M287 843v-206q1 -260 111 -390t296 -130q186 1 286 93q98 92 98 225h162q0 -166 -129 -309q-62 -70 -170 -114t-242 -43q-268 0 -420 173t-152 493v208q0 323 154 499t412 177q258 0 412 -160q86 -90 119 -216q15 -58 14 -117h-160q0 129 -96 233q-46 50 -120 81t-161 32
q-191 0 -303 -136t-111 -393z" />
    <glyph glyph-name="D" unicode="D" horiz-adv-x="1400" 
d="M348 1338v-1190h289q491 0 491 595t-491 595h-289zM643 1486q648 0 652 -743q0 -331 -148 -537t-504 -206h-458v1486h458z" />
    <glyph glyph-name="E" unicode="E" horiz-adv-x="1186" 
d="M1061 148v-148h-876v1486h876v-148h-713v-505h676v-146h-676v-539h713z" />
    <glyph glyph-name="F" unicode="F" horiz-adv-x="1111" 
d="M348 0h-163v1486h864v-148h-701v-533h643v-147h-643v-658z" />
    <glyph glyph-name="G" unicode="G" horiz-adv-x="1379" 
d="M287 853v-212q0 -248 107 -386q106 -138 294 -138t299 94q110 95 110 247v158h-404v148h562v-306q0 -134 -83 -267t-254 -190q-96 -32 -212 -32q-283 0 -431 179t-148 493v212q0 312 159 489q158 177 414 177t396 -137t153 -335h-160q-19 156 -123 240q-104 85 -272 85
t-288 -130q-119 -130 -119 -389z" />
    <glyph glyph-name="H" unicode="H" horiz-adv-x="1475" 
d="M1290 0h-162v699h-780v-699h-163v1486h163v-641h780v641h162v-1486z" />
    <glyph glyph-name="I" unicode="I" horiz-adv-x="536" 
d="M350 0h-163v1486h163v-1486z" />
    <glyph glyph-name="J" unicode="J" horiz-adv-x="1026" 
d="M29 327h158q4 -92 72 -150q67 -58 177 -58q110 -1 180 69t71 216v1082h162v-1066q0 -223 -114 -337q-113 -114 -301 -114t-297 100q-108 100 -108 258z" />
    <glyph glyph-name="K" unicode="K" horiz-adv-x="1267" 
d="M348 0h-163v1486h163v-737h6l672 737h196l-564 -635l593 -851h-208l-508 739l-187 -202v-537z" />
    <glyph glyph-name="L" unicode="L" horiz-adv-x="1076" 
d="M1049 148v-148h-864v1486h163v-1338h701z" />
    <glyph glyph-name="M" unicode="M" horiz-adv-x="1717" 
d="M337 0h-146v1486h154l512 -1190h5l510 1190h156v-1486h-148v1122h-4l-444 -1008h-147l-444 1008h-4v-1122z" />
    <glyph glyph-name="N" unicode="N" horiz-adv-x="1475" 
d="M348 0h-163v1486h163l776 -1207h4v1207h162v-1486h-162l-776 1207h-4v-1207z" />
    <glyph glyph-name="O" unicode="O" horiz-adv-x="1421" 
d="M127 622v229q0 310 159 489t428 179t426 -178t157 -490v-229q-1 -310 -159 -482t-428 -172t-427 172q-156 172 -156 482zM287 851v-231q0 -250 118 -376q118 -127 307 -127t306 129t116 374v231q0 248 -117 384q-118 136 -307 137q-256 0 -367 -236q-56 -118 -56 -285z
" />
    <glyph glyph-name="P" unicode="P" horiz-adv-x="1240" 
d="M348 1338v-614h249q212 0 314 66q101 66 101 227t-80 241t-226 80h-358zM185 1486h525q210 0 339 -125t129 -332t-128 -328q-128 -122 -340 -122h-362v-579h-163v1486z" />
    <glyph glyph-name="Q" unicode="Q" horiz-adv-x="1423" 
d="M287 855v-224q0 -248 118 -380t305 -132q96 0 175 33l-194 260h194l124 -171q125 139 125 390v224q0 248 -116 382q-117 135 -306 135t-307 -134t-118 -383zM127 631v226q0 310 157 486t427 176q269 0 427 -176t159 -486v-226q0 -345 -194 -521l206 -283h-187l-144 198
q-119 -56 -268 -56q-268 0 -426 175q-157 175 -157 487z" />
    <glyph glyph-name="R" unicode="R" horiz-adv-x="1309" 
d="M348 751h333q156 0 243 74t86 217q-1 142 -87 220t-236 78h-339v-589zM708 1486q186 0 304 -86q164 -125 164 -349q0 -169 -81 -271t-202 -141l308 -639h-185l-285 606h-383v-606h-163v1486h523z" />
    <glyph glyph-name="S" unicode="S" horiz-adv-x="1246" 
d="M976 380q0 114 -62 172q-62 60 -196 95l-258 69q-140 39 -241 129q-100 90 -100 256q0 98 41 179q79 152 273 213q89 28 177 28q264 0 408 -145q104 -104 108 -269h-162q-10 117 -98 192t-244 75q-154 0 -246 -70t-93 -193q0 -179 221 -237l252 -69q288 -77 360 -247
q27 -67 27 -152q0 -208 -154 -322t-392 -115q-137 -1 -242 39q-181 68 -251 240q-29 70 -31 145h164q8 -113 107 -195q99 -83 267 -82q169 2 267 76t98 188z" />
    <glyph glyph-name="T" unicode="T" horiz-adv-x="1128" 
d="M643 0h-160v1338h-462v148h1086v-148h-464v-1338z" />
    <glyph glyph-name="U" unicode="U" horiz-adv-x="1442" 
d="M329 1486v-970q0 -183 105 -291t286 -108t288 108t108 291v970h160v-970q0 -248 -153 -398t-402 -149q-249 0 -402 152t-152 399v966h162z" />
    <glyph glyph-name="V" unicode="V" horiz-adv-x="1290" 
d="M724 0h-160l-541 1486h183l437 -1270h4l435 1270h186z" />
    <glyph glyph-name="W" unicode="W" horiz-adv-x="1808" 
d="M574 0h-145l-410 1486h191l294 -1201h4l310 1201h175l310 -1201h4l294 1201h191l-410 -1486h-148l-327 1209h-6z" />
    <glyph glyph-name="X" unicode="X" horiz-adv-x="1213" 
d="M1201 1486l-500 -751l490 -735h-198l-392 608h-8l-393 -608h-185l493 749l-487 737h198l393 -608h8l392 608h189z" />
    <glyph glyph-name="Y" unicode="Y" horiz-adv-x="1169" 
d="M666 0h-162v654l-498 832h188l389 -672h4l391 672h188l-500 -832v-654z" />
    <glyph glyph-name="Z" unicode="Z" horiz-adv-x="1242" 
d="M92 0v119l824 1217v4h-793v146h995v-114l-820 -1220v-4h836v-148h-1042z" />
    <glyph glyph-name="bracketleft" unicode="[" horiz-adv-x="682" 
d="M150 1486h443v-121h-289v-1492h304v-121h-458v1734z" />
    <glyph glyph-name="backslash" unicode="\" horiz-adv-x="745" 
d="M718 -337h-141l-550 1902h142z" />
    <glyph glyph-name="bracketright" unicode="]" horiz-adv-x="682" 
d="M89 1486h444v-1734h-456v121h304v1492h-292v121z" />
    <glyph glyph-name="asciicircum" unicode="^" horiz-adv-x="805" 
d="M747 866h-137l-204 487h-4l-206 -487h-138l267 622h158z" />
    <glyph glyph-name="underscore" unicode="_" horiz-adv-x="915" 
d="M947 -244h-976v130h976v-130z" />
    <glyph glyph-name="grave" unicode="`" horiz-adv-x="1009" 
d="M585 1315h-127l-246 298h169z" />
    <glyph glyph-name="a" unicode="a" horiz-adv-x="1142" 
d="M271 322q1 -94 71 -147q70 -54 186 -54t200 77q85 77 86 191v131h-306q-119 0 -178 -52t-59 -146zM568 1159q408 0 408 -360v-799h-156v158h-4q-46 -77 -131 -127t-201 -50t-200 43t-131 121t-47 182q0 150 103 239t295 90h310v141q0 219 -254 219q-229 0 -254 -190h-156
q8 154 114 244t304 89z" />
    <glyph glyph-name="b" unicode="b" horiz-adv-x="1240" 
d="M335 497q1 -154 83 -263t228 -109t232 100q85 100 86 285v114q0 190 -82 292t-228 102q-98 0 -171 -51q-146 -102 -148 -328v-142zM696 -19q-116 0 -188 28q-135 53 -177 168h-4v-177h-152v1565h160v-587h4q104 181 328 181q225 0 341 -140t116 -376v-143
q0 -162 -54 -280t-156 -178t-218 -61z" />
    <glyph glyph-name="c" unicode="c" horiz-adv-x="1111" 
d="M117 502v139q0 231 123 375q124 144 330 144t322 -104q116 -103 117 -238h-160q-10 75 -81 137t-183 63q-152 0 -231 -107t-79 -276v-133q0 -162 83 -266q84 -104 214 -105q130 0 198 49t87 126h161q-8 -127 -125 -226t-325 -99t-330 144q-121 144 -121 377z" />
    <glyph glyph-name="d" unicode="d" horiz-adv-x="1242" 
d="M907 626q0 180 -85 286t-236 106t-230 -108t-79 -292v-94q0 -185 80 -293t232 -108t235 106t83 291v106zM566 1159q134 0 220 -52t115 -129h6v587h159v-1565h-150v177h-4q-21 -75 -115 -134t-231 -60q-214 -1 -332 139t-117 371v156q0 229 117 370q118 140 332 140z" />
    <glyph glyph-name="e" unicode="e" 
d="M277 668h601v4q0 213 -139 302q-69 44 -160 44q-139 0 -221 -96t-81 -250v-4zM593 -19q-233 0 -355 145t-121 384v108q0 332 205 471q105 71 257 70q227 1 345 -145t117 -394v-89h-764v-31q0 -223 137 -322q72 -53 184 -53t175 52t82 127h169q-20 -117 -116 -213
q-49 -49 -131 -79t-184 -31z" />
    <glyph glyph-name="f" unicode="f" horiz-adv-x="722" 
d="M237 0v1005h-164v136h164v118q0 160 81 237t250 77q40 0 83 -6v-135q-35 4 -64 4q-100 0 -145 -42t-44 -145v-108h235v-136h-235v-1005h-161z" />
    <glyph glyph-name="g" unicode="g" horiz-adv-x="1202" 
d="M891 639q1 159 -83 269t-228 110t-231 -103q-88 -103 -89 -278v-115q0 -172 91 -270t235 -98t224 104q81 104 81 254v127zM586 -281q142 0 225 77q82 77 82 221v183h-4q-35 -77 -125 -132t-208 -56q-196 0 -325 134t-129 354v166q0 221 129 357t327 136q244 0 337 -181h4
v163h152v-1118q0 -223 -129 -335q-130 -112 -348 -112t-328 95q-110 96 -119 231h169q8 -75 78 -129t212 -54z" />
    <glyph glyph-name="h" unicode="h" horiz-adv-x="1255" 
d="M175 0v1565h160v-578h6q31 69 113 121t210 51q191 0 308 -124t117 -321v-714h-161v683q0 149 -74 239t-213 90q-196 0 -271 -157q-35 -75 -35 -176v-679h-160z" />
    <glyph glyph-name="i" unicode="i" horiz-adv-x="561" 
d="M281 1311q-46 -1 -77 31t-31 79t31 78t77 31t78 -31t32 -78t-32 -79t-78 -31zM202 0v1141h160v-1141h-160z" />
    <glyph glyph-name="j" unicode="j" horiz-adv-x="561" 
d="M362 1141v-1183q0 -362 -291 -362q-69 0 -104 11v129q29 -4 73 -4q89 0 125 54t37 174v1181h160zM281 1311q-46 -1 -77 31t-31 79t31 78t77 31t78 -31t32 -78t-32 -79t-78 -31z" />
    <glyph glyph-name="k" unicode="k" horiz-adv-x="1084" 
d="M335 0h-160v1565h160v-953h6l502 531h187l-462 -496l491 -647h-193l-414 545l-117 -114v-431z" />
    <glyph glyph-name="l" unicode="l" horiz-adv-x="520" 
d="M181 0v1565h160v-1565h-160z" />
    <glyph glyph-name="m" unicode="m" horiz-adv-x="1871" 
d="M173 0v1141h160v-144h8q29 67 106 115t186 47q258 0 331 -189h6q32 76 124 133q92 58 226 56q179 0 282 -103t103 -280v-776h-161v747q0 119 -67 192q-68 73 -191 73q-85 0 -146 -38q-122 -75 -122 -246v-728h-161v728q0 186 -119 251q-58 33 -158 33t-174 -76t-73 -208
v-728h-160z" />
    <glyph glyph-name="n" unicode="n" horiz-adv-x="1246" 
d="M173 0v1141h160v-154h4q35 73 123 123t210 49q177 0 295 -106t117 -293v-760h-162v699q0 312 -287 313q-146 0 -223 -86t-77 -241v-685h-160z" />
    <glyph glyph-name="o" unicode="o" horiz-adv-x="1196" 
d="M599 1018q-167 0 -245 -114t-79 -300v-67q0 -187 78 -299q77 -112 245 -113q168 0 245 112t77 300v67q0 186 -77 300t-244 114zM599 1159q237 -1 359 -145t122 -392v-102q0 -248 -122 -394t-359 -145q-237 0 -360 145t-122 394v102q0 241 122 390q123 147 360 147z" />
    <glyph glyph-name="p" unicode="p" horiz-adv-x="1238" 
d="M654 125q139 0 223 100t85 287v121q0 183 -84 284t-229 101q-146 0 -231 -103t-85 -266v-149q0 -220 149 -323q74 -52 172 -52zM676 -19q-241 0 -339 177h-4v-553h-160v1538h154v-165h4q46 109 183 155q75 26 169 26q195 0 317 -136t122 -369v-169q0 -235 -123 -369
t-323 -135z" />
    <glyph glyph-name="q" unicode="q" horiz-adv-x="1234" 
d="M589 1016q-204 0 -277 -177q-35 -85 -35 -206v-125q0 -246 146 -339q71 -46 168 -46q150 0 231 109t81 270v133q0 175 -83 278t-231 103zM564 1159q254 0 343 -181h5v163h152v-1539h-161v556h-4q-37 -77 -125 -127t-218 -50q-131 1 -232 63q-207 128 -207 441v173
q0 227 122 364q123 137 325 137z" />
    <glyph glyph-name="r" unicode="r" horiz-adv-x="745" 
d="M191 0v1141h159v-142h4q37 77 83 107q76 51 206 51q27 0 71 -4v-148q-23 4 -90 4q-144 0 -210 -78t-64 -213v-718h-159z" />
    <glyph glyph-name="s" unicode="s" horiz-adv-x="1059" 
d="M117 822q0 164 118 251q119 86 303 86q184 -1 286 -97t102 -240h-150q-4 76 -63 141q-58 65 -180 65q-121 0 -190 -51t-68 -138q0 -109 117 -151q56 -21 147 -38q92 -18 143 -30q273 -64 273 -282q0 -118 -57 -198q-113 -160 -384 -159q-190 -1 -304 87t-114 236h156
q12 -85 80 -137q68 -53 196 -53t198 54q71 54 71 135q0 80 -41 113q-23 19 -44 33t-82 30t-126 30t-146 35t-121 48q-87 62 -103 119q-17 57 -17 111z" />
    <glyph glyph-name="t" unicode="t" horiz-adv-x="701" 
d="M223 1141v287h160v-287h235v-136h-235v-701q0 -104 41 -140t150 -37q37 0 55 2v-131q-37 -8 -113 -8q-171 0 -235 80q-33 43 -46 99q-12 56 -12 143v693h-161v136h161z" />
    <glyph glyph-name="u" unicode="u" horiz-adv-x="1240" 
d="M1070 1141v-1141h-160v156h-7q-33 -77 -118 -126t-217 -49q-181 0 -292 102t-112 294v764h161v-718q1 -104 39 -172q69 -122 246 -122q135 0 217 82t83 222v708h160z" />
    <glyph glyph-name="v" unicode="v" horiz-adv-x="1051" 
d="M441 0l-410 1141h179l306 -966h6l325 966h171l-417 -1141h-160z" />
    <glyph glyph-name="w" unicode="w" horiz-adv-x="1563" 
d="M1528 1141l-306 -1141h-156l-275 907h-4l-269 -907h-158l-323 1141h182l218 -925h8l267 925h152l272 -925h9l222 925h161z" />
    <glyph glyph-name="x" unicode="x" horiz-adv-x="1084" 
d="M830 0l-289 443h-6l-289 -443h-184l390 564l-390 577h192l283 -440h6l290 440h185l-389 -558l395 -583h-194z" />
    <glyph glyph-name="y" unicode="y" horiz-adv-x="1101" 
d="M260 -412q-66 0 -125 8v136q255 -44 310 181l21 68l-424 1160h177l326 -974h7l324 974h171l-443 -1237q-89 -240 -219 -292q-59 -24 -125 -24z" />
    <glyph glyph-name="z" unicode="z" horiz-adv-x="1046" 
d="M110 0v114l629 885v10h-633v132h833v-115l-629 -882v-11h633v-133h-833z" />
    <glyph glyph-name="braceleft" unicode="{" horiz-adv-x="757" 
d="M423 385v-360q0 -123 56 -179t187 -56h48v-129h-54q-189 0 -288 85t-99 273v310q1 119 -37 169t-147 49v179q108 0 146 51q37 51 38 170v275q0 125 48 203t131 110t208 32h54v-129h-48q-172 0 -220 -100q-24 -50 -23 -131v-316q0 -223 -179 -242v-23q179 -17 179 -241z
" />
    <glyph glyph-name="bar" unicode="|" horiz-adv-x="680" 
d="M408 -337h-133v1902h133v-1902z" />
    <glyph glyph-name="braceright" unicode="}" horiz-adv-x="757" 
d="M337 891v316q0 121 -57 176t-188 55h-48v129h54q191 0 289 -80t98 -265v-275q1 -119 39 -170t144 -51v-179q-139 0 -168 -93q-15 -46 -15 -125v-310q0 -187 -99 -273t-288 -85h-54v129h48q131 0 188 56t57 179v360q0 224 179 241v23q-179 19 -179 242z" />
    <glyph glyph-name="asciitilde" unicode="~" horiz-adv-x="1213" 
d="M89 587q0 147 75 243t234 96q123 0 253 -127q50 -54 90 -82t83 -28q75 0 113 55q37 55 41 141h148q0 -135 -72 -240q-72 -104 -238 -104q-125 0 -245 120q-55 55 -74 72q-55 49 -106 47q-143 0 -154 -193h-148z" />
    <glyph glyph-name="nonbreakingspace" unicode="&#xa0;" horiz-adv-x="447" 
 />
    <glyph glyph-name="exclamdown" unicode="&#xa1;" horiz-adv-x="551" 
d="M391 1083q0 -49 -32 -81t-80 -32t-81 32q-34 32 -34 81t32 81t82 32q49 0 81 -32t32 -81zM366 -306h-183l21 1051h141z" />
    <glyph glyph-name="cent" unicode="&#xa2;" horiz-adv-x="1165" 
d="M658 -98h-134v252q-185 19 -292 149t-107 338v198q0 206 107 335t292 148v270h134v-268q112 -12 195 -64q161 -102 165 -269h-161q-8 59 -67 128q-60 69 -202 68q-143 -1 -223 -97t-80 -260v-191q0 -158 82 -250t226 -91q229 0 275 172h158q-6 -118 -100 -210t-268 -108
v-250z" />
    <glyph glyph-name="sterling" unicode="&#xa3;" horiz-adv-x="1165" 
d="M1095 137v-137h-993v146q48 0 73 3q72 9 96 62q27 68 29 220v268h-223v129h223v333q0 175 114 267q114 91 287 91q173 -1 277 -91t108 -235h-149q-5 79 -69 134t-176 55t-172 -67t-60 -170v-317h331v-129h-331v-274q0 -115 -17 -183t-60 -94v-11h712z" />
    <glyph glyph-name="currency" unicode="&#xa4;" horiz-adv-x="1165" 
d="M308 715q0 -113 80 -193t194 -81q114 0 195 80q80 79 80 193t-80 196t-193 81q-113 0 -195 -81q-81 -82 -81 -195zM582 1105q124 0 226 -71l185 186l96 -94l-188 -187q73 -102 73 -228t-77 -228l192 -192l-94 -93l-194 193q-99 -65 -221 -65t-218 69l-198 -197l-93 93
l195 198q-72 98 -72 223t68 223l-191 191l93 94l190 -190q104 75 228 75z" />
    <glyph glyph-name="yen" unicode="&#xa5;" horiz-adv-x="1165" 
d="M974 331h-310v-331h-160v331h-310v119h310v170h-310v119h260l-450 747h187l388 -672h10l389 672h188l-450 -747h258v-119h-310v-170h310v-119z" />
    <glyph glyph-name="brokenbar" unicode="&#xa6;" horiz-adv-x="428" 
d="M283 -337h-135v747h135v-747zM283 853h-135v712h135v-712z" />
    <glyph glyph-name="section" unicode="&#xa7;" horiz-adv-x="1024" 
d="M268 628q0 -82 69 -133t302 -102q56 23 97 85q40 62 40 139q0 78 -63 128t-232 86q-42 9 -56 14q-53 -15 -105 -75t-52 -142zM110 616q0 177 188 266v9q-179 98 -179 277q0 110 56 192q110 161 343 159q173 -1 282 -95t110 -240h-152q-5 106 -114 164q-58 30 -148 30
t-155 -56t-64 -148q0 -115 119 -166q61 -26 146 -45q239 -54 317 -130q78 -77 78 -185q0 -189 -165 -292v-8q71 -44 116 -102t44 -154q0 -164 -119 -266q-120 -101 -303 -101t-303 91t-120 242h159q10 -89 78 -140t192 -51t189 60q65 61 65 141t-46 124q-46 45 -150 72
q-30 8 -96 24q-223 55 -296 133q-72 77 -72 195z" />
    <glyph glyph-name="dieresis" unicode="&#xa8;" horiz-adv-x="1009" 
d="M579 1431q0 41 27 69q26 28 66 28t67 -28t27 -69t-27 -69t-67 -28t-66 28q-27 28 -27 69zM216 1438q0 34 28 62t66 28q40 0 67 -28t27 -69t-27 -69t-61 -28t-54 13q-46 27 -46 91z" />
    <glyph glyph-name="copyright" unicode="&#xa9;" horiz-adv-x="1785" 
d="M899 -69q-345 0 -564 219t-218 551v113q0 154 58 291q118 278 411 396q146 58 314 58t314 -59q146 -60 249 -160q102 -100 160 -237t59 -289v-113q0 -335 -219 -553t-564 -217zM241 697q1 -283 183 -464t475 -181t478 181q184 181 184 464v117q0 262 -186 442
q-185 180 -475 180t-474 -179t-185 -443v-117zM560 689v108q0 171 92 266q93 95 257 95t261 -115q47 -57 54 -146h-123q-10 56 -55 101t-139 45q-227 0 -226 -252v-102q0 -160 105 -216q51 -26 121 -26q169 0 200 125h123q-6 -100 -89 -172t-241 -73q-158 0 -249 93
q-91 94 -91 269z" />
    <glyph glyph-name="ordfeminine" unicode="&#xaa;" horiz-adv-x="682" 
d="M202 1051q0 -48 36 -75t92 -27q57 0 100 36t42 91v69h-147q-123 0 -123 -94zM291 855q-91 0 -147 51t-56 137t54 134q55 49 168 51h162v60q0 108 -129 109q-104 0 -120 -71h-113q6 77 68 123q62 45 170 45t174 -50t65 -156v-422h-110v83h-5q-56 -94 -181 -94z" />
    <glyph glyph-name="guillemotleft" unicode="&#xab;" horiz-adv-x="1348" 
d="M125 616l379 439h187l-373 -439v-6l373 -441h-198l-368 439v8zM631 616l376 439h190l-373 -439v-6l373 -441h-200l-366 439v8z" />
    <glyph glyph-name="logicalnot" unicode="&#xac;" horiz-adv-x="1165" 
d="M1091 117h-142v410h-874v133h1016v-543z" />
    <glyph glyph-name="registered" unicode="&#xae;" horiz-adv-x="1261" 
d="M545 733h-93v526h231q71 0 117 -45t45 -107q0 -62 -29 -104t-75 -54q0 -2 58 -105t63 -111h-111l-108 206h-98v-206zM545 1188v-179h90q117 0 116 90q0 44 -28 67t-76 22h-102zM635 547q187 0 308 117t121 293v73q0 167 -122 280q-122 114 -307 114t-307 -114t-122 -280
v-73q0 -177 121 -293t308 -117zM1159 957q1 -219 -147 -362t-376 -143t-378 144t-150 361v73q0 204 151 347t375 143t374 -144q150 -142 151 -346v-73z" />
    <glyph glyph-name="macron" unicode="&#xaf;" horiz-adv-x="1009" 
d="M793 1363h-591v106h591v-106z" />
    <glyph glyph-name="degree" unicode="&#xb0;" horiz-adv-x="570" 
d="M160 1264q0 -42 38 -80t90 -39q51 0 89 38q37 39 37 91t-36 89t-80 37t-73 -16q-29 -17 -47 -47q-18 -31 -18 -73zM287 1041q-97 -1 -165 67t-68 165t69 165t165 67q96 0 164 -68q68 -69 68 -165t-68 -164q-69 -67 -165 -67z" />
    <glyph glyph-name="plusminus" unicode="&#xb1;" horiz-adv-x="1169" 
d="M1101 142h-1026v133h1026v-133zM647 722v-324h-129v324h-445v133h445v311h129v-311h450v-133h-450z" />
    <glyph glyph-name="twosuperior" unicode="&#xb2;" horiz-adv-x="693" 
d="M214 1270h-118v10q0 89 63 155t173 66q110 1 177 -59q65 -60 65 -136t-32 -129t-92 -116l-192 -195h329v-108h-481v81l264 293q82 86 82 144t-34 88t-87 30q-54 0 -85 -33t-32 -81v-10z" />
    <glyph glyph-name="threesuperior" unicode="&#xb3;" horiz-adv-x="697" 
d="M252 1082v104h83q52 0 84 30t33 78q0 46 -32 74t-84 28q-53 0 -86 -28t-36 -69h-114q4 83 66 142t169 59q106 0 171 -52q64 -53 64 -126t-36 -119t-95 -62q67 -11 113 -57t46 -131t-74 -146q-73 -61 -186 -61t-182 59q-69 60 -71 144h113q4 -42 42 -71t100 -29
q60 0 98 33q38 32 39 84q0 52 -39 84t-101 32h-85z" />
    <glyph glyph-name="acute" unicode="&#xb4;" horiz-adv-x="1009" 
d="M375 1315h-127l204 298h168z" />
    <glyph glyph-name="paragraph" unicode="&#xb6;" horiz-adv-x="1317" 
d="M947 -229v1717h160v-1717h-160zM774 -229h-160v814h-23q-119 0 -237 60q-235 119 -235 389q0 106 34 190t84 132q92 90 242 121q58 11 114 11h181v-1717z" />
    <glyph glyph-name="periodcentered" unicode="&#xb7;" horiz-adv-x="636" 
d="M179 767q0 47 31 78t78 31t79 -31q33 -31 33 -78t-32 -79t-80 -32q-47 0 -78 32t-31 79z" />
    <glyph glyph-name="cedilla" unicode="&#xb8;" horiz-adv-x="1009" 
d="M375 -250v77l70 183h117l-60 -162q142 0 203 -77q30 -40 30 -98q0 -95 -68 -145q-67 -50 -163 -54t-169 14v106q49 -14 115 -14q146 1 145 91q0 61 -72 73q-36 6 -92 6h-56z" />
    <glyph glyph-name="onesuperior" unicode="&#xb9;" horiz-adv-x="641" 
d="M443 758h-122v597h-5l-166 -125v123l171 133h122v-728z" />
    <glyph glyph-name="ordmasculine" unicode="&#xba;" horiz-adv-x="670" 
d="M337 1494q123 0 199 -74t76 -202v-84q0 -131 -76 -205t-200 -74t-200 74t-76 205v84q0 124 77 200t200 76zM337 1397q-73 0 -115 -51t-43 -133v-72q0 -114 71 -161q35 -23 86 -23q102 0 140 87q18 41 17 97v72q0 81 -41 133q-42 51 -115 51z" />
    <glyph glyph-name="guillemotright" unicode="&#xbb;" horiz-adv-x="1346" 
d="M703 616v-8l-368 -439h-200l373 441v6l-373 439h190zM1209 616v-8l-368 -439h-200l373 441v6l-373 439h189z" />
    <glyph glyph-name="onequarter" unicode="&#xbc;" horiz-adv-x="1454" 
d="M216 0h-147l1130 1486h148zM337 758h-123v597h-4l-168 -125v123l172 133h123v-728zM1303 735v-494h87v-102h-87v-139h-110v139h-365v98q47 84 308 498h167zM953 241h240v388h-7q-98 -146 -233 -385v-3z" />
    <glyph glyph-name="onehalf" unicode="&#xbd;" horiz-adv-x="1477" 
d="M216 0h-147l1130 1486h148zM337 758h-123v597h-4l-168 -125v123l172 133h123v-728zM1066 500h-121v8q1 94 65 160t186 65q122 0 193 -85q43 -51 43 -119q0 -69 -33 -123t-94 -119l-196 -198h338v-110h-492v81l271 300q83 84 83 144t-34 90q-33 30 -89 30t-88 -33t-32 -83
v-8z" />
    <glyph glyph-name="threequarters" unicode="&#xbe;" horiz-adv-x="1496" 
d="M268 0h-147l1130 1486h148zM198 1059v107h83q52 0 85 30q34 30 34 77t-32 76t-78 29q-83 0 -115 -49q-15 -22 -17 -49h-116q4 82 67 142t171 60t174 -53t66 -126t-37 -120t-98 -63q69 -15 115 -60t46 -131q0 -87 -75 -149q-74 -62 -188 -62t-184 61t-72 145h115
q4 -42 42 -71t84 -29q116 0 148 75t-30 127q-39 33 -103 33h-85zM1361 735v-491h90v-105h-90v-139h-110v139h-364v98q75 133 183 302t125 196h166zM1012 244h239v385h-6q-119 -179 -233 -383v-2z" />
    <glyph glyph-name="questiondown" unicode="&#xbf;" horiz-adv-x="1015" 
d="M941 54q0 -110 -39 -193q-70 -149 -243 -199q-74 -22 -157 -22q-177 0 -302 95t-125 263t132 292q30 28 106 90t110 112q33 49 33 137v72h160v-102q0 -99 -52 -171t-150 -150t-136 -130t-39 -132q0 -80 39 -136q71 -102 218 -101q147 0 219 78t72 197h154zM647 1067
q0 -49 -33 -81t-81 -33q-48 0 -81 32q-34 31 -34 81t32 82t82 32q49 0 82 -32t33 -81z" />
    <glyph glyph-name="Agrave" unicode="&#xc0;" horiz-adv-x="1288" 
d="M756 1650h-146l-317 219h186zM643 1286h-4l-237 -689h476zM198 0h-167l533 1486h160l533 -1486h-175l-158 462h-568z" />
    <glyph glyph-name="Aacute" unicode="&#xc1;" horiz-adv-x="1288" 
d="M543 1650l277 219h185l-316 -219h-146zM643 1286h-4l-237 -689h476zM198 0h-167l533 1486h160l533 -1486h-175l-158 462h-568z" />
    <glyph glyph-name="Acircumflex" unicode="&#xc2;" horiz-adv-x="1288" 
d="M304 1646l306 254h81l304 -254h-158l-186 161h-6l-183 -161h-158zM643 1286h-4l-237 -689h476zM198 0h-167l533 1486h160l533 -1486h-175l-158 462h-568z" />
    <glyph glyph-name="Atilde" unicode="&#xc3;" horiz-adv-x="1288" 
d="M527 1744q-67 0 -73 -106h-102q0 121 75 175q40 29 109 29t154 -92q10 -12 16 -16t17 -14t42 -9q30 0 50 35t24 79h102q0 -111 -80 -175q-41 -31 -94 -31t-87 18q-34 19 -76 63t-77 44zM643 1286h-4l-237 -689h476zM198 0h-167l533 1486h160l533 -1486h-175l-158 462
h-568z" />
    <glyph glyph-name="Adieresis" unicode="&#xc4;" horiz-adv-x="1288" 
d="M745 1717q0 43 24 67t58 25q35 0 59 -24q24 -25 24 -61t-24 -60t-52 -24t-48 12q-41 22 -41 65zM437 1725q0 35 24 59t58 25q35 0 59 -24q24 -23 24 -59t-24 -61t-58 -25t-59 25q-24 25 -24 60zM643 1286h-4l-237 -689h476zM198 0h-167l533 1486h160l533 -1486h-175
l-158 462h-568z" />
    <glyph glyph-name="Aring" unicode="&#xc5;" horiz-adv-x="1288" 
d="M441 1650q0 58 27 102q27 46 74 73q48 27 116 27t126 -58t59 -128q0 -70 -31 -120t-81 -75l528 -1471h-175l-158 462h-570l-158 -462h-167l529 1469q-54 25 -87 74q-32 49 -32 107zM880 597l-235 689h-6l-235 -689h476zM527 1653q0 -47 35 -81t82 -34t81 33q35 33 35 81
t-34 83q-34 34 -82 34q-47 0 -82 -34t-35 -82z" />
    <glyph glyph-name="AE" unicode="&#xc6;" horiz-adv-x="2004" 
d="M1012 489h-544l-266 -489h-185l830 1486h1032v-148h-705v-505h666v-146h-666v-539h705v-148h-867v489zM1012 624v714h-77l-392 -714h469z" />
    <glyph glyph-name="Ccedilla" unicode="&#xc7;" horiz-adv-x="1352" 
d="M638 -423q55 1 83 9t50 29t22 51q0 58 -48 71t-116 13h-57v77l54 144q-237 25 -368 196t-131 468v208q0 323 154 499t412 177q258 0 412 -160q86 -90 119 -216q15 -58 14 -117h-160q0 129 -96 233q-46 50 -120 81t-161 32q-191 0 -302 -136t-112 -393v-206
q1 -260 111 -390t296 -130q186 1 286 93q98 92 98 225h162q0 -161 -118 -299q-58 -68 -157 -114t-222 -53l-46 -123q145 0 203 -75q30 -40 30 -98q0 -96 -68 -147t-162 -55q-96 -4 -169 17v106q52 -17 107 -17z" />
    <glyph glyph-name="Egrave" unicode="&#xc8;" horiz-adv-x="1186" 
d="M1061 148v-148h-876v1486h876v-148h-713v-505h676v-146h-676v-539h713zM731 1650h-146l-317 219h186z" />
    <glyph glyph-name="Eacute" unicode="&#xc9;" horiz-adv-x="1186" 
d="M1061 148v-148h-876v1486h876v-148h-713v-505h676v-146h-676v-539h713zM518 1650l277 219h185l-316 -219h-146z" />
    <glyph glyph-name="Ecircumflex" unicode="&#xca;" horiz-adv-x="1186" 
d="M1061 148v-148h-876v1486h876v-148h-713v-505h676v-146h-676v-539h713zM277 1646l308 254h81l304 -254h-158l-186 161h-6l-183 -161h-160z" />
    <glyph glyph-name="Edieresis" unicode="&#xcb;" horiz-adv-x="1186" 
d="M1061 148v-148h-876v1486h876v-148h-713v-505h676v-146h-676v-539h713zM720 1725q0 35 24 59t58 25q34 0 58 -24q24 -25 25 -61q0 -36 -24 -60q-25 -24 -59 -24t-58 25t-24 60zM412 1725q0 35 24 59t58 25q34 0 58 -24q24 -23 25 -59q0 -36 -24 -61q-25 -25 -59 -25
t-58 25t-24 60z" />
    <glyph glyph-name="Igrave" unicode="&#xcc;" horiz-adv-x="536" 
d="M379 1650h-148l-314 219h185zM350 0h-163v1486h163v-1486z" />
    <glyph glyph-name="Iacute" unicode="&#xcd;" horiz-adv-x="536" 
d="M167 1650l276 219h186l-317 -219h-145zM350 0h-163v1486h163v-1486z" />
    <glyph glyph-name="Icircumflex" unicode="&#xce;" horiz-adv-x="536" 
d="M-75 1646l306 254h83l304 -254h-158l-185 161h-7l-183 -161h-160zM350 0h-163v1486h163v-1486z" />
    <glyph glyph-name="Idieresis" unicode="&#xcf;" horiz-adv-x="536" 
d="M368 1725q0 35 24 59t58 25q34 0 58 -24q23 -25 23 -61t-23 -60t-57 -24t-59 25q-24 25 -24 60zM60 1725q0 35 24 59t58 25q34 0 59 -24q24 -23 24 -59t-24 -61t-58 -25t-59 25q-24 25 -24 60zM350 0h-163v1486h163v-1486z" />
    <glyph glyph-name="Eth" unicode="&#xd0;" horiz-adv-x="1479" 
d="M429 148h287q493 0 493 595t-493 595h-287v-505h349v-144h-349v-541zM724 1486q648 0 652 -743q0 -331 -148 -537t-504 -206h-458v689h-174v144h174v653h458z" />
    <glyph glyph-name="Ntilde" unicode="&#xd1;" horiz-adv-x="1475" 
d="M348 0h-163v1486h163l776 -1207h4v1207h162v-1486h-162l-776 1207h-4v-1207zM618 1744q-67 0 -71 -106h-104q0 84 44 144t125 60t156 -75q2 -5 14 -17l17 -16q23 -23 56 -23t52 35t23 79h102q0 -113 -80 -175q-40 -31 -92 -31q-84 0 -154 69q-50 56 -88 56z" />
    <glyph glyph-name="Ograve" unicode="&#xd2;" horiz-adv-x="1421" 
d="M127 622v229q0 310 159 489t428 179t426 -178t157 -490v-229q-1 -310 -159 -482t-428 -172t-427 172q-156 172 -156 482zM287 851v-231q0 -250 118 -376q118 -127 307 -127t306 129t116 374v231q0 248 -117 384q-118 136 -307 137q-256 0 -367 -236q-56 -118 -56 -285z
M820 1650h-146l-314 219h183z" />
    <glyph glyph-name="Oacute" unicode="&#xd3;" horiz-adv-x="1421" 
d="M127 622v229q0 310 159 489t428 179t426 -178t157 -490v-229q-1 -310 -159 -482t-428 -172t-427 172q-156 172 -156 482zM287 851v-231q0 -250 118 -376q118 -127 307 -127t306 129t116 374v231q0 248 -117 384q-118 136 -307 137q-256 0 -367 -236q-56 -118 -56 -285z
M610 1650l277 219h183l-314 -219h-146z" />
    <glyph glyph-name="Ocircumflex" unicode="&#xd4;" horiz-adv-x="1421" 
d="M127 622v229q0 310 159 489t428 179t426 -178t157 -490v-229q-1 -310 -159 -482t-428 -172t-427 172q-156 172 -156 482zM287 851v-231q0 -250 118 -376q118 -127 307 -127t306 129t116 374v231q0 248 -117 384q-118 136 -307 137q-256 0 -367 -236q-56 -118 -56 -285z
M368 1646l306 254h82l305 -254h-160l-185 161h-4l-185 -161h-159z" />
    <glyph glyph-name="Otilde" unicode="&#xd5;" horiz-adv-x="1421" 
d="M591 1744q-67 0 -71 -106h-104q0 82 32 126t64 62q33 16 77 16q77 0 150 -75l27 -27q10 -10 22 -20q12 -9 37 -9q24 0 49 26t29 88h102q0 -111 -80 -175q-41 -31 -93 -31q-84 0 -153 69q-50 56 -88 56zM127 622v229q0 310 159 489t428 179t426 -178t157 -490v-229
q-1 -310 -159 -482t-428 -172t-427 172q-156 172 -156 482zM287 851v-231q0 -250 118 -376q118 -127 307 -127t306 129t116 374v231q0 248 -117 384q-118 136 -307 137q-256 0 -367 -236q-56 -118 -56 -285z" />
    <glyph glyph-name="Odieresis" unicode="&#xd6;" horiz-adv-x="1421" 
d="M127 622v229q0 310 159 489t428 179t426 -178t157 -490v-229q-1 -310 -159 -482t-428 -172t-427 172q-156 172 -156 482zM287 851v-231q0 -250 118 -376q118 -127 307 -127t306 129t116 374v231q0 248 -117 384q-118 136 -307 137q-256 0 -367 -236q-56 -118 -56 -285z
M812 1717q0 43 24 67t58 25q34 0 57 -24q23 -25 23 -61t-23 -60t-52 -24t-48 12q-39 22 -39 65zM504 1725q0 35 24 59t58 25q34 0 58 -24t24 -67t-48 -70t-92 17q-24 25 -24 60z" />
    <glyph glyph-name="multiply" unicode="&#xd7;" horiz-adv-x="1165" 
d="M926 89l-343 344l-344 -344l-93 94l343 344l-343 345l93 94l344 -346l343 346l94 -94l-344 -345l344 -344z" />
    <glyph glyph-name="Oslash" unicode="&#xd8;" horiz-adv-x="1421" 
d="M704 117q198 0 314 129q117 129 116 374v231q0 152 -48 267l-695 -858q115 -143 313 -143zM287 620q0 -135 40 -243l693 855q-114 139 -310 140q-256 0 -367 -236q-56 -119 -56 -285v-231zM1297 622q0 -310 -158 -482q-157 -172 -427 -171q-270 0 -423 164l-110 -137
l-96 79l131 162q-87 160 -87 385v229q0 310 159 489q160 179 420 179t416 -162l112 137l100 -70l-135 -167q98 -164 98 -406v-229z" />
    <glyph glyph-name="Ugrave" unicode="&#xd9;" horiz-adv-x="1442" 
d="M329 1486v-970q0 -183 105 -291t286 -108t288 108t108 291v970h160v-970q0 -248 -153 -398t-402 -149q-249 0 -402 152t-152 399v966h162zM830 1650h-145l-317 219h186z" />
    <glyph glyph-name="Uacute" unicode="&#xda;" horiz-adv-x="1442" 
d="M329 1486v-970q0 -183 105 -291t286 -108t288 108t108 291v970h160v-970q0 -248 -153 -398t-402 -149q-249 0 -402 152t-152 399v966h162zM618 1650l277 219h185l-316 -219h-146z" />
    <glyph glyph-name="Ucircumflex" unicode="&#xdb;" horiz-adv-x="1442" 
d="M329 1486v-970q0 -183 105 -291t286 -108t288 108t108 291v970h160v-970q0 -248 -153 -398t-402 -149q-249 0 -402 152t-152 399v966h162zM379 1646l306 254h81l306 -254h-160l-186 161h-4l-185 -161h-158z" />
    <glyph glyph-name="Udieresis" unicode="&#xdc;" horiz-adv-x="1442" 
d="M329 1486v-970q0 -183 105 -291t286 -108t288 108t108 291v970h160v-970q0 -248 -153 -398t-402 -149q-249 0 -402 152t-152 399v966h162zM820 1725q0 35 24 59t58 25q34 0 58 -24q24 -25 24 -61t-24 -60t-58 -24t-58 25t-24 60zM514 1725q0 35 23 59t57 25q34 0 58 -24
q24 -23 24 -59t-24 -61t-58 -25t-57 25t-23 60z" />
    <glyph glyph-name="Yacute" unicode="&#xdd;" horiz-adv-x="1169" 
d="M483 1650l277 219h185l-314 -219h-148zM666 0h-162v654l-498 832h188l389 -672h4l391 672h188l-500 -832v-654z" />
    <glyph glyph-name="Thorn" unicode="&#xde;" horiz-adv-x="1236" 
d="M348 1049v-531h291q137 0 197 21q59 21 88 49q65 63 65 195q0 266 -306 266h-335zM185 1486h160v-291h344q214 0 341 -105t127 -306t-127 -307t-341 -107h-341v-370h-163v1486z" />
    <glyph glyph-name="germandbls" unicode="&#xdf;" horiz-adv-x="1311" 
d="M345 0h-162v1141q0 196 120 309t323 114q202 1 324 -104t122 -267t-105 -270q-78 -78 -182 -97v-10q230 0 360 -178q67 -92 67 -226t-78 -236q-148 -195 -437 -195q-89 0 -160 21v135q60 -21 142 -21q253 2 338 159q32 60 32 139q0 142 -107 225t-288 83h-88v167h56
q108 0 199 81q91 82 91 200t-77 187t-202 69q-287 0 -288 -302v-1124z" />
    <glyph glyph-name="agrave" unicode="&#xe0;" horiz-adv-x="1142" 
d="M656 1317h-125l-248 298h169zM271 322q1 -94 71 -147q70 -54 186 -54t200 77q85 77 86 191v131h-306q-119 0 -178 -52t-59 -146zM568 1159q408 0 408 -360v-799h-156v158h-4q-46 -77 -131 -127t-201 -50t-200 43t-131 121t-47 182q0 150 103 239t295 90h310v141
q0 219 -254 219q-229 0 -254 -190h-156q8 154 114 244t304 89z" />
    <glyph glyph-name="aacute" unicode="&#xe1;" horiz-adv-x="1142" 
d="M593 1317h-125l204 298h169zM271 322q1 -94 71 -147q70 -54 186 -54t200 77q85 77 86 191v131h-306q-119 0 -178 -52t-59 -146zM568 1159q408 0 408 -360v-799h-156v158h-4q-46 -77 -131 -127t-201 -50t-200 43t-131 121t-47 182q0 150 103 239t295 90h310v141
q0 219 -254 219q-229 0 -254 -190h-156q8 154 114 244t304 89z" />
    <glyph glyph-name="acircumflex" unicode="&#xe2;" horiz-adv-x="1142" 
d="M298 1324l224 322h100l217 -324h-133l-134 220h-2l-139 -218h-133zM271 322q1 -94 71 -147q70 -54 186 -54t200 77q85 77 86 191v131h-306q-119 0 -178 -52t-59 -146zM568 1159q408 0 408 -360v-799h-156v158h-4q-46 -77 -131 -127t-201 -50t-200 43t-131 121t-47 182
q0 150 103 239t295 90h310v141q0 219 -254 219q-229 0 -254 -190h-156q8 154 114 244t304 89z" />
    <glyph glyph-name="atilde" unicode="&#xe3;" horiz-adv-x="1142" 
d="M258 1280q0 96 46 160t131 65q92 1 190 -113q26 -31 63 -31q36 0 57 39t23 86h108q0 -87 -50 -156t-118 -69q-106 -1 -158 57q-71 79 -109 81q-71 0 -75 -119h-108zM271 322q1 -94 71 -147q70 -54 186 -54t200 77q85 77 86 191v131h-306q-119 0 -178 -52t-59 -146z
M568 1159q408 0 408 -360v-799h-156v158h-4q-46 -77 -131 -127t-201 -50t-200 43t-131 121t-47 182q0 150 103 239t295 90h310v141q0 219 -254 219q-229 0 -254 -190h-156q8 154 114 244t304 89z" />
    <glyph glyph-name="adieresis" unicode="&#xe4;" horiz-adv-x="1142" 
d="M751 1268q-41 0 -67 28t-26 68q0 41 27 69t60 28q61 0 88 -47q12 -22 12 -56t-27 -62t-67 -28zM398 1461q48 -1 72 -47q12 -22 12 -56t-26 -62t-66 -28t-67 28t-27 68q0 41 27 69t75 28zM271 322q1 -94 71 -147q70 -54 186 -54t200 77q85 77 86 191v131h-306
q-119 0 -178 -52t-59 -146zM568 1159q408 0 408 -360v-799h-156v158h-4q-46 -77 -131 -127t-201 -50t-200 43t-131 121t-47 182q0 150 103 239t295 90h310v141q0 219 -254 219q-229 0 -254 -190h-156q8 154 114 244t304 89z" />
    <glyph glyph-name="aring" unicode="&#xe5;" horiz-adv-x="1142" 
d="M456 1499q0 -49 33 -83t81 -34t81 34t33 84t-32 82q-34 33 -82 33t-81 -34t-33 -82zM570 1303q-83 0 -141 56q-59 55 -59 139t58 141t142 57q82 0 142 -57t60 -140t-59 -140q-60 -56 -143 -56zM271 322q1 -94 71 -147q70 -54 186 -54t200 77q85 77 86 191v131h-306
q-119 0 -178 -52t-59 -146zM568 1159q408 0 408 -360v-799h-156v158h-4q-46 -77 -131 -127t-201 -50t-200 43t-131 121t-47 182q0 150 103 239t295 90h310v141q0 219 -254 219q-229 0 -254 -190h-156q8 154 114 244t304 89z" />
    <glyph glyph-name="ae" unicode="&#xe6;" horiz-adv-x="1844" 
d="M528 121q116 0 204 77q86 77 86 191v140h-306q-123 0 -185 -54q-63 -54 -63 -149t74 -150t190 -55zM1569 681q0 157 -77 247t-210 90t-218 -92t-86 -235v-37h591v27zM1292 -19q-162 0 -269 67t-143 166h-12q-42 -98 -140 -166t-226 -67q-128 0 -216 42q-86 42 -134 121
t-48 185q0 154 105 243t299 90h310v123q0 156 -124 207q-57 24 -138 24q-212 0 -254 -144h-156q8 92 62 158q107 130 356 129q118 1 212 -41t138 -123h12q48 79 143 122t209 42q204 0 329 -136t125 -365v-129h-754v-90q0 -137 86 -225t226 -89q104 0 172 43t84 103h169
q-13 -99 -111 -189q-50 -45 -132 -73t-180 -28z" />
    <glyph glyph-name="ccedilla" unicode="&#xe7;" horiz-adv-x="1111" 
d="M532 -400q146 0 147 92q0 54 -45 66t-112 13h-56v77l61 137q-196 19 -303 159t-107 358v139q0 231 123 375q124 144 330 144t322 -104q116 -103 117 -238h-160q-10 75 -81 137t-183 63q-152 0 -231 -107t-79 -276v-133q0 -162 83 -266q84 -104 214 -105q130 0 198 49
t87 126h161q-6 -118 -106 -212t-269 -109l-50 -116q103 0 163 -44q60 -43 60 -135t-68 -142t-162 -55q-96 -5 -170 16v106q50 -15 116 -15z" />
    <glyph glyph-name="egrave" unicode="&#xe8;" 
d="M277 668h601v4q0 213 -139 302q-69 44 -160 44q-139 0 -221 -96t-81 -250v-4zM593 -19q-233 0 -355 145t-121 384v108q0 332 205 471q105 71 257 70q227 1 345 -145t117 -394v-89h-764v-31q0 -223 137 -322q72 -53 184 -53t175 52t82 127h169q-20 -117 -116 -213
q-49 -49 -131 -79t-184 -31zM660 1317h-127l-246 298h169z" />
    <glyph glyph-name="eacute" unicode="&#xe9;" 
d="M277 668h601v4q0 213 -139 302q-69 44 -160 44q-139 0 -221 -96t-81 -250v-4zM593 -19q-233 0 -355 145t-121 384v108q0 332 205 471q105 71 257 70q227 1 345 -145t117 -394v-89h-764v-31q0 -223 137 -322q72 -53 184 -53t175 52t82 127h169q-20 -117 -116 -213
q-49 -49 -131 -79t-184 -31zM597 1317h-127l206 298h169z" />
    <glyph glyph-name="ecircumflex" unicode="&#xea;" 
d="M277 668h601v4q0 213 -139 302q-69 44 -160 44q-139 0 -221 -96t-81 -250v-4zM593 -19q-233 0 -355 145t-121 384v108q0 332 205 471q105 71 257 70q227 1 345 -145t117 -394v-89h-764v-31q0 -223 137 -322q72 -53 184 -53t175 52t82 127h169q-20 -117 -116 -213
q-49 -49 -131 -79t-184 -31zM300 1324l227 322h97l219 -324h-135l-131 220h-5l-137 -218h-135z" />
    <glyph glyph-name="edieresis" unicode="&#xeb;" 
d="M763 1461q47 -1 73 -47q12 -22 13 -56q0 -34 -27 -62q-26 -28 -66 -28t-67 28t-27 68q0 41 27 69t74 28zM391 1268q-41 0 -67 28t-26 68q0 41 27 69t60 28q97 1 99 -103q0 -34 -26 -62q-27 -28 -67 -28zM277 668h601v4q0 213 -139 302q-69 44 -160 44q-139 0 -221 -96
t-81 -250v-4zM593 -19q-233 0 -355 145t-121 384v108q0 332 205 471q105 71 257 70q227 1 345 -145t117 -394v-89h-764v-31q0 -223 137 -322q72 -53 184 -53t175 52t82 127h169q-20 -117 -116 -213q-49 -49 -131 -79t-184 -31z" />
    <glyph glyph-name="igrave" unicode="&#xec;" horiz-adv-x="555" 
d="M198 0v1141h160v-1141h-160zM362 1317h-125l-247 298h168z" />
    <glyph glyph-name="iacute" unicode="&#xed;" horiz-adv-x="555" 
d="M198 0v1141h160v-1141h-160zM300 1317h-125l204 298h168z" />
    <glyph glyph-name="icircumflex" unicode="&#xee;" horiz-adv-x="555" 
d="M198 0v1141h160v-1141h-160zM4 1324l225 322h100l216 -324h-133l-131 220h-4l-140 -218h-133z" />
    <glyph glyph-name="idieresis" unicode="&#xef;" horiz-adv-x="555" 
d="M468 1461q50 -1 72 -47q12 -22 12 -56t-28 -62t-66 -28q-40 0 -67 28t-27 68q0 41 27 69t77 28zM96 1461q40 0 66 -28t27 -69q0 -40 -27 -68q-26 -28 -66 -28t-67 28t-27 68q0 41 27 69t67 28zM198 0v1141h160v-1141h-160z" />
    <glyph glyph-name="eth" unicode="&#xf0;" horiz-adv-x="1196" 
d="M275 579v-82q0 -173 87 -273t237 -99q150 0 236 100q85 100 85 272v104q0 113 -40 193q-80 162 -281 161q-146 0 -235 -103t-89 -273zM597 -19q-212 0 -346 132t-134 368v116q0 227 136 363t343 137q207 0 316 -146h6l-8 69q-15 100 -64 185t-86 129l-310 -110l-30 96
l265 93q-94 89 -208 154l97 102q148 -73 265 -202l266 94l36 -92l-234 -83q173 -237 173 -558v-347q0 -233 -135 -367q-136 -133 -348 -133z" />
    <glyph glyph-name="ntilde" unicode="&#xf1;" horiz-adv-x="1246" 
d="M173 0v1141h160v-154h4q35 73 123 123t210 49q177 0 295 -106t117 -293v-760h-162v699q0 312 -287 313q-146 0 -223 -86t-77 -241v-685h-160zM310 1280q0 96 46 160t131 65q92 1 190 -113q26 -31 63 -31q36 0 57 39t23 86h108q0 -87 -50 -156t-118 -69q-106 -1 -158 57
q-35 39 -56 59t-53 22q-71 0 -75 -119h-108z" />
    <glyph glyph-name="ograve" unicode="&#xf2;" horiz-adv-x="1196" 
d="M599 1018q-167 0 -245 -114t-79 -300v-67q0 -187 78 -299q77 -112 245 -113q168 0 245 112t77 300v67q0 186 -77 300t-244 114zM599 1159q237 -1 359 -145t122 -392v-102q0 -248 -122 -394t-359 -145q-237 0 -360 145t-122 394v102q0 241 122 390q123 147 360 147z
M683 1317h-125l-248 298h169z" />
    <glyph glyph-name="oacute" unicode="&#xf3;" horiz-adv-x="1196" 
d="M599 1018q-167 0 -245 -114t-79 -300v-67q0 -187 78 -299q77 -112 245 -113q168 0 245 112t77 300v67q0 186 -77 300t-244 114zM599 1159q237 -1 359 -145t122 -392v-102q0 -248 -122 -394t-359 -145q-237 0 -360 145t-122 394v102q0 241 122 390q123 147 360 147z
M620 1317h-125l204 298h169z" />
    <glyph glyph-name="ocircumflex" unicode="&#xf4;" horiz-adv-x="1196" 
d="M599 1018q-167 0 -245 -114t-79 -300v-67q0 -187 78 -299q77 -112 245 -113q168 0 245 112t77 300v67q0 186 -77 300t-244 114zM599 1159q237 -1 359 -145t122 -392v-102q0 -248 -122 -394t-359 -145q-237 0 -360 145t-122 394v102q0 241 122 390q123 147 360 147z
M325 1324l224 322h100l217 -324h-133l-134 220h-2l-139 -218h-133z" />
    <glyph glyph-name="otilde" unicode="&#xf5;" horiz-adv-x="1196" 
d="M599 1018q-167 0 -245 -114t-79 -300v-67q0 -187 78 -299q77 -112 245 -113q168 0 245 112t77 300v67q0 186 -77 300t-244 114zM599 1159q237 -1 359 -145t122 -392v-102q0 -248 -122 -394t-359 -145q-237 0 -360 145t-122 394v102q0 241 122 390q123 147 360 147z
M285 1280q0 96 46 160t131 65q92 1 190 -113q26 -30 63 -31q36 0 57 39t23 86h108q0 -87 -50 -156q-51 -69 -119 -69q-104 -1 -156 57q-35 39 -57 59q-21 20 -53 22q-71 0 -75 -119h-108z" />
    <glyph glyph-name="odieresis" unicode="&#xf6;" horiz-adv-x="1196" 
d="M599 1018q-167 0 -245 -114t-79 -300v-67q0 -187 78 -299q77 -112 245 -113q168 0 245 112t77 300v67q0 186 -77 300t-244 114zM599 1159q237 -1 359 -145t122 -392v-102q0 -248 -122 -394t-359 -145q-237 0 -360 145t-122 394v102q0 241 122 390q123 147 360 147z
M772 1461q100 1 100 -103q0 -34 -27 -62t-67 -28t-66 28t-27 68q0 41 27 69t60 28zM510 1364q0 -40 -27 -68t-67 -28t-66 28q-27 28 -27 68q0 41 27 69q26 28 66 28t67 -28t27 -69z" />
    <glyph glyph-name="divide" unicode="&#xf7;" horiz-adv-x="1169" 
d="M460 185q0 56 38 95q39 38 95 38t95 -38q38 -38 38 -95q0 -56 -38 -93q-38 -38 -95 -38t-95 38t-38 93zM456 1008q0 93 80 126q24 10 66 10t80 -36q38 -38 38 -95t-38 -95q-39 -38 -105 -38q-65 0 -103 66q-18 30 -18 62zM1099 527h-1026v133h1026v-133z" />
    <glyph glyph-name="oslash" unicode="&#xf8;" horiz-adv-x="1196" 
d="M599 -19q-167 0 -287 92l-110 -152l-98 69l119 164q-106 133 -106 327v181q0 227 136 362t346 135q162 0 288 -93l110 154l96 -71l-121 -162q108 -137 108 -325v-181q0 -233 -135 -367q-136 -133 -346 -133zM271 468q0 -108 41 -189l493 676q-83 67 -217 67t-226 -104
t-91 -275v-175zM924 497v175q0 104 -42 188l-491 -675q81 -65 219 -65t227 103q87 102 87 274z" />
    <glyph glyph-name="ugrave" unicode="&#xf9;" horiz-adv-x="1240" 
d="M1070 1141v-1141h-160v156h-7q-33 -77 -118 -126t-217 -49q-181 0 -292 102t-112 294v764h161v-718q1 -104 39 -172q69 -122 246 -122q135 0 217 82t83 222v708h160zM706 1317h-127l-246 298h169z" />
    <glyph glyph-name="uacute" unicode="&#xfa;" horiz-adv-x="1240" 
d="M1070 1141v-1141h-160v156h-7q-33 -77 -118 -126t-217 -49q-181 0 -292 102t-112 294v764h161v-718q1 -104 39 -172q69 -122 246 -122q135 0 217 82t83 222v708h160zM643 1317h-127l206 298h169z" />
    <glyph glyph-name="ucircumflex" unicode="&#xfb;" horiz-adv-x="1240" 
d="M1070 1141v-1141h-160v156h-7q-33 -77 -118 -126t-217 -49q-181 0 -292 102t-112 294v764h161v-718q1 -104 39 -172q69 -122 246 -122q135 0 217 82t83 222v708h160zM345 1324l227 322h98l219 -324h-136l-131 220h-4l-137 -218h-136z" />
    <glyph glyph-name="udieresis" unicode="&#xfc;" horiz-adv-x="1240" 
d="M810 1461q48 -1 72 -47q12 -22 12 -56t-26 -62t-66 -28t-67 28t-27 68q0 41 27 69t75 28zM437 1268q-40 0 -67 28t-27 68q0 41 27 69t68 28t67 -28t26 -69q0 -40 -27 -68t-67 -28zM1070 1141v-1141h-160v156h-7q-33 -77 -118 -126t-217 -49q-181 0 -292 102t-112 294v764
h161v-718q1 -104 39 -172q69 -122 246 -122q135 0 217 82t83 222v708h160z" />
    <glyph glyph-name="yacute" unicode="&#xfd;" horiz-adv-x="1101" 
d="M572 1317h-125l204 298h169zM260 -412q-66 0 -125 8v136q255 -44 310 181l21 68l-424 1160h177l326 -974h7l324 974h171l-443 -1237q-89 -240 -219 -292q-59 -24 -125 -24z" />
    <glyph glyph-name="thorn" unicode="&#xfe;" horiz-adv-x="1238" 
d="M333 454q1 -142 89 -236t230 -93q142 0 225 96q84 96 85 283v133q0 185 -84 283t-231 98q-95 0 -167 -44q-146 -90 -147 -308v-212zM674 -19q-135 0 -216 56t-117 138h-8v-570h-160l-2 1960h152l4 -610h8q31 85 121 145t227 59q199 0 319 -130t120 -353v-210
q0 -225 -122 -355t-326 -130z" />
    <glyph glyph-name="ydieresis" unicode="&#xff;" horiz-adv-x="1101" 
d="M824 1358q0 -34 -27 -62t-67 -28t-66 28q-27 28 -27 68q0 41 27 69q26 28 60 28t54 -12q46 -26 46 -91zM462 1364q0 -40 -27 -68t-67 -28t-66 28q-27 28 -27 68q0 41 27 69q26 28 66 28t67 -28t27 -69zM260 -412q-66 0 -125 8v136q255 -44 310 181l21 68l-424 1160h177
l326 -974h7l324 974h171l-443 -1237q-89 -240 -219 -292q-59 -24 -125 -24z" />
    <glyph glyph-name="Amacron" unicode="&#x100;" horiz-adv-x="1288" 
d="M939 1673h-587v96h587v-96zM643 1286h-4l-237 -689h476zM198 0h-167l533 1486h160l533 -1486h-175l-158 462h-568z" />
    <glyph glyph-name="amacron" unicode="&#x101;" horiz-adv-x="1142" 
d="M864 1322h-591v106h591v-106zM271 322q1 -94 71 -147q70 -54 186 -54t200 77q85 77 86 191v131h-306q-119 0 -178 -52t-59 -146zM568 1159q408 0 408 -360v-799h-156v158h-4q-46 -77 -131 -127t-201 -50t-200 43t-131 121t-47 182q0 150 103 239t295 90h310v141
q0 219 -254 219q-229 0 -254 -190h-156q8 154 114 244t304 89z" />
    <glyph glyph-name="Abreve" unicode="&#x102;" horiz-adv-x="1288" 
d="M308 1900h119q0 -66 60 -112q59 -46 141 -46t132 22q102 45 102 136h118q0 -110 -82 -190t-253 -80t-254 80t-83 190zM643 1286h-4l-237 -689h476zM198 0h-167l533 1486h160l533 -1486h-175l-158 462h-568z" />
    <glyph glyph-name="abreve" unicode="&#x103;" horiz-adv-x="1142" 
d="M262 1553h119q0 -75 48 -127q49 -52 141 -52t140 52t48 127h118q0 -103 -73 -194t-229 -91t-234 88t-78 197zM271 322q1 -94 71 -147q70 -54 186 -54t200 77q85 77 86 191v131h-306q-119 0 -178 -52t-59 -146zM568 1159q408 0 408 -360v-799h-156v158h-4
q-46 -77 -131 -127t-201 -50t-200 43t-131 121t-47 182q0 150 103 239t295 90h310v141q0 219 -254 219q-229 0 -254 -190h-156q8 154 114 244t304 89z" />
    <glyph glyph-name="Aogonek" unicode="&#x104;" horiz-adv-x="1288" 
d="M645 1286h-6l-235 -689h476zM895 -212q0 146 175 256l-144 418h-570l-158 -462h-167l535 1486h158l531 -1476q-73 -18 -139 -66t-68 -112q-3 -64 32 -96q58 -51 181 -21v-113q-41 -20 -133 -20t-162 53t-71 153z" />
    <glyph glyph-name="aogonek" unicode="&#x105;" horiz-adv-x="1142" 
d="M568 1159q408 0 408 -360v-797q-79 -25 -136 -74t-57 -106t34 -83t86 -26t92 10v-116q-51 -23 -137 -23t-152 51t-65 145q0 94 47 153q47 58 132 113v112h-4q-46 -77 -131 -127t-201 -50t-200 43t-131 121t-47 182q0 150 103 239t295 90h310v141q0 219 -254 219
q-229 0 -254 -190h-156q8 154 114 244t304 89zM271 322q1 -94 71 -147q70 -54 186 -54t200 77q85 77 86 191v131h-306q-119 0 -178 -52t-59 -146z" />
    <glyph glyph-name="Cacute" unicode="&#x106;" horiz-adv-x="1352" 
d="M287 843v-206q1 -260 111 -390t296 -130q186 1 286 93q98 92 98 225h162q0 -166 -129 -309q-62 -70 -170 -114t-242 -43q-268 0 -420 173t-152 493v208q0 323 154 499t412 177q258 0 412 -160q86 -90 119 -216q15 -58 14 -117h-160q0 129 -96 233q-46 50 -120 81t-161 32
q-191 0 -303 -136t-111 -393zM597 1650l277 219h185l-314 -219h-148z" />
    <glyph glyph-name="cacute" unicode="&#x107;" horiz-adv-x="1111" 
d="M579 1317h-125l204 298h168zM117 502v139q0 231 123 375q124 144 330 144t322 -104q116 -103 117 -238h-160q-10 75 -81 137t-183 63q-152 0 -231 -107t-79 -276v-133q0 -162 83 -266q84 -104 214 -105q130 0 198 49t87 126h161q-8 -127 -125 -226t-325 -99t-330 144
q-121 144 -121 377z" />
    <glyph glyph-name="Ccircumflex" unicode="&#x108;" horiz-adv-x="1352" 
d="M358 1646l306 254h81l306 -254h-160l-185 161h-5l-185 -161h-158zM287 843v-206q1 -260 111 -390t296 -130q186 1 286 93q98 92 98 225h162q0 -166 -129 -309q-62 -70 -170 -114t-242 -43q-268 0 -420 173t-152 493v208q0 323 154 499t412 177q258 0 412 -160
q86 -90 119 -216q15 -58 14 -117h-160q0 129 -96 233q-46 50 -120 81t-161 32q-191 0 -303 -136t-111 -393z" />
    <glyph glyph-name="ccircumflex" unicode="&#x109;" horiz-adv-x="1111" 
d="M117 502v139q0 231 123 375q124 144 330 144t322 -104q116 -103 117 -238h-160q-10 75 -81 137t-183 63q-152 0 -231 -107t-79 -276v-133q0 -162 83 -266q84 -104 214 -105q130 0 198 49t87 126h161q-8 -127 -125 -226t-325 -99t-330 144q-121 144 -121 377zM283 1324
l225 322h100l216 -324h-133l-131 220h-4l-140 -218h-133z" />
    <glyph glyph-name="Cdotaccent" unicode="&#x10a;" horiz-adv-x="1352" 
d="M599 1755q-1 45 29 73t74 28t73 -28q30 -30 30 -74t-30 -72q-30 -29 -74 -29t-73 29t-29 73zM287 843v-206q1 -260 111 -390t296 -130q186 1 286 93q98 92 98 225h162q0 -166 -129 -309q-62 -70 -170 -114t-242 -43q-268 0 -420 173t-152 493v208q0 323 154 499t412 177
q258 0 412 -160q86 -90 119 -216q15 -58 14 -117h-160q0 129 -96 233q-46 50 -120 81t-161 32q-191 0 -303 -136t-111 -393z" />
    <glyph glyph-name="cdotaccent" unicode="&#x10b;" horiz-adv-x="1111" 
d="M456 1400q0 70 45 97q45 26 92 11q69 -22 69 -113q0 -30 -29 -59t-73 -29t-74 29q-30 26 -30 64zM117 502v139q0 231 123 375q124 144 330 144t322 -104q116 -103 117 -238h-160q-10 75 -81 137t-183 63q-152 0 -231 -107t-79 -276v-133q0 -162 83 -266q84 -104 214 -105
q130 0 198 49t87 126h161q-8 -127 -125 -226t-325 -99t-330 144q-121 144 -121 377z" />
    <glyph glyph-name="Ccaron" unicode="&#x10c;" horiz-adv-x="1352" 
d="M356 1877h158l185 -147h4l188 147h158l-304 -233h-85zM287 843v-206q1 -260 111 -390t296 -130q186 1 286 93q98 92 98 225h162q0 -166 -129 -309q-62 -70 -170 -114t-242 -43q-268 0 -420 173t-152 493v208q0 323 154 499t412 177q258 0 412 -160q86 -90 119 -216
q15 -58 14 -117h-160q0 129 -96 233q-46 50 -120 81t-161 32q-191 0 -303 -136t-111 -393z" />
    <glyph glyph-name="ccaron" unicode="&#x10d;" horiz-adv-x="1111" 
d="M117 502v139q0 231 123 375q124 144 330 144t322 -104q116 -103 117 -238h-160q-10 75 -81 137t-183 63q-152 0 -231 -107t-79 -276v-133q0 -162 83 -266q84 -104 214 -105q130 0 198 49t87 126h161q-8 -127 -125 -226t-325 -99t-330 144q-121 144 -121 377zM283 1632
h133l140 -221h4l131 223h133l-216 -325h-100z" />
    <glyph glyph-name="Dcaron" unicode="&#x10e;" horiz-adv-x="1400" 
d="M348 1338v-1190h289q491 0 491 595t-491 595h-289zM643 1486q648 0 652 -743q0 -331 -148 -537t-504 -206h-458v1486h458zM308 1877h158l185 -147h5l187 147h158l-304 -233h-85z" />
    <glyph glyph-name="dcaron" unicode="&#x10f;" horiz-adv-x="1409" 
d="M907 626q0 180 -85 286t-236 106t-230 -108t-79 -292v-94q0 -185 80 -293t232 -108t235 106t83 291v106zM566 1159q134 0 220 -52t115 -129h6v587h159v-1565h-150v177h-4q-21 -75 -115 -134t-231 -60q-214 -1 -332 139t-117 371v156q0 229 117 370q118 140 332 140z
M1284 1565h150l-44 -533h-106v533z" />
    <glyph glyph-name="Dcroat" unicode="&#x110;" horiz-adv-x="1479" 
d="M429 148h287q493 0 493 595t-493 595h-287v-505h349v-144h-349v-541zM724 1486q648 0 652 -743q0 -331 -148 -537t-504 -206h-458v689h-174v144h174v653h458z" />
    <glyph glyph-name="dcroat" unicode="&#x111;" horiz-adv-x="1242" 
d="M119 689q0 212 121 341q122 129 324 129q134 0 220 -56t115 -135h8v320h-289v129h289v198h161v-198h145v-129h-145v-1288h-152v187h-9q-23 -79 -115 -141t-232 -63q-198 0 -320 127t-121 344v235zM585 1018q-190 0 -270 -171q-39 -83 -38 -200v-152q0 -177 85 -275
t229 -97q144 0 230 97t86 257v210q0 143 -90 237t-232 94z" />
    <glyph glyph-name="Emacron" unicode="&#x112;" horiz-adv-x="1186" 
d="M914 1673h-587v96h587v-96zM1061 148v-148h-876v1486h876v-148h-713v-505h676v-146h-676v-539h713z" />
    <glyph glyph-name="emacron" unicode="&#x113;" 
d="M868 1322h-591v106h591v-106zM277 668h601v4q0 213 -139 302q-69 44 -160 44q-139 0 -221 -96t-81 -250v-4zM593 -19q-233 0 -355 145t-121 384v108q0 332 205 471q105 71 257 70q227 1 345 -145t117 -394v-89h-764v-31q0 -223 137 -322q72 -53 184 -53t175 52t82 127
h169q-20 -117 -116 -213q-49 -49 -131 -79t-184 -31z" />
    <glyph glyph-name="Ebreve" unicode="&#x114;" horiz-adv-x="1186" 
d="M283 1900h119q0 -92 103 -136q51 -22 115 -22t115 22q102 45 102 136h118q0 -110 -82 -190t-253 -80t-254 80t-83 190zM1061 148v-148h-876v1486h876v-148h-713v-505h676v-146h-676v-539h713z" />
    <glyph glyph-name="ebreve" unicode="&#x115;" 
d="M383 1553q0 -75 49 -127q50 -52 142 -52t140 52t48 127h116q0 -101 -71 -193t-228 -92t-236 88t-77 197h117zM277 668h601v4q0 213 -139 302q-69 44 -160 44q-139 0 -221 -96t-81 -250v-4zM593 -19q-233 0 -355 145t-121 384v108q0 332 205 471q105 71 257 70
q227 1 345 -145t117 -394v-89h-764v-31q0 -223 137 -322q72 -53 184 -53t175 52t82 127h169q-20 -117 -116 -213q-49 -49 -131 -79t-184 -31z" />
    <glyph glyph-name="Edotaccent" unicode="&#x116;" horiz-adv-x="1186" 
d="M1061 148v-148h-876v1486h876v-148h-713v-505h676v-146h-676v-539h713zM520 1755q0 45 29 73t73 28t74 -28q30 -30 30 -66t-14 -59q-31 -52 -82 -51q-52 1 -81 30t-29 73z" />
    <glyph glyph-name="edotaccent" unicode="&#x117;" 
d="M277 668h601v4q0 213 -139 302q-69 44 -160 44q-139 0 -221 -96t-81 -250v-4zM593 -19q-233 0 -355 145t-121 384v108q0 332 205 471q105 71 257 70q227 1 345 -145t117 -394v-89h-764v-31q0 -223 137 -322q72 -53 184 -53t175 52t82 127h169q-20 -117 -116 -213
q-49 -49 -131 -79t-184 -31zM475 1399q0 70 49 100t106 1q51 -30 51 -94t-64 -91q-20 -8 -51 -8t-62 29q-29 24 -29 63z" />
    <glyph glyph-name="Eogonek" unicode="&#x118;" horiz-adv-x="1186" 
d="M185 0v1486h876v-148h-716v-505h679v-146h-676v-539h713v-133q-85 -21 -148 -72t-63 -117q-1 -120 128 -122q42 0 86 11v-115q-104 -37 -202 -9q-155 44 -152 197q0 133 137 212h-662z" />
    <glyph glyph-name="eogonek" unicode="&#x119;" 
d="M277 668h601v4q0 213 -139 302q-69 44 -160 44q-139 0 -221 -96t-81 -250v-4zM593 -19q-233 0 -355 145t-121 384v108q0 332 205 471q105 71 257 70q227 1 345 -145t117 -394v-89h-764v-31q0 -223 137 -322q72 -53 184 -53t175 52t82 127h169q-25 -134 -150 -252
t-125 -223q1 -54 37 -85t85 -31t91 10v-118q-40 -21 -130 -21t-157 54q-68 54 -67 152q0 52 20 96t34 60t48 50l-4 10q-40 -25 -113 -25z" />
    <glyph glyph-name="Ecaron" unicode="&#x11a;" horiz-adv-x="1186" 
d="M1061 148v-148h-876v1486h876v-148h-713v-505h676v-146h-676v-539h713zM275 1877h158l185 -147h6l188 147h156l-302 -233h-87z" />
    <glyph glyph-name="ecaron" unicode="&#x11b;" 
d="M277 668h601v4q0 213 -139 302q-69 44 -160 44q-139 0 -221 -96t-81 -250v-4zM593 -19q-233 0 -355 145t-121 384v108q0 332 205 471q105 71 257 70q227 1 345 -145t117 -394v-89h-764v-31q0 -223 137 -322q72 -53 184 -53t175 52t82 127h169q-20 -117 -116 -213
q-49 -49 -131 -79t-184 -31zM300 1632h135l137 -221h5l131 223h135l-219 -325h-97z" />
    <glyph glyph-name="Gcircumflex" unicode="&#x11c;" horiz-adv-x="1379" 
d="M287 853v-212q0 -248 107 -386q106 -138 294 -138t299 94q110 95 110 247v158h-404v148h562v-306q0 -134 -83 -267t-254 -190q-96 -32 -212 -32q-283 0 -431 179t-148 493v212q0 312 159 489q158 177 414 177t396 -137t153 -335h-160q-19 156 -123 240q-104 85 -272 85
t-288 -130q-119 -130 -119 -389zM366 1646l306 254h84l303 -254h-158l-185 161h-6l-183 -161h-161z" />
    <glyph glyph-name="gcircumflex" unicode="&#x11d;" horiz-adv-x="1202" 
d="M891 639q1 159 -83 269t-228 110t-231 -103q-88 -103 -89 -278v-115q0 -172 91 -270t235 -98t224 104q81 104 81 254v127zM586 -281q142 0 225 77q82 77 82 221v183h-4q-35 -77 -125 -132t-208 -56q-196 0 -325 134t-129 354v166q0 221 129 357t327 136q244 0 337 -181h4
v163h152v-1118q0 -223 -129 -335q-130 -112 -348 -112t-328 95q-110 96 -119 231h169q8 -75 78 -129t212 -54zM329 1324l225 322h100l216 -324h-135l-131 220h-5l-137 -218h-133z" />
    <glyph glyph-name="Gbreve" unicode="&#x11e;" horiz-adv-x="1379" 
d="M373 1900h118q1 -66 61 -112t142 -46t130 22q102 45 102 136h119q0 -101 -77 -185q-77 -85 -253 -85t-259 80t-83 190zM287 853v-212q0 -248 107 -386q106 -138 294 -138t299 94q110 95 110 247v158h-404v148h562v-306q0 -134 -83 -267t-254 -190q-96 -32 -212 -32
q-283 0 -431 179t-148 493v212q0 312 159 489q158 177 414 177t396 -137t153 -335h-160q-19 156 -123 240q-104 85 -272 85t-288 -130q-119 -130 -119 -389z" />
    <glyph glyph-name="gbreve" unicode="&#x11f;" horiz-adv-x="1202" 
d="M891 639q1 159 -83 269t-228 110t-231 -103q-88 -103 -89 -278v-115q0 -172 91 -270t235 -98t224 104q81 104 81 254v127zM586 -281q142 0 225 77q82 77 82 221v183h-4q-35 -77 -125 -132t-208 -56q-196 0 -325 134t-129 354v166q0 221 129 357t327 136q244 0 337 -181h4
v163h152v-1118q0 -223 -129 -335q-130 -112 -348 -112t-328 95q-110 96 -119 231h169q8 -75 78 -129t212 -54zM410 1553q0 -75 49 -127t141 -52t141 52q48 52 48 127h118q-4 -103 -74 -194t-227 -91t-236 88t-77 197h117z" />
    <glyph glyph-name="Gdotaccent" unicode="&#x120;" horiz-adv-x="1379" 
d="M287 853v-212q0 -248 107 -386q106 -138 294 -138t299 94q110 95 110 247v158h-404v148h562v-306q0 -134 -83 -267t-254 -190q-96 -32 -212 -32q-283 0 -431 179t-148 493v212q0 312 159 489q158 177 414 177t396 -137t153 -335h-160q-19 156 -123 240q-104 85 -272 85
t-288 -130q-119 -130 -119 -389zM816 1766q0 -113 -116 -113q-32 0 -61 29t-29 73q0 45 29 73t73 28t74 -28q30 -30 30 -62z" />
    <glyph glyph-name="gdotaccent" unicode="&#x121;" horiz-adv-x="1202" 
d="M891 639q1 159 -83 269t-228 110t-231 -103q-88 -103 -89 -278v-115q0 -172 91 -270t235 -98t224 104q81 104 81 254v127zM586 -281q142 0 225 77q82 77 82 221v183h-4q-35 -77 -125 -132t-208 -56q-196 0 -325 134t-129 354v166q0 221 129 357t327 136q244 0 337 -181h4
v163h152v-1118q0 -223 -129 -335q-130 -112 -348 -112t-328 95q-110 96 -119 231h169q8 -75 78 -129t212 -54zM502 1409q0 61 44 87q44 27 83 14q40 -13 59 -38q18 -25 19 -66t-29 -70t-68 -29q-64 0 -95 50q-13 23 -13 52z" />
    <glyph glyph-name="Gcommaaccent" unicode="&#x122;" horiz-adv-x="1379" 
d="M287 853v-212q0 -248 107 -386q106 -138 294 -138t299 94q110 95 110 247v158h-404v148h562v-306q0 -134 -83 -267t-254 -190q-96 -32 -212 -32q-283 0 -431 179t-148 493v212q0 312 159 489q158 177 414 177t396 -137t153 -335h-160q-19 156 -123 240q-104 85 -272 85
t-288 -130q-119 -130 -119 -389zM679 -531h-130l92 364h162z" />
    <glyph glyph-name="gcommaaccent" unicode="&#x123;" horiz-adv-x="1202" 
d="M891 639q1 159 -83 269t-228 110t-231 -103q-88 -103 -89 -278v-115q0 -172 91 -270t235 -98t224 104q81 104 81 254v127zM586 -281q142 0 225 77q82 77 82 221v183h-4q-35 -77 -125 -132t-208 -56q-196 0 -325 134t-129 354v166q0 221 129 357t327 136q244 0 337 -181h4
v163h152v-1118q0 -223 -129 -335q-130 -112 -348 -112t-328 95q-110 96 -119 231h169q8 -75 78 -129t212 -54zM599 1725h129l-91 -364h-162z" />
    <glyph glyph-name="Hcircumflex" unicode="&#x124;" horiz-adv-x="1475" 
d="M395 1646l306 254h82l306 -254h-159l-185 161h-6l-185 -161h-159zM1290 0h-162v699h-780v-699h-163v1486h163v-641h780v641h162v-1486z" />
    <glyph glyph-name="hcircumflex" unicode="&#x125;" horiz-adv-x="1255" 
d="M-21 1748l225 323h100l216 -325h-135l-131 221h-4l-138 -219h-133zM175 0v1565h160v-578h6q31 69 113 121t210 51q191 0 308 -124t117 -321v-714h-161v683q0 149 -74 239t-213 90q-196 0 -271 -157q-35 -75 -35 -176v-679h-160z" />
    <glyph glyph-name="Hbar" unicode="&#x126;" horiz-adv-x="1475" 
d="M348 668v-668h-163v1095h-127v129h127v262h163v-262h780v262h162v-262h129v-129h-129v-1095h-162v668h-780zM348 816h780v279h-780v-279z" />
    <glyph glyph-name="hbar" unicode="&#x127;" horiz-adv-x="1255" 
d="M335 645v-645h-160v1288h-133v129h133v148h160v-148h300v-129h-300v-358h8q20 69 99 144q41 37 110 61t151 24q173 0 279 -98t107 -283v-778h-161v728q0 140 -72 216t-212 76t-225 -106q-84 -107 -84 -269z" />
    <glyph glyph-name="Itilde" unicode="&#x128;" horiz-adv-x="536" 
d="M150 1744q-69 0 -73 -106h-104q0 84 45 144t131 60t164 -92q11 -12 17 -16t16 -14q11 -10 42 -9q30 0 50 35t22 79h104q0 -109 -81 -175q-40 -31 -93 -31q-52 0 -86 18q-34 19 -76 63t-78 44zM350 0h-163v1486h163v-1486z" />
    <glyph glyph-name="itilde" unicode="&#x129;" horiz-adv-x="555" 
d="M-35 1280q-1 96 45 160t132 65q86 0 162 -83q4 -2 14 -14q37 -46 75 -47q37 0 59 39q21 39 23 86h108q0 -87 -50 -156q-51 -69 -119 -69q-106 -1 -158 57q-71 79 -108 81q-71 0 -75 -119h-108zM198 0v1141h160v-1141h-160z" />
    <glyph glyph-name="Imacron" unicode="&#x12a;" horiz-adv-x="536" 
d="M562 1673h-589v96h589v-96zM350 0h-163v1486h163v-1486z" />
    <glyph glyph-name="imacron" unicode="&#x12b;" horiz-adv-x="555" 
d="M570 1322h-589v106h589v-106zM198 0v1141h160v-1141h-160z" />
    <glyph glyph-name="Ibreve" unicode="&#x12c;" horiz-adv-x="536" 
d="M-69 1900h119q0 -66 60 -112t157 -46t158 46q60 46 60 112h119q0 -110 -82 -190t-254 -80q-171 0 -254 80t-83 190zM350 0h-163v1486h163v-1486z" />
    <glyph glyph-name="ibreve" unicode="&#x12d;" horiz-adv-x="555" 
d="M-31 1553h118q0 -75 48 -127t141 -52q94 0 142 52t48 127h117q0 -101 -73 -193t-229 -92t-234 88t-78 197zM198 0v1141h160v-1141h-160z" />
    <glyph glyph-name="Iogonek" unicode="&#x12e;" horiz-adv-x="536" 
d="M187 1486h163v-1486q-183 -60 -183 -185q0 -109 124 -111q44 0 88 11v-113q-37 -20 -132 -20t-160 53t-64 153q0 160 164 249v1449z" />
    <glyph glyph-name="iogonek" unicode="&#x12f;" horiz-adv-x="561" 
d="M158 1494q0 52 36 88t87 35q52 0 87 -35q36 -36 36 -88t-36 -86t-87 -34t-87 34t-36 86zM256 -416q-94 0 -158 53t-65 153q0 162 169 247v1104h160v-1139q-185 -60 -185 -185q0 -71 61 -98q28 -12 69 -12t84 10v-110q-41 -23 -135 -23z" />
    <glyph glyph-name="Idotaccent" unicode="&#x130;" horiz-adv-x="536" 
d="M169 1755q0 45 29 73q28 28 72 28t74 -28q30 -30 30 -74t-30 -72q-30 -29 -74 -29t-72 29t-29 73zM350 0h-163v1486h163v-1486z" />
    <glyph glyph-name="dotlessi" unicode="&#x131;" horiz-adv-x="555" 
d="M198 0v1141h160v-1141h-160z" />
    <glyph glyph-name="Jcircumflex" unicode="&#x134;" horiz-adv-x="1026" 
d="M425 1646l306 254h81l306 -254h-161l-185 161h-4l-185 -161h-158zM29 327h158q4 -92 72 -150q67 -58 177 -58q110 -1 180 69t71 216v1082h162v-1066q0 -223 -114 -337q-113 -114 -301 -114t-297 100q-108 100 -108 258z" />
    <glyph glyph-name="jcircumflex" unicode="&#x135;" horiz-adv-x="561" 
d="M10 1309l227 323h98l217 -325h-134l-131 221h-4l-137 -219h-136zM362 1141v-1183q0 -362 -291 -362q-69 0 -104 11v129q29 -4 73 -4q89 0 125 54t37 174v1181h160z" />
    <glyph glyph-name="Kcommaaccent" unicode="&#x136;" horiz-adv-x="1267" 
d="M601 -531h-129l94 364h160zM348 0h-163v1486h163v-737h6l672 737h196l-564 -635l593 -851h-208l-508 739l-187 -202v-537z" />
    <glyph glyph-name="kcommaaccent" unicode="&#x137;" horiz-adv-x="1084" 
d="M539 -531h-131l94 364h160zM335 0h-160v1565h160v-953h6l502 531h187l-462 -496l491 -647h-193l-414 545l-117 -114v-431z" />
    <glyph glyph-name="Lacute" unicode="&#x139;" horiz-adv-x="1076" 
d="M1049 148v-148h-864v1486h163v-1338h701zM164 1650l275 219h185l-314 -219h-146z" />
    <glyph glyph-name="lacute" unicode="&#x13a;" horiz-adv-x="520" 
d="M181 0v1565h160v-1565h-160zM283 1742h-127l206 298h169z" />
    <glyph glyph-name="Lcommaaccent" unicode="&#x13b;" horiz-adv-x="1076" 
d="M1049 148v-148h-864v1486h163v-1338h701zM518 -531h-131l94 364h160z" />
    <glyph glyph-name="lcommaaccent" unicode="&#x13c;" horiz-adv-x="520" 
d="M181 0v1565h160v-1565h-160zM229 -531h-129l94 364h160z" />
    <glyph glyph-name="Lcaron" unicode="&#x13d;" horiz-adv-x="1076" 
d="M1049 148v-148h-864v1486h163v-1338h701zM618 1565h160l-52 -531h-108v531z" />
    <glyph glyph-name="lcaron" unicode="&#x13e;" horiz-adv-x="666" 
d="M181 0v1565h160v-1565h-160zM545 1565h150l-46 -533h-104v533z" />
    <glyph glyph-name="Lslash" unicode="&#x141;" horiz-adv-x="1084" 
d="M1057 0h-863v597l-144 -85v162l144 86v726h162v-633l431 254v-166l-431 -250v-543h701v-148z" />
    <glyph glyph-name="lslash" unicode="&#x142;" horiz-adv-x="580" 
d="M370 0h-158v689l-177 -125v164l177 125v712h158v-599l175 125v-165l-175 -125v-801z" />
    <glyph glyph-name="Nacute" unicode="&#x143;" horiz-adv-x="1475" 
d="M348 0h-163v1486h163l776 -1207h4v1207h162v-1486h-162l-776 1207h-4v-1207zM637 1650l277 219h183l-314 -219h-146z" />
    <glyph glyph-name="nacute" unicode="&#x144;" horiz-adv-x="1246" 
d="M173 0v1141h160v-154h4q35 73 123 123t210 49q177 0 295 -106t117 -293v-760h-162v699q0 312 -287 313q-146 0 -223 -86t-77 -241v-685h-160zM645 1317h-125l204 298h169z" />
    <glyph glyph-name="Ncommaaccent" unicode="&#x145;" horiz-adv-x="1475" 
d="M348 0h-163v1486h163l776 -1207h4v1207h162v-1486h-162l-776 1207h-4v-1207zM708 -531h-131l93 364h160z" />
    <glyph glyph-name="ncommaaccent" unicode="&#x146;" horiz-adv-x="1246" 
d="M173 0v1141h160v-154h4q35 73 123 123t210 49q177 0 295 -106t117 -293v-760h-162v699q0 312 -287 313q-146 0 -223 -86t-77 -241v-685h-160zM593 -531h-131l94 364h160z" />
    <glyph glyph-name="Ncaron" unicode="&#x147;" horiz-adv-x="1475" 
d="M348 0h-163v1486h163l776 -1207h4v1207h162v-1486h-162l-776 1207h-4v-1207zM393 1877h159l185 -147h4l189 147h156l-303 -233h-86z" />
    <glyph glyph-name="ncaron" unicode="&#x148;" horiz-adv-x="1246" 
d="M173 0v1141h160v-154h4q35 73 123 123t210 49q177 0 295 -106t117 -293v-760h-162v699q0 312 -287 313q-146 0 -223 -86t-77 -241v-685h-160zM350 1632h133l139 -221h2l134 223h133l-217 -325h-100z" />
    <glyph glyph-name="Omacron" unicode="&#x14c;" horiz-adv-x="1421" 
d="M1005 1673h-589v96h589v-96zM127 622v229q0 310 159 489t428 179t426 -178t157 -490v-229q-1 -310 -159 -482t-428 -172t-427 172q-156 172 -156 482zM287 851v-231q0 -250 118 -376q118 -127 307 -127t306 129t116 374v231q0 248 -117 384q-118 136 -307 137
q-256 0 -367 -236q-56 -118 -56 -285z" />
    <glyph glyph-name="omacron" unicode="&#x14d;" horiz-adv-x="1196" 
d="M599 1018q-167 0 -245 -114t-79 -300v-67q0 -187 78 -299q77 -112 245 -113q168 0 245 112t77 300v67q0 186 -77 300t-244 114zM599 1159q237 -1 359 -145t122 -392v-102q0 -248 -122 -394t-359 -145q-237 0 -360 145t-122 394v102q0 241 122 390q123 147 360 147z
M891 1322h-591v106h591v-106z" />
    <glyph glyph-name="Obreve" unicode="&#x14e;" horiz-adv-x="1421" 
d="M375 1900h118q0 -91 102 -136q50 -22 115 -22q64 0 114 22q102 45 102 136h121q0 -110 -83 -190t-254 -80t-253 80t-82 190zM127 622v229q0 310 159 489t428 179t426 -178t157 -490v-229q-1 -310 -159 -482t-428 -172t-427 172q-156 172 -156 482zM287 851v-231
q0 -250 118 -376q118 -127 307 -127t306 129t116 374v231q0 248 -117 384q-118 136 -307 137q-256 0 -367 -236q-56 -118 -56 -285z" />
    <glyph glyph-name="obreve" unicode="&#x14f;" horiz-adv-x="1196" 
d="M599 1018q-167 0 -245 -114t-79 -300v-67q0 -187 78 -299q77 -112 245 -113q168 0 245 112t77 300v67q0 186 -77 300t-244 114zM599 1159q237 -1 359 -145t122 -392v-102q0 -248 -122 -394t-359 -145q-237 0 -360 145t-122 394v102q0 241 122 390q123 147 360 147z
M289 1553h119q0 -75 48 -127t140 -52t141 52q48 52 48 127h118q0 -101 -73 -193t-229 -92t-234 88t-78 197z" />
    <glyph glyph-name="Ohungarumlaut" unicode="&#x150;" horiz-adv-x="1421" 
d="M127 622v229q0 310 159 489t428 179t426 -178t157 -490v-229q-1 -310 -159 -482t-428 -172t-427 172q-156 172 -156 482zM287 851v-231q0 -250 118 -376q118 -127 307 -127t306 129t116 374v231q0 248 -117 384q-118 136 -307 137q-256 0 -367 -236q-56 -118 -56 -285z
M776 1650l298 234h166l-312 -234h-152zM458 1650l295 234h167l-310 -234h-152z" />
    <glyph glyph-name="ohungarumlaut" unicode="&#x151;" horiz-adv-x="1196" 
d="M599 1018q-167 0 -245 -114t-79 -300v-67q0 -187 78 -299q77 -112 245 -113q168 0 245 112t77 300v67q0 186 -77 300t-244 114zM599 1159q237 -1 359 -145t122 -392v-102q0 -248 -122 -394t-359 -145q-237 0 -360 145t-122 394v102q0 241 122 390q123 147 360 147z
M768 1315h-112l229 335h149zM485 1315h-108l229 335h147z" />
    <glyph glyph-name="OE" unicode="&#x152;" horiz-adv-x="2129" 
d="M708 -31q-268 0 -425 171q-156 172 -156 482v229q0 310 158 489t427 179q133 0 243 -50t169 -143h12v160h866v-148h-705v-505h666v-146h-666v-539h705v-148h-866v169h-12q-62 -96 -172 -148t-244 -52zM287 851v-231q0 -164 56 -280q108 -223 367 -223q191 1 309 123
t117 361v277q0 241 -117 368q-118 126 -307 126t-307 -136t-118 -385z" />
    <glyph glyph-name="oe" unicode="&#x153;" horiz-adv-x="1956" 
d="M1080 654h602v18q0 104 -38 183q-37 79 -105 121t-157 42q-138 0 -220 -94t-82 -252v-18zM275 643v-146q0 -173 87 -273t237 -99q150 0 236 100q85 100 85 272v146q0 111 -40 197q-83 178 -281 178q-146 0 -235 -102t-89 -273zM599 -19q-214 0 -348 132t-134 368v181
q0 227 136 362t346 135q277 0 394 -208h12q72 133 223 183q73 25 154 25q204 0 332 -136t128 -365v-129h-762v-59q0 -213 143 -300q71 -45 173 -45t173 43t90 103h168q-13 -97 -122 -193q-109 -97 -325 -97q-116 0 -220 56t-155 154h-12q-55 -98 -161 -154t-233 -56z" />
    <glyph glyph-name="Racute" unicode="&#x154;" horiz-adv-x="1309" 
d="M348 751h333q156 0 243 74t86 217q-1 142 -87 220t-236 78h-339v-589zM708 1486q186 0 304 -86q164 -125 164 -349q0 -169 -81 -271t-202 -141l308 -639h-185l-285 606h-383v-606h-163v1486h523zM514 1650l277 219h183l-314 -219h-146z" />
    <glyph glyph-name="racute" unicode="&#x155;" horiz-adv-x="745" 
d="M191 0v1141h159v-142h4q37 77 83 107q76 51 206 51q27 0 71 -4v-148q-23 4 -90 4q-144 0 -210 -78t-64 -213v-718h-159zM466 1317h-127l206 298h169z" />
    <glyph glyph-name="Rcommaaccent" unicode="&#x156;" horiz-adv-x="1309" 
d="M585 -531h-129l91 364h163zM348 751h333q156 0 243 74t86 217q-1 142 -87 220t-236 78h-339v-589zM708 1486q186 0 304 -86q164 -125 164 -349q0 -169 -81 -271t-202 -141l308 -639h-185l-285 606h-383v-606h-163v1486h523z" />
    <glyph glyph-name="rcommaaccent" unicode="&#x157;" horiz-adv-x="745" 
d="M241 -531h-131l94 364h160zM191 0v1141h159v-142h4q37 77 83 107q76 51 206 51q27 0 71 -4v-148q-23 4 -90 4q-144 0 -210 -78t-64 -213v-718h-159z" />
    <glyph glyph-name="Rcaron" unicode="&#x158;" horiz-adv-x="1309" 
d="M271 1877h158l185 -147h6l188 147h156l-302 -233h-88zM348 751h333q156 0 243 74t86 217q-1 142 -87 220t-236 78h-339v-589zM708 1486q186 0 304 -86q164 -125 164 -349q0 -169 -81 -271t-202 -141l308 -639h-185l-285 606h-383v-606h-163v1486h523z" />
    <glyph glyph-name="rcaron" unicode="&#x159;" horiz-adv-x="745" 
d="M191 0v1141h159v-142h4q37 77 83 107q76 51 206 51q27 0 71 -4v-148q-23 4 -90 4q-144 0 -210 -78t-64 -213v-718h-159zM171 1632h133l139 -221h2l132 223h135l-217 -325h-100z" />
    <glyph glyph-name="Sacute" unicode="&#x15a;" horiz-adv-x="1246" 
d="M976 380q0 114 -62 172q-62 60 -196 95l-258 69q-140 39 -241 129q-100 90 -100 256q0 98 41 179q79 152 273 213q89 28 177 28q264 0 408 -145q104 -104 108 -269h-162q-10 117 -98 192t-244 75q-154 0 -246 -70t-93 -193q0 -179 221 -237l252 -69q288 -77 360 -247
q27 -67 27 -152q0 -208 -154 -322t-392 -115q-137 -1 -242 39q-181 68 -251 240q-29 70 -31 145h164q8 -113 107 -195q99 -83 267 -82q169 2 267 76t98 188zM518 1650l277 219h185l-316 -219h-146z" />
    <glyph glyph-name="sacute" unicode="&#x15b;" horiz-adv-x="1059" 
d="M552 1317h-125l204 298h168zM117 822q0 164 118 251q119 86 303 86q184 -1 286 -97t102 -240h-150q-4 76 -63 141q-58 65 -180 65q-121 0 -190 -51t-68 -138q0 -109 117 -151q56 -21 147 -38q92 -18 143 -30q273 -64 273 -282q0 -118 -57 -198q-113 -160 -384 -159
q-190 -1 -304 87t-114 236h156q12 -85 80 -137q68 -53 196 -53t198 54q71 54 71 135q0 80 -41 113q-23 19 -44 33t-82 30t-126 30t-146 35t-121 48q-87 62 -103 119q-17 57 -17 111z" />
    <glyph glyph-name="Scircumflex" unicode="&#x15c;" horiz-adv-x="1246" 
d="M277 1646l308 254h81l304 -254h-158l-186 161h-6l-183 -161h-160zM976 380q0 114 -62 172q-62 60 -196 95l-258 69q-140 39 -241 129q-100 90 -100 256q0 98 41 179q79 152 273 213q89 28 177 28q264 0 408 -145q104 -104 108 -269h-162q-10 117 -98 192t-244 75
q-154 0 -246 -70t-93 -193q0 -179 221 -237l252 -69q288 -77 360 -247q27 -67 27 -152q0 -208 -154 -322t-392 -115q-137 -1 -242 39q-181 68 -251 240q-29 70 -31 145h164q8 -113 107 -195q99 -83 267 -82q169 2 267 76t98 188z" />
    <glyph glyph-name="scircumflex" unicode="&#x15d;" horiz-adv-x="1059" 
d="M117 822q0 164 118 251q119 86 303 86q184 -1 286 -97t102 -240h-150q-4 76 -63 141q-58 65 -180 65q-121 0 -190 -51t-68 -138q0 -109 117 -151q56 -21 147 -38q92 -18 143 -30q273 -64 273 -282q0 -118 -57 -198q-113 -160 -384 -159q-190 -1 -304 87t-114 236h156
q12 -85 80 -137q68 -53 196 -53t198 54q71 54 71 135q0 80 -41 113q-23 19 -44 33t-82 30t-126 30t-146 35t-121 48q-87 62 -103 119q-17 57 -17 111zM256 1324l225 322h100l216 -324h-133l-133 220h-2l-140 -218h-133z" />
    <glyph glyph-name="Scedilla" unicode="&#x15e;" horiz-adv-x="1246" 
d="M635 -131q222 1 222 -179q-1 -92 -67 -142t-162 -55t-170 16v106q52 -15 118 -15q147 0 146 92q0 55 -45 67t-111 12h-58v77l52 121q-351 17 -458 285q-27 69 -29 139h164q8 -113 107 -195q99 -83 267 -82q169 2 267 76t98 188t-62 172q-62 60 -196 95l-258 69
q-140 39 -241 129q-100 90 -100 256q0 98 41 179q79 152 273 213q89 28 177 28q264 0 408 -145q104 -104 108 -269h-162q-10 117 -98 192t-244 75q-154 0 -246 -70t-93 -193q0 -179 221 -237l252 -69q288 -77 360 -247q27 -67 27 -152q0 -190 -129 -302t-335 -133z" />
    <glyph glyph-name="scedilla" unicode="&#x15f;" horiz-adv-x="1059" 
d="M458 -223h-56v77l50 131q-164 11 -260 97t-96 222h156q12 -85 80 -137q68 -53 196 -53t198 54q71 54 71 135q0 80 -41 113q-23 19 -44 33t-82 30t-126 30t-146 35t-121 48q-87 62 -103 119q-17 57 -17 111q0 164 118 251q119 86 303 86q184 -1 286 -97t102 -240h-150
q-4 76 -63 141q-58 65 -180 65q-121 0 -190 -51t-68 -138q0 -109 117 -151q56 -21 147 -38q92 -18 143 -30q273 -64 273 -279q0 -114 -49 -190q-98 -152 -338 -168l-41 -110q108 0 170 -44q63 -45 63 -135t-67 -140t-166 -54t-167 15v106q52 -15 129 -14q135 0 133 89
q0 57 -48 69t-116 12z" />
    <glyph glyph-name="Scaron" unicode="&#x160;" horiz-adv-x="1246" 
d="M275 1877h158l185 -147h6l188 147h156l-302 -233h-87zM976 380q0 114 -62 172q-62 60 -196 95l-258 69q-140 39 -241 129q-100 90 -100 256q0 98 41 179q79 152 273 213q89 28 177 28q264 0 408 -145q104 -104 108 -269h-162q-10 117 -98 192t-244 75q-154 0 -246 -70
t-93 -193q0 -179 221 -237l252 -69q288 -77 360 -247q27 -67 27 -152q0 -208 -154 -322t-392 -115q-137 -1 -242 39q-181 68 -251 240q-29 70 -31 145h164q8 -113 107 -195q99 -83 267 -82q169 2 267 76t98 188z" />
    <glyph glyph-name="scaron" unicode="&#x161;" horiz-adv-x="1059" 
d="M117 822q0 164 118 251q119 86 303 86q184 -1 286 -97t102 -240h-150q-4 76 -63 141q-58 65 -180 65q-121 0 -190 -51t-68 -138q0 -109 117 -151q56 -21 147 -38q92 -18 143 -30q273 -64 273 -282q0 -118 -57 -198q-113 -160 -384 -159q-190 -1 -304 87t-114 236h156
q12 -85 80 -137q68 -53 196 -53t198 54q71 54 71 135q0 80 -41 113q-23 19 -44 33t-82 30t-126 30t-146 35t-121 48q-87 62 -103 119q-17 57 -17 111zM256 1632h133l140 -221h2l133 223h133l-216 -325h-100z" />
    <glyph glyph-name="Tcedilla" unicode="&#x162;" horiz-adv-x="1128" 
d="M683 -340q-1 38 -13 55q-26 35 -152 35h-56v77l65 173h-44v1338h-462v148h1086v-148h-464v-1338l-56 -152q109 0 171 -44t62 -136t-68 -141q-68 -50 -162 -55q-96 -5 -170 16v106q52 -14 118 -14t105 22q40 20 40 58z" />
    <glyph glyph-name="tcedilla" unicode="&#x163;" horiz-adv-x="720" 
d="M362 -400q144 0 144 92q0 44 -34 62q-34 17 -131 17h-56v77l65 173q-73 31 -100 101t-27 190v693h-161v136h161v287h160v-287h235v-136h-235v-701q0 -104 41 -140t150 -37q37 0 55 2v-131q-37 -8 -85 -8t-86 4l-46 -125q106 0 170 -44q64 -43 63 -135q1 -92 -67 -142
t-164 -55t-168 16v106q52 -15 116 -15z" />
    <glyph glyph-name="Tcaron" unicode="&#x164;" horiz-adv-x="1128" 
d="M643 0h-160v1338h-462v148h1086v-148h-464v-1338zM219 1877h158l185 -147h6l188 147h156l-302 -233h-88z" />
    <glyph glyph-name="tcaron" unicode="&#x165;" horiz-adv-x="720" 
d="M223 1141v287h160v-287h235v-136h-235v-701q0 -104 41 -140t150 -37q37 0 55 2v-131q-37 -8 -113 -8q-171 0 -235 80q-33 43 -46 99q-12 56 -12 143v693h-161v136h161zM606 1859h150l-46 -531h-104v531z" />
    <glyph glyph-name="Tbar" unicode="&#x166;" horiz-adv-x="1128" 
d="M903 718h-260v-718h-160v718h-258v129h258v491h-462v148h1086v-148h-464v-491h260v-129z" />
    <glyph glyph-name="tbar" unicode="&#x167;" horiz-adv-x="701" 
d="M516 -10q-171 0 -235 80q-33 43 -46 99q-12 56 -12 143v283h-156v129h156v281h-161v136h161v287h160v-287h235v-136h-235v-281h225v-129h-225v-291q0 -104 41 -140t150 -37q37 0 55 2v-131q-37 -8 -113 -8z" />
    <glyph glyph-name="Utilde" unicode="&#x168;" horiz-adv-x="1442" 
d="M835 1711q58 0 79 114h102q0 -111 -80 -175q-41 -31 -103 -31t-104 33q-17 13 -40 36q-52 56 -88 56q-67 0 -72 -106h-102q0 82 41 143t127 61q85 0 170 -92q11 -12 17 -16t16 -14q12 -10 37 -9zM329 1486v-970q0 -183 105 -291t286 -108t288 108t108 291v970h160v-970
q0 -248 -153 -398t-402 -149q-249 0 -402 152t-152 399v966h162z" />
    <glyph glyph-name="utilde" unicode="&#x169;" horiz-adv-x="1240" 
d="M306 1280q0 96 46 160t136 65q90 0 172 -98q33 -39 49 -43q17 -3 28 -3q37 0 57 39t24 86h106q0 -87 -50 -156t-118 -69q-102 -1 -156 57q-24 26 -49 52q-24 26 -60 29q-71 0 -77 -119h-108zM1070 1141v-1141h-160v156h-7q-33 -77 -118 -126t-217 -49q-181 0 -292 102
t-112 294v764h161v-718q1 -104 39 -172q69 -122 246 -122q135 0 217 82t83 222v708h160z" />
    <glyph glyph-name="Umacron" unicode="&#x16a;" horiz-adv-x="1442" 
d="M1014 1673h-587v96h587v-96zM329 1486v-970q0 -183 105 -291t286 -108t288 108t108 291v970h160v-970q0 -248 -153 -398t-402 -149q-249 0 -402 152t-152 399v966h162z" />
    <glyph glyph-name="umacron" unicode="&#x16b;" horiz-adv-x="1240" 
d="M914 1322h-591v106h591v-106zM1070 1141v-1141h-160v156h-7q-33 -77 -118 -126t-217 -49q-181 0 -292 102t-112 294v764h161v-718q1 -104 39 -172q69 -122 246 -122q135 0 217 82t83 222v708h160z" />
    <glyph glyph-name="Ubreve" unicode="&#x16c;" horiz-adv-x="1442" 
d="M383 1900h119q0 -66 60 -112t158 -46t157 46t60 112h118q0 -110 -82 -190t-256 -80t-254 84t-80 186zM329 1486v-970q0 -183 105 -291t286 -108t288 108t108 291v970h160v-970q0 -248 -153 -398t-402 -149q-249 0 -402 152t-152 399v966h162z" />
    <glyph glyph-name="ubreve" unicode="&#x16d;" horiz-adv-x="1240" 
d="M429 1553q0 -75 49 -127q50 -52 142 -52t140 52t48 127h116q0 -99 -72 -192t-228 -93t-235 88t-77 197h117zM1070 1141v-1141h-160v156h-7q-33 -77 -118 -126t-217 -49q-181 0 -292 102t-112 294v764h161v-718q1 -104 39 -172q69 -122 246 -122q135 0 217 82t83 222v708
h160z" />
    <glyph glyph-name="Uring" unicode="&#x16e;" horiz-adv-x="1442" 
d="M606 1852q0 -40 16 -66q34 -59 90 -59q56 1 88 35t33 82q-1 48 -33 82t-80 34t-81 -34t-33 -74zM720 1646q-83 0 -141 58t-59 140q0 82 58 140t128 58q68 0 115 -26t73 -72t26 -114t-58 -126t-142 -58zM329 1486v-970q0 -183 105 -291t286 -108t288 108t108 291v970h160
v-970q0 -248 -153 -398t-402 -149q-249 0 -402 152t-152 399v966h162z" />
    <glyph glyph-name="uring" unicode="&#x16f;" horiz-adv-x="1240" 
d="M506 1499q0 -49 33 -83t81 -34t80 34t32 84t-32 82q-32 33 -80 33t-81 -34t-33 -82zM620 1303q-83 0 -141 56q-59 55 -59 139t58 141t142 57t142 -57t58 -140t-58 -140q-59 -56 -142 -56zM1070 1141v-1141h-160v156h-7q-33 -77 -118 -126t-217 -49q-181 0 -292 102
t-112 294v764h161v-718q1 -104 39 -172q69 -122 246 -122q135 0 217 82t83 222v708h160z" />
    <glyph glyph-name="Uhungarumlaut" unicode="&#x170;" horiz-adv-x="1442" 
d="M787 1650l295 234h167l-310 -234h-152zM468 1650l296 234h166l-310 -234h-152zM329 1486v-970q0 -183 105 -291t286 -108t288 108t108 291v970h160v-970q0 -248 -153 -398t-402 -149q-249 0 -402 152t-152 399v966h162z" />
    <glyph glyph-name="uhungarumlaut" unicode="&#x171;" horiz-adv-x="1240" 
d="M1070 1141v-1141h-160v156h-7q-33 -77 -118 -126t-217 -49q-181 0 -292 102t-112 294v764h161v-718q1 -104 39 -172q69 -122 246 -122q135 0 217 82t83 222v708h160zM789 1315h-113l231 335h148zM508 1315h-110l228 335h150z" />
    <glyph glyph-name="Uogonek" unicode="&#x172;" horiz-adv-x="1442" 
d="M1024 -418q-84 0 -154 53t-69 155q0 135 117 222l-4 9q-98 -52 -208 -52q-233 0 -387 153q-153 153 -152 398v966h162v-970q0 -183 105 -291t286 -108t288 108t108 291v970h160v-970q0 -150 -50 -260t-167 -228q-35 -36 -47 -53t-40 -54t-29 -96q0 -114 129 -114
q46 0 83 10v-119q-47 -20 -131 -20z" />
    <glyph glyph-name="uogonek" unicode="&#x173;" horiz-adv-x="1240" 
d="M968 -416q-139 0 -202 88q-33 47 -33 115t27 112q27 45 60 76q34 31 44 39t46 34v146h-11q-29 -83 -116 -148t-247 -65q-160 1 -266 89q-105 88 -106 275v796h161v-756q0 -137 73 -201q72 -64 200 -63q128 0 220 87t92 206v727h160v-1131q-82 -35 -138 -85t-56 -105
q0 -107 121 -107q50 0 89 10v-116q-48 -23 -118 -23z" />
    <glyph glyph-name="Wcircumflex" unicode="&#x174;" horiz-adv-x="1808" 
d="M574 0h-145l-410 1486h191l294 -1201h4l310 1201h175l310 -1201h4l294 1201h191l-410 -1486h-148l-327 1209h-6zM564 1646l306 254h81l306 -254h-160l-185 161h-5l-185 -161h-158z" />
    <glyph glyph-name="wcircumflex" unicode="&#x175;" horiz-adv-x="1563" 
d="M1528 1141l-306 -1141h-156l-275 907h-4l-269 -907h-158l-323 1141h182l218 -925h8l267 925h152l272 -925h9l222 925h161zM508 1324l225 322h100l216 -324h-133l-133 220h-3l-139 -218h-133z" />
    <glyph glyph-name="Ycircumflex" unicode="&#x176;" horiz-adv-x="1169" 
d="M244 1646l305 254h82l306 -254h-161l-185 161h-4l-185 -161h-158zM666 0h-162v654l-498 832h188l389 -672h4l391 672h188l-500 -832v-654z" />
    <glyph glyph-name="ycircumflex" unicode="&#x177;" horiz-adv-x="1101" 
d="M277 1324l225 322h99l217 -324h-133l-133 220h-3l-139 -218h-133zM260 -412q-66 0 -125 8v136q255 -44 310 181l21 68l-424 1160h177l326 -974h7l324 974h171l-443 -1237q-89 -240 -219 -292q-59 -24 -125 -24z" />
    <glyph glyph-name="Ydieresis" unicode="&#x178;" horiz-adv-x="1169" 
d="M685 1718q0 42 24 66t58 25q34 0 58 -24q24 -25 24 -61t-24 -60t-52 -24t-47 12q-41 24 -41 66zM379 1725q0 35 23 59t57 25q34 0 58 -24q24 -23 24 -59t-24 -61t-58 -25t-57 25t-23 60zM666 0h-162v654l-498 832h188l389 -672h4l391 672h188l-500 -832v-654z" />
    <glyph glyph-name="Zacute" unicode="&#x179;" horiz-adv-x="1242" 
d="M92 0v119l824 1217v4h-793v146h995v-114l-820 -1220v-4h836v-148h-1042zM520 1650l277 219h185l-316 -219h-146z" />
    <glyph glyph-name="zacute" unicode="&#x17a;" horiz-adv-x="1046" 
d="M110 0v114l629 885v10h-633v132h833v-115l-629 -882v-11h633v-133h-833zM545 1317h-125l204 298h169z" />
    <glyph glyph-name="Zdotaccent" unicode="&#x17b;" horiz-adv-x="1242" 
d="M728 1766q0 -113 -116 -113q-32 0 -61 29t-29 73q0 45 30 73t72 28q44 0 74 -28q30 -30 30 -62zM92 0v119l824 1217v4h-793v146h995v-114l-820 -1220v-4h836v-148h-1042z" />
    <glyph glyph-name="zdotaccent" unicode="&#x17c;" horiz-adv-x="1046" 
d="M110 0v114l629 885v10h-633v132h833v-115l-629 -882v-11h633v-133h-833zM423 1409q0 61 50 90q50 30 105 1q51 -30 51 -90t-51 -89q-24 -14 -52 -14q-60 0 -90 50q-13 23 -13 52z" />
    <glyph glyph-name="Zcaron" unicode="&#x17d;" horiz-adv-x="1242" 
d="M277 1877h158l185 -147h6l188 147h156l-302 -233h-85zM92 0v119l824 1217v4h-793v146h995v-114l-820 -1220v-4h836v-148h-1042z" />
    <glyph glyph-name="zcaron" unicode="&#x17e;" horiz-adv-x="1046" 
d="M110 0v114l629 885v10h-633v132h833v-115l-629 -882v-11h633v-133h-833zM250 1632h133l139 -221h2l134 223h133l-217 -325h-99z" />
    <glyph glyph-name="florin" unicode="&#x192;" horiz-adv-x="1165" 
d="M793 1519q81 0 141 -27q60 -28 91 -70q59 -84 57 -167h-150q0 62 -44 96q-45 33 -110 33q-158 0 -193 -206l-31 -187h324l-25 -134h-324l-192 -1059h-162l191 1059h-243l25 134h243l36 210q56 318 366 318z" />
    <glyph glyph-name="Ohorn" unicode="&#x1a0;" horiz-adv-x="1421" 
d="M287 851v-231q0 -250 118 -376q118 -127 307 -127t306 129t116 374v231q0 248 -117 384q-118 136 -307 137q-256 0 -367 -236q-56 -118 -56 -285zM1297 622q-1 -310 -159 -482t-428 -172t-427 172q-156 172 -156 482v229q0 310 159 489t426 179q92 0 173 -25t147 -50
t134 -25q136 0 135 173v96h146v-94q0 -148 -71 -222t-206 -69l-4 -8q54 -67 92 -190t39 -254v-229z" />
    <glyph glyph-name="ohorn" unicode="&#x1a1;" horiz-adv-x="1192" 
d="M275 643v-146q0 -173 87 -273t237 -99q150 0 236 100q85 100 85 272v146q0 111 -40 197q-83 178 -281 178q-146 0 -235 -102t-89 -273zM597 -19q-212 0 -346 132t-134 368v181q0 227 136 362t346 135q63 0 149 -24t149 -24q152 0 152 175v165h146v-152q0 -291 -231 -294
v-8q48 -54 82 -146t34 -189v-181q0 -233 -135 -367q-136 -133 -348 -133z" />
    <glyph glyph-name="Uhorn" unicode="&#x1af;" horiz-adv-x="1496" 
d="M1276 516q0 -248 -153 -398t-402 -149q-249 0 -402 152t-152 399v966h162v-970q0 -183 105 -291t286 -108t288 108t108 291v970h160q154 0 154 175v106h143v-104q1 -135 -65 -215t-197 -81h-35v-851z" />
    <glyph glyph-name="uhorn" unicode="&#x1b0;" horiz-adv-x="1315" 
d="M536 -19q-160 1 -266 89q-105 88 -106 275v796h161v-756q0 -137 73 -201q72 -64 200 -63q128 0 220 87t92 206v727h147q152 0 152 174v136h146v-134q0 -135 -66 -213t-200 -78h-19v-1026h-160v194h-11q-29 -83 -116 -148t-247 -65z" />
    <glyph glyph-name="Acaron" unicode="&#x1cd;" horiz-adv-x="1288" 
d="M300 1877h158l185 -147h6l188 147h156l-302 -233h-85zM643 1286h-4l-237 -689h476zM198 0h-167l533 1486h160l533 -1486h-175l-158 462h-568z" />
    <glyph glyph-name="acaron" unicode="&#x1ce;" horiz-adv-x="1142" 
d="M298 1632h133l139 -221h2l134 223h133l-217 -325h-100zM271 322q1 -94 71 -147q70 -54 186 -54t200 77q85 77 86 191v131h-306q-119 0 -178 -52t-59 -146zM568 1159q408 0 408 -360v-799h-156v158h-4q-46 -77 -131 -127t-201 -50t-200 43t-131 121t-47 182q0 150 103 239
t295 90h310v141q0 219 -254 219q-229 0 -254 -190h-156q8 154 114 244t304 89z" />
    <glyph glyph-name="Icaron" unicode="&#x1cf;" horiz-adv-x="536" 
d="M-77 1877h158l185 -147h7l187 147h156l-302 -233h-87zM350 0h-163v1486h163v-1486z" />
    <glyph glyph-name="icaron" unicode="&#x1d0;" horiz-adv-x="555" 
d="M198 0v1141h160v-1141h-160zM4 1632h133l140 -221h4l131 223h133l-216 -325h-100z" />
    <glyph glyph-name="Ocaron" unicode="&#x1d1;" horiz-adv-x="1421" 
d="M127 622v229q0 310 159 489t428 179t426 -178t157 -490v-229q-1 -310 -159 -482t-428 -172t-427 172q-156 172 -156 482zM287 851v-231q0 -250 118 -376q118 -127 307 -127t306 129t116 374v231q0 248 -117 384q-118 136 -307 137q-256 0 -367 -236q-56 -118 -56 -285z
M366 1877h158l186 -147h4l187 147h158l-303 -233h-86z" />
    <glyph glyph-name="ocaron" unicode="&#x1d2;" horiz-adv-x="1196" 
d="M599 1018q-167 0 -245 -114t-79 -300v-67q0 -187 78 -299q77 -112 245 -113q168 0 245 112t77 300v67q0 186 -77 300t-244 114zM599 1159q237 -1 359 -145t122 -392v-102q0 -248 -122 -394t-359 -145q-237 0 -360 145t-122 394v102q0 241 122 390q123 147 360 147z
M325 1632h133l139 -221h2l134 223h133l-217 -325h-100z" />
    <glyph glyph-name="Ucaron" unicode="&#x1d3;" horiz-adv-x="1442" 
d="M329 1486v-970q0 -183 105 -291t286 -108t288 108t108 291v970h160v-970q0 -248 -153 -398t-402 -149q-249 0 -402 152t-152 399v966h162zM377 1877h156l185 -147h6l188 147h158l-304 -233h-85z" />
    <glyph glyph-name="ucaron" unicode="&#x1d4;" horiz-adv-x="1240" 
d="M1070 1141v-1141h-160v156h-7q-33 -77 -118 -126t-217 -49q-181 0 -292 102t-112 294v764h161v-718q1 -104 39 -172q69 -122 246 -122q135 0 217 82t83 222v708h160zM345 1632h136l137 -221h4l131 223h136l-219 -325h-98z" />
    <glyph glyph-name="Udieresismacron" unicode="&#x1d5;" horiz-adv-x="1442" 
d="M1014 1959h-587v95h587v-95zM329 1486v-970q0 -183 105 -291t286 -108t288 108t108 291v970h160v-970q0 -248 -153 -398t-402 -149q-249 0 -402 152t-152 399v966h162zM820 1725q0 35 24 59t58 25q34 0 58 -24q24 -25 24 -61t-24 -60t-58 -24t-58 25t-24 60zM514 1725
q0 35 23 59t57 25q34 0 58 -24q24 -23 24 -59t-24 -61t-58 -25t-57 25t-23 60z" />
    <glyph glyph-name="udieresismacron" unicode="&#x1d6;" horiz-adv-x="1240" 
d="M914 1636h-591v104h591v-104zM810 1461q48 -1 72 -47q12 -22 12 -56t-26 -62t-66 -28t-67 28t-27 68q0 41 27 69t75 28zM437 1268q-40 0 -67 28t-27 68q0 41 27 69t68 28t67 -28t26 -69q0 -40 -27 -68t-67 -28zM1070 1141v-1141h-160v156h-7q-33 -77 -118 -126t-217 -49
q-181 0 -292 102t-112 294v764h161v-718q1 -104 39 -172q69 -122 246 -122q135 0 217 82t83 222v708h160z" />
    <glyph glyph-name="Udieresisacute" unicode="&#x1d7;" horiz-adv-x="1442" 
d="M329 1486v-970q0 -183 105 -291t286 -108t288 108t108 291v970h160v-970q0 -248 -153 -398t-402 -149q-249 0 -402 152t-152 399v966h162zM820 1725q0 35 24 59t58 25q34 0 58 -24q24 -25 24 -61t-24 -60t-58 -24t-58 25t-24 60zM514 1725q0 35 23 59t57 25q34 0 58 -24
q24 -23 24 -59t-24 -61t-58 -25t-57 25t-23 60zM618 1886l277 218h185l-316 -218h-146z" />
    <glyph glyph-name="udieresisacute" unicode="&#x1d8;" horiz-adv-x="1240" 
d="M810 1461q48 -1 72 -47q12 -22 12 -56t-26 -62t-66 -28t-67 28t-27 68q0 41 27 69t75 28zM437 1268q-40 0 -67 28t-27 68q0 41 27 69t68 28t67 -28t26 -69q0 -40 -27 -68t-67 -28zM1070 1141v-1141h-160v156h-7q-33 -77 -118 -126t-217 -49q-181 0 -292 102t-112 294v764
h161v-718q1 -104 39 -172q69 -122 246 -122q135 0 217 82t83 222v708h160zM643 1592h-127l206 298h169z" />
    <glyph glyph-name="Udieresiscaron" unicode="&#x1d9;" horiz-adv-x="1442" 
d="M329 1486v-970q0 -183 105 -291t286 -108t288 108t108 291v970h160v-970q0 -248 -153 -398t-402 -149q-249 0 -402 152t-152 399v966h162zM377 2162h156l185 -149h6l188 149h158l-304 -233h-85zM820 1725q0 35 24 59t58 25q34 0 58 -24q24 -25 24 -61t-24 -60t-58 -24
t-58 25t-24 60zM514 1725q0 35 23 59t57 25q34 0 58 -24q24 -23 24 -59t-24 -61t-58 -25t-57 25t-23 60z" />
    <glyph glyph-name="udieresiscaron" unicode="&#x1da;" horiz-adv-x="1240" 
d="M810 1461q48 -1 72 -47q12 -22 12 -56t-26 -62t-66 -28t-67 28t-27 68q0 41 27 69t75 28zM437 1268q-40 0 -67 28t-27 68q0 41 27 69t68 28t67 -28t26 -69q0 -40 -27 -68t-67 -28zM1070 1141v-1141h-160v156h-7q-33 -77 -118 -126t-217 -49q-181 0 -292 102t-112 294v764
h161v-718q1 -104 39 -172q69 -122 246 -122q135 0 217 82t83 222v708h160zM345 1940h136l137 -219h4l131 221h136l-219 -325h-98z" />
    <glyph glyph-name="Udieresisgrave" unicode="&#x1db;" horiz-adv-x="1442" 
d="M329 1486v-970q0 -183 105 -291t286 -108t288 108t108 291v970h160v-970q0 -248 -153 -398t-402 -149q-249 0 -402 152t-152 399v966h162zM820 1725q0 35 24 59t58 25q34 0 58 -24q24 -25 24 -61t-24 -60t-58 -24t-58 25t-24 60zM514 1725q0 35 23 59t57 25q34 0 58 -24
q24 -23 24 -59t-24 -61t-58 -25t-57 25t-23 60zM830 1886h-145l-317 218h186z" />
    <glyph glyph-name="udieresisgrave" unicode="&#x1dc;" horiz-adv-x="1240" 
d="M810 1461q48 -1 72 -47q12 -22 12 -56t-26 -62t-66 -28t-67 28t-27 68q0 41 27 69t75 28zM437 1268q-40 0 -67 28t-27 68q0 41 27 69t68 28t67 -28t26 -69q0 -40 -27 -68t-67 -28zM1070 1141v-1141h-160v156h-7q-33 -77 -118 -126t-217 -49q-181 0 -292 102t-112 294v764
h161v-718q1 -104 39 -172q69 -122 246 -122q135 0 217 82t83 222v708h160zM706 1592h-127l-246 298h169z" />
    <glyph glyph-name="Adieresismacron" unicode="&#x1de;" horiz-adv-x="1288" 
d="M939 1959h-589v95h589v-95zM745 1717q0 43 24 67t58 25q35 0 59 -24q24 -25 24 -61t-24 -60t-52 -24t-48 12q-41 22 -41 65zM437 1725q0 35 24 59t58 25q35 0 59 -24q24 -23 24 -59t-24 -61t-58 -25t-59 25q-24 25 -24 60zM643 1286h-4l-237 -689h476zM198 0h-167
l533 1486h160l533 -1486h-175l-158 462h-568z" />
    <glyph glyph-name="adieresismacron" unicode="&#x1df;" horiz-adv-x="1142" 
d="M864 1636h-591v104h591v-104zM751 1268q-41 0 -67 28t-26 68q0 41 27 69t60 28q61 0 88 -47q12 -22 12 -56t-27 -62t-67 -28zM398 1461q48 -1 72 -47q12 -22 12 -56t-26 -62t-66 -28t-67 28t-27 68q0 41 27 69t75 28zM271 322q1 -94 71 -147q70 -54 186 -54t200 77
q85 77 86 191v131h-306q-119 0 -178 -52t-59 -146zM568 1159q408 0 408 -360v-799h-156v158h-4q-46 -77 -131 -127t-201 -50t-200 43t-131 121t-47 182q0 150 103 239t295 90h310v141q0 219 -254 219q-229 0 -254 -190h-156q8 154 114 244t304 89z" />
    <glyph glyph-name="Adotmacron" unicode="&#x1e0;" horiz-adv-x="1288" 
d="M939 1959h-589v95h589v-95zM545 1755q0 45 29 73t73 28t74 -28q30 -30 30 -74t-30 -72q-30 -29 -74 -29t-73 29t-29 73zM643 1286h-4l-237 -689h476zM198 0h-167l533 1486h160l533 -1486h-175l-158 462h-568z" />
    <glyph glyph-name="adotmacron" unicode="&#x1e1;" horiz-adv-x="1142" 
d="M864 1636h-591v104h591v-104zM470 1402q0 67 51 97t104 1q53 -31 51 -91q0 -21 -8 -40q-26 -62 -106 -62q-32 0 -62 29q-30 30 -30 66zM271 322q1 -94 71 -147q70 -54 186 -54t200 77q85 77 86 191v131h-306q-119 0 -178 -52t-59 -146zM568 1159q408 0 408 -360v-799
h-156v158h-4q-46 -77 -131 -127t-201 -50t-200 43t-131 121t-47 182q0 150 103 239t295 90h310v141q0 219 -254 219q-229 0 -254 -190h-156q8 154 114 244t304 89z" />
    <glyph glyph-name="AEmacron" unicode="&#x1e2;" horiz-adv-x="2004" 
d="M1748 1673h-589v96h589v-96zM1012 489h-544l-266 -489h-185l830 1486h1032v-148h-705v-505h666v-146h-666v-539h705v-148h-867v489zM1012 624v714h-77l-392 -714h469z" />
    <glyph glyph-name="aemacron" unicode="&#x1e3;" horiz-adv-x="1844" 
d="M1215 1322h-591v106h591v-106zM528 121q116 0 204 77q86 77 86 191v140h-306q-123 0 -185 -54q-63 -54 -63 -149t74 -150t190 -55zM1569 681q0 157 -77 247t-210 90t-218 -92t-86 -235v-37h591v27zM1292 -19q-162 0 -269 67t-143 166h-12q-42 -98 -140 -166t-226 -67
q-128 0 -216 42q-86 42 -134 121t-48 185q0 154 105 243t299 90h310v123q0 156 -124 207q-57 24 -138 24q-212 0 -254 -144h-156q8 92 62 158q107 130 356 129q118 1 212 -41t138 -123h12q48 79 143 122t209 42q204 0 329 -136t125 -365v-129h-754v-90q0 -137 86 -225
t226 -89q104 0 172 43t84 103h169q-13 -99 -111 -189q-50 -45 -132 -73t-180 -28z" />
    <glyph glyph-name="Gcaron" unicode="&#x1e6;" horiz-adv-x="1379" 
d="M287 853v-212q0 -248 107 -386q106 -138 294 -138t299 94q110 95 110 247v158h-404v148h562v-306q0 -134 -83 -267t-254 -190q-96 -32 -212 -32q-283 0 -431 179t-148 493v212q0 312 159 489q158 177 414 177t396 -137t153 -335h-160q-19 156 -123 240q-104 85 -272 85
t-288 -130q-119 -130 -119 -389zM364 1877h158l186 -147h6l187 147h156l-301 -233h-88z" />
    <glyph glyph-name="gcaron" unicode="&#x1e7;" horiz-adv-x="1202" 
d="M891 639q1 159 -83 269t-228 110t-231 -103q-88 -103 -89 -278v-115q0 -172 91 -270t235 -98t224 104q81 104 81 254v127zM586 -281q142 0 225 77q82 77 82 221v183h-4q-35 -77 -125 -132t-208 -56q-196 0 -325 134t-129 354v166q0 221 129 357t327 136q244 0 337 -181h4
v163h152v-1118q0 -223 -129 -335q-130 -112 -348 -112t-328 95q-110 96 -119 231h169q8 -75 78 -129t212 -54zM329 1632h133l137 -221h5l131 223h135l-216 -325h-100z" />
    <glyph glyph-name="Kcaron" unicode="&#x1e8;" horiz-adv-x="1267" 
d="M264 1877h159l185 -147h6l187 147h156l-301 -233h-88zM348 0h-163v1486h163v-737h6l672 737h196l-564 -635l593 -851h-208l-508 739l-187 -202v-537z" />
    <glyph glyph-name="kcaron" unicode="&#x1e9;" horiz-adv-x="1084" 
d="M335 0h-160v1565h160v-953h6l502 531h187l-462 -496l491 -647h-193l-414 545l-117 -114v-431zM-21 2056h133l138 -218h4l131 220h135l-216 -324h-100z" />
    <glyph glyph-name="Oogonek" unicode="&#x1ea;" horiz-adv-x="1421" 
d="M695 -31q-256 0 -412 173t-156 480v229q0 310 159 489t428 179t426 -178t157 -490v-229q0 -323 -188 -533q-19 -21 -63 -67t-62 -68q-54 -65 -54 -126q0 -117 129 -117q46 0 84 10v-119q-51 -20 -133 -20t-152 54t-69 154q0 135 118 222l-6 9q-92 -52 -206 -52zM287 851
v-231q0 -250 118 -376q118 -127 307 -127t306 129t116 374v231q0 248 -117 384q-118 136 -307 137q-256 0 -367 -236q-56 -118 -56 -285z" />
    <glyph glyph-name="oogonek" unicode="&#x1eb;" horiz-adv-x="1196" 
d="M572 -17q-196 0 -326 131t-129 356v192q0 227 136 362t346 135q209 0 345 -133t136 -364v-181q0 -135 -42 -229t-116 -175q-110 -109 -126 -143q-32 -64 -32 -112q0 -47 35 -78t87 -31t92 10v-118q-50 -21 -134 -21t-154 53q-68 53 -68 169t119 209l-6 8
q-67 -40 -163 -40zM920 643q0 171 -88 273t-234 102q-145 0 -234 -102t-89 -273v-146q0 -173 86 -273t238 -99q203 0 282 174q39 84 39 198v146z" />
    <glyph glyph-name="Oogonekmacron" unicode="&#x1ec;" horiz-adv-x="1421" 
d="M1005 1673h-589v96h589v-96zM695 -31q-256 0 -412 173t-156 480v229q0 310 159 489t428 179t426 -178t157 -490v-229q0 -323 -188 -533q-19 -21 -63 -67t-62 -68q-54 -65 -54 -126q0 -117 129 -117q46 0 84 10v-119q-51 -20 -133 -20t-152 54t-69 154q0 135 118 222l-6 9
q-92 -52 -206 -52zM287 851v-231q0 -250 118 -376q118 -127 307 -127t306 129t116 374v231q0 248 -117 384q-118 136 -307 137q-256 0 -367 -236q-56 -118 -56 -285z" />
    <glyph glyph-name="oogonekmacron" unicode="&#x1ed;" horiz-adv-x="1196" 
d="M891 1322h-591v106h591v-106zM572 -17q-196 0 -326 131t-129 356v192q0 227 136 362t346 135q209 0 345 -133t136 -364v-181q0 -135 -42 -229t-116 -175q-110 -109 -126 -143q-32 -64 -32 -112q0 -47 35 -78t87 -31t92 10v-118q-50 -21 -134 -21t-154 53q-68 53 -68 169
t119 209l-6 8q-67 -40 -163 -40zM920 643q0 171 -88 273t-234 102q-145 0 -234 -102t-89 -273v-146q0 -173 86 -273t238 -99q203 0 282 174q39 84 39 198v146z" />
    <glyph glyph-name="Gacute" unicode="&#x1f4;" horiz-adv-x="1379" 
d="M287 853v-212q0 -248 107 -386q106 -138 294 -138t299 94q110 95 110 247v158h-404v148h562v-306q0 -134 -83 -267t-254 -190q-96 -32 -212 -32q-283 0 -431 179t-148 493v212q0 312 159 489q158 177 414 177t396 -137t153 -335h-160q-19 156 -123 240q-104 85 -272 85
t-288 -130q-119 -130 -119 -389zM608 1650l277 219h185l-317 -219h-145z" />
    <glyph glyph-name="gacute" unicode="&#x1f5;" horiz-adv-x="1202" 
d="M891 639q1 159 -83 269t-228 110t-231 -103q-88 -103 -89 -278v-115q0 -172 91 -270t235 -98t224 104q81 104 81 254v127zM586 -281q142 0 225 77q82 77 82 221v183h-4q-35 -77 -125 -132t-208 -56q-196 0 -325 134t-129 354v166q0 221 129 357t327 136q244 0 337 -181h4
v163h152v-1118q0 -223 -129 -335q-130 -112 -348 -112t-328 95q-110 96 -119 231h169q8 -75 78 -129t212 -54zM624 1317h-127l206 298h169z" />
    <glyph glyph-name="Ngrave" unicode="&#x1f8;" horiz-adv-x="1475" 
d="M348 0h-163v1486h163l776 -1207h4v1207h162v-1486h-162l-776 1207h-4v-1207zM847 1650h-146l-314 219h183z" />
    <glyph glyph-name="ngrave" unicode="&#x1f9;" horiz-adv-x="1246" 
d="M173 0v1141h160v-154h4q35 73 123 123t210 49q177 0 295 -106t117 -293v-760h-162v699q0 312 -287 313q-146 0 -223 -86t-77 -241v-685h-160zM708 1317h-125l-248 298h169z" />
    <glyph glyph-name="Aringacute" unicode="&#x1fa;" horiz-adv-x="1288" 
d="M441 1650q0 58 27 102q27 46 74 73q46 27 82 27t51 -2l268 213h193l-350 -270q57 -58 57 -128q0 -69 -31 -119t-81 -75l528 -1471h-175l-158 462h-570l-158 -462h-167l529 1469q-54 25 -87 74q-32 49 -32 107zM880 597l-235 689h-6l-235 -689h476zM527 1653q0 -47 35 -81
t82 -34t81 33q35 33 35 81t-34 83q-34 34 -82 34q-47 0 -82 -34t-35 -82z" />
    <glyph glyph-name="aringacute" unicode="&#x1fb;" horiz-adv-x="1142" 
d="M577 1615q-47 0 -81 -34q-34 -33 -34 -69q0 -62 34 -96t74 -34q75 0 106 58q15 27 15 68t-33 74t-81 33zM578 1303q-84 0 -143 56q-58 55 -58 139t58 141t143 57q28 0 52 -6l234 325h183l-323 -379h-1q55 -56 55 -138t-58 -138t-142 -57zM271 322q1 -94 71 -147
q70 -54 186 -54t200 77q85 77 86 191v131h-306q-119 0 -178 -52t-59 -146zM568 1159q408 0 408 -360v-799h-156v158h-4q-46 -77 -131 -127t-201 -50t-200 43t-131 121t-47 182q0 150 103 239t295 90h310v141q0 219 -254 219q-229 0 -254 -190h-156q8 154 114 244t304 89z
" />
    <glyph glyph-name="AEacute" unicode="&#x1fc;" horiz-adv-x="2004" 
d="M1012 489h-544l-266 -489h-185l830 1486h1032v-148h-705v-505h666v-146h-666v-539h705v-148h-867v489zM1012 624v714h-77l-392 -714h469zM1353 1650l277 219h185l-316 -219h-146z" />
    <glyph glyph-name="aeacute" unicode="&#x1fd;" horiz-adv-x="1844" 
d="M528 121q116 0 204 77q86 77 86 191v140h-306q-123 0 -185 -54q-63 -54 -63 -149t74 -150t190 -55zM1569 681q0 157 -77 247t-210 90t-218 -92t-86 -235v-37h591v27zM1292 -19q-162 0 -269 67t-143 166h-12q-42 -98 -140 -166t-226 -67q-128 0 -216 42q-86 42 -134 121
t-48 185q0 154 105 243t299 90h310v123q0 156 -124 207q-57 24 -138 24q-212 0 -254 -144h-156q8 92 62 158q107 130 356 129q118 1 212 -41t138 -123h12q48 79 143 122t209 42q204 0 329 -136t125 -365v-129h-754v-90q0 -137 86 -225t226 -89q104 0 172 43t84 103h169
q-13 -99 -111 -189q-50 -45 -132 -73t-180 -28zM945 1317h-127l206 298h169z" />
    <glyph glyph-name="Oslashacute" unicode="&#x1fe;" horiz-adv-x="1421" 
d="M610 1650l277 219h183l-314 -219h-146zM704 117q198 0 314 129q117 129 116 374v231q0 152 -48 267l-695 -858q115 -143 313 -143zM287 620q0 -135 40 -243l693 855q-114 139 -310 140q-256 0 -367 -236q-56 -119 -56 -285v-231zM1297 622q0 -310 -158 -482
q-157 -172 -427 -171q-270 0 -423 164l-110 -137l-96 79l131 162q-87 160 -87 385v229q0 310 159 489q160 179 420 179t416 -162l112 137l100 -70l-135 -167q98 -164 98 -406v-229z" />
    <glyph glyph-name="oslashacute" unicode="&#x1ff;" horiz-adv-x="1196" 
d="M620 1317h-125l204 298h169zM599 -19q-167 0 -287 92l-110 -152l-98 69l119 164q-106 133 -106 327v181q0 227 136 362t346 135q162 0 288 -93l110 154l96 -71l-121 -162q108 -137 108 -325v-181q0 -233 -135 -367q-136 -133 -346 -133zM271 468q0 -108 41 -189l493 676
q-83 67 -217 67t-226 -104t-91 -275v-175zM924 497v175q0 104 -42 188l-491 -675q81 -65 219 -65t227 103q87 102 87 274z" />
    <glyph glyph-name="Adblgrave" unicode="&#x200;" horiz-adv-x="1288" 
d="M579 1650h-150l-312 234h166zM897 1650h-150l-312 234h166zM643 1286h-4l-237 -689h476zM198 0h-167l533 1486h160l533 -1486h-175l-158 462h-568z" />
    <glyph glyph-name="adblgrave" unicode="&#x201;" horiz-adv-x="1142" 
d="M664 1315l-266 335h147l229 -335h-110zM383 1315l-266 335h149l229 -335h-112zM271 322q1 -94 71 -147q70 -54 186 -54t200 77q85 77 86 191v131h-306q-119 0 -178 -52t-59 -146zM568 1159q408 0 408 -360v-799h-156v158h-4q-46 -77 -131 -127t-201 -50t-200 43t-131 121
t-47 182q0 150 103 239t295 90h310v141q0 219 -254 219q-229 0 -254 -190h-156q8 154 114 244t304 89z" />
    <glyph glyph-name="Ainvertedbreve" unicode="&#x202;" horiz-adv-x="1288" 
d="M644 1800q-97 0 -157 -48t-60 -114h-119q0 110 83 191t254 81t253 -80q82 -82 82 -192h-118q0 66 -60 114t-158 48zM643 1286h-4l-237 -689h476zM198 0h-167l533 1486h160l533 -1486h-175l-158 462h-568z" />
    <glyph glyph-name="ainvertedbreve" unicode="&#x203;" horiz-adv-x="1142" 
d="M264 1297q0 104 71 191q35 44 97 71t138 27q152 0 230 -90t76 -199h-116q0 77 -48 129t-126 52q-141 0 -185 -92q-20 -40 -20 -89h-117zM271 322q1 -94 71 -147q70 -54 186 -54t200 77q85 77 86 191v131h-306q-119 0 -178 -52t-59 -146zM568 1159q408 0 408 -360v-799
h-156v158h-4q-46 -77 -131 -127t-201 -50t-200 43t-131 121t-47 182q0 150 103 239t295 90h310v141q0 219 -254 219q-229 0 -254 -190h-156q8 154 114 244t304 89z" />
    <glyph glyph-name="Edblgrave" unicode="&#x204;" horiz-adv-x="1186" 
d="M1061 148v-148h-876v1486h876v-148h-713v-505h676v-146h-676v-539h713zM554 1650h-150l-312 234h166zM872 1650h-150l-312 234h167z" />
    <glyph glyph-name="edblgrave" unicode="&#x205;" 
d="M668 1315l-268 335h149l229 -335h-110zM387 1315l-266 335h147l229 -335h-110zM277 668h601v4q0 213 -139 302q-69 44 -160 44q-139 0 -221 -96t-81 -250v-4zM593 -19q-233 0 -355 145t-121 384v108q0 332 205 471q105 71 257 70q227 1 345 -145t117 -394v-89h-764v-31
q0 -223 137 -322q72 -53 184 -53t175 52t82 127h169q-20 -117 -116 -213q-49 -49 -131 -79t-184 -31z" />
    <glyph glyph-name="Einvertedbreve" unicode="&#x206;" horiz-adv-x="1186" 
d="M619 1800q-97 0 -157 -48t-60 -114h-119q0 110 83 191t254 81t253 -80q82 -82 82 -192h-118q-1 66 -61 114t-157 48zM1061 148v-148h-876v1486h876v-148h-713v-505h676v-146h-676v-539h713z" />
    <glyph glyph-name="einvertedbreve" unicode="&#x207;" 
d="M266 1297q0 100 72 191q34 44 96 71t140 27q150 0 228 -90t78 -199h-118q0 77 -48 129t-141 52t-141 -52t-47 -129h-119zM277 668h601v4q0 213 -139 302q-69 44 -160 44q-139 0 -221 -96t-81 -250v-4zM593 -19q-233 0 -355 145t-121 384v108q0 332 205 471q105 71 257 70
q227 1 345 -145t117 -394v-89h-764v-31q0 -223 137 -322q72 -53 184 -53t175 52t82 127h169q-20 -117 -116 -213q-49 -49 -131 -79t-184 -31z" />
    <glyph glyph-name="Idblgrave" unicode="&#x208;" horiz-adv-x="536" 
d="M202 1650h-150l-312 234h166zM520 1650h-150l-312 234h167zM350 0h-163v1486h163v-1486z" />
    <glyph glyph-name="idblgrave" unicode="&#x209;" horiz-adv-x="555" 
d="M370 1315l-266 335h148l229 -335h-111zM89 1315l-266 335h150l229 -335h-113zM198 0v1141h160v-1141h-160z" />
    <glyph glyph-name="Iinvertedbreve" unicode="&#x20a;" horiz-adv-x="536" 
d="M252 1800q-82 0 -142 -48t-60 -114h-119q-1 110 83 191t254 81t253 -80q82 -82 83 -192h-119q0 92 -102 139q-49 23 -131 23zM350 0h-163v1486h163v-1486z" />
    <glyph glyph-name="iinvertedbreve" unicode="&#x20b;" horiz-adv-x="555" 
d="M-29 1297q0 104 74 196q74 93 229 93t233 -90t78 -199h-119q0 77 -48 129t-126 52t-121 -26q-84 -50 -84 -155h-116zM198 0v1141h160v-1141h-160z" />
    <glyph glyph-name="Odblgrave" unicode="&#x20c;" horiz-adv-x="1421" 
d="M127 622v229q0 310 159 489t428 179t426 -178t157 -490v-229q-1 -310 -159 -482t-428 -172t-427 172q-156 172 -156 482zM287 851v-231q0 -250 118 -376q118 -127 307 -127t306 129t116 374v231q0 248 -117 384q-118 136 -307 137q-256 0 -367 -236q-56 -118 -56 -285z
M643 1650h-150l-312 234h169zM962 1650h-148l-314 234h166z" />
    <glyph glyph-name="odblgrave" unicode="&#x20d;" horiz-adv-x="1196" 
d="M691 1315l-266 335h147l229 -335h-110zM410 1315l-266 335h149l229 -335h-112zM599 1018q-167 0 -245 -114t-79 -300v-67q0 -187 78 -299q77 -112 245 -113q168 0 245 112t77 300v67q0 186 -77 300t-244 114zM599 1159q237 -1 359 -145t122 -392v-102q0 -248 -122 -394
t-359 -145q-237 0 -360 145t-122 394v102q0 241 122 390q123 147 360 147z" />
    <glyph glyph-name="Oinvertedbreve" unicode="&#x20e;" horiz-adv-x="1421" 
d="M127 622v229q0 310 159 489t428 179t426 -178t157 -490v-229q-1 -310 -159 -482t-428 -172t-427 172q-156 172 -156 482zM287 851v-231q0 -250 118 -376q118 -127 307 -127t306 129t116 374v231q0 248 -117 384q-118 136 -307 137q-256 0 -367 -236q-56 -118 -56 -285z
M711 1800q-97 0 -157 -48t-61 -114h-118q0 110 82 191t253 81t254 -80q83 -82 83 -192h-121q0 66 -59 114t-156 48z" />
    <glyph glyph-name="oinvertedbreve" unicode="&#x20f;" horiz-adv-x="1196" 
d="M291 1297q0 104 71 191q34 44 96 71t139 27q152 0 230 -90t76 -199h-116q0 77 -48 129t-126 52q-141 0 -185 -92q-20 -40 -20 -89h-117zM599 1018q-167 0 -245 -114t-79 -300v-67q0 -187 78 -299q77 -112 245 -113q168 0 245 112t77 300v67q0 186 -77 300t-244 114z
M599 1159q237 -1 359 -145t122 -392v-102q0 -248 -122 -394t-359 -145q-237 0 -360 145t-122 394v102q0 241 122 390q123 147 360 147z" />
    <glyph glyph-name="Rdblgrave" unicode="&#x210;" horiz-adv-x="1309" 
d="M348 751h333q156 0 243 74t86 217q-1 142 -87 220t-236 78h-339v-589zM708 1486q186 0 304 -86q164 -125 164 -349q0 -169 -81 -271t-202 -141l308 -639h-185l-285 606h-383v-606h-163v1486h523zM549 1650h-149l-313 234h167zM868 1650h-150l-312 234h166z" />
    <glyph glyph-name="rdblgrave" unicode="&#x211;" horiz-adv-x="745" 
d="M537 1315l-269 335h150l229 -335h-110zM256 1315l-266 335h147l229 -335h-110zM191 0v1141h159v-142h4q37 77 83 107q76 51 206 51q27 0 71 -4v-148q-23 4 -90 4q-144 0 -210 -78t-64 -213v-718h-159z" />
    <glyph glyph-name="Rinvertedbreve" unicode="&#x212;" horiz-adv-x="1309" 
d="M615 1800q-97 0 -157 -48t-60 -114h-119q0 110 83 191t254 81t253 -80q82 -82 82 -192h-118q-1 66 -61 114t-157 48zM348 751h333q156 0 243 74t86 217q-1 142 -87 220t-236 78h-339v-589zM708 1486q186 0 304 -86q164 -125 164 -349q0 -169 -81 -271t-202 -141l308 -639
h-185l-285 606h-383v-606h-163v1486h523z" />
    <glyph glyph-name="rinvertedbreve" unicode="&#x213;" horiz-adv-x="745" 
d="M633 1297q0 77 -49 129t-126 52q-140 0 -184 -92q-20 -40 -20 -89h-119q4 107 78 198q73 91 227 91q155 0 233 -90t76 -199h-116zM191 0v1141h159v-142h4q37 77 83 107q76 51 206 51q27 0 71 -4v-148q-23 4 -90 4q-144 0 -210 -78t-64 -213v-718h-159z" />
    <glyph glyph-name="Udblgrave" unicode="&#x214;" horiz-adv-x="1442" 
d="M329 1486v-970q0 -183 105 -291t286 -108t288 108t108 291v970h160v-970q0 -248 -153 -398t-402 -149q-249 0 -402 152t-152 399v966h162zM654 1650h-150l-313 234h167zM972 1650h-150l-312 234h166z" />
    <glyph glyph-name="udblgrave" unicode="&#x215;" horiz-adv-x="1240" 
d="M714 1315l-269 335h150l229 -335h-110zM433 1315l-266 335h147l229 -335h-110zM1070 1141v-1141h-160v156h-7q-33 -77 -118 -126t-217 -49q-181 0 -292 102t-112 294v764h161v-718q1 -104 39 -172q69 -122 246 -122q135 0 217 82t83 222v708h160z" />
    <glyph glyph-name="Uinvertedbreve" unicode="&#x216;" horiz-adv-x="1442" 
d="M720 1800q-98 0 -158 -48t-60 -114h-119q0 104 80 188t254 85t256 -81t82 -192h-118q1 66 -59 114t-158 48zM329 1486v-970q0 -183 105 -291t286 -108t288 108t108 291v970h160v-970q0 -248 -153 -398t-402 -149q-249 0 -402 152t-152 399v966h162z" />
    <glyph glyph-name="uinvertedbreve" unicode="&#x217;" horiz-adv-x="1240" 
d="M312 1297q0 100 72 191q34 44 96 71t140 27q150 0 228 -90t78 -199h-118q0 77 -48 129t-141 52t-141 -52t-47 -129h-119zM1070 1141v-1141h-160v156h-7q-33 -77 -118 -126t-217 -49q-181 0 -292 102t-112 294v764h161v-718q1 -104 39 -172q69 -122 246 -122q135 0 217 82
t83 222v708h160z" />
    <glyph glyph-name="Scommaaccent" unicode="&#x218;" horiz-adv-x="1246" 
d="M566 -531h-129l92 364h162zM976 380q0 114 -62 172q-62 60 -196 95l-258 69q-140 39 -241 129q-100 90 -100 256q0 98 41 179q79 152 273 213q89 28 177 28q264 0 408 -145q104 -104 108 -269h-162q-10 117 -98 192t-244 75q-154 0 -246 -70t-93 -193q0 -179 221 -237
l252 -69q288 -77 360 -247q27 -67 27 -152q0 -208 -154 -322t-392 -115q-137 -1 -242 39q-181 68 -251 240q-29 70 -31 145h164q8 -113 107 -195q99 -83 267 -82q169 2 267 76t98 188z" />
    <glyph glyph-name="scommaaccent" unicode="&#x219;" horiz-adv-x="1059" 
d="M500 -531h-132l94 364h160zM117 822q0 164 118 251q119 86 303 86q184 -1 286 -97t102 -240h-150q-4 76 -63 141q-58 65 -180 65q-121 0 -190 -51t-68 -138q0 -109 117 -151q56 -21 147 -38q92 -18 143 -30q273 -64 273 -282q0 -118 -57 -198q-113 -160 -384 -159
q-190 -1 -304 87t-114 236h156q12 -85 80 -137q68 -53 196 -53t198 54q71 54 71 135q0 80 -41 113q-23 19 -44 33t-82 30t-126 30t-146 35t-121 48q-87 62 -103 119q-17 57 -17 111z" />
    <glyph glyph-name="Tcommaaccent" unicode="&#x21a;" horiz-adv-x="1128" 
d="M643 0h-160v1338h-462v148h1086v-148h-464v-1338zM533 -531h-129l91 364h163z" />
    <glyph glyph-name="tcommaaccent" unicode="&#x21b;" horiz-adv-x="701" 
d="M223 1141v287h160v-287h235v-136h-235v-701q0 -104 41 -140t150 -37q37 0 55 2v-131q-37 -8 -113 -8q-171 0 -235 80q-33 43 -46 99q-12 56 -12 143v693h-161v136h161zM404 -531h-131l93 364h161z" />
    <glyph glyph-name="Hcaron" unicode="&#x21e;" horiz-adv-x="1475" 
d="M393 1877h159l185 -147h4l189 147h156l-303 -233h-86zM1290 0h-162v699h-780v-699h-163v1486h163v-641h780v641h162v-1486z" />
    <glyph glyph-name="hcaron" unicode="&#x21f;" horiz-adv-x="1255" 
d="M-21 2056h133l138 -218h4l131 220h135l-216 -324h-100zM175 0v1565h160v-578h6q31 69 113 121t210 51q191 0 308 -124t117 -321v-714h-161v683q0 149 -74 239t-213 90q-196 0 -271 -157q-35 -75 -35 -176v-679h-160z" />
    <glyph glyph-name="Adotaccent" unicode="&#x226;" horiz-adv-x="1288" 
d="M545 1755q0 45 29 73t73 28t74 -28q30 -30 30 -74t-30 -72q-30 -29 -74 -29t-73 29t-29 73zM643 1286h-4l-237 -689h476zM198 0h-167l533 1486h160l533 -1486h-175l-158 462h-568z" />
    <glyph glyph-name="adotaccent" unicode="&#x227;" horiz-adv-x="1142" 
d="M470 1402q0 67 51 97t104 1q53 -31 51 -91q0 -21 -8 -40q-26 -62 -106 -62q-32 0 -62 29q-30 30 -30 66zM271 322q1 -94 71 -147q70 -54 186 -54t200 77q85 77 86 191v131h-306q-119 0 -178 -52t-59 -146zM568 1159q408 0 408 -360v-799h-156v158h-4q-46 -77 -131 -127
t-201 -50t-200 43t-131 121t-47 182q0 150 103 239t295 90h310v141q0 219 -254 219q-229 0 -254 -190h-156q8 154 114 244t304 89z" />
    <glyph glyph-name="Ecedilla" unicode="&#x228;" horiz-adv-x="1186" 
d="M562 -402q56 0 84 8t50 30q22 21 22 51q0 59 -48 71t-116 13h-57v77l59 152h-371v1486h876v-148h-713v-505h676v-146h-676v-539h713v-148h-389l-50 -133q145 0 203 -75q30 -40 30 -102t-33 -106q-63 -87 -206 -92q-87 -4 -160 17v106q50 -17 106 -17z" />
    <glyph glyph-name="ecedilla" unicode="&#x229;" 
d="M691 -329q0 53 -48 66t-116 13h-57v77l59 158q-202 19 -307 161t-105 364v108q0 332 205 471q105 71 257 70q227 1 345 -145t117 -394v-89h-764v-31q0 -223 137 -322q72 -53 184 -53t175 52t82 127h169q-16 -109 -107 -206t-270 -115l-52 -135q109 0 171 -44t62 -136
t-68 -141q-68 -50 -162 -54q-96 -4 -169 15v106q52 -15 127 -14q135 0 135 91zM277 668h601v4q0 213 -139 302q-69 44 -160 44q-139 0 -221 -96t-81 -250v-4z" />
    <glyph glyph-name="Odieresismacron" unicode="&#x22a;" horiz-adv-x="1421" 
d="M1005 1959h-589v95h589v-95zM127 622v229q0 310 159 489t428 179t426 -178t157 -490v-229q-1 -310 -159 -482t-428 -172t-427 172q-156 172 -156 482zM287 851v-231q0 -250 118 -376q118 -127 307 -127t306 129t116 374v231q0 248 -117 384q-118 136 -307 137
q-256 0 -367 -236q-56 -118 -56 -285zM812 1717q0 43 24 67t58 25q34 0 57 -24q23 -25 23 -61t-23 -60t-52 -24t-48 12q-39 22 -39 65zM504 1725q0 35 24 59t58 25q34 0 58 -24t24 -67t-48 -70t-92 17q-24 25 -24 60z" />
    <glyph glyph-name="odieresismacron" unicode="&#x22b;" horiz-adv-x="1196" 
d="M891 1636h-591v104h591v-104zM599 1018q-167 0 -245 -114t-79 -300v-67q0 -187 78 -299q77 -112 245 -113q168 0 245 112t77 300v67q0 186 -77 300t-244 114zM599 1159q237 -1 359 -145t122 -392v-102q0 -248 -122 -394t-359 -145q-237 0 -360 145t-122 394v102
q0 241 122 390q123 147 360 147zM772 1461q100 1 100 -103q0 -34 -27 -62t-67 -28t-66 28t-27 68q0 41 27 69t60 28zM510 1364q0 -40 -27 -68t-67 -28t-66 28q-27 28 -27 68q0 41 27 69q26 28 66 28t67 -28t27 -69z" />
    <glyph glyph-name="Otildemacron" unicode="&#x22c;" horiz-adv-x="1421" 
d="M1005 1959h-589v95h589v-95zM591 1744q-67 0 -71 -106h-104q0 82 32 126t64 62q33 16 77 16q77 0 150 -75l27 -27q10 -10 22 -20q12 -9 37 -9q24 0 49 26t29 88h102q0 -111 -80 -175q-41 -31 -93 -31q-84 0 -153 69q-50 56 -88 56zM127 622v229q0 310 159 489t428 179
t426 -178t157 -490v-229q-1 -310 -159 -482t-428 -172t-427 172q-156 172 -156 482zM287 851v-231q0 -250 118 -376q118 -127 307 -127t306 129t116 374v231q0 248 -117 384q-118 136 -307 137q-256 0 -367 -236q-56 -118 -56 -285z" />
    <glyph glyph-name="otildemacron" unicode="&#x22d;" horiz-adv-x="1196" 
d="M599 1018q-167 0 -245 -114t-79 -300v-67q0 -187 78 -299q77 -112 245 -113q168 0 245 112t77 300v67q0 186 -77 300t-244 114zM599 1159q237 -1 359 -145t122 -392v-102q0 -248 -122 -394t-359 -145q-237 0 -360 145t-122 394v102q0 241 122 390q123 147 360 147z
M891 1636h-591v104h591v-104zM285 1280q0 96 46 160t131 65q92 1 190 -113q26 -30 63 -31q36 0 57 39t23 86h108q0 -87 -50 -156q-51 -69 -119 -69q-104 -1 -156 57q-35 39 -57 59q-21 20 -53 22q-71 0 -75 -119h-108z" />
    <glyph glyph-name="Odotaccent" unicode="&#x22e;" horiz-adv-x="1421" 
d="M127 622v229q0 310 159 489t428 179t426 -178t157 -490v-229q-1 -310 -159 -482t-428 -172t-427 172q-156 172 -156 482zM287 851v-231q0 -250 118 -376q118 -127 307 -127t306 129t116 374v231q0 248 -117 384q-118 136 -307 137q-256 0 -367 -236q-56 -118 -56 -285z
M816 1766q0 -113 -115 -113q-31 0 -61 29t-30 73q0 45 30 73t73 28t73 -28q30 -30 30 -62z" />
    <glyph glyph-name="odotaccent" unicode="&#x22f;" horiz-adv-x="1196" 
d="M599 1018q-167 0 -245 -114t-79 -300v-67q0 -187 78 -299q77 -112 245 -113q168 0 245 112t77 300v67q0 186 -77 300t-244 114zM599 1159q237 -1 359 -145t122 -392v-102q0 -248 -122 -394t-359 -145q-237 0 -360 145t-122 394v102q0 241 122 390q123 147 360 147z
M497 1400q0 69 44 95t77 17q85 -25 85 -103q0 -44 -30 -73t-73 -29t-72 29q-31 26 -31 64z" />
    <glyph glyph-name="Odotaccentmacron" unicode="&#x230;" horiz-adv-x="1421" 
d="M1005 1959h-589v95h589v-95zM127 622v229q0 310 159 489t428 179t426 -178t157 -490v-229q-1 -310 -159 -482t-428 -172t-427 172q-156 172 -156 482zM287 851v-231q0 -250 118 -376q118 -127 307 -127t306 129t116 374v231q0 248 -117 384q-118 136 -307 137
q-256 0 -367 -236q-56 -118 -56 -285zM816 1766q0 -113 -115 -113q-31 0 -61 29t-30 73q0 45 30 73t73 28t73 -28q30 -30 30 -62z" />
    <glyph glyph-name="odotaccentmacron" unicode="&#x231;" horiz-adv-x="1196" 
d="M599 1018q-167 0 -245 -114t-79 -300v-67q0 -187 78 -299q77 -112 245 -113q168 0 245 112t77 300v67q0 186 -77 300t-244 114zM599 1159q237 -1 359 -145t122 -392v-102q0 -248 -122 -394t-359 -145q-237 0 -360 145t-122 394v102q0 241 122 390q123 147 360 147z
M891 1636h-591v104h591v-104zM497 1400q0 69 44 95t77 17q85 -25 85 -103q0 -44 -30 -73t-73 -29t-72 29q-31 26 -31 64z" />
    <glyph glyph-name="Ymacron" unicode="&#x232;" horiz-adv-x="1169" 
d="M878 1673h-587v96h587v-96zM666 0h-162v654l-498 832h188l389 -672h4l391 672h188l-500 -832v-654z" />
    <glyph glyph-name="ymacron" unicode="&#x233;" horiz-adv-x="1101" 
d="M843 1322h-591v106h591v-106zM260 -412q-66 0 -125 8v136q255 -44 310 181l21 68l-424 1160h177l326 -974h7l324 974h171l-443 -1237q-89 -240 -219 -292q-59 -24 -125 -24z" />
    <glyph glyph-name="circumflex" unicode="&#x2c6;" horiz-adv-x="1009" 
d="M258 1309l225 323h100l216 -325h-133l-133 221h-2l-140 -219h-133z" />
    <glyph glyph-name="caron" unicode="&#x2c7;" horiz-adv-x="1009" 
d="M225 1661h135l137 -219h5l131 221h135l-219 -325h-97z" />
    <glyph glyph-name="breve" unicode="&#x2d8;" horiz-adv-x="1009" 
d="M191 1655h119q0 -75 48 -128t140 -53t141 52q48 52 48 129h118q0 -105 -70 -191q-35 -43 -97 -70t-138 -27q-152 0 -230 90t-79 198z" />
    <glyph glyph-name="dotaccent" unicode="&#x2d9;" horiz-adv-x="1009" 
d="M526 1432q-46 0 -76 30t-30 75t30 76t76 31t78 -31t31 -76q0 -45 -31 -75q-32 -30 -78 -30z" />
    <glyph glyph-name="ring" unicode="&#x2da;" horiz-adv-x="1009" 
d="M520 1653q-68 0 -100 -59q-14 -26 -14 -66t33 -74t81 -34t80 34t32 74q1 74 -54 109q-26 16 -58 16zM519 1338q-84 0 -142 58t-59 140q0 83 58 140q58 58 143 58t143 -58t58 -140t-58 -140t-143 -58z" />
    <glyph glyph-name="ogonek" unicode="&#x2db;" horiz-adv-x="1009" 
d="M466 -181q0 -52 32 -79t82 -27t96 10v-116q-44 -23 -133 -23t-153 49q-63 49 -63 130t36 142q37 61 87 117t58 74l114 -4q-156 -177 -156 -273z" />
    <glyph glyph-name="tilde" unicode="&#x2dc;" horiz-adv-x="1009" 
d="M133 1357q0 99 46 163t132 64t174 -97q36 -40 53 -45q17 -4 26 -4q35 0 56 40t23 87h108q0 -126 -84 -192q-43 -35 -97 -35t-90 19t-54 39t-22 23q-52 56 -88 57q-71 0 -75 -119h-108z" />
    <glyph glyph-name="hungarumlaut" unicode="&#x2dd;" horiz-adv-x="1009" 
d="M549 1315h-112l229 335h150zM268 1315h-110l229 335h150z" />
    <glyph glyph-name="gravecmb" unicode="&#x300;" horiz-adv-x="0" 
d="M85 1317h-125l-247 298h168z" />
    <glyph glyph-name="acutecmb" unicode="&#x301;" horiz-adv-x="0" 
d="M23 1317h-127l206 298h169z" />
    <glyph glyph-name="circumflexcmb" unicode="&#x302;" horiz-adv-x="0" 
d="M-273 1324l225 322h100l216 -324h-135l-131 220h-4l-137 -218h-134z" />
    <glyph glyph-name="tildecmb" unicode="&#x303;" horiz-adv-x="0" 
d="M112 1361q73 0 86 125h108q0 -87 -51 -156t-119 -69q-118 0 -178 81q-52 56 -87 57q-71 0 -75 -119h-110q0 96 47 160t132 65q92 1 190 -113q27 -30 57 -31z" />
    <glyph glyph-name="macroncmb" unicode="&#x304;" horiz-adv-x="0" 
d="M293 1322h-591v106h591v-106z" />
    <glyph glyph-name="brevecmb" unicode="&#x306;" horiz-adv-x="0" 
d="M-191 1553q1 -75 49 -127t140 -52q138 0 178 112q11 31 11 67h119q-4 -102 -75 -194q-71 -91 -227 -91t-235 88t-77 197h117z" />
    <glyph glyph-name="dotaccentcmb" unicode="&#x307;" horiz-adv-x="0" 
d="M-100 1409q0 59 50 90t105 1q53 -31 52 -83t-31 -81t-66 -29q-66 0 -96 50q-14 23 -14 52z" />
    <glyph glyph-name="dieresiscmb" unicode="&#x308;" horiz-adv-x="0" 
d="M275 1364q0 -40 -27 -68q-26 -28 -66 -28t-68 28t-27 69q0 42 27 69t67 27t67 -28t27 -69zM-87 1364q0 -40 -27 -68q-26 -28 -66 -28t-68 28t-27 68q0 41 26 69t67 28t68 -28t27 -69z" />
    <glyph glyph-name="hookabovecmb" unicode="&#x309;" horiz-adv-x="0" 
d="M-35 1584q-58 0 -102 -19v106q45 21 117 21q143 0 203 -90q29 -45 29 -114q0 -70 -44 -118t-122 -94l-65 89q110 63 108 125q0 42 -33 68t-91 26z" />
    <glyph glyph-name="ringcmb" unicode="&#x30a;" horiz-adv-x="0" 
d="M-14 1382q126 0 126 132q0 34 -32 68q-32 33 -80 33t-81 -34t-33 -82q0 -49 33 -83t67 -34zM0 1303q-83 0 -142 56q-58 55 -58 139t58 141t142 57t142 -57t58 -140t-58 -140q-59 -56 -142 -56z" />
    <glyph glyph-name="hungarumlautcmb" unicode="&#x30b;" horiz-adv-x="0" 
d="M169 1315h-113l231 335h148zM-112 1315h-111l229 335h150z" />
    <glyph glyph-name="caroncmb" unicode="&#x30c;" horiz-adv-x="0" 
d="M-273 1632h134l137 -221h4l131 223h135l-216 -325h-100z" />
    <glyph glyph-name="dblgravecmb" unicode="&#x30f;" horiz-adv-x="0" 
d="M94 1315l-269 335h150l229 -335h-110zM-187 1315l-267 335h148l229 -335h-110z" />
    <glyph glyph-name="invertedbrevecmb" unicode="&#x311;" horiz-adv-x="0" 
d="M0 1586q150 0 229 -90t77 -199h-117q0 77 -49 129q-50 52 -126 52t-120 -26q-85 -50 -83 -155h-119q4 105 72 191q34 44 96 71t140 27z" />
    <glyph glyph-name="horncmb" unicode="&#x31b;" horiz-adv-x="0" 
d="M106 1161q152 0 152 175v165h146v-163q0 -137 -66 -228t-201 -90q-91 0 -135 33v148q37 -40 104 -40z" />
    <glyph glyph-name="dotbelowcmb" unicode="&#x323;" horiz-adv-x="0" 
d="M-102 -303q0 45 30 76t75 31t76 -31t31 -76t-31 -75t-76 -30t-75 30t-30 75z" />
    <glyph glyph-name="dieresisbelowcmb" unicode="&#x324;" horiz-adv-x="0" 
d="M85 -335q0 59 47 85q22 12 54 12t60 -27q27 -28 27 -69t-27 -69q-28 -28 -60 -28q-63 0 -88 47q-13 22 -13 49zM-277 -342q0 65 46 92q21 12 55 12t60 -27q26 -28 26 -69t-26 -69q-28 -28 -68 -28t-66 28q-27 27 -27 61z" />
    <glyph glyph-name="ringbelowcmb" unicode="&#x325;" horiz-adv-x="0" 
d="M-114 -307q0 -49 32 -83t80 -34t81 34t33 83t-32 82t-81 33t-81 -32q-32 -34 -32 -83zM-1 -504q-85 0 -143 56t-58 140q0 83 58 140q58 58 142 58t144 -58q58 -58 58 -140q0 -84 -58 -140t-143 -56z" />
    <glyph glyph-name="commabelowcmb" unicode="&#x326;" horiz-adv-x="0" 
d="M-31 -531h-129l93 364h161z" />
    <glyph glyph-name="cedillacmb" unicode="&#x327;" horiz-adv-x="0" 
d="M-121 -250v77l69 183h117l-59 -162q106 0 170 -44t63 -136q1 -92 -67 -140q-68 -50 -164 -54t-168 14v106q50 -14 116 -14q144 1 144 91q0 55 -47 67t-118 12h-56z" />
    <glyph glyph-name="ogonekcmb" unicode="&#x328;" horiz-adv-x="0" 
d="M102 92q-156 -170 -156 -277q0 -48 32 -75t82 -27t94 10v-116q-44 -23 -133 -23t-152 49t-63 130t36 142q35 61 86 117t60 74z" />
    <glyph glyph-name="circumflexbelowcmb" unicode="&#x32d;" horiz-adv-x="0" 
d="M-275 -443l225 322h100l218 -324h-135l-131 222h-4l-137 -220h-136z" />
    <glyph glyph-name="brevebelowcmb" unicode="&#x32e;" horiz-adv-x="0" 
d="M-327 -156h129q0 -77 51 -129t147 -52t147 52t51 129h118q0 -104 -73 -196t-238 -91q-165 0 -249 87q-83 88 -83 200z" />
    <glyph glyph-name="tildebelowcmb" unicode="&#x330;" horiz-adv-x="0" 
d="M-131 -250q-73 0 -75 -118h-108q0 96 46 160t131 64t162 -81q2 -4 10 -12t15 -17t14 -13q7 -3 13 -9t11 -6l12 -3t14 -2q37 0 59 39q21 40 23 88h108q0 -123 -84 -193q-43 -34 -97 -34q-93 1 -155 69t-99 68z" />
    <glyph glyph-name="macronbelowcmb" unicode="&#x331;" horiz-adv-x="0" 
d="M291 -350h-589v106h589v-106z" />
    <glyph glyph-name="Delta" unicode="&#x394;" horiz-adv-x="1288" 
d="M639 1286l-389 -1138h782l-387 1138h-6zM31 0l535 1486h158l535 -1486h-1228z" />
    <glyph glyph-name="Omega" unicode="&#x3a9;" horiz-adv-x="1421" 
d="M824 0v164q133 40 222 187q88 147 88 346v196q0 243 -116 361t-304 118q-189 0 -308 -116t-119 -363v-196q-1 -195 85 -341t213 -187v-167h-475v140h271v20q-110 46 -182 192t-72 345v192q0 308 157 468t429 160t428 -160t156 -468v-192q0 -197 -77 -343t-188 -194v-25
h283v-137h-491z" />
    <glyph glyph-name="mu" unicode="&#x3bc;" horiz-adv-x="1248" 
d="M164 -364v1505h161v-756q0 -137 73 -201q72 -64 200 -63q128 0 220 87t92 206v727h160v-916q0 -102 98 -102q35 0 64 6v-129q-50 -12 -128 -12t-133 48t-59 124l-2 34h-11q-29 -83 -116 -148t-227 -65q-73 0 -142 25t-102 71h-8l21 -441h-161z" />
    <glyph glyph-name="pi" unicode="&#x3c0;" horiz-adv-x="1357" 
d="M1066 221q0 -98 97 -98q35 0 63 6v-129q-44 -10 -123 -10t-138 53t-60 142v818h-437v-1003h-160v1003h-254v138h1253v-138h-241v-782z" />
    <glyph glyph-name="Aringbelow" unicode="&#x1e00;" horiz-adv-x="1288" 
d="M524 -277q0 -48 34 -82t70 -34q86 0 116 71q9 22 9 58t-33 69q-33 35 -81 35q-47 0 -81 -34t-34 -83zM639 -475q-83 -1 -141 57t-59 141q0 83 58 141t128 57q70 0 116 -26t73 -72q27 -47 27 -115q1 -68 -59 -126t-143 -57zM643 1286h-4l-237 -689h476zM198 0h-167
l533 1486h160l533 -1486h-175l-158 462h-568z" />
    <glyph glyph-name="aringbelow" unicode="&#x1e01;" horiz-adv-x="1142" 
d="M683 -298q-1 40 -33 73t-90 33t-90 -57q-14 -27 -14 -67t33 -74t73 -34t66 15q55 34 55 111zM570 -504q-83 0 -142 56t-60 140q0 83 60 140q60 58 142 58q84 0 142 -58t58 -140q0 -84 -58 -140t-142 -56zM271 322q1 -94 71 -147q70 -54 186 -54t200 77q85 77 86 191v131
h-306q-119 0 -178 -52t-59 -146zM568 1159q408 0 408 -360v-799h-156v158h-4q-46 -77 -131 -127t-201 -50t-200 43t-131 121t-47 182q0 150 103 239t295 90h310v141q0 219 -254 219q-229 0 -254 -190h-156q8 154 114 244t304 89z" />
    <glyph glyph-name="Bdotaccent" unicode="&#x1e02;" horiz-adv-x="1323" 
d="M518 1755q0 45 29 73t73 28t74 -28q30 -30 30 -66t-14 -59q-31 -52 -82 -51q-52 1 -81 30t-29 73zM348 691v-543h281q320 0 396 130q30 53 30 132q0 139 -89 210t-240 71h-378zM348 1338v-499h249q185 0 279 60q94 59 94 189t-74 190t-195 60h-353zM185 0v1486h539
q188 0 300 -98t112 -266q0 -133 -65 -217q-66 -83 -174 -114v-8q154 -21 239 -119t86 -250q0 -198 -140 -306t-376 -108h-521z" />
    <glyph glyph-name="bdotaccent" unicode="&#x1e03;" horiz-adv-x="1240" 
d="M335 497q1 -154 83 -263t228 -109t232 100q85 100 86 285v114q0 190 -82 292t-228 102q-98 0 -171 -51q-146 -102 -148 -328v-142zM696 -19q-116 0 -188 28q-135 53 -177 168h-4v-177h-152v1565h160v-587h4q104 181 328 181q225 0 341 -140t116 -376v-143
q0 -162 -54 -280t-156 -178t-218 -61zM152 1826q0 69 50 98q24 14 60 14t66 -29t30 -67q0 -66 -51 -97q-25 -13 -61 -13t-65 29t-29 65z" />
    <glyph glyph-name="Bdotbelow" unicode="&#x1e04;" horiz-adv-x="1323" 
d="M348 691v-543h281q320 0 396 130q30 53 30 132q0 139 -89 210t-240 71h-378zM348 1338v-499h249q185 0 279 60q94 59 94 189t-74 190t-195 60h-353zM185 0v1486h539q188 0 300 -98t112 -266q0 -133 -65 -217q-66 -83 -174 -114v-8q154 -21 239 -119t86 -250
q0 -198 -140 -306t-376 -108h-521zM516 -303q0 45 30 76t75 31t76 -31t31 -76t-31 -75t-76 -30t-75 30t-30 75z" />
    <glyph glyph-name="bdotbelow" unicode="&#x1e05;" horiz-adv-x="1240" 
d="M335 497q1 -154 83 -263t228 -109t232 100q85 100 86 285v114q0 190 -82 292t-228 102q-98 0 -171 -51q-146 -102 -148 -328v-142zM696 -19q-116 0 -188 28q-135 53 -177 168h-4v-177h-152v1565h160v-587h4q104 181 328 181q225 0 341 -140t116 -376v-143
q0 -162 -54 -280t-156 -178t-218 -61zM518 -303q0 45 30 76t75 31t76 -31t31 -76t-30 -75q-32 -30 -77 -30t-75 30t-30 75z" />
    <glyph glyph-name="Blinebelow" unicode="&#x1e06;" horiz-adv-x="1323" 
d="M910 -350h-592v106h592v-106zM348 691v-543h281q320 0 396 130q30 53 30 132q0 139 -89 210t-240 71h-378zM348 1338v-499h249q185 0 279 60q94 59 94 189t-74 190t-195 60h-353zM185 0v1486h539q188 0 300 -98t112 -266q0 -133 -65 -217q-66 -83 -174 -114v-8
q154 -21 239 -119t86 -250q0 -198 -140 -306t-376 -108h-521z" />
    <glyph glyph-name="blinebelow" unicode="&#x1e07;" horiz-adv-x="1240" 
d="M335 497q1 -154 83 -263t228 -109t232 100q85 100 86 285v114q0 190 -82 292t-228 102q-98 0 -171 -51q-146 -102 -148 -328v-142zM696 -19q-116 0 -188 28q-135 53 -177 168h-4v-177h-152v1565h160v-587h4q104 181 328 181q225 0 341 -140t116 -376v-143
q0 -162 -54 -280t-156 -178t-218 -61zM912 -350h-591v106h591v-106z" />
    <glyph glyph-name="Ccedillaacute" unicode="&#x1e08;" horiz-adv-x="1352" 
d="M638 -423q55 1 83 9t50 29t22 51q0 58 -48 71t-116 13h-57v77l54 144q-237 25 -368 196t-131 468v208q0 323 154 499t412 177q258 0 412 -160q86 -90 119 -216q15 -58 14 -117h-160q0 129 -96 233q-46 50 -120 81t-161 32q-191 0 -302 -136t-112 -393v-206
q1 -260 111 -390t296 -130q186 1 286 93q98 92 98 225h162q0 -161 -118 -299q-58 -68 -157 -114t-222 -53l-46 -123q145 0 203 -75q30 -40 30 -98q0 -96 -68 -147t-162 -55q-96 -4 -169 17v106q52 -17 107 -17zM597 1650l277 219h185l-314 -219h-148z" />
    <glyph glyph-name="ccedillaacute" unicode="&#x1e09;" horiz-adv-x="1111" 
d="M532 -400q146 0 147 92q0 54 -45 66t-112 13h-56v77l61 137q-196 19 -303 159t-107 358v139q0 231 123 375q124 144 330 144t322 -104q116 -103 117 -238h-160q-10 75 -81 137t-183 63q-152 0 -231 -107t-79 -276v-133q0 -162 83 -266q84 -104 214 -105q130 0 198 49
t87 126h161q-6 -118 -106 -212t-269 -109l-50 -116q103 0 163 -44q60 -43 60 -135t-68 -142t-162 -55q-96 -5 -170 16v106q50 -15 116 -15zM579 1317h-125l204 298h168z" />
    <glyph glyph-name="Ddotaccent" unicode="&#x1e0a;" horiz-adv-x="1400" 
d="M348 1338v-1190h289q491 0 491 595t-491 595h-289zM643 1486q648 0 652 -743q0 -331 -148 -537t-504 -206h-458v1486h458zM552 1755q0 45 29 73t73 28t74 -28q30 -30 30 -74t-30 -72q-30 -29 -74 -29t-73 29t-29 73z" />
    <glyph glyph-name="ddotaccent" unicode="&#x1e0b;" horiz-adv-x="1242" 
d="M907 626q0 180 -85 286t-236 106t-230 -108t-79 -292v-94q0 -185 80 -293t232 -108t235 106t83 291v106zM566 1159q134 0 220 -52t115 -129h6v587h159v-1565h-150v177h-4q-21 -75 -115 -134t-231 -60q-214 -1 -332 139t-117 371v156q0 229 117 370q118 140 332 140z
M887 1826q0 70 51 98q24 14 60 14t65 -29q30 -29 30 -67q0 -66 -51 -97q-24 -13 -60 -13t-65 29q-30 29 -30 65z" />
    <glyph glyph-name="Ddotbelow" unicode="&#x1e0c;" horiz-adv-x="1400" 
d="M348 1338v-1190h289q491 0 491 595t-491 595h-289zM643 1486q648 0 652 -743q0 -331 -148 -537t-504 -206h-458v1486h458zM655 -408q-45 0 -75 30t-31 75q1 45 31 76t76 31t76 -31t30 -76t-31 -75t-76 -30z" />
    <glyph glyph-name="ddotbelow" unicode="&#x1e0d;" horiz-adv-x="1242" 
d="M907 626q0 180 -85 286t-236 106t-230 -108t-79 -292v-94q0 -185 80 -293t232 -108t235 106t83 291v106zM566 1159q134 0 220 -52t115 -129h6v587h159v-1565h-150v177h-4q-21 -75 -115 -134t-231 -60q-214 -1 -332 139t-117 371v156q0 229 117 370q118 140 332 140z
M518 -303q0 45 30 76t75 31t76 -31t31 -76t-30 -75q-32 -30 -77 -30t-75 30t-30 75z" />
    <glyph glyph-name="Dlinebelow" unicode="&#x1e0e;" horiz-adv-x="1400" 
d="M348 1338v-1190h289q491 0 491 595t-491 595h-289zM643 1486q648 0 652 -743q0 -331 -148 -537t-504 -206h-458v1486h458zM943 -350h-589v106h589v-106z" />
    <glyph glyph-name="dlinebelow" unicode="&#x1e0f;" horiz-adv-x="1242" 
d="M907 626q0 180 -85 286t-236 106t-230 -108t-79 -292v-94q0 -185 80 -293t232 -108t235 106t83 291v106zM566 1159q134 0 220 -52t115 -129h6v587h159v-1565h-150v177h-4q-21 -75 -115 -134t-231 -60q-214 -1 -332 139t-117 371v156q0 229 117 370q118 140 332 140z
M912 -350h-591v106h591v-106z" />
    <glyph glyph-name="Dcommaaccent" unicode="&#x1e10;" horiz-adv-x="1400" 
d="M348 1338v-1190h289q491 0 491 595t-491 595h-289zM643 1486q648 0 652 -743q0 -331 -148 -537t-504 -206h-458v1486h458zM620 -531h-129l94 364h160z" />
    <glyph glyph-name="dcommaaccent" unicode="&#x1e11;" horiz-adv-x="1242" 
d="M907 626q0 180 -85 286t-236 106t-230 -108t-79 -292v-94q0 -185 80 -293t232 -108t235 106t83 291v106zM566 1159q134 0 220 -52t115 -129h6v587h159v-1565h-150v177h-4q-21 -75 -115 -134t-231 -60q-214 -1 -332 139t-117 371v156q0 229 117 370q118 140 332 140z
M589 -531h-129l92 364h162z" />
    <glyph glyph-name="Dcircumflexbelow" unicode="&#x1e12;" horiz-adv-x="1400" 
d="M377 -443l224 322h100l219 -324h-135l-131 222h-3l-139 -220h-135zM348 1338v-1190h289q491 0 491 595t-491 595h-289zM643 1486q648 0 652 -743q0 -331 -148 -537t-504 -206h-458v1486h458z" />
    <glyph glyph-name="dcircumflexbelow" unicode="&#x1e13;" horiz-adv-x="1242" 
d="M345 -443l225 322h100l219 -324h-136l-133 222h-2l-137 -220h-136zM907 626q0 180 -85 286t-236 106t-230 -108t-79 -292v-94q0 -185 80 -293t232 -108t235 106t83 291v106zM566 1159q134 0 220 -52t115 -129h6v587h159v-1565h-150v177h-4q-21 -75 -115 -134t-231 -60
q-214 -1 -332 139t-117 371v156q0 229 117 370q118 140 332 140z" />
    <glyph glyph-name="Emacrongrave" unicode="&#x1e14;" horiz-adv-x="1186" 
d="M914 1673h-587v96h587v-96zM1061 148v-148h-876v1486h876v-148h-713v-505h676v-146h-676v-539h713zM731 1886h-146l-317 218h186z" />
    <glyph glyph-name="emacrongrave" unicode="&#x1e15;" 
d="M868 1322h-591v106h591v-106zM277 668h601v4q0 213 -139 302q-69 44 -160 44q-139 0 -221 -96t-81 -250v-4zM593 -19q-233 0 -355 145t-121 384v108q0 332 205 471q105 71 257 70q227 1 345 -145t117 -394v-89h-764v-31q0 -223 137 -322q72 -53 184 -53t175 52t82 127
h169q-20 -117 -116 -213q-49 -49 -131 -79t-184 -31zM660 1592h-127l-246 298h169z" />
    <glyph glyph-name="Emacronacute" unicode="&#x1e16;" horiz-adv-x="1186" 
d="M914 1673h-587v96h587v-96zM1061 148v-148h-876v1486h876v-148h-713v-505h676v-146h-676v-539h713zM518 1886l277 218h185l-316 -218h-146z" />
    <glyph glyph-name="emacronacute" unicode="&#x1e17;" 
d="M868 1322h-591v106h591v-106zM277 668h601v4q0 213 -139 302q-69 44 -160 44q-139 0 -221 -96t-81 -250v-4zM593 -19q-233 0 -355 145t-121 384v108q0 332 205 471q105 71 257 70q227 1 345 -145t117 -394v-89h-764v-31q0 -223 137 -322q72 -53 184 -53t175 52t82 127
h169q-20 -117 -116 -213q-49 -49 -131 -79t-184 -31zM597 1592h-127l206 298h169z" />
    <glyph glyph-name="Ecircumflexbelow" unicode="&#x1e18;" horiz-adv-x="1186" 
d="M345 -443l225 322h100l219 -324h-136l-133 222h-2l-137 -220h-136zM1061 148v-148h-876v1486h876v-148h-713v-505h676v-146h-676v-539h713z" />
    <glyph glyph-name="ecircumflexbelow" unicode="&#x1e19;" 
d="M302 -443l225 322h99l219 -324h-135l-133 222h-3l-137 -220h-135zM277 668h601v4q0 213 -139 302q-69 44 -160 44q-139 0 -221 -96t-81 -250v-4zM593 -19q-233 0 -355 145t-121 384v108q0 332 205 471q105 71 257 70q227 1 345 -145t117 -394v-89h-764v-31
q0 -223 137 -322q72 -53 184 -53t175 52t82 127h169q-20 -117 -116 -213q-49 -49 -131 -79t-184 -31z" />
    <glyph glyph-name="Etildebelow" unicode="&#x1e1a;" horiz-adv-x="1186" 
d="M1061 148v-148h-876v1486h876v-148h-713v-505h676v-146h-676v-539h713zM306 -368q0 96 46 160t131 64t162 -81q3 -4 11 -12t13 -16t12 -13q8 -4 15 -10q6 -6 12 -6q6 -1 13 -3t14 -2q37 -1 58 39t23 88h108q0 -87 -50 -157t-137 -70q-87 1 -149 69t-99 68q-73 0 -75 -118
h-108z" />
    <glyph glyph-name="etildebelow" unicode="&#x1e1b;" 
d="M277 668h601v4q0 213 -139 302q-69 44 -160 44q-139 0 -221 -96t-81 -250v-4zM593 -19q-233 0 -355 145t-121 384v108q0 332 205 471q105 71 257 70q227 1 345 -145t117 -394v-89h-764v-31q0 -223 137 -322q72 -53 184 -53t175 52t82 127h169q-20 -117 -116 -213
q-49 -49 -131 -79t-184 -31zM262 -368q0 96 46 160t131 64t162 -81q3 -4 11 -12q8 -7 10 -11t10 -11t11 -9q5 -2 11 -8t11 -6q5 -1 12 -3t14 -2q37 -1 58 39t23 88h108q0 -87 -50 -157t-137 -70t-154 75q-15 15 -18 19q-32 43 -76 43q-73 0 -75 -118h-108z" />
    <glyph glyph-name="Ecedillabreve" unicode="&#x1e1c;" horiz-adv-x="1186" 
d="M283 1900h119q0 -92 103 -136q51 -22 115 -22t115 22q102 45 102 136h118q0 -110 -82 -190t-253 -80t-254 80t-83 190zM562 -402q56 0 84 8t50 30q22 21 22 51q0 59 -48 71t-116 13h-57v77l59 152h-371v1486h876v-148h-713v-505h676v-146h-676v-539h713v-148h-389
l-50 -133q145 0 203 -75q30 -40 30 -102t-33 -106q-63 -87 -206 -92q-87 -4 -160 17v106q50 -17 106 -17z" />
    <glyph glyph-name="ecedillabreve" unicode="&#x1e1d;" 
d="M691 -329q0 53 -48 66t-116 13h-57v77l59 158q-202 19 -307 161t-105 364v108q0 332 205 471q105 71 257 70q227 1 345 -145t117 -394v-89h-764v-31q0 -223 137 -322q72 -53 184 -53t175 52t82 127h169q-16 -109 -107 -206t-270 -115l-52 -135q109 0 171 -44t62 -136
t-68 -141q-68 -50 -162 -54q-96 -4 -169 15v106q52 -15 127 -14q135 0 135 91zM277 668h601v4q0 213 -139 302q-69 44 -160 44q-139 0 -221 -96t-81 -250v-4zM383 1553q0 -75 49 -127q50 -52 142 -52t140 52t48 127h116q0 -101 -71 -193t-228 -92t-236 88t-77 197h117z" />
    <glyph glyph-name="Fdotaccent" unicode="&#x1e1e;" horiz-adv-x="1111" 
d="M348 0h-163v1486h864v-148h-701v-533h643v-147h-643v-658zM512 1755q0 45 29 73t73 28t73 -28q29 -30 29 -74t-29 -72q-29 -29 -73 -29t-73 29t-29 73z" />
    <glyph glyph-name="fdotaccent" unicode="&#x1e1f;" horiz-adv-x="722" 
d="M237 0v1005h-164v136h164v118q0 160 81 237t250 77q40 0 83 -6v-135q-35 4 -64 4q-100 0 -145 -42t-44 -145v-108h235v-136h-235v-1005h-161zM306 1844q0 44 29 73t65 29q70 0 97 -49q15 -25 15 -61t-30 -65t-74 -29t-73 29t-29 73z" />
    <glyph glyph-name="Gmacron" unicode="&#x1e20;" horiz-adv-x="1379" 
d="M1003 1673h-589v96h589v-96zM287 853v-212q0 -248 107 -386q106 -138 294 -138t299 94q110 95 110 247v158h-404v148h562v-306q0 -134 -83 -267t-254 -190q-96 -32 -212 -32q-283 0 -431 179t-148 493v212q0 312 159 489q158 177 414 177t396 -137t153 -335h-160
q-19 156 -123 240q-104 85 -272 85t-288 -130q-119 -130 -119 -389z" />
    <glyph glyph-name="gmacron" unicode="&#x1e21;" horiz-adv-x="1202" 
d="M891 639q1 159 -83 269t-228 110t-231 -103q-88 -103 -89 -278v-115q0 -172 91 -270t235 -98t224 104q81 104 81 254v127zM586 -281q142 0 225 77q82 77 82 221v183h-4q-35 -77 -125 -132t-208 -56q-196 0 -325 134t-129 354v166q0 221 129 357t327 136q244 0 337 -181h4
v163h152v-1118q0 -223 -129 -335q-130 -112 -348 -112t-328 95q-110 96 -119 231h169q8 -75 78 -129t212 -54zM895 1322h-591v106h591v-106z" />
    <glyph glyph-name="Hdotaccent" unicode="&#x1e22;" horiz-adv-x="1475" 
d="M637 1755q0 45 30 73t74 28t73 -28q29 -30 29 -74t-30 -72q-30 -29 -73 -29t-73 29t-30 73zM1290 0h-162v699h-780v-699h-163v1486h163v-641h780v641h162v-1486z" />
    <glyph glyph-name="hdotaccent" unicode="&#x1e23;" horiz-adv-x="1255" 
d="M152 1826q0 69 50 98q24 14 60 14t66 -29t30 -67q0 -66 -51 -97q-25 -13 -61 -13t-65 29t-29 65zM175 0v1565h160v-578h6q31 69 113 121t210 51q191 0 308 -124t117 -321v-714h-161v683q0 149 -74 239t-213 90q-196 0 -271 -157q-35 -75 -35 -176v-679h-160z" />
    <glyph glyph-name="Hdotbelow" unicode="&#x1e24;" horiz-adv-x="1475" 
d="M635 -303q0 45 30 76t76 31t77 -31t31 -76t-31 -75t-76 -30t-76 30t-31 75zM1290 0h-162v699h-780v-699h-163v1486h163v-641h780v641h162v-1486z" />
    <glyph glyph-name="hdotbelow" unicode="&#x1e25;" horiz-adv-x="1255" 
d="M518 -303q0 45 30 76t75 31t76 -31t31 -76t-30 -75q-32 -30 -77 -30t-75 30t-30 75zM175 0v1565h160v-578h6q31 69 113 121t210 51q191 0 308 -124t117 -321v-714h-161v683q0 149 -74 239t-213 90q-196 0 -271 -157q-35 -75 -35 -176v-679h-160z" />
    <glyph glyph-name="Hdieresis" unicode="&#x1e26;" horiz-adv-x="1475" 
d="M839 1717q0 43 23 67t58 25q35 0 58 -24q23 -25 23 -61t-23 -60t-52 -24t-48 12q-39 22 -39 65zM531 1725q0 35 23 59t58 25q35 0 58 -24q23 -23 23 -59t-24 -61t-57 -25t-57 25t-24 60zM1290 0h-162v699h-780v-699h-163v1486h163v-641h780v641h162v-1486z" />
    <glyph glyph-name="hdieresis" unicode="&#x1e27;" horiz-adv-x="1255" 
d="M339 1789q0 41 27 69t67 28t67 -27t27 -69t-27 -70q-26 -28 -66 -28t-68 28q-27 28 -27 69zM-25 1789q0 41 27 69t68 28q42 0 68 -27t26 -69t-27 -70t-67 -28t-68 28q-27 28 -27 69zM175 0v1565h160v-578h6q31 69 113 121t210 51q191 0 308 -124t117 -321v-714h-161v683
q0 149 -74 239t-213 90q-196 0 -271 -157q-35 -75 -35 -176v-679h-160z" />
    <glyph glyph-name="Hcedilla" unicode="&#x1e28;" horiz-adv-x="1475" 
d="M240 -402q56 0 84 8t50 30q22 21 22 51q-1 59 -49 72q-48 12 -118 12h-54v77l56 152h-46v1486h163v-641h780v641h162v-1486h-162v699h-780v-699l-48 -133q106 0 169 -44q63 -45 63 -135t-67 -141t-163 -55t-169 17v106q52 -17 107 -17z" />
    <glyph glyph-name="hcedilla" unicode="&#x1e29;" horiz-adv-x="1255" 
d="M375 -340q0 64 -48 77t-117 13h-56v77l65 173h-44v1565h160v-578h6q31 69 113 121t210 51q191 0 308 -124t117 -321v-714h-161v683q0 149 -74 239t-213 90q-196 0 -271 -157q-35 -75 -35 -176v-679l-56 -152q109 0 171 -44t62 -136t-68 -141q-68 -50 -162 -55
q-96 -5 -170 16v106q52 -14 118 -14t105 22q40 20 40 58z" />
    <glyph glyph-name="Hbrevebelow" unicode="&#x1e2a;" horiz-adv-x="1475" 
d="M1290 0h-162v699h-780v-699h-163v1486h163v-641h780v641h162v-1486zM412 -156h127q0 -77 51 -129t147 -52t147 52t51 129h118q0 -103 -73 -195t-238 -92t-248 87q-82 88 -82 200z" />
    <glyph glyph-name="hbrevebelow" unicode="&#x1e2b;" horiz-adv-x="1255" 
d="M175 0v1565h160v-578h6q31 69 113 121t210 51q191 0 308 -124t117 -321v-714h-161v683q0 149 -74 239t-213 90q-196 0 -271 -157q-35 -75 -35 -176v-679h-160zM293 -156h130q1 -77 51 -129t146 -52t147 52t51 129h119q0 -103 -73 -195t-239 -92q-165 -1 -249 87t-83 200z
" />
    <glyph glyph-name="Itildebelow" unicode="&#x1e2c;" horiz-adv-x="536" 
d="M135 -250q-71 0 -73 -118h-110q0 96 47 160t131 64t163 -81q3 -4 9 -11q6 -6 9 -10t9 -10t10 -8q3 -2 8 -8q4 -6 10 -7q6 -2 14 -5q7 -3 21 -3q37 -1 58 39t23 88h108q0 -87 -50 -157t-137 -70t-156 75q-51 62 -94 62zM350 0h-163v1486h163v-1486z" />
    <glyph glyph-name="itildebelow" unicode="&#x1e2d;" horiz-adv-x="561" 
d="M-35 -368q1 96 47 160t130 64t164 -81q2 -4 10 -12t14 -17t13 -12q7 -4 14 -10t12 -6q5 -1 11 -3t15 -2q37 0 58 39q20 40 24 88h108q0 -87 -51 -157q-52 -70 -138 -70t-155 75q-51 62 -93 62q-71 0 -73 -118h-110zM281 1311q-46 -1 -77 31t-31 79t31 78t77 31t78 -31
t32 -78t-32 -79t-78 -31zM202 0v1141h160v-1141h-160z" />
    <glyph glyph-name="Idieresisacute" unicode="&#x1e2e;" horiz-adv-x="536" 
d="M368 1725q0 35 24 59t58 25q34 0 58 -24q23 -25 23 -61t-23 -60t-57 -24t-59 25q-24 25 -24 60zM60 1725q0 35 24 59t58 25q34 0 59 -24q24 -23 24 -59t-24 -61t-58 -25t-59 25q-24 25 -24 60zM167 1886l276 218h186l-317 -218h-145zM350 0h-163v1486h163v-1486z" />
    <glyph glyph-name="idieresisacute" unicode="&#x1e2f;" horiz-adv-x="555" 
d="M468 1461q50 -1 72 -47q12 -22 12 -56t-28 -62t-66 -28q-40 0 -67 28t-27 68q0 41 27 69t77 28zM96 1461q40 0 66 -28t27 -69q0 -40 -27 -68q-26 -28 -66 -28t-67 28t-27 68q0 41 27 69t67 28zM198 0v1141h160v-1141h-160zM300 1592h-125l204 298h168z" />
    <glyph glyph-name="Kacute" unicode="&#x1e30;" horiz-adv-x="1267" 
d="M348 0h-163v1486h163v-737h6l672 737h196l-564 -635l593 -851h-208l-508 739l-187 -202v-537zM508 1650l277 219h183l-314 -219h-146z" />
    <glyph glyph-name="kacute" unicode="&#x1e31;" horiz-adv-x="1084" 
d="M275 1742h-127l206 298h168zM335 0h-160v1565h160v-953h6l502 531h187l-462 -496l491 -647h-193l-414 545l-117 -114v-431z" />
    <glyph glyph-name="Kdotbelow" unicode="&#x1e32;" horiz-adv-x="1267" 
d="M348 0h-163v1486h163v-737h6l672 737h196l-564 -635l593 -851h-208l-508 739l-187 -202v-537zM531 -303q0 45 30 76t76 31t77 -31t31 -76t-32 -75t-77 -30t-75 30t-30 75z" />
    <glyph glyph-name="kdotbelow" unicode="&#x1e33;" horiz-adv-x="1084" 
d="M335 0h-160v1565h160v-953h6l502 531h187l-462 -496l491 -647h-193l-414 545l-117 -114v-431zM466 -303q0 45 30 76t76 31t77 -31t31 -69q1 -70 -54 -98q-24 -14 -62 -14t-68 30t-30 75z" />
    <glyph glyph-name="Klinebelow" unicode="&#x1e34;" horiz-adv-x="1267" 
d="M924 -350h-589v106h589v-106zM348 0h-163v1486h163v-737h6l672 737h196l-564 -635l593 -851h-208l-508 739l-187 -202v-537z" />
    <glyph glyph-name="klinebelow" unicode="&#x1e35;" horiz-adv-x="1084" 
d="M862 -350h-591v106h591v-106zM335 0h-160v1565h160v-953h6l502 531h187l-462 -496l491 -647h-193l-414 545l-117 -114v-431z" />
    <glyph glyph-name="Ldotbelow" unicode="&#x1e36;" horiz-adv-x="1076" 
d="M1049 148v-148h-864v1486h163v-1338h701zM552 -408q-46 0 -77 30q-30 30 -30 75q1 45 31 76t76 31t76 -31q32 -31 32 -76t-31 -75t-77 -30z" />
    <glyph glyph-name="ldotbelow" unicode="&#x1e37;" horiz-adv-x="520" 
d="M181 0v1565h160v-1565h-160zM158 -303q0 45 30 76t76 31t76 -31t30 -76t-31 -75t-76 -30t-75 30t-30 75z" />
    <glyph glyph-name="Ldotbelowmacron" unicode="&#x1e38;" horiz-adv-x="1076" 
d="M560 1673h-589v96h589v-96zM1049 148v-148h-864v1486h163v-1338h701zM552 -408q-46 0 -77 30q-30 30 -30 75q1 45 31 76t76 31t76 -31q32 -31 32 -76t-31 -75t-77 -30z" />
    <glyph glyph-name="ldotbelowmacron" unicode="&#x1e39;" horiz-adv-x="520" 
d="M554 1746h-591v106h591v-106zM181 0v1565h160v-1565h-160zM158 -303q0 45 30 76t76 31t76 -31t30 -76t-31 -75t-76 -30t-75 30t-30 75z" />
    <glyph glyph-name="Llinebelow" unicode="&#x1e3a;" horiz-adv-x="1076" 
d="M1049 148v-148h-864v1486h163v-1338h701zM841 -350h-591v106h591v-106z" />
    <glyph glyph-name="llinebelow" unicode="&#x1e3b;" horiz-adv-x="520" 
d="M181 0v1565h160v-1565h-160zM552 -350h-589v106h589v-106z" />
    <glyph glyph-name="Lcircumflexbelow" unicode="&#x1e3c;" horiz-adv-x="1076" 
d="M273 -443l227 322h97l219 -324h-135l-132 222h-2l-139 -220h-135zM1049 148v-148h-864v1486h163v-1338h701z" />
    <glyph glyph-name="lcircumflexbelow" unicode="&#x1e3d;" horiz-adv-x="520" 
d="M-15 -443l227 322h98l219 -324h-136l-131 222h-2l-139 -220h-136zM181 0v1565h160v-1565h-160z" />
    <glyph glyph-name="Macute" unicode="&#x1e3e;" horiz-adv-x="1717" 
d="M337 0h-146v1486h154l512 -1190h5l510 1190h156v-1486h-148v1122h-4l-444 -1008h-147l-444 1008h-4v-1122zM758 1650l276 219h184l-315 -219h-145z" />
    <glyph glyph-name="macute" unicode="&#x1e3f;" horiz-adv-x="1871" 
d="M173 0v1141h160v-144h8q29 67 106 115t186 47q258 0 331 -189h6q32 76 124 133q92 58 226 56q179 0 282 -103t103 -280v-776h-161v747q0 119 -67 192q-68 73 -191 73q-85 0 -146 -38q-122 -75 -122 -246v-728h-161v728q0 186 -119 251q-58 33 -158 33t-174 -76t-73 -208
v-728h-160zM957 1317h-127l206 298h169z" />
    <glyph glyph-name="Mdotaccent" unicode="&#x1e40;" horiz-adv-x="1717" 
d="M337 0h-146v1486h154l512 -1190h5l510 1190h156v-1486h-148v1122h-4l-444 -1008h-147l-444 1008h-4v-1122zM758 1755q0 45 30 73t74 28t73 -28q29 -30 29 -74t-29 -72q-29 -29 -73 -29t-74 29t-30 73z" />
    <glyph glyph-name="mdotaccent" unicode="&#x1e41;" horiz-adv-x="1871" 
d="M173 0v1141h160v-144h8q29 67 106 115t186 47q258 0 331 -189h6q32 76 124 133q92 58 226 56q179 0 282 -103t103 -280v-776h-161v747q0 119 -67 192q-68 73 -191 73q-85 0 -146 -38q-122 -75 -122 -246v-728h-161v728q0 186 -119 251q-58 33 -158 33t-174 -76t-73 -208
v-728h-160zM835 1402q0 68 44 94q44 27 91 12q66 -19 71 -99q-1 -44 -31 -73t-74 -29t-72 29q-29 30 -29 66z" />
    <glyph glyph-name="Mdotbelow" unicode="&#x1e42;" horiz-adv-x="1717" 
d="M337 0h-146v1486h154l512 -1190h5l510 1190h156v-1486h-148v1122h-4l-444 -1008h-147l-444 1008h-4v-1122zM756 -303q0 45 30 76t75 31t76 -31t31 -76t-31 -75t-76 -30t-75 30t-30 75z" />
    <glyph glyph-name="mdotbelow" unicode="&#x1e43;" horiz-adv-x="1871" 
d="M173 0v1141h160v-144h8q29 67 106 115t186 47q258 0 331 -189h6q32 76 124 133q92 58 226 56q179 0 282 -103t103 -280v-776h-161v747q0 119 -67 192q-68 73 -191 73q-85 0 -146 -38q-122 -75 -122 -246v-728h-161v728q0 186 -119 251q-58 33 -158 33t-174 -76t-73 -208
v-728h-160zM833 -303q0 45 30 76t76 31t77 -31t31 -76t-32 -75t-77 -30t-75 30t-30 75z" />
    <glyph glyph-name="Ndotaccent" unicode="&#x1e44;" horiz-adv-x="1475" 
d="M348 0h-163v1486h163l776 -1207h4v1207h162v-1486h-162l-776 1207h-4v-1207zM637 1755q0 45 30 73t74 28t73 -28q29 -30 29 -74t-30 -72q-30 -29 -73 -29t-73 29t-30 73z" />
    <glyph glyph-name="ndotaccent" unicode="&#x1e45;" horiz-adv-x="1246" 
d="M173 0v1141h160v-154h4q35 73 123 123t210 49q177 0 295 -106t117 -293v-760h-162v699q0 312 -287 313q-146 0 -223 -86t-77 -241v-685h-160zM624 1307q-42 0 -72 29q-30 30 -30 66q0 67 51 97t104 1q51 -31 51 -100q0 -38 -31 -65q-31 -28 -73 -28z" />
    <glyph glyph-name="Ndotbelow" unicode="&#x1e46;" horiz-adv-x="1475" 
d="M348 0h-163v1486h163l776 -1207h4v1207h162v-1486h-162l-776 1207h-4v-1207zM635 -303q0 45 30 76t76 31t77 -31t31 -76t-31 -75t-76 -30t-76 30t-31 75z" />
    <glyph glyph-name="ndotbelow" unicode="&#x1e47;" horiz-adv-x="1246" 
d="M173 0v1141h160v-154h4q35 73 123 123t210 49q177 0 295 -106t117 -293v-760h-162v699q0 312 -287 313q-146 0 -223 -86t-77 -241v-685h-160zM619 -408q-37 0 -68 30t-31 75t30 76t76 31t77 -31t31 -84t-54 -83q-24 -14 -61 -14z" />
    <glyph glyph-name="Nlinebelow" unicode="&#x1e48;" horiz-adv-x="1475" 
d="M348 0h-163v1486h163l776 -1207h4v1207h162v-1486h-162l-776 1207h-4v-1207zM1030 -350h-591v106h591v-106z" />
    <glyph glyph-name="nlinebelow" unicode="&#x1e49;" horiz-adv-x="1246" 
d="M173 0v1141h160v-154h4q35 73 123 123t210 49q177 0 295 -106t117 -293v-760h-162v699q0 312 -287 313q-146 0 -223 -86t-77 -241v-685h-160zM916 -350h-591v106h591v-106z" />
    <glyph glyph-name="Ncircumflexbelow" unicode="&#x1e4a;" horiz-adv-x="1475" 
d="M462 -443l227 322h98l218 -324h-135l-131 222h-2l-140 -220h-135zM348 0h-163v1486h163l776 -1207h4v1207h162v-1486h-162l-776 1207h-4v-1207z" />
    <glyph glyph-name="ncircumflexbelow" unicode="&#x1e4b;" horiz-adv-x="1246" 
d="M350 -443l224 322h98l219 -324h-135l-132 222h-2l-139 -220h-133zM173 0v1141h160v-154h4q35 73 123 123t210 49q177 0 295 -106t117 -293v-760h-162v699q0 312 -287 313q-146 0 -223 -86t-77 -241v-685h-160z" />
    <glyph glyph-name="Otildeacute" unicode="&#x1e4c;" horiz-adv-x="1421" 
d="M591 1744q-67 0 -71 -106h-104q0 82 32 126t64 62q33 16 77 16q77 0 150 -75l27 -27q10 -10 22 -20q12 -9 37 -9q24 0 49 26t29 88h102q0 -111 -80 -175q-41 -31 -93 -31q-84 0 -153 69q-50 56 -88 56zM127 622v229q0 310 159 489t428 179t426 -178t157 -490v-229
q-1 -310 -159 -482t-428 -172t-427 172q-156 172 -156 482zM287 851v-231q0 -250 118 -376q118 -127 307 -127t306 129t116 374v231q0 248 -117 384q-118 136 -307 137q-256 0 -367 -236q-56 -118 -56 -285zM610 1886l277 218h183l-314 -218h-146z" />
    <glyph glyph-name="otildeacute" unicode="&#x1e4d;" horiz-adv-x="1196" 
d="M599 1018q-167 0 -245 -114t-79 -300v-67q0 -187 78 -299q77 -112 245 -113q168 0 245 112t77 300v67q0 186 -77 300t-244 114zM599 1159q237 -1 359 -145t122 -392v-102q0 -248 -122 -394t-359 -145q-237 0 -360 145t-122 394v102q0 241 122 390q123 147 360 147z
M285 1280q0 96 46 160t131 65q92 1 190 -113q26 -30 63 -31q36 0 57 39t23 86h108q0 -87 -50 -156q-51 -69 -119 -69q-104 -1 -156 57q-35 39 -57 59q-21 20 -53 22q-71 0 -75 -119h-108zM620 1592h-125l204 298h169z" />
    <glyph glyph-name="Otildedieresis" unicode="&#x1e4e;" horiz-adv-x="1421" 
d="M591 1744q-67 0 -71 -106h-104q0 82 32 126t64 62q33 16 77 16q77 0 150 -75l27 -27q10 -10 22 -20q12 -9 37 -9q24 0 49 26t29 88h102q0 -111 -80 -175q-41 -31 -93 -31q-84 0 -153 69q-50 56 -88 56zM127 622v229q0 310 159 489t428 179t426 -178t157 -490v-229
q-1 -310 -159 -482t-428 -172t-427 172q-156 172 -156 482zM287 851v-231q0 -250 118 -376q118 -127 307 -127t306 129t116 374v231q0 248 -117 384q-118 136 -307 137q-256 0 -367 -236q-56 -118 -56 -285zM785 2006q0 27 24 51t58 24t57 -24t23 -59t-23 -59t-49 -24
q-90 0 -90 91zM477 1998q0 35 24 59t59 24t58 -24t23 -53q0 -58 -42 -79q-19 -10 -47 -10t-51 24q-24 24 -24 59z" />
    <glyph glyph-name="otildedieresis" unicode="&#x1e4f;" horiz-adv-x="1196" 
d="M599 1018q-167 0 -245 -114t-79 -300v-67q0 -187 78 -299q77 -112 245 -113q168 0 245 112t77 300v67q0 186 -77 300t-244 114zM599 1159q237 -1 359 -145t122 -392v-102q0 -248 -122 -394t-359 -145q-237 0 -360 145t-122 394v102q0 241 122 390q123 147 360 147z
M685 1659q0 43 27 69q26 26 66 26t67 -26q27 -28 27 -70t-27 -69q-27 -28 -67 -28t-66 28t-27 70zM323 1659q0 43 27 69q26 26 66 26t67 -26q27 -28 27 -70t-27 -69q-27 -28 -67 -28t-66 28q-27 28 -27 70zM285 1280q0 96 46 160t131 65q92 1 190 -113q26 -30 63 -31
q36 0 57 39t23 86h108q0 -87 -50 -156q-51 -69 -119 -69q-104 -1 -156 57q-35 39 -57 59q-21 20 -53 22q-71 0 -75 -119h-108z" />
    <glyph glyph-name="Omacrongrave" unicode="&#x1e50;" horiz-adv-x="1421" 
d="M1005 1673h-589v96h589v-96zM127 622v229q0 310 159 489t428 179t426 -178t157 -490v-229q-1 -310 -159 -482t-428 -172t-427 172q-156 172 -156 482zM287 851v-231q0 -250 118 -376q118 -127 307 -127t306 129t116 374v231q0 248 -117 384q-118 136 -307 137
q-256 0 -367 -236q-56 -118 -56 -285zM820 1886h-146l-314 218h183z" />
    <glyph glyph-name="omacrongrave" unicode="&#x1e51;" horiz-adv-x="1196" 
d="M599 1018q-167 0 -245 -114t-79 -300v-67q0 -187 78 -299q77 -112 245 -113q168 0 245 112t77 300v67q0 186 -77 300t-244 114zM599 1159q237 -1 359 -145t122 -392v-102q0 -248 -122 -394t-359 -145q-237 0 -360 145t-122 394v102q0 241 122 390q123 147 360 147z
M891 1322h-591v106h591v-106zM683 1592h-125l-248 298h169z" />
    <glyph glyph-name="Omacronacute" unicode="&#x1e52;" horiz-adv-x="1421" 
d="M1005 1673h-589v96h589v-96zM127 622v229q0 310 159 489t428 179t426 -178t157 -490v-229q-1 -310 -159 -482t-428 -172t-427 172q-156 172 -156 482zM287 851v-231q0 -250 118 -376q118 -127 307 -127t306 129t116 374v231q0 248 -117 384q-118 136 -307 137
q-256 0 -367 -236q-56 -118 -56 -285zM610 1886l277 218h183l-314 -218h-146z" />
    <glyph glyph-name="omacronacute" unicode="&#x1e53;" horiz-adv-x="1196" 
d="M599 1018q-167 0 -245 -114t-79 -300v-67q0 -187 78 -299q77 -112 245 -113q168 0 245 112t77 300v67q0 186 -77 300t-244 114zM599 1159q237 -1 359 -145t122 -392v-102q0 -248 -122 -394t-359 -145q-237 0 -360 145t-122 394v102q0 241 122 390q123 147 360 147z
M891 1322h-591v106h591v-106zM620 1592h-125l204 298h169z" />
    <glyph glyph-name="Pacute" unicode="&#x1e54;" horiz-adv-x="1240" 
d="M348 1338v-614h249q212 0 314 66q101 66 101 227t-80 241t-226 80h-358zM185 1486h525q210 0 339 -125t129 -332t-128 -328q-128 -122 -340 -122h-362v-579h-163v1486zM489 1650l277 219h183l-314 -219h-146z" />
    <glyph glyph-name="pacute" unicode="&#x1e55;" horiz-adv-x="1238" 
d="M641 1317h-125l204 298h169zM654 125q139 0 223 100t85 287v121q0 183 -84 284t-229 101q-146 0 -231 -103t-85 -266v-149q0 -220 149 -323q74 -52 172 -52zM676 -19q-241 0 -339 177h-4v-553h-160v1538h154v-165h4q46 109 183 155q75 26 169 26q195 0 317 -136t122 -369
v-169q0 -235 -123 -369t-323 -135z" />
    <glyph glyph-name="Pdotaccent" unicode="&#x1e56;" horiz-adv-x="1240" 
d="M491 1755q0 45 29 73t73 28t73 -28q29 -30 29 -74t-29 -72q-29 -29 -73 -29t-73 29t-29 73zM348 1338v-614h249q212 0 314 66q101 66 101 227t-80 241t-226 80h-358zM185 1486h525q210 0 339 -125t129 -332t-128 -328q-128 -122 -340 -122h-362v-579h-163v1486z" />
    <glyph glyph-name="pdotaccent" unicode="&#x1e57;" horiz-adv-x="1238" 
d="M518 1402q0 67 51 97t104 1q53 -31 52 -95t-64 -90q-19 -8 -51 -8t-62 29q-30 30 -30 66zM654 125q139 0 223 100t85 287v121q0 183 -84 284t-229 101q-146 0 -231 -103t-85 -266v-149q0 -220 149 -323q74 -52 172 -52zM676 -19q-241 0 -339 177h-4v-553h-160v1538h154
v-165h4q46 109 183 155q75 26 169 26q195 0 317 -136t122 -369v-169q0 -235 -123 -369t-323 -135z" />
    <glyph glyph-name="Rdotaccent" unicode="&#x1e58;" horiz-adv-x="1309" 
d="M516 1755q0 45 29 73t73 28t74 -28q30 -30 30 -66t-14 -59q-31 -52 -82 -51q-52 1 -81 30t-29 73zM348 751h333q156 0 243 74t86 217q-1 142 -87 220t-236 78h-339v-589zM708 1486q186 0 304 -86q164 -125 164 -349q0 -169 -81 -271t-202 -141l308 -639h-185l-285 606
h-383v-606h-163v1486h523z" />
    <glyph glyph-name="rdotaccent" unicode="&#x1e59;" horiz-adv-x="745" 
d="M343 1409q-1 44 29 74t71 30q55 0 80 -34q26 -34 26 -74t-30 -69t-74 -29t-73 29t-29 73zM191 0v1141h159v-142h4q37 77 83 107q76 51 206 51q27 0 71 -4v-148q-23 4 -90 4q-144 0 -210 -78t-64 -213v-718h-159z" />
    <glyph glyph-name="Rdotbelow" unicode="&#x1e5a;" horiz-adv-x="1309" 
d="M348 751h333q156 0 243 74t86 217q-1 142 -87 220t-236 78h-339v-589zM708 1486q186 0 304 -86q164 -125 164 -349q0 -169 -81 -271t-202 -141l308 -639h-185l-285 606h-383v-606h-163v1486h523zM514 -303q0 45 30 76t75 31t76 -31t31 -76t-31 -75t-76 -30t-75 30t-30 75
z" />
    <glyph glyph-name="rdotbelow" unicode="&#x1e5b;" horiz-adv-x="745" 
d="M191 0v1141h159v-142h4q37 77 83 107q76 51 206 51q27 0 71 -4v-148q-23 4 -90 4q-144 0 -210 -78t-64 -213v-718h-159zM169 -303q0 45 30 76t76 31t77 -31t31 -76t-31 -75t-77 -30t-76 30t-30 75z" />
    <glyph glyph-name="Rdotbelowmacron" unicode="&#x1e5c;" horiz-adv-x="1309" 
d="M910 1673h-589v96h589v-96zM348 751h333q156 0 243 74t86 217q-1 142 -87 220t-236 78h-339v-589zM708 1486q186 0 304 -86q164 -125 164 -349q0 -169 -81 -271t-202 -141l308 -639h-185l-285 606h-383v-606h-163v1486h523zM514 -303q0 45 30 76t75 31t76 -31t31 -76
t-31 -75t-76 -30t-75 30t-30 75z" />
    <glyph glyph-name="rdotbelowmacron" unicode="&#x1e5d;" horiz-adv-x="745" 
d="M737 1322h-591v106h591v-106zM191 0v1141h159v-142h4q37 77 83 107q76 51 206 51q27 0 71 -4v-148q-23 4 -90 4q-144 0 -210 -78t-64 -213v-718h-159zM169 -303q0 45 30 76t76 31t77 -31t31 -76t-31 -75t-77 -30t-76 30t-30 75z" />
    <glyph glyph-name="Rlinebelow" unicode="&#x1e5e;" horiz-adv-x="1309" 
d="M907 -350h-591v106h591v-106zM348 751h333q156 0 243 74t86 217q-1 142 -87 220t-236 78h-339v-589zM708 1486q186 0 304 -86q164 -125 164 -349q0 -169 -81 -271t-202 -141l308 -639h-185l-285 606h-383v-606h-163v1486h523z" />
    <glyph glyph-name="rlinebelow" unicode="&#x1e5f;" horiz-adv-x="745" 
d="M564 -350h-591v106h591v-106zM191 0v1141h159v-142h4q37 77 83 107q76 51 206 51q27 0 71 -4v-148q-23 4 -90 4q-144 0 -210 -78t-64 -213v-718h-159z" />
    <glyph glyph-name="Sdotaccent" unicode="&#x1e60;" horiz-adv-x="1246" 
d="M520 1755q0 45 29 73t73 28t74 -28q30 -30 30 -66t-14 -59q-31 -52 -82 -51q-52 1 -81 30t-29 73zM976 380q0 114 -62 172q-62 60 -196 95l-258 69q-140 39 -241 129q-100 90 -100 256q0 98 41 179q79 152 273 213q89 28 177 28q264 0 408 -145q104 -104 108 -269h-162
q-10 117 -98 192t-244 75q-154 0 -246 -70t-93 -193q0 -179 221 -237l252 -69q288 -77 360 -247q27 -67 27 -152q0 -208 -154 -322t-392 -115q-137 -1 -242 39q-181 68 -251 240q-29 70 -31 145h164q8 -113 107 -195q99 -83 267 -82q169 2 267 76t98 188z" />
    <glyph glyph-name="sdotaccent" unicode="&#x1e61;" horiz-adv-x="1059" 
d="M429 1402q0 69 51 98t104 0q51 -30 51 -90t-51 -89q-24 -14 -60 -14t-65 29q-30 30 -30 66zM117 822q0 164 118 251q119 86 303 86q184 -1 286 -97t102 -240h-150q-4 76 -63 141q-58 65 -180 65q-121 0 -190 -51t-68 -138q0 -109 117 -151q56 -21 147 -38q92 -18 143 -30
q273 -64 273 -282q0 -118 -57 -198q-113 -160 -384 -159q-190 -1 -304 87t-114 236h156q12 -85 80 -137q68 -53 196 -53t198 54q71 54 71 135q0 80 -41 113q-23 19 -44 33t-82 30t-126 30t-146 35t-121 48q-87 62 -103 119q-17 57 -17 111z" />
    <glyph glyph-name="Sdotbelow" unicode="&#x1e62;" horiz-adv-x="1246" 
d="M976 380q0 114 -62 172q-62 60 -196 95l-258 69q-140 39 -241 129q-100 90 -100 256q0 98 41 179q79 152 273 213q89 28 177 28q264 0 408 -145q104 -104 108 -269h-162q-10 117 -98 192t-244 75q-154 0 -246 -70t-93 -193q0 -179 221 -237l252 -69q288 -77 360 -247
q27 -67 27 -152q0 -208 -154 -322t-392 -115q-137 -1 -242 39q-181 68 -251 240q-29 70 -31 145h164q8 -113 107 -195q99 -83 267 -82q169 2 267 76t98 188zM600 -408q-45 0 -75 30t-30 75q1 45 31 76t74 31t76 -31t32 -76t-32 -75t-76 -30z" />
    <glyph glyph-name="sdotbelow" unicode="&#x1e63;" horiz-adv-x="1059" 
d="M117 822q0 164 118 251q119 86 303 86q184 -1 286 -97t102 -240h-150q-4 76 -63 141q-58 65 -180 65q-121 0 -190 -51t-68 -138q0 -109 117 -151q56 -21 147 -38q92 -18 143 -30q273 -64 273 -282q0 -118 -57 -198q-113 -160 -384 -159q-190 -1 -304 87t-114 236h156
q12 -85 80 -137q68 -53 196 -53t198 54q71 54 71 135q0 80 -41 113q-23 19 -44 33t-82 30t-126 30t-146 35t-121 48q-87 62 -103 119q-17 57 -17 111zM427 -303q0 45 30 76t76 31t77 -31t31 -76t-31 -75t-76 -30t-76 30t-31 75z" />
    <glyph glyph-name="Sacutedotaccent" unicode="&#x1e64;" horiz-adv-x="1246" 
d="M976 380q0 114 -62 172q-62 60 -196 95l-258 69q-140 39 -241 129q-100 90 -100 256q0 98 41 179q79 152 273 213q89 28 177 28q264 0 408 -145q104 -104 108 -269h-162q-10 117 -98 192t-244 75q-154 0 -246 -70t-93 -193q0 -179 221 -237l252 -69q288 -77 360 -247
q27 -67 27 -152q0 -208 -154 -322t-392 -115q-137 -1 -242 39q-181 68 -251 240q-29 70 -31 145h164q8 -113 107 -195q99 -83 267 -82q169 2 267 76t98 188zM604 1703l276 218h184l-315 -218h-145zM316 1844q0 40 26 66t65 26t65 -26t25 -66q0 -40 -26 -64q-26 -25 -64 -25
t-65 25q-26 24 -26 64z" />
    <glyph glyph-name="sacutedotaccent" unicode="&#x1e65;" horiz-adv-x="1059" 
d="M631 1317h-127l204 298h168zM117 822q0 164 118 251q119 86 303 86q184 -1 286 -97t102 -240h-150q-4 76 -63 141q-58 65 -180 65q-121 0 -190 -51t-68 -138q0 -109 117 -151q56 -21 147 -38q92 -18 143 -30q273 -64 273 -282q0 -118 -57 -198q-113 -160 -384 -159
q-190 -1 -304 87t-114 236h156q12 -85 80 -137q68 -53 196 -53t198 54q71 54 71 135q0 80 -41 113q-23 19 -44 33t-82 30t-126 30t-146 35t-121 48q-87 62 -103 119q-17 57 -17 111zM343 1625q59 0 83 -45q12 -21 11 -54q0 -34 -26 -60t-67 -26q-40 0 -66 26t-26 60
q0 62 46 87q21 12 45 12z" />
    <glyph glyph-name="Scarondotaccent" unicode="&#x1e66;" horiz-adv-x="1246" 
d="M275 1877h158l185 -147h6l188 147h156l-302 -233h-87zM976 380q0 114 -62 172q-62 60 -196 95l-258 69q-140 39 -241 129q-100 90 -100 256q0 98 41 179q79 152 273 213q89 28 177 28q264 0 408 -145q104 -104 108 -269h-162q-10 117 -98 192t-244 75q-154 0 -246 -70
t-93 -193q0 -179 221 -237l252 -69q288 -77 360 -247q27 -67 27 -152q0 -208 -154 -322t-392 -115q-137 -1 -242 39q-181 68 -251 240q-29 70 -31 145h164q8 -113 107 -195q99 -83 267 -82q169 2 267 76t98 188zM539 2024q0 36 24 62q25 26 61 27q36 0 60 -26q24 -25 24 -63
t-24 -61t-62 -23t-60 24q-23 24 -23 60z" />
    <glyph glyph-name="scarondotaccent" unicode="&#x1e67;" horiz-adv-x="1059" 
d="M117 822q0 164 118 251q119 86 303 86q184 -1 286 -97t102 -240h-150q-4 76 -63 141q-58 65 -180 65q-121 0 -190 -51t-68 -138q0 -109 117 -151q56 -21 147 -38q92 -18 143 -30q273 -64 273 -282q0 -118 -57 -198q-113 -160 -384 -159q-190 -1 -304 87t-114 236h156
q12 -85 80 -137q68 -53 196 -53t198 54q71 54 71 135q0 80 -41 113q-23 19 -44 33t-82 30t-126 30t-146 35t-121 48q-87 62 -103 119q-17 57 -17 111zM262 1632h133l138 -221h4l131 223h135l-216 -325h-100zM433 1836q-1 106 105 106q30 0 58 -27t28 -69q0 -62 -58 -86
q-64 -23 -106 19q-27 27 -27 57z" />
    <glyph glyph-name="Sdotbelowdotaccent" unicode="&#x1e68;" horiz-adv-x="1246" 
d="M520 1755q0 45 29 73t73 28t74 -28q30 -30 30 -66t-14 -59q-31 -52 -82 -51q-52 1 -81 30t-29 73zM976 380q0 114 -62 172q-62 60 -196 95l-258 69q-140 39 -241 129q-100 90 -100 256q0 98 41 179q79 152 273 213q89 28 177 28q264 0 408 -145q104 -104 108 -269h-162
q-10 117 -98 192t-244 75q-154 0 -246 -70t-93 -193q0 -179 221 -237l252 -69q288 -77 360 -247q27 -67 27 -152q0 -208 -154 -322t-392 -115q-137 -1 -242 39q-181 68 -251 240q-29 70 -31 145h164q8 -113 107 -195q99 -83 267 -82q169 2 267 76t98 188zM600 -408
q-45 0 -75 30t-30 75q1 45 31 76t74 31t76 -31t32 -76t-32 -75t-76 -30z" />
    <glyph glyph-name="sdotbelowdotaccent" unicode="&#x1e69;" horiz-adv-x="1059" 
d="M429 1402q0 69 51 98t104 0q51 -30 51 -90t-51 -89q-24 -14 -60 -14t-65 29q-30 30 -30 66zM117 822q0 164 118 251q119 86 303 86q184 -1 286 -97t102 -240h-150q-4 76 -63 141q-58 65 -180 65q-121 0 -190 -51t-68 -138q0 -109 117 -151q56 -21 147 -38q92 -18 143 -30
q273 -64 273 -282q0 -118 -57 -198q-113 -160 -384 -159q-190 -1 -304 87t-114 236h156q12 -85 80 -137q68 -53 196 -53t198 54q71 54 71 135q0 80 -41 113q-23 19 -44 33t-82 30t-126 30t-146 35t-121 48q-87 62 -103 119q-17 57 -17 111zM427 -303q0 45 30 76t76 31
t77 -31t31 -76t-31 -75t-76 -30t-76 30t-31 75z" />
    <glyph glyph-name="Tdotaccent" unicode="&#x1e6a;" horiz-adv-x="1128" 
d="M643 0h-160v1338h-462v148h1086v-148h-464v-1338zM462 1755q0 45 30 73t74 28t73 -28q29 -30 29 -74t-29 -72q-29 -29 -73 -29t-74 29t-30 73z" />
    <glyph glyph-name="tdotaccent" unicode="&#x1e6b;" horiz-adv-x="701" 
d="M223 1141v287h160v-287h235v-136h-235v-701q0 -104 41 -140t150 -37q37 0 55 2v-131q-37 -8 -113 -8q-171 0 -235 80q-33 43 -46 99q-12 56 -12 143v693h-161v136h161zM210 1684q0 44 29 73t65 29t61 -12q53 -28 52 -81t-31 -82t-73 -29t-73 29t-30 73z" />
    <glyph glyph-name="Tdotbelow" unicode="&#x1e6c;" horiz-adv-x="1128" 
d="M643 0h-160v1338h-462v148h1086v-148h-464v-1338zM460 -303q0 45 31 76t76 31t76 -31t31 -76t-31 -75t-76 -30t-76 30t-31 75z" />
    <glyph glyph-name="tdotbelow" unicode="&#x1e6d;" horiz-adv-x="701" 
d="M223 1141v287h160v-287h235v-136h-235v-701q0 -104 41 -140t150 -37q37 0 55 2v-131q-37 -8 -113 -8q-171 0 -235 80q-33 43 -46 99q-12 56 -12 143v693h-161v136h161zM331 -303q0 45 30 76t76 31t77 -31t31 -76t-31 -75t-77 -30t-76 30t-30 75z" />
    <glyph glyph-name="Tlinebelow" unicode="&#x1e6e;" horiz-adv-x="1128" 
d="M643 0h-160v1338h-462v148h1086v-148h-464v-1338zM855 -350h-591v106h591v-106z" />
    <glyph glyph-name="tlinebelow" unicode="&#x1e6f;" horiz-adv-x="701" 
d="M223 1141v287h160v-287h235v-136h-235v-701q0 -104 41 -140t150 -37q37 0 55 2v-131q-37 -8 -113 -8q-171 0 -235 80q-33 43 -46 99q-12 56 -12 143v693h-161v136h161zM726 -350h-591v106h591v-106z" />
    <glyph glyph-name="Tcircumflexbelow" unicode="&#x1e70;" horiz-adv-x="1128" 
d="M289 -443l225 322h100l216 -324h-135l-131 222h-2l-137 -220h-136zM643 0h-160v1338h-462v148h1086v-148h-464v-1338z" />
    <glyph glyph-name="tcircumflexbelow" unicode="&#x1e71;" horiz-adv-x="701" 
d="M158 -443l227 322h98l218 -324h-135l-131 222h-2l-140 -220h-135zM223 1141v287h160v-287h235v-136h-235v-701q0 -104 41 -140t150 -37q37 0 55 2v-131q-37 -8 -113 -8q-171 0 -235 80q-33 43 -46 99q-12 56 -12 143v693h-161v136h161z" />
    <glyph glyph-name="Udieresisbelow" unicode="&#x1e72;" horiz-adv-x="1442" 
d="M899 -431q-40 0 -67 28t-27 68t25 68t67 29t69 -27t27 -69t-27 -69t-67 -28zM443 -334q0 41 27 69t67 28t67 -28t27 -69t-27 -69t-67 -28t-67 28t-27 69zM329 1486v-970q0 -183 105 -291t286 -108t288 108t108 291v970h160v-970q0 -248 -153 -398t-402 -149
q-249 0 -402 152t-152 399v966h162z" />
    <glyph glyph-name="udieresisbelow" unicode="&#x1e73;" horiz-adv-x="1240" 
d="M799 -431q-41 0 -67 28t-26 68t25 68q25 27 66 29q42 1 69 -27t27 -69t-27 -69t-67 -28zM343 -346q1 28 5 44q12 40 59 60q13 5 41 5t54 -28t28 -69q1 -41 -26 -69q-26 -28 -66 -28t-68 28q-27 29 -27 57zM1070 1141v-1141h-160v156h-7q-33 -77 -118 -126t-217 -49
q-181 0 -292 102t-112 294v764h161v-718q1 -104 39 -172q69 -122 246 -122q135 0 217 82t83 222v708h160z" />
    <glyph glyph-name="Utildebelow" unicode="&#x1e74;" horiz-adv-x="1442" 
d="M329 1486v-970q0 -183 105 -291t286 -108t288 108t108 291v970h160v-970q0 -248 -153 -398t-402 -149q-249 0 -402 152t-152 399v966h162zM406 -368q0 96 46 160t131 64t162 -81q3 -4 11 -12t13 -17t14 -12q8 -4 14 -10q5 -6 11 -6q6 -1 13 -3t14 -2q37 -1 58 39t23 88
h108q0 -87 -50 -157t-137 -70q-87 1 -149 69t-99 68q-73 0 -75 -118h-108z" />
    <glyph glyph-name="utildebelow" unicode="&#x1e75;" horiz-adv-x="1240" 
d="M1070 1141v-1141h-160v156h-7q-33 -77 -118 -126t-217 -49q-181 0 -292 102t-112 294v764h161v-718q1 -104 39 -172q69 -122 246 -122q135 0 217 82t83 222v708h160zM306 -368q0 96 46 160t131 64t162 -81q3 -4 11 -12t13 -16t12 -13q8 -4 15 -10q6 -6 12 -6q6 -1 13 -3
t14 -2q37 -1 58 39t23 88h108q0 -87 -50 -157t-137 -70q-87 1 -149 69t-99 68q-73 0 -75 -118h-108z" />
    <glyph glyph-name="Ucircumflexbelow" unicode="&#x1e76;" horiz-adv-x="1442" 
d="M445 -443l225 322h100l219 -324h-136l-131 222h-4l-137 -220h-136zM329 1486v-970q0 -183 105 -291t286 -108t288 108t108 291v970h160v-970q0 -248 -153 -398t-402 -149q-249 0 -402 152t-152 399v966h162z" />
    <glyph glyph-name="ucircumflexbelow" unicode="&#x1e77;" horiz-adv-x="1240" 
d="M345 -443l225 322h100l219 -324h-136l-133 222h-2l-137 -220h-136zM1070 1141v-1141h-160v156h-7q-33 -77 -118 -126t-217 -49q-181 0 -292 102t-112 294v764h161v-718q1 -104 39 -172q69 -122 246 -122q135 0 217 82t83 222v708h160z" />
    <glyph glyph-name="Utildeacute" unicode="&#x1e78;" horiz-adv-x="1442" 
d="M835 1711q58 0 79 114h102q0 -111 -80 -175q-41 -31 -103 -31t-104 33q-17 13 -40 36q-52 56 -88 56q-67 0 -72 -106h-102q0 82 41 143t127 61q85 0 170 -92q11 -12 17 -16t16 -14q12 -10 37 -9zM329 1486v-970q0 -183 105 -291t286 -108t288 108t108 291v970h160v-970
q0 -248 -153 -398t-402 -149q-249 0 -402 152t-152 399v966h162zM618 1886l277 218h185l-316 -218h-146z" />
    <glyph glyph-name="utildeacute" unicode="&#x1e79;" horiz-adv-x="1240" 
d="M306 1280q0 96 46 160t136 65q90 0 172 -98q33 -39 49 -43q17 -3 28 -3q37 0 57 39t24 86h106q0 -87 -50 -156t-118 -69q-102 -1 -156 57q-24 26 -49 52q-24 26 -60 29q-71 0 -77 -119h-108zM643 1592h-127l206 298h169zM1070 1141v-1141h-160v156h-7q-33 -77 -118 -126
t-217 -49q-181 0 -292 102t-112 294v764h161v-718q1 -104 39 -172q69 -122 246 -122q135 0 217 82t83 222v708h160z" />
    <glyph glyph-name="Umacrondieresis" unicode="&#x1e7a;" horiz-adv-x="1442" 
d="M1014 1673h-587v96h587v-96zM329 1486v-970q0 -183 105 -291t286 -108t288 108t108 291v970h160v-970q0 -248 -153 -398t-402 -149q-249 0 -402 152t-152 399v966h162zM795 2006q0 27 23 51t58 24q34 0 58 -24t24 -59t-24 -59q-22 -24 -48 -24q-90 0 -91 91zM487 1998
q0 35 23 59t58 24q36 0 60 -24t24 -53t-12 -49q-22 -40 -64 -40t-65 24q-24 24 -24 59z" />
    <glyph glyph-name="umacrondieresis" unicode="&#x1e7b;" horiz-adv-x="1240" 
d="M708 1659q0 43 27 69t67 26t66 -26q27 -28 27 -70t-27 -69q-26 -28 -66 -28t-67 28t-27 70zM343 1659q0 43 27 69q26 26 60 26t56 -12q43 -24 44 -74q1 -51 -26 -79t-67 -28t-67 28t-27 70zM914 1322h-591v106h591v-106zM1070 1141v-1141h-160v156h-7q-33 -77 -118 -126
t-217 -49q-181 0 -292 102t-112 294v764h161v-718q1 -104 39 -172q69 -122 246 -122q135 0 217 82t83 222v708h160z" />
    <glyph glyph-name="Vtilde" unicode="&#x1e7c;" horiz-adv-x="1290" 
d="M724 0h-160l-541 1486h183l437 -1270h4l435 1270h186zM524 1744q-67 0 -70 -106h-104q0 85 43 145q44 59 128 59t166 -91q8 -9 13 -13t18 -16q13 -11 45 -11t51 35t23 79h102q0 -111 -80 -175q-41 -31 -93 -31q-85 0 -154 69q-50 56 -88 56z" />
    <glyph glyph-name="vtilde" unicode="&#x1e7d;" horiz-adv-x="1051" 
d="M441 0l-410 1141h179l306 -966h6l325 966h171l-417 -1141h-160zM210 1280q0 96 46 160t136 65q90 0 172 -98q10 -11 14 -15t14 -12q9 -8 18 -14t38 -5q30 0 50 39t24 86h106q0 -87 -50 -156t-131 -69q-89 -1 -143 57q-18 20 -23 24q-50 56 -88 57q-69 0 -75 -119h-108z
" />
    <glyph glyph-name="Vdotbelow" unicode="&#x1e7e;" horiz-adv-x="1290" 
d="M724 0h-160l-541 1486h183l437 -1270h4l435 1270h186zM541 -303q0 45 30 76t76 31t77 -31q32 -31 32 -76t-32 -75t-76 -30q-45 0 -76 30t-31 75z" />
    <glyph glyph-name="vdotbelow" unicode="&#x1e7f;" horiz-adv-x="1051" 
d="M441 0l-410 1141h179l306 -966h6l325 966h171l-417 -1141h-160zM423 -303q0 45 30 76t75 31t76 -31t31 -69q0 -70 -52 -98q-25 -14 -63 -14t-67 30q-30 30 -30 75z" />
    <glyph glyph-name="Wgrave" unicode="&#x1e80;" horiz-adv-x="1808" 
d="M574 0h-145l-410 1486h191l294 -1201h4l310 1201h175l310 -1201h4l294 1201h191l-410 -1486h-148l-327 1209h-6zM1016 1650h-146l-316 219h185z" />
    <glyph glyph-name="wgrave" unicode="&#x1e81;" horiz-adv-x="1563" 
d="M1528 1141l-306 -1141h-156l-275 907h-4l-269 -907h-158l-323 1141h182l218 -925h8l267 925h152l272 -925h9l222 925h161zM866 1317h-125l-248 298h169z" />
    <glyph glyph-name="Wacute" unicode="&#x1e82;" horiz-adv-x="1808" 
d="M574 0h-145l-410 1486h191l294 -1201h4l310 1201h175l310 -1201h4l294 1201h191l-410 -1486h-148l-327 1209h-6zM803 1650l277 219h185l-316 -219h-146z" />
    <glyph glyph-name="wacute" unicode="&#x1e83;" horiz-adv-x="1563" 
d="M1528 1141l-306 -1141h-156l-275 907h-4l-269 -907h-158l-323 1141h182l218 -925h8l267 925h152l272 -925h9l222 925h161zM803 1317h-124l203 298h169z" />
    <glyph glyph-name="Wdieresis" unicode="&#x1e84;" horiz-adv-x="1808" 
d="M574 0h-145l-410 1486h191l294 -1201h4l310 1201h175l310 -1201h4l294 1201h191l-410 -1486h-148l-327 1209h-6zM1005 1725q0 35 24 59t53 25t47 -11q39 -25 40 -68q1 -42 -23 -66t-58 -24t-59 25q-24 25 -24 60zM699 1725q0 35 23 59t57 25q35 0 59 -24q24 -23 24 -59
t-24 -61t-58 -25t-58 25q-23 25 -23 60z" />
    <glyph glyph-name="wdieresis" unicode="&#x1e85;" horiz-adv-x="1563" 
d="M1528 1141l-306 -1141h-156l-275 907h-4l-269 -907h-158l-323 1141h182l218 -925h8l267 925h152l272 -925h9l222 925h161zM962 1461q40 0 66 -28t27 -69q0 -40 -27 -68q-26 -28 -66 -28t-67 28t-27 68q0 41 27 69t67 28zM607 1461q47 -1 73 -47q12 -22 13 -56
q0 -34 -27 -62q-26 -28 -66 -28t-67 28t-27 68q0 41 27 69t74 28z" />
    <glyph glyph-name="Wdotaccent" unicode="&#x1e86;" horiz-adv-x="1808" 
d="M574 0h-145l-410 1486h191l294 -1201h4l310 1201h175l310 -1201h4l294 1201h191l-410 -1486h-148l-327 1209h-6zM805 1755q-1 45 29 73t74 28t73 -28q31 -30 31 -74t-30 -72q-30 -29 -75 -29q-44 0 -73 29t-29 73z" />
    <glyph glyph-name="wdotaccent" unicode="&#x1e87;" horiz-adv-x="1563" 
d="M1528 1141l-306 -1141h-156l-275 907h-4l-269 -907h-158l-323 1141h182l218 -925h8l267 925h152l272 -925h9l222 925h161zM681 1402q0 69 45 94q45 26 76 17q80 -25 85 -104q-1 -44 -31 -73t-72 -29t-73 29q-30 30 -30 66z" />
    <glyph glyph-name="Wdotbelow" unicode="&#x1e88;" horiz-adv-x="1808" 
d="M574 0h-145l-410 1486h191l294 -1201h4l310 1201h175l310 -1201h4l294 1201h191l-410 -1486h-148l-327 1209h-6zM908 -408q-45 0 -76 30t-31 75q-1 45 31 76t76 31t76 -31t32 -76t-32 -75t-76 -30z" />
    <glyph glyph-name="wdotbelow" unicode="&#x1e89;" horiz-adv-x="1563" 
d="M1528 1141l-306 -1141h-156l-275 907h-4l-269 -907h-158l-323 1141h182l218 -925h8l267 925h152l272 -925h9l222 925h161zM679 -303q0 45 30 76t76 31t77 -31t31 -76t-31 -75t-77 -30t-76 30t-30 75z" />
    <glyph glyph-name="Xdotaccent" unicode="&#x1e8a;" horiz-adv-x="1213" 
d="M506 1755q0 45 30 73t74 28t73 -28q29 -30 29 -74t-29 -72q-29 -29 -73 -29t-74 29t-30 73zM1201 1486l-500 -751l490 -735h-198l-392 608h-8l-393 -608h-185l493 749l-487 737h198l393 -608h8l392 608h189z" />
    <glyph glyph-name="xdotaccent" unicode="&#x1e8b;" horiz-adv-x="1084" 
d="M441 1409q0 44 29 74q28 30 70 30q55 0 81 -34t26 -74t-30 -69t-74 -29t-73 29t-29 73zM830 0l-289 443h-6l-289 -443h-184l390 564l-390 577h192l283 -440h6l290 440h185l-389 -558l395 -583h-194z" />
    <glyph glyph-name="Xdieresis" unicode="&#x1e8c;" horiz-adv-x="1213" 
d="M708 1717q0 43 23 67t58 25q35 0 58 -24q23 -25 23 -61t-23 -60t-52 -24t-48 12q-39 22 -39 65zM400 1725q0 35 24 59t58 25q34 0 58 -24q24 -23 24 -59t-24 -61t-58 -25t-58 25t-24 60zM1201 1486l-500 -751l490 -735h-198l-392 608h-8l-393 -608h-185l493 749l-487 737
h198l393 -608h8l392 608h189z" />
    <glyph glyph-name="xdieresis" unicode="&#x1e8d;" horiz-adv-x="1084" 
d="M722 1268q-40 0 -66 28t-27 68q0 41 27 69t59 28q99 1 101 -103q0 -34 -27 -62t-67 -28zM454 1364q0 -40 -27 -68t-67 -28t-66 28q-28 28 -28 68q0 41 27 69t67 28t67 -28t27 -69zM830 0l-289 443h-6l-289 -443h-184l390 564l-390 577h192l283 -440h6l290 440h185
l-389 -558l395 -583h-194z" />
    <glyph glyph-name="Ydotaccent" unicode="&#x1e8e;" horiz-adv-x="1169" 
d="M485 1755q0 45 29 73t73 28t74 -28q30 -30 30 -74t-30 -72q-30 -29 -74 -29t-73 29t-29 73zM666 0h-162v654l-498 832h188l389 -672h4l391 672h188l-500 -832v-654z" />
    <glyph glyph-name="ydotaccent" unicode="&#x1e8f;" horiz-adv-x="1101" 
d="M450 1402q0 69 45 94q45 26 76 17q80 -25 85 -104q0 -44 -30 -73t-74 -29q-42 0 -72 29q-30 30 -30 66zM260 -412q-66 0 -125 8v136q255 -44 310 181l21 68l-424 1160h177l326 -974h7l324 974h171l-443 -1237q-89 -240 -219 -292q-59 -24 -125 -24z" />
    <glyph glyph-name="Zcircumflex" unicode="&#x1e90;" horiz-adv-x="1242" 
d="M281 1646l306 254h81l304 -254h-158l-185 161h-7l-183 -161h-158zM92 0v119l824 1217v4h-793v146h995v-114l-820 -1220v-4h836v-148h-1042z" />
    <glyph glyph-name="zcircumflex" unicode="&#x1e91;" horiz-adv-x="1046" 
d="M110 0v114l629 885v10h-633v132h833v-115l-629 -882v-11h633v-133h-833zM250 1324l225 322h99l217 -324h-133l-134 220h-2l-139 -218h-133z" />
    <glyph glyph-name="Zdotbelow" unicode="&#x1e92;" horiz-adv-x="1242" 
d="M92 0v119l824 1217v4h-793v146h995v-114l-820 -1220v-4h836v-148h-1042zM518 -303q0 45 30 76t76 31t77 -31t31 -69q1 -69 -53 -98q-25 -14 -62 -14t-68 30t-31 75z" />
    <glyph glyph-name="zdotbelow" unicode="&#x1e93;" horiz-adv-x="1046" 
d="M110 0v114l629 885v10h-633v132h833v-115l-629 -882v-11h633v-133h-833zM526 -408q-46 0 -76 30t-30 75t30 76t76 31t78 -31t31 -76q0 -45 -31 -75q-32 -30 -78 -30z" />
    <glyph glyph-name="Zlinebelow" unicode="&#x1e94;" horiz-adv-x="1242" 
d="M914 -350h-591v106h591v-106zM92 0v119l824 1217v4h-793v146h995v-114l-820 -1220v-4h836v-148h-1042z" />
    <glyph glyph-name="zlinebelow" unicode="&#x1e95;" horiz-adv-x="1046" 
d="M110 0v114l629 885v10h-633v132h833v-115l-629 -882v-11h633v-133h-833zM816 -350h-591v106h591v-106z" />
    <glyph glyph-name="hlinebelow" unicode="&#x1e96;" horiz-adv-x="1255" 
d="M912 -350h-591v106h591v-106zM175 0v1565h160v-578h6q31 69 113 121t210 51q191 0 308 -124t117 -321v-714h-161v683q0 149 -74 239t-213 90q-196 0 -271 -157q-35 -75 -35 -176v-679h-160z" />
    <glyph glyph-name="tdieresis" unicode="&#x1e97;" horiz-adv-x="701" 
d="M398 1639q0 41 27 69t67 28t66 -28q27 -28 27 -62t-13 -57q-24 -47 -88 -47q-32 0 -60 28q-26 28 -26 69zM35 1639q0 41 27 69t67 28t67 -28t27 -62q-1 -34 -13 -57q-25 -45 -72 -46q-48 -1 -76 27q-27 28 -27 69zM223 1141v287h160v-287h235v-136h-235v-701
q0 -104 41 -140t150 -37q37 0 55 2v-131q-37 -8 -113 -8q-171 0 -235 80q-33 43 -46 99q-12 56 -12 143v693h-161v136h161z" />
    <glyph glyph-name="wring" unicode="&#x1e98;" horiz-adv-x="1563" 
d="M666 1499q0 -49 33 -83t77 -34t70 20t38 49q11 29 11 63t-33 68q-34 33 -82 33t-81 -34t-33 -82zM782 1303q-84 0 -143 56q-58 55 -58 139t58 141q59 57 143 57t142 -57t58 -140t-58 -139t-142 -57zM1528 1141l-306 -1141h-156l-275 907h-4l-269 -907h-158l-323 1141h182
l218 -925h8l267 925h152l272 -925h9l222 925h161z" />
    <glyph glyph-name="yring" unicode="&#x1e99;" horiz-adv-x="1101" 
d="M435 1499q0 -49 33 -83t77 -34t70 20q49 37 49 100q0 64 -55 97q-26 16 -67 16t-74 -34t-33 -82zM551 1303q-84 0 -143 56q-58 55 -58 139t58 141t142 57t143 -57q58 -57 58 -140t-58 -139t-142 -57zM260 -412q-66 0 -125 8v136q255 -44 310 181l21 68l-424 1160h177
l326 -974h7l324 974h171l-443 -1237q-89 -240 -219 -292q-59 -24 -125 -24z" />
    <glyph glyph-name="Adotbelow" unicode="&#x1ea0;" horiz-adv-x="1288" 
d="M541 -303q0 45 30 76t76 31t77 -31q32 -31 32 -76t-32 -75t-76 -30q-45 0 -76 30t-31 75zM643 1286h-4l-237 -689h476zM198 0h-167l533 1486h160l533 -1486h-175l-158 462h-568z" />
    <glyph glyph-name="adotbelow" unicode="&#x1ea1;" horiz-adv-x="1142" 
d="M468 -303q0 45 30 76t76 31t77 -31t31 -76t-30 -75q-32 -30 -78 -30t-76 30t-30 75zM271 322q1 -94 71 -147q70 -54 186 -54t200 77q85 77 86 191v131h-306q-119 0 -178 -52t-59 -146zM568 1159q408 0 408 -360v-799h-156v158h-4q-46 -77 -131 -127t-201 -50t-200 43
t-131 121t-47 182q0 150 103 239t295 90h310v141q0 219 -254 219q-229 0 -254 -190h-156q8 154 114 244t304 89z" />
    <glyph glyph-name="Ahookabove" unicode="&#x1ea2;" horiz-adv-x="1288" 
d="M634 1913q72 0 132 -42t60 -114q0 -112 -152 -167l-62 79q40 10 70 32t30 49q0 67 -100 67q-52 -1 -102 -13v92q52 17 124 17zM643 1286h-4l-237 -689h476zM198 0h-167l533 1486h160l533 -1486h-175l-158 462h-568z" />
    <glyph glyph-name="ahookabove" unicode="&#x1ea3;" horiz-adv-x="1142" 
d="M660 1490q0 42 -34 68t-90 26q-57 0 -103 -19v106q49 21 137 21t150 -52t62 -136t-43 -134q-44 -48 -123 -94l-64 89q108 61 108 125zM271 322q1 -94 71 -147q70 -54 186 -54t200 77q85 77 86 191v131h-306q-119 0 -178 -52t-59 -146zM568 1159q408 0 408 -360v-799h-156
v158h-4q-46 -77 -131 -127t-201 -50t-200 43t-131 121t-47 182q0 150 103 239t295 90h310v141q0 219 -254 219q-229 0 -254 -190h-156q8 154 114 244t304 89z" />
    <glyph glyph-name="Acircumflexacute" unicode="&#x1ea4;" horiz-adv-x="1288" 
d="M855 1844l219 244h175l-277 -248zM300 1661l306 252h81l306 -252h-160l-186 160h-4l-185 -160h-158zM643 1286h-4l-237 -689h476zM198 0h-167l533 1486h160l533 -1486h-175l-158 462h-568z" />
    <glyph glyph-name="acircumflexacute" unicode="&#x1ea5;" horiz-adv-x="1142" 
d="M783 1499l216 245h175l-277 -250zM225 1315l306 252h81l306 -252h-158l-186 161h-6l-183 -161h-160zM271 322q1 -94 71 -147q70 -54 186 -54t200 77q85 77 86 191v131h-306q-119 0 -178 -52t-59 -146zM568 1159q408 0 408 -360v-799h-156v158h-4q-46 -77 -131 -127
t-201 -50t-200 43t-131 121t-47 182q0 150 103 239t295 90h310v141q0 219 -254 219q-229 0 -254 -190h-156q8 154 114 244t304 89z" />
    <glyph glyph-name="Acircumflexgrave" unicode="&#x1ea6;" horiz-adv-x="1288" 
d="M993 1661h-160l-186 160h-4l-185 -160h-158l306 252h81zM1116 1840h-121l-296 248h175zM643 1286h-4l-237 -689h476zM198 0h-167l533 1486h160l533 -1486h-175l-158 462h-568z" />
    <glyph glyph-name="acircumflexgrave" unicode="&#x1ea7;" horiz-adv-x="1142" 
d="M918 1315h-158l-186 161h-6l-183 -161h-160l306 252h81zM1041 1494h-121l-296 250h177zM271 322q1 -94 71 -147q70 -54 186 -54t200 77q85 77 86 191v131h-306q-119 0 -178 -52t-59 -146zM568 1159q408 0 408 -360v-799h-156v158h-4q-46 -77 -131 -127t-201 -50t-200 43
t-131 121t-47 182q0 150 103 239t295 90h310v141q0 219 -254 219q-229 0 -254 -190h-156q8 154 114 244t304 89z" />
    <glyph glyph-name="Acircumflexhookabove" unicode="&#x1ea8;" horiz-adv-x="1288" 
d="M886 2098q62 0 108 -35q45 -35 45 -98q0 -87 -104 -146l-57 58q56 35 56 71q1 67 -85 67q-35 0 -62 -4v81q37 6 99 6zM298 1653l308 231h81l304 -231h-158l-186 145h-6l-183 -145h-160zM643 1286h-4l-237 -689h476zM198 0h-167l533 1486h160l533 -1486h-175l-158 462
h-568z" />
    <glyph glyph-name="acircumflexhookabove" unicode="&#x1ea9;" horiz-adv-x="1142" 
d="M812 1752q62 0 107 -35t45 -98q0 -87 -102 -145l-57 58q57 34 57 70q1 69 -88 67q-35 0 -62 -4v81q38 6 100 6zM225 1307l306 231h81l306 -231h-160l-186 146h-4l-185 -146h-158zM271 322q1 -94 71 -147q70 -54 186 -54t200 77q85 77 86 191v131h-306q-119 0 -178 -52
t-59 -146zM568 1159q408 0 408 -360v-799h-156v158h-4q-46 -77 -131 -127t-201 -50t-200 43t-131 121t-47 182q0 150 103 239t295 90h310v141q0 219 -254 219q-229 0 -254 -190h-156q8 154 114 244t304 89z" />
    <glyph glyph-name="Acircumflextilde" unicode="&#x1eaa;" horiz-adv-x="1288" 
d="M337 1973q0 81 47 139t131 59q84 0 164 -73q2 -2 11 -10t10 -10q2 -2 10 -9t11 -9t16 -9t42 -7q28 0 48 34t24 78h111q0 -81 -50 -139t-140 -58t-149 60t-101 60q-73 0 -75 -106h-110zM304 1650l304 252h81l306 -252h-158l-186 161h-6l-185 -161h-156zM643 1286h-4
l-237 -689h476zM198 0h-167l533 1486h160l533 -1486h-175l-158 462h-568z" />
    <glyph glyph-name="acircumflextilde" unicode="&#x1eab;" horiz-adv-x="1142" 
d="M262 1628q0 81 48 139t131 58t165 -73q0 -2 9 -10t11 -10t23 -18t52 -16t52 34t25 79h111q0 -113 -87 -170q-42 -28 -98 -28t-90 17t-71 50q-52 54 -96 54q-70 0 -72 -106h-113zM229 1305l304 252h83l304 -252h-158l-185 160h-5l-185 -160h-158zM271 322q1 -94 71 -147
q70 -54 186 -54t200 77q85 77 86 191v131h-306q-119 0 -178 -52t-59 -146zM568 1159q408 0 408 -360v-799h-156v158h-4q-46 -77 -131 -127t-201 -50t-200 43t-131 121t-47 182q0 150 103 239t295 90h310v141q0 219 -254 219q-229 0 -254 -190h-156q8 154 114 244t304 89z
" />
    <glyph glyph-name="Acircumflexdotbelow" unicode="&#x1eac;" horiz-adv-x="1288" 
d="M304 1646l306 254h81l304 -254h-158l-186 161h-6l-183 -161h-158zM541 -303q0 45 30 76t76 31t77 -31q32 -31 32 -76t-32 -75t-76 -30q-45 0 -76 30t-31 75zM643 1286h-4l-237 -689h476zM198 0h-167l533 1486h160l533 -1486h-175l-158 462h-568z" />
    <glyph glyph-name="acircumflexdotbelow" unicode="&#x1ead;" horiz-adv-x="1142" 
d="M468 -303q0 45 30 76t76 31t77 -31t31 -76t-30 -75q-32 -30 -78 -30t-76 30t-30 75zM298 1324l224 322h100l217 -324h-133l-134 220h-2l-139 -218h-133zM271 322q1 -94 71 -147q70 -54 186 -54t200 77q85 77 86 191v131h-306q-119 0 -178 -52t-59 -146zM568 1159
q408 0 408 -360v-799h-156v158h-4q-46 -77 -131 -127t-201 -50t-200 43t-131 121t-47 182q0 150 103 239t295 90h310v141q0 219 -254 219q-229 0 -254 -190h-156q8 154 114 244t304 89z" />
    <glyph glyph-name="Abreveacute" unicode="&#x1eae;" horiz-adv-x="1288" 
d="M543 1863l294 270h158l-306 -270h-146zM939 1852q0 -92 -76 -164t-220 -71q-144 0 -222 73t-78 162h115q0 -58 51 -98t136 -39q85 0 137 40q51 40 51 97h106zM643 1286h-4l-237 -689h476zM198 0h-167l533 1486h160l533 -1486h-175l-158 462h-568z" />
    <glyph glyph-name="abreveacute" unicode="&#x1eaf;" horiz-adv-x="1142" 
d="M468 1517l294 273h158l-306 -273h-146zM864 1507q0 -92 -75 -164q-75 -71 -219 -71t-222 70t-77 165h114q0 -58 50 -98t136 -40t138 40q51 40 51 98h104zM271 322q1 -94 71 -147q70 -54 186 -54t200 77q85 77 86 191v131h-306q-119 0 -178 -52t-59 -146zM568 1159
q408 0 408 -360v-799h-156v158h-4q-46 -77 -131 -127t-201 -50t-200 43t-131 121t-47 182q0 150 103 239t295 90h310v141q0 219 -254 219q-229 0 -254 -190h-156q8 154 114 244t304 89z" />
    <glyph glyph-name="Abrevegrave" unicode="&#x1eb0;" horiz-adv-x="1288" 
d="M768 1863h-148l-306 270h158zM939 1852q0 -92 -76 -164t-220 -71q-144 0 -222 73t-78 162h115q0 -58 51 -98t136 -39q85 0 137 40q51 40 51 97h106zM643 1286h-4l-237 -689h476zM198 0h-167l533 1486h160l533 -1486h-175l-158 462h-568z" />
    <glyph glyph-name="abrevegrave" unicode="&#x1eb1;" horiz-adv-x="1142" 
d="M693 1517h-146l-306 273h159zM864 1507q0 -92 -75 -164q-75 -71 -219 -71t-222 70t-77 165h114q0 -58 50 -98t136 -40t138 40q51 40 51 98h104zM271 322q1 -94 71 -147q70 -54 186 -54t200 77q85 77 86 191v131h-306q-119 0 -178 -52t-59 -146zM568 1159q408 0 408 -360
v-799h-156v158h-4q-46 -77 -131 -127t-201 -50t-200 43t-131 121t-47 182q0 150 103 239t295 90h310v141q0 219 -254 219q-229 0 -254 -190h-156q8 154 114 244t304 89z" />
    <glyph glyph-name="Abrevehookabove" unicode="&#x1eb2;" horiz-adv-x="1288" 
d="M588 2137q207 -1 207 -159q0 -44 -45 -91t-88 -58l-71 69q44 14 66 38q22 26 22 50q1 24 -33 41t-78 17t-71 -6v91q44 8 91 8zM939 1852q0 -92 -76 -164t-220 -71q-144 0 -222 73t-78 162h115q0 -58 51 -98t136 -39q85 0 137 40q51 40 51 97h106zM643 1286h-4l-237 -689
h476zM198 0h-167l533 1486h160l533 -1486h-175l-158 462h-568z" />
    <glyph glyph-name="abrevehookabove" unicode="&#x1eb3;" horiz-adv-x="1142" 
d="M538 1792q70 0 126 -39t56 -102t-45 -110t-88 -57l-71 69q33 10 61 32q27 22 27 51t-34 46q-60 30 -147 10v92q45 8 115 8zM864 1507q0 -92 -75 -164q-75 -71 -219 -71t-222 70t-77 165h114q0 -58 50 -98t136 -40t138 40q51 40 51 98h104zM271 322q1 -94 71 -147
q70 -54 186 -54t200 77q85 77 86 191v131h-306q-119 0 -178 -52t-59 -146zM568 1159q408 0 408 -360v-799h-156v158h-4q-46 -77 -131 -127t-201 -50t-200 43t-131 121t-47 182q0 150 103 239t295 90h310v141q0 219 -254 219q-229 0 -254 -190h-156q8 154 114 244t304 89z
" />
    <glyph glyph-name="Abrevetilde" unicode="&#x1eb4;" horiz-adv-x="1288" 
d="M522 2058q-69 0 -72 -102h-115q0 84 51 142t132 58q78 0 140 -62q30 -30 46 -45q17 -15 52 -15t56 34t23 76h112q0 -84 -51 -144q-52 -60 -138 -60t-140 58q-54 60 -96 60zM939 1852q0 -92 -76 -164t-220 -71q-144 0 -222 73t-78 162h115q0 -58 51 -98t136 -39
q85 0 137 40q51 40 51 97h106zM643 1286h-4l-237 -689h476zM198 0h-167l533 1486h160l533 -1486h-175l-158 462h-568z" />
    <glyph glyph-name="abrevetilde" unicode="&#x1eb5;" horiz-adv-x="1142" 
d="M447 1713q-69 0 -72 -102h-115q0 83 51 142t131 59t151 -72l21 -21q32 -31 68 -31t57 34t23 76h110q0 -118 -85 -176q-42 -28 -96 -28q-92 0 -147 60t-97 59zM864 1507q0 -92 -75 -164q-75 -71 -219 -71t-222 70t-77 165h114q0 -58 50 -98t136 -40t138 40q51 40 51 98
h104zM271 322q1 -94 71 -147q70 -54 186 -54t200 77q85 77 86 191v131h-306q-119 0 -178 -52t-59 -146zM568 1159q408 0 408 -360v-799h-156v158h-4q-46 -77 -131 -127t-201 -50t-200 43t-131 121t-47 182q0 150 103 239t295 90h310v141q0 219 -254 219q-229 0 -254 -190
h-156q8 154 114 244t304 89z" />
    <glyph glyph-name="Abrevedotbelow" unicode="&#x1eb6;" horiz-adv-x="1288" 
d="M308 1900h119q0 -66 60 -112q59 -46 141 -46t132 22q102 45 102 136h118q0 -110 -82 -190t-253 -80t-254 80t-83 190zM541 -303q0 45 30 76t76 31t77 -31q32 -31 32 -76t-32 -75t-76 -30q-45 0 -76 30t-31 75zM643 1286h-4l-237 -689h476zM198 0h-167l533 1486h160
l533 -1486h-175l-158 462h-568z" />
    <glyph glyph-name="abrevedotbelow" unicode="&#x1eb7;" horiz-adv-x="1142" 
d="M262 1553h119q0 -75 48 -127q49 -52 141 -52t140 52t48 127h118q0 -103 -73 -194t-229 -91t-234 88t-78 197zM468 -303q0 45 30 76t76 31t77 -31t31 -76t-30 -75q-32 -30 -78 -30t-76 30t-30 75zM271 322q1 -94 71 -147q70 -54 186 -54t200 77q85 77 86 191v131h-306
q-119 0 -178 -52t-59 -146zM568 1159q408 0 408 -360v-799h-156v158h-4q-46 -77 -131 -127t-201 -50t-200 43t-131 121t-47 182q0 150 103 239t295 90h310v141q0 219 -254 219q-229 0 -254 -190h-156q8 154 114 244t304 89z" />
    <glyph glyph-name="Edotbelow" unicode="&#x1eb8;" horiz-adv-x="1186" 
d="M1061 148v-148h-876v1486h876v-148h-713v-505h676v-146h-676v-539h713zM518 -303q0 45 30 76t75 31t76 -31t31 -76t-30 -75q-32 -30 -77 -30t-75 30t-30 75z" />
    <glyph glyph-name="edotbelow" unicode="&#x1eb9;" 
d="M277 668h601v4q0 213 -139 302q-69 44 -160 44q-139 0 -221 -96t-81 -250v-4zM593 -19q-233 0 -355 145t-121 384v108q0 332 205 471q105 71 257 70q227 1 345 -145t117 -394v-89h-764v-31q0 -223 137 -322q72 -53 184 -53t175 52t82 127h169q-20 -117 -116 -213
q-49 -49 -131 -79t-184 -31zM475 -303q0 45 30 76t75 31t76 -31t31 -69q0 -70 -52 -98q-25 -14 -63 -14t-67 30q-30 30 -30 75z" />
    <glyph glyph-name="Ehookabove" unicode="&#x1eba;" horiz-adv-x="1186" 
d="M610 1913q72 0 132 -42t59 -114q0 -112 -152 -167l-62 79q40 10 70 32t30 49q0 67 -100 67q-52 -1 -102 -13v92q53 17 125 17zM1061 148v-148h-876v1486h876v-148h-713v-505h676v-146h-676v-539h713z" />
    <glyph glyph-name="ehookabove" unicode="&#x1ebb;" 
d="M664 1490q0 42 -33 68t-91 26t-105 -19v106q47 21 137 21t152 -52t62 -136t-43 -134q-44 -48 -123 -94l-66 89q110 61 110 125zM277 668h601v4q0 213 -139 302q-69 44 -160 44q-139 0 -221 -96t-81 -250v-4zM593 -19q-233 0 -355 145t-121 384v108q0 332 205 471
q105 71 257 70q227 1 345 -145t117 -394v-89h-764v-31q0 -223 137 -322q72 -53 184 -53t175 52t82 127h169q-20 -117 -116 -213q-49 -49 -131 -79t-184 -31z" />
    <glyph glyph-name="Etilde" unicode="&#x1ebc;" horiz-adv-x="1186" 
d="M502 1744q-67 0 -73 -106h-102q0 121 75 175q40 29 109 29t154 -92q11 -12 17 -16t16 -14q11 -10 42 -9q30 0 50 35t24 79h102q0 -111 -80 -175q-41 -31 -103 -31t-104 33q-19 12 -55 52t-72 40zM1061 148v-148h-876v1486h876v-148h-713v-505h676v-146h-676v-539h713z
" />
    <glyph glyph-name="etilde" unicode="&#x1ebd;" 
d="M260 1280q0 96 46 160t138 65q92 0 180 -111q33 -33 69 -33q35 0 55 39t24 86h106q0 -87 -50 -156t-118 -69t-102 19q-36 18 -54 38t-23 24q-50 56 -86 57q-71 0 -77 -119h-108zM277 668h601v4q0 213 -139 302q-69 44 -160 44q-139 0 -221 -96t-81 -250v-4zM593 -19
q-233 0 -355 145t-121 384v108q0 332 205 471q105 71 257 70q227 1 345 -145t117 -394v-89h-764v-31q0 -223 137 -322q72 -53 184 -53t175 52t82 127h169q-20 -117 -116 -213q-49 -49 -131 -79t-184 -31z" />
    <glyph glyph-name="Ecircumflexacute" unicode="&#x1ebe;" horiz-adv-x="1186" 
d="M1061 148v-148h-876v1486h876v-148h-713v-505h676v-146h-676v-539h713zM830 1844l219 244h175l-277 -248zM275 1661l304 252h83l306 -252h-160l-186 160h-4l-185 -160h-158z" />
    <glyph glyph-name="ecircumflexacute" unicode="&#x1ebf;" 
d="M277 668h601v4q0 213 -139 302q-69 44 -160 44q-139 0 -221 -96t-81 -250v-4zM593 -19q-233 0 -355 145t-121 384v108q0 332 205 471q105 71 257 70q227 1 345 -145t117 -394v-89h-764v-31q0 -223 137 -322q72 -53 184 -53t175 52t82 127h169q-20 -117 -116 -213
q-49 -49 -131 -79t-184 -31zM785 1499l218 245h175l-277 -250zM229 1315l304 252h83l306 -252h-160l-185 161h-5l-185 -161h-158z" />
    <glyph glyph-name="Ecircumflexgrave" unicode="&#x1ec0;" horiz-adv-x="1186" 
d="M1061 148v-148h-876v1486h876v-148h-713v-505h676v-146h-676v-539h713zM968 1661h-160l-186 160h-4l-185 -160h-158l304 252h83zM1089 1840h-119l-298 248h177z" />
    <glyph glyph-name="ecircumflexgrave" unicode="&#x1ec1;" 
d="M277 668h601v4q0 213 -139 302q-69 44 -160 44q-139 0 -221 -96t-81 -250v-4zM593 -19q-233 0 -355 145t-121 384v108q0 332 205 471q105 71 257 70q227 1 345 -145t117 -394v-89h-764v-31q0 -223 137 -322q72 -53 184 -53t175 52t82 127h169q-20 -117 -116 -213
q-49 -49 -131 -79t-184 -31zM922 1315h-160l-185 161h-5l-185 -161h-158l304 252h83zM1043 1494h-119l-295 250h174z" />
    <glyph glyph-name="Ecircumflexhookabove" unicode="&#x1ec2;" horiz-adv-x="1186" 
d="M1061 148v-148h-876v1486h876v-148h-713v-505h676v-146h-676v-539h713zM862 2098q62 0 107 -35t45 -98q0 -87 -104 -146l-57 58q57 35 57 71q1 67 -86 67q-37 0 -62 -4v81q38 6 100 6zM273 1653l306 231h83l304 -231h-158l-186 145h-6l-183 -145h-160z" />
    <glyph glyph-name="ecircumflexhookabove" unicode="&#x1ec3;" 
d="M277 668h601v4q0 213 -139 302q-69 44 -160 44q-139 0 -221 -96t-81 -250v-4zM593 -19q-233 0 -355 145t-121 384v108q0 332 205 471q105 71 257 70q227 1 345 -145t117 -394v-89h-764v-31q0 -223 137 -322q72 -53 184 -53t175 52t82 127h169q-20 -117 -116 -213
q-49 -49 -131 -79t-184 -31zM816 1752q62 0 107 -35t45 -98q0 -87 -104 -145l-56 58q56 34 56 70q0 69 -86 67q-37 0 -62 -4v81q38 6 100 6zM227 1307l306 231h83l304 -231h-158l-185 146h-7l-183 -146h-160z" />
    <glyph glyph-name="Ecircumflextilde" unicode="&#x1ec4;" horiz-adv-x="1186" 
d="M312 1973q0 81 47 139t131 59q84 0 164 -73q2 -2 11 -10t10 -10t9 -9t12 -9q3 -2 16 -9t42 -7q28 0 48 34t24 78h111q0 -114 -86 -169q-42 -28 -98 -28q-56 -1 -91 15t-79 60t-86 45q-72 0 -74 -106h-111zM277 1650l306 252h81l306 -252h-158l-186 161h-6l-185 -161h-158
zM1061 148v-148h-876v1486h876v-148h-713v-505h676v-146h-676v-539h713z" />
    <glyph glyph-name="ecircumflextilde" unicode="&#x1ec5;" 
d="M266 1628q0 81 47 139t131 58t164 -73q2 -2 11 -10t11 -10t21 -18q20 -16 52 -16q33 0 53 34t24 79h111q0 -113 -86 -170q-41 -28 -97 -28t-92 17t-71 50q-52 54 -93 54q-73 0 -75 -106h-111zM231 1305l306 252h81l306 -252h-158l-185 160h-7l-185 -160h-158zM277 668
h601v4q0 213 -139 302q-69 44 -160 44q-139 0 -221 -96t-81 -250v-4zM593 -19q-233 0 -355 145t-121 384v108q0 332 205 471q105 71 257 70q227 1 345 -145t117 -394v-89h-764v-31q0 -223 137 -322q72 -53 184 -53t175 52t82 127h169q-20 -117 -116 -213q-49 -49 -131 -79
t-184 -31z" />
    <glyph glyph-name="Ecircumflexdotbelow" unicode="&#x1ec6;" horiz-adv-x="1186" 
d="M1061 148v-148h-876v1486h876v-148h-713v-505h676v-146h-676v-539h713zM277 1646l308 254h81l304 -254h-158l-186 161h-6l-183 -161h-160zM518 -303q0 45 30 76t75 31t76 -31t31 -76t-30 -75q-32 -30 -77 -30t-75 30t-30 75z" />
    <glyph glyph-name="ecircumflexdotbelow" unicode="&#x1ec7;" 
d="M475 -303q0 45 30 76t75 31t76 -31t31 -69q0 -70 -52 -98q-25 -14 -63 -14t-67 30q-30 30 -30 75zM277 668h601v4q0 213 -139 302q-69 44 -160 44q-139 0 -221 -96t-81 -250v-4zM593 -19q-233 0 -355 145t-121 384v108q0 332 205 471q105 71 257 70q227 1 345 -145
t117 -394v-89h-764v-31q0 -223 137 -322q72 -53 184 -53t175 52t82 127h169q-20 -117 -116 -213q-49 -49 -131 -79t-184 -31zM300 1324l227 322h97l219 -324h-135l-131 220h-5l-137 -218h-135z" />
    <glyph glyph-name="Ihookabove" unicode="&#x1ec8;" horiz-adv-x="536" 
d="M258 1913q72 0 132 -42t60 -114q0 -112 -152 -167l-63 79q40 10 70 32t30 49q0 67 -100 67q-52 -1 -102 -13v92q53 17 125 17zM350 0h-163v1486h163v-1486z" />
    <glyph glyph-name="ihookabove" unicode="&#x1ec9;" horiz-adv-x="555" 
d="M366 1490q0 42 -33 68t-91 26t-103 -19v106q47 21 137 21t152 -52t63 -136q0 -84 -45 -134q-45 -48 -123 -94l-65 89q108 61 108 125zM198 0v1141h160v-1141h-160z" />
    <glyph glyph-name="Idotbelow" unicode="&#x1eca;" horiz-adv-x="536" 
d="M167 -303q0 45 30 76t75 31t76 -31t31 -76t-31 -75t-76 -30t-75 30t-30 75zM350 0h-163v1486h163v-1486z" />
    <glyph glyph-name="idotbelow" unicode="&#x1ecb;" horiz-adv-x="561" 
d="M177 -303q0 45 31 76t76 31t76 -31t31 -76t-31 -75t-76 -30t-76 30t-31 75zM281 1311q-46 -1 -77 31t-31 79t31 78t77 31t78 -31t32 -78t-32 -79t-78 -31zM202 0v1141h160v-1141h-160z" />
    <glyph glyph-name="Odotbelow" unicode="&#x1ecc;" horiz-adv-x="1421" 
d="M127 622v229q0 310 159 489t428 179t426 -178t157 -490v-229q-1 -310 -159 -482t-428 -172t-427 172q-156 172 -156 482zM287 851v-231q0 -250 118 -376q118 -127 307 -127t306 129t116 374v231q0 248 -117 384q-118 136 -307 137q-256 0 -367 -236q-56 -118 -56 -285z
M608 -303q0 45 30 76t76 31t77 -31t31 -69q0 -70 -54 -98q-24 -14 -62 -14t-68 30t-30 75z" />
    <glyph glyph-name="odotbelow" unicode="&#x1ecd;" horiz-adv-x="1196" 
d="M599 1018q-167 0 -245 -114t-79 -300v-67q0 -187 78 -299q77 -112 245 -113q168 0 245 112t77 300v67q0 186 -77 300t-244 114zM599 1159q237 -1 359 -145t122 -392v-102q0 -248 -122 -394t-359 -145q-237 0 -360 145t-122 394v102q0 241 122 390q123 147 360 147z
M602 -408q-46 0 -76 30q-31 30 -31 75q1 45 31 76t76 31t76 -31q32 -31 32 -76t-31 -75t-77 -30z" />
    <glyph glyph-name="Ohookabove" unicode="&#x1ece;" horiz-adv-x="1421" 
d="M127 622v229q0 310 159 489t428 179t426 -178t157 -490v-229q-1 -310 -159 -482t-428 -172t-427 172q-156 172 -156 482zM287 851v-231q0 -250 118 -376q118 -127 307 -127t306 129t116 374v231q0 248 -117 384q-118 136 -307 137q-256 0 -367 -236q-56 -118 -56 -285z
M702 1913q74 0 132 -42q59 -42 59 -114q0 -112 -154 -167l-60 79q51 13 75 38q23 25 22 43q0 67 -100 67q-50 -1 -102 -13v92q54 17 128 17z" />
    </font>
</defs>
</svg>
