<?xml version="1.0" standalone="no"?>
<!DOCTYPE svg PUBLIC "-//W3C//DTD SVG 1.1//EN" "http://www.w3.org/Graphics/SVG/1.1/DTD/svg11.dtd" >
<svg xmlns="http://www.w3.org/2000/svg">
<metadata>
Created by FontPrep 20130207 at Wed Nov 19 14:09:52 2014
 By Joshua Ellington
(c) 2014 Apple Inc. All rights reserved.
</metadata>
<defs>
<font id="aa81b42a6680ae7abc92a4cb86f61473" horiz-adv-x='1024' >
  <font-face 
    font-family=".HelveticaNeueDeskInterface-MediumP4"
    font-weight="500"
    font-stretch="normal"
    units-per-em="2048"
    panose-1="0 0 0 0 0 0 0 0 0 0"
    ascent="1638"
    descent="-410"
    x-height="1147"
    cap-height="1486"
    bbox="-568 -533 2229 2170"
    underline-thickness="104"
    underline-position="-52"
    unicode-range="U+0020-FB02"
  />
<missing-glyph horiz-adv-x="1406" 
d="M554 966q0 67 36 104t88 37q92 0 125 -56q17 -27 17 -65t-22 -69q-22 -30 -94 -81t-102 -111q-31 -60 -21 -146h181v16q0 52 21 82q21 29 97 85t110 110q32 54 32 127q0 123 -87 197t-236 74q-213 0 -293 -142q-40 -68 -38 -162h186zM662 458q-44 0 -80 -32t-37 -76
q0 -44 17 -70q37 -57 106 -56q68 1 105 33q37 33 37 71t-10 60q-29 70 -138 70zM131 0v1486h1147v-1486h-1147z" />
    <glyph glyph-name=".notdef" horiz-adv-x="1406" 
d="M554 966q0 67 36 104t88 37q92 0 125 -56q17 -27 17 -65t-22 -69q-22 -30 -94 -81t-102 -111q-31 -60 -21 -146h181v16q0 52 21 82q21 29 97 85t110 110q32 54 32 127q0 123 -87 197t-236 74q-213 0 -293 -142q-40 -68 -38 -162h186zM662 458q-44 0 -80 -32t-37 -76
q0 -44 17 -70q37 -57 106 -56q68 1 105 33q37 33 37 71t-10 60q-29 70 -138 70zM131 0v1486h1147v-1486h-1147z" />
    <glyph glyph-name=".null" 
 />
    <glyph glyph-name="nonmarkingreturn" 
 />
    <glyph glyph-name="space" unicode=" " horiz-adv-x="443" 
 />
    <glyph glyph-name="exclam" unicode="!" horiz-adv-x="574" 
d="M169 1486h245l-27 -1041h-193zM146 112q0 58 39 96t103 38t104 -38t39 -96q0 -58 -40 -94t-102 -36q-63 0 -103 36t-40 94z" />
    <glyph glyph-name="quotedbl" unicode="&#x22;" horiz-adv-x="924" 
d="M570 1486h242l-32 -562h-179zM112 1486h244l-31 -562h-179z" />
    <glyph glyph-name="numbersign" unicode="#" horiz-adv-x="1309" 
d="M545 922l-70 -345h308l70 345h-308zM1251 914h-233l-69 -329h223l-34 -169h-224l-84 -416h-172l85 416h-291l-86 -416h-172l83 416h-219l34 169h220l67 329h-208l31 168h212l79 404h175l-83 -404h295l79 404h173l-81 -404h233z" />
    <glyph glyph-name="dollar" unicode="$" horiz-adv-x="1211" 
d="M683 -139h-148v135q-227 18 -347 136t-121 282h201q6 -98 75 -162t192 -81v514l-83 21q-152 37 -250 132q-98 96 -98 266t120 276t311 125v141h150v-141q187 -19 308 -126t127 -280h-196q-4 89 -69 154t-172 79v-485l87 -21q183 -46 279 -140t96 -261q0 -282 -277 -388
q-83 -31 -185 -39v-137zM945 420q0 116 -120 180q-71 38 -98 43l-33 5q-5 1 -11 3v-480q121 9 191 71t71 178zM304 1107q0 -139 175 -204q37 -15 56 -18v447q-99 -12 -165 -69t-66 -156z" />
    <glyph glyph-name="percent" unicode="%" horiz-adv-x="1517" 
d="M279 0h-181l1136 1486h181zM889 356v29q0 154 83 258t225 104t225 -104t83 -260v-31q0 -154 -83 -259t-227 -105t-225 104t-81 264zM1041 375v-9q1 -110 41 -176t113 -66t115 66q42 64 41 174v9q0 144 -71 207q-35 30 -83 30q-75 0 -115 -66t-41 -169zM15 1107v31
q0 154 84 258t225 105q142 0 224 -104t83 -261v-31q1 -154 -83 -259t-226 -105t-225 104q-82 104 -82 262zM169 1128v-8q1 -110 41 -176t113 -66t115 65t41 173v10q0 108 -41 173q-42 65 -116 65t-114 -66q-39 -66 -39 -170z" />
    <glyph glyph-name="ampersand" unicode="&#x26;" horiz-adv-x="1431" 
d="M822 1155q0 83 -53 133t-135 50t-136 -52t-53 -120q-1 -68 33 -126q34 -56 119 -139q113 55 169 113t56 141zM389 607q-93 -80 -93 -205t92 -192q92 -68 220 -66q86 0 176 31t148 96l-393 430q-4 -2 -49 -23q-44 -21 -101 -71zM85 389q0 137 75 234t210 172q46 25 59 29
q-89 94 -137 172q-47 78 -46 170q0 142 110 238t276 95q166 0 276 -93q112 -93 112 -234t-87 -225q-87 -85 -225 -160l339 -371q65 121 64 375v52h194v-58q0 -327 -121 -508l263 -277h-263l-129 137q-191 -167 -468 -166q-219 0 -361 113t-141 305z" />
    <glyph glyph-name="quotesingle" unicode="'" horiz-adv-x="468" 
d="M112 1486h244l-31 -562h-179z" />
    <glyph glyph-name="parenleft" unicode="(" horiz-adv-x="690" 
d="M360 634q0 -383 125 -669q52 -118 127 -250h-198q-277 341 -277 901q0 373 133 630q43 82 74 129q33 47 83 109h189q-77 -85 -160 -289q-44 -106 -70 -258t-26 -303z" />
    <glyph glyph-name="parenright" unicode=")" horiz-adv-x="690" 
d="M554 616q0 -556 -281 -901h-196q107 179 131 251q25 72 50 148q68 208 71 504q0 371 -128 655q-62 139 -126 211h189q168 -217 229 -413q61 -195 61 -455z" />
    <glyph glyph-name="asterisk" unicode="*" horiz-adv-x="813" 
d="M475 816h-134l17 258l-214 -144l-69 117l233 114l-233 113l69 118l214 -147l-17 260h134l-19 -260l216 147l67 -116l-233 -115l233 -114l-67 -117l-216 144z" />
    <glyph glyph-name="plus" unicode="+" horiz-adv-x="1211" 
d="M699 502v-477h-185v477h-437v183h437v456h185v-456h439v-183h-439z" />
    <glyph glyph-name="comma" unicode="," horiz-adv-x="474" 
d="M185 -256h-160l119 483h226z" />
    <glyph glyph-name="hyphen" unicode="-" horiz-adv-x="855" 
d="M770 512h-685v196h685v-196z" />
    <glyph glyph-name="period" unicode="." horiz-adv-x="543" 
d="M135 114q0 58 40 97t98 39q57 0 97 -39t40 -97t-40 -96t-98 -39q-58 1 -97 39q-40 38 -40 96z" />
    <glyph glyph-name="slash" unicode="/" horiz-adv-x="749" 
d="M208 -329h-196l533 1894h196z" />
    <glyph glyph-name="zero" unicode="0" horiz-adv-x="1269" 
d="M100 687v110q0 333 140 527t396 194t396 -194q139 -194 140 -527v-110q0 -329 -140 -524t-396 -195q-257 0 -397 193q-139 193 -139 526zM323 797v-108q0 -254 83 -391q83 -138 230 -138t230 138t83 391v108q0 252 -83 390q-83 139 -230 139t-230 -138t-83 -391z" />
    <glyph glyph-name="one" unicode="1" horiz-adv-x="888" 
d="M689 0h-223v1253h-6q-145 -81 -348 -219v227q179 127 365 225h212v-1486z" />
    <glyph glyph-name="two" unicode="2" horiz-adv-x="1215" 
d="M335 1074v-8h-216v8q0 181 128 312t347 131t351 -116q131 -117 131 -296q0 -94 -22 -139q-22 -46 -28 -62t-28 -47t-28 -42t-34 -45t-36 -42t-40 -46q-33 -38 -40 -47l-379 -439v-5h662v-191h-972v139l550 627q54 58 83 97t58 102t29 129t-33 120q-34 54 -92 86
q-58 30 -131 30q-119 0 -189 -75t-71 -181z" />
    <glyph glyph-name="three" unicode="3" horiz-adv-x="1240" 
d="M447 674v186h146q121 0 196 68t74 171q-1 104 -72 169t-190 64q-175 0 -239 -147q-17 -39 -21 -82h-212q4 171 130 293q125 122 341 122t349 -109q133 -107 137 -263t-82 -254t-186 -112v-6q106 -8 207 -93q49 -42 81 -112t35 -155q2 -194 -153 -320q-156 -126 -392 -125
t-365 121t-135 303h208q14 -107 90 -173t216 -66t223 74t81 190q-6 180 -181 238q-58 19 -132 18h-154z" />
    <glyph glyph-name="four" unicode="4" horiz-adv-x="1280" 
d="M308 487h506v816h-6q-298 -454 -500 -814v-2zM1026 1486v-999h189v-189h-189v-298h-212v298h-722v187q122 226 310 523t299 478h325z" />
    <glyph glyph-name="five" unicode="5" horiz-adv-x="1298" 
d="M654 156q122 0 218 88t96 237q0 148 -88 236t-222 88q-81 0 -147 -29q-66 -30 -101 -68t-58 -88h-194l79 868h843v-189h-660l-45 -439h6q33 46 121 86t199 41q204 -1 348 -139t144 -364q-1 -226 -157 -371t-388 -145t-366 120q-134 118 -143 295h213q17 -107 98 -167
t204 -60z" />
    <glyph glyph-name="six" unicode="6" horiz-adv-x="1244" 
d="M339 470q-1 -148 89 -231t217 -83q175 0 256 140q44 73 44 174q-1 150 -89 233t-215 83t-215 -84t-87 -232zM660 970q211 0 353 -126q151 -131 151 -384q0 -135 -72 -253q-70 -118 -187 -177t-262 -59q-254 0 -401 183t-146 539q0 567 308 754q112 66 258 66
q241 0 374 -167q80 -97 88 -212h-219q-6 71 -74 132t-177 62q-148 0 -243 -147t-101 -430h6q34 87 132 153t212 66z" />
    <glyph glyph-name="seven" unicode="7" horiz-adv-x="1182" 
d="M98 1486h968v-198l-606 -1288h-235l624 1290v5h-751v191z" />
    <glyph glyph-name="eight" unicode="8" horiz-adv-x="1292" 
d="M643 -31q-239 0 -388 122t-149 315q0 83 29 153q29 69 76 113q90 83 199 111v4q-135 43 -204 169q-40 74 -39 164q0 173 135 285t345 112q139 0 249 -51t173 -141q61 -91 61 -215t-74 -208q-74 -86 -171 -115v-4q109 -25 206 -119t97 -256q0 -194 -153 -316t-392 -123z
M914 1101q0 106 -75 172q-75 65 -192 65t-191 -66t-75 -171q0 -105 76 -173t191 -68t191 67q75 68 75 174zM647 146q92 0 165 34q72 34 114 96t42 141q0 81 -42 143q-88 131 -279 131q-137 0 -229 -77t-92 -197q0 -119 92 -195t229 -76z" />
    <glyph glyph-name="nine" unicode="9" horiz-adv-x="1244" 
d="M614 697q128 1 218 89t90 232t-85 228t-215 84t-217 -83q-89 -83 -89 -234t86 -233t212 -83zM608 1515q264 0 411 -181t147 -561t-150 -590t-419 -210q-114 0 -207 36q-166 64 -239 222q-33 68 -39 137h219q10 -83 83 -146t192 -64q167 0 256 157t87 420h-10
q-31 -92 -130 -155q-99 -64 -233 -64q-278 -1 -411 223q-68 114 -67 268q0 154 73 272t187 177t250 59z" />
    <glyph glyph-name="colon" unicode=":" horiz-adv-x="582" 
d="M152 123q0 49 39 88q40 39 98 39t98 -39t40 -98t-40 -96t-108 -37t-108 64q-19 30 -19 79zM152 894q0 50 40 88t97 38q58 0 98 -39t40 -97t-40 -96q-41 -38 -89 -38t-78 16q-30 17 -49 48t-19 80z" />
    <glyph glyph-name="semicolon" unicode=";" horiz-adv-x="582" 
d="M223 -277h-163l117 483h227zM154 885q0 59 40 97t98 38t97 -39q40 -39 40 -97t-40 -96t-98 -38q-57 0 -97 38q-40 39 -40 97z" />
    <glyph glyph-name="less" unicode="&#x3c;" horiz-adv-x="1211" 
d="M129 479v164l953 560v-227l-714 -402v-12l714 -381v-227z" />
    <glyph glyph-name="equal" unicode="=" horiz-adv-x="1211" 
d="M1078 716h-943v177h943v-177zM1078 298h-943v177h943v-177z" />
    <glyph glyph-name="greater" unicode="&#x3e;" horiz-adv-x="1211" 
d="M1082 643v-164l-953 -525v227l714 381v12l-714 402v227z" />
    <glyph glyph-name="question" unicode="?" horiz-adv-x="1040" 
d="M527 1519q189 0 319 -99t130 -274t-133 -294q-29 -26 -106 -86t-111 -105t-33 -132v-63h-208l-2 86q-3 177 178 317q106 82 148 128q42 47 42 125t-33 126q-59 88 -201 88t-206 -100q-40 -62 -40 -147h-206q-1 117 39 203q71 151 257 204q78 23 166 23zM352 102
q0 90 68 127q32 17 68 17q106 0 138 -79q10 -25 10 -69t-40 -80q-41 -36 -102 -36q-62 0 -102 36t-40 84z" />
    <glyph glyph-name="at" unicode="@" horiz-adv-x="1829" 
d="M745 527q0 -231 171 -231q77 0 123 53t45 167v88q0 137 -84 190q-39 24 -100 24t-108 -57t-47 -168v-66zM1365 146q-105 0 -173 44t-83 108h-10q-17 -60 -84 -107q-68 -46 -158 -45q-137 0 -213 96t-76 260v106q0 158 78 255t218 96q89 1 146 -43t74 -100h9v127h168v-533
q0 -94 77 -118q23 -7 50 -7q83 0 141 94q57 94 57 272v38q0 195 -108 345q-180 250 -531 250h-8q-293 0 -483 -190t-192 -509v-50q0 -169 53 -301q98 -245 357 -339q119 -43 256 -43h9q223 0 343 54v-147q-108 -50 -345 -50h-11q-356 0 -585 205q-112 101 -177 259t-64 356
v62q0 187 63 345q123 310 442 433q155 60 334 61h8q187 0 341 -62t252 -164q204 -214 204 -511v-54q0 -223 -105 -358t-274 -135z" />
    <glyph glyph-name="A" unicode="A" horiz-adv-x="1325" 
d="M662 1243h-8l-211 -644h427zM250 0h-227l518 1486h244l518 -1486h-242l-137 427h-535z" />
    <glyph glyph-name="B" unicode="B" horiz-adv-x="1342" 
d="M395 676v-493h246q288 0 356 121q27 48 27 119q0 125 -79 189t-219 64h-331zM612 853q335 1 335 225q0 114 -66 170t-175 55h-311v-450h217zM173 0v1486h576q191 0 307 -98t116 -268q0 -132 -67 -214t-177 -113v-10q150 -19 238 -116t87 -251q0 -198 -144 -307t-374 -109
h-562z" />
    <glyph glyph-name="C" unicode="C" horiz-adv-x="1369" 
d="M337 833v-188q0 -241 100 -360t277 -118q106 -1 183 41q152 82 152 258h219v-10q0 -147 -90 -270q-158 -217 -472 -217q-277 0 -435 175t-159 501v190q0 325 160 503t436 179q131 1 240 -43q201 -80 282 -278q37 -91 38 -189v-10h-219q0 129 -92 226t-247 97
q-232 0 -325 -216q-48 -111 -48 -271z" />
    <glyph glyph-name="D" unicode="D" horiz-adv-x="1417" 
d="M395 1295v-1101h254q225 0 335 135t111 412q0 554 -446 554h-254zM173 1486h497q352 0 504 -202t153 -539q1 -336 -151 -540q-152 -205 -506 -205h-497v1486z" />
    <glyph glyph-name="E" unicode="E" horiz-adv-x="1205" 
d="M1084 194v-194h-911v1486h911v-194h-689v-443h650v-185h-650v-470h689z" />
    <glyph glyph-name="F" unicode="F" horiz-adv-x="1134" 
d="M395 0h-222v1486h899v-194h-677v-476h621v-192h-621v-624z" />
    <glyph glyph-name="G" unicode="G" horiz-adv-x="1396" 
d="M337 845v-198q0 -227 96 -354q97 -127 267 -127t269 87q99 86 99 219v127h-358v186h574v-304q0 -143 -78 -271q-150 -241 -492 -241q-296 0 -449 182t-153 496v200q0 206 75 358t213 232t294 80q409 0 543 -306q39 -87 45 -185h-223q-10 98 -60 166q-93 126 -272 127
q-180 1 -285 -117t-105 -357z" />
    <glyph glyph-name="H" unicode="H" horiz-adv-x="1498" 
d="M1328 0h-225v670h-708v-670h-222v1486h222v-622h708v622h225v-1486z" />
    <glyph glyph-name="I" unicode="I" horiz-adv-x="566" 
d="M395 0h-222v1486h222v-1486z" />
    <glyph glyph-name="J" unicode="J" horiz-adv-x="1084" 
d="M27 368h219q0 -88 62 -142q62 -53 162 -53t163 62q62 62 62 196v1055h227v-1041q0 -235 -125 -356t-330 -121t-323 113q-118 112 -117 287z" />
    <glyph glyph-name="K" unicode="K" horiz-adv-x="1315" 
d="M395 0h-222v1486h222v-701h11l618 701h258l-547 -635l574 -851h-279l-460 697l-175 -189v-508z" />
    <glyph glyph-name="L" unicode="L" horiz-adv-x="1086" 
d="M1064 198v-198h-891v1486h222v-1288h669z" />
    <glyph glyph-name="M" unicode="M" horiz-adv-x="1739" 
d="M379 0h-202v1486h221l470 -1086h6l468 1086h223v-1486h-202v1049h-8l-400 -903h-170l-400 903h-6v-1049z" />
    <glyph glyph-name="N" unicode="N" horiz-adv-x="1488" 
d="M389 0h-216v1486h202l718 -1103h6v1103h218v-1486h-204l-718 1105h-6v-1105z" />
    <glyph glyph-name="O" unicode="O" horiz-adv-x="1440" 
d="M112 631v210q0 314 164 495t446 181q184 0 322 -81t212 -234t74 -361v-210q0 -312 -164 -487t-446 -175t-446 175q-162 175 -162 487zM337 843v-212q0 -229 105 -347t277 -118t278 118t106 347v212q0 229 -106 354t-277 125q-232 0 -332 -216q-51 -109 -51 -263z" />
    <glyph glyph-name="P" unicode="P" horiz-adv-x="1267" 
d="M395 1297v-569h209q187 0 278 57q100 60 100 227q0 209 -161 266q-53 19 -120 19h-306zM173 1486h558q219 0 351 -131t131 -342q0 -211 -132 -341t-353 -131h-333v-541h-222v1486z" />
    <glyph glyph-name="Q" unicode="Q" horiz-adv-x="1444" 
d="M335 845v-206q0 -233 106 -356t277 -125q77 0 135 25l-179 246h236l97 -133q100 125 100 343v206q0 231 -107 354t-280 123q-236 0 -334 -212q-51 -109 -51 -265zM112 639v206q0 314 164 493t445 179t445 -179t164 -493v-206q0 -339 -194 -518l200 -281h-239l-129 177
q-112 -48 -248 -48q-280 0 -444 178t-164 492z" />
    <glyph glyph-name="R" unicode="R" horiz-adv-x="1336" 
d="M393 764h298q144 0 220 68t76 196q-1 129 -79 200t-211 71h-304v-535zM726 1486q242 0 368 -128t126 -310t-82 -284q-82 -104 -193 -144l302 -620h-254l-271 579h-329v-579h-220v1486h553z" />
    <glyph glyph-name="S" unicode="S" horiz-adv-x="1275" 
d="M630 160q154 0 238 66q85 66 85 164t-57 152q-57 53 -180 82l-252 65q-156 37 -256 134t-100 261q0 102 43 186q80 157 285 220q95 29 200 29q213 0 363 -108q73 -52 117 -135t45 -185h-216q-11 105 -91 173t-218 68t-220 -61t-83 -170q0 -158 208 -208l248 -63
q187 -46 289 -140t102 -270q0 -212 -157 -332t-409 -119q-146 1 -255 41q-190 71 -262 245q-30 74 -32 153h222q9 -106 99 -177t244 -71z" />
    <glyph glyph-name="T" unicode="T" horiz-adv-x="1146" 
d="M685 0h-223v1290h-443v196h1109v-196h-443v-1290z" />
    <glyph glyph-name="U" unicode="U" horiz-adv-x="1458" 
d="M379 1486v-959q1 -167 95 -264t255 -97t258 97q96 97 95 264v959h223v-970q0 -246 -158 -396q-159 -150 -417 -151q-258 0 -417 152t-159 399v966h225z" />
    <glyph glyph-name="V" unicode="V" horiz-adv-x="1321" 
d="M785 0h-248l-522 1486h258l389 -1213h8l385 1213h252z" />
    <glyph glyph-name="W" unicode="W" horiz-adv-x="1848" 
d="M620 0h-204l-404 1486h254l258 -1128h9l283 1128h216l283 -1128h9l260 1128h252l-404 -1486h-204l-300 1122h-8z" />
    <glyph glyph-name="X" unicode="X" horiz-adv-x="1244" 
d="M1245 1486l-485 -749l476 -737h-264l-352 568h-12l-356 -568h-248l477 749l-471 737h267l352 -572h12l348 572h256z" />
    <glyph glyph-name="Y" unicode="Y" horiz-adv-x="1205" 
d="M714 0h-223v616l-497 870h254l351 -649h9l356 649h247l-497 -868v-618z" />
    <glyph glyph-name="Z" unicode="Z" horiz-adv-x="1257" 
d="M89 0v154l773 1132v6h-748v194h1022v-152l-766 -1134v-6h785v-194h-1066z" />
    <glyph glyph-name="bracketleft" unicode="[" horiz-adv-x="726" 
d="M137 1486h506v-162h-295v-1409h308v-163h-519v1734z" />
    <glyph glyph-name="backslash" unicode="\" horiz-adv-x="749" 
d="M741 -329h-196l-533 1894h196z" />
    <glyph glyph-name="bracketright" unicode="]" horiz-adv-x="726" 
d="M85 1486h504v-1734h-516v163h308v1409h-296v162z" />
    <glyph glyph-name="asciicircum" unicode="^" horiz-adv-x="863" 
d="M818 866h-189l-192 443h-8l-196 -443h-185l285 620h202z" />
    <glyph glyph-name="underscore" unicode="_" horiz-adv-x="919" 
d="M951 -283h-982v171h982v-171z" />
    <glyph glyph-name="grave" unicode="`" horiz-adv-x="1028" 
d="M641 1324h-179l-258 299h227z" />
    <glyph glyph-name="a" unicode="a" horiz-adv-x="1165" 
d="M544 156q101 0 176 67t75 166v121h-264q-106 0 -159 -46q-54 -46 -54 -130t62 -131t164 -47zM470 -19q-170 0 -272 95t-102 253q0 210 183 294q92 43 221 43h295v127q0 191 -223 191q-204 0 -222 -172h-213q8 152 113 253q107 101 321 101q445 0 445 -375v-791h-211v150
h-8q-44 -75 -126 -122t-201 -47z" />
    <glyph glyph-name="b" unicode="b" horiz-adv-x="1267" 
d="M381 512q0 -146 73 -244t205 -99t207 91t75 262v98q0 173 -73 268q-73 94 -204 94t-207 -98q-76 -99 -76 -251v-121zM716 -17q-129 0 -215 53t-120 139h-8v-175h-213v1565h221v-578h6q97 179 321 179t341 -143t117 -384v-127q0 -252 -119 -390t-331 -139z" />
    <glyph glyph-name="c" unicode="c" horiz-adv-x="1132" 
d="M104 514v125q0 323 223 459q112 70 264 70q206 0 327 -110t123 -261h-211q-14 104 -112 157q-54 30 -123 30q-133 0 -203 -98t-69 -253v-119q1 -152 73 -248t188 -96q214 1 253 165h210q-4 -148 -129 -251t-327 -103q-154 0 -265 68q-222 136 -222 465z" />
    <glyph glyph-name="d" unicode="d" horiz-adv-x="1269" 
d="M604 980q-180 0 -247 -175q-30 -81 -30 -189v-81q0 -171 72 -270t207 -99t209 96t74 271v89q0 166 -76 262t-209 96zM549 1166q129 0 215 -50t118 -129h7v578h218v-1565h-212v175h-6q-23 -79 -115 -135t-230 -56t-238 65q-202 133 -202 457v137q0 237 116 380t329 143z
" />
    <glyph glyph-name="e" unicode="e" horiz-adv-x="1169" 
d="M323 683h532v4q0 135 -71 218q-72 83 -195 83t-195 -84t-71 -217v-4zM604 -19q-241 0 -371 146q-129 146 -129 393v100q0 248 127 398t359 150t357 -149t125 -397v-100h-749v-33q1 -137 71 -232t192 -95t180 46t73 115h218q-16 -121 -117 -226q-50 -53 -138 -85t-198 -31
z" />
    <glyph glyph-name="f" unicode="f" horiz-adv-x="761" 
d="M233 0v966h-164v177h164v114q-1 167 87 245t273 78q35 0 98 -7v-170q-50 4 -65 4q-92 0 -134 -36t-42 -131v-97h222v-177h-218v-966h-221z" />
    <glyph glyph-name="g" unicode="g" horiz-adv-x="1234" 
d="M601 982q-87 0 -153 -42q-132 -86 -134 -309v-102q0 -157 80 -247t208 -90t200 92q72 93 72 234v115q0 153 -74 251t-199 98zM601 -250q127 0 201 71t74 204v166h-8q-49 -108 -182 -155q-68 -24 -147 -24q-195 0 -321 136t-126 366v144q0 152 58 268t160 177
q102 62 233 63q244 0 331 -179h6v160h215v-1124q0 -229 -142 -340q-141 -111 -369 -111t-345 97q-117 98 -122 242h220q10 -69 73 -115t191 -46z" />
    <glyph glyph-name="h" unicode="h" horiz-adv-x="1280" 
d="M162 0v1565h221v-572h8q24 59 103 116q78 57 209 57t227 -56t147 -158q51 -101 51 -232v-720h-218v672q0 140 -68 220t-193 80t-195 -78t-71 -222v-672h-221z" />
    <glyph glyph-name="i" unicode="i" horiz-adv-x="586" 
d="M158 1429q0 55 39 90t97 35t98 -34q39 -36 39 -91t-39 -91t-98 -37q-60 1 -98 37t-38 91zM185 0v1147h219v-1147h-219z" />
    <glyph glyph-name="j" unicode="j" horiz-adv-x="586" 
d="M404 1147v-1176q0 -377 -333 -377q-73 0 -111 11v168q27 -6 69 -6q83 0 120 49q36 49 36 157v1174h219zM158 1429q0 55 39 90t97 35t98 -34q39 -36 39 -91t-39 -91t-98 -37q-60 1 -98 37t-38 91z" />
    <glyph glyph-name="k" unicode="k" horiz-adv-x="1132" 
d="M381 0h-221v1565h221v-924h10l442 506h251l-441 -498l470 -649h-260l-372 518l-100 -102v-416z" />
    <glyph glyph-name="l" unicode="l" horiz-adv-x="551" 
d="M167 0v1565h218v-1565h-218z" />
    <glyph glyph-name="m" unicode="m" horiz-adv-x="1902" 
d="M158 0v1147h217v-148h12q29 69 106 118t188 49q258 0 326 -188h11q47 111 186 160q74 28 179 28t191 -47q178 -96 176 -336v-783h-218v731q0 111 -60 177t-172 66t-174 -71t-62 -187v-716h-217v716q0 126 -62 192t-173 66q-142 0 -202 -115q-31 -59 -31 -141v-718h-221z
" />
    <glyph glyph-name="n" unicode="n" horiz-adv-x="1273" 
d="M158 0v1147h217v-154h8q33 71 121 122t210 51q176 0 292 -106t116 -298v-762h-221v687q0 285 -258 285q-169 0 -233 -132q-31 -66 -31 -161v-679h-221z" />
    <glyph glyph-name="o" unicode="o" horiz-adv-x="1213" 
d="M600 987q-70 1 -128 -31t-89 -86q-62 -108 -60 -264v-63q0 -287 171 -360q49 -21 114 -21q281 0 281 381v63q0 130 -38 220q-67 161 -251 161zM609 1168q247 0 375 -149t127 -399v-89q0 -254 -128 -402q-129 -148 -377 -148t-375 147t-127 403v87q0 246 129 398t376 152z
" />
    <glyph glyph-name="p" unicode="p" horiz-adv-x="1265" 
d="M939 522v104q0 168 -73 262t-204 94t-206 -94t-75 -245v-131q0 -148 76 -246t203 -97q127 0 203 89q76 90 76 264zM381 156v-549h-221v1542h213v-162h8q35 81 123 130t220 49q198 0 318 -138t119 -381v-147q0 -162 -55 -280q-110 -237 -388 -237q-239 0 -331 173h-6z" />
    <glyph glyph-name="q" unicode="q" horiz-adv-x="1265" 
d="M606 980q-178 0 -247 -163q-32 -78 -32 -191v-106q0 -227 130 -312q63 -42 151 -41q133 1 206 99t73 250v113q0 163 -75 257t-206 94zM549 1166q127 0 213 -48t125 -131h6v160h212v-1540h-218v549h-9q-35 -77 -122 -125t-211 -48q-205 1 -323 139t-118 378v151
q0 235 120 375t325 140z" />
    <glyph glyph-name="r" unicode="r" horiz-adv-x="786" 
d="M175 0v1147h218v-142h9q73 161 279 161q40 0 77 -7v-197q-31 8 -100 8q-260 0 -260 -273v-697h-223z" />
    <glyph glyph-name="s" unicode="s" horiz-adv-x="1086" 
d="M993 336q0 -164 -126 -260t-333 -95q-207 -1 -328 89t-121 244h215q10 -78 70 -122t174 -44t173 47t59 117t-32 93q-32 24 -50 34t-82 27t-130 29q-66 13 -115 27q-126 35 -194 102q-67 67 -67 189t64 203q117 150 373 152q198 0 308 -97t111 -251h-200q-21 186 -245 184
q-78 0 -138 -46q-60 -45 -61 -121q0 -119 184 -153l75 -14q21 -4 69 -12q135 -24 232 -86q115 -72 115 -236z" />
    <glyph glyph-name="t" unicode="t" horiz-adv-x="743" 
d="M221 1143v287h216v-287h225v-177h-225v-633q0 -96 39 -130t140 -34q25 0 52 2v-173q-44 -6 -106 -6q-200 0 -272 76t-71 255v643h-159v177h161z" />
    <glyph glyph-name="u" unicode="u" horiz-adv-x="1267" 
d="M1111 1147v-1147h-218v156h-8q-33 -75 -117 -125t-214 -50q-183 0 -294 104q-110 104 -110 298v764h220v-704q0 -268 256 -268q119 0 191 72t72 200v700h222z" />
    <glyph glyph-name="v" unicode="v" horiz-adv-x="1090" 
d="M423 0l-398 1147h241l269 -928h8l292 928h233l-412 -1147h-233z" />
    <glyph glyph-name="w" unicode="w" horiz-adv-x="1623" 
d="M1594 1147l-304 -1147h-220l-250 862h-4l-244 -862h-224l-317 1147h240l193 -887h11l239 887h208l248 -887h8l198 887h218z" />
    <glyph glyph-name="x" unicode="x" horiz-adv-x="1123" 
d="M818 0l-256 416h-8l-258 -416h-242l377 568l-383 579h260l250 -412h10l256 412h248l-385 -562l387 -585h-256z" />
    <glyph glyph-name="y" unicode="y" horiz-adv-x="1144" 
d="M268 -416q-79 0 -141 10v171q29 -6 107 -6q157 0 199 174l17 55l-417 1159h244l287 -941h10l290 941h235q-398 -1136 -400 -1141l-29 -79q-55 -150 -142 -246q-88 -97 -260 -97z" />
    <glyph glyph-name="z" unicode="z" horiz-adv-x="1063" 
d="M100 0v139l593 823v12h-593v173h862v-144l-583 -816v-10h593v-177h-872z" />
    <glyph glyph-name="braceleft" unicode="{" horiz-adv-x="801" 
d="M477 375v-323q0 -123 51 -173t184 -52h44v-168h-75q-135 0 -223 36q-188 77 -187 336v277q1 119 -37 169t-145 50v218q106 0 144 50q37 50 38 169v243q0 255 186 328q88 34 224 34h75v-166h-44q-131 0 -183 -53t-52 -174v-287q0 -221 -194 -240v-27q194 -19 194 -247z
" />
    <glyph glyph-name="bar" unicode="|" horiz-adv-x="734" 
d="M464 -333h-191v1898h191v-1898z" />
    <glyph glyph-name="braceright" unicode="}" horiz-adv-x="801" 
d="M327 1176q0 81 -22 130q-44 97 -213 97h-46v166h77q135 0 222 -34q186 -73 186 -328v-243q1 -119 39 -169t142 -50v-218q-106 0 -144 -50t-37 -169v-277q0 -260 -186 -336q-89 -36 -222 -36h-77v168h46q169 0 213 96q22 48 22 129v323q-1 228 193 247v27
q-194 19 -193 240v287z" />
    <glyph glyph-name="asciitilde" unicode="~" horiz-adv-x="1211" 
d="M810 531q-116 0 -246 120q-7 13 -62 60q-56 47 -104 47q-131 0 -142 -184h-181q0 164 78 270t242 105q125 0 250 -119q50 -52 89 -79t80 -27q131 0 141 183h181q0 -223 -136 -322q-74 -54 -190 -54z" />
    <glyph glyph-name="nonbreakingspace" unicode="&#xa0;" horiz-adv-x="443" 
 />
    <glyph glyph-name="exclamdown" unicode="&#xa1;" horiz-adv-x="574" 
d="M290 1203q62 -1 102 -37t41 -95q0 -59 -41 -95t-103 -37q-62 0 -102 37q-39 36 -39 94t39 96q41 37 103 37zM410 -300h-248l29 1041h192z" />
    <glyph glyph-name="cent" unicode="&#xa2;" horiz-adv-x="1211" 
d="M697 -94h-173v246q-183 21 -293 153t-110 344v186q0 208 111 339t292 152v260h173v-260q113 -12 197 -68q164 -108 172 -288h-209q-12 69 -70 126t-183 57t-199 -88t-74 -235v-183q0 -197 132 -275q63 -39 163 -39t162 46q61 46 76 116h208q-4 -131 -103 -228t-272 -115
v-246z" />
    <glyph glyph-name="sterling" unicode="&#xa3;" horiz-adv-x="1211" 
d="M1143 181v-181h-1041v191q54 1 83 9q72 19 92 115q10 53 10 143v214h-206v165h206v304q0 177 120 275t310 99q189 0 301 -96t116 -264h-206q-6 77 -62 128t-130 51q-130 0 -182 -62t-52 -154v-281h320v-165h-320v-222q-2 -208 -82 -254v-15h723z" />
    <glyph glyph-name="currency" unicode="&#xa4;" horiz-adv-x="1211" 
d="M348 712q0 -71 34 -130q34 -60 94 -94t130 -34q106 0 183 76t77 182t-77 183t-183 77t-182 -76t-76 -184zM604 293q-122 0 -225 69l-190 -189l-120 118l189 190q-71 106 -71 231t67 225l-185 183l122 120l182 -183q104 73 232 73t230 -69l181 179l118 -120l-179 -179
q69 -106 69 -232t-73 -232l183 -186l-118 -118l-188 185q-102 -65 -224 -65z" />
    <glyph glyph-name="yen" unicode="&#xa5;" horiz-adv-x="1211" 
d="M1032 285h-314v-285h-223v285h-312v148h312v152h-312v150h248l-433 751h254l349 -649h11l354 649h249l-430 -751h247v-150h-314v-152h314v-148z" />
    <glyph glyph-name="brokenbar" unicode="&#xa6;" horiz-adv-x="503" 
d="M348 -333h-192v743h192v-743zM348 851h-192v714h192v-714z" />
    <glyph glyph-name="section" unicode="&#xa7;" horiz-adv-x="1011" 
d="M723 529q16 40 16 89t-28 85t-88 64q-61 28 -194 53q-50 -15 -93 -70q-43 -56 -43 -128q1 -72 57 -115t168 -70q15 -4 98 -23q73 25 107 115zM89 604q0 173 184 266v8q-177 100 -177 275t121 270q122 95 300 95q179 0 291 -98q112 -97 112 -246h-194q-5 92 -101 145
q-51 28 -130 28t-135 -50t-56 -129q0 -106 121 -150q66 -25 143 -43q78 -17 122 -31q120 -37 187 -108q68 -70 68 -193q0 -171 -167 -279v-8q73 -46 116 -104t43 -152q0 -171 -121 -273t-310 -102t-311 93t-122 249h198q12 -72 67 -119q55 -46 167 -47q111 -1 166 50t55 124
t-44 109t-103 53t-93 25q-245 58 -321 141q-76 84 -76 201z" />
    <glyph glyph-name="dieresis" unicode="&#xa8;" horiz-adv-x="1028" 
d="M591 1450q0 36 30 67t79 31t80 -31q32 -31 32 -79t-32 -79t-68 -31t-56 8q-65 25 -65 114zM294 1548q122 0 122 -122q0 -36 -31 -67t-79 -31t-79 31t-31 79t31 79t67 31z" />
    <glyph glyph-name="copyright" unicode="&#xa9;" horiz-adv-x="1783" 
d="M899 -69q-345 -1 -565 217t-220 553v113q0 206 100 377t280 269t405 99q167 0 315 -59q148 -60 249 -160q102 -100 160 -237t59 -289v-113q0 -335 -219 -553t-564 -217zM252 697q0 -277 179 -456t468 -179t469 179t180 456v117q0 258 -183 434t-466 176q-189 0 -338 -82
t-229 -220q-80 -139 -80 -308v-117zM545 689v106q0 171 98 267t254 95q155 0 245 -83t94 -192h-150q-10 52 -52 95t-129 43q-208 0 -208 -231v-102q0 -109 55 -165t153 -56q160 0 186 119h149q-2 -106 -90 -184t-250 -78q-162 -1 -258 95t-97 271z" />
    <glyph glyph-name="ordfeminine" unicode="&#xaa;" horiz-adv-x="697" 
d="M335 1126q-114 4 -114 -84q0 -42 32 -64q33 -23 75 -23q80 0 118 54q18 25 18 57v60h-129zM300 843q-114 0 -171 51q-58 51 -58 140q0 90 59 140t174 50h160v56q0 96 -106 96t-119 -65h-143q6 81 69 131t187 50q266 0 266 -214v-425h-146v82h-8q-50 -92 -164 -92z" />
    <glyph glyph-name="guillemotleft" unicode="&#xab;" horiz-adv-x="1375" 
d="M114 616l375 439h231l-370 -439v-6l370 -441h-241l-365 437v10zM641 616l375 439h231l-369 -439v-6l369 -441h-242l-364 437v10z" />
    <glyph glyph-name="logicalnot" unicode="&#xac;" horiz-adv-x="1211" 
d="M1136 104h-191v400h-870v177h1061v-577z" />
    <glyph glyph-name="registered" unicode="&#xae;" horiz-adv-x="1259" 
d="M547 743h-108v522h244q104 0 148 -79q22 -37 22 -87t-30 -93t-74 -55l119 -208h-127l-102 196h-92v-196zM633 1022q106 0 106 80t-94 80h-98v-160h86zM631 558q185 0 306 116t120 290v72q0 164 -121 279q-122 115 -304 115t-304 -114t-122 -280v-72q0 -114 54 -207
t152 -146t219 -53zM631 452q-152 0 -274 66q-123 66 -191 182q-68 118 -68 264v75q0 209 153 353t380 144t381 -145t154 -352v-75q0 -220 -151 -366t-384 -146z" />
    <glyph glyph-name="macron" unicode="&#xaf;" horiz-adv-x="1028" 
d="M812 1361h-608v129h608v-129z" />
    <glyph glyph-name="degree" unicode="&#xb0;" horiz-adv-x="591" 
d="M298 1134q50 0 85 36t35 88q0 50 -35 86t-77 36q-79 0 -115 -60q-17 -29 -17 -71q0 -43 38 -79q36 -36 86 -36zM547 1257q1 -104 -73 -177t-177 -73t-177 73t-74 177t73 177t179 73q67 0 125 -33q58 -32 91 -90t33 -127z" />
    <glyph glyph-name="plusminus" unicode="&#xb1;" horiz-adv-x="1211" 
d="M1128 112h-1041v177h1041v-177zM695 712v-302h-183v302h-427v173h427v285h183v-285h431v-173h-431z" />
    <glyph glyph-name="twosuperior" unicode="&#xb2;" horiz-adv-x="695" 
d="M231 1259h-150v11q0 132 115 196q60 34 158 34t170 -60q71 -60 71 -142t-41 -139t-90 -106l-171 -166v-2h315v-132h-512v100l264 281q79 82 79 134t-29 78t-75 26t-75 -30t-29 -72v-11z" />
    <glyph glyph-name="threesuperior" unicode="&#xb3;" horiz-adv-x="705" 
d="M341 1193q104 -1 104 99q0 34 -29 59t-76 25t-76 -26t-31 -64h-146q4 128 119 185q58 29 154 29t166 -53q70 -54 70 -138t-66 -136q-30 -24 -68 -35v-2q70 -10 114 -54t44 -114t-37 -123q-74 -104 -240 -104q-123 0 -195 63t-73 153h144q4 -39 37 -65t86 -26t88 29
q34 29 34 73t-32 72t-89 28h-85v125h83z" />
    <glyph glyph-name="acute" unicode="&#xb4;" horiz-adv-x="1028" 
d="M418 1320h-177l206 303h227z" />
    <glyph glyph-name="paragraph" unicode="&#xb6;" horiz-adv-x="1404" 
d="M1001 -229v1715h214v-1715h-214zM828 -229h-214v776h-21q-132 0 -253 66q-234 128 -234 403q0 183 83 289q145 181 404 181h235v-1715z" />
    <glyph glyph-name="periodcentered" unicode="&#xb7;" horiz-adv-x="657" 
d="M164 791q0 58 40 97q40 38 98 38t98 -38t40 -98q0 -59 -40 -97q-40 -37 -98 -37t-98 38t-40 97z" />
    <glyph glyph-name="cedilla" unicode="&#xb8;" horiz-adv-x="1028" 
d="M383 -256v94l64 170h144l-58 -152q104 0 164 -46q61 -46 61 -138t-69 -144t-171 -56t-173 16v121q48 -15 125 -15q127 0 127 79q0 52 -49 63q-35 8 -107 8h-58z" />
    <glyph glyph-name="onesuperior" unicode="&#xb9;" horiz-adv-x="636" 
d="M460 753h-158v579h-6l-167 -123v146l173 131h158v-733z" />
    <glyph glyph-name="ordmasculine" unicode="&#xba;" horiz-adv-x="693" 
d="M349 1492q86 0 153 -34t104 -100t37 -153v-75q0 -135 -80 -212t-215 -77t-216 76q-80 76 -80 213v75q0 85 37 151t105 101t155 35zM206 1134q0 -174 154 -172q59 0 94 46t35 126v67q0 119 -79 159q-28 14 -68 14t-72 -23q-64 -46 -64 -150v-67z" />
    <glyph glyph-name="guillemotright" unicode="&#xbb;" horiz-adv-x="1375" 
d="M728 616v-10l-364 -437h-241l368 441v6l-368 439h231zM1255 616v-10l-364 -437h-242l371 441v6l-371 439h231z" />
    <glyph glyph-name="onequarter" unicode="&#xbc;" horiz-adv-x="1471" 
d="M244 0h-182l1137 1486h181l-577 -751zM364 753h-158v579h-6l-167 -123v146l173 131h158v-733zM1347 735v-485h87v-121h-87v-129h-140v129h-364v119q62 114 291 487h213zM991 250h216v358h-8q-79 -119 -208 -354v-4z" />
    <glyph glyph-name="onehalf" unicode="&#xbd;" horiz-adv-x="1488" 
d="M244 0h-182l1137 1486h181l-577 -751zM364 753h-158v579h-6l-167 -123v146l173 131h158v-733zM1101 491h-152v13q0 96 68 164q67 68 189 69q122 -1 193 -61t70 -154q0 -48 -24 -96q-23 -48 -45 -75q-22 -26 -62 -66l-175 -171v-2h319v-133h-520v102l268 283q83 86 83 138
t-30 78t-77 26t-76 -29t-29 -73v-13z" />
    <glyph glyph-name="threequarters" unicode="&#xbe;" horiz-adv-x="1525" 
d="M296 0h-182l1137 1486h181l-577 -751zM210 1047v125h83q105 0 107 104q0 34 -30 58t-76 25q-48 0 -78 -26t-31 -65h-148q4 127 120 186q59 30 156 30t168 -54t71 -129t-38 -121t-98 -62v-2q92 -12 138 -86q23 -37 23 -89q-1 -101 -81 -163t-182 -62q-186 0 -258 111
q-31 49 -31 108h146q4 -53 60 -80q27 -12 73 -12t80 29t34 74t-33 73t-89 28h-86zM1401 735v-483h87v-123h-87v-129h-142v129h-364v119q74 137 293 487h213zM1045 252h214v356h-6q-81 -121 -208 -352v-4z" />
    <glyph glyph-name="questiondown" unicode="&#xbf;" horiz-adv-x="1040" 
d="M498 -352q-104 0 -205 41q-99 41 -165 128t-66 212q0 170 135 286q28 26 82 69q54 44 78 64t50 52t33 62q7 31 7 77v62h209v-83q4 -108 -49 -185t-134 -139t-111 -88q-76 -69 -75 -170q0 -100 68 -152t158 -53q91 -1 147 33q108 64 108 215h208q6 -318 -296 -408
q-78 -23 -182 -23zM621 1172q70 -37 70 -116t-71 -115q-33 -17 -84 -17t-91 36q-39 36 -39 95q0 58 39 96q40 37 92 37t84 -16z" />
    <glyph glyph-name="Agrave" unicode="&#xc0;" horiz-adv-x="1325" 
d="M789 1644h-190l-318 221h233zM662 1243h-8l-211 -644h427zM250 0h-227l518 1486h244l518 -1486h-242l-137 427h-535z" />
    <glyph glyph-name="Aacute" unicode="&#xc1;" horiz-adv-x="1325" 
d="M537 1644l277 225h239l-322 -225h-194zM662 1243h-8l-211 -644h427zM250 0h-227l518 1486h244l518 -1486h-242l-137 427h-535z" />
    <glyph glyph-name="Acircumflex" unicode="&#xc2;" horiz-adv-x="1325" 
d="M302 1640l302 260h129l297 -260h-191l-169 154h-8l-169 -154h-191zM662 1243h-8l-211 -644h427zM250 0h-227l518 1486h244l518 -1486h-242l-137 427h-535z" />
    <glyph glyph-name="Atilde" unicode="&#xc3;" horiz-adv-x="1325" 
d="M356 1630q0 88 48 152t132 64t159 -73q6 -4 34 -29t56 -25t46 33t22 75h125q0 -85 -52 -151t-120 -66q-114 1 -166 58q-35 39 -40 42t-16 10t-32 7q-65 0 -69 -97h-127zM662 1243h-8l-211 -644h427zM250 0h-227l518 1486h244l518 -1486h-242l-137 427h-535z" />
    <glyph glyph-name="Adieresis" unicode="&#xc4;" horiz-adv-x="1325" 
d="M953 1724q0 -42 -27 -70t-70 -28q-44 0 -70 27t-26 71t26 72t69 27q44 0 71 -28t27 -71zM423 1724q0 43 28 71q29 28 71 28t69 -28t27 -71t-25 -70t-70 -28t-73 27t-27 71zM662 1243h-8l-211 -644h427zM250 0h-227l518 1486h244l518 -1486h-242l-137 427h-535z" />
    <glyph glyph-name="Aring" unicode="&#xc5;" horiz-adv-x="1325" 
d="M423 1636q-1 98 69 166t168 67q98 0 166 -68t69 -165q0 -56 -27 -105t-73 -78l508 -1453h-239l-140 427h-533l-141 -427h-225l506 1447q-50 29 -79 80t-29 109zM870 599l-206 644h-10l-211 -644h427zM543 1624q1 -36 35 -70t83 -34t82 34t33 74q0 74 -52 106t-109 9
q-72 -29 -72 -119z" />
    <glyph glyph-name="AE" unicode="&#xc6;" horiz-adv-x="2029" 
d="M1003 441h-510l-229 -441h-252l783 1486h1111v-194h-680v-443h643v-185h-643v-470h680v-194h-903v441zM1003 620v672h-77l-343 -672h420z" />
    <glyph glyph-name="Ccedilla" unicode="&#xc7;" horiz-adv-x="1369" 
d="M660 -406q127 0 127 79q0 55 -67 66q-38 5 -89 5h-59v94l52 135q-241 27 -376 200t-136 472v190q0 325 160 503t436 179q131 1 240 -43q201 -80 282 -278q37 -91 38 -189v-10h-219q0 129 -92 226t-247 97q-232 0 -325 -216q-48 -111 -48 -271v-188q0 -241 100 -360
t277 -118q106 -1 183 41q152 82 152 258h219v-10q0 -107 -54 -212t-167 -183q-114 -76 -281 -88l-44 -117q104 0 165 -45q60 -46 60 -139t-69 -145q-70 -52 -170 -56t-173 17v121q48 -15 125 -15z" />
    <glyph glyph-name="Egrave" unicode="&#xc8;" horiz-adv-x="1205" 
d="M1084 194v-194h-911v1486h911v-194h-689v-443h650v-185h-650v-470h689zM747 1644h-189l-319 221h236z" />
    <glyph glyph-name="Eacute" unicode="&#xc9;" horiz-adv-x="1205" 
d="M1084 194v-194h-911v1486h911v-194h-689v-443h650v-185h-650v-470h689zM495 1644l277 225h240l-323 -225h-194z" />
    <glyph glyph-name="Ecircumflex" unicode="&#xca;" horiz-adv-x="1205" 
d="M1084 194v-194h-911v1486h911v-194h-689v-443h650v-185h-650v-470h689zM260 1640l302 260h129l298 -260h-192l-168 154h-9l-168 -154h-192z" />
    <glyph glyph-name="Edieresis" unicode="&#xcb;" horiz-adv-x="1205" 
d="M1084 194v-194h-911v1486h911v-194h-689v-443h650v-185h-650v-470h689zM912 1724q0 -42 -27 -70t-70 -28t-70 27t-27 71t26 72t70 27q44 0 71 -28t27 -71zM381 1724q0 43 28 71t71 28q44 0 70 -28t27 -70t-28 -71q-24 -28 -68 -28q-44 -1 -72 27t-28 71z" />
    <glyph glyph-name="Igrave" unicode="&#xcc;" horiz-adv-x="566" 
d="M410 1644h-191l-319 221h235zM395 0h-222v1486h222v-1486z" />
    <glyph glyph-name="Iacute" unicode="&#xcd;" horiz-adv-x="566" 
d="M156 1644l279 225h237l-322 -225h-194zM395 0h-222v1486h222v-1486z" />
    <glyph glyph-name="Icircumflex" unicode="&#xce;" horiz-adv-x="566" 
d="M-79 1640l302 260h129l299 -260h-191l-169 154h-10l-169 -154h-191zM395 0h-222v1486h222v-1486z" />
    <glyph glyph-name="Idieresis" unicode="&#xcf;" horiz-adv-x="566" 
d="M379 1712q1 110 97 111q46 0 72 -28t26 -71q0 -42 -28 -70t-70 -28t-70 27q-27 27 -27 59zM239 1724q0 -42 -28 -70t-71 -28q-42 0 -70 27q-28 28 -28 71t28 71t70 28t71 -28q28 -28 28 -71zM395 0h-222v1486h222v-1486z" />
    <glyph glyph-name="Eth" unicode="&#xd0;" horiz-adv-x="1504" 
d="M483 196h254q227 0 336 135t109 412q0 554 -445 554h-254v-442h314v-193h-314v-466zM260 0v662h-177v193h177v631h498q351 0 504 -204t153 -538q0 -335 -150 -539q-150 -205 -507 -205h-498z" />
    <glyph glyph-name="Ntilde" unicode="&#xd1;" horiz-adv-x="1488" 
d="M389 0h-216v1486h202l718 -1103h6v1103h218v-1486h-204l-718 1105h-6v-1105zM437 1630q0 88 47 152t132 64q86 0 150 -64t96 -63q32 0 51 33q18 33 19 75h127q0 -85 -52 -151q-51 -66 -143 -66t-155 73l-19 20q-28 24 -57 24q-65 0 -71 -97h-125z" />
    <glyph glyph-name="Ograve" unicode="&#xd2;" horiz-adv-x="1440" 
d="M112 631v210q0 314 164 495t446 181q184 0 322 -81t212 -234t74 -361v-210q0 -312 -164 -487t-446 -175t-446 175q-162 175 -162 487zM337 843v-212q0 -229 105 -347t277 -118t278 118t106 347v212q0 229 -106 354t-277 125q-232 0 -332 -216q-51 -109 -51 -263z
M845 1644h-189l-319 221h235z" />
    <glyph glyph-name="Oacute" unicode="&#xd3;" horiz-adv-x="1440" 
d="M112 631v210q0 314 164 495t446 181q184 0 322 -81t212 -234t74 -361v-210q0 -312 -164 -487t-446 -175t-446 175q-162 175 -162 487zM337 843v-212q0 -229 105 -347t277 -118t278 118t106 347v212q0 229 -106 354t-277 125q-232 0 -332 -216q-51 -109 -51 -263z
M593 1644l277 225h239l-322 -225h-194z" />
    <glyph glyph-name="Ocircumflex" unicode="&#xd4;" horiz-adv-x="1440" 
d="M112 631v210q0 314 164 495t446 181q184 0 322 -81t212 -234t74 -361v-210q0 -312 -164 -487t-446 -175t-446 175q-162 175 -162 487zM337 843v-212q0 -229 105 -347t277 -118t278 118t106 347v212q0 229 -106 354t-277 125q-232 0 -332 -216q-51 -109 -51 -263z
M358 1640l302 260h129l300 -260h-194l-169 154h-8l-169 -154h-191z" />
    <glyph glyph-name="Otilde" unicode="&#xd5;" horiz-adv-x="1440" 
d="M608 1727q-65 0 -69 -97h-127q0 88 48 152t132 64t159 -73q6 -4 34 -29t56 -25q29 0 47 33t22 75h124q0 -85 -51 -151t-134 -65q-55 -1 -89 15t-67 47q-5 10 -12 15q-7 6 -12 11t-9 7t-10 7q-20 14 -42 14zM112 631v210q0 314 164 495t446 181q184 0 322 -81t212 -234
t74 -361v-210q0 -312 -164 -487t-446 -175t-446 175q-162 175 -162 487zM337 843v-212q0 -229 105 -347t277 -118t278 118t106 347v212q0 229 -106 354t-277 125q-232 0 -332 -216q-51 -109 -51 -263z" />
    <glyph glyph-name="Odieresis" unicode="&#xd6;" horiz-adv-x="1440" 
d="M112 631v210q0 314 164 495t446 181q184 0 322 -81t212 -234t74 -361v-210q0 -312 -164 -487t-446 -175t-446 175q-162 175 -162 487zM337 843v-212q0 -229 105 -347t277 -118t278 118t106 347v212q0 229 -106 354t-277 125q-232 0 -332 -216q-51 -109 -51 -263z
M913 1823q43 0 69 -28t27 -71q0 -42 -27 -70q-28 -28 -70 -28t-69 27q-27 28 -27 71t27 71t70 28zM578 1823q44 0 70 -28t26 -71q0 -42 -27 -70t-69 -28t-71 27q-28 28 -28 71t28 71t71 28z" />
    <glyph glyph-name="multiply" unicode="&#xd7;" horiz-adv-x="1211" 
d="M945 79l-339 337l-338 -337l-131 131l338 337l-338 338l131 131l338 -337l339 337l129 -131l-337 -338l337 -337z" />
    <glyph glyph-name="Oslash" unicode="&#xd8;" horiz-adv-x="1440" 
d="M717 162q176 0 282 119t106 350v212q0 127 -37 223l-629 -783q102 -121 278 -121zM335 631q0 -117 31 -202l627 776q-104 119 -273 119q-234 0 -334 -217q-51 -110 -51 -264v-212zM1330 631q0 -312 -164 -487t-434 -175t-428 148l-108 -134l-115 94l127 156
q-96 162 -96 398v210q0 314 164 495t430 181q264 0 422 -145l104 129l119 -88l-127 -156q106 -167 106 -416v-210z" />
    <glyph glyph-name="Ugrave" unicode="&#xd9;" horiz-adv-x="1458" 
d="M379 1486v-959q1 -167 95 -264t255 -97t258 97q96 97 95 264v959h223v-970q0 -246 -158 -396q-159 -150 -417 -151q-258 0 -417 152t-159 399v966h225zM855 1644h-189l-318 221h233z" />
    <glyph glyph-name="Uacute" unicode="&#xda;" horiz-adv-x="1458" 
d="M379 1486v-959q1 -167 95 -264t255 -97t258 97q96 97 95 264v959h223v-970q0 -246 -158 -396q-159 -150 -417 -151q-258 0 -417 152t-159 399v966h225zM604 1644l276 225h240l-323 -225h-193z" />
    <glyph glyph-name="Ucircumflex" unicode="&#xdb;" horiz-adv-x="1458" 
d="M379 1486v-959q1 -167 95 -264t255 -97t258 97q96 97 95 264v959h223v-970q0 -246 -158 -396q-159 -150 -417 -151q-258 0 -417 152t-159 399v966h225zM368 1640l302 260h129l298 -260h-192l-168 154h-9l-168 -154h-192z" />
    <glyph glyph-name="Udieresis" unicode="&#xdc;" horiz-adv-x="1458" 
d="M379 1486v-959q1 -167 95 -264t255 -97t258 97q96 97 95 264v959h223v-970q0 -246 -158 -396q-159 -150 -417 -151q-258 0 -417 152t-159 399v966h225zM1020 1724q0 -42 -27 -70t-70 -28t-71 27q-28 28 -28 72t28 71t71 27t70 -28t27 -71zM685 1724q0 -42 -27 -70
t-70 -28t-71 27t-28 63q0 64 47 94q22 14 58 14t64 -29q27 -28 27 -71z" />
    <glyph glyph-name="Yacute" unicode="&#xdd;" horiz-adv-x="1205" 
d="M477 1644l276 225h240l-323 -225h-193zM714 0h-223v616l-497 870h254l351 -649h9l356 649h247l-497 -868v-618z" />
    <glyph glyph-name="Thorn" unicode="&#xde;" horiz-adv-x="1263" 
d="M395 1022v-495h250q193 -1 257 63t64 184q0 248 -281 248h-290zM173 1486h220v-275h319q225 1 354 -115t129 -322t-129 -320t-354 -115h-317v-339h-222v1486z" />
    <glyph glyph-name="germandbls" unicode="&#xdf;" horiz-adv-x="1361" 
d="M391 0h-220v1138q0 202 131 316t347 114q217 1 349 -106t131 -284t-134 -284q-74 -60 -142 -64v-14q229 0 351 -178q64 -92 64 -226t-76 -236q-146 -196 -447 -195q-104 0 -171 21v179q54 -21 133 -21q236 0 310 140q28 52 28 120q0 194 -211 256q-66 19 -147 19h-83v206
h50q98 0 178 72t80 178t-69 171t-187 64q-264 0 -265 -283v-1103z" />
    <glyph glyph-name="agrave" unicode="&#xe0;" horiz-adv-x="1165" 
d="M699 1326h-177l-258 299h225zM544 156q101 0 176 67t75 166v121h-264q-106 0 -159 -46q-54 -46 -54 -130t62 -131t164 -47zM470 -19q-170 0 -272 95t-102 253q0 210 183 294q92 43 221 43h295v127q0 191 -223 191q-204 0 -222 -172h-213q8 152 113 253q107 101 321 101
q445 0 445 -375v-791h-211v150h-8q-44 -75 -126 -122t-201 -47z" />
    <glyph glyph-name="aacute" unicode="&#xe1;" horiz-adv-x="1165" 
d="M641 1324h-177l206 301h227zM544 156q101 0 176 67t75 166v121h-264q-106 0 -159 -46q-54 -46 -54 -130t62 -131t164 -47zM470 -19q-170 0 -272 95t-102 253q0 210 183 294q92 43 221 43h295v127q0 191 -223 191q-204 0 -222 -172h-213q8 152 113 253q107 101 321 101
q445 0 445 -375v-791h-211v150h-8q-44 -75 -126 -122t-201 -47z" />
    <glyph glyph-name="acircumflex" unicode="&#xe2;" horiz-adv-x="1165" 
d="M277 1326l233 322h144l222 -324h-177l-116 202h-4l-127 -200h-175zM544 156q101 0 176 67t75 166v121h-264q-106 0 -159 -46q-54 -46 -54 -130t62 -131t164 -47zM470 -19q-170 0 -272 95t-102 253q0 210 183 294q92 43 221 43h295v127q0 191 -223 191q-204 0 -222 -172
h-213q8 152 113 253q107 101 321 101q445 0 445 -375v-791h-211v150h-8q-44 -75 -126 -122t-201 -47z" />
    <glyph glyph-name="atilde" unicode="&#xe3;" horiz-adv-x="1165" 
d="M458 1390q-67 0 -75 -110h-135q0 106 51 179t151 73t194 -114q21 -21 51 -23q29 -1 52 27t27 91h136q0 -98 -56 -175t-148 -77t-159 73q-7 0 -11 8t-12 15q-6 6 -9 8q-3 3 -8 7q-21 18 -49 18zM544 156q101 0 176 67t75 166v121h-264q-106 0 -159 -46q-54 -46 -54 -130
t62 -131t164 -47zM470 -19q-170 0 -272 95t-102 253q0 210 183 294q92 43 221 43h295v127q0 191 -223 191q-204 0 -222 -172h-213q8 152 113 253q107 101 321 101q445 0 445 -375v-791h-211v150h-8q-44 -75 -126 -122t-201 -47z" />
    <glyph glyph-name="adieresis" unicode="&#xe4;" horiz-adv-x="1165" 
d="M670 1388q0 36 31 68t79 32t80 -31t31 -80q0 -49 -31 -80t-68 -31t-56 8q-66 27 -66 114zM275 1376q0 48 31 80q32 32 72 32t65 -14q56 -33 55 -90q-1 -56 -32 -87t-80 -31t-80 30q-31 32 -31 80zM544 156q101 0 176 67t75 166v121h-264q-106 0 -159 -46
q-54 -46 -54 -130t62 -131t164 -47zM470 -19q-170 0 -272 95t-102 253q0 210 183 294q92 43 221 43h295v127q0 191 -223 191q-204 0 -222 -172h-213q8 152 113 253q107 101 321 101q445 0 445 -375v-791h-211v150h-8q-44 -75 -126 -122t-201 -47z" />
    <glyph glyph-name="aring" unicode="&#xe5;" horiz-adv-x="1165" 
d="M472 1507q0 -46 32 -77t77 -31q46 0 77 31t31 77t-31 77t-77 31q-45 0 -77 -31t-32 -77zM795 1508q0 -90 -61 -150t-136 -59q-76 0 -126 27t-78 75q-28 47 -28 121t62 134t154 61q91 0 152 -60q61 -59 61 -149zM544 156q101 0 176 67t75 166v121h-264q-106 0 -159 -46
q-54 -46 -54 -130t62 -131t164 -47zM470 -19q-170 0 -272 95t-102 253q0 210 183 294q92 43 221 43h295v127q0 191 -223 191q-204 0 -222 -172h-213q8 152 113 253q107 101 321 101q445 0 445 -375v-791h-211v150h-8q-44 -75 -126 -122t-201 -47z" />
    <glyph glyph-name="ae" unicode="&#xe6;" horiz-adv-x="1864" 
d="M533 516q-109 0 -165 -48t-56 -132t66 -132t167 -48q102 0 177 67t75 166v127h-264zM1292 989q-116 -1 -192 -81t-76 -205v-33h524v23q0 137 -69 217q-71 79 -187 79zM92 331q0 158 108 250t306 91h291v111q0 204 -227 201q-189 0 -225 -131h-210q13 148 127 231t315 84
q117 0 211 -39t140 -111h15q67 94 207 132q66 18 138 18q214 0 346 -140t131 -372v-136h-741v-83q0 -166 131 -239q65 -36 153 -36t149 38q60 38 73 96h220q-13 -109 -121 -212t-352 -103q-133 1 -241 63t-149 158h-17q-46 -94 -144 -157t-228 -63t-218 41q-88 42 -138 121
t-50 187z" />
    <glyph glyph-name="ccedilla" unicode="&#xe7;" horiz-adv-x="1132" 
d="M670 -308q0 48 -34 59t-112 12h-58v93l56 129q-200 21 -309 165t-109 364v125q0 323 223 459q112 70 264 70q206 0 327 -110t123 -261h-211q-14 104 -112 157q-54 30 -123 30q-133 0 -203 -98t-69 -253v-119q1 -152 73 -248t188 -96q214 1 253 165h210q-4 -133 -107 -232
t-274 -118l-50 -110q216 1 216 -185q0 -94 -68 -145q-69 -51 -174 -54t-170 16v120q52 -15 125 -14q125 0 125 79z" />
    <glyph glyph-name="egrave" unicode="&#xe8;" horiz-adv-x="1169" 
d="M323 683h532v4q0 135 -71 218q-72 83 -195 83t-195 -84t-71 -217v-4zM604 -19q-241 0 -371 146q-129 146 -129 393v100q0 248 127 398t359 150t357 -149t125 -397v-100h-749v-33q1 -137 71 -232t192 -95t180 46t73 115h218q-16 -121 -117 -226q-50 -53 -138 -85t-198 -31
zM701 1326h-177l-258 299h225z" />
    <glyph glyph-name="eacute" unicode="&#xe9;" horiz-adv-x="1169" 
d="M323 683h532v4q0 135 -71 218q-72 83 -195 83t-195 -84t-71 -217v-4zM604 -19q-241 0 -371 146q-129 146 -129 393v100q0 248 127 398t359 150t357 -149t125 -397v-100h-749v-33q1 -137 71 -232t192 -95t180 46t73 115h218q-16 -121 -117 -226q-50 -53 -138 -85t-198 -31
zM643 1324h-177l206 301h227z" />
    <glyph glyph-name="ecircumflex" unicode="&#xea;" horiz-adv-x="1169" 
d="M323 683h532v4q0 135 -71 218q-72 83 -195 83t-195 -84t-71 -217v-4zM604 -19q-241 0 -371 146q-129 146 -129 393v100q0 248 127 398t359 150t357 -149t125 -397v-100h-749v-33q1 -137 71 -232t192 -95t180 46t73 115h218q-16 -121 -117 -226q-50 -53 -138 -85t-198 -31
zM279 1326l233 322h144l222 -324h-177l-116 202h-4l-127 -200h-175z" />
    <glyph glyph-name="edieresis" unicode="&#xeb;" horiz-adv-x="1169" 
d="M672 1388q0 36 31 68t79 32t80 -31q31 -31 31 -80t-31 -80t-79 -32q-76 1 -103 67q-8 20 -8 56zM277 1376q0 48 31 80q32 32 68 32q91 0 116 -71q26 -71 -24 -120q-31 -31 -80 -31t-80 30q-31 32 -31 80zM323 683h532v4q0 135 -71 218q-72 83 -195 83t-195 -84t-71 -217
v-4zM604 -19q-241 0 -371 146q-129 146 -129 393v100q0 248 127 398t359 150t357 -149t125 -397v-100h-749v-33q1 -137 71 -232t192 -95t180 46t73 115h218q-16 -121 -117 -226q-50 -53 -138 -85t-198 -31z" />
    <glyph glyph-name="igrave" unicode="&#xec;" horiz-adv-x="586" 
d="M185 0v1147h223v-1147h-223zM412 1326h-179l-258 299h227z" />
    <glyph glyph-name="iacute" unicode="&#xed;" horiz-adv-x="586" 
d="M185 0v1147h223v-1147h-223zM354 1324h-177l206 301h227z" />
    <glyph glyph-name="icircumflex" unicode="&#xee;" horiz-adv-x="586" 
d="M185 0v1147h223v-1147h-223zM-10 1326l233 322h143l223 -324h-177l-116 202h-5l-127 -200h-174z" />
    <glyph glyph-name="idieresis" unicode="&#xef;" horiz-adv-x="586" 
d="M383 1376q0 48 31 80t79 32t79 -31q32 -31 32 -80t-32 -80t-79 -31q-48 0 -79 30q-31 32 -31 80zM-12 1376q0 48 31 80t80 32t79 -31t30 -80t-31 -80t-79 -31t-79 30q-31 32 -31 80zM185 0v1147h223v-1147h-223z" />
    <glyph glyph-name="eth" unicode="&#xf0;" horiz-adv-x="1213" 
d="M891 595q0 159 -76 245t-206 86t-209 -94t-79 -249v-75q0 -218 134 -301q66 -41 153 -41t152 42q129 80 131 300v87zM607 -19q-227 -1 -365 135t-138 379v98q0 233 133 373t332 139q199 0 297 -123h12q0 4 -5 34q-27 163 -151 312l-306 -115l-41 119l254 92
q-87 81 -215 162l175 87q129 -65 237 -177l265 96l45 -110l-220 -81q96 -123 146 -276t49 -309v-316q0 -241 -139 -380t-365 -139z" />
    <glyph glyph-name="ntilde" unicode="&#xf1;" horiz-adv-x="1273" 
d="M158 0v1147h217v-154h8q33 71 121 122t210 51q176 0 292 -106t116 -298v-762h-221v687q0 285 -258 285q-169 0 -233 -132q-31 -66 -31 -161v-679h-221zM512 1390q-67 0 -75 -110h-135q0 106 51 179t143 73t170 -79q12 -18 21 -25q10 -8 23 -20t46 -13q32 -1 52 35t20 83
h136q0 -98 -56 -175t-148 -77t-159 73q-7 0 -13 12t-13 16t-22 16q-16 12 -41 12z" />
    <glyph glyph-name="ograve" unicode="&#xf2;" horiz-adv-x="1213" 
d="M600 987q-70 1 -128 -31t-89 -86q-62 -108 -60 -264v-63q0 -287 171 -360q49 -21 114 -21q281 0 281 381v63q0 130 -38 220q-67 161 -251 161zM609 1168q247 0 375 -149t127 -399v-89q0 -254 -128 -402q-129 -148 -377 -148t-375 147t-127 403v87q0 246 129 398t376 152z
M724 1326h-179l-258 299h227z" />
    <glyph glyph-name="oacute" unicode="&#xf3;" horiz-adv-x="1213" 
d="M600 987q-70 1 -128 -31t-89 -86q-62 -108 -60 -264v-63q0 -287 171 -360q49 -21 114 -21q281 0 281 381v63q0 130 -38 220q-67 161 -251 161zM609 1168q247 0 375 -149t127 -399v-89q0 -254 -128 -402q-129 -148 -377 -148t-375 147t-127 403v87q0 246 129 398t376 152z
M666 1324h-179l208 301h227z" />
    <glyph glyph-name="ocircumflex" unicode="&#xf4;" horiz-adv-x="1213" 
d="M600 987q-70 1 -128 -31t-89 -86q-62 -108 -60 -264v-63q0 -287 171 -360q49 -21 114 -21q281 0 281 381v63q0 130 -38 220q-67 161 -251 161zM609 1168q247 0 375 -149t127 -399v-89q0 -254 -128 -402q-129 -148 -377 -148t-375 147t-127 403v87q0 246 129 398t376 152z
M302 1326l231 322h146l222 -324h-177l-118 202h-5l-124 -200h-175z" />
    <glyph glyph-name="otilde" unicode="&#xf5;" horiz-adv-x="1213" 
d="M600 987q-70 1 -128 -31t-89 -86q-62 -108 -60 -264v-63q0 -287 171 -360q49 -21 114 -21q281 0 281 381v63q0 130 -38 220q-67 161 -251 161zM609 1168q247 0 375 -149t127 -399v-89q0 -254 -128 -402q-129 -148 -377 -148t-375 147t-127 403v87q0 246 129 398t376 152z
M481 1390q-67 0 -73 -110h-135q0 106 51 179t148 73t178 -96q32 -34 46 -38q15 -3 26 -4q37 0 55 36t20 83h135q0 -98 -56 -175t-148 -77t-158 73q-14 14 -15 16t-7 7q-6 6 -12 11l-12 8t-14 9q-9 5 -29 5z" />
    <glyph glyph-name="odieresis" unicode="&#xf6;" horiz-adv-x="1213" 
d="M600 987q-70 1 -128 -31t-89 -86q-62 -108 -60 -264v-63q0 -287 171 -360q49 -21 114 -21q281 0 281 381v63q0 130 -38 220q-67 161 -251 161zM609 1168q247 0 375 -149t127 -399v-89q0 -254 -128 -402q-129 -148 -377 -148t-375 147t-127 403v87q0 246 129 398t376 152z
M695 1376q0 48 30 80q31 32 71 32q76 0 105 -55q15 -25 15 -65t-31 -71t-81 -31t-79 30q-30 32 -30 80zM300 1388q0 36 31 68t71 32t65 -14q55 -31 54 -89q-1 -57 -32 -88t-67 -31q-122 -2 -122 122z" />
    <glyph glyph-name="divide" unicode="&#xf7;" horiz-adv-x="1211" 
d="M460 166q0 116 91 156q28 11 59 11q66 0 110 -44q44 -45 44 -109t-45 -106t-108 -41q-63 0 -107 43q-44 42 -44 90zM713 1147q43 -41 44 -108t-43 -109t-108 -42t-109 42q-43 41 -43 112t61 118q36 28 95 28q60 0 103 -41zM1126 520h-1041v171h1041v-171z" />
    <glyph glyph-name="oslash" unicode="&#xf8;" horiz-adv-x="1213" 
d="M598 -19q-158 0 -286 86l-110 -148l-108 81l116 158q-106 137 -106 337v159q0 233 140 373t364 141q164 0 293 -88l108 148l109 -85l-117 -156q110 -137 110 -331v-159q0 -162 -65 -280q-132 -236 -448 -236zM318 481q0 -87 32 -154l439 603q-73 62 -193 62t-198 -98
q-79 -99 -80 -251v-162zM895 508v162q0 83 -33 148l-437 -599q73 -61 195 -61t199 97q76 97 76 253z" />
    <glyph glyph-name="ugrave" unicode="&#xf9;" horiz-adv-x="1267" 
d="M1111 1147v-1147h-218v156h-8q-33 -75 -117 -125t-214 -50q-183 0 -294 104q-110 104 -110 298v764h220v-704q0 -268 256 -268q119 0 191 72t72 200v700h222zM751 1326h-179l-258 299h227z" />
    <glyph glyph-name="uacute" unicode="&#xfa;" horiz-adv-x="1267" 
d="M1111 1147v-1147h-218v156h-8q-33 -75 -117 -125t-214 -50q-183 0 -294 104q-110 104 -110 298v764h220v-704q0 -268 256 -268q119 0 191 72t72 200v700h222zM693 1324h-179l208 301h227z" />
    <glyph glyph-name="ucircumflex" unicode="&#xfb;" horiz-adv-x="1267" 
d="M1111 1147v-1147h-218v156h-8q-33 -75 -117 -125t-214 -50q-183 0 -294 104q-110 104 -110 298v764h220v-704q0 -268 256 -268q119 0 191 72t72 200v700h222zM329 1326l231 322h146l222 -324h-177l-118 202h-4l-125 -200h-175z" />
    <glyph glyph-name="udieresis" unicode="&#xfc;" horiz-adv-x="1267" 
d="M722 1376q0 48 30 80t79 32t81 -31t31 -71q0 -72 -54 -106q-25 -15 -66 -15q-41 -1 -71 31t-30 80zM327 1376q0 48 31 80t79 32t79 -31t31 -69q0 -88 -70 -115t-119 24q-31 31 -31 79zM1111 1147v-1147h-218v156h-8q-33 -75 -117 -125t-214 -50q-183 0 -294 104
q-110 104 -110 298v764h220v-704q0 -268 256 -268q119 0 191 72t72 200v700h222z" />
    <glyph glyph-name="yacute" unicode="&#xfd;" horiz-adv-x="1144" 
d="M631 1324h-177l206 301h227zM268 -416q-79 0 -141 10v171q29 -6 107 -6q157 0 199 174l17 55l-417 1159h244l287 -941h10l290 941h235q-398 -1136 -400 -1141l-29 -79q-55 -150 -142 -246q-88 -97 -260 -97z" />
    <glyph glyph-name="thorn" unicode="&#xfe;" horiz-adv-x="1265" 
d="M664 169q172 0 239 152q35 79 36 195v115q0 171 -74 261t-204 90t-205 -87t-75 -237v-188q0 -186 134 -263q66 -38 149 -38zM718 -17q-129 0 -210 52t-117 136h-10v-564h-221l-2 1958h212l3 -599h10q33 85 121 142t220 58q197 0 319 -134q121 -134 118 -364v-187
q-1 -233 -121 -365t-322 -133z" />
    <glyph glyph-name="ydieresis" unicode="&#xff;" horiz-adv-x="1144" 
d="M660 1376q0 48 30 80t79 32t80 -31t31 -71t-14 -66q-30 -55 -87 -55q-57 -1 -88 31t-31 80zM264 1376q0 48 32 80t80 32q49 0 79 -31t30 -71q0 -74 -53 -106q-26 -15 -66 -15q-40 -1 -70 31q-32 32 -32 80zM268 -416q-79 0 -141 10v171q29 -6 107 -6q157 0 199 174l17 55
l-417 1159h244l287 -941h10l290 941h235q-398 -1136 -400 -1141l-29 -79q-55 -150 -142 -246q-88 -97 -260 -97z" />
    <glyph glyph-name="Amacron" unicode="&#x100;" horiz-adv-x="1325" 
d="M966 1661h-606v119h606v-119zM662 1243h-8l-211 -644h427zM250 0h-227l518 1486h244l518 -1486h-242l-137 427h-535z" />
    <glyph glyph-name="amacron" unicode="&#x101;" horiz-adv-x="1165" 
d="M887 1322h-608v129h608v-129zM544 156q101 0 176 67t75 166v121h-264q-106 0 -159 -46q-54 -46 -54 -130t62 -131t164 -47zM470 -19q-170 0 -272 95t-102 253q0 210 183 294q92 43 221 43h295v127q0 191 -223 191q-204 0 -222 -172h-213q8 152 113 253q107 101 321 101
q445 0 445 -375v-791h-211v150h-8q-44 -75 -126 -122t-201 -47z" />
    <glyph glyph-name="Abreve" unicode="&#x102;" horiz-adv-x="1325" 
d="M312 1913h144q0 -67 56 -112t151 -45t151 46q56 44 56 111h144q0 -123 -88 -207t-262 -84q-176 0 -264 84t-88 207zM662 1243h-8l-211 -644h427zM250 0h-227l518 1486h244l518 -1486h-242l-137 427h-535z" />
    <glyph glyph-name="abreve" unicode="&#x103;" horiz-adv-x="1165" 
d="M254 1573h144q0 -75 46 -125t134 -51q90 0 136 51t46 125h143q-2 -121 -85 -215t-239 -93q-157 -1 -241 93t-84 215zM544 156q101 0 176 67t75 166v121h-264q-106 0 -159 -46q-54 -46 -54 -130t62 -131t164 -47zM470 -19q-170 0 -272 95t-102 253q0 210 183 294
q92 43 221 43h295v127q0 191 -223 191q-204 0 -222 -172h-213q8 152 113 253q107 101 321 101q445 0 445 -375v-791h-211v150h-8q-44 -75 -126 -122t-201 -47z" />
    <glyph glyph-name="Aogonek" unicode="&#x104;" horiz-adv-x="1325" 
d="M664 1243h-10l-211 -644h427zM1072 40h-23l-125 387h-533l-141 -427h-225l516 1486h244l510 -1463q-71 -21 -131 -68t-64 -107q-6 -119 126 -121q48 0 87 9v-136q-46 -20 -127 -20t-137 20t-95 71q-39 50 -38 121q0 142 156 243v5z" />
    <glyph glyph-name="aogonek" unicode="&#x105;" horiz-adv-x="1165" 
d="M645 -220q0 94 43 153q43 58 122 104v113h-9q-100 -169 -326 -169q-169 0 -274 95t-105 251t104 247q104 92 300 92h295v127q0 191 -223 191q-204 0 -222 -172h-213q6 106 52 183t147 124t247 47q204 0 318 -92t115 -283v-776q-80 -23 -138 -70t-58 -105q0 -106 123 -106
q48 0 87 8v-140q-60 -22 -152 -22t-162 53q-71 53 -71 147zM544 156q101 0 176 67t75 166v121h-264q-106 0 -159 -46q-54 -46 -54 -130t62 -131t164 -47z" />
    <glyph glyph-name="Cacute" unicode="&#x106;" horiz-adv-x="1369" 
d="M337 833v-188q0 -241 100 -360t277 -118q106 -1 183 41q152 82 152 258h219v-10q0 -147 -90 -270q-158 -217 -472 -217q-277 0 -435 175t-159 501v190q0 325 160 503t436 179q131 1 240 -43q201 -80 282 -278q37 -91 38 -189v-10h-219q0 129 -92 226t-247 97
q-232 0 -325 -216q-48 -111 -48 -271zM577 1644l278 225h238l-323 -225h-193z" />
    <glyph glyph-name="cacute" unicode="&#x107;" horiz-adv-x="1132" 
d="M624 1324h-179l209 301h226zM104 514v125q0 323 223 459q112 70 264 70q206 0 327 -110t123 -261h-211q-14 104 -112 157q-54 30 -123 30q-133 0 -203 -98t-69 -253v-119q1 -152 73 -248t188 -96q214 1 253 165h210q-4 -148 -129 -251t-327 -103q-154 0 -265 68
q-222 136 -222 465z" />
    <glyph glyph-name="Ccircumflex" unicode="&#x108;" horiz-adv-x="1369" 
d="M341 1640l302 260h129l300 -260h-192l-168 154h-11l-168 -154h-192zM337 833v-188q0 -241 100 -360t277 -118q106 -1 183 41q152 82 152 258h219v-10q0 -147 -90 -270q-158 -217 -472 -217q-277 0 -435 175t-159 501v190q0 325 160 503t436 179q131 1 240 -43
q201 -80 282 -278q37 -91 38 -189v-10h-219q0 129 -92 226t-247 97q-232 0 -325 -216q-48 -111 -48 -271z" />
    <glyph glyph-name="ccircumflex" unicode="&#x109;" horiz-adv-x="1132" 
d="M104 514v125q0 323 223 459q112 70 264 70q206 0 327 -110t123 -261h-211q-14 104 -112 157q-54 30 -123 30q-133 0 -203 -98t-69 -253v-119q1 -152 73 -248t188 -96q214 1 253 165h210q-4 -148 -129 -251t-327 -103q-154 0 -265 68q-222 136 -222 465zM260 1326l231 322
h146l223 -324h-177l-119 202h-4l-125 -200h-175z" />
    <glyph glyph-name="Cdotaccent" unicode="&#x10a;" horiz-adv-x="1369" 
d="M587 1747q0 51 34 85q33 34 71 35q62 0 97 -33t35 -85q0 -53 -34 -85t-84 -32t-85 32q-34 32 -34 83zM337 833v-188q0 -241 100 -360t277 -118q106 -1 183 41q152 82 152 258h219v-10q0 -147 -90 -270q-158 -217 -472 -217q-277 0 -435 175t-159 501v190q0 325 160 503
t436 179q131 1 240 -43q201 -80 282 -278q37 -91 38 -189v-10h-219q0 129 -92 226t-247 97q-232 0 -325 -216q-48 -111 -48 -271z" />
    <glyph glyph-name="cdotaccent" unicode="&#x10b;" horiz-adv-x="1132" 
d="M450 1409q0 50 33 84q54 56 131 26q42 -15 63 -63q31 -77 -25 -130q-34 -34 -85 -34t-84 34t-33 83zM104 514v125q0 323 223 459q112 70 264 70q206 0 327 -110t123 -261h-211q-14 104 -112 157q-54 30 -123 30q-133 0 -203 -98t-69 -253v-119q1 -152 73 -248t188 -96
q214 1 253 165h210q-4 -148 -129 -251t-327 -103q-154 0 -265 68q-222 136 -222 465z" />
    <glyph glyph-name="Ccaron" unicode="&#x10c;" horiz-adv-x="1369" 
d="M339 1881h194l168 -137h9l168 137h192l-300 -239h-129zM337 833v-188q0 -241 100 -360t277 -118q106 -1 183 41q152 82 152 258h219v-10q0 -147 -90 -270q-158 -217 -472 -217q-277 0 -435 175t-159 501v190q0 325 160 503t436 179q131 1 240 -43q201 -80 282 -278
q37 -91 38 -189v-10h-219q0 129 -92 226t-247 97q-232 0 -325 -216q-48 -111 -48 -271z" />
    <glyph glyph-name="ccaron" unicode="&#x10d;" horiz-adv-x="1132" 
d="M104 514v125q0 323 223 459q112 70 264 70q206 0 327 -110t123 -261h-211q-14 104 -112 157q-54 30 -123 30q-133 0 -203 -98t-69 -253v-119q1 -152 73 -248t188 -96q214 1 253 165h210q-4 -148 -129 -251t-327 -103q-154 0 -265 68q-222 136 -222 465zM266 1630h173
l127 -202h4l119 204h175l-223 -327h-144z" />
    <glyph glyph-name="Dcaron" unicode="&#x10e;" horiz-adv-x="1417" 
d="M395 1295v-1101h254q225 0 335 135t111 412q0 554 -446 554h-254zM173 1486h497q352 0 504 -202t153 -539q1 -336 -151 -540q-152 -205 -506 -205h-497v1486zM287 1881h194l168 -137h9l166 137h194l-300 -239h-129z" />
    <glyph glyph-name="dcaron" unicode="&#x10f;" horiz-adv-x="1475" 
d="M604 980q-180 0 -247 -175q-30 -81 -30 -189v-81q0 -171 72 -270t207 -99t209 96t74 271v89q0 166 -76 262t-209 96zM549 1166q129 0 215 -50t118 -129h7v578h218v-1565h-212v175h-6q-23 -79 -115 -135t-230 -56t-238 65q-202 133 -202 457v137q0 237 116 380t329 143z
M1315 1563h192l-50 -531h-142v531z" />
    <glyph glyph-name="Dcroat" unicode="&#x110;" horiz-adv-x="1504" 
d="M483 196h254q227 0 336 135t109 412q0 554 -445 554h-254v-442h314v-193h-314v-466zM260 0v662h-177v193h177v631h498q351 0 504 -204t153 -538q0 -335 -150 -539q-150 -205 -507 -205h-498z" />
    <glyph glyph-name="dcroat" unicode="&#x111;" horiz-adv-x="1269" 
d="M106 468v211q0 223 120 355t321 132q89 0 159 -28q132 -52 172 -160h11v290h-273v151h277v190h212v-190h144v-151h-140v-1268h-212v183h-10q-25 -81 -116 -140t-228 -60q-201 0 -319 131t-118 354zM601 980q-172 0 -241 -156q-33 -77 -33 -183v-133q0 -162 75 -252
t204 -89q129 0 206 87t77 237v185q0 135 -80 220q-81 84 -208 84z" />
    <glyph glyph-name="Emacron" unicode="&#x112;" horiz-adv-x="1205" 
d="M926 1661h-608v119h608v-119zM1084 194v-194h-911v1486h911v-194h-689v-443h650v-185h-650v-470h689z" />
    <glyph glyph-name="emacron" unicode="&#x113;" horiz-adv-x="1169" 
d="M889 1322h-608v129h608v-129zM323 683h532v4q0 135 -71 218q-72 83 -195 83t-195 -84t-71 -217v-4zM604 -19q-241 0 -371 146q-129 146 -129 393v100q0 248 127 398t359 150t357 -149t125 -397v-100h-749v-33q1 -137 71 -232t192 -95t180 46t73 115h218
q-16 -121 -117 -226q-50 -53 -138 -85t-198 -31z" />
    <glyph glyph-name="Ebreve" unicode="&#x114;" horiz-adv-x="1205" 
d="M271 1913h143q0 -67 57 -112t151 -45t150 46q56 44 56 111h144q0 -123 -87 -207t-263 -84t-263 84q-88 84 -88 207zM1084 194v-194h-911v1486h911v-194h-689v-443h650v-185h-650v-470h689z" />
    <glyph glyph-name="ebreve" unicode="&#x115;" horiz-adv-x="1169" 
d="M256 1573h144q0 -75 46 -125t121 -51q137 0 177 90q18 39 18 86h143q-4 -121 -84 -215q-79 -93 -237 -93q-160 -1 -244 93t-84 215zM323 683h532v4q0 135 -71 218q-72 83 -195 83t-195 -84t-71 -217v-4zM604 -19q-241 0 -371 146q-129 146 -129 393v100q0 248 127 398
t359 150t357 -149t125 -397v-100h-749v-33q1 -137 71 -232t192 -95t180 46t73 115h218q-16 -121 -117 -226q-50 -53 -138 -85t-198 -31z" />
    <glyph glyph-name="Edotaccent" unicode="&#x116;" horiz-adv-x="1205" 
d="M1084 194v-194h-911v1486h911v-194h-689v-443h650v-185h-650v-470h689zM506 1748q0 87 85 115q15 4 35 4q48 0 83 -34q34 -33 34 -85t-34 -84q-33 -32 -85 -32t-85 32t-33 84z" />
    <glyph glyph-name="edotaccent" unicode="&#x117;" horiz-adv-x="1169" 
d="M323 683h532v4q0 135 -71 218q-72 83 -195 83t-195 -84t-71 -217v-4zM604 -19q-241 0 -371 146q-129 146 -129 393v100q0 248 127 398t359 150t357 -149t125 -397v-100h-749v-33q1 -137 71 -232t192 -95t180 46t73 115h218q-16 -121 -117 -226q-50 -53 -138 -85t-198 -31
zM468 1409q0 50 34 84q34 35 85 35q50 0 84 -34q35 -34 35 -84q0 -51 -34 -84q-34 -34 -85 -34t-85 34t-34 83z" />
    <glyph glyph-name="Eogonek" unicode="&#x118;" horiz-adv-x="1205" 
d="M701 -198q0 116 127 194v4h-655v1486h911v-194h-691v-443h652v-185h-650v-470h689v-165q-67 -14 -138 -64q-72 -50 -72 -129q0 -52 34 -80t90 -29q56 0 88 9v-136q-62 -20 -152 -20t-162 53q-71 53 -71 169z" />
    <glyph glyph-name="eogonek" unicode="&#x119;" horiz-adv-x="1169" 
d="M323 683h532v4q0 135 -71 218q-72 83 -195 83t-195 -84t-71 -217v-4zM589 -17q-233 0 -359 145t-126 392v100q0 248 127 398t359 150t357 -149t125 -397v-100h-749v-33q1 -139 71 -233t210 -94q104 0 162 46t73 115h218q-21 -139 -148 -260t-126 -215q0 -54 37 -84
q36 -30 86 -30t87 10v-144q-54 -20 -120 -20q-184 1 -243 119q-20 41 -20 91t19 94t34 61q16 18 47 47l-7 12q-40 -21 -114 -21z" />
    <glyph glyph-name="Ecaron" unicode="&#x11a;" horiz-adv-x="1205" 
d="M1084 194v-194h-911v1486h911v-194h-689v-443h650v-185h-650v-470h689zM258 1881h194l168 -137h9l166 137h194l-300 -239h-129z" />
    <glyph glyph-name="ecaron" unicode="&#x11b;" horiz-adv-x="1169" 
d="M323 683h532v4q0 135 -71 218q-72 83 -195 83t-195 -84t-71 -217v-4zM604 -19q-241 0 -371 146q-129 146 -129 393v100q0 248 127 398t359 150t357 -149t125 -397v-100h-749v-33q1 -137 71 -232t192 -95t180 46t73 115h218q-16 -121 -117 -226q-50 -53 -138 -85t-198 -31
zM285 1630h173l127 -202h6l117 204h177l-223 -327h-146z" />
    <glyph glyph-name="Gcircumflex" unicode="&#x11c;" horiz-adv-x="1396" 
d="M337 845v-198q0 -227 96 -354q97 -127 267 -127t269 87q99 86 99 219v127h-358v186h574v-304q0 -143 -78 -271q-150 -241 -492 -241q-296 0 -449 182t-153 496v200q0 206 75 358t213 232t294 80q409 0 543 -306q39 -87 45 -185h-223q-10 98 -60 166q-93 126 -272 127
q-180 1 -285 -117t-105 -357zM354 1640l302 260h129l297 -260h-191l-169 154h-8l-169 -154h-191z" />
    <glyph glyph-name="gcircumflex" unicode="&#x11d;" horiz-adv-x="1234" 
d="M601 982q-87 0 -153 -42q-132 -86 -134 -309v-102q0 -157 80 -247t208 -90t200 92q72 93 72 234v115q0 153 -74 251t-199 98zM601 -250q127 0 201 71t74 204v166h-8q-49 -108 -182 -155q-68 -24 -147 -24q-195 0 -321 136t-126 366v144q0 152 58 268t160 177
q102 62 233 63q244 0 331 -179h6v160h215v-1124q0 -229 -142 -340q-141 -111 -369 -111t-345 97q-117 98 -122 242h220q10 -69 73 -115t191 -46zM312 1326l231 322h146l221 -324h-175l-119 202h-4l-127 -200h-173z" />
    <glyph glyph-name="Gbreve" unicode="&#x11e;" horiz-adv-x="1396" 
d="M364 1913h144q0 -91 98 -136q48 -21 126 -21t134 46q56 44 56 111h144q0 -123 -88 -207t-262 -84q-176 0 -264 84t-88 207zM337 845v-198q0 -227 96 -354q97 -127 267 -127t269 87q99 86 99 219v127h-358v186h574v-304q0 -143 -78 -271q-150 -241 -492 -241
q-296 0 -449 182t-153 496v200q0 206 75 358t213 232t294 80q409 0 543 -306q39 -87 45 -185h-223q-10 98 -60 166q-93 126 -272 127q-180 1 -285 -117t-105 -357z" />
    <glyph glyph-name="gbreve" unicode="&#x11f;" horiz-adv-x="1234" 
d="M601 982q-87 0 -153 -42q-132 -86 -134 -309v-102q0 -157 80 -247t208 -90t200 92q72 93 72 234v115q0 153 -74 251t-199 98zM601 -250q127 0 201 71t74 204v166h-8q-49 -108 -182 -155q-68 -24 -147 -24q-195 0 -321 136t-126 366v144q0 152 58 268t160 177
q102 62 233 63q244 0 331 -179h6v160h215v-1124q0 -229 -142 -340q-141 -111 -369 -111t-345 97q-117 98 -122 242h220q10 -69 73 -115t191 -46zM433 1573q0 -75 46 -125q45 -50 119 -51q136 0 177 90q18 39 18 86h144q0 -112 -79 -210t-240 -98q-162 -1 -246 93t-83 215
h144z" />
    <glyph glyph-name="Gdotaccent" unicode="&#x120;" horiz-adv-x="1396" 
d="M337 845v-198q0 -227 96 -354q97 -127 267 -127t269 87q99 86 99 219v127h-358v186h574v-304q0 -143 -78 -271q-150 -241 -492 -241q-296 0 -449 182t-153 496v200q0 206 75 358t213 232t294 80q409 0 543 -306q39 -87 45 -185h-223q-10 98 -60 166q-93 126 -272 127
q-180 1 -285 -117t-105 -357zM717 1632q-51 0 -85 32t-33 83t35 85t70 35q130 -1 132 -133q0 -38 -34 -70t-85 -32z" />
    <glyph glyph-name="gdotaccent" unicode="&#x121;" horiz-adv-x="1234" 
d="M601 982q-87 0 -153 -42q-132 -86 -134 -309v-102q0 -157 80 -247t208 -90t200 92q72 93 72 234v115q0 153 -74 251t-199 98zM601 -250q127 0 201 71t74 204v166h-8q-49 -108 -182 -155q-68 -24 -147 -24q-195 0 -321 136t-126 366v144q0 152 58 268t160 177
q102 62 233 63q244 0 331 -179h6v160h215v-1124q0 -229 -142 -340q-141 -111 -369 -111t-345 97q-117 98 -122 242h220q10 -69 73 -115t191 -46zM502 1409q0 50 33 84q33 35 83 35t85 -34t35 -84q0 -51 -34 -84q-36 -34 -86 -34t-83 34t-33 83z" />
    <glyph glyph-name="Gcommaaccent" unicode="&#x122;" horiz-adv-x="1396" 
d="M337 845v-198q0 -227 96 -354q97 -127 267 -127t269 87q99 86 99 219v127h-358v186h574v-304q0 -143 -78 -271q-150 -241 -492 -241q-296 0 -449 182t-153 496v200q0 206 75 358t213 232t294 80q409 0 543 -306q39 -87 45 -185h-223q-10 98 -60 166q-93 126 -272 127
q-180 1 -285 -117t-105 -357zM699 -533h-162l94 364h193z" />
    <glyph glyph-name="gcommaaccent" unicode="&#x123;" horiz-adv-x="1234" 
d="M601 982q-87 0 -153 -42q-132 -86 -134 -309v-102q0 -157 80 -247t208 -90t200 92q72 93 72 234v115q0 153 -74 251t-199 98zM601 -250q127 0 201 71t74 204v166h-8q-49 -108 -182 -155q-68 -24 -147 -24q-195 0 -321 136t-126 366v144q0 152 58 268t160 177
q102 62 233 63q244 0 331 -179h6v160h215v-1124q0 -229 -142 -340q-141 -111 -369 -111t-345 97q-117 98 -122 242h220q10 -69 73 -115t191 -46zM597 1730h163l-92 -365h-193z" />
    <glyph glyph-name="Hcircumflex" unicode="&#x124;" horiz-adv-x="1498" 
d="M387 1640l302 260h129l300 -260h-192l-168 154h-11l-168 -154h-192zM1328 0h-225v670h-708v-670h-222v1486h222v-622h708v622h225v-1486z" />
    <glyph glyph-name="hcircumflex" unicode="&#x125;" horiz-adv-x="1280" 
d="M-35 1742l231 325h145l221 -327h-175l-119 204h-4l-127 -202h-172zM162 0v1565h221v-572h8q24 59 103 116q78 57 209 57t227 -56t147 -158q51 -101 51 -232v-720h-218v672q0 140 -68 220t-193 80t-195 -78t-71 -222v-672h-221z" />
    <glyph glyph-name="Hbar" unicode="&#x126;" horiz-adv-x="1498" 
d="M395 643v-643h-222v1089h-115v156h115v241h222v-241h708v241h225v-241h114v-156h-114v-1089h-225v643h-708zM395 837h708v252h-708v-252z" />
    <glyph glyph-name="hbar" unicode="&#x127;" horiz-adv-x="1280" 
d="M383 641v-641h-221v1268h-129v151h134v146h212v-146h285v-151h-281v-327h10q17 58 57 102q38 43 76 67q88 56 219 56q173 0 278 -100t105 -290v-776h-218v714q0 131 -66 199q-66 67 -166 67t-167 -44q-128 -86 -128 -295z" />
    <glyph glyph-name="Itilde" unicode="&#x128;" horiz-adv-x="566" 
d="M173 1727q-67 0 -71 -97h-127q0 88 48 152t132 64t150 -64t98 -63q32 0 50 33t19 75h127q0 -85 -52 -151t-135 -65q-56 -1 -90 15t-66 47q-5 10 -12 15q-7 6 -15 14q-27 25 -56 25zM395 0h-222v1486h222v-1486z" />
    <glyph glyph-name="itilde" unicode="&#x129;" horiz-adv-x="586" 
d="M171 1390q-67 0 -75 -110h-136q0 106 51 179t141 73t171 -79q6 -4 27 -28t35 -27t27 -4q65 0 75 119h135q0 -98 -56 -175t-151 -77t-163 80q-6 7 -7 9q-1 1 -9 7q-8 7 -14 13q-22 20 -51 20zM185 0v1147h223v-1147h-223z" />
    <glyph glyph-name="Imacron" unicode="&#x12a;" horiz-adv-x="566" 
d="M587 1661h-608v119h608v-119zM395 0h-222v1486h222v-1486z" />
    <glyph glyph-name="imacron" unicode="&#x12b;" horiz-adv-x="586" 
d="M599 1322h-607v129h607v-129zM185 0v1147h223v-1147h-223z" />
    <glyph glyph-name="Ibreve" unicode="&#x12c;" horiz-adv-x="566" 
d="M-67 1913h144q0 -67 56 -112t150 -45t150 46q56 44 56 111h144q1 -123 -87 -207t-263 -84t-263 84t-87 207zM395 0h-222v1486h222v-1486z" />
    <glyph glyph-name="ibreve" unicode="&#x12d;" horiz-adv-x="586" 
d="M-33 1573h143q0 -75 46 -125t135 -51q89 0 136 51q46 51 45 125h144q-4 -115 -82 -211q-78 -97 -238 -97q-161 -1 -245 93t-84 215zM185 0v1147h223v-1147h-223z" />
    <glyph glyph-name="Iogonek" unicode="&#x12e;" horiz-adv-x="566" 
d="M187 31h-14v1455h222v-1469q-185 -62 -185 -184q0 -52 34 -79t89 -27q54 0 90 9v-134q-45 -22 -129 -22q-165 1 -227 96q-31 49 -32 118q0 154 152 235v2z" />
    <glyph glyph-name="iogonek" unicode="&#x12f;" horiz-adv-x="586" 
d="M294 1357q-66 -1 -108 39t-42 101t42 102t108 41t109 -41t43 -102t-44 -101q-42 -40 -108 -39zM29 -206q0 154 156 237v1116h219v-1126q-78 -25 -136 -71t-58 -106t36 -88t89 -29q54 0 92 9v-136q-51 -20 -153 -20t-174 55t-71 159z" />
    <glyph glyph-name="Idotaccent" unicode="&#x130;" horiz-adv-x="566" 
d="M169 1738q0 81 56 113q27 16 69 16t76 -34q36 -33 36 -85t-36 -84t-85 -32q-50 0 -83 32t-33 74zM395 0h-222v1486h222v-1486z" />
    <glyph glyph-name="dotlessi" unicode="&#x131;" horiz-adv-x="586" 
d="M185 0v1147h223v-1147h-223z" />
    <glyph glyph-name="Jcircumflex" unicode="&#x134;" horiz-adv-x="1084" 
d="M445 1640l302 260h129l298 -260h-192l-168 154h-9l-168 -154h-192zM27 368h219q0 -88 62 -142q62 -53 162 -53t163 62q62 62 62 196v1055h227v-1041q0 -235 -125 -356t-330 -121t-323 113q-118 112 -117 287z" />
    <glyph glyph-name="jcircumflex" unicode="&#x135;" horiz-adv-x="586" 
d="M-2 1311l231 325h146l222 -327h-177l-118 204h-4l-125 -202h-175zM404 1147v-1176q0 -377 -333 -377q-73 0 -111 11v168q27 -6 69 -6q83 0 120 49q36 49 36 157v1174h219z" />
    <glyph glyph-name="Kcommaaccent" unicode="&#x136;" horiz-adv-x="1315" 
d="M643 -533h-162l91 364h194zM395 0h-222v1486h222v-701h11l618 701h258l-547 -635l574 -851h-279l-460 697l-175 -189v-508z" />
    <glyph glyph-name="kcommaaccent" unicode="&#x137;" horiz-adv-x="1132" 
d="M574 -533h-162l94 364h193zM381 0h-221v1565h221v-924h10l442 506h251l-441 -498l470 -649h-260l-372 518l-100 -102v-416z" />
    <glyph glyph-name="Lacute" unicode="&#x139;" horiz-adv-x="1086" 
d="M1064 198v-198h-891v1486h222v-1288h669zM156 1644l277 225h239l-322 -225h-194z" />
    <glyph glyph-name="lacute" unicode="&#x13a;" horiz-adv-x="551" 
d="M167 0v1565h218v-1565h-218zM335 1740h-179l208 304h227z" />
    <glyph glyph-name="Lcommaaccent" unicode="&#x13b;" horiz-adv-x="1086" 
d="M1064 198v-198h-891v1486h222v-1288h669zM537 -533h-162l91 364h196z" />
    <glyph glyph-name="lcommaaccent" unicode="&#x13c;" horiz-adv-x="551" 
d="M167 0v1565h218v-1565h-218zM260 -533h-162l93 364h194z" />
    <glyph glyph-name="Lcaron" unicode="&#x13d;" horiz-adv-x="1086" 
d="M1064 198v-198h-891v1486h222v-1288h669zM641 1565h198l-54 -533h-144v533z" />
    <glyph glyph-name="lcaron" unicode="&#x13e;" horiz-adv-x="728" 
d="M167 0v1565h218v-1565h-218zM572 1563h192l-50 -531h-142v531z" />
    <glyph glyph-name="Lslash" unicode="&#x141;" horiz-adv-x="1103" 
d="M1080 0h-893v579l-137 -82v206l137 82v701h225v-574l391 229v-211l-391 -227v-505h668v-198z" />
    <glyph glyph-name="lslash" unicode="&#x142;" horiz-adv-x="630" 
d="M427 0h-221v654l-162 -109v200l162 112v708h221v-566l164 112v-208l-164 -110v-793z" />
    <glyph glyph-name="Nacute" unicode="&#x143;" horiz-adv-x="1488" 
d="M389 0h-216v1486h202l718 -1103h6v1103h218v-1486h-204l-718 1105h-6v-1105zM618 1644l277 225h239l-322 -225h-194z" />
    <glyph glyph-name="nacute" unicode="&#x144;" horiz-adv-x="1273" 
d="M158 0v1147h217v-154h8q33 71 121 122t210 51q176 0 292 -106t116 -298v-762h-221v687q0 285 -258 285q-169 0 -233 -132q-31 -66 -31 -161v-679h-221zM695 1324h-177l206 301h227z" />
    <glyph glyph-name="Ncommaaccent" unicode="&#x145;" horiz-adv-x="1488" 
d="M389 0h-216v1486h202l718 -1103h6v1103h218v-1486h-204l-718 1105h-6v-1105zM728 -533h-162l92 364h195z" />
    <glyph glyph-name="ncommaaccent" unicode="&#x146;" horiz-adv-x="1273" 
d="M158 0v1147h217v-154h8q33 71 121 122t210 51q176 0 292 -106t116 -298v-762h-221v687q0 285 -258 285q-169 0 -233 -132q-31 -66 -31 -161v-679h-221zM622 -533h-162l92 364h193z" />
    <glyph glyph-name="Ncaron" unicode="&#x147;" horiz-adv-x="1488" 
d="M389 0h-216v1486h202l718 -1103h6v1103h218v-1486h-204l-718 1105h-6v-1105zM381 1881h191l169 -137h8l169 137h193l-299 -239h-131z" />
    <glyph glyph-name="ncaron" unicode="&#x148;" horiz-adv-x="1273" 
d="M158 0v1147h217v-154h8q33 71 121 122t210 51q176 0 292 -106t116 -298v-762h-221v687q0 285 -258 285q-169 0 -233 -132q-31 -66 -31 -161v-679h-221zM337 1630h173l129 -202h4l117 204h177l-223 -327h-146z" />
    <glyph glyph-name="Omacron" unicode="&#x14c;" horiz-adv-x="1440" 
d="M1024 1661h-608v119h608v-119zM112 631v210q0 314 164 495t446 181q184 0 322 -81t212 -234t74 -361v-210q0 -312 -164 -487t-446 -175t-446 175q-162 175 -162 487zM337 843v-212q0 -229 105 -347t277 -118t278 118t106 347v212q0 229 -106 354t-277 125
q-232 0 -332 -216q-51 -109 -51 -263z" />
    <glyph glyph-name="omacron" unicode="&#x14d;" horiz-adv-x="1213" 
d="M600 987q-70 1 -128 -31t-89 -86q-62 -108 -60 -264v-63q0 -287 171 -360q49 -21 114 -21q281 0 281 381v63q0 130 -38 220q-67 161 -251 161zM609 1168q247 0 375 -149t127 -399v-89q0 -254 -128 -402q-129 -148 -377 -148t-375 147t-127 403v87q0 246 129 398t376 152z
M910 1322h-608v129h608v-129z" />
    <glyph glyph-name="Obreve" unicode="&#x14e;" horiz-adv-x="1440" 
d="M368 1913h144q0 -67 57 -112t151 -45t150 46q56 44 56 111h144q0 -123 -88 -207t-262 -84q-176 0 -264 84t-88 207zM112 631v210q0 314 164 495t446 181q184 0 322 -81t212 -234t74 -361v-210q0 -312 -164 -487t-446 -175t-446 175q-162 175 -162 487zM337 843v-212
q0 -229 105 -347t277 -118t278 118t106 347v212q0 229 -106 354t-277 125q-232 0 -332 -216q-51 -109 -51 -263z" />
    <glyph glyph-name="obreve" unicode="&#x14f;" horiz-adv-x="1213" 
d="M600 987q-70 1 -128 -31t-89 -86q-62 -108 -60 -264v-63q0 -287 171 -360q49 -21 114 -21q281 0 281 381v63q0 130 -38 220q-67 161 -251 161zM609 1168q247 0 375 -149t127 -399v-89q0 -254 -128 -402q-129 -148 -377 -148t-375 147t-127 403v87q0 246 129 398t376 152z
M423 1573q0 -105 78 -150q43 -26 117 -26t121 51q46 51 46 125h141q0 -121 -83 -215t-240 -93q-157 -1 -241 93t-83 215h144z" />
    <glyph glyph-name="Ohungarumlaut" unicode="&#x150;" horiz-adv-x="1440" 
d="M112 631v210q0 314 164 495t446 181q184 0 322 -81t212 -234t74 -361v-210q0 -312 -164 -487t-446 -175t-446 175q-162 175 -162 487zM337 843v-212q0 -229 105 -347t277 -118t278 118t106 347v212q0 229 -106 354t-277 125q-232 0 -332 -216q-51 -109 -51 -263z
M789 1644l295 237h204l-318 -237h-181zM435 1644l293 237h207l-319 -237h-181z" />
    <glyph glyph-name="ohungarumlaut" unicode="&#x151;" horiz-adv-x="1213" 
d="M600 987q-70 1 -128 -31t-89 -86q-62 -108 -60 -264v-63q0 -287 171 -360q49 -21 114 -21q281 0 281 381v63q0 130 -38 220q-67 161 -251 161zM609 1168q247 0 375 -149t127 -399v-89q0 -254 -128 -402q-129 -148 -377 -148t-375 147t-127 403v87q0 246 129 398t376 152z
M805 1322h-141l235 343h183zM487 1322h-139l233 343h183z" />
    <glyph glyph-name="OE" unicode="&#x152;" horiz-adv-x="2131" 
d="M701 -31q-273 0 -431 176t-158 488v208q0 316 162 496t432 180q129 0 236 -47t163 -136h17v152h889v-194h-681v-443h641v-185h-641v-470h681v-194h-889v156h-15q-59 -87 -167 -137t-239 -50zM341 843v-212q0 -229 105 -348t278 -119t280 114t107 340v244q0 228 -107 344
t-280 116q-230 0 -332 -216q-51 -109 -51 -263z" />
    <glyph glyph-name="oe" unicode="&#x153;" horiz-adv-x="1960" 
d="M1111 670h533v17q0 137 -73 219t-193 82t-194 -82q-73 -82 -73 -219v-17zM608 987q-131 0 -208 -96t-77 -250v-133q0 -156 75 -251t210 -95t208 95t73 251v133q0 154 -75 250t-206 96zM608 -19q-228 -1 -366 135t-138 379v159q0 233 140 373t364 141q125 0 226 -48
t159 -140h14q54 84 153 136t218 52q214 0 348 -140t135 -372v-136h-750v-56q0 -133 74 -217q75 -85 187 -85t176 39t80 95h220q-12 -108 -122 -205q-118 -110 -344 -110q-116 0 -220 50q-103 50 -155 136h-14q-76 -115 -230 -163q-74 -23 -155 -23z" />
    <glyph glyph-name="Racute" unicode="&#x154;" horiz-adv-x="1336" 
d="M393 764h298q144 0 220 68t76 196q-1 129 -79 200t-211 71h-304v-535zM726 1486q242 0 368 -128t126 -310t-82 -284q-82 -104 -193 -144l302 -620h-254l-271 579h-329v-579h-220v1486h553zM506 1644l279 225h237l-323 -225h-193z" />
    <glyph glyph-name="racute" unicode="&#x155;" horiz-adv-x="786" 
d="M175 0v1147h218v-142h9q73 161 279 161q40 0 77 -7v-197q-31 8 -100 8q-260 0 -260 -273v-697h-223zM516 1324h-177l206 301h227z" />
    <glyph glyph-name="Rcommaaccent" unicode="&#x156;" horiz-adv-x="1336" 
d="M618 -533h-162l91 364h194zM393 764h298q144 0 220 68t76 196q-1 129 -79 200t-211 71h-304v-535zM726 1486q242 0 368 -128t126 -310t-82 -284q-82 -104 -193 -144l302 -620h-254l-271 579h-329v-579h-220v1486h553z" />
    <glyph glyph-name="rcommaaccent" unicode="&#x157;" horiz-adv-x="786" 
d="M273 -533h-163l94 364h194zM175 0v1147h218v-142h9q73 161 279 161q40 0 77 -7v-197q-31 8 -100 8q-260 0 -260 -273v-697h-223z" />
    <glyph glyph-name="Rcaron" unicode="&#x158;" horiz-adv-x="1336" 
d="M268 1881h194l169 -137h8l169 137h191l-300 -239h-129zM393 764h298q144 0 220 68t76 196q-1 129 -79 200t-211 71h-304v-535zM726 1486q242 0 368 -128t126 -310t-82 -284q-82 -104 -193 -144l302 -620h-254l-271 579h-329v-579h-220v1486h553z" />
    <glyph glyph-name="rcaron" unicode="&#x159;" horiz-adv-x="786" 
d="M175 0v1147h218v-142h9q73 161 279 161q40 0 77 -7v-197q-31 8 -100 8q-260 0 -260 -273v-697h-223zM158 1630h173l127 -202h4l119 204h177l-225 -327h-144z" />
    <glyph glyph-name="Sacute" unicode="&#x15a;" horiz-adv-x="1275" 
d="M630 160q154 0 238 66q85 66 85 164t-57 152q-57 53 -180 82l-252 65q-156 37 -256 134t-100 261q0 102 43 186q80 157 285 220q95 29 200 29q213 0 363 -108q73 -52 117 -135t45 -185h-216q-11 105 -91 173t-218 68t-220 -61t-83 -170q0 -158 208 -208l248 -63
q187 -46 289 -140t102 -270q0 -212 -157 -332t-409 -119q-146 1 -255 41q-190 71 -262 245q-30 74 -32 153h222q9 -106 99 -177t244 -71zM508 1644l279 225h237l-323 -225h-193z" />
    <glyph glyph-name="sacute" unicode="&#x15b;" horiz-adv-x="1086" 
d="M601 1324h-178l208 301h226zM993 336q0 -164 -126 -260t-333 -95q-207 -1 -328 89t-121 244h215q10 -78 70 -122t174 -44t173 47t59 117t-32 93q-32 24 -50 34t-82 27t-130 29q-66 13 -115 27q-126 35 -194 102q-67 67 -67 189t64 203q117 150 373 152q198 0 308 -97
t111 -251h-200q-21 186 -245 184q-78 0 -138 -46q-60 -45 -61 -121q0 -119 184 -153l75 -14q21 -4 69 -12q135 -24 232 -86q115 -72 115 -236z" />
    <glyph glyph-name="Scircumflex" unicode="&#x15c;" horiz-adv-x="1275" 
d="M273 1640l301 260h129l300 -260h-191l-169 154h-10l-169 -154h-191zM630 160q154 0 238 66q85 66 85 164t-57 152q-57 53 -180 82l-252 65q-156 37 -256 134t-100 261q0 102 43 186q80 157 285 220q95 29 200 29q213 0 363 -108q73 -52 117 -135t45 -185h-216
q-11 105 -91 173t-218 68t-220 -61t-83 -170q0 -158 208 -208l248 -63q187 -46 289 -140t102 -270q0 -212 -157 -332t-409 -119q-146 1 -255 41q-190 71 -262 245q-30 74 -32 153h222q9 -106 99 -177t244 -71z" />
    <glyph glyph-name="scircumflex" unicode="&#x15d;" horiz-adv-x="1086" 
d="M993 336q0 -164 -126 -260t-333 -95q-207 -1 -328 89t-121 244h215q10 -78 70 -122t174 -44t173 47t59 117t-32 93q-32 24 -50 34t-82 27t-130 29q-66 13 -115 27q-126 35 -194 102q-67 67 -67 189t64 203q117 150 373 152q198 0 308 -97t111 -251h-200q-21 186 -245 184
q-78 0 -138 -46q-60 -45 -61 -121q0 -119 184 -153l75 -14q21 -4 69 -12q135 -24 232 -86q115 -72 115 -236zM237 1326l231 322h146l223 -324h-177l-119 202h-4l-125 -200h-175z" />
    <glyph glyph-name="Scedilla" unicode="&#x15e;" horiz-adv-x="1275" 
d="M724 -308q0 48 -35 59t-112 12h-59v93l48 115q-246 11 -386 154q-108 111 -115 283h222q9 -106 99 -177t244 -71t238 66q85 66 85 164t-57 152q-57 53 -180 82l-252 65q-156 37 -256 134t-100 261q0 102 43 186q80 157 285 220q95 29 200 29q213 0 363 -108
q73 -52 117 -135t45 -185h-216q-11 105 -91 173t-218 68t-220 -61t-83 -170q0 -158 208 -208l248 -63q187 -46 289 -140t102 -278q0 -183 -129 -299t-341 -138l-42 -100q104 0 160 -46t56 -123q1 -202 -249 -216q-96 -2 -160 17v120q50 -15 122 -14q127 0 127 79z" />
    <glyph glyph-name="scedilla" unicode="&#x15f;" horiz-adv-x="1086" 
d="M500 -383q125 0 124 81q0 50 -44 60q-44 11 -112 11h-56v94l46 120q-173 15 -273 103t-100 228h215q10 -78 70 -122t174 -44t173 47t59 117t-32 93q-32 24 -50 34t-82 27t-130 29q-66 13 -115 27q-126 35 -194 102q-67 67 -67 189t64 203q117 150 373 152q198 0 308 -97
t111 -251h-200q-21 186 -245 184q-78 0 -138 -46q-60 -45 -61 -121q0 -119 184 -153l75 -14q21 -4 69 -12q135 -24 232 -86q115 -72 115 -228t-105 -250t-289 -109l-39 -106q104 -1 165 -45t61 -138t-68 -145q-69 -51 -171 -55t-172 17v121q52 -17 125 -17z" />
    <glyph glyph-name="Scaron" unicode="&#x160;" horiz-adv-x="1275" 
d="M271 1881h193l169 -137h8l169 137h191l-300 -239h-129zM630 160q154 0 238 66q85 66 85 164t-57 152q-57 53 -180 82l-252 65q-156 37 -256 134t-100 261q0 102 43 186q80 157 285 220q95 29 200 29q213 0 363 -108q73 -52 117 -135t45 -185h-216q-11 105 -91 173
t-218 68t-220 -61t-83 -170q0 -158 208 -208l248 -63q187 -46 289 -140t102 -270q0 -212 -157 -332t-409 -119q-146 1 -255 41q-190 71 -262 245q-30 74 -32 153h222q9 -106 99 -177t244 -71z" />
    <glyph glyph-name="scaron" unicode="&#x161;" horiz-adv-x="1086" 
d="M993 336q0 -164 -126 -260t-333 -95q-207 -1 -328 89t-121 244h215q10 -78 70 -122t174 -44t173 47t59 117t-32 93q-32 24 -50 34t-82 27t-130 29q-66 13 -115 27q-126 35 -194 102q-67 67 -67 189t64 203q117 150 373 152q198 0 308 -97t111 -251h-200q-21 186 -245 184
q-78 0 -138 -46q-60 -45 -61 -121q0 -119 184 -153l75 -14q21 -4 69 -12q135 -24 232 -86q115 -72 115 -236zM244 1630h172l127 -202h4l119 204h175l-223 -327h-143z" />
    <glyph glyph-name="Tcedilla" unicode="&#x162;" horiz-adv-x="1146" 
d="M549 -406q125 0 125 79q0 42 -28 56q-28 15 -126 15h-58v94l60 162h-60v1290h-443v196h1109v-196h-443v-1290h-21l-54 -144q104 0 165 -46t61 -138q0 -93 -68 -145q-69 -52 -171 -56t-174 17v121q48 -15 126 -15z" />
    <glyph glyph-name="tcedilla" unicode="&#x163;" horiz-adv-x="761" 
d="M387 -385q127 0 127 81q0 66 -95 70q-22 1 -61 1h-58v94l60 162q-79 31 -110 103t-31 197v643h-159v177h161v287h216v-287h225v-177h-225v-633q0 -96 39 -130t140 -34q25 0 52 2v-173q-44 -6 -88 -6t-87 2l-43 -115q104 0 164 -46q60 -45 60 -139t-68 -145t-171 -55
q-102 -4 -171 17v121q50 -17 123 -17z" />
    <glyph glyph-name="Tcaron" unicode="&#x164;" horiz-adv-x="1146" 
d="M685 0h-223v1290h-443v196h1109v-196h-443v-1290zM208 1881h194l168 -137h9l168 137h192l-298 -239h-131z" />
    <glyph glyph-name="tcaron" unicode="&#x165;" horiz-adv-x="784" 
d="M221 1143v287h216v-287h225v-177h-225v-633q0 -96 39 -130t140 -34q25 0 52 2v-173q-44 -6 -106 -6q-200 0 -272 76t-71 255v643h-159v177h161zM641 1848h192l-50 -531h-142v531z" />
    <glyph glyph-name="Tbar" unicode="&#x166;" horiz-adv-x="1146" 
d="M937 687h-252v-687h-223v687h-252v156h252v447h-441v196h1107v-196h-443v-447h252v-156z" />
    <glyph glyph-name="tbar" unicode="&#x167;" horiz-adv-x="743" 
d="M562 -8q-200 0 -272 76t-71 255v249h-152v150h152v244h-159v177h161v287h216v-287h225v-177h-225v-244h221v-150h-221v-239q0 -96 39 -130t140 -34q27 0 52 2v-173q-46 -6 -106 -6z" />
    <glyph glyph-name="Utilde" unicode="&#x168;" horiz-adv-x="1458" 
d="M423 1630q0 89 46 153q47 63 133 63t160 -73q6 -4 32 -29t56 -25t48 33t20 75h127q0 -85 -52 -151q-53 -66 -121 -66t-107 19q-39 18 -59 39q-19 22 -21 25q-6 8 -25 21t-42 13q-65 0 -69 -97h-126zM379 1486v-959q1 -167 95 -264t255 -97t258 97q96 97 95 264v959h223
v-970q0 -246 -158 -396q-159 -150 -417 -151q-258 0 -417 152t-159 399v966h225z" />
    <glyph glyph-name="utilde" unicode="&#x169;" horiz-adv-x="1267" 
d="M508 1390q-67 0 -73 -110h-135q0 106 51 179t148 73t178 -96q32 -34 46 -38q15 -3 26 -4q37 0 55 36t20 83h135q0 -98 -56 -175q-55 -77 -147 -77t-159 73q-14 14 -15 16q-2 2 -8 7l-11 11q-5 4 -11 8t-15 9t-29 5zM1111 1147v-1147h-218v156h-8q-33 -75 -117 -125
t-214 -50q-183 0 -294 104q-110 104 -110 298v764h220v-704q0 -268 256 -268q119 0 191 72t72 200v700h222z" />
    <glyph glyph-name="Umacron" unicode="&#x16a;" horiz-adv-x="1458" 
d="M1032 1661h-605v119h605v-119zM379 1486v-959q1 -167 95 -264t255 -97t258 97q96 97 95 264v959h223v-970q0 -246 -158 -396q-159 -150 -417 -151q-258 0 -417 152t-159 399v966h225z" />
    <glyph glyph-name="umacron" unicode="&#x16b;" horiz-adv-x="1267" 
d="M937 1322h-608v129h608v-129zM1111 1147v-1147h-218v156h-8q-33 -75 -117 -125t-214 -50q-183 0 -294 104q-110 104 -110 298v764h220v-704q0 -268 256 -268q119 0 191 72t72 200v700h222z" />
    <glyph glyph-name="Ubreve" unicode="&#x16c;" horiz-adv-x="1458" 
d="M379 1913h143q0 -67 56 -112t152 -45q94 0 150 46q56 44 57 111h143q0 -123 -87 -207t-263 -84t-264 84q-87 84 -87 207zM379 1486v-959q1 -167 95 -264t255 -97t258 97q96 97 95 264v959h223v-970q0 -246 -158 -396q-159 -150 -417 -151q-258 0 -417 152t-159 399v966
h225z" />
    <glyph glyph-name="ubreve" unicode="&#x16d;" horiz-adv-x="1267" 
d="M306 1573h144q0 -105 78 -150q43 -26 103 -26t102 26q79 49 79 150h141q0 -121 -83 -215t-240 -93q-156 -1 -240 93t-84 215zM1111 1147v-1147h-218v156h-8q-33 -75 -117 -125t-214 -50q-183 0 -294 104q-110 104 -110 298v764h220v-704q0 -268 256 -268q119 0 191 72
t72 200v700h222z" />
    <glyph glyph-name="Uring" unicode="&#x16e;" horiz-adv-x="1458" 
d="M620 1846q0 -46 31 -78t77 -32t76 32t31 78q-1 46 -31 77t-76 31t-77 -31t-31 -77zM512 1846q0 90 62 150t152 60t154 -60q62 -60 62 -151t-63 -150q-64 -59 -153 -59q-90 0 -152 60t-62 150zM379 1486v-959q1 -167 95 -264t255 -97t258 97q96 97 95 264v959h223v-970
q0 -246 -158 -396q-159 -150 -417 -151q-258 0 -417 152t-159 399v966h225z" />
    <glyph glyph-name="uring" unicode="&#x16f;" horiz-adv-x="1267" 
d="M524 1514q0 -38 14 -63q30 -54 86 -53q55 1 85 32q30 32 30 70t-14 63q-31 53 -101 53q-38 0 -68 -32q-32 -32 -32 -70zM616 1299q-75 0 -137 59q-63 58 -63 148t62 150t154 61q90 0 152 -60t63 -134q0 -74 -28 -122t-78 -75t-125 -27zM1111 1147v-1147h-218v156h-8
q-33 -75 -117 -125t-214 -50q-183 0 -294 104q-110 104 -110 298v764h220v-704q0 -268 256 -268q119 0 191 72t72 200v700h222z" />
    <glyph glyph-name="Uhungarumlaut" unicode="&#x170;" horiz-adv-x="1458" 
d="M797 1644l298 237h204l-319 -237h-183zM443 1644l296 237h206l-319 -237h-183zM379 1486v-959q1 -167 95 -264t255 -97t258 97q96 97 95 264v959h223v-970q0 -246 -158 -396q-159 -150 -417 -151q-258 0 -417 152t-159 399v966h225z" />
    <glyph glyph-name="uhungarumlaut" unicode="&#x171;" horiz-adv-x="1267" 
d="M1111 1147v-1147h-218v156h-8q-33 -75 -117 -125t-214 -50q-183 0 -294 104q-110 104 -110 298v764h220v-704q0 -268 256 -268q119 0 191 72t72 200v700h222zM833 1322h-142l235 343h183zM514 1322h-139l233 343h183z" />
    <glyph glyph-name="Uogonek" unicode="&#x172;" horiz-adv-x="1458" 
d="M1034 -420q-86 0 -159 55q-72 55 -72 171t104 200l-4 9q-87 -46 -187 -46q-246 0 -404 153t-158 398v966h225v-959q1 -167 95 -264t255 -97t258 97q96 97 95 264v959h223v-970q0 -252 -164 -427q-15 -17 -57 -59t-58 -62q-50 -58 -50 -120q0 -116 127 -116q40 0 83 12
v-144q-66 -20 -152 -20z" />
    <glyph glyph-name="uogonek" unicode="&#x173;" horiz-adv-x="1267" 
d="M910 -169q0 -49 34 -73t86 -24t92 8v-140q-54 -22 -150 -22t-167 53t-71 153t50 153q49 52 113 101v151h-12q-27 -83 -115 -146t-248 -63t-266 91q-106 92 -106 283v791h220v-735q0 -131 66 -187t180 -56t193 76q80 76 80 186v716h222v-1139q-201 -68 -201 -177z" />
    <glyph glyph-name="Wcircumflex" unicode="&#x174;" horiz-adv-x="1848" 
d="M620 0h-204l-404 1486h254l258 -1128h9l283 1128h216l283 -1128h9l260 1128h252l-404 -1486h-204l-300 1122h-8zM562 1640l302 260h129l297 -260h-191l-169 154h-8l-169 -154h-191z" />
    <glyph glyph-name="wcircumflex" unicode="&#x175;" horiz-adv-x="1623" 
d="M1594 1147l-304 -1147h-220l-250 862h-4l-244 -862h-224l-317 1147h240l193 -887h11l239 887h208l248 -887h8l198 887h218zM508 1326l231 322h146l220 -324h-175l-118 202h-4l-127 -200h-173z" />
    <glyph glyph-name="Ycircumflex" unicode="&#x176;" horiz-adv-x="1205" 
d="M241 1640l302 260h129l300 -260h-192l-170 154h-9l-168 -154h-192zM714 0h-223v616l-497 870h254l351 -649h9l356 649h247l-497 -868v-618z" />
    <glyph glyph-name="ycircumflex" unicode="&#x177;" horiz-adv-x="1144" 
d="M266 1326l234 322h143l223 -324h-177l-117 202h-4l-127 -200h-175zM268 -416q-79 0 -141 10v171q29 -6 107 -6q157 0 199 174l17 55l-417 1159h244l287 -941h10l290 941h235q-398 -1136 -400 -1141l-29 -79q-55 -150 -142 -246q-88 -97 -260 -97z" />
    <glyph glyph-name="Ydieresis" unicode="&#x178;" horiz-adv-x="1205" 
d="M699 1712q1 110 101 111q24 0 47 -13q45 -28 45 -94q0 -36 -26 -62q-27 -28 -70 -28t-70 27t-27 59zM362 1724q0 43 28 71t64 28q36 1 57 -13q45 -28 46 -79q1 -50 -24 -77t-70 -28t-73 27t-28 71zM714 0h-223v616l-497 870h254l351 -649h9l356 649h247l-497 -868v-618z
" />
    <glyph glyph-name="Zacute" unicode="&#x179;" horiz-adv-x="1257" 
d="M89 0v154l773 1132v6h-748v194h1022v-152l-766 -1134v-6h785v-194h-1066zM504 1644l276 225h240l-323 -225h-193z" />
    <glyph glyph-name="zacute" unicode="&#x17a;" horiz-adv-x="1063" 
d="M100 0v139l593 823v12h-593v173h862v-144l-583 -816v-10h593v-177h-872zM591 1324h-179l208 301h225z" />
    <glyph glyph-name="Zdotaccent" unicode="&#x17b;" horiz-adv-x="1257" 
d="M514 1738q0 78 57 113q26 16 69 16t77 -34q34 -33 34 -85t-34 -84t-85 -32t-85 32q-33 32 -33 74zM89 0v154l773 1132v6h-748v194h1022v-152l-766 -1134v-6h785v-194h-1066z" />
    <glyph glyph-name="zdotaccent" unicode="&#x17c;" horiz-adv-x="1063" 
d="M100 0v139l593 823v12h-593v173h862v-144l-583 -816v-10h593v-177h-872zM416 1409q0 50 34 84q34 35 84 35q51 0 85 -34q35 -34 35 -84q0 -51 -34 -84q-34 -34 -86 -34q-50 0 -84 34t-34 83z" />
    <glyph glyph-name="Zcaron" unicode="&#x17d;" horiz-adv-x="1257" 
d="M266 1881h192l168 -137h9l168 137h194l-300 -239h-129zM89 0v154l773 1132v6h-748v194h1022v-152l-766 -1134v-6h785v-194h-1066z" />
    <glyph glyph-name="zcaron" unicode="&#x17e;" horiz-adv-x="1063" 
d="M100 0v139l593 823v12h-593v173h862v-144l-583 -816v-10h593v-177h-872zM231 1630h175l127 -202h4l117 204h176l-222 -327h-146z" />
    <glyph glyph-name="florin" unicode="&#x192;" horiz-adv-x="1211" 
d="M814 1517q94 0 162 -29t103 -76q66 -92 62 -197h-204q0 91 -82 117q-25 8 -54 8q-142 0 -172 -181l-32 -179h321l-31 -179h-321l-183 -1003h-229l183 1003h-227l32 179h226l34 194q60 343 412 343z" />
    <glyph glyph-name="Ohorn" unicode="&#x1a0;" horiz-adv-x="1452" 
d="M337 843v-212q0 -229 105 -348t277 -119t278 119t106 348v212q0 229 -106 354t-277 125q-232 0 -332 -216q-51 -109 -51 -263zM1330 631q0 -312 -164 -487t-446 -175t-445 175q-162 175 -163 487v210q0 314 164 495t446 181q90 0 172 -24t149 -48q67 -23 135 -23
q133 1 133 166v108h188v-118q0 -148 -73 -227t-208 -79l-5 -7q49 -69 83 -185t34 -239v-210z" />
    <glyph glyph-name="ohorn" unicode="&#x1a1;" horiz-adv-x="1221" 
d="M608 987q-131 0 -208 -96t-77 -250v-133q0 -156 75 -251t210 -95t208 95t73 251v133q0 154 -75 250t-206 96zM608 -19q-228 -1 -366 135t-138 379v159q0 233 140 373t364 141q67 0 154 -23q86 -23 154 -23t100 39q31 40 31 121v169h187v-171q0 -285 -225 -300v-8
q42 -58 72 -142t30 -174v-159q1 -162 -65 -280q-132 -236 -438 -236z" />
    <glyph glyph-name="Uhorn" unicode="&#x1af;" horiz-adv-x="1536" 
d="M1305 516q-1 -246 -159 -396t-416 -149q-258 0 -417 151t-159 398v966h225v-957q0 -203 134 -300q89 -64 215 -62q162 0 259 97q96 98 95 265v957h225q77 0 108 41t32 119v117h185v-127q0 -138 -70 -222t-205 -84h-52v-814z" />
    <glyph glyph-name="uhorn" unicode="&#x1b0;" horiz-adv-x="1375" 
d="M150 356v791h220v-735q0 -131 66 -187t180 -56t193 76q80 76 80 186v716h200q75 1 104 41t29 119v144h187v-154q0 -135 -69 -219t-206 -85h-23v-993h-218v191h-13q-27 -83 -114 -146q-86 -63 -246 -63t-265 91q-105 92 -105 283z" />
    <glyph glyph-name="Acaron" unicode="&#x1cd;" horiz-adv-x="1325" 
d="M300 1881h191l171 -137h8l167 137h193l-299 -239h-130zM662 1243h-8l-211 -644h427zM250 0h-227l518 1486h244l518 -1486h-242l-137 427h-535z" />
    <glyph glyph-name="acaron" unicode="&#x1ce;" horiz-adv-x="1165" 
d="M283 1630h173l127 -202h4l119 204h176l-224 -327h-144zM544 156q101 0 176 67t75 166v121h-264q-106 0 -159 -46q-54 -46 -54 -130t62 -131t164 -47zM470 -19q-170 0 -272 95t-102 253q0 210 183 294q92 43 221 43h295v127q0 191 -223 191q-204 0 -222 -172h-213
q8 152 113 253q107 101 321 101q445 0 445 -375v-791h-211v150h-8q-44 -75 -126 -122t-201 -47z" />
    <glyph glyph-name="Icaron" unicode="&#x1cf;" horiz-adv-x="566" 
d="M-81 1881h193l169 -137h8l169 137h191l-299 -239h-129zM395 0h-222v1486h222v-1486z" />
    <glyph glyph-name="icaron" unicode="&#x1d0;" horiz-adv-x="586" 
d="M185 0v1147h223v-1147h-223zM-4 1630h173l127 -202h4l118 204h177l-225 -327h-143z" />
    <glyph glyph-name="Ocaron" unicode="&#x1d1;" horiz-adv-x="1440" 
d="M112 631v210q0 314 164 495t446 181q184 0 322 -81t212 -234t74 -361v-210q0 -312 -164 -487t-446 -175t-446 175q-162 175 -162 487zM337 843v-212q0 -229 105 -347t277 -118t278 118t106 347v212q0 229 -106 354t-277 125q-232 0 -332 -216q-51 -109 -51 -263z
M356 1881h193l169 -137h8l167 137h193l-299 -239h-129z" />
    <glyph glyph-name="ocaron" unicode="&#x1d2;" horiz-adv-x="1213" 
d="M600 987q-70 1 -128 -31t-89 -86q-62 -108 -60 -264v-63q0 -287 171 -360q49 -21 114 -21q281 0 281 381v63q0 130 -38 220q-67 161 -251 161zM609 1168q247 0 375 -149t127 -399v-89q0 -254 -128 -402q-129 -148 -377 -148t-375 147t-127 403v87q0 246 129 398t376 152z
M308 1630h173l127 -202h4l116 204h177l-222 -327h-146z" />
    <glyph glyph-name="Ucaron" unicode="&#x1d3;" horiz-adv-x="1458" 
d="M379 1486v-959q1 -167 95 -264t255 -97t258 97q96 97 95 264v959h223v-970q0 -246 -158 -396q-159 -150 -417 -151q-258 0 -417 152t-159 399v966h225zM366 1881h192l168 -137h11l166 137h194l-300 -239h-129z" />
    <glyph glyph-name="ucaron" unicode="&#x1d4;" horiz-adv-x="1267" 
d="M1111 1147v-1147h-218v156h-8q-33 -75 -117 -125t-214 -50q-183 0 -294 104q-110 104 -110 298v764h220v-704q0 -268 256 -268q119 0 191 72t72 200v700h222zM335 1630h173l127 -202h4l119 204h174l-222 -327h-146z" />
    <glyph glyph-name="Udieresismacron" unicode="&#x1d5;" horiz-adv-x="1458" 
d="M1032 1954h-605v119h605v-119zM379 1486v-959q1 -167 95 -264t255 -97t258 97q96 97 95 264v959h223v-970q0 -246 -158 -396q-159 -150 -417 -151q-258 0 -417 152t-159 399v966h225zM1020 1724q0 -42 -27 -70t-70 -28t-71 27q-28 28 -28 72t28 71t71 27t70 -28t27 -71z
M685 1724q0 -42 -27 -70t-70 -28t-71 27t-28 63q0 64 47 94q22 14 58 14t64 -29q27 -28 27 -71z" />
    <glyph glyph-name="udieresismacron" unicode="&#x1d6;" horiz-adv-x="1267" 
d="M937 1655h-608v129h608v-129zM722 1376q0 48 30 80t79 32t81 -31t31 -71q0 -72 -54 -106q-25 -15 -66 -15q-41 -1 -71 31t-30 80zM327 1376q0 48 31 80t79 32t79 -31t31 -69q0 -88 -70 -115t-119 24q-31 31 -31 79zM1111 1147v-1147h-218v156h-8q-33 -75 -117 -125
t-214 -50q-183 0 -294 104q-110 104 -110 298v764h220v-704q0 -268 256 -268q119 0 191 72t72 200v700h222z" />
    <glyph glyph-name="Udieresisacute" unicode="&#x1d7;" horiz-adv-x="1458" 
d="M379 1486v-959q1 -167 95 -264t255 -97t258 97q96 97 95 264v959h223v-970q0 -246 -158 -396q-159 -150 -417 -151q-258 0 -417 152t-159 399v966h225zM1020 1724q0 -42 -27 -70t-70 -28t-71 27q-28 28 -28 72t28 71t71 27t70 -28t27 -71zM685 1724q0 -42 -27 -70
t-70 -28t-71 27t-28 63q0 64 47 94q22 14 58 14t64 -29q27 -28 27 -71zM604 1892l276 225h240l-323 -225h-193z" />
    <glyph glyph-name="udieresisacute" unicode="&#x1d8;" horiz-adv-x="1267" 
d="M722 1376q0 48 30 80t79 32t81 -31t31 -71q0 -72 -54 -106q-25 -15 -66 -15q-41 -1 -71 31t-30 80zM327 1376q0 48 31 80t79 32t79 -31t31 -69q0 -88 -70 -115t-119 24q-31 31 -31 79zM1111 1147v-1147h-218v156h-8q-33 -75 -117 -125t-214 -50q-183 0 -294 104
q-110 104 -110 298v764h220v-704q0 -268 256 -268q119 0 191 72t72 200v700h222zM693 1613h-179l208 304h227z" />
    <glyph glyph-name="Udieresiscaron" unicode="&#x1d9;" horiz-adv-x="1458" 
d="M379 1486v-959q1 -167 95 -264t255 -97t258 97q96 97 95 264v959h223v-970q0 -246 -158 -396q-159 -150 -417 -151q-258 0 -417 152t-159 399v966h225zM366 2167h192l168 -140h11l166 140h194l-300 -242h-129zM1020 1724q0 -42 -27 -70t-70 -28t-71 27q-28 28 -28 72
t28 71t71 27t70 -28t27 -71zM685 1724q0 -42 -27 -70t-70 -28t-71 27t-28 63q0 64 47 94q22 14 58 14t64 -29q27 -28 27 -71z" />
    <glyph glyph-name="udieresiscaron" unicode="&#x1da;" horiz-adv-x="1267" 
d="M722 1376q0 48 30 80t79 32t81 -31t31 -71q0 -72 -54 -106q-25 -15 -66 -15q-41 -1 -71 31t-30 80zM327 1376q0 48 31 80t79 32t79 -31t31 -69q0 -88 -70 -115t-119 24q-31 31 -31 79zM1111 1147v-1147h-218v156h-8q-33 -75 -117 -125t-214 -50q-183 0 -294 104
q-110 104 -110 298v764h220v-704q0 -268 256 -268q119 0 191 72t72 200v700h222zM335 1954h173l127 -202h4l119 204h174l-222 -324h-146z" />
    <glyph glyph-name="Udieresisgrave" unicode="&#x1db;" horiz-adv-x="1458" 
d="M379 1486v-959q1 -167 95 -264t255 -97t258 97q96 97 95 264v959h223v-970q0 -246 -158 -396q-159 -150 -417 -151q-258 0 -417 152t-159 399v966h225zM1020 1724q0 -42 -27 -70t-70 -28t-71 27q-28 28 -28 72t28 71t71 27t70 -28t27 -71zM685 1724q0 -42 -27 -70
t-70 -28t-71 27t-28 63q0 64 47 94q22 14 58 14t64 -29q27 -28 27 -71zM855 1892h-189l-318 221h233z" />
    <glyph glyph-name="udieresisgrave" unicode="&#x1dc;" horiz-adv-x="1267" 
d="M722 1376q0 48 30 80t79 32t81 -31t31 -71q0 -72 -54 -106q-25 -15 -66 -15q-41 -1 -71 31t-30 80zM327 1376q0 48 31 80t79 32t79 -31t31 -69q0 -88 -70 -115t-119 24q-31 31 -31 79zM1111 1147v-1147h-218v156h-8q-33 -75 -117 -125t-214 -50q-183 0 -294 104
q-110 104 -110 298v764h220v-704q0 -268 256 -268q119 0 191 72t72 200v700h222zM751 1613h-179l-258 302h227z" />
    <glyph glyph-name="Adieresismacron" unicode="&#x1de;" horiz-adv-x="1325" 
d="M966 1954h-606v119h606v-119zM953 1724q0 -42 -27 -70t-70 -28q-44 0 -70 27t-26 71t26 72t69 27q44 0 71 -28t27 -71zM423 1724q0 43 28 71q29 28 71 28t69 -28t27 -71t-25 -70t-70 -28t-73 27t-27 71zM662 1243h-8l-211 -644h427zM250 0h-227l518 1486h244l518 -1486
h-242l-137 427h-535z" />
    <glyph glyph-name="adieresismacron" unicode="&#x1df;" horiz-adv-x="1165" 
d="M887 1655h-608v129h608v-129zM670 1388q0 36 31 68t79 32t80 -31t31 -80q0 -49 -31 -80t-68 -31t-56 8q-66 27 -66 114zM275 1376q0 48 31 80q32 32 72 32t65 -14q56 -33 55 -90q-1 -56 -32 -87t-80 -31t-80 30q-31 32 -31 80zM544 156q101 0 176 67t75 166v121h-264
q-106 0 -159 -46q-54 -46 -54 -130t62 -131t164 -47zM470 -19q-170 0 -272 95t-102 253q0 210 183 294q92 43 221 43h295v127q0 191 -223 191q-204 0 -222 -172h-213q8 152 113 253q107 101 321 101q445 0 445 -375v-791h-211v150h-8q-44 -75 -126 -122t-201 -47z" />
    <glyph glyph-name="Adotmacron" unicode="&#x1e0;" horiz-adv-x="1325" 
d="M966 1954h-606v119h606v-119zM665 1632q-51 0 -85 32t-33 74q0 80 59 113q27 16 55 16t51 -9q70 -28 72 -124q0 -38 -34 -70t-85 -32zM662 1243h-8l-211 -644h427zM250 0h-227l518 1486h244l518 -1486h-242l-137 427h-535z" />
    <glyph glyph-name="adotmacron" unicode="&#x1e1;" horiz-adv-x="1165" 
d="M887 1655h-608v129h608v-129zM466 1400q0 79 58 113q27 15 69 15t76 -34t34 -84q0 -51 -34 -84q-34 -34 -84 -34q-51 0 -85 34q-34 32 -34 74zM544 156q101 0 176 67t75 166v121h-264q-106 0 -159 -46q-54 -46 -54 -130t62 -131t164 -47zM470 -19q-170 0 -272 95
t-102 253q0 210 183 294q92 43 221 43h295v127q0 191 -223 191q-204 0 -222 -172h-213q8 152 113 253q107 101 321 101q445 0 445 -375v-791h-211v150h-8q-44 -75 -126 -122t-201 -47z" />
    <glyph glyph-name="AEmacron" unicode="&#x1e2;" horiz-adv-x="2029" 
d="M1763 1661h-606v119h606v-119zM1003 441h-510l-229 -441h-252l783 1486h1111v-194h-680v-443h643v-185h-643v-470h680v-194h-903v441zM1003 620v672h-77l-343 -672h420z" />
    <glyph glyph-name="aemacron" unicode="&#x1e3;" horiz-adv-x="1864" 
d="M1236 1322h-607v129h607v-129zM533 516q-109 0 -165 -48t-56 -132t66 -132t167 -48q102 0 177 67t75 166v127h-264zM1292 989q-116 -1 -192 -81t-76 -205v-33h524v23q0 137 -69 217q-71 79 -187 79zM92 331q0 158 108 250t306 91h291v111q0 204 -227 201
q-189 0 -225 -131h-210q13 148 127 231t315 84q117 0 211 -39t140 -111h15q67 94 207 132q66 18 138 18q214 0 346 -140t131 -372v-136h-741v-83q0 -166 131 -239q65 -36 153 -36t149 38q60 38 73 96h220q-13 -109 -121 -212t-352 -103q-133 1 -241 63t-149 158h-17
q-46 -94 -144 -157t-228 -63t-218 41q-88 42 -138 121t-50 187z" />
    <glyph glyph-name="Gcaron" unicode="&#x1e6;" horiz-adv-x="1396" 
d="M337 845v-198q0 -227 96 -354q97 -127 267 -127t269 87q99 86 99 219v127h-358v186h574v-304q0 -143 -78 -271q-150 -241 -492 -241q-296 0 -449 182t-153 496v200q0 206 75 358t213 232t294 80q409 0 543 -306q39 -87 45 -185h-223q-10 98 -60 166q-93 126 -272 127
q-180 1 -285 -117t-105 -357zM352 1881h193l169 -137h8l167 137h193l-299 -239h-129z" />
    <glyph glyph-name="gcaron" unicode="&#x1e7;" horiz-adv-x="1234" 
d="M601 982q-87 0 -153 -42q-132 -86 -134 -309v-102q0 -157 80 -247t208 -90t200 92q72 93 72 234v115q0 153 -74 251t-199 98zM601 -250q127 0 201 71t74 204v166h-8q-49 -108 -182 -155q-68 -24 -147 -24q-195 0 -321 136t-126 366v144q0 152 58 268t160 177
q102 62 233 63q244 0 331 -179h6v160h215v-1124q0 -229 -142 -340q-141 -111 -369 -111t-345 97q-117 98 -122 242h220q10 -69 73 -115t191 -46zM316 1630h173l129 -202h4l117 204h177l-223 -327h-146z" />
    <glyph glyph-name="Kcaron" unicode="&#x1e8;" horiz-adv-x="1315" 
d="M273 1881h191l169 -137h10l167 137h193l-300 -239h-129zM395 0h-222v1486h222v-701h11l618 701h258l-547 -635l574 -851h-279l-460 697l-175 -189v-508z" />
    <glyph glyph-name="kcaron" unicode="&#x1e9;" horiz-adv-x="1132" 
d="M381 0h-221v1565h221v-924h10l442 506h251l-441 -498l470 -649h-260l-372 518l-100 -102v-416zM-31 2046h173l126 -202h5l118 204h177l-225 -325h-143z" />
    <glyph glyph-name="Oogonek" unicode="&#x1ea;" horiz-adv-x="1440" 
d="M1093 -266q42 0 79 10v-144q-73 -21 -131 -20q-108 0 -180 55t-72 171t112 202l-8 11q-86 -48 -196 -48q-262 0 -423 177t-162 483v210q0 314 164 495t446 181q184 0 322 -81t212 -234t74 -361v-210q0 -187 -52 -310t-140 -221q-22 -23 -64 -67q-42 -45 -60 -65
q-54 -64 -52 -124q0 -110 131 -110zM337 843v-212q0 -229 105 -347t277 -118t278 118t106 347v212q0 229 -106 354t-277 125q-232 0 -332 -216q-51 -109 -51 -263z" />
    <glyph glyph-name="oogonek" unicode="&#x1eb;" horiz-adv-x="1213" 
d="M104 487v167q0 154 65 272t181 179q116 62 262 63q221 0 360 -138t139 -374v-159q0 -146 -50 -249t-141 -196q-91 -92 -101 -116q-26 -58 -26 -91q0 -67 61 -97t151 -4v-144q-63 -20 -149 -20t-161 53t-75 169t117 206l-11 11q-71 -35 -158 -36q-200 1 -332 137t-132 367
zM608 987q-87 0 -152 -45q-133 -92 -133 -299v-135q0 -212 129 -301q65 -45 156 -45q135 0 208 95t73 251v135q0 152 -75 248t-206 96z" />
    <glyph glyph-name="Oogonekmacron" unicode="&#x1ec;" horiz-adv-x="1440" 
d="M1024 1661h-608v119h608v-119zM1093 -266q42 0 79 10v-144q-73 -21 -131 -20q-108 0 -180 55t-72 171t112 202l-8 11q-86 -48 -196 -48q-262 0 -423 177t-162 483v210q0 314 164 495t446 181q184 0 322 -81t212 -234t74 -361v-210q0 -187 -52 -310t-140 -221
q-22 -23 -64 -67q-42 -45 -60 -65q-54 -64 -52 -124q0 -110 131 -110zM337 843v-212q0 -229 105 -347t277 -118t278 118t106 347v212q0 229 -106 354t-277 125q-232 0 -332 -216q-51 -109 -51 -263z" />
    <glyph glyph-name="oogonekmacron" unicode="&#x1ed;" horiz-adv-x="1213" 
d="M910 1322h-608v129h608v-129zM104 487v167q0 154 65 272t181 179q116 62 262 63q221 0 360 -138t139 -374v-159q0 -146 -50 -249t-141 -196q-91 -92 -101 -116q-26 -58 -26 -91q0 -67 61 -97t151 -4v-144q-63 -20 -149 -20t-161 53t-75 169t117 206l-11 11
q-71 -35 -158 -36q-200 1 -332 137t-132 367zM608 987q-87 0 -152 -45q-133 -92 -133 -299v-135q0 -212 129 -301q65 -45 156 -45q135 0 208 95t73 251v135q0 152 -75 248t-206 96z" />
    <glyph glyph-name="Gacute" unicode="&#x1f4;" horiz-adv-x="1396" 
d="M337 845v-198q0 -227 96 -354q97 -127 267 -127t269 87q99 86 99 219v127h-358v186h574v-304q0 -143 -78 -271q-150 -241 -492 -241q-296 0 -449 182t-153 496v200q0 206 75 358t213 232t294 80q409 0 543 -306q39 -87 45 -185h-223q-10 98 -60 166q-93 126 -272 127
q-180 1 -285 -117t-105 -357zM589 1644l277 225h239l-322 -225h-194z" />
    <glyph glyph-name="gacute" unicode="&#x1f5;" horiz-adv-x="1234" 
d="M601 982q-87 0 -153 -42q-132 -86 -134 -309v-102q0 -157 80 -247t208 -90t200 92q72 93 72 234v115q0 153 -74 251t-199 98zM601 -250q127 0 201 71t74 204v166h-8q-49 -108 -182 -155q-68 -24 -147 -24q-195 0 -321 136t-126 366v144q0 152 58 268t160 177
q102 62 233 63q244 0 331 -179h6v160h215v-1124q0 -229 -142 -340q-141 -111 -369 -111t-345 97q-117 98 -122 242h220q10 -69 73 -115t191 -46zM674 1324h-177l206 301h227z" />
    <glyph glyph-name="Ngrave" unicode="&#x1f8;" horiz-adv-x="1488" 
d="M389 0h-216v1486h202l718 -1103h6v1103h218v-1486h-204l-718 1105h-6v-1105zM870 1644h-191l-317 221h233z" />
    <glyph glyph-name="ngrave" unicode="&#x1f9;" horiz-adv-x="1273" 
d="M158 0v1147h217v-154h8q33 71 121 122t210 51q176 0 292 -106t116 -298v-762h-221v687q0 285 -258 285q-169 0 -233 -132q-31 -66 -31 -161v-679h-221zM753 1326h-176l-259 299h227z" />
    <glyph glyph-name="Aringacute" unicode="&#x1fa;" horiz-adv-x="1325" 
d="M423 1636q-1 98 69 166t170 67q20 0 38 -3l245 197h248l-357 -272q59 -65 59 -138q0 -137 -100 -200l508 -1453h-239l-140 427h-533l-141 -427h-225l506 1447q-50 29 -79 80t-29 109zM870 599l-206 644h-10l-211 -644h427zM543 1624q1 -36 35 -70t83 -34t82 34t33 74
q0 74 -52 106t-109 9q-72 -29 -72 -119z" />
    <glyph glyph-name="aringacute" unicode="&#x1fb;" horiz-adv-x="1165" 
d="M481 1507q0 -46 31 -77t77 -31t77 31t31 77t-31 77t-77 31t-77 -31t-31 -77zM606 1299q-74 0 -125 27q-50 27 -78 75q-28 47 -28 121t62 134t154 61q20 0 39 -3l211 299h229l-317 -367q52 -58 52 -143t-62 -145q-63 -59 -137 -59zM544 156q101 0 176 67t75 166v121h-264
q-106 0 -159 -46q-54 -46 -54 -130t62 -131t164 -47zM470 -19q-170 0 -272 95t-102 253q0 210 183 294q92 43 221 43h295v127q0 191 -223 191q-204 0 -222 -172h-213q8 152 113 253q107 101 321 101q445 0 445 -375v-791h-211v150h-8q-44 -75 -126 -122t-201 -47z" />
    <glyph glyph-name="AEacute" unicode="&#x1fc;" horiz-adv-x="2029" 
d="M1003 441h-510l-229 -441h-252l783 1486h1111v-194h-680v-443h643v-185h-643v-470h680v-194h-903v441zM1003 620v672h-77l-343 -672h420zM1334 1644l277 225h239l-322 -225h-194z" />
    <glyph glyph-name="aeacute" unicode="&#x1fd;" horiz-adv-x="1864" 
d="M533 516q-109 0 -165 -48t-56 -132t66 -132t167 -48q102 0 177 67t75 166v127h-264zM1292 989q-116 -1 -192 -81t-76 -205v-33h524v23q0 137 -69 217q-71 79 -187 79zM92 331q0 158 108 250t306 91h291v111q0 204 -227 201q-189 0 -225 -131h-210q13 148 127 231t315 84
q117 0 211 -39t140 -111h15q67 94 207 132q66 18 138 18q214 0 346 -140t131 -372v-136h-741v-83q0 -166 131 -239q65 -36 153 -36t149 38q60 38 73 96h220q-13 -109 -121 -212t-352 -103q-133 1 -241 63t-149 158h-17q-46 -94 -144 -157t-228 -63t-218 41q-88 42 -138 121
t-50 187zM991 1324h-177l206 301h227z" />
    <glyph glyph-name="Oslashacute" unicode="&#x1fe;" horiz-adv-x="1440" 
d="M593 1644l277 225h239l-322 -225h-194zM717 162q176 0 282 119t106 350v212q0 127 -37 223l-629 -783q102 -121 278 -121zM335 631q0 -117 31 -202l627 776q-104 119 -273 119q-234 0 -334 -217q-51 -110 -51 -264v-212zM1330 631q0 -312 -164 -487t-434 -175t-428 148
l-108 -134l-115 94l127 156q-96 162 -96 398v210q0 314 164 495t430 181q264 0 422 -145l104 129l119 -88l-127 -156q106 -167 106 -416v-210z" />
    <glyph glyph-name="oslashacute" unicode="&#x1ff;" horiz-adv-x="1213" 
d="M666 1324h-179l208 301h227zM598 -19q-158 0 -286 86l-110 -148l-108 81l116 158q-106 137 -106 337v159q0 233 140 373t364 141q164 0 293 -88l108 148l109 -85l-117 -156q110 -137 110 -331v-159q0 -162 -65 -280q-132 -236 -448 -236zM318 481q0 -87 32 -154l439 603
q-73 62 -193 62t-198 -98q-79 -99 -80 -251v-162zM895 508v162q0 83 -33 148l-437 -599q73 -61 195 -61t199 97q76 97 76 253z" />
    <glyph glyph-name="Adblgrave" unicode="&#x200;" horiz-adv-x="1325" 
d="M595 1644h-181l-318 237h204zM949 1644h-181l-318 237h204zM662 1243h-8l-211 -644h427zM250 0h-227l518 1486h244l518 -1486h-242l-137 427h-535z" />
    <glyph glyph-name="adblgrave" unicode="&#x201;" horiz-adv-x="1165" 
d="M683 1322l-277 343h183l233 -343h-139zM364 1322l-277 343h186l233 -343h-142zM544 156q101 0 176 67t75 166v121h-264q-106 0 -159 -46q-54 -46 -54 -130t62 -131t164 -47zM470 -19q-170 0 -272 95t-102 253q0 210 183 294q92 43 221 43h295v127q0 191 -223 191
q-204 0 -222 -172h-213q8 152 113 253q107 101 321 101q445 0 445 -375v-791h-211v150h-8q-44 -75 -126 -122t-201 -47z" />
    <glyph glyph-name="Ainvertedbreve" unicode="&#x202;" horiz-adv-x="1325" 
d="M647 1782q-77 0 -134 -45t-57 -109h-144q0 121 88 205t263 84q174 0 262 -84t89 -205h-144q0 90 -98 133q-48 21 -125 21zM662 1243h-8l-211 -644h427zM250 0h-227l518 1486h244l518 -1486h-242l-137 427h-535z" />
    <glyph glyph-name="ainvertedbreve" unicode="&#x203;" horiz-adv-x="1165" 
d="M258 1299q0 123 83 217t241 93q158 0 241 -94q84 -94 82 -216h-141q0 103 -79 153q-43 26 -117 26t-120 -52t-46 -127h-144zM544 156q101 0 176 67t75 166v121h-264q-106 0 -159 -46q-54 -46 -54 -130t62 -131t164 -47zM470 -19q-170 0 -272 95t-102 253q0 210 183 294
q92 43 221 43h295v127q0 191 -223 191q-204 0 -222 -172h-213q8 152 113 253q107 101 321 101q445 0 445 -375v-791h-211v150h-8q-44 -75 -126 -122t-201 -47z" />
    <glyph glyph-name="Edblgrave" unicode="&#x204;" horiz-adv-x="1205" 
d="M1084 194v-194h-911v1486h911v-194h-689v-443h650v-185h-650v-470h689zM554 1644h-181l-319 237h204zM907 1644h-181l-318 237h204z" />
    <glyph glyph-name="edblgrave" unicode="&#x205;" horiz-adv-x="1169" 
d="M685 1322l-277 343h183l233 -343h-139zM366 1322l-277 343h186l233 -343h-142zM323 683h532v4q0 135 -71 218q-72 83 -195 83t-195 -84t-71 -217v-4zM604 -19q-241 0 -371 146q-129 146 -129 393v100q0 248 127 398t359 150t357 -149t125 -397v-100h-749v-33
q1 -137 71 -232t192 -95t180 46t73 115h218q-16 -121 -117 -226q-50 -53 -138 -85t-198 -31z" />
    <glyph glyph-name="Einvertedbreve" unicode="&#x206;" horiz-adv-x="1205" 
d="M828 1628q0 90 -98 133q-48 21 -125 21t-134 -45t-57 -109h-143q0 121 88 205t262 84q175 0 263 -84t88 -205h-144zM1084 194v-194h-911v1486h911v-194h-689v-443h650v-185h-650v-470h689z" />
    <glyph glyph-name="einvertedbreve" unicode="&#x207;" horiz-adv-x="1169" 
d="M260 1299q0 123 84 217t240 93q156 0 241 -94q84 -94 82 -216h-141q0 67 -44 124q-44 55 -135 55q-90 0 -137 -52q-46 -52 -46 -127h-144zM323 683h532v4q0 135 -71 218q-72 83 -195 83t-195 -84t-71 -217v-4zM604 -19q-241 0 -371 146q-129 146 -129 393v100
q0 248 127 398t359 150t357 -149t125 -397v-100h-749v-33q1 -137 71 -232t192 -95t180 46t73 115h218q-16 -121 -117 -226q-50 -53 -138 -85t-198 -31z" />
    <glyph glyph-name="Idblgrave" unicode="&#x208;" horiz-adv-x="566" 
d="M216 1644h-183l-318 237h206zM570 1644h-181l-320 237h206zM395 0h-222v1486h222v-1486z" />
    <glyph glyph-name="idblgrave" unicode="&#x209;" horiz-adv-x="586" 
d="M395 1322l-278 343h185l233 -343h-140zM77 1322l-277 343h185l234 -343h-142zM185 0v1147h223v-1147h-223z" />
    <glyph glyph-name="Iinvertedbreve" unicode="&#x20a;" horiz-adv-x="566" 
d="M283 1782q-92 0 -149 -45t-57 -109h-144q-1 121 87 205t263 84t262 -84t88 -205h-144q0 66 -57 110t-149 44zM395 0h-222v1486h222v-1486z" />
    <glyph glyph-name="iinvertedbreve" unicode="&#x20b;" horiz-adv-x="586" 
d="M-29 1299q0 123 83 217t242 93q106 0 182 -49q140 -90 140 -261h-141q0 75 -46 127q-47 52 -121 52t-117 -26q-79 -48 -79 -153h-143zM185 0v1147h223v-1147h-223z" />
    <glyph glyph-name="Odblgrave" unicode="&#x20c;" horiz-adv-x="1440" 
d="M112 631v210q0 314 164 495t446 181q184 0 322 -81t212 -234t74 -361v-210q0 -312 -164 -487t-446 -175t-446 175q-162 175 -162 487zM337 843v-212q0 -229 105 -347t277 -118t278 118t106 347v212q0 229 -106 354t-277 125q-232 0 -332 -216q-51 -109 -51 -263z
M651 1644h-181l-318 237h206zM1005 1644h-181l-318 237h206z" />
    <glyph glyph-name="odblgrave" unicode="&#x20d;" horiz-adv-x="1213" 
d="M706 1322l-277 343h183l235 -343h-141zM387 1322l-277 343h186l235 -343h-144zM600 987q-70 1 -128 -31t-89 -86q-62 -108 -60 -264v-63q0 -287 171 -360q49 -21 114 -21q281 0 281 381v63q0 130 -38 220q-67 161 -251 161zM609 1168q247 0 375 -149t127 -399v-89
q0 -254 -128 -402q-129 -148 -377 -148t-375 147t-127 403v87q0 246 129 398t376 152z" />
    <glyph glyph-name="Oinvertedbreve" unicode="&#x20e;" horiz-adv-x="1440" 
d="M112 631v210q0 314 164 495t446 181q184 0 322 -81t212 -234t74 -361v-210q0 -312 -164 -487t-446 -175t-446 175q-162 175 -162 487zM337 843v-212q0 -229 105 -347t277 -118t278 118t106 347v212q0 229 -106 354t-277 125q-232 0 -332 -216q-51 -109 -51 -263z
M703 1782q-77 0 -134 -45t-57 -109h-144q0 121 88 205t263 84q174 0 262 -84t89 -205h-144q0 90 -98 133q-48 21 -125 21z" />
    <glyph glyph-name="oinvertedbreve" unicode="&#x20f;" horiz-adv-x="1213" 
d="M606 1609q158 0 241 -94t83 -216h-143q0 105 -78 153q-43 26 -117 26t-120 -52t-45 -127h-146q2 123 85 217q82 94 240 93zM600 987q-70 1 -128 -31t-89 -86q-62 -108 -60 -264v-63q0 -287 171 -360q49 -21 114 -21q281 0 281 381v63q0 130 -38 220q-67 161 -251 161z
M609 1168q247 0 375 -149t127 -399v-89q0 -254 -128 -402q-129 -148 -377 -148t-375 147t-127 403v87q0 246 129 398t376 152z" />
    <glyph glyph-name="Rdblgrave" unicode="&#x210;" horiz-adv-x="1336" 
d="M393 764h298q144 0 220 68t76 196q-1 129 -79 200t-211 71h-304v-535zM726 1486q242 0 368 -128t126 -310t-82 -284q-82 -104 -193 -144l302 -620h-254l-271 579h-329v-579h-220v1486h553zM564 1644h-181l-318 237h206zM918 1644h-179l-321 237h206z" />
    <glyph glyph-name="rdblgrave" unicode="&#x211;" horiz-adv-x="786" 
d="M558 1322l-279 343h185l233 -343h-139zM239 1322l-276 343h185l233 -343h-142zM175 0v1147h218v-142h9q73 161 279 161q40 0 77 -7v-197q-31 8 -100 8q-260 0 -260 -273v-697h-223z" />
    <glyph glyph-name="Rinvertedbreve" unicode="&#x212;" horiz-adv-x="1336" 
d="M633 1782q-92 0 -149 -45t-57 -109h-146q0 135 109 221q87 68 243 68q257 0 330 -182q20 -51 19 -107h-143q0 66 -57 110t-149 44zM393 764h298q144 0 220 68t76 196q-1 129 -79 200t-211 71h-304v-535zM726 1486q242 0 368 -128t126 -310t-82 -284q-82 -104 -193 -144
l302 -620h-254l-271 579h-329v-579h-220v1486h553z" />
    <glyph glyph-name="rinvertedbreve" unicode="&#x213;" horiz-adv-x="786" 
d="M133 1299q0 123 83 217q82 94 240 93q158 0 241 -94t83 -216h-141q0 75 -47 127t-135 52t-134 -52t-46 -127h-144zM175 0v1147h218v-142h9q73 161 279 161q40 0 77 -7v-197q-31 8 -100 8q-260 0 -260 -273v-697h-223z" />
    <glyph glyph-name="Udblgrave" unicode="&#x214;" horiz-adv-x="1458" 
d="M379 1486v-959q1 -167 95 -264t255 -97t258 97q96 97 95 264v959h223v-970q0 -246 -158 -396q-159 -150 -417 -151q-258 0 -417 152t-159 399v966h225zM662 1644h-181l-319 237h204zM1016 1644h-181l-319 237h204z" />
    <glyph glyph-name="udblgrave" unicode="&#x215;" horiz-adv-x="1267" 
d="M735 1322l-279 343h185l233 -343h-139zM414 1322l-277 343h186l235 -343h-144zM1111 1147v-1147h-218v156h-8q-33 -75 -117 -125t-214 -50q-183 0 -294 104q-110 104 -110 298v764h220v-704q0 -268 256 -268q119 0 191 72t72 200v700h222z" />
    <glyph glyph-name="Uinvertedbreve" unicode="&#x216;" horiz-adv-x="1458" 
d="M729 1782q-93 0 -149 -45t-58 -109h-143q0 121 88 205t262 84q175 0 263 -84t88 -205h-143q1 66 -57 110t-151 44zM379 1486v-959q1 -167 95 -264t255 -97t258 97q96 97 95 264v959h223v-970q0 -246 -158 -396q-159 -150 -417 -151q-258 0 -417 152t-159 399v966h225z
" />
    <glyph glyph-name="uinvertedbreve" unicode="&#x217;" horiz-adv-x="1267" 
d="M310 1299q0 123 83 217t240 93q108 0 184 -49q140 -90 140 -261h-143q0 75 -46 127t-120 52t-117 -26q-79 -49 -77 -153h-144zM1111 1147v-1147h-218v156h-8q-33 -75 -117 -125t-214 -50q-183 0 -294 104q-110 104 -110 298v764h220v-704q0 -268 256 -268q119 0 191 72
t72 200v700h222z" />
    <glyph glyph-name="Scommaaccent" unicode="&#x218;" horiz-adv-x="1275" 
d="M599 -533h-162l92 364h193zM630 160q154 0 238 66q85 66 85 164t-57 152q-57 53 -180 82l-252 65q-156 37 -256 134t-100 261q0 102 43 186q80 157 285 220q95 29 200 29q213 0 363 -108q73 -52 117 -135t45 -185h-216q-11 105 -91 173t-218 68t-220 -61t-83 -170
q0 -158 208 -208l248 -63q187 -46 289 -140t102 -270q0 -212 -157 -332t-409 -119q-146 1 -255 41q-190 71 -262 245q-30 74 -32 153h222q9 -106 99 -177t244 -71z" />
    <glyph glyph-name="scommaaccent" unicode="&#x219;" horiz-adv-x="1086" 
d="M527 -533h-163l94 364h193zM993 336q0 -164 -126 -260t-333 -95q-207 -1 -328 89t-121 244h215q10 -78 70 -122t174 -44t173 47t59 117t-32 93q-32 24 -50 34t-82 27t-130 29q-66 13 -115 27q-126 35 -194 102q-67 67 -67 189t64 203q117 150 373 152q198 0 308 -97
t111 -251h-200q-21 186 -245 184q-78 0 -138 -46q-60 -45 -61 -121q0 -119 184 -153l75 -14q21 -4 69 -12q135 -24 232 -86q115 -72 115 -236z" />
    <glyph glyph-name="Tcommaaccent" unicode="&#x21a;" horiz-adv-x="1146" 
d="M685 0h-223v1290h-443v196h1109v-196h-443v-1290zM558 -533h-163l92 364h194z" />
    <glyph glyph-name="tcommaaccent" unicode="&#x21b;" horiz-adv-x="743" 
d="M221 1143v287h216v-287h225v-177h-225v-633q0 -96 39 -130t140 -34q25 0 52 2v-173q-44 -6 -106 -6q-200 0 -272 76t-71 255v643h-159v177h161zM437 -533h-162l93 364h194z" />
    <glyph glyph-name="Hcaron" unicode="&#x21e;" horiz-adv-x="1498" 
d="M385 1881h194l168 -137h9l168 137h192l-300 -239h-129zM1328 0h-225v670h-708v-670h-222v1486h222v-622h708v622h225v-1486z" />
    <glyph glyph-name="hcaron" unicode="&#x21f;" horiz-adv-x="1280" 
d="M-31 2046h175l127 -202h4l116 204h177l-223 -325h-145zM162 0v1565h221v-572h8q24 59 103 116q78 57 209 57t227 -56t147 -158q51 -101 51 -232v-720h-218v672q0 140 -68 220t-193 80t-195 -78t-71 -222v-672h-221z" />
    <glyph glyph-name="Adotaccent" unicode="&#x226;" horiz-adv-x="1325" 
d="M665 1632q-51 0 -85 32t-33 74q0 80 59 113q27 16 55 16t51 -9q70 -28 72 -124q0 -38 -34 -70t-85 -32zM662 1243h-8l-211 -644h427zM250 0h-227l518 1486h244l518 -1486h-242l-137 427h-535z" />
    <glyph glyph-name="adotaccent" unicode="&#x227;" horiz-adv-x="1165" 
d="M466 1400q0 79 58 113q27 15 69 15t76 -34t34 -84q0 -51 -34 -84q-34 -34 -84 -34q-51 0 -85 34q-34 32 -34 74zM544 156q101 0 176 67t75 166v121h-264q-106 0 -159 -46q-54 -46 -54 -130t62 -131t164 -47zM470 -19q-170 0 -272 95t-102 253q0 210 183 294q92 43 221 43
h295v127q0 191 -223 191q-204 0 -222 -172h-213q8 152 113 253q107 101 321 101q445 0 445 -375v-791h-211v150h-8q-44 -75 -126 -122t-201 -47z" />
    <glyph glyph-name="Ecedilla" unicode="&#x228;" horiz-adv-x="1205" 
d="M712 -310q0 50 -47 62q-47 11 -109 11h-56v91l54 146h-381v1486h911v-194h-689v-443h650v-185h-650v-470h689v-194h-389l-48 -125q103 0 165 -46t62 -123q0 -207 -258 -217q-81 -3 -154 18v120q52 -17 123 -16q127 0 127 79z" />
    <glyph glyph-name="ecedilla" unicode="&#x229;" horiz-adv-x="1169" 
d="M562 -406q127 0 127 79q0 52 -49 63q-35 8 -107 8h-58v94l56 147q-208 21 -318 164q-109 143 -109 371v100q0 248 127 398t359 150t357 -149t125 -397v-100h-749v-33q1 -137 71 -232t192 -95t180 46t73 115h218q-13 -113 -106 -216q-93 -104 -279 -122l-48 -129
q104 0 165 -45q60 -46 60 -139t-69 -145t-171 -56t-172 17v121q48 -15 125 -15zM323 683h532v4q0 135 -71 218q-72 83 -195 83t-195 -84t-71 -217v-4z" />
    <glyph glyph-name="Odieresismacron" unicode="&#x22a;" horiz-adv-x="1440" 
d="M1024 1954h-608v119h608v-119zM112 631v210q0 314 164 495t446 181q184 0 322 -81t212 -234t74 -361v-210q0 -312 -164 -487t-446 -175t-446 175q-162 175 -162 487zM337 843v-212q0 -229 105 -347t277 -118t278 118t106 347v212q0 229 -106 354t-277 125
q-232 0 -332 -216q-51 -109 -51 -263zM913 1823q43 0 69 -28t27 -71q0 -42 -27 -70q-28 -28 -70 -28t-69 27q-27 28 -27 71t27 71t70 28zM578 1823q44 0 70 -28t26 -71q0 -42 -27 -70t-69 -28t-71 27q-28 28 -28 71t28 71t71 28z" />
    <glyph glyph-name="odieresismacron" unicode="&#x22b;" horiz-adv-x="1213" 
d="M910 1655h-608v129h608v-129zM600 987q-70 1 -128 -31t-89 -86q-62 -108 -60 -264v-63q0 -287 171 -360q49 -21 114 -21q281 0 281 381v63q0 130 -38 220q-67 161 -251 161zM609 1168q247 0 375 -149t127 -399v-89q0 -254 -128 -402q-129 -148 -377 -148t-375 147
t-127 403v87q0 246 129 398t376 152zM695 1376q0 48 30 80q31 32 71 32q76 0 105 -55q15 -25 15 -65t-31 -71t-81 -31t-79 30q-30 32 -30 80zM300 1388q0 36 31 68t71 32t65 -14q55 -31 54 -89q-1 -57 -32 -88t-67 -31q-122 -2 -122 122z" />
    <glyph glyph-name="Otildemacron" unicode="&#x22c;" horiz-adv-x="1440" 
d="M1024 1954h-608v119h608v-119zM608 1727q-65 0 -69 -97h-127q0 88 48 152t132 64t159 -73q6 -4 34 -29t56 -25q29 0 47 33t22 75h124q0 -85 -51 -151t-134 -65q-55 -1 -89 15t-67 47q-5 10 -12 15q-7 6 -12 11t-9 7t-10 7q-20 14 -42 14zM112 631v210q0 314 164 495
t446 181q184 0 322 -81t212 -234t74 -361v-210q0 -312 -164 -487t-446 -175t-446 175q-162 175 -162 487zM337 843v-212q0 -229 105 -347t277 -118t278 118t106 347v212q0 229 -106 354t-277 125q-232 0 -332 -216q-51 -109 -51 -263z" />
    <glyph glyph-name="otildemacron" unicode="&#x22d;" horiz-adv-x="1213" 
d="M600 987q-70 1 -128 -31t-89 -86q-62 -108 -60 -264v-63q0 -287 171 -360q49 -21 114 -21q281 0 281 381v63q0 130 -38 220q-67 161 -251 161zM609 1168q247 0 375 -149t127 -399v-89q0 -254 -128 -402q-129 -148 -377 -148t-375 147t-127 403v87q0 246 129 398t376 152z
M910 1655h-608v129h608v-129zM481 1390q-67 0 -73 -110h-135q0 106 51 179t148 73t178 -96q32 -34 46 -38q15 -3 26 -4q37 0 55 36t20 83h135q0 -98 -56 -175t-148 -77t-158 73q-14 14 -15 16t-7 7q-6 6 -12 11l-12 8t-14 9q-9 5 -29 5z" />
    <glyph glyph-name="Odotaccent" unicode="&#x22e;" horiz-adv-x="1440" 
d="M112 631v210q0 314 164 495t446 181q184 0 322 -81t212 -234t74 -361v-210q0 -312 -164 -487t-446 -175t-446 175q-162 175 -162 487zM337 843v-212q0 -229 105 -347t277 -118t278 118t106 347v212q0 229 -106 354t-277 125q-232 0 -332 -216q-51 -109 -51 -263z
M604 1738q0 80 58 113q26 16 68 16t76 -34q34 -33 35 -85q0 -52 -34 -84q-35 -32 -85 -32t-84 32t-34 74z" />
    <glyph glyph-name="odotaccent" unicode="&#x22f;" horiz-adv-x="1213" 
d="M600 987q-70 1 -128 -31t-89 -86q-62 -108 -60 -264v-63q0 -287 171 -360q49 -21 114 -21q281 0 281 381v63q0 130 -38 220q-67 161 -251 161zM609 1168q247 0 375 -149t127 -399v-89q0 -254 -128 -402q-129 -148 -377 -148t-375 147t-127 403v87q0 246 129 398t376 152z
M491 1409q0 50 33 84q33 35 71 35q93 1 124 -72q9 -22 9 -60t-34 -70q-34 -34 -85 -34t-85 34t-33 83z" />
    <glyph glyph-name="Odotaccentmacron" unicode="&#x230;" horiz-adv-x="1440" 
d="M1024 1954h-608v119h608v-119zM112 631v210q0 314 164 495t446 181q184 0 322 -81t212 -234t74 -361v-210q0 -312 -164 -487t-446 -175t-446 175q-162 175 -162 487zM337 843v-212q0 -229 105 -347t277 -118t278 118t106 347v212q0 229 -106 354t-277 125
q-232 0 -332 -216q-51 -109 -51 -263zM604 1738q0 80 58 113q26 16 68 16t76 -34q34 -33 35 -85q0 -52 -34 -84q-35 -32 -85 -32t-84 32t-34 74z" />
    <glyph glyph-name="odotaccentmacron" unicode="&#x231;" horiz-adv-x="1213" 
d="M600 987q-70 1 -128 -31t-89 -86q-62 -108 -60 -264v-63q0 -287 171 -360q49 -21 114 -21q281 0 281 381v63q0 130 -38 220q-67 161 -251 161zM609 1168q247 0 375 -149t127 -399v-89q0 -254 -128 -402q-129 -148 -377 -148t-375 147t-127 403v87q0 246 129 398t376 152z
M910 1655h-608v129h608v-129zM491 1409q0 50 33 84q33 35 71 35q93 1 124 -72q9 -22 9 -60t-34 -70q-34 -34 -85 -34t-85 34t-33 83z" />
    <glyph glyph-name="Ymacron" unicode="&#x232;" horiz-adv-x="1205" 
d="M907 1661h-607v119h607v-119zM714 0h-223v616l-497 870h254l351 -649h9l356 649h247l-497 -868v-618z" />
    <glyph glyph-name="ymacron" unicode="&#x233;" horiz-adv-x="1144" 
d="M876 1322h-608v129h608v-129zM268 -416q-79 0 -141 10v171q29 -6 107 -6q157 0 199 174l17 55l-417 1159h244l287 -941h10l290 941h235q-398 -1136 -400 -1141l-29 -79q-55 -150 -142 -246q-88 -97 -260 -97z" />
    <glyph glyph-name="circumflex" unicode="&#x2c6;" horiz-adv-x="1028" 
d="M241 1311l234 325h143l223 -327h-177l-117 204h-6l-125 -202h-175z" />
    <glyph glyph-name="caron" unicode="&#x2c7;" horiz-adv-x="1028" 
d="M210 1661h175l127 -204h4l117 204h177l-223 -325h-146z" />
    <glyph glyph-name="breve" unicode="&#x2d8;" horiz-adv-x="1028" 
d="M185 1669h144q0 -75 47 -126q46 -51 120 -51q137 0 177 91q18 39 18 86h144q-1 -121 -85 -215t-240 -93q-156 -1 -240 93t-85 215z" />
    <glyph glyph-name="dotaccent" unicode="&#x2d9;" horiz-adv-x="1028" 
d="M398 1550q0 89 67 125q30 17 78 17t88 -37q39 -37 39 -95t-39 -96q-40 -36 -97 -36t-97 36q-39 37 -39 86z" />
    <glyph glyph-name="ring" unicode="&#x2da;" horiz-adv-x="1028" 
d="M416 1544q0 -46 31 -78t77 -32t76 32t31 78q-1 46 -31 77t-76 31t-77 -30q-31 -32 -31 -78zM310 1560q0 74 62 134t152 60q92 0 153 -60t61 -150t-60 -150q-62 -60 -138 -60t-125 27t-77 76t-28 123z" />
    <glyph glyph-name="ogonek" unicode="&#x2db;" horiz-adv-x="1028" 
d="M614 -266q50 0 92 10v-142q-52 -22 -150 -22t-164 52t-65 152q0 50 24 103t50 86t65 77q40 44 50 56h140q-158 -171 -159 -268q-1 -52 33 -78t84 -26z" />
    <glyph glyph-name="tilde" unicode="&#x2dc;" horiz-adv-x="1028" 
d="M337 1465q-67 0 -73 -110h-135q0 106 51 179t144 73t183 -98q38 -42 74 -42q35 -1 53 37t20 84h135q0 -100 -56 -177q-55 -77 -147 -77t-159 73q0 2 -8 9q-7 7 -11 14t-10 8q-5 2 -11 7q-24 20 -50 20z" />
    <glyph glyph-name="hungarumlaut" unicode="&#x2dd;" horiz-adv-x="1028" 
d="M593 1324h-141l233 341h183zM275 1324h-142l233 341h186z" />
    <glyph glyph-name="gravecmb" unicode="&#x300;" 
d="M117 1326h-177l-258 299h226z" />
    <glyph glyph-name="acutecmb" unicode="&#x301;" 
d="M58 1324h-177l206 301h227z" />
    <glyph glyph-name="circumflexcmb" unicode="&#x302;" 
d="M-304 1326l231 322h146l220 -324h-176l-117 202h-4l-127 -200h-173z" />
    <glyph glyph-name="tildecmb" unicode="&#x303;" 
d="M-125 1390q-67 0 -75 -110h-135q0 106 51 179q50 73 142 73t171 -79q12 -18 21 -25q10 -8 23 -20t46 -13t52 35t20 83h136q0 -98 -56 -175q-55 -77 -147 -77t-159 73q-6 0 -14 12t-14 17q-6 3 -21 15q-16 12 -41 12z" />
    <glyph glyph-name="macroncmb" unicode="&#x304;" 
d="M304 1322h-608v129h608v-129z" />
    <glyph glyph-name="brevecmb" unicode="&#x306;" 
d="M-183 1573q0 -75 46 -125t134 -51q88 0 134 51t46 125h144q0 -115 -82 -211q-82 -97 -240 -97q-159 -1 -243 93t-83 215h144z" />
    <glyph glyph-name="dotaccentcmb" unicode="&#x307;" 
d="M-114 1409q0 50 33 84q33 35 83 35t85 -34t35 -84q0 -51 -34 -84q-36 -34 -86 -34t-83 34t-33 83z" />
    <glyph glyph-name="dieresiscmb" unicode="&#x308;" 
d="M87 1376q-1 48 31 80t75 32t72 -20q28 -20 36 -47q9 -27 9 -60t-32 -64t-80 -31t-80 30q-32 32 -31 80zM-308 1376q0 48 31 80t80 32t80 -31t31 -80t-30 -80q-32 -31 -80 -31t-80 30q-32 32 -32 80z" />
    <glyph glyph-name="hookabovecmb" unicode="&#x309;" 
d="M-34 1705q178 0 233 -118q17 -39 17 -102q-1 -114 -176 -209l-75 98q58 31 83 58q25 28 25 64t-32 61q-33 25 -87 25t-100 -17v119q48 21 112 21z" />
    <glyph glyph-name="ringcmb" unicode="&#x30a;" 
d="M-110 1507q0 -46 31 -77t77 -31t77 31t31 77t-31 77t-77 31t-77 -31t-31 -77zM214 1508q0 -90 -62 -150t-152 -59q-90 0 -154 59q-62 58 -62 148t62 150t153 61q91 0 153 -60q62 -59 62 -149z" />
    <glyph glyph-name="hungarumlautcmb" unicode="&#x30b;" 
d="M200 1322h-142l233 343h186zM-119 1322h-139l231 343h185z" />
    <glyph glyph-name="caroncmb" unicode="&#x30c;" 
d="M-300 1630h173l129 -202h4l117 204h177l-223 -327h-146z" />
    <glyph glyph-name="dblgravecmb" unicode="&#x30f;" 
d="M100 1322l-277 343h183l235 -343h-141zM-219 1322l-276 343h185l233 -343h-142z" />
    <glyph glyph-name="invertedbrevecmb" unicode="&#x311;" 
d="M0 1609q106 0 182 -49q143 -92 141 -261h-142q0 75 -46 127q-47 52 -121 52q-135 0 -176 -92q-19 -40 -19 -87h-144q1 123 85 217t240 93z" />
    <glyph glyph-name="horncmb" unicode="&#x31b;" 
d="M137 1328v168h188v-181q0 -139 -67 -233t-204 -93q-102 0 -148 33v181q40 -37 106 -36q124 2 125 161z" />
    <glyph glyph-name="dotbelowcmb" unicode="&#x323;" 
d="M-121 -282q1 40 37 76t88 35q52 0 88 -35q36 -34 37 -88q0 -54 -36 -88t-76 -34q-138 0 -138 134z" />
    <glyph glyph-name="dieresisbelowcmb" unicode="&#x324;" 
d="M85 -338q1 49 31 80t79 31t80 -31t31 -80t-31 -80q-31 -32 -80 -32t-79 32t-31 80zM-310 -338q0 49 31 80t79 31t79 -31t31 -80t-30 -80q-32 -32 -80 -32t-79 32t-31 80z" />
    <glyph glyph-name="ringbelowcmb" unicode="&#x325;" 
d="M-108 -310q0 -46 31 -77t77 -31t76 31t30 77t-30 77t-76 31t-77 -31t-31 -77zM-2 -520q-90 0 -152 60t-62 150t62 150t152 60t154 -60q62 -60 62 -150t-62 -150q-64 -60 -154 -60z" />
    <glyph glyph-name="commabelowcmb" unicode="&#x326;" 
d="M-15 -533h-162l92 364h193z" />
    <glyph glyph-name="cedillacmb" unicode="&#x327;" 
d="M-127 -256v94l65 170h141l-58 -152q106 0 166 -46q61 -46 61 -138t-69 -144t-171 -56t-172 16v121q48 -15 124 -15q125 0 125 79q0 52 -48 63q-33 8 -106 8h-58z" />
    <glyph glyph-name="ogonekcmb" unicode="&#x328;" 
d="M-212 -224q0 58 24 111t50 86t66 77q41 44 51 56h138q-158 -171 -159 -268q0 -52 34 -78t83 -26q50 0 94 10v-142q-55 -22 -135 -22t-131 20t-83 69t-32 107z" />
    <glyph glyph-name="circumflexbelowcmb" unicode="&#x32d;" 
d="M-302 -439l229 316h146l223 -316h-175l-119 195h-6l-125 -195h-173z" />
    <glyph glyph-name="brevebelowcmb" unicode="&#x32e;" 
d="M-341 -150h152q0 -102 83 -151q44 -26 121 -26t125 52t49 125h144q0 -112 -79 -210t-250 -98t-258 92t-87 216z" />
    <glyph glyph-name="tildebelowcmb" unicode="&#x330;" 
d="M-123 -260q-65 0 -71 -106h-129q0 96 49 164q48 68 136 67q88 0 165 -75q3 -6 15 -18l18 -17q28 -23 54 -26q62 0 73 117h131q0 -129 -90 -199q-45 -34 -102 -34q-94 0 -159 69q-3 4 -11 11t-12 11q-36 36 -67 36z" />
    <glyph glyph-name="macronbelowcmb" unicode="&#x331;" 
d="M304 -356h-608v129h608v-129z" />
    <glyph glyph-name="Delta" unicode="&#x394;" horiz-adv-x="1325" 
d="M654 1243l-342 -1043h689l-337 1043h-10zM25 0l516 1486h244l518 -1486h-1278z" />
    <glyph glyph-name="Omega" unicode="&#x3a9;" horiz-adv-x="1448" 
d="M833 0v223q75 23 137 91t100 172q37 105 37 228v171q0 328 -231 412q-69 25 -153 25q-169 0 -276 -103q-106 -103 -106 -334v-171q0 -181 75 -314t188 -173v-225h-510v189h256v21q-102 46 -168 186t-65 318v171q0 310 161 470t446 160q389 0 534 -280q74 -143 74 -350
v-171q0 -177 -70 -316t-173 -188v-25h268v-187h-524z" />
    <glyph glyph-name="mu" unicode="&#x3bc;" horiz-adv-x="1286" 
d="M150 -366v1513h220v-735q0 -131 66 -187t180 -56t193 76q80 76 80 186v716h222v-883q0 -104 100 -104q40 0 61 7v-169q-195 -40 -295 35q-63 48 -70 134l-2 27h-12q-23 -82 -108 -146t-221 -65q-65 0 -126 21t-88 56h-11l17 -426h-206z" />
    <glyph glyph-name="pi" unicode="&#x3c0;" horiz-adv-x="1406" 
d="M1138 -12q-94 0 -162 59q-67 59 -66 159v764h-394v-970h-220v970h-244v177h1305v-177h-229v-706q0 -48 25 -74t68 -26t69 7v-171q-58 -12 -152 -12z" />
    <glyph glyph-name="Aringbelow" unicode="&#x1e00;" horiz-adv-x="1325" 
d="M656 -177q-46 0 -78 -31t-31 -78q-1 -47 31 -78t70 -31q72 0 100 54q14 25 14 63t-30 70q-30 31 -76 31zM670 -495q-74 0 -124 27t-78 75q-29 49 -29 123q1 74 63 134t152 59q90 0 154 -59q62 -58 62 -148t-62 -151q-64 -60 -138 -60zM662 1243h-8l-211 -644h427zM250 0
h-227l518 1486h244l518 -1486h-242l-137 427h-535z" />
    <glyph glyph-name="aringbelow" unicode="&#x1e01;" horiz-adv-x="1165" 
d="M475 -304q-1 -114 121 -114q32 0 63 31q30 31 30 77t-30 77q-31 31 -69 31t-63 -13q-52 -29 -52 -89zM582 -520q-90 0 -153 60t-63 150t62 150t154 60q90 0 152 -60t63 -150q0 -90 -62 -150q-63 -60 -153 -60zM544 156q101 0 176 67t75 166v121h-264q-106 0 -159 -46
q-54 -46 -54 -130t62 -131t164 -47zM470 -19q-170 0 -272 95t-102 253q0 210 183 294q92 43 221 43h295v127q0 191 -223 191q-204 0 -222 -172h-213q8 152 113 253q107 101 321 101q445 0 445 -375v-791h-211v150h-8q-44 -75 -126 -122t-201 -47z" />
    <glyph glyph-name="Bdotaccent" unicode="&#x1e02;" horiz-adv-x="1342" 
d="M516 1747q0 51 33 85t85 35q52 0 85 -34q34 -33 34 -85t-34 -84t-85 -32t-85 32q-33 32 -33 83zM395 676v-493h246q288 0 356 121q27 48 27 119q0 125 -79 189t-219 64h-331zM612 853q335 1 335 225q0 114 -66 170t-175 55h-311v-450h217zM173 0v1486h576q191 0 307 -98
t116 -268q0 -132 -67 -214t-177 -113v-10q150 -19 238 -116t87 -251q0 -198 -144 -307t-374 -109h-562z" />
    <glyph glyph-name="bdotaccent" unicode="&#x1e03;" horiz-adv-x="1267" 
d="M381 512q0 -146 73 -244t205 -99t207 91t75 262v98q0 173 -73 268q-73 94 -204 94t-207 -98q-76 -99 -76 -251v-121zM716 -17q-129 0 -215 53t-120 139h-8v-175h-213v1565h221v-578h6q97 179 321 179t341 -143t117 -384v-127q0 -252 -119 -390t-331 -139zM152 1816
q0 80 58 114q26 16 68 16t76 -34t35 -86q0 -52 -34 -84q-33 -33 -85 -33t-85 33q-33 32 -33 74z" />
    <glyph glyph-name="Bdotbelow" unicode="&#x1e04;" horiz-adv-x="1342" 
d="M395 676v-493h246q288 0 356 121q27 48 27 119q0 125 -79 189t-219 64h-331zM612 853q335 1 335 225q0 114 -66 170t-175 55h-311v-450h217zM173 0v1486h576q191 0 307 -98t116 -268q0 -132 -67 -214t-177 -113v-10q150 -19 238 -116t87 -251q0 -198 -144 -307t-374 -109
h-562zM512 -295q0 53 35 89t78 35q43 1 72 -15q63 -34 63 -98t-36 -98t-89 -34q-52 0 -88 34q-35 34 -35 87z" />
    <glyph glyph-name="bdotbelow" unicode="&#x1e05;" horiz-adv-x="1267" 
d="M381 512q0 -146 73 -244t205 -99t207 91t75 262v98q0 173 -73 268q-73 94 -204 94t-207 -98q-76 -99 -76 -251v-121zM716 -17q-129 0 -215 53t-120 139h-8v-175h-213v1565h221v-578h6q97 179 321 179t341 -143t117 -384v-127q0 -252 -119 -390t-331 -139zM514 -286
q0 44 35 80t87 35q52 0 89 -35q37 -34 37 -88t-36 -88t-80 -34t-72 15q-60 35 -60 115z" />
    <glyph glyph-name="Blinebelow" unicode="&#x1e06;" horiz-adv-x="1342" 
d="M935 -356h-608v129h608v-129zM395 676v-493h246q288 0 356 121q27 48 27 119q0 125 -79 189t-219 64h-331zM612 853q335 1 335 225q0 114 -66 170t-175 55h-311v-450h217zM173 0v1486h576q191 0 307 -98t116 -268q0 -132 -67 -214t-177 -113v-10q150 -19 238 -116
t87 -251q0 -198 -144 -307t-374 -109h-562z" />
    <glyph glyph-name="blinebelow" unicode="&#x1e07;" horiz-adv-x="1267" 
d="M381 512q0 -146 73 -244t205 -99t207 91t75 262v98q0 173 -73 268q-73 94 -204 94t-207 -98q-76 -99 -76 -251v-121zM716 -17q-129 0 -215 53t-120 139h-8v-175h-213v1565h221v-578h6q97 179 321 179t341 -143t117 -384v-127q0 -252 -119 -390t-331 -139zM937 -356h-608
v129h608v-129z" />
    <glyph glyph-name="Ccedillaacute" unicode="&#x1e08;" horiz-adv-x="1369" 
d="M660 -406q127 0 127 79q0 55 -67 66q-38 5 -89 5h-59v94l52 135q-241 27 -376 200t-136 472v190q0 325 160 503t436 179q131 1 240 -43q201 -80 282 -278q37 -91 38 -189v-10h-219q0 129 -92 226t-247 97q-232 0 -325 -216q-48 -111 -48 -271v-188q0 -241 100 -360
t277 -118q106 -1 183 41q152 82 152 258h219v-10q0 -107 -54 -212t-167 -183q-114 -76 -281 -88l-44 -117q104 0 165 -45q60 -46 60 -139t-69 -145q-70 -52 -170 -56t-173 17v121q48 -15 125 -15zM577 1644l278 225h238l-323 -225h-193z" />
    <glyph glyph-name="ccedillaacute" unicode="&#x1e09;" horiz-adv-x="1132" 
d="M670 -308q0 48 -34 59t-112 12h-58v93l56 129q-200 21 -309 165t-109 364v125q0 323 223 459q112 70 264 70q206 0 327 -110t123 -261h-211q-14 104 -112 157q-54 30 -123 30q-133 0 -203 -98t-69 -253v-119q1 -152 73 -248t188 -96q214 1 253 165h210q-4 -133 -107 -232
t-274 -118l-50 -110q216 1 216 -185q0 -94 -68 -145q-69 -51 -174 -54t-170 16v120q52 -15 125 -14q125 0 125 79zM624 1324h-179l209 301h226z" />
    <glyph glyph-name="Ddotaccent" unicode="&#x1e0a;" horiz-adv-x="1417" 
d="M395 1295v-1101h254q225 0 335 135t111 412q0 554 -446 554h-254zM173 1486h497q352 0 504 -202t153 -539q1 -336 -151 -540q-152 -205 -506 -205h-497v1486zM535 1738q0 79 58 113q27 16 56 16q55 0 89 -34q34 -33 34 -85t-34 -84t-84 -32t-85 32q-34 32 -34 74z" />
    <glyph glyph-name="ddotaccent" unicode="&#x1e0b;" horiz-adv-x="1269" 
d="M604 980q-180 0 -247 -175q-30 -81 -30 -189v-81q0 -171 72 -270t207 -99t209 96t74 271v89q0 166 -76 262t-209 96zM549 1166q129 0 215 -50t118 -129h7v578h218v-1565h-212v175h-6q-23 -79 -115 -135t-230 -56t-238 65q-202 133 -202 457v137q0 237 116 380t329 143z
M885 1816q0 81 57 114q26 16 68 16t76 -34q36 -34 36 -86t-34 -84q-34 -33 -86 -33q-51 0 -84 33q-33 32 -33 74z" />
    <glyph glyph-name="Ddotbelow" unicode="&#x1e0c;" horiz-adv-x="1417" 
d="M395 1295v-1101h254q225 0 335 135t111 412q0 554 -446 554h-254zM173 1486h497q352 0 504 -202t153 -539q1 -336 -151 -540q-152 -205 -506 -205h-497v1486zM531 -282q0 40 35 76q34 36 88 35q54 0 90 -35q36 -34 36 -88t-36 -88t-76 -34t-62 9q-23 9 -39 25t-26 38
t-10 62z" />
    <glyph glyph-name="ddotbelow" unicode="&#x1e0d;" horiz-adv-x="1269" 
d="M604 980q-180 0 -247 -175q-30 -81 -30 -189v-81q0 -171 72 -270t207 -99t209 96t74 271v89q0 166 -76 262t-209 96zM549 1166q129 0 215 -50t118 -129h7v578h218v-1565h-212v175h-6q-23 -79 -115 -135t-230 -56t-238 65q-202 133 -202 457v137q0 237 116 380t329 143z
M514 -286q0 44 35 80t87 35q52 0 89 -35q37 -34 37 -88t-36 -88t-80 -34t-72 15q-60 35 -60 115z" />
    <glyph glyph-name="Dlinebelow" unicode="&#x1e0e;" horiz-adv-x="1417" 
d="M395 1295v-1101h254q225 0 335 135t111 412q0 554 -446 554h-254zM173 1486h497q352 0 504 -202t153 -539q1 -336 -151 -540q-152 -205 -506 -205h-497v1486zM955 -356h-607v129h607v-129z" />
    <glyph glyph-name="dlinebelow" unicode="&#x1e0f;" horiz-adv-x="1269" 
d="M604 980q-180 0 -247 -175q-30 -81 -30 -189v-81q0 -171 72 -270t207 -99t209 96t74 271v89q0 166 -76 262t-209 96zM549 1166q129 0 215 -50t118 -129h7v578h218v-1565h-212v175h-6q-23 -79 -115 -135t-230 -56t-238 65q-202 133 -202 457v137q0 237 116 380t329 143z
M937 -356h-608v129h608v-129z" />
    <glyph glyph-name="Dcommaaccent" unicode="&#x1e10;" horiz-adv-x="1417" 
d="M395 1295v-1101h254q225 0 335 135t111 412q0 554 -446 554h-254zM173 1486h497q352 0 504 -202t153 -539q1 -336 -151 -540q-152 -205 -506 -205h-497v1486zM635 -533h-160l91 364h194z" />
    <glyph glyph-name="dcommaaccent" unicode="&#x1e11;" horiz-adv-x="1269" 
d="M604 980q-180 0 -247 -175q-30 -81 -30 -189v-81q0 -171 72 -270t207 -99t209 96t74 271v89q0 166 -76 262t-209 96zM549 1166q129 0 215 -50t118 -129h7v578h218v-1565h-212v175h-6q-23 -79 -115 -135t-230 -56t-238 65q-202 133 -202 457v137q0 237 116 380t329 143z
M618 -533h-162l93 364h194z" />
    <glyph glyph-name="Dcircumflexbelow" unicode="&#x1e12;" horiz-adv-x="1417" 
d="M348 -439l231 316h145l223 -316h-177l-116 195h-7l-125 -195h-174zM395 1295v-1101h254q225 0 335 135t111 412q0 554 -446 554h-254zM173 1486h497q352 0 504 -202t153 -539q1 -336 -151 -540q-152 -205 -506 -205h-497v1486z" />
    <glyph glyph-name="dcircumflexbelow" unicode="&#x1e13;" horiz-adv-x="1269" 
d="M331 -439l231 316h144l224 -316h-177l-118 195h-4l-127 -195h-173zM604 980q-180 0 -247 -175q-30 -81 -30 -189v-81q0 -171 72 -270t207 -99t209 96t74 271v89q0 166 -76 262t-209 96zM549 1166q129 0 215 -50t118 -129h7v578h218v-1565h-212v175h-6q-23 -79 -115 -135
t-230 -56t-238 65q-202 133 -202 457v137q0 237 116 380t329 143z" />
    <glyph glyph-name="Emacrongrave" unicode="&#x1e14;" horiz-adv-x="1205" 
d="M926 1661h-608v119h608v-119zM1084 194v-194h-911v1486h911v-194h-689v-443h650v-185h-650v-470h689zM747 1892h-189l-319 221h236z" />
    <glyph glyph-name="emacrongrave" unicode="&#x1e15;" horiz-adv-x="1169" 
d="M889 1322h-608v129h608v-129zM323 683h532v4q0 135 -71 218q-72 83 -195 83t-195 -84t-71 -217v-4zM604 -19q-241 0 -371 146q-129 146 -129 393v100q0 248 127 398t359 150t357 -149t125 -397v-100h-749v-33q1 -137 71 -232t192 -95t180 46t73 115h218
q-16 -121 -117 -226q-50 -53 -138 -85t-198 -31zM701 1613h-177l-258 302h225z" />
    <glyph glyph-name="Emacronacute" unicode="&#x1e16;" horiz-adv-x="1205" 
d="M926 1661h-608v119h608v-119zM1084 194v-194h-911v1486h911v-194h-689v-443h650v-185h-650v-470h689zM495 1892l277 225h240l-323 -225h-194z" />
    <glyph glyph-name="emacronacute" unicode="&#x1e17;" horiz-adv-x="1169" 
d="M889 1322h-608v129h608v-129zM323 683h532v4q0 135 -71 218q-72 83 -195 83t-195 -84t-71 -217v-4zM604 -19q-241 0 -371 146q-129 146 -129 393v100q0 248 127 398t359 150t357 -149t125 -397v-100h-749v-33q1 -137 71 -232t192 -95t180 46t73 115h218
q-16 -121 -117 -226q-50 -53 -138 -85t-198 -31zM643 1613h-177l206 304h227z" />
    <glyph glyph-name="Ecircumflexbelow" unicode="&#x1e18;" horiz-adv-x="1205" 
d="M318 -439l231 316h146l223 -316h-177l-117 195h-6l-127 -195h-173zM1084 194v-194h-911v1486h911v-194h-689v-443h650v-185h-650v-470h689z" />
    <glyph glyph-name="ecircumflexbelow" unicode="&#x1e19;" horiz-adv-x="1169" 
d="M281 -439l231 316h146l222 -316h-177l-116 195h-6l-125 -195h-175zM323 683h532v4q0 135 -71 218q-72 83 -195 83t-195 -84t-71 -217v-4zM604 -19q-241 0 -371 146q-129 146 -129 393v100q0 248 127 398t359 150t357 -149t125 -397v-100h-749v-33q1 -137 71 -232t192 -95
t180 46t73 115h218q-16 -121 -117 -226q-50 -53 -138 -85t-198 -31z" />
    <glyph glyph-name="Etildebelow" unicode="&#x1e1a;" horiz-adv-x="1205" 
d="M1084 194v-194h-911v1486h911v-194h-689v-443h650v-185h-650v-470h689zM500 -260q-67 0 -71 -106h-131q0 96 49 164t137 67q88 0 165 -75q3 -6 15 -18l18 -17q24 -24 55 -26q62 0 73 117h129q0 -130 -89 -199q-45 -34 -114 -34q-82 -1 -138 59q-22 24 -30 30q-6 6 -23 22
t-45 16z" />
    <glyph glyph-name="etildebelow" unicode="&#x1e1b;" horiz-adv-x="1169" 
d="M323 683h532v4q0 135 -71 218q-72 83 -195 83t-195 -84t-71 -217v-4zM604 -19q-241 0 -371 146q-129 146 -129 393v100q0 248 127 398t359 150t357 -149t125 -397v-100h-749v-33q1 -137 71 -232t192 -95t180 46t73 115h218q-16 -121 -117 -226q-50 -53 -138 -85t-198 -31
zM462 -260q-65 0 -71 -106h-129q0 96 48 164t136 67q88 0 166 -75q37 -56 87 -61q62 0 73 117h131q0 -127 -90 -199q-45 -34 -102 -34q-94 0 -159 69q-4 4 -14 13t-19 19q-26 26 -57 26z" />
    <glyph glyph-name="Ecedillabreve" unicode="&#x1e1c;" horiz-adv-x="1205" 
d="M271 1913h143q0 -67 57 -112t151 -45t150 46q56 44 56 111h144q0 -123 -87 -207t-263 -84t-263 84q-88 84 -88 207zM712 -310q0 50 -47 62q-47 11 -109 11h-56v91l54 146h-381v1486h911v-194h-689v-443h650v-185h-650v-470h689v-194h-389l-48 -125q103 0 165 -46t62 -123
q0 -207 -258 -217q-81 -3 -154 18v120q52 -17 123 -16q127 0 127 79z" />
    <glyph glyph-name="ecedillabreve" unicode="&#x1e1d;" horiz-adv-x="1169" 
d="M562 -406q127 0 127 79q0 52 -49 63q-35 8 -107 8h-58v94l56 147q-208 21 -318 164q-109 143 -109 371v100q0 248 127 398t359 150t357 -149t125 -397v-100h-749v-33q1 -137 71 -232t192 -95t180 46t73 115h218q-13 -113 -106 -216q-93 -104 -279 -122l-48 -129
q104 0 165 -45q60 -46 60 -139t-69 -145t-171 -56t-172 17v121q48 -15 125 -15zM323 683h532v4q0 135 -71 218q-72 83 -195 83t-195 -84t-71 -217v-4zM256 1573h144q0 -75 46 -125t121 -51q137 0 177 90q18 39 18 86h143q-4 -121 -84 -215q-79 -93 -237 -93q-160 -1 -244 93
t-84 215z" />
    <glyph glyph-name="Fdotaccent" unicode="&#x1e1e;" horiz-adv-x="1134" 
d="M395 0h-222v1486h899v-194h-677v-476h621v-192h-621v-624zM502 1738q0 80 58 113q26 16 68 16t76 -34q34 -33 35 -85q0 -52 -34 -84q-33 -32 -85 -32t-85 32t-33 74z" />
    <glyph glyph-name="fdotaccent" unicode="&#x1e1f;" horiz-adv-x="761" 
d="M233 0v966h-164v177h164v114q-1 167 87 245t273 78q35 0 98 -7v-170q-50 4 -65 4q-92 0 -134 -36t-42 -131v-97h222v-177h-218v-966h-221zM296 1828q0 92 74 123t128 -25q34 -34 34 -85t-34 -83t-84 -32t-84 32t-34 70z" />
    <glyph glyph-name="Gmacron" unicode="&#x1e20;" horiz-adv-x="1396" 
d="M1020 1661h-608v119h608v-119zM337 845v-198q0 -227 96 -354q97 -127 267 -127t269 87q99 86 99 219v127h-358v186h574v-304q0 -143 -78 -271q-150 -241 -492 -241q-296 0 -449 182t-153 496v200q0 206 75 358t213 232t294 80q409 0 543 -306q39 -87 45 -185h-223
q-10 98 -60 166q-93 126 -272 127q-180 1 -285 -117t-105 -357z" />
    <glyph glyph-name="gmacron" unicode="&#x1e21;" horiz-adv-x="1234" 
d="M601 982q-87 0 -153 -42q-132 -86 -134 -309v-102q0 -157 80 -247t208 -90t200 92q72 93 72 234v115q0 153 -74 251t-199 98zM601 -250q127 0 201 71t74 204v166h-8q-49 -108 -182 -155q-68 -24 -147 -24q-195 0 -321 136t-126 366v144q0 152 58 268t160 177
q102 62 233 63q244 0 331 -179h6v160h215v-1124q0 -229 -142 -340q-141 -111 -369 -111t-345 97q-117 98 -122 242h220q10 -69 73 -115t191 -46zM920 1322h-608v129h608v-129z" />
    <glyph glyph-name="Hdotaccent" unicode="&#x1e22;" horiz-adv-x="1498" 
d="M633 1738q0 80 58 113q27 16 69 16t76 -34q34 -33 34 -85t-34 -84t-84 -32t-85 32q-34 32 -34 74zM1328 0h-225v670h-708v-670h-222v1486h222v-622h708v622h225v-1486z" />
    <glyph glyph-name="hdotaccent" unicode="&#x1e23;" horiz-adv-x="1280" 
d="M154 1826q0 52 33 86t83 34t86 -34q35 -34 35 -86t-34 -84q-34 -33 -85 -33t-85 33q-33 33 -33 84zM162 0v1565h221v-572h8q24 59 103 116q78 57 209 57t227 -56t147 -158q51 -101 51 -232v-720h-218v672q0 140 -68 220t-193 80t-195 -78t-71 -222v-672h-221z" />
    <glyph glyph-name="Hdotbelow" unicode="&#x1e24;" horiz-adv-x="1498" 
d="M629 -282q0 40 35 76t88 35q54 0 90 -35q36 -34 36 -88t-36 -88t-76 -34q-137 0 -137 134zM1328 0h-225v670h-708v-670h-222v1486h222v-622h708v622h225v-1486z" />
    <glyph glyph-name="hdotbelow" unicode="&#x1e25;" horiz-adv-x="1280" 
d="M514 -286q0 44 35 80t87 35q52 0 89 -35q37 -34 37 -88t-36 -88t-80 -34t-72 15q-60 35 -60 115zM162 0v1565h221v-572h8q24 59 103 116q78 57 209 57t227 -56t147 -158q51 -101 51 -232v-720h-218v672q0 140 -68 220t-193 80t-195 -78t-71 -222v-672h-221z" />
    <glyph glyph-name="Hdieresis" unicode="&#x1e26;" horiz-adv-x="1498" 
d="M1041 1724q0 -42 -28 -70t-71 -28t-70 27q-27 28 -27 71t27 71t71 28t71 -28t27 -71zM607 1823q43 0 69 -28t27 -71q0 -42 -27 -70q-28 -28 -70 -28t-70 27q-28 28 -28 71t28 71t71 28zM1328 0h-225v670h-708v-670h-222v1486h222v-622h708v622h225v-1486z" />
    <glyph glyph-name="hdieresis" unicode="&#x1e27;" horiz-adv-x="1280" 
d="M358 1802q0 40 30 71t79 31t80 -31t31 -80t-30 -80q-32 -31 -72 -31t-66 14q-52 32 -52 106zM-37 1793q0 49 31 80t79 31t79 -31t31 -71q-1 -40 -15 -66q-32 -56 -87 -55q-56 1 -87 32t-31 80zM162 0v1565h221v-572h8q24 59 103 116q78 57 209 57t227 -56t147 -158
q51 -101 51 -232v-720h-218v672q0 140 -68 220t-193 80t-195 -78t-71 -222v-672h-221z" />
    <glyph glyph-name="Hcedilla" unicode="&#x1e28;" horiz-adv-x="1498" 
d="M414 -310q0 51 -48 62t-108 11h-58v91l54 146h-81v1486h222v-622h708v622h225v-1486h-225v670h-708v-670l-45 -125q104 0 165 -46q61 -45 61 -139t-68 -145q-70 -51 -170 -55t-176 17v120q52 -17 127 -16q125 0 125 79z" />
    <glyph glyph-name="hcedilla" unicode="&#x1e29;" horiz-adv-x="1280" 
d="M266 -406q125 0 125 79q0 52 -48 63q-33 8 -106 8h-58v94l60 162h-77v1565h221v-572h8q24 59 103 116q78 57 209 57t227 -56t147 -158q51 -101 51 -232v-720h-218v672q0 140 -68 220t-193 80t-195 -78t-71 -222v-672l-54 -144q104 0 164 -46q61 -46 61 -138
q0 -93 -69 -145t-171 -56t-172 17v121q48 -15 124 -15z" />
    <glyph glyph-name="Hbrevebelow" unicode="&#x1e2a;" horiz-adv-x="1498" 
d="M1328 0h-225v670h-708v-670h-222v1486h222v-622h708v622h225v-1486zM408 -150h152q0 -73 49 -125t141 -52t140 52q49 52 49 125h141q0 -124 -83 -216t-253 -92t-253 95t-83 213z" />
    <glyph glyph-name="hbrevebelow" unicode="&#x1e2b;" horiz-adv-x="1280" 
d="M162 0v1565h221v-572h8q24 59 103 116q78 57 209 57t227 -56t147 -158q51 -101 51 -232v-720h-218v672q0 140 -68 220t-193 80t-195 -78t-71 -222v-672h-221zM293 -150h150q0 -73 49 -125t141 -52q93 0 141 52t48 125h144q0 -124 -84 -216t-248 -92q-165 0 -253 92
t-88 216z" />
    <glyph glyph-name="Itildebelow" unicode="&#x1e2c;" horiz-adv-x="566" 
d="M160 -260q-65 0 -71 -106h-129q0 96 49 164t137 67q88 0 164 -75q4 -6 16 -18l17 -17q28 -24 55 -26q62 0 72 117h131q0 -129 -90 -199q-45 -34 -102 -34q-94 0 -159 69q-4 4 -11 10q-5 6 -13 16q-7 10 -21 16q-13 6 -20 12q-7 4 -25 4zM395 0h-222v1486h222v-1486z" />
    <glyph glyph-name="itildebelow" unicode="&#x1e2d;" horiz-adv-x="586" 
d="M173 -260q-67 0 -71 -106h-131q0 96 49 164t144 67q95 0 173 -93q30 -33 45 -37q15 -5 26 -6q65 0 75 117h129q0 -128 -91 -199q-45 -34 -93 -34t-87 12t-81 57q-2 4 -12 13t-14 13q-32 32 -61 32zM158 1429q0 55 39 90t97 35t98 -34q39 -36 39 -91t-39 -91t-98 -37
q-60 1 -98 37t-38 91zM185 0v1147h219v-1147h-219z" />
    <glyph glyph-name="Idieresisacute" unicode="&#x1e2e;" horiz-adv-x="566" 
d="M379 1712q1 110 97 111q46 0 72 -28t26 -71q0 -42 -28 -70t-70 -28t-70 27q-27 27 -27 59zM239 1724q0 -42 -28 -70t-71 -28q-42 0 -70 27q-28 28 -28 71t28 71t70 28t71 -28q28 -28 28 -71zM156 1892l279 225h237l-322 -225h-194zM395 0h-222v1486h222v-1486z" />
    <glyph glyph-name="idieresisacute" unicode="&#x1e2f;" horiz-adv-x="586" 
d="M383 1376q0 48 31 80t79 32t79 -31q32 -31 32 -80t-32 -80t-79 -31q-48 0 -79 30q-31 32 -31 80zM-12 1376q0 48 31 80t80 32t79 -31t30 -80t-31 -80t-79 -31t-79 30q-31 32 -31 80zM185 0v1147h223v-1147h-223zM354 1613h-177l206 304h227z" />
    <glyph glyph-name="Kacute" unicode="&#x1e30;" horiz-adv-x="1315" 
d="M395 0h-222v1486h222v-701h11l618 701h258l-547 -635l574 -851h-279l-460 697l-175 -189v-508zM510 1644l277 225h239l-323 -225h-193z" />
    <glyph glyph-name="kacute" unicode="&#x1e31;" horiz-adv-x="1132" 
d="M327 1740h-177l206 304h227zM381 0h-221v1565h221v-924h10l442 506h251l-441 -498l470 -649h-260l-372 518l-100 -102v-416z" />
    <glyph glyph-name="Kdotbelow" unicode="&#x1e32;" horiz-adv-x="1315" 
d="M395 0h-222v1486h222v-701h11l618 701h258l-547 -635l574 -851h-279l-460 697l-175 -189v-508zM537 -282q0 40 35 76q34 36 88 35q54 0 90 -35q36 -34 36 -88t-36 -88t-76 -34t-62 9q-23 9 -39 25t-26 38t-10 62z" />
    <glyph glyph-name="kdotbelow" unicode="&#x1e33;" horiz-adv-x="1132" 
d="M381 0h-221v1565h221v-924h10l442 506h251l-441 -498l470 -649h-260l-372 518l-100 -102v-416zM584 -171q83 0 117 -60q17 -29 17 -73t-36 -78t-85 -34t-71 16q-56 44 -56 101t36 93q34 36 78 35z" />
    <glyph glyph-name="Klinebelow" unicode="&#x1e34;" horiz-adv-x="1315" 
d="M962 -356h-608v129h608v-129zM395 0h-222v1486h222v-701h11l618 701h258l-547 -635l574 -851h-279l-460 697l-175 -189v-508z" />
    <glyph glyph-name="klinebelow" unicode="&#x1e35;" horiz-adv-x="1132" 
d="M893 -356h-606v129h606v-129zM381 0h-221v1565h221v-924h10l442 506h251l-441 -498l470 -649h-260l-372 518l-100 -102v-416z" />
    <glyph glyph-name="Ldotbelow" unicode="&#x1e36;" horiz-adv-x="1086" 
d="M1064 198v-198h-891v1486h222v-1288h669zM433 -295q0 53 35 89t78 35q43 1 72 -15q63 -34 63 -98q-1 -64 -37 -98t-88 -34t-88 34q-35 34 -35 87z" />
    <glyph glyph-name="ldotbelow" unicode="&#x1e37;" horiz-adv-x="551" 
d="M167 0v1565h218v-1565h-218zM156 -280q0 38 35 74t87 35q52 0 89 -35q37 -34 37 -88t-36 -88t-87 -34q-50 0 -75 22q-50 36 -50 114z" />
    <glyph glyph-name="Ldotbelowmacron" unicode="&#x1e38;" horiz-adv-x="1086" 
d="M585 1661h-606v119h606v-119zM1064 198v-198h-891v1486h222v-1288h669zM433 -295q0 53 35 89t78 35q43 1 72 -15q63 -34 63 -98q-1 -64 -37 -98t-88 -34t-88 34q-35 34 -35 87z" />
    <glyph glyph-name="ldotbelowmacron" unicode="&#x1e39;" horiz-adv-x="551" 
d="M579 1738h-608v129h608v-129zM167 0v1565h218v-1565h-218zM156 -280q0 38 35 74t87 35q52 0 89 -35q37 -34 37 -88t-36 -88t-87 -34q-50 0 -75 22q-50 36 -50 114z" />
    <glyph glyph-name="Llinebelow" unicode="&#x1e3a;" horiz-adv-x="1086" 
d="M1064 198v-198h-891v1486h222v-1288h669zM855 -356h-607v129h607v-129z" />
    <glyph glyph-name="llinebelow" unicode="&#x1e3b;" horiz-adv-x="551" 
d="M167 0v1565h218v-1565h-218zM579 -356h-608v129h608v-129z" />
    <glyph glyph-name="Lcircumflexbelow" unicode="&#x1e3c;" horiz-adv-x="1086" 
d="M250 -439l231 316h143l223 -316h-175l-118 195h-5l-126 -195h-173zM1064 198v-198h-891v1486h222v-1288h669z" />
    <glyph glyph-name="lcircumflexbelow" unicode="&#x1e3d;" horiz-adv-x="551" 
d="M-27 -439l231 316h144l224 -316h-177l-118 195h-4l-127 -195h-173zM167 0v1565h218v-1565h-218z" />
    <glyph glyph-name="Macute" unicode="&#x1e3e;" horiz-adv-x="1739" 
d="M379 0h-202v1486h221l470 -1086h6l468 1086h223v-1486h-202v1049h-8l-400 -903h-170l-400 903h-6v-1049zM743 1644l279 225h237l-322 -225h-194z" />
    <glyph glyph-name="macute" unicode="&#x1e3f;" horiz-adv-x="1902" 
d="M158 0v1147h217v-148h12q29 69 106 118t188 49q258 0 326 -188h11q47 111 186 160q74 28 179 28t191 -47q178 -96 176 -336v-783h-218v731q0 111 -60 177t-172 66t-174 -71t-62 -187v-716h-217v716q0 126 -62 192t-173 66q-142 0 -202 -115q-31 -59 -31 -141v-718h-221z
M1009 1324h-176l208 301h224z" />
    <glyph glyph-name="Mdotaccent" unicode="&#x1e40;" horiz-adv-x="1739" 
d="M379 0h-202v1486h221l470 -1086h6l468 1086h223v-1486h-202v1049h-8l-400 -903h-170l-400 903h-6v-1049zM872 1632q-50 0 -84 32t-35 74q0 80 59 113q26 16 68 16t77 -34q35 -33 35 -85t-34 -84q-36 -32 -86 -32z" />
    <glyph glyph-name="mdotaccent" unicode="&#x1e41;" horiz-adv-x="1902" 
d="M158 0v1147h217v-148h12q29 69 106 118t188 49q258 0 326 -188h11q47 111 186 160q74 28 179 28t191 -47q178 -96 176 -336v-783h-218v731q0 111 -60 177t-172 66t-174 -71t-62 -187v-716h-217v716q0 126 -62 192t-173 66q-142 0 -202 -115q-31 -59 -31 -141v-718h-221z
M837 1409q0 50 33 84q33 35 83 35q49 0 85 -34t36 -84q0 -51 -34 -84q-34 -34 -86 -34t-84 34q-33 34 -33 83z" />
    <glyph glyph-name="Mdotbelow" unicode="&#x1e42;" horiz-adv-x="1739" 
d="M379 0h-202v1486h221l470 -1086h6l468 1086h223v-1486h-202v1049h-8l-400 -903h-170l-400 903h-6v-1049zM749 -282q-1 40 35 76t80 35q85 0 118 -60q17 -29 17 -73t-36 -78t-76 -34q-138 0 -138 134z" />
    <glyph glyph-name="mdotbelow" unicode="&#x1e43;" horiz-adv-x="1902" 
d="M158 0v1147h217v-148h12q29 69 106 118t188 49q258 0 326 -188h11q47 111 186 160q74 28 179 28t191 -47q178 -96 176 -336v-783h-218v731q0 111 -60 177t-172 66t-174 -71t-62 -187v-716h-217v716q0 126 -62 192t-173 66q-142 0 -202 -115q-31 -59 -31 -141v-718h-221z
M833 -304q-1 44 15 72q33 63 96 62q64 -1 100 -36q36 -34 36 -88t-36 -88t-88 -34t-88 34q-35 34 -35 78z" />
    <glyph glyph-name="Ndotaccent" unicode="&#x1e44;" horiz-adv-x="1488" 
d="M389 0h-216v1486h202l718 -1103h6v1103h218v-1486h-204l-718 1105h-6v-1105zM629 1747q0 51 33 85t84 35q51 0 85 -34q35 -33 35 -85t-34 -84t-86 -32q-51 0 -84 32t-33 83z" />
    <glyph glyph-name="ndotaccent" unicode="&#x1e45;" horiz-adv-x="1273" 
d="M158 0v1147h217v-154h8q33 71 121 122t210 51q176 0 292 -106t116 -298v-762h-221v687q0 285 -258 285q-169 0 -233 -132q-31 -66 -31 -161v-679h-221zM522 1409q0 50 34 84q34 35 83 35q50 0 85 -34q36 -34 36 -84q0 -51 -36 -84q-36 -34 -85 -34t-83 34t-34 83z" />
    <glyph glyph-name="Ndotbelow" unicode="&#x1e46;" horiz-adv-x="1488" 
d="M389 0h-216v1486h202l718 -1103h6v1103h218v-1486h-204l-718 1105h-6v-1105zM748 -416q-52 0 -88 34t-36 87t36 89t78 35q84 0 117 -60q17 -29 17 -73t-36 -78t-88 -34z" />
    <glyph glyph-name="ndotbelow" unicode="&#x1e47;" horiz-adv-x="1273" 
d="M158 0v1147h217v-154h8q33 71 121 122t210 51q176 0 292 -106t116 -298v-762h-221v687q0 285 -258 285q-169 0 -233 -132q-31 -66 -31 -161v-679h-221zM516 -286q0 44 36 80t89 35q52 0 88 -35q37 -34 37 -88t-36 -88t-80 -34t-72 15q-62 35 -62 115z" />
    <glyph glyph-name="Nlinebelow" unicode="&#x1e48;" horiz-adv-x="1488" 
d="M389 0h-216v1486h202l718 -1103h6v1103h218v-1486h-204l-718 1105h-6v-1105zM1047 -356h-608v129h608v-129z" />
    <glyph glyph-name="nlinebelow" unicode="&#x1e49;" horiz-adv-x="1273" 
d="M158 0v1147h217v-154h8q33 71 121 122t210 51q176 0 292 -106t116 -298v-762h-221v687q0 285 -258 285q-169 0 -233 -132q-31 -66 -31 -161v-679h-221zM941 -356h-608v129h608v-129z" />
    <glyph glyph-name="Ncircumflexbelow" unicode="&#x1e4a;" horiz-adv-x="1488" 
d="M441 -439l231 316h144l225 -316h-177l-119 195h-4l-127 -195h-173zM389 0h-216v1486h202l718 -1103h6v1103h218v-1486h-204l-718 1105h-6v-1105z" />
    <glyph glyph-name="ncircumflexbelow" unicode="&#x1e4b;" horiz-adv-x="1273" 
d="M335 -439l229 316h146l222 -316h-174l-119 195h-6l-125 -195h-173zM158 0v1147h217v-154h8q33 71 121 122t210 51q176 0 292 -106t116 -298v-762h-221v687q0 285 -258 285q-169 0 -233 -132q-31 -66 -31 -161v-679h-221z" />
    <glyph glyph-name="Otildeacute" unicode="&#x1e4c;" horiz-adv-x="1440" 
d="M608 1727q-65 0 -69 -97h-127q0 88 48 152t132 64t159 -73q6 -4 34 -29t56 -25q29 0 47 33t22 75h124q0 -85 -51 -151t-134 -65q-55 -1 -89 15t-67 47q-5 10 -12 15q-7 6 -12 11t-9 7t-10 7q-20 14 -42 14zM112 631v210q0 314 164 495t446 181q184 0 322 -81t212 -234
t74 -361v-210q0 -312 -164 -487t-446 -175t-446 175q-162 175 -162 487zM337 843v-212q0 -229 105 -347t277 -118t278 118t106 347v212q0 229 -106 354t-277 125q-232 0 -332 -216q-51 -109 -51 -263zM593 1892l277 225h239l-322 -225h-194z" />
    <glyph glyph-name="otildeacute" unicode="&#x1e4d;" horiz-adv-x="1213" 
d="M600 987q-70 1 -128 -31t-89 -86q-62 -108 -60 -264v-63q0 -287 171 -360q49 -21 114 -21q281 0 281 381v63q0 130 -38 220q-67 161 -251 161zM609 1168q247 0 375 -149t127 -399v-89q0 -254 -128 -402q-129 -148 -377 -148t-375 147t-127 403v87q0 246 129 398t376 152z
M481 1390q-67 0 -73 -110h-135q0 106 51 179t148 73t178 -96q32 -34 46 -38q15 -3 26 -4q37 0 55 36t20 83h135q0 -98 -56 -175t-148 -77t-158 73q-14 14 -15 16t-7 7q-6 6 -12 11l-12 8t-14 9q-9 5 -29 5zM666 1613h-179l208 304h227z" />
    <glyph glyph-name="Otildedieresis" unicode="&#x1e4e;" horiz-adv-x="1440" 
d="M608 1727q-65 0 -69 -97h-127q0 88 48 152t132 64t159 -73q6 -4 34 -29t56 -25q29 0 47 33t22 75h124q0 -85 -51 -151t-134 -65q-55 -1 -89 15t-67 47q-5 10 -12 15q-7 6 -12 11t-9 7t-10 7q-20 14 -42 14zM112 631v210q0 314 164 495t446 181q184 0 322 -81t212 -234
t74 -361v-210q0 -312 -164 -487t-446 -175t-446 175q-162 175 -162 487zM337 843v-212q0 -229 105 -347t277 -118t278 118t106 347v212q0 229 -106 354t-277 125q-232 0 -332 -216q-51 -109 -51 -263zM791 2001q0 49 27 77q28 28 64 28q104 0 104 -106q0 -36 -26 -64
q-28 -28 -64 -27q-36 0 -58 13q-47 30 -47 79zM553 2106q43 0 71 -28t27 -71q0 -43 -28 -71q-29 -28 -71 -27q-42 -1 -69 27t-27 71t27 71t70 28z" />
    <glyph glyph-name="otildedieresis" unicode="&#x1e4f;" horiz-adv-x="1213" 
d="M600 987q-70 1 -128 -31t-89 -86q-62 -108 -60 -264v-63q0 -287 171 -360q49 -21 114 -21q281 0 281 381v63q0 130 -38 220q-67 161 -251 161zM609 1168q247 0 375 -149t127 -399v-89q0 -254 -128 -402q-129 -148 -377 -148t-375 147t-127 403v87q0 246 129 398t376 152z
M695 1694q0 40 30 71q31 31 71 31q77 0 105 -53q15 -27 15 -67t-31 -71t-72 -31t-66 14q-52 32 -52 106zM300 1698q0 36 31 67t71 31t65 -14q55 -29 54 -96q-1 -68 -54 -98q-26 -15 -54 -15t-48 9q-65 26 -65 116zM481 1390q-67 0 -73 -110h-135q0 106 51 179t148 73
t178 -96q32 -34 46 -38q15 -3 26 -4q37 0 55 36t20 83h135q0 -98 -56 -175t-148 -77t-158 73q-14 14 -15 16t-7 7q-6 6 -12 11l-12 8t-14 9q-9 5 -29 5z" />
    <glyph glyph-name="Omacrongrave" unicode="&#x1e50;" horiz-adv-x="1440" 
d="M1024 1661h-608v119h608v-119zM112 631v210q0 314 164 495t446 181q184 0 322 -81t212 -234t74 -361v-210q0 -312 -164 -487t-446 -175t-446 175q-162 175 -162 487zM337 843v-212q0 -229 105 -347t277 -118t278 118t106 347v212q0 229 -106 354t-277 125
q-232 0 -332 -216q-51 -109 -51 -263zM845 1892h-189l-319 221h235z" />
    <glyph glyph-name="omacrongrave" unicode="&#x1e51;" horiz-adv-x="1213" 
d="M600 987q-70 1 -128 -31t-89 -86q-62 -108 -60 -264v-63q0 -287 171 -360q49 -21 114 -21q281 0 281 381v63q0 130 -38 220q-67 161 -251 161zM609 1168q247 0 375 -149t127 -399v-89q0 -254 -128 -402q-129 -148 -377 -148t-375 147t-127 403v87q0 246 129 398t376 152z
M910 1322h-608v129h608v-129zM724 1613h-179l-258 302h227z" />
    <glyph glyph-name="Omacronacute" unicode="&#x1e52;" horiz-adv-x="1440" 
d="M1024 1661h-608v119h608v-119zM112 631v210q0 314 164 495t446 181q184 0 322 -81t212 -234t74 -361v-210q0 -312 -164 -487t-446 -175t-446 175q-162 175 -162 487zM337 843v-212q0 -229 105 -347t277 -118t278 118t106 347v212q0 229 -106 354t-277 125
q-232 0 -332 -216q-51 -109 -51 -263zM593 1892l277 225h239l-322 -225h-194z" />
    <glyph glyph-name="omacronacute" unicode="&#x1e53;" horiz-adv-x="1213" 
d="M600 987q-70 1 -128 -31t-89 -86q-62 -108 -60 -264v-63q0 -287 171 -360q49 -21 114 -21q281 0 281 381v63q0 130 -38 220q-67 161 -251 161zM609 1168q247 0 375 -149t127 -399v-89q0 -254 -128 -402q-129 -148 -377 -148t-375 147t-127 403v87q0 246 129 398t376 152z
M910 1322h-608v129h608v-129zM666 1613h-179l208 304h227z" />
    <glyph glyph-name="Pacute" unicode="&#x1e54;" horiz-adv-x="1267" 
d="M395 1297v-569h209q187 0 278 57q100 60 100 227q0 209 -161 266q-53 19 -120 19h-306zM173 1486h558q219 0 351 -131t131 -342q0 -211 -132 -341t-353 -131h-333v-541h-222v1486zM481 1644l277 225h239l-323 -225h-193z" />
    <glyph glyph-name="pacute" unicode="&#x1e55;" horiz-adv-x="1265" 
d="M691 1324h-177l206 301h227zM939 522v104q0 168 -73 262t-204 94t-206 -94t-75 -245v-131q0 -148 76 -246t203 -97q127 0 203 89q76 90 76 264zM381 156v-549h-221v1542h213v-162h8q35 81 123 130t220 49q198 0 318 -138t119 -381v-147q0 -162 -55 -280
q-110 -237 -388 -237q-239 0 -331 173h-6z" />
    <glyph glyph-name="Pdotaccent" unicode="&#x1e56;" horiz-adv-x="1267" 
d="M728 1734q0 -38 -34 -70t-85 -32t-85 32q-33 32 -33 76q-1 44 11 63q41 64 92 64q96 0 125 -72q9 -23 9 -61zM395 1297v-569h209q187 0 278 57q100 60 100 227q0 209 -161 266q-53 19 -120 19h-306zM173 1486h558q219 0 351 -131t131 -342q0 -211 -132 -341t-353 -131
h-333v-541h-222v1486z" />
    <glyph glyph-name="pdotaccent" unicode="&#x1e57;" horiz-adv-x="1265" 
d="M516 1400q0 79 58 113q26 15 70 15t76 -34t33 -84q0 -51 -34 -84q-34 -34 -84 -34q-51 0 -85 34q-34 32 -34 74zM939 522v104q0 168 -73 262t-204 94t-206 -94t-75 -245v-131q0 -148 76 -246t203 -97q127 0 203 89q76 90 76 264zM381 156v-549h-221v1542h213v-162h8
q35 81 123 130t220 49q198 0 318 -138t119 -381v-147q0 -162 -55 -280q-110 -237 -388 -237q-239 0 -331 173h-6z" />
    <glyph glyph-name="Rdotaccent" unicode="&#x1e58;" horiz-adv-x="1336" 
d="M635 1632q-51 0 -85 32t-34 74q0 79 58 113q28 16 70 16t76 -33t33 -85q0 -53 -34 -85t-84 -32zM393 764h298q144 0 220 68t76 196q-1 129 -79 200t-211 71h-304v-535zM726 1486q242 0 368 -128t126 -310t-82 -284q-82 -104 -193 -144l302 -620h-254l-271 579h-329v-579
h-220v1486h553z" />
    <glyph glyph-name="rdotaccent" unicode="&#x1e59;" horiz-adv-x="786" 
d="M341 1409q1 50 35 84q34 35 84 35t84 -34t34 -84q0 -51 -34 -84q-34 -34 -85 -34t-85 34t-33 83zM175 0v1147h218v-142h9q73 161 279 161q40 0 77 -7v-197q-31 8 -100 8q-260 0 -260 -273v-697h-223z" />
    <glyph glyph-name="Rdotbelow" unicode="&#x1e5a;" horiz-adv-x="1336" 
d="M393 764h298q144 0 220 68t76 196q-1 129 -79 200t-211 71h-304v-535zM726 1486q242 0 368 -128t126 -310t-82 -284q-82 -104 -193 -144l302 -620h-254l-271 579h-329v-579h-220v1486h553zM512 -295q0 53 35 89t89 35q54 0 89 -35q37 -34 37 -88t-36 -88t-90 -34
q-53 0 -89 34q-35 34 -35 87z" />
    <glyph glyph-name="rdotbelow" unicode="&#x1e5b;" horiz-adv-x="786" 
d="M175 0v1147h218v-142h9q73 161 279 161q40 0 77 -7v-197q-31 8 -100 8q-260 0 -260 -273v-697h-223zM169 -282q0 40 35 76t88 35q52 0 88 -35q36 -34 36 -88t-35 -88t-75 -34q-137 0 -137 134z" />
    <glyph glyph-name="Rdotbelowmacron" unicode="&#x1e5c;" horiz-adv-x="1336" 
d="M937 1661h-608v119h608v-119zM393 764h298q144 0 220 68t76 196q-1 129 -79 200t-211 71h-304v-535zM726 1486q242 0 368 -128t126 -310t-82 -284q-82 -104 -193 -144l302 -620h-254l-271 579h-329v-579h-220v1486h553zM512 -295q0 53 35 89t89 35q54 0 89 -35
q37 -34 37 -88t-36 -88t-90 -34q-53 0 -89 34q-35 34 -35 87z" />
    <glyph glyph-name="rdotbelowmacron" unicode="&#x1e5d;" horiz-adv-x="786" 
d="M762 1322h-608v129h608v-129zM175 0v1147h218v-142h9q73 161 279 161q40 0 77 -7v-197q-31 8 -100 8q-260 0 -260 -273v-697h-223zM169 -282q0 40 35 76t88 35q52 0 88 -35q36 -34 36 -88t-35 -88t-75 -34q-137 0 -137 134z" />
    <glyph glyph-name="Rlinebelow" unicode="&#x1e5e;" horiz-adv-x="1336" 
d="M937 -356h-608v129h608v-129zM393 764h298q144 0 220 68t76 196q-1 129 -79 200t-211 71h-304v-535zM726 1486q242 0 368 -128t126 -310t-82 -284q-82 -104 -193 -144l302 -620h-254l-271 579h-329v-579h-220v1486h553z" />
    <glyph glyph-name="rlinebelow" unicode="&#x1e5f;" horiz-adv-x="786" 
d="M593 -356h-608v129h608v-129zM175 0v1147h218v-142h9q73 161 279 161q40 0 77 -7v-197q-31 8 -100 8q-260 0 -260 -273v-697h-223z" />
    <glyph glyph-name="Sdotaccent" unicode="&#x1e60;" horiz-adv-x="1275" 
d="M637 1632q-49 0 -83 32t-34 83t34 85t83 35q50 0 85 -34q36 -33 36 -85t-36 -84t-85 -32zM630 160q154 0 238 66q85 66 85 164t-57 152q-57 53 -180 82l-252 65q-156 37 -256 134t-100 261q0 102 43 186q80 157 285 220q95 29 200 29q213 0 363 -108q73 -52 117 -135
t45 -185h-216q-11 105 -91 173t-218 68t-220 -61t-83 -170q0 -158 208 -208l248 -63q187 -46 289 -140t102 -270q0 -212 -157 -332t-409 -119q-146 1 -255 41q-190 71 -262 245q-30 74 -32 153h222q9 -106 99 -177t244 -71z" />
    <glyph glyph-name="sdotaccent" unicode="&#x1e61;" horiz-adv-x="1086" 
d="M427 1409q0 50 33 84q33 35 84 35q52 0 86 -34t34 -84q0 -51 -34 -84q-34 -34 -86 -34t-84 34q-33 34 -33 83zM993 336q0 -164 -126 -260t-333 -95q-207 -1 -328 89t-121 244h215q10 -78 70 -122t174 -44t173 47t59 117t-32 93q-32 24 -50 34t-82 27t-130 29
q-66 13 -115 27q-126 35 -194 102q-67 67 -67 189t64 203q117 150 373 152q198 0 308 -97t111 -251h-200q-21 186 -245 184q-78 0 -138 -46q-60 -45 -61 -121q0 -119 184 -153l75 -14q21 -4 69 -12q135 -24 232 -86q115 -72 115 -236z" />
    <glyph glyph-name="Sdotbelow" unicode="&#x1e62;" horiz-adv-x="1275" 
d="M630 160q154 0 238 66q85 66 85 164t-57 152q-57 53 -180 82l-252 65q-156 37 -256 134t-100 261q0 102 43 186q80 157 285 220q95 29 200 29q213 0 363 -108q73 -52 117 -135t45 -185h-216q-11 105 -91 173t-218 68t-220 -61t-83 -170q0 -158 208 -208l248 -63
q187 -46 289 -140t102 -270q0 -212 -157 -332t-409 -119q-146 1 -255 41q-190 71 -262 245q-30 74 -32 153h222q9 -106 99 -177t244 -71zM618 -416q-52 0 -88 34t-37 87q1 53 37 89t78 35q84 0 118 -60q17 -29 17 -73t-36 -78q-37 -34 -89 -34z" />
    <glyph glyph-name="sdotbelow" unicode="&#x1e63;" horiz-adv-x="1086" 
d="M993 336q0 -164 -126 -260t-333 -95q-207 -1 -328 89t-121 244h215q10 -78 70 -122t174 -44t173 47t59 117t-32 93q-32 24 -50 34t-82 27t-130 29q-66 13 -115 27q-126 35 -194 102q-67 67 -67 189t64 203q117 150 373 152q198 0 308 -97t111 -251h-200q-21 186 -245 184
q-78 0 -138 -46q-60 -45 -61 -121q0 -119 184 -153l75 -14q21 -4 69 -12q135 -24 232 -86q115 -72 115 -236zM423 -286q0 44 35 80t87 35q53 0 89 -35q36 -34 36 -88t-36 -88t-80 -34t-71 15q-60 35 -60 115z" />
    <glyph glyph-name="Sacutedotaccent" unicode="&#x1e64;" horiz-adv-x="1275" 
d="M630 160q154 0 238 66q85 66 85 164t-57 152q-57 53 -180 82l-252 65q-156 37 -256 134t-100 261q0 102 43 186q80 157 285 220q95 29 200 29q213 0 363 -108q73 -52 117 -135t45 -185h-216q-11 105 -91 173t-218 68t-220 -61t-83 -170q0 -158 208 -208l248 -63
q187 -46 289 -140t102 -270q0 -212 -157 -332t-409 -119q-146 1 -255 41q-190 71 -262 245q-30 74 -32 153h222q9 -106 99 -177t244 -71zM610 1690l279 225h237l-321 -225h-195zM289 1826q0 45 30 77q30 33 76 33t77 -32q32 -32 32 -77q0 -46 -32 -76t-77 -30q-46 0 -76 30
t-30 75z" />
    <glyph glyph-name="sacutedotaccent" unicode="&#x1e65;" horiz-adv-x="1086" 
d="M685 1324h-177l206 301h227zM993 336q0 -164 -126 -260t-333 -95q-207 -1 -328 89t-121 244h215q10 -78 70 -122t174 -44t173 47t59 117t-32 93q-32 24 -50 34t-82 27t-130 29q-66 13 -115 27q-126 35 -194 102q-67 67 -67 189t64 203q117 150 373 152q198 0 308 -97
t111 -251h-200q-21 186 -245 184q-78 0 -138 -46q-60 -45 -61 -121q0 -119 184 -153l75 -14q21 -4 69 -12q135 -24 232 -86q115 -72 115 -236zM326 1417q-40 -1 -70 31q-31 32 -31 80t31 80q30 32 66 32q90 0 117 -69q8 -21 8 -47t-14 -53q-33 -54 -107 -54z" />
    <glyph glyph-name="Scarondotaccent" unicode="&#x1e66;" horiz-adv-x="1275" 
d="M271 1881h193l169 -137h8l169 137h191l-300 -239h-129zM630 160q154 0 238 66q85 66 85 164t-57 152q-57 53 -180 82l-252 65q-156 37 -256 134t-100 261q0 102 43 186q80 157 285 220q95 29 200 29q213 0 363 -108q73 -52 117 -135t45 -185h-216q-11 105 -91 173
t-218 68t-220 -61t-83 -170q0 -158 208 -208l248 -63q187 -46 289 -140t102 -270q0 -212 -157 -332t-409 -119q-146 1 -255 41q-190 71 -262 245q-30 74 -32 153h222q9 -106 99 -177t244 -71zM535 2037q0 45 29 75q30 30 62 30t61 -13t41 -43q13 -30 13 -54q0 -58 -52 -84
q-25 -12 -61 -12t-65 28q-28 28 -28 73z" />
    <glyph glyph-name="scarondotaccent" unicode="&#x1e67;" horiz-adv-x="1086" 
d="M993 336q0 -164 -126 -260t-333 -95q-207 -1 -328 89t-121 244h215q10 -78 70 -122t174 -44t173 47t59 117t-32 93q-32 24 -50 34t-82 27t-130 29q-66 13 -115 27q-126 35 -194 102q-67 67 -67 189t64 203q117 150 373 152q198 0 308 -97t111 -251h-200q-21 186 -245 184
q-78 0 -138 -46q-60 -45 -61 -121q0 -119 184 -153l75 -14q21 -4 69 -12q135 -24 232 -86q115 -72 115 -236zM244 1630h172l127 -202h4l119 204h175l-223 -327h-143zM425 1860q0 49 32 81t80 32t81 -32t33 -81t-33 -80q-33 -32 -81 -32t-80 32t-32 80z" />
    <glyph glyph-name="Sdotbelowdotaccent" unicode="&#x1e68;" horiz-adv-x="1275" 
d="M637 1632q-49 0 -83 32t-34 83t34 85t83 35q50 0 85 -34q36 -33 36 -85t-36 -84t-85 -32zM630 160q154 0 238 66q85 66 85 164t-57 152q-57 53 -180 82l-252 65q-156 37 -256 134t-100 261q0 102 43 186q80 157 285 220q95 29 200 29q213 0 363 -108q73 -52 117 -135
t45 -185h-216q-11 105 -91 173t-218 68t-220 -61t-83 -170q0 -158 208 -208l248 -63q187 -46 289 -140t102 -270q0 -212 -157 -332t-409 -119q-146 1 -255 41q-190 71 -262 245q-30 74 -32 153h222q9 -106 99 -177t244 -71zM618 -416q-52 0 -88 34t-37 87q1 53 37 89t78 35
q84 0 118 -60q17 -29 17 -73t-36 -78q-37 -34 -89 -34z" />
    <glyph glyph-name="sdotbelowdotaccent" unicode="&#x1e69;" horiz-adv-x="1086" 
d="M427 1409q0 50 33 84q33 35 84 35q52 0 86 -34t34 -84q0 -51 -34 -84q-34 -34 -86 -34t-84 34q-33 34 -33 83zM993 336q0 -164 -126 -260t-333 -95q-207 -1 -328 89t-121 244h215q10 -78 70 -122t174 -44t173 47t59 117t-32 93q-32 24 -50 34t-82 27t-130 29
q-66 13 -115 27q-126 35 -194 102q-67 67 -67 189t64 203q117 150 373 152q198 0 308 -97t111 -251h-200q-21 186 -245 184q-78 0 -138 -46q-60 -45 -61 -121q0 -119 184 -153l75 -14q21 -4 69 -12q135 -24 232 -86q115 -72 115 -236zM423 -286q0 44 35 80t87 35
q53 0 89 -35q36 -34 36 -88t-36 -88t-80 -34t-71 15q-60 35 -60 115z" />
    <glyph glyph-name="Tdotaccent" unicode="&#x1e6a;" horiz-adv-x="1146" 
d="M685 0h-223v1290h-443v196h1109v-196h-443v-1290zM458 1747q0 51 33 85t83 35q50 0 86 -34q36 -33 35 -85q0 -52 -35 -84q-36 -32 -86 -32t-83 32t-33 83z" />
    <glyph glyph-name="tdotaccent" unicode="&#x1e6b;" horiz-adv-x="743" 
d="M221 1143v287h216v-287h225v-177h-225v-633q0 -96 39 -130t140 -34q25 0 52 2v-173q-44 -6 -106 -6q-200 0 -272 76t-71 255v643h-159v177h161zM338 1800q52 0 86 -34t34 -85t-34 -83t-86 -33q-52 1 -84 33q-33 32 -33 83t33 85t84 34z" />
    <glyph glyph-name="Tdotbelow" unicode="&#x1e6c;" horiz-adv-x="1146" 
d="M685 0h-223v1290h-443v196h1109v-196h-443v-1290zM454 -280q0 38 35 74t77 35q42 1 72 -15q65 -34 64 -113q-1 -78 -78 -108q-23 -9 -58 -9t-63 22q-49 33 -49 114z" />
    <glyph glyph-name="tdotbelow" unicode="&#x1e6d;" horiz-adv-x="743" 
d="M221 1143v287h216v-287h225v-177h-225v-633q0 -96 39 -130t140 -34q25 0 52 2v-173q-44 -6 -106 -6q-200 0 -272 76t-71 255v643h-159v177h161zM472 -416q-140 0 -139 136q0 38 35 74q34 36 88 35q54 0 89 -35q35 -34 35 -88t-34 -88q-36 -34 -74 -34z" />
    <glyph glyph-name="Tlinebelow" unicode="&#x1e6e;" horiz-adv-x="1146" 
d="M685 0h-223v1290h-443v196h1109v-196h-443v-1290zM876 -356h-608v129h608v-129z" />
    <glyph glyph-name="tlinebelow" unicode="&#x1e6f;" horiz-adv-x="743" 
d="M221 1143v287h216v-287h225v-177h-225v-633q0 -96 39 -130t140 -34q25 0 52 2v-173q-44 -6 -106 -6q-200 0 -272 76t-71 255v643h-159v177h161zM758 -356h-608v129h608v-129z" />
    <glyph glyph-name="Tcircumflexbelow" unicode="&#x1e70;" horiz-adv-x="1146" 
d="M271 -439l231 316h143l223 -316h-175l-119 195h-4l-127 -195h-172zM685 0h-223v1290h-443v196h1109v-196h-443v-1290z" />
    <glyph glyph-name="tcircumflexbelow" unicode="&#x1e71;" horiz-adv-x="743" 
d="M150 -439l231 316h146l222 -316h-177l-116 195h-6l-127 -195h-173zM221 1143v287h216v-287h225v-177h-225v-633q0 -96 39 -130t140 -34q25 0 52 2v-173q-44 -6 -106 -6q-200 0 -272 76t-71 255v643h-159v177h161z" />
    <glyph glyph-name="Udieresisbelow" unicode="&#x1e72;" horiz-adv-x="1458" 
d="M814 -338q0 49 31 80t79 31t79 -31t31 -80t-31 -80q-31 -32 -79 -32t-79 32t-31 80zM418 -338q0 49 32 80t80 31q49 0 80 -31t31 -80t-31 -80q-31 -32 -80 -32q-48 0 -80 32t-32 80zM379 1486v-959q1 -167 95 -264t255 -97t258 97q96 97 95 264v959h223v-970
q0 -246 -158 -396q-159 -150 -417 -151q-258 0 -417 152t-159 399v966h225z" />
    <glyph glyph-name="udieresisbelow" unicode="&#x1e73;" horiz-adv-x="1267" 
d="M718 -338q0 49 31 80t79 31t79 -31t31 -80t-30 -80q-32 -32 -80 -32t-79 32t-31 80zM323 -338q0 49 31 80t80 31t80 -31t31 -80t-31 -80q-31 -32 -80 -32t-80 32t-31 80zM1111 1147v-1147h-218v156h-8q-33 -75 -117 -125t-214 -50q-183 0 -294 104q-110 104 -110 298v764
h220v-704q0 -268 256 -268q119 0 191 72t72 200v700h222z" />
    <glyph glyph-name="Utildebelow" unicode="&#x1e74;" horiz-adv-x="1458" 
d="M379 1486v-959q1 -167 95 -264t255 -97t258 97q96 97 95 264v959h223v-970q0 -246 -158 -396q-159 -150 -417 -151q-258 0 -417 152t-159 399v966h225zM608 -260q-67 0 -71 -106h-131q0 96 49 164t137 67q88 0 166 -75q38 -57 85 -61q65 0 75 117h129q0 -131 -90 -199
q-46 -34 -102 -34q-55 0 -91 18q-36 19 -54 37l-27 27q-10 9 -18 19t-28 18q-21 8 -29 8z" />
    <glyph glyph-name="utildebelow" unicode="&#x1e75;" horiz-adv-x="1267" 
d="M1111 1147v-1147h-218v156h-8q-33 -75 -117 -125t-214 -50q-183 0 -294 104q-110 104 -110 298v764h220v-704q0 -268 256 -268q119 0 191 72t72 200v700h222zM512 -260q-67 0 -71 -106h-131q0 96 49 164t137 67q88 0 166 -75q38 -57 85 -61q65 0 75 117h129
q0 -90 -52 -161q-52 -72 -134 -72q-105 -1 -157 59q-12 14 -19 21q-8 7 -28 27t-49 20z" />
    <glyph glyph-name="Ucircumflexbelow" unicode="&#x1e76;" horiz-adv-x="1458" 
d="M427 -439l231 316h145l223 -316h-177l-116 195h-7l-127 -195h-172zM379 1486v-959q1 -167 95 -264t255 -97t258 97q96 97 95 264v959h223v-970q0 -246 -158 -396q-159 -150 -417 -151q-258 0 -417 152t-159 399v966h225z" />
    <glyph glyph-name="ucircumflexbelow" unicode="&#x1e77;" horiz-adv-x="1267" 
d="M331 -439l231 316h144l224 -316h-177l-118 195h-4l-127 -195h-173zM1111 1147v-1147h-218v156h-8q-33 -75 -117 -125t-214 -50q-183 0 -294 104q-110 104 -110 298v764h220v-704q0 -268 256 -268q119 0 191 72t72 200v700h222z" />
    <glyph glyph-name="Utildeacute" unicode="&#x1e78;" horiz-adv-x="1458" 
d="M423 1630q0 89 46 153q47 63 133 63t160 -73q6 -4 32 -29t56 -25t48 33t20 75h127q0 -85 -52 -151q-53 -66 -121 -66t-107 19q-39 18 -59 39q-19 22 -21 25q-6 8 -25 21t-42 13q-65 0 -69 -97h-126zM379 1486v-959q1 -167 95 -264t255 -97t258 97q96 97 95 264v959h223
v-970q0 -246 -158 -396q-159 -150 -417 -151q-258 0 -417 152t-159 399v966h225zM604 1892l276 225h240l-323 -225h-193z" />
    <glyph glyph-name="utildeacute" unicode="&#x1e79;" horiz-adv-x="1267" 
d="M508 1390q-67 0 -73 -110h-135q0 106 51 179t148 73t178 -96q32 -34 46 -38q15 -3 26 -4q37 0 55 36t20 83h135q0 -98 -56 -175q-55 -77 -147 -77t-159 73q-14 14 -15 16q-2 2 -8 7l-11 11q-5 4 -11 8t-15 9t-29 5zM693 1613h-179l208 304h227zM1111 1147v-1147h-218v156
h-8q-33 -75 -117 -125t-214 -50q-183 0 -294 104q-110 104 -110 298v764h220v-704q0 -268 256 -268q119 0 191 72t72 200v700h222z" />
    <glyph glyph-name="Umacrondieresis" unicode="&#x1e7a;" horiz-adv-x="1458" 
d="M1032 1661h-605v119h605v-119zM379 1486v-959q1 -167 95 -264t255 -97t258 97q96 97 95 264v959h223v-970q0 -246 -158 -396q-159 -150 -417 -151q-258 0 -417 152t-159 399v966h225zM997 2007q0 -43 -28 -71t-71 -27q-43 -1 -70 27t-27 71t27 71t71 28t71 -28t27 -71z
M662 2007q0 -43 -28 -71t-71 -27q-43 -1 -71 27t-28 71t28 71t71 28t71 -28t28 -71z" />
    <glyph glyph-name="umacrondieresis" unicode="&#x1e7b;" horiz-adv-x="1267" 
d="M831 1796q49 0 81 -31t31 -87t-55 -90q-24 -15 -65 -15q-41 -1 -71 31t-30 81t30 80t79 31zM327 1685q0 49 31 80t79 31t79 -31t31 -67q0 -89 -70 -117q-70 -27 -119 23q-31 32 -31 81zM937 1322h-608v129h608v-129zM1111 1147v-1147h-218v156h-8q-33 -75 -117 -125
t-214 -50q-183 0 -294 104q-110 104 -110 298v764h220v-704q0 -268 256 -268q119 0 191 72t72 200v700h222z" />
    <glyph glyph-name="Vtilde" unicode="&#x1e7c;" horiz-adv-x="1321" 
d="M785 0h-248l-522 1486h258l389 -1213h8l385 1213h252zM549 1727q-67 0 -70 -97h-127q0 88 48 152t135 64t174 -87q36 -40 69 -40t51 33t20 75h127q0 -119 -87 -184q-44 -32 -100 -32q-91 -1 -139 47l-28 28l-16 16t-10 9q-4 2 -11 6q-15 10 -36 10z" />
    <glyph glyph-name="vtilde" unicode="&#x1e7d;" horiz-adv-x="1090" 
d="M423 0l-398 1147h241l269 -928h8l292 928h233l-412 -1147h-233zM418 1390q-67 0 -73 -110h-135q0 106 51 179t145 73t182 -96q32 -35 47 -38q14 -4 32 -4t40 27t30 92h133q0 -98 -56 -175t-148 -77t-158 73l-24 24q-32 32 -66 32z" />
    <glyph glyph-name="Vdotbelow" unicode="&#x1e7e;" horiz-adv-x="1321" 
d="M785 0h-248l-522 1486h258l389 -1213h8l385 1213h252zM539 -304q0 82 61 118q28 16 72 16t80 -36q36 -34 36 -88t-36 -88t-88 -34t-89 34q-36 34 -36 78z" />
    <glyph glyph-name="vdotbelow" unicode="&#x1e7f;" horiz-adv-x="1090" 
d="M423 0l-398 1147h241l269 -928h8l292 928h233l-412 -1147h-233zM425 -295q0 53 35 89t88 35q52 0 88 -35q36 -34 36 -88t-35 -88t-89 -34t-88 34q-35 34 -35 87z" />
    <glyph glyph-name="Wgrave" unicode="&#x1e80;" horiz-adv-x="1848" 
d="M620 0h-204l-404 1486h254l258 -1128h9l283 1128h216l283 -1128h9l260 1128h252l-404 -1486h-204l-300 1122h-8zM1049 1644h-189l-319 221h233z" />
    <glyph glyph-name="wgrave" unicode="&#x1e81;" horiz-adv-x="1623" 
d="M1594 1147l-304 -1147h-220l-250 862h-4l-244 -862h-224l-317 1147h240l193 -887h11l239 887h208l248 -887h8l198 887h218zM930 1326h-179l-258 299h227z" />
    <glyph glyph-name="Wacute" unicode="&#x1e82;" horiz-adv-x="1848" 
d="M620 0h-204l-404 1486h254l258 -1128h9l283 1128h216l283 -1128h9l260 1128h252l-404 -1486h-204l-300 1122h-8zM797 1644l277 225h239l-322 -225h-194z" />
    <glyph glyph-name="wacute" unicode="&#x1e83;" horiz-adv-x="1623" 
d="M1594 1147l-304 -1147h-220l-250 862h-4l-244 -862h-224l-317 1147h240l193 -887h11l239 887h208l248 -887h8l198 887h218zM870 1324h-177l208 301h225z" />
    <glyph glyph-name="Wdieresis" unicode="&#x1e84;" horiz-adv-x="1848" 
d="M620 0h-204l-404 1486h254l258 -1128h9l283 1128h216l283 -1128h9l260 1128h252l-404 -1486h-204l-300 1122h-8zM1020 1712q0 110 96 111q46 0 72 -28t27 -71q0 -42 -27 -70q-26 -28 -70 -28t-71 27t-27 59zM782 1823q42 0 70 -28t28 -71q0 -42 -28 -70t-70 -28t-71 27
q-28 28 -28 71t28 71t71 28z" />
    <glyph glyph-name="wdieresis" unicode="&#x1e85;" horiz-adv-x="1623" 
d="M1594 1147l-304 -1147h-220l-250 862h-4l-244 -862h-224l-317 1147h240l193 -887h11l239 887h208l248 -887h8l198 887h218zM901 1388q0 36 30 68t79 32q48 0 80 -31t32 -80t-31 -80t-68 -31t-57 8q-65 25 -65 114zM506 1376q0 48 31 80t79 32t79 -31t31 -80t-31 -80
t-79 -31t-79 30q-31 32 -31 80z" />
    <glyph glyph-name="Wdotaccent" unicode="&#x1e86;" horiz-adv-x="1848" 
d="M620 0h-204l-404 1486h254l258 -1128h9l283 1128h216l283 -1128h9l260 1128h252l-404 -1486h-204l-300 1122h-8zM808 1738q0 80 58 113q26 16 68 16t76 -34q34 -33 34 -85t-34 -84t-85 -32t-84 32t-33 74z" />
    <glyph glyph-name="wdotaccent" unicode="&#x1e87;" horiz-adv-x="1623" 
d="M1594 1147l-304 -1147h-220l-250 862h-4l-244 -862h-224l-317 1147h240l193 -887h11l239 887h208l248 -887h8l198 887h218zM697 1400q0 78 57 113q26 15 56 15t51 -9q71 -27 73 -123q0 -38 -34 -70q-34 -34 -85 -34t-85 34q-34 32 -33 74z" />
    <glyph glyph-name="Wdotbelow" unicode="&#x1e88;" horiz-adv-x="1848" 
d="M620 0h-204l-404 1486h254l258 -1128h9l283 1128h216l283 -1128h9l260 1128h252l-404 -1486h-204l-300 1122h-8zM803 -282q-1 40 35 76t80 35q83 0 116 -60q17 -29 17 -73t-35 -78t-75 -34q-138 0 -138 134z" />
    <glyph glyph-name="wdotbelow" unicode="&#x1e89;" horiz-adv-x="1623" 
d="M1594 1147l-304 -1147h-220l-250 862h-4l-244 -862h-224l-317 1147h240l193 -887h11l239 887h208l248 -887h8l198 887h218zM693 -295q0 53 35 89q36 36 88 35q52 0 88 -35q36 -34 36 -88t-36 -88t-88 -34t-88 34q-35 34 -35 87z" />
    <glyph glyph-name="Xdotaccent" unicode="&#x1e8a;" horiz-adv-x="1244" 
d="M506 1748q0 87 85 115q15 4 35 4q48 0 83 -34q34 -33 34 -85t-34 -84q-33 -32 -85 -32t-85 32t-33 84zM1245 1486l-485 -749l476 -737h-264l-352 568h-12l-356 -568h-248l477 749l-471 737h267l352 -572h12l348 572h256z" />
    <glyph glyph-name="xdotaccent" unicode="&#x1e8b;" horiz-adv-x="1123" 
d="M445 1409q1 50 35 84q34 35 84 35t84 -34t34 -84q0 -51 -34 -84q-34 -34 -84 -34t-84 34t-35 83zM818 0l-256 416h-8l-258 -416h-242l377 568l-383 579h260l250 -412h10l256 412h248l-385 -562l387 -585h-256z" />
    <glyph glyph-name="Xdieresis" unicode="&#x1e8c;" horiz-adv-x="1244" 
d="M912 1724q0 -42 -27 -70t-70 -28t-70 27t-27 71t26 72t70 27q44 0 71 -28t27 -71zM381 1724q0 43 28 71t71 28q44 0 70 -28t27 -70t-28 -71q-24 -28 -68 -28q-44 -1 -72 27t-28 71zM1245 1486l-485 -749l476 -737h-264l-352 568h-12l-356 -568h-248l477 749l-471 737h267
l352 -572h12l348 572h256z" />
    <glyph glyph-name="xdieresis" unicode="&#x1e8d;" horiz-adv-x="1123" 
d="M649 1388q-1 36 31 68t81 32t79 -31t30 -80t-31 -80t-67 -31q-122 -2 -123 122zM254 1376q0 48 31 80t71 32q76 0 106 -55q15 -25 15 -65q1 -40 -31 -71t-81 -31t-80 30q-31 32 -31 80zM818 0l-256 416h-8l-258 -416h-242l377 568l-383 579h260l250 -412h10l256 412h248
l-385 -562l387 -585h-256z" />
    <glyph glyph-name="Ydotaccent" unicode="&#x1e8e;" horiz-adv-x="1205" 
d="M487 1747q0 51 34 85t71 35q64 0 98 -34q34 -33 34 -85t-34 -84t-84 -32t-85 32q-34 32 -34 83zM714 0h-223v616l-497 870h254l351 -649h9l356 649h247l-497 -868v-618z" />
    <glyph glyph-name="ydotaccent" unicode="&#x1e8f;" horiz-adv-x="1144" 
d="M456 1409q0 50 33 84q54 56 131 26q73 -25 73 -123q0 -38 -34 -70q-33 -34 -85 -34t-85 34t-33 83zM268 -416q-79 0 -141 10v171q29 -6 107 -6q157 0 199 174l17 55l-417 1159h244l287 -941h10l290 941h235q-398 -1136 -400 -1141l-29 -79q-55 -150 -142 -246
q-88 -97 -260 -97z" />
    <glyph glyph-name="Zcircumflex" unicode="&#x1e90;" horiz-adv-x="1257" 
d="M268 1640l302 260h129l298 -260h-192l-168 154h-8l-169 -154h-192zM89 0v154l773 1132v6h-748v194h1022v-152l-766 -1134v-6h785v-194h-1066z" />
    <glyph glyph-name="zcircumflex" unicode="&#x1e91;" horiz-adv-x="1063" 
d="M100 0v139l593 823v12h-593v173h862v-144l-583 -816v-10h593v-177h-872zM227 1326l231 322h146l220 -324h-175l-118 202h-4l-127 -200h-173z" />
    <glyph glyph-name="Zdotbelow" unicode="&#x1e92;" horiz-adv-x="1257" 
d="M89 0v154l773 1132v6h-748v194h1022v-152l-766 -1134v-6h785v-194h-1066zM508 -286q0 44 35 80t79 35q44 1 73 -15q63 -34 63 -98t-36 -98t-80 -34t-73 15q-61 34 -61 115z" />
    <glyph glyph-name="zdotbelow" unicode="&#x1e93;" horiz-adv-x="1063" 
d="M100 0v139l593 823v12h-593v173h862v-144l-583 -816v-10h593v-177h-872zM412 -295q0 53 35 89t87 35q52 0 89 -35q37 -34 37 -88t-36 -88t-89 -34q-52 0 -88 34q-35 34 -35 87z" />
    <glyph glyph-name="Zlinebelow" unicode="&#x1e94;" horiz-adv-x="1257" 
d="M932 -356h-607v129h607v-129zM89 0v154l773 1132v6h-748v194h1022v-152l-766 -1134v-6h785v-194h-1066z" />
    <glyph glyph-name="zlinebelow" unicode="&#x1e95;" horiz-adv-x="1063" 
d="M100 0v139l593 823v12h-593v173h862v-144l-583 -816v-10h593v-177h-872zM835 -356h-608v129h608v-129z" />
    <glyph glyph-name="hlinebelow" unicode="&#x1e96;" horiz-adv-x="1280" 
d="M937 -356h-608v129h608v-129zM162 0v1565h221v-572h8q24 59 103 116q78 57 209 57t227 -56t147 -158q51 -101 51 -232v-720h-218v672q0 140 -68 220t-193 80t-195 -78t-71 -222v-672h-221z" />
    <glyph glyph-name="tdieresis" unicode="&#x1e97;" horiz-adv-x="743" 
d="M425 1648q0 48 30 79t79 31t80 -30q31 -32 31 -81t-31 -79t-79 -30t-79 31t-31 79zM131 1538q-57 0 -87 52q-14 24 -15 66q0 40 31 71t80 31q50 0 80 -30q30 -32 30 -80t-31 -79t-88 -31zM221 1143v287h216v-287h225v-177h-225v-633q0 -96 39 -130t140 -34q25 0 52 2
v-173q-44 -6 -106 -6q-200 0 -272 76t-71 255v643h-159v177h161z" />
    <glyph glyph-name="wring" unicode="&#x1e98;" horiz-adv-x="1623" 
d="M701 1507q-1 -46 31 -77t79 -31t77 31t30 77t-30 77t-77 31t-79 -31t-31 -77zM810 1299q-90 0 -152 59q-62 58 -62 148t62 150t152 61q90 0 154 -60q62 -59 62 -149t-62 -150q-64 -59 -154 -59zM1594 1147l-304 -1147h-220l-250 862h-4l-244 -862h-224l-317 1147h240
l193 -887h11l239 887h208l248 -887h8l198 887h218z" />
    <glyph glyph-name="yring" unicode="&#x1e99;" horiz-adv-x="1144" 
d="M462 1507q0 -46 31 -77t69 -31q38 -1 62 13q54 29 53 85t-31 87t-76 31t-77 -31t-31 -77zM562 1299q-52 0 -101 27t-77 75q-28 47 -28 121t61 134t153 61q92 0 153 -60t62 -150q0 -44 -17 -83q-32 -78 -114 -110q-40 -16 -92 -15zM268 -416q-79 0 -141 10v171
q29 -6 107 -6q157 0 199 174l17 55l-417 1159h244l287 -941h10l290 941h235q-398 -1136 -400 -1141l-29 -79q-55 -150 -142 -246q-88 -97 -260 -97z" />
    <glyph glyph-name="Adotbelow" unicode="&#x1ea0;" horiz-adv-x="1325" 
d="M543 -282q-1 40 35 76t89 35q53 0 89 -35q36 -34 35 -88q0 -54 -35 -88t-75 -34q-138 0 -138 134zM662 1243h-8l-211 -644h427zM250 0h-227l518 1486h244l518 -1486h-242l-137 427h-535z" />
    <glyph glyph-name="adotbelow" unicode="&#x1ea1;" horiz-adv-x="1165" 
d="M602 -416q-140 0 -140 136q0 38 35 74t89 35q54 0 89 -35q37 -34 37 -88t-36 -88t-74 -34zM544 156q101 0 176 67t75 166v121h-264q-106 0 -159 -46q-54 -46 -54 -130t62 -131t164 -47zM470 -19q-170 0 -272 95t-102 253q0 210 183 294q92 43 221 43h295v127
q0 191 -223 191q-204 0 -222 -172h-213q8 152 113 253q107 101 321 101q445 0 445 -375v-791h-211v150h-8q-44 -75 -126 -122t-201 -47z" />
    <glyph glyph-name="Ahookabove" unicode="&#x1ea2;" horiz-adv-x="1325" 
d="M716 1755q0 65 -98 64q-58 0 -100 -12v108q46 15 128 15t145 -44q62 -44 62 -123q0 -119 -158 -179l-75 91q96 26 96 80zM662 1243h-8l-211 -644h427zM250 0h-227l518 1486h244l518 -1486h-242l-137 427h-535z" />
    <glyph glyph-name="ahookabove" unicode="&#x1ea3;" horiz-adv-x="1165" 
d="M576 1705q92 -1 157 -55t65 -141t-47 -137q-46 -50 -129 -96l-75 98q58 31 83 58q24 28 24 64t-32 61t-85 25q-54 0 -100 -17v119q47 21 139 21zM544 156q101 0 176 67t75 166v121h-264q-106 0 -159 -46q-54 -46 -54 -130t62 -131t164 -47zM470 -19q-170 0 -272 95
t-102 253q0 210 183 294q92 43 221 43h295v127q0 191 -223 191q-204 0 -222 -172h-213q8 152 113 253q107 101 321 101q445 0 445 -375v-791h-211v150h-8q-44 -75 -126 -122t-201 -47z" />
    <glyph glyph-name="Acircumflexacute" unicode="&#x1ea4;" horiz-adv-x="1325" 
d="M882 1850l200 231h204l-279 -252zM300 1653l297 256h131l300 -256h-191l-169 149h-10l-167 -149h-191zM662 1243h-8l-211 -644h427zM250 0h-227l518 1486h244l518 -1486h-242l-137 427h-535z" />
    <glyph glyph-name="acircumflexacute" unicode="&#x1ea5;" horiz-adv-x="1165" 
d="M803 1511l200 231h202l-277 -252zM219 1313l297 258h131l302 -258h-191l-171 152h-8l-167 -152h-193zM544 156q101 0 176 67t75 166v121h-264q-106 0 -159 -46q-54 -46 -54 -130t62 -131t164 -47zM470 -19q-170 0 -272 95t-102 253q0 210 183 294q92 43 221 43h295v127
q0 191 -223 191q-204 0 -222 -172h-213q8 152 113 253q107 101 321 101q445 0 445 -375v-791h-211v150h-8q-44 -75 -126 -122t-201 -47z" />
    <glyph glyph-name="Acircumflexgrave" unicode="&#x1ea6;" horiz-adv-x="1325" 
d="M1028 1653h-191l-169 149h-10l-167 -149h-191l297 256h131zM1168 1829h-148l-285 252h200zM662 1243h-8l-211 -644h427zM250 0h-227l518 1486h244l518 -1486h-242l-137 427h-535z" />
    <glyph glyph-name="acircumflexgrave" unicode="&#x1ea7;" horiz-adv-x="1165" 
d="M949 1313h-191l-171 152h-8l-167 -152h-193l297 258h131zM1086 1490h-147l-285 252h199zM544 156q101 0 176 67t75 166v121h-264q-106 0 -159 -46q-54 -46 -54 -130t62 -131t164 -47zM470 -19q-170 0 -272 95t-102 253q0 210 183 294q92 43 221 43h295v127
q0 191 -223 191q-204 0 -222 -172h-213q8 152 113 253q107 101 321 101q445 0 445 -375v-791h-211v150h-8q-44 -75 -126 -122t-201 -47z" />
    <glyph glyph-name="Acircumflexhookabove" unicode="&#x1ea8;" horiz-adv-x="1325" 
d="M1095 1969q0 -98 -115 -162l-68 70q54 37 54 71q0 68 -88 67q-35 0 -64 -4v97q36 8 108 8t122 -38q50 -39 51 -109zM298 1642l299 242h129l302 -242h-191l-171 140h-8l-167 -140h-193zM662 1243h-8l-211 -644h427zM250 0h-227l518 1486h244l518 -1486h-242l-137 427h-535
z" />
    <glyph glyph-name="acircumflexhookabove" unicode="&#x1ea9;" horiz-adv-x="1165" 
d="M840 1777q72 0 125 -38q51 -39 51 -107q0 -100 -117 -165l-66 73q52 34 52 68q0 69 -88 67q-35 0 -62 -4v100q33 6 105 6zM219 1305l297 239h131l300 -239h-191l-171 137h-8l-167 -137h-191zM544 156q101 0 176 67t75 166v121h-264q-106 0 -159 -46q-54 -46 -54 -130
t62 -131t164 -47zM470 -19q-170 0 -272 95t-102 253q0 210 183 294q92 43 221 43h295v127q0 191 -223 191q-204 0 -222 -172h-213q8 152 113 253q107 101 321 101q445 0 445 -375v-791h-211v150h-8q-44 -75 -126 -122t-201 -47z" />
    <glyph glyph-name="Acircumflextilde" unicode="&#x1eaa;" horiz-adv-x="1325" 
d="M341 1961q0 83 51 146q50 63 138 63t169 -68q1 -4 13 -13t15 -13q24 -29 63 -28q39 0 53 33t21 75h133q0 -88 -54 -150t-127 -62t-107 16t-70 46q-54 52 -92 52q-68 1 -72 -97h-134zM302 1638l299 254h130l301 -254h-193l-169 150h-8l-169 -150h-191zM662 1243h-8
l-211 -644h427zM250 0h-227l518 1486h244l518 -1486h-242l-137 427h-535z" />
    <glyph glyph-name="acircumflextilde" unicode="&#x1eab;" horiz-adv-x="1165" 
d="M707 1711q58 0 78 108h131q0 -89 -54 -151t-127 -63t-107 15t-70 47q-54 52 -92 52q-67 0 -73 -98h-131q0 85 50 147t144 64q94 1 177 -82q10 -10 14 -13t19 -15t41 -11zM223 1301l297 252h129l302 -252h-191l-169 150h-10l-167 -150h-191zM544 156q101 0 176 67t75 166
v121h-264q-106 0 -159 -46q-54 -46 -54 -130t62 -131t164 -47zM470 -19q-170 0 -272 95t-102 253q0 210 183 294q92 43 221 43h295v127q0 191 -223 191q-204 0 -222 -172h-213q8 152 113 253q107 101 321 101q445 0 445 -375v-791h-211v150h-8q-44 -75 -126 -122t-201 -47z
" />
    <glyph glyph-name="Acircumflexdotbelow" unicode="&#x1eac;" horiz-adv-x="1325" 
d="M302 1640l302 260h129l297 -260h-191l-169 154h-8l-169 -154h-191zM543 -282q-1 40 35 76t89 35q53 0 89 -35q36 -34 35 -88q0 -54 -35 -88t-75 -34q-138 0 -138 134zM662 1243h-8l-211 -644h427zM250 0h-227l518 1486h244l518 -1486h-242l-137 427h-535z" />
    <glyph glyph-name="acircumflexdotbelow" unicode="&#x1ead;" horiz-adv-x="1165" 
d="M602 -416q-140 0 -140 136q0 38 35 74t89 35q54 0 89 -35q37 -34 37 -88t-36 -88t-74 -34zM277 1326l233 322h144l222 -324h-177l-116 202h-4l-127 -200h-175zM544 156q101 0 176 67t75 166v121h-264q-106 0 -159 -46q-54 -46 -54 -130t62 -131t164 -47zM470 -19
q-170 0 -272 95t-102 253q0 210 183 294q92 43 221 43h295v127q0 191 -223 191q-204 0 -222 -172h-213q8 152 113 253q107 101 321 101q445 0 445 -375v-791h-211v150h-8q-44 -75 -126 -122t-201 -47z" />
    <glyph glyph-name="Abreveacute" unicode="&#x1eae;" horiz-adv-x="1325" 
d="M552 1875l270 265h198l-296 -265h-172zM974 1867q0 -106 -80 -181t-230 -75q-104 0 -178 37q-139 69 -141 219h140q2 -57 49 -95t130 -38t131 37t48 96h131zM662 1243h-8l-211 -644h427zM250 0h-227l518 1486h244l518 -1486h-242l-137 427h-535z" />
    <glyph glyph-name="abreveacute" unicode="&#x1eaf;" horiz-adv-x="1165" 
d="M470 1538l273 262h196l-294 -262h-175zM893 1528q0 -104 -79 -180t-231 -76t-234 75t-83 181h140q0 -77 80 -115q41 -19 97 -19q114 0 158 66q21 30 21 68h131zM544 156q101 0 176 67t75 166v121h-264q-106 0 -159 -46q-54 -46 -54 -130t62 -131t164 -47zM470 -19
q-170 0 -272 95t-102 253q0 210 183 294q92 43 221 43h295v127q0 191 -223 191q-204 0 -222 -172h-213q8 152 113 253q107 101 321 101q445 0 445 -375v-791h-211v150h-8q-44 -75 -126 -122t-201 -47z" />
    <glyph glyph-name="Abrevegrave" unicode="&#x1eb0;" horiz-adv-x="1325" 
d="M791 1875h-175l-298 265h200zM974 1867q0 -106 -80 -181t-230 -75q-226 0 -299 160q-20 46 -20 96h140q0 -57 47 -95t131 -38t131 37t49 96h131zM662 1243h-8l-211 -644h427zM250 0h-227l518 1486h244l518 -1486h-242l-137 427h-535z" />
    <glyph glyph-name="abrevegrave" unicode="&#x1eb1;" horiz-adv-x="1165" 
d="M710 1538h-175l-296 262h198zM893 1528q0 -104 -79 -180t-231 -76t-235 75t-84 181h142q0 -56 47 -95t130 -39t131 39t48 95h131zM544 156q101 0 176 67t75 166v121h-264q-106 0 -159 -46q-54 -46 -54 -130t62 -131t164 -47zM470 -19q-170 0 -272 95t-102 253
q0 210 183 294q92 43 221 43h295v127q0 191 -223 191q-204 0 -222 -172h-213q8 152 113 253q107 101 321 101q445 0 445 -375v-791h-211v150h-8q-44 -75 -126 -122t-201 -47z" />
    <glyph glyph-name="Abrevehookabove" unicode="&#x1eb2;" horiz-adv-x="1325" 
d="M614 2152q79 0 138 -41q60 -41 60 -107t-46 -115t-92 -62l-81 82q27 8 51 28q24 21 24 47t-31 42t-71 16t-75 -9v109q44 10 123 10zM974 1857q0 -102 -79 -175t-231 -73t-235 73t-84 177h140q0 -75 81 -113q42 -19 110 -19q68 -1 118 37q49 38 49 93h131zM662 1243h-8
l-211 -644h427zM250 0h-227l518 1486h244l518 -1486h-242l-137 427h-535z" />
    <glyph glyph-name="abrevehookabove" unicode="&#x1eb3;" horiz-adv-x="1165" 
d="M587 1644q0 27 -30 43t-72 16t-73 -9v108q44 10 122 10t137 -40q59 -41 59 -107t-45 -114q-46 -48 -92 -61l-81 79q27 8 51 28t24 47zM893 1519q0 -104 -79 -177q-79 -72 -230 -72t-234 72t-84 177h140q0 -55 47 -93t130 -38t131 39t48 92h131zM544 156q101 0 176 67
t75 166v121h-264q-106 0 -159 -46q-54 -46 -54 -130t62 -131t164 -47zM470 -19q-170 0 -272 95t-102 253q0 210 183 294q92 43 221 43h295v127q0 191 -223 191q-204 0 -222 -172h-213q8 152 113 253q107 101 321 101q445 0 445 -375v-791h-211v150h-8q-44 -75 -126 -122
t-201 -47z" />
    <glyph glyph-name="Abrevetilde" unicode="&#x1eb4;" horiz-adv-x="1325" 
d="M339 1944q0 86 54 150t142 64q94 0 152 -63q23 -24 25 -26q2 -1 10 -9t21 -14t40 -6q26 0 45 32t21 72h133q0 -92 -54 -154t-144 -62t-143 56q-52 56 -96 58q-65 0 -70 -98h-136zM974 1850q0 -100 -82 -172t-230 -73t-232 71t-85 174h140q0 -54 49 -91t130 -37t130 36
t49 92h131zM662 1243h-8l-211 -644h427zM250 0h-227l518 1486h244l518 -1486h-242l-137 427h-535z" />
    <glyph glyph-name="abrevetilde" unicode="&#x1eb5;" horiz-adv-x="1165" 
d="M258 1607q0 85 54 150t142 64q85 0 136 -51l29 -29q9 -9 13 -11t10 -10q8 -8 12 -8t14 -6t35 -6t44 32t21 75h133q0 -92 -54 -155q-53 -64 -143 -64t-150 62l-26 26q-25 25 -64 27q-62 0 -71 -96h-135zM893 1513q0 -102 -81 -175t-230 -73t-232 72t-84 176h140
q0 -55 48 -93t129 -38t130 37t49 94h131zM544 156q101 0 176 67t75 166v121h-264q-106 0 -159 -46q-54 -46 -54 -130t62 -131t164 -47zM470 -19q-170 0 -272 95t-102 253q0 210 183 294q92 43 221 43h295v127q0 191 -223 191q-204 0 -222 -172h-213q8 152 113 253
q107 101 321 101q445 0 445 -375v-791h-211v150h-8q-44 -75 -126 -122t-201 -47z" />
    <glyph glyph-name="Abrevedotbelow" unicode="&#x1eb6;" horiz-adv-x="1325" 
d="M312 1913h144q0 -67 56 -112t151 -45t151 46q56 44 56 111h144q0 -123 -88 -207t-262 -84q-176 0 -264 84t-88 207zM543 -282q-1 40 35 76t89 35q53 0 89 -35q36 -34 35 -88q0 -54 -35 -88t-75 -34q-138 0 -138 134zM662 1243h-8l-211 -644h427zM250 0h-227l518 1486h244
l518 -1486h-242l-137 427h-535z" />
    <glyph glyph-name="abrevedotbelow" unicode="&#x1eb7;" horiz-adv-x="1165" 
d="M254 1573h144q0 -75 46 -125t134 -51q90 0 136 51t46 125h143q-2 -121 -85 -215t-239 -93q-157 -1 -241 93t-84 215zM602 -416q-140 0 -140 136q0 38 35 74t89 35q54 0 89 -35q37 -34 37 -88t-36 -88t-74 -34zM544 156q101 0 176 67t75 166v121h-264q-106 0 -159 -46
q-54 -46 -54 -130t62 -131t164 -47zM470 -19q-170 0 -272 95t-102 253q0 210 183 294q92 43 221 43h295v127q0 191 -223 191q-204 0 -222 -172h-213q8 152 113 253q107 101 321 101q445 0 445 -375v-791h-211v150h-8q-44 -75 -126 -122t-201 -47z" />
    <glyph glyph-name="Edotbelow" unicode="&#x1eb8;" horiz-adv-x="1205" 
d="M1084 194v-194h-911v1486h911v-194h-689v-443h650v-185h-650v-470h689zM502 -286q0 44 35 80t88 35q53 0 89 -35q36 -34 35 -88q0 -54 -35 -88t-79 -34t-72 15q-61 34 -61 115z" />
    <glyph glyph-name="edotbelow" unicode="&#x1eb9;" horiz-adv-x="1169" 
d="M323 683h532v4q0 135 -71 218q-72 83 -195 83t-195 -84t-71 -217v-4zM604 -19q-241 0 -371 146q-129 146 -129 393v100q0 248 127 398t359 150t357 -149t125 -397v-100h-749v-33q1 -137 71 -232t192 -95t180 46t73 115h218q-16 -121 -117 -226q-50 -53 -138 -85t-198 -31
zM578 -171q44 1 73 -15q63 -34 63 -98t-36 -98t-88 -34q-51 0 -71 16q-55 45 -55 102q0 56 36 92q34 36 78 35z" />
    <glyph glyph-name="Ehookabove" unicode="&#x1eba;" horiz-adv-x="1205" 
d="M674 1755q0 65 -97 64q-58 0 -100 -12v108q46 15 128 15t144 -44t63 -123q0 -119 -158 -179l-75 91q95 26 95 80zM1084 194v-194h-911v1486h911v-194h-689v-443h650v-185h-650v-470h689z" />
    <glyph glyph-name="ehookabove" unicode="&#x1ebb;" horiz-adv-x="1169" 
d="M578 1705q92 -1 157 -55t65 -141t-46 -137q-45 -50 -130 -96l-75 98q77 41 96 78q32 64 -21 105q-31 25 -85 25t-100 -17v119q47 21 139 21zM323 683h532v4q0 135 -71 218q-72 83 -195 83t-195 -84t-71 -217v-4zM604 -19q-241 0 -371 146q-129 146 -129 393v100
q0 248 127 398t359 150t357 -149t125 -397v-100h-749v-33q1 -137 71 -232t192 -95t180 46t73 115h218q-16 -121 -117 -226q-50 -53 -138 -85t-198 -31z" />
    <glyph glyph-name="Etilde" unicode="&#x1ebc;" horiz-adv-x="1205" 
d="M510 1727q-65 0 -69 -97h-127q0 88 48 152t132 64t160 -73q6 -4 33 -29t56 -25t47 33t22 75h125q0 -85 -51 -151t-135 -65q-119 0 -174 82q-8 13 -16 16q-7 4 -18 11q-12 7 -33 7zM1084 194v-194h-911v1486h911v-194h-689v-443h650v-185h-650v-470h689z" />
    <glyph glyph-name="etilde" unicode="&#x1ebd;" horiz-adv-x="1169" 
d="M460 1390q-67 0 -75 -110h-135q0 106 51 179t151 73t194 -114q21 -21 56 -23q34 -1 52 35t22 83h136q0 -98 -56 -175t-148 -77t-159 73q-7 0 -13 12t-13 16t-22 16q-16 12 -41 12zM323 683h532v4q0 135 -71 218q-72 83 -195 83t-195 -84t-71 -217v-4zM604 -19
q-241 0 -371 146q-129 146 -129 393v100q0 248 127 398t359 150t357 -149t125 -397v-100h-749v-33q1 -137 71 -232t192 -95t180 46t73 115h218q-16 -121 -117 -226q-50 -53 -138 -85t-198 -31z" />
    <glyph glyph-name="Ecircumflexacute" unicode="&#x1ebe;" horiz-adv-x="1205" 
d="M1084 194v-194h-911v1486h911v-194h-689v-443h650v-185h-650v-470h689zM841 1850l202 231h202l-279 -252zM258 1653l298 256h131l300 -256h-192l-169 149h-8l-166 -149h-194z" />
    <glyph glyph-name="ecircumflexacute" unicode="&#x1ebf;" horiz-adv-x="1169" 
d="M323 683h532v4q0 135 -71 218q-72 83 -195 83t-195 -84t-71 -217v-4zM604 -19q-241 0 -371 146q-129 146 -129 393v100q0 248 127 398t359 150t357 -149t125 -397v-100h-749v-33q1 -137 71 -232t192 -95t180 46t73 115h218q-16 -121 -117 -226q-50 -53 -138 -85t-198 -31
zM805 1511l200 231h202l-277 -252zM221 1313l299 258h129l302 -258h-191l-171 152h-8l-167 -152h-193z" />
    <glyph glyph-name="Ecircumflexgrave" unicode="&#x1ec0;" horiz-adv-x="1205" 
d="M1084 194v-194h-911v1486h911v-194h-689v-443h650v-185h-650v-470h689zM987 1653h-192l-169 149h-8l-166 -149h-194l298 256h131zM1126 1829h-148l-285 252h200z" />
    <glyph glyph-name="ecircumflexgrave" unicode="&#x1ec1;" horiz-adv-x="1169" 
d="M323 683h532v4q0 135 -71 218q-72 83 -195 83t-195 -84t-71 -217v-4zM604 -19q-241 0 -371 146q-129 146 -129 393v100q0 248 127 398t359 150t357 -149t125 -397v-100h-749v-33q1 -137 71 -232t192 -95t180 46t73 115h218q-16 -121 -117 -226q-50 -53 -138 -85t-198 -31
zM951 1313h-191l-171 152h-8l-167 -152h-193l299 258h129zM1089 1490h-148l-285 252h199z" />
    <glyph glyph-name="Ecircumflexhookabove" unicode="&#x1ec2;" horiz-adv-x="1205" 
d="M1084 194v-194h-911v1486h911v-194h-689v-443h650v-185h-650v-470h689zM1053 1969q0 -98 -114 -162l-69 70q54 37 54 71q0 68 -87 67q-35 0 -65 -4v97q34 8 92 8q120 1 166 -66q23 -33 23 -81zM256 1642l300 242h131l300 -242h-192l-171 140h-8l-166 -140h-194z" />
    <glyph glyph-name="ecircumflexhookabove" unicode="&#x1ec3;" horiz-adv-x="1169" 
d="M323 683h532v4q0 135 -71 218q-72 83 -195 83t-195 -84t-71 -217v-4zM604 -19q-241 0 -371 146q-129 146 -129 393v100q0 248 127 398t359 150t357 -149t125 -397v-100h-749v-33q1 -137 71 -232t192 -95t180 46t73 115h218q-16 -121 -117 -226q-50 -53 -138 -85t-198 -31
zM828 1777q58 -1 100 -17q90 -35 90 -131q0 -97 -117 -162l-66 73q52 34 52 68q0 69 -88 67q-35 0 -62 -4v100q33 6 91 6zM221 1305l297 239h131l300 -239h-191l-171 137h-8l-167 -137h-191z" />
    <glyph glyph-name="Ecircumflextilde" unicode="&#x1ec4;" horiz-adv-x="1205" 
d="M300 1961q0 83 51 146t138 63t169 -68q2 -4 13 -13t15 -13q28 -28 57 -28t52 25t27 83h133q0 -88 -54 -150q-55 -62 -127 -62t-106 16t-71 46q-54 52 -91 52q-67 1 -73 -97h-133zM262 1638l298 254h129l302 -254h-194l-168 150h-9l-166 -150h-192zM1084 194v-194h-911
v1486h911v-194h-689v-443h650v-185h-650v-470h689z" />
    <glyph glyph-name="ecircumflextilde" unicode="&#x1ec5;" horiz-adv-x="1169" 
d="M709 1711q58 0 78 108h131q0 -124 -92 -184q-46 -30 -114 -30q-88 0 -147 57t-97 57q-67 0 -73 -98h-131q0 118 86 178q46 32 124 33t161 -82q10 -10 14 -13t19 -15t41 -11zM225 1301l297 252h129l302 -252h-191l-169 150h-10l-167 -150h-191zM323 683h532v4
q0 135 -71 218q-72 83 -195 83t-195 -84t-71 -217v-4zM604 -19q-241 0 -371 146q-129 146 -129 393v100q0 248 127 398t359 150t357 -149t125 -397v-100h-749v-33q1 -137 71 -232t192 -95t180 46t73 115h218q-16 -121 -117 -226q-50 -53 -138 -85t-198 -31z" />
    <glyph glyph-name="Ecircumflexdotbelow" unicode="&#x1ec6;" horiz-adv-x="1205" 
d="M1084 194v-194h-911v1486h911v-194h-689v-443h650v-185h-650v-470h689zM260 1640l302 260h129l298 -260h-192l-168 154h-9l-168 -154h-192zM502 -286q0 44 35 80t88 35q53 0 89 -35q36 -34 35 -88q0 -54 -35 -88t-79 -34t-72 15q-61 34 -61 115z" />
    <glyph glyph-name="ecircumflexdotbelow" unicode="&#x1ec7;" horiz-adv-x="1169" 
d="M578 -171q44 1 73 -15q63 -34 63 -98t-36 -98t-88 -34q-51 0 -71 16q-55 45 -55 102q0 56 36 92q34 36 78 35zM323 683h532v4q0 135 -71 218q-72 83 -195 83t-195 -84t-71 -217v-4zM604 -19q-241 0 -371 146q-129 146 -129 393v100q0 248 127 398t359 150t357 -149
t125 -397v-100h-749v-33q1 -137 71 -232t192 -95t180 46t73 115h218q-16 -121 -117 -226q-50 -53 -138 -85t-198 -31zM279 1326l233 322h144l222 -324h-177l-116 202h-4l-127 -200h-175z" />
    <glyph glyph-name="Ihookabove" unicode="&#x1ec8;" horiz-adv-x="566" 
d="M472 1763q0 -119 -158 -179l-75 91q53 14 75 37q21 24 21 43q0 65 -98 64q-56 0 -100 -12v108q47 15 129 15t144 -44t62 -123zM395 0h-222v1486h222v-1486z" />
    <glyph glyph-name="ihookabove" unicode="&#x1ec9;" horiz-adv-x="586" 
d="M270 1705q74 0 128 -24q112 -50 112 -180q0 -79 -46 -129t-129 -96l-75 98q58 31 82 58q24 28 24 64t-31 61t-85 25t-100 -17v119q46 21 120 21zM185 0v1147h223v-1147h-223z" />
    <glyph glyph-name="Idotbelow" unicode="&#x1eca;" horiz-adv-x="566" 
d="M162 -282q0 40 36 76t89 35q53 0 89 -35t36 -75q0 -66 -37 -101q-37 -34 -76 -34q-137 0 -137 134zM395 0h-222v1486h222v-1486z" />
    <glyph glyph-name="idotbelow" unicode="&#x1ecb;" horiz-adv-x="586" 
d="M175 -304q-1 44 15 72q33 63 97 62q63 -1 99 -36q36 -34 36 -88t-36 -88t-88 -34t-88 34q-35 34 -35 78zM158 1429q0 55 39 90t97 35t98 -34q39 -36 39 -91t-39 -91t-98 -37q-60 1 -98 37t-38 91zM185 0v1147h219v-1147h-219z" />
    <glyph glyph-name="Odotbelow" unicode="&#x1ecc;" horiz-adv-x="1440" 
d="M112 631v210q0 314 164 495t446 181q184 0 322 -81t212 -234t74 -361v-210q0 -312 -164 -487t-446 -175t-446 175q-162 175 -162 487zM337 843v-212q0 -229 105 -347t277 -118t278 118t106 347v212q0 229 -106 354t-277 125q-232 0 -332 -216q-51 -109 -51 -263z
M599 -282q-1 40 35 76t89 35q53 0 89 -35q36 -34 35 -88q0 -54 -35 -88t-75 -34q-138 0 -138 134z" />
    </font>
</defs>
</svg>
