<svg xmlns="http://www.w3.org/2000/svg" xmlns:xlink="http://www.w3.org/1999/xlink" version="1.1" x="0px" y="0px" viewBox="0 0 32 40" enable-background="new 0 0 32 32" xml:space="preserve"><g><g><path d="M26.383,15.679C26.172,15.427,21.145,9.5,16,9.5S5.828,15.427,5.617,15.679L5.348,16l0.269,0.321    C5.828,16.573,10.855,22.5,16,22.5s10.172-5.927,10.383-6.179L26.652,16L26.383,15.679z M16,21.5c-4.03,0-8.219-4.279-9.332-5.5    c1.113-1.221,5.302-5.5,9.332-5.5s8.219,4.279,9.332,5.5C24.219,17.221,20.03,21.5,16,21.5z"/><path d="M16,12.5c-1.93,0-3.5,1.57-3.5,3.5s1.57,3.5,3.5,3.5s3.5-1.57,3.5-3.5S17.93,12.5,16,12.5z M16,18.5    c-1.378,0-2.5-1.121-2.5-2.5s1.122-2.5,2.5-2.5s2.5,1.121,2.5,2.5S17.378,18.5,16,18.5z"/></g></g></svg>