<?xml version="1.0" encoding="utf-8"?>


<!-- The icon can be used freely in both personal and commercial projects with no attribution required, but always appreciated. 
You may NOT sub-license, resell, rent, redistribute or otherwise transfer the icon without express written permission from iconmonstr.com -->


<!DOCTYPE svg PUBLIC "-//W3C//DTD SVG 1.1//EN" "http://www.w3.org/Graphics/SVG/1.1/DTD/svg11.dtd">

<svg version="1.1" xmlns="http://www.w3.org/2000/svg" xmlns:xlink="http://www.w3.org/1999/xlink" x="0px" y="0px"

	 width="512px" height="512px" viewBox="0 0 512 512" enable-background="new 0 0 512 512" xml:space="preserve">

<path id="github-circle-icon" d="M258.121,313.955c18.46-0.301,29.544,5.094,29.737,18.312

	c0.191,13.032-10.098,18.925-27.833,18.897c-19.679-0.027-30.843-5.623-31.203-19.043

	C228.495,319.902,238.362,314.279,258.121,313.955z M255.044,169.66c-15.482,0.107-22.43,9.802-22.412,25.343

	c0.019,17.07,7.146,25.874,22.706,25.636c13.553-0.208,22.326-7.51,22.12-24.757C277.256,178.868,268.899,169.565,255.044,169.66z

	 M462,256c0,113.771-92.229,206-206,206S50,369.771,50,256S142.229,50,256,50S462,142.229,462,256z M325.655,137.432

	c-12.368,5.504-25.646,8.544-39.847,9.083c-9.012-5.45-19.415-9.179-31.35-9.083c-29.299,0-58.407,20.311-59.623,55.229

	c-0.848,24.352,10.747,42.573,30.324,53.762c-8.938,4.219-12.451,13.919-12.451,23.44c0,9.52,6.518,19.576,12.597,24.023

	c-20.887,8.973-32.96,21.828-32.96,41.604c0,62.406,131.404,64.016,131.404-2.638c0-24.463-16.407-42.19-56.839-48.928

	c-16.019-2.313-24.464-27.248-0.879-31.789c33.84-5.713,56.546-38.527,44.681-74.564c5.048-0.793,10.033-2.023,14.942-3.809V137.432

	z"/>

</svg>

